<?xml version="1.0" encoding="UTF-8" standalone="no"?>
<!-- Created with Inkscape (http://www.inkscape.org/) -->

<svg
   xmlns:dc="http://purl.org/dc/elements/1.1/"
   xmlns:cc="http://creativecommons.org/ns#"
   xmlns:rdf="http://www.w3.org/1999/02/22-rdf-syntax-ns#"
   xmlns:svg="http://www.w3.org/2000/svg"
   xmlns="http://www.w3.org/2000/svg"
   version="1.0"
   width="48"
   height="48"
   viewBox="0 0 48 48"
   id="svg2"
   xml:space="preserve"><defs
     id="defs21" /><metadata
     id="metadata37"><rdf:RDF><cc:Work
         rdf:about=""><dc:format>image/svg+xml</dc:format><dc:type
           rdf:resource="http://purl.org/dc/dcmitype/StillImage" /><dc:title></dc:title><dc:date>November 2008</dc:date><dc:creator><cc:Agent><dc:title>Luca Ferretti &lt;elle.uca@libero.it&gt;</dc:title></cc:Agent></dc:creator><dc:subject><rdf:Bag><rdf:li>dialog</rdf:li><rdf:li>alert</rdf:li><rdf:li>notification</rdf:li><rdf:li>information</rdf:li></rdf:Bag></dc:subject><dc:coverage>Icon to show while providing info to user</dc:coverage><dc:description>A light bulb</dc:description><dc:contributor><cc:Agent><dc:title>Based on Jakub Steiner's work</dc:title></cc:Agent></dc:contributor></cc:Work></rdf:RDF></metadata><g
     id="layer1"><rect
       width="48"
       height="48"
       x="0"
       y="0"
       id="rect2415"
       style="fill:none" /><g
       transform="translate(0,2)"
       id="g3215"
       style="fill:none;stroke:#ffffff;stroke-width:12;stroke-miterlimit:4;stroke-dasharray:none"><path
         d="m 20,33 8,-1"
         id="path3217"
         style="fill:none;stroke:#ffffff;stroke-width:12;stroke-linecap:round;stroke-miterlimit:4;stroke-dasharray:none" /><path
         d="m 20,36 8,-1"
         id="path3219"
         style="fill:none;stroke:#ffffff;stroke-width:12;stroke-linecap:round;stroke-miterlimit:4;stroke-dasharray:none" /><path
         d="m 20,39 8,-1"
         id="path3221"
         style="fill:none;stroke:#ffffff;stroke-width:12;stroke-linecap:round;stroke-miterlimit:4;stroke-dasharray:none" /><path
         d="m 24,36 v 4"
         id="path3223"
         style="fill:none;stroke:#ffffff;stroke-width:12;stroke-linecap:round;stroke-miterlimit:4;stroke-dasharray:none" /></g><path
       d="m 36,18.5 a 12.5,12.5 0 1 1 -25,0 12.5,12.5 0 1 1 25,0 z"
       transform="matrix(1.0797,0,0,1.0803,-1.8608,-0.50497)"
       id="path3213"
       style="fill:none;stroke:#ffffff;stroke-width:11.11200047;stroke-linecap:round;stroke-linejoin:round" /><path
       d="m 36,18.5 a 12.5,12.5 0 1 1 -25,0 12.5,12.5 0 1 1 25,0 z"
       transform="matrix(1.0797,0,0,1.0803,-1.8608,-0.50497)"
       id="path3189"
       style="fill:#ffffff;stroke:#000000;stroke-width:3.70379996;stroke-linecap:round;stroke-linejoin:round" /><path
       d="m 23,27 -5,-9 c 4,3 7,4 10,1"
       id="path3193"
       style="fill:none;stroke:#000000;stroke-width:2;stroke-linecap:round;stroke-linejoin:round" /><g
       transform="translate(0,2)"
       id="g3207"><path
         d="m 20,33 8,-1"
         id="path3195"
         style="fill:none;stroke:#000000;stroke-width:4;stroke-linecap:round" /><path
         d="m 20,36 8,-1"
         id="path3197"
         style="fill:none;stroke:#000000;stroke-width:4;stroke-linecap:round" /><path
         d="m 20,39 8,-1"
         id="path3199"
         style="fill:none;stroke:#000000;stroke-width:4;stroke-linecap:round" /><path
         d="m 24,36 v 4"
         id="path3203"
         style="fill:none;stroke:#000000;stroke-width:6;stroke-linecap:round" /></g></g></svg>