<?xml version="1.0" encoding="UTF-8" standalone="no"?>
<!-- Created with Inkscape (http://www.inkscape.org/) -->

<svg
   xmlns:dc="http://purl.org/dc/elements/1.1/"
   xmlns:cc="http://creativecommons.org/ns#"
   xmlns:rdf="http://www.w3.org/1999/02/22-rdf-syntax-ns#"
   xmlns:svg="http://www.w3.org/2000/svg"
   xmlns="http://www.w3.org/2000/svg"
   xmlns:sodipodi="http://sodipodi.sourceforge.net/DTD/sodipodi-0.dtd"
   xmlns:inkscape="http://www.inkscape.org/namespaces/inkscape"
   id="svg2"
   height="48"
   width="48"
   version="1.0"
   inkscape:version="0.91 r13725"
   sodipodi:docname="media-playlist-repeat-song.svg">
  <defs
     id="defs10" />
  <sodipodi:namedview
     pagecolor="#ffffff"
     bordercolor="#666666"
     borderopacity="1"
     objecttolerance="10"
     gridtolerance="10"
     guidetolerance="10"
     inkscape:pageopacity="0"
     inkscape:pageshadow="2"
     inkscape:window-width="1920"
     inkscape:window-height="1029"
     id="namedview8"
     showgrid="false"
     inkscape:zoom="6.9532167"
     inkscape:cx="-11.596287"
     inkscape:cy="16.71061"
     inkscape:window-x="0"
     inkscape:window-y="0"
     inkscape:window-maximized="1"
     inkscape:current-layer="svg2" />
  <metadata
     id="metadata7">
    <rdf:RDF>
      <cc:Work
         rdf:about="">
        <dc:format>image/svg+xml</dc:format>
        <dc:type
           rdf:resource="http://purl.org/dc/dcmitype/StillImage" />
        <dc:title></dc:title>
        <dc:date>December 2008</dc:date>
        <dc:creator>
          <cc:Agent>
            <dc:title>Luca Ferretti</dc:title>
          </cc:Agent>
        </dc:creator>
        <dc:subject>
          <rdf:Bag>
            <rdf:li>media</rdf:li>
            <rdf:li>playlist</rdf:li>
            <rdf:li>play</rdf:li>
            <rdf:li>order</rdf:li>
            <rdf:li>repeat</rdf:li>
            <rdf:li />
          </rdf:Bag>
        </dc:subject>
        <dc:description>A &quot;circular&quot; arrow</dc:description>
      </cc:Work>
    </rdf:RDF>
  </metadata>
  <rect
     id="rect2382"
     style="stroke-width:0;fill:none"
     height="48"
     width="48"
     y="0"
     x="0" />
  <g
     id="layer1">
    <path
       id="path3157"
       style="stroke-linejoin:round;fill-rule:evenodd;stroke:#fff;stroke-linecap:round;stroke-width:10;fill:#fff"
       d="m7 34.91s-2 0-2-2v-25c0-2.0002 2-2.0002 2-2.0002h34s2 0 2 2v25c0 2-2 2-2 2h-11v6c-1 2-2 1-3-1l-5-8 5-8c1-2 2-3 3-1v6h7v-17h-26v17h6l-3 3 3 3h-10z" />
    <path
       id="path2385"
       style="stroke-linejoin:round;fill-rule:evenodd;stroke:#000;stroke-linecap:round;stroke-width:2"
       d="m7 34.91s-2 0-2-2v-25c0-2.0002 2-2.0002 2-2.0002h34s2 0 2 2v25c0 2-2 2-2 2h-11v6c-1 2-2 1-3-1l-5-8 5-8c1-2 2-3 3-1v6h7v-17h-26v17h6l-3 3 3 3h-10z" />
  </g>
  <circle
     r="10"
     cy="14.864408"
     cx="14"
     id="circle4140"
     style="opacity:1;fill:#000000;fill-opacity:1;stroke:#ffffff;stroke-width:6;stroke-linecap:round;stroke-linejoin:round;stroke-miterlimit:4;stroke-dasharray:none;stroke-opacity:1" />
  <circle
     style="opacity:1;fill:#000000;fill-opacity:1;stroke:none;stroke-width:3;stroke-linecap:round;stroke-linejoin:round;stroke-miterlimit:4;stroke-dasharray:none;stroke-opacity:1"
     id="path4138"
     cx="14"
     cy="14.864408"
     r="10" />
  <text
     xml:space="preserve"
     style="font-style:normal;font-weight:normal;font-size:16.38921165px;line-height:125%;font-family:sans-serif;letter-spacing:0px;word-spacing:0px;fill:#000000;fill-opacity:1;stroke:#ffffff;stroke-width:1px;stroke-linecap:round;stroke-linejoin:round;stroke-opacity:1;"
     x="10.595827"
     y="21.342468"
     id="text4142"
     sodipodi:linespacing="125%"><tspan
       sodipodi:role="line"
       id="tspan4144"
       x="10.595827"
       y="21.342468"
       style="font-style:normal;font-variant:normal;font-weight:normal;font-stretch:condensed;font-family:Impact;-inkscape-font-specification:'Impact Condensed';fill:#ffffff;stroke:#ffffff;stroke-opacity:1;stroke-linejoin:round;stroke-linecap:round;">1</tspan></text>
</svg>
