<?xml version="1.0" encoding="UTF-8" standalone="no"?>
<!-- Generator: Adobe Illustrator 9.0, SVG Export Plug-In  -->

<svg
   xmlns:dc="http://purl.org/dc/elements/1.1/"
   xmlns:cc="http://creativecommons.org/ns#"
   xmlns:rdf="http://www.w3.org/1999/02/22-rdf-syntax-ns#"
   xmlns:svg="http://www.w3.org/2000/svg"
   xmlns="http://www.w3.org/2000/svg"
   xmlns:sodipodi="http://sodipodi.sourceforge.net/DTD/sodipodi-0.dtd"
   xmlns:inkscape="http://www.inkscape.org/namespaces/inkscape"
   width="48"
   height="48"
   viewBox="0 0 48 48"
   xml:space="preserve"
   id="svg2"
   sodipodi:version="0.32"
   inkscape:version="0.48.3.1 r9886"
   sodipodi:docname="help-info.svg"
   inkscape:output_extension="org.inkscape.output.svg.inkscape"
   version="1.0"><metadata
   id="metadata35"><rdf:RDF><cc:Work
       rdf:about=""><dc:format>image/svg+xml</dc:format><dc:type
         rdf:resource="http://purl.org/dc/dcmitype/StillImage" /><dc:title></dc:title></cc:Work></rdf:RDF></metadata><defs
   id="defs33" /><sodipodi:namedview
   inkscape:window-height="999"
   inkscape:window-width="1680"
   inkscape:pageshadow="2"
   inkscape:pageopacity="0.0"
   guidetolerance="10.0"
   gridtolerance="10.0"
   objecttolerance="10.0"
   borderopacity="1.0"
   bordercolor="#666666"
   pagecolor="#ffffff"
   id="base"
   width="48px"
   height="48px"
   inkscape:zoom="6.7833333"
   inkscape:cx="11.554742"
   inkscape:cy="24.103194"
   inkscape:window-x="0"
   inkscape:window-y="0"
   inkscape:current-layer="g5"
   showgrid="false"
   inkscape:window-maximized="1" />
	<g
   id="Layer_x0020_4"
   style="fill-rule:nonzero;stroke:#000000;stroke-width:0.81389493;stroke-miterlimit:4;fill:#000000;fill-opacity:1"
   transform="matrix(1.2287002,0,0,1.2286195,-5.5002387,-5.4868675)">
		<g
   style="stroke:none;fill:#000000;fill-opacity:1"
   id="g5">
			
			
			
			
			
			
			
			
			
			
			
		<flowRoot
   xml:space="preserve"
   id="flowRoot3789"
   style="fill:black;stroke:none;stroke-opacity:1;stroke-width:1px;stroke-linejoin:miter;stroke-linecap:butt;fill-opacity:1;font-family:Sans;font-style:normal;font-weight:normal;font-size:4px;line-height:125%;letter-spacing:0px;word-spacing:0px"><flowRegion
     id="flowRegion3791"><rect
       id="rect3793"
       width="5.6019654"
       height="17.395578"
       x="16.805897"
       y="16.452087" /></flowRegion><flowPara
     id="flowPara3795"></flowPara></flowRoot><path
   transform="matrix(1.5602928,0,0,1.7072624,-14.560604,-21.78996)"
   d="m 33.316954,26.771498 a 8.6240788,8.2555285 0 1 1 -17.248158,0 8.6240788,8.2555285 0 1 1 17.248158,0 z"
   sodipodi:ry="8.2555285"
   sodipodi:rx="8.6240788"
   sodipodi:cy="26.771498"
   sodipodi:cx="24.692875"
   id="path3761"
   style="fill:#ffffff;fill-opacity:1;stroke:#ffffff;stroke-width:5.98406649;stroke-miterlimit:4;stroke-opacity:1;stroke-dasharray:none"
   sodipodi:type="arc" /><path
   inkscape:connector-curvature="0"
   d="m 25.420541,21.140686 c -5e-6,1.003093 -0.03715,1.938066 -0.111447,2.804921 -0.07431,0.866869 -0.173365,1.746114 -0.297191,2.63774 l -2.117483,0 c -0.12383,-0.891626 -0.229086,-1.770871 -0.315765,-2.63774 -0.0743,-0.866855 -0.111447,-1.801828 -0.111446,-2.804921 l 0,-3.325038 2.953332,0 0,3.325038 m 0.241467,8.080401 c -4e-6,0.544887 -0.179557,0.965934 -0.538658,1.263143 -0.346726,0.29721 -0.74298,0.445815 -1.188763,0.445815 -0.445788,0 -0.848233,-0.148605 -1.207336,-0.445815 -0.346724,-0.297209 -0.520085,-0.718256 -0.520084,-1.263143 -10e-7,-0.544883 0.17336,-0.965931 0.520084,-1.263143 0.359103,-0.297207 0.761548,-0.445812 1.207336,-0.445815 0.445783,3e-6 0.842037,0.148608 1.188763,0.445815 0.359101,0.297212 0.538654,0.71826 0.538658,1.263143"
   style="font-size:22px;font-style:normal;font-variant:normal;font-weight:bold;font-stretch:normal;line-height:125%;letter-spacing:0px;word-spacing:0px;fill:#000000;stroke:#ffffff;stroke-width:9.76673889;stroke-miterlimit:4;stroke-opacity:1;stroke-dasharray:none;font-family:Ubuntu;-inkscape-font-specification:Ubuntu Bold"
   id="path3765" /><path
   sodipodi:type="arc"
   style="fill:#ffffff;fill-opacity:1;stroke:#000000;stroke-width:2.5652945;stroke-miterlimit:4;stroke-opacity:1;stroke-dasharray:none"
   id="path2988-8"
   sodipodi:cx="24.692875"
   sodipodi:cy="26.771498"
   sodipodi:rx="8.6240788"
   sodipodi:ry="8.2555285"
   d="m 33.316954,26.771498 a 8.6240788,8.2555285 0 1 1 -17.248158,0 8.6240788,8.2555285 0 1 1 17.248158,0 z"
   transform="matrix(1.5602928,0,0,1.7072624,-14.560604,-21.78996)" /><path
   inkscape:connector-curvature="0"
   id="path3830"
   style="font-size:17.90568733px;font-style:normal;font-variant:normal;font-weight:bold;font-stretch:normal;line-height:125%;letter-spacing:0px;word-spacing:0px;fill:#000000;font-family:Ubuntu;-inkscape-font-specification:Ubuntu Bold"
   d="m 25.19918,30.815342 -2.667859,0 0,-9.4187 2.667859,0 0,9.4187 m 0.250672,-12.140454 c -4e-6,0.48945 -0.161149,0.877418 -0.483438,1.163908 -0.310358,0.274573 -0.680397,0.411854 -1.110116,0.411844 -0.429724,10e-6 -0.805731,-0.137271 -1.128022,-0.411844 -0.310355,-0.28649 -0.465532,-0.674458 -0.465531,-1.163908 -10e-7,-0.489426 0.155176,-0.871426 0.465531,-1.146002 0.322291,-0.286486 0.698298,-0.429737 1.128022,-0.42975 0.429719,1.3e-5 0.799758,0.143264 1.110116,0.42975 0.322289,0.274576 0.483434,0.656576 0.483438,1.146002" /></g>
	</g>
	
</svg>