<?xml version="1.0" encoding="UTF-8" standalone="no"?>
<!-- Created with Inkscape (http://www.inkscape.org/) -->

<svg
   xmlns:dc="http://purl.org/dc/elements/1.1/"
   xmlns:cc="http://creativecommons.org/ns#"
   xmlns:rdf="http://www.w3.org/1999/02/22-rdf-syntax-ns#"
   xmlns:svg="http://www.w3.org/2000/svg"
   xmlns="http://www.w3.org/2000/svg"
   version="1.1"
   width="48"
   height="48"
   id="svg2387">
  <defs
     id="defs16" />
  <metadata
     id="metadata2392">
    <rdf:RDF>
      <cc:Work
         rdf:about="">
        <dc:format>image/svg+xml</dc:format>
        <dc:type
           rdf:resource="http://purl.org/dc/dcmitype/StillImage" />
        <dc:title></dc:title>
        <dc:date>June 2009</dc:date>
        <dc:creator>
          <cc:Agent>
            <dc:title>Luca Ferretti</dc:title>
          </cc:Agent>
        </dc:creator>
        <dc:publisher>
          <cc:Agent>
            <dc:title>gnome.org</dc:title>
          </cc:Agent>
        </dc:publisher>
        <dc:subject>
          <rdf:Bag>
            <rdf:li>audio</rdf:li>
            <rdf:li>input</rdf:li>
            <rdf:li>microphone</rdf:li>
          </rdf:Bag>
        </dc:subject>
        <dc:description>a talk radio style microphone</dc:description>
      </cc:Work>
    </rdf:RDF>
  </metadata>
  <g
     transform="translate(-4,0)"
     id="layer1">
    <g
       id="g3792">
      <rect
         width="3"
         height="12"
         rx="1.5"
         ry="1.2558138"
         x="45"
         y="4"
         id="rect3786"
         style="fill:#000000;fill-opacity:1;stroke:#ffffff;stroke-width:8;stroke-miterlimit:4;stroke-opacity:1;stroke-dasharray:none" />
      <rect
         width="3"
         height="12"
         rx="1.5"
         ry="1.2558138"
         x="45"
         y="18"
         id="rect3788"
         style="fill:#000000;fill-opacity:1;stroke:#ffffff;stroke-width:8;stroke-miterlimit:4;stroke-opacity:1;stroke-dasharray:none" />
      <rect
         width="3"
         height="12"
         rx="1.5"
         ry="1.2558138"
         x="45"
         y="32"
         id="rect3790"
         style="fill:#000000;fill-opacity:1;stroke:#ffffff;stroke-width:8;stroke-miterlimit:4;stroke-opacity:1;stroke-dasharray:none" />
    </g>
    <rect
       width="48"
       height="48"
       rx="0"
       ry="0"
       x="0"
       y="0"
       id="rect2387"
       style="fill:none" />
    <rect
       width="20"
       height="30"
       rx="10"
       ry="8.9131002"
       x="15.013398"
       y="4"
       id="rect2394"
       style="fill:#ffffff;stroke:#ffffff;stroke-width:8;stroke-linecap:round;stroke-linejoin:round" />
    <path
       d="m 10.013398,14 v 9 c 0,0 -1.0312,15 15,15 16,0 15,-15 15,-15 v -9"
       id="path3161"
       style="fill:none;stroke:#ffffff;stroke-width:11;stroke-linecap:round;stroke-linejoin:round;stroke-miterlimit:4;stroke-dasharray:none" />
    <rect
       width="20"
       height="30"
       rx="10"
       ry="8.9131002"
       x="15.013398"
       y="4"
       id="rect2399" />
    <path
       d="m 24.013398,7 h 2 c 3.878,0 6,3.804 6,7.288 V 21 h -14 v -6.712 c 0,-3.484 2.122,-7.288 6,-7.288 z"
       id="rect2401"
       style="fill:#ffffff" />
    <path
       d="m 11.013398,42 h 29"
       id="path3168"
       style="fill:none;stroke:#ffffff;stroke-width:11;stroke-linecap:round;stroke-miterlimit:4;stroke-dasharray:none" />
    <path
       d="m 11.013398,42 h 29"
       id="path3174"
       style="fill:none;stroke:#000000;stroke-width:4;stroke-linecap:round" />
    <path
       d="m 10.013398,14 v 9 c 0,0 -1.0312,15 15,15 16,0 15,-15 15,-15 v -9"
       id="path3159"
       style="fill:none;stroke:#000000;stroke-width:4;stroke-linecap:round;stroke-linejoin:round" />
    <rect
       width="6.2223001"
       height="3.2248001"
       x="21.791397"
       y="37.775002"
       id="rect3163" />
    <rect
       width="3"
       height="12"
       rx="1.5"
       ry="1.2558138"
       x="45"
       y="4"
       id="rect3761"
       style="fill:#999999;fill-opacity:1;stroke:none" />
    <rect
       width="3"
       height="12"
       rx="1.5"
       ry="1.2558138"
       x="45"
       y="18"
       id="rect3763"
       style="fill:#999999;fill-opacity:1;stroke:none" />
    <rect
       width="3"
       height="12"
       rx="1.5"
       ry="1.2558138"
       x="45"
       y="32"
       id="rect3765"
       style="fill:#000000;fill-opacity:1;stroke:none" />
  </g>
</svg>
