<?xml version="1.0" encoding="UTF-8" standalone="no"?>
<!-- Created with Inkscape (http://www.inkscape.org/) -->

<svg
   xmlns:dc="http://purl.org/dc/elements/1.1/"
   xmlns:cc="http://creativecommons.org/ns#"
   xmlns:rdf="http://www.w3.org/1999/02/22-rdf-syntax-ns#"
   xmlns:svg="http://www.w3.org/2000/svg"
   xmlns="http://www.w3.org/2000/svg"
   xmlns:sodipodi="http://sodipodi.sourceforge.net/DTD/sodipodi-0.dtd"
   xmlns:inkscape="http://www.inkscape.org/namespaces/inkscape"
   id="svg2"
   sodipodi:version="0.32"
   inkscape:version="0.91 r13725"
   width="48"
   height="48"
   version="1.0"
   sodipodi:docname="network-error.svg"
   inkscape:output_extension="org.inkscape.output.svg.inkscape">
  <metadata
     id="metadata7">
    <rdf:RDF>
      <cc:Work
         rdf:about="">
        <dc:format>image/svg+xml</dc:format>
        <dc:type
           rdf:resource="http://purl.org/dc/dcmitype/StillImage" />
      </cc:Work>
    </rdf:RDF>
  </metadata>
  <defs
     id="defs5">
    <linearGradient
       id="linearGradient4447">
      <stop
         id="stop4449"
         offset="0"
         style="stop-color:#c00;stop-opacity:1;" />
      <stop
         id="stop4451"
         offset="1"
         style="stop-color:#ad0000;stop-opacity:1;" />
    </linearGradient>
  </defs>
  <sodipodi:namedview
     inkscape:window-height="1029"
     inkscape:window-width="1920"
     inkscape:pageshadow="2"
     inkscape:pageopacity="0.48627451"
     guidetolerance="10000"
     gridtolerance="10.0"
     objecttolerance="10000"
     borderopacity="1.0"
     bordercolor="#666666"
     pagecolor="#aa2727"
     id="base"
     showgrid="true"
     inkscape:zoom="2.8284272"
     inkscape:cx="-88.181739"
     inkscape:cy="51.259633"
     inkscape:window-x="0"
     inkscape:window-y="0"
     inkscape:current-layer="g2991"
     inkscape:window-maximized="1" />
  <g
     transform="matrix(0.83333333,0,0,0.83333333,4,4.0000002)"
     id="g3000"
     style="stroke-width:9.60000003999999940;stroke-miterlimit:4;stroke-dasharray:none;stroke:#ffffff;stroke-opacity:1">
    <path
       inkscape:connector-curvature="0"
       style="color:#000000;fill:#d30000;fill-opacity:1;fill-rule:nonzero;stroke:#ffffff;stroke-width:9.60000003999999940;marker:none;visibility:visible;display:inline;overflow:visible;stroke-miterlimit:4;stroke-dasharray:none;stroke-opacity:1"
       d="m 24.0625,8.125 c -8.945783,-4e-7 -16.21875,7.276543 -16.21875,16.21875 -1e-7,8.942207 7.272967,16.1875 16.21875,16.1875 8.94578,10e-7 16.21875,-7.245293 16.21875,-16.1875 C 40.28125,15.401543 33.008281,8.125 24.0625,8.125 z m -9.09375,13.21875 18.25,0 0,5.65625 -18.25,0 0,-5.65625 z"
       id="path3002" />
    <path
       inkscape:connector-curvature="0"
       style="color:#000000;fill:#000000;fill-opacity:1;fill-rule:nonzero;stroke:#ffffff;stroke-width:9.60000003999999940;marker:none;visibility:visible;display:inline;overflow:visible;enable-background:accumulate;stroke-miterlimit:4;stroke-dasharray:none;stroke-opacity:1"
       d="M 4.65625,0 C 2.0801499,0 0,2.0801499 0,4.65625 L 0,26.5625 c 0,2.5761 2.0801499,4.625 4.65625,4.625 l 4.75,0 c -0.5348912,-1.137823 -0.9908731,-2.330985 -1.25,-3.59375 l -1.84375,0 c -1.4958003,0 -2.71875,-1.1917 -2.71875,-2.6875 l 0,-18.59375 c 0,-1.4958003 1.22295,-2.71875 2.71875,-2.71875 l 21,0 C 28.8083,3.59375 30,4.8167 30,6.3125 L 30,9.25 c 1.28635,0.508127 2.492113,1.165577 3.59375,1.96875 l 0,-6.5625 C 33.59375,2.0801499 31.5136,0 28.9375,0 L 4.65625,0 z"
       id="path3004" />
    <path
       inkscape:connector-curvature="0"
       style="color:#000000;fill:#000000;fill-opacity:1;fill-rule:nonzero;stroke:#ffffff;stroke-width:9.60000003999999940;marker:none;visibility:visible;display:inline;overflow:visible;enable-background:accumulate;stroke-miterlimit:4;stroke-dasharray:none;stroke-opacity:1"
       d="M 7.1875,7.1875 7.1875,24 7.875,24 C 8.0607362,15.217771 15.232984,8.1249996 24.0625,8.125 c 0.79954,0 1.57489,0.044055 2.34375,0.15625 l 0,-1.09375 -19.21875,0 z"
       id="path3006" />
    <path
       inkscape:connector-curvature="0"
       style="color:#000000;fill:#000000;fill-opacity:1;fill-rule:nonzero;stroke:#ffffff;stroke-width:9.60000003999999940;marker:none;visibility:visible;display:inline;overflow:visible;enable-background:accumulate;stroke-miterlimit:4;stroke-dasharray:none;stroke-opacity:1"
       d="m 38.40625,16.8125 c 0.59251,1.127556 1.091338,2.330136 1.40625,3.59375 l 1.875,0 c 1.495799,0 2.71875,1.1917 2.71875,2.6875 l 0,18.59375 c -2e-6,1.495799 -1.22295,2.71875 -2.71875,2.71875 l -21,0 C 19.191699,44.406248 18,43.1833 18,41.6875 l 0,-2.3125 c -1.290889,-0.521771 -2.492042,-1.21177 -3.59375,-2.03125 l 0,6 C 14.40625,45.91985 16.4864,48 19.0625,48 l 24.28125,0 C 45.91985,48 47.999998,45.919851 48,43.34375 L 48,21.4375 c 0,-2.5761 -2.08015,-4.625 -4.65625,-4.625 l -4.9375,0 z"
       id="path3008" />
    <path
       inkscape:connector-curvature="0"
       style="color:#000000;fill:#000000;fill-opacity:1;fill-rule:nonzero;stroke:#ffffff;stroke-width:9.60000003999999940;marker:none;visibility:visible;display:inline;overflow:visible;enable-background:accumulate;stroke-miterlimit:4;stroke-dasharray:none;stroke-opacity:1"
       d="m 40.25,24 c 0.0024,0.115644 0.03125,0.22753 0.03125,0.34375 0,8.942207 -7.27297,16.187501 -16.21875,16.1875 -0.844017,0 -1.659169,-0.06272 -2.46875,-0.1875 l 0,0.46875 19.21875,0 0,-16.8125 -0.5625,0 z"
       id="path3010" />
    <g
       inkscape:label="Layer 1"
       id="g3012"
       transform="matrix(1.2,0,0,1.2,2.4168314,0.09843168)"
       style="stroke-width:8.00000003000000071;stroke-miterlimit:4;stroke-dasharray:none;stroke:#ffffff;stroke-opacity:1">
      <g
         id="g3014"
         transform="matrix(1.566667,0,0,1.566667,-8.925566,-23.94764)"
         style="stroke-width:5.10638190999999964;stroke-miterlimit:4;stroke-dasharray:none;stroke:#ffffff;stroke-opacity:1" />
    </g>
  </g>
  <g
     id="g2991"
     transform="matrix(0.83333333,0,0,0.83333333,4,4.0000002)">
    <path
       id="rect2161"
       d="M 4.65625,0 C 2.0801499,0 0,2.0801499 0,4.65625 L 0,26.5625 c 0,2.5761 2.0801499,4.625 4.65625,4.625 l 4.75,0 c -0.5348912,-1.137823 -0.9908731,-2.330985 -1.25,-3.59375 l -1.84375,0 c -1.4958003,0 -2.71875,-1.1917 -2.71875,-2.6875 l 0,-18.59375 c 0,-1.4958003 1.22295,-2.71875 2.71875,-2.71875 l 21,0 C 28.8083,3.59375 30,4.8167 30,6.3125 L 30,9.25 c 1.28635,0.508127 2.492113,1.165577 3.59375,1.96875 l 0,-6.5625 C 33.59375,2.0801499 31.5136,0 28.9375,0 L 4.65625,0 z"
       style="color:#000000;fill:#000000;fill-opacity:1;fill-rule:nonzero;stroke:none;stroke-width:2;marker:none;visibility:visible;display:inline;overflow:visible;enable-background:accumulate"
       inkscape:connector-curvature="0" />
    <path
       id="rect5077"
       d="M 7.1875,7.1875 7.1875,24 7.875,24 C 8.0607362,15.217771 15.232984,8.1249996 24.0625,8.125 c 0.79954,0 1.57489,0.044055 2.34375,0.15625 l 0,-1.09375 -19.21875,0 z"
       style="color:#000000;fill:#000000;fill-opacity:1;fill-rule:nonzero;stroke:none;stroke-width:2;marker:none;visibility:visible;display:inline;overflow:visible;enable-background:accumulate"
       inkscape:connector-curvature="0" />
    <path
       id="rect5081"
       d="m 38.40625,16.8125 c 0.59251,1.127556 1.091338,2.330136 1.40625,3.59375 l 1.875,0 c 1.495799,0 2.71875,1.1917 2.71875,2.6875 l 0,18.59375 c -2e-6,1.495799 -1.22295,2.71875 -2.71875,2.71875 l -21,0 C 19.191699,44.406248 18,43.1833 18,41.6875 l 0,-2.3125 c -1.290889,-0.521771 -2.492042,-1.21177 -3.59375,-2.03125 l 0,6 C 14.40625,45.91985 16.4864,48 19.0625,48 l 24.28125,0 C 45.91985,48 47.999998,45.919851 48,43.34375 L 48,21.4375 c 0,-2.5761 -2.08015,-4.625 -4.65625,-4.625 l -4.9375,0 z"
       style="color:#000000;fill:#000000;fill-opacity:1;fill-rule:nonzero;stroke:none;stroke-width:2;marker:none;visibility:visible;display:inline;overflow:visible;enable-background:accumulate"
       inkscape:connector-curvature="0" />
    <path
       id="rect5085"
       d="m 40.25,24 c 0.0024,0.115644 0.03125,0.22753 0.03125,0.34375 0,8.942207 -7.27297,16.187501 -16.21875,16.1875 -0.844017,0 -1.659169,-0.06272 -2.46875,-0.1875 l 0,0.46875 19.21875,0 0,-16.8125 -0.5625,0 z"
       style="color:#000000;fill:#000000;fill-opacity:1;fill-rule:nonzero;stroke:none;stroke-width:2;marker:none;visibility:visible;display:inline;overflow:visible;enable-background:accumulate"
       inkscape:connector-curvature="0" />
    <g
       transform="matrix(1.2,0,0,1.2,2.4168314,0.09843168)"
       id="layer1"
       inkscape:label="Layer 1">
      <g
         transform="matrix(1.566667,0,0,1.566667,-8.925566,-23.94764)"
         id="g7435" />
    </g>
    <path
       inkscape:connector-curvature="0"
       style="color:#000000;display:inline;overflow:visible;visibility:visible;fill:#ffffff;fill-opacity:1;fill-rule:nonzero;stroke:#ffffff;stroke-width:6;stroke-miterlimit:4;stroke-dasharray:none;stroke-opacity:1;marker:none"
       d="m 24.0625,8.125 c -8.945783,-4e-7 -16.21875,7.276543 -16.21875,16.21875 -1e-7,8.942207 7.272967,16.1875 16.21875,16.1875 8.94578,10e-7 16.21875,-7.245293 16.21875,-16.1875 C 40.28125,15.401543 33.008281,8.125 24.0625,8.125 Z m -9.09375,13.21875 18.25,0 0,5.65625 -18.25,0 0,-5.65625 z"
       id="path4151" />
    <path
       id="path4445"
       d="m 24.0625,8.125 c -8.945783,-4e-7 -16.21875,7.276543 -16.21875,16.21875 -1e-7,8.942207 7.272967,16.1875 16.21875,16.1875 8.94578,10e-7 16.21875,-7.245293 16.21875,-16.1875 C 40.28125,15.401543 33.008281,8.125 24.0625,8.125 z m -9.09375,13.21875 18.25,0 0,5.65625 -18.25,0 0,-5.65625 z"
       style="color:#000000;fill:#d30000;fill-opacity:1;fill-rule:nonzero;stroke:#ffffff;stroke-width:1.2;marker:none;visibility:visible;display:inline;overflow:visible;stroke-opacity:1;stroke-miterlimit:4;stroke-dasharray:none;stroke-linejoin:round;stroke-linecap:round"
       inkscape:connector-curvature="0" />
  </g>
</svg>
