<?xml version="1.0" encoding="UTF-8" standalone="no"?>
<!-- Created with Inkscape (http://www.inkscape.org/) -->

<svg
   xmlns:dc="http://purl.org/dc/elements/1.1/"
   xmlns:cc="http://creativecommons.org/ns#"
   xmlns:rdf="http://www.w3.org/1999/02/22-rdf-syntax-ns#"
   xmlns:svg="http://www.w3.org/2000/svg"
   xmlns="http://www.w3.org/2000/svg"
   xmlns:sodipodi="http://sodipodi.sourceforge.net/DTD/sodipodi-0.dtd"
   xmlns:inkscape="http://www.inkscape.org/namespaces/inkscape"
   version="1.0"
   width="48"
   height="48"
   id="svg2"
   inkscape:version="0.91 r13725"
   sodipodi:docname="network-wireless-disconnected.svg">
  <sodipodi:namedview
     pagecolor="#ffffff"
     bordercolor="#666666"
     borderopacity="1"
     objecttolerance="10"
     gridtolerance="10"
     guidetolerance="10"
     inkscape:pageopacity="0"
     inkscape:pageshadow="2"
     inkscape:window-width="972"
     inkscape:window-height="626"
     id="namedview22"
     showgrid="false"
     inkscape:zoom="4.9166667"
     inkscape:cx="7.7288136"
     inkscape:cy="24"
     inkscape:window-x="786"
     inkscape:window-y="247"
     inkscape:window-maximized="0"
     inkscape:current-layer="g2990" />
  <metadata
     id="metadata7">
    <rdf:RDF>
      <cc:Work
         rdf:about="">
        <dc:format>image/svg+xml</dc:format>
        <dc:type
           rdf:resource="http://purl.org/dc/dcmitype/StillImage" />
        <dc:title />
      </cc:Work>
    </rdf:RDF>
  </metadata>
  <defs
     id="defs5">
    <linearGradient
       id="linearGradient4447">
      <stop
         id="stop4449"
         style="stop-color:#cc0000;stop-opacity:1"
         offset="0" />
      <stop
         id="stop4451"
         style="stop-color:#ad0000;stop-opacity:1"
         offset="1" />
    </linearGradient>
  </defs>
  <g
     id="g2998"
     style="stroke:#ffffff;stroke-width:8;stroke-miterlimit:4;stroke-opacity:1;stroke-dasharray:none">
    <path
       d="m 24.052083,10.770833 c -7.454819,0 -13.515625,6.063786 -13.515625,13.515625 0,7.45184 6.060806,13.489584 13.515625,13.489584 7.454817,1e-6 13.515625,-6.037744 13.515625,-13.489584 0,-7.451839 -6.060807,-13.515625 -13.515625,-13.515625 z m -4.713541,7.213542 4.583333,4.583333 4.583333,-4.583333 1.588542,1.588542 -4.583333,4.583333 4.583333,4.557292 -1.588542,1.614583 -4.583333,-4.583333 -4.583333,4.583333 L 17.75,28.713542 22.333333,24.15625 17.75,19.572917 19.338542,17.984375 z"
       id="path3000"
       style="color:#000000;fill:#d30000;fill-opacity:1;fill-rule:nonzero;stroke:#ffffff;stroke-width:8;stroke-miterlimit:4;stroke-opacity:1;stroke-dasharray:none;marker:none;visibility:visible;display:inline;overflow:visible" />
    <path
       d="M 7.8802083,4 C 5.7334582,4 4,5.7334583 4,7.880208 l 0,18.255209 c 0,2.14675 1.7334582,3.854166 3.8802083,3.854166 l 3.9583337,0 c -0.445743,-0.948185 -0.825728,-1.942487 -1.041667,-2.994791 l -1.5364583,0 c -1.2465003,0 -2.265625,-0.993084 -2.265625,-2.239584 l 0,-15.494791 c 0,-1.246501 1.019125,-2.265625 2.265625,-2.265625 l 17.5000003,0 C 28.006917,6.994792 29,8.013917 29,9.260417 l 0,2.447916 c 1.071958,0.423439 2.076761,0.971315 2.994792,1.640625 l 0,-5.46875 C 31.994792,5.7334583 30.261333,4 28.114583,4 L 7.8802083,4 z"
       id="path3002"
       style="color:#000000;fill:#000000;fill-opacity:1;fill-rule:nonzero;stroke:#ffffff;stroke-width:8;stroke-miterlimit:4;stroke-opacity:1;stroke-dasharray:none;marker:none;visibility:visible;display:inline;overflow:visible;enable-background:accumulate" />
    <path
       d="m 9.9895833,9.989583 0,14.010417 0.5729167,0 c 0.15478,-7.318524 6.131653,-13.229167 13.489583,-13.229167 0.666284,0 1.312409,0.03671 1.953125,0.130209 l 0,-0.911459 -16.0156247,0 z"
       id="path3004"
       style="color:#000000;fill:#000000;fill-opacity:1;fill-rule:nonzero;stroke:#ffffff;stroke-width:8;stroke-miterlimit:4;stroke-opacity:1;stroke-dasharray:none;marker:none;visibility:visible;display:inline;overflow:visible;enable-background:accumulate" />
    <path
       d="m 36.005208,18.010417 c 0.493759,0.93963 0.909449,1.94178 1.171875,2.994791 l 1.5625,0 c 1.2465,0 2.265625,0.993084 2.265625,2.239584 l 0,15.494791 c -1e-6,1.2465 -1.019125,2.265625 -2.265625,2.265625 l -17.5,0 C 19.993083,41.005207 19,39.986083 19,38.739583 L 19,36.8125 c -1.075741,-0.434809 -2.076702,-1.009808 -2.994792,-1.692708 l 0,5 c 0,2.14675 1.733459,3.880208 3.880209,3.880208 l 20.234375,0 C 42.266542,44 43.999998,42.266542 44,40.119792 l 0,-18.255209 c 0,-2.14675 -1.733458,-3.854166 -3.880208,-3.854166 l -4.114584,0 z"
       id="path3006"
       style="color:#000000;fill:#000000;fill-opacity:1;fill-rule:nonzero;stroke:#ffffff;stroke-width:8;stroke-miterlimit:4;stroke-opacity:1;stroke-dasharray:none;marker:none;visibility:visible;display:inline;overflow:visible;enable-background:accumulate" />
    <path
       d="m 37.541667,24 c 0.002,0.09637 0.02604,0.189608 0.02604,0.286458 0,7.45184 -6.060808,13.489585 -13.515625,13.489584 -0.703347,0 -1.38264,-0.05227 -2.057291,-0.15625 l 0,0.390625 16.015625,0 0,-14.010417 -0.46875,0 z"
       id="path3008"
       style="color:#000000;fill:#000000;fill-opacity:1;fill-rule:nonzero;stroke:#ffffff;stroke-width:8;stroke-miterlimit:4;stroke-opacity:1;stroke-dasharray:none;marker:none;visibility:visible;display:inline;overflow:visible;enable-background:accumulate" />
    <g
       transform="matrix(1.566667,0,0,1.566667,-2.9115398,-19.865613)"
       id="g3010"
       style="fill:#ff0000;fill-opacity:1;stroke:#ffffff;stroke-width:5.10638189;stroke-miterlimit:4;stroke-opacity:1;stroke-dasharray:none" />
  </g>
  <g
     id="g2990">
    <path
       d="M 7.8802083,4 C 5.7334582,4 4,5.7334583 4,7.880208 l 0,18.255209 c 0,2.14675 1.7334582,3.854166 3.8802083,3.854166 l 3.9583337,0 c -0.445743,-0.948185 -0.825728,-1.942487 -1.041667,-2.994791 l -1.5364583,0 c -1.2465003,0 -2.265625,-0.993084 -2.265625,-2.239584 l 0,-15.494791 c 0,-1.246501 1.019125,-2.265625 2.265625,-2.265625 l 17.5000003,0 C 28.006917,6.994792 29,8.013917 29,9.260417 l 0,2.447916 c 1.071958,0.423439 2.076761,0.971315 2.994792,1.640625 l 0,-5.46875 C 31.994792,5.7334583 30.261333,4 28.114583,4 L 7.8802083,4 z"
       id="rect2161"
       style="color:#000000;fill:#000000;fill-opacity:1;fill-rule:nonzero;stroke:none;stroke-width:2;marker:none;visibility:visible;display:inline;overflow:visible;enable-background:accumulate" />
    <path
       d="m 9.9895833,9.989583 0,14.010417 0.5729167,0 c 0.15478,-7.318524 6.131653,-13.229167 13.489583,-13.229167 0.666284,0 1.312409,0.03671 1.953125,0.130209 l 0,-0.911459 -16.0156247,0 z"
       id="rect5077"
       style="color:#000000;fill:#000000;fill-opacity:1;fill-rule:nonzero;stroke:none;stroke-width:2;marker:none;visibility:visible;display:inline;overflow:visible;enable-background:accumulate" />
    <path
       d="m 36.005208,18.010417 c 0.493759,0.93963 0.909449,1.94178 1.171875,2.994791 l 1.5625,0 c 1.2465,0 2.265625,0.993084 2.265625,2.239584 l 0,15.494791 c -1e-6,1.2465 -1.019125,2.265625 -2.265625,2.265625 l -17.5,0 C 19.993083,41.005207 19,39.986083 19,38.739583 L 19,36.8125 c -1.075741,-0.434809 -2.076702,-1.009808 -2.994792,-1.692708 l 0,5 c 0,2.14675 1.733459,3.880208 3.880209,3.880208 l 20.234375,0 C 42.266542,44 43.999998,42.266542 44,40.119792 l 0,-18.255209 c 0,-2.14675 -1.733458,-3.854166 -3.880208,-3.854166 l -4.114584,0 z"
       id="rect5081"
       style="color:#000000;fill:#000000;fill-opacity:1;fill-rule:nonzero;stroke:none;stroke-width:2;marker:none;visibility:visible;display:inline;overflow:visible;enable-background:accumulate" />
    <path
       d="m 37.541667,24 c 0.002,0.09637 0.02604,0.189608 0.02604,0.286458 0,7.45184 -6.060808,13.489585 -13.515625,13.489584 -0.703347,0 -1.38264,-0.05227 -2.057291,-0.15625 l 0,0.390625 16.015625,0 0,-14.010417 -0.46875,0 z"
       id="rect5085"
       style="color:#000000;fill:#000000;fill-opacity:1;fill-rule:nonzero;stroke:none;stroke-width:2;marker:none;visibility:visible;display:inline;overflow:visible;enable-background:accumulate" />
    <path
       style="color:#000000;display:inline;overflow:visible;visibility:visible;fill:#d30000;fill-opacity:1;fill-rule:nonzero;stroke:#ffffff;stroke-width:5;stroke-linecap:round;stroke-linejoin:round;stroke-miterlimit:4;stroke-dasharray:none;stroke-opacity:1;marker:none"
       id="path4159"
       d="m 24.052083,10.770833 c -7.454819,0 -13.515625,6.063786 -13.515625,13.515625 0,7.45184 6.060806,13.489584 13.515625,13.489584 7.454817,1e-6 13.515625,-6.037744 13.515625,-13.489584 0,-7.451839 -6.060807,-13.515625 -13.515625,-13.515625 z m -4.713541,7.213542 4.583333,4.583333 4.583333,-4.583333 1.588542,1.588542 -4.583333,4.583333 4.583333,4.557292 -1.588542,1.614583 -4.583333,-4.583333 -4.583333,4.583333 L 17.75,28.713542 22.333333,24.15625 17.75,19.572917 19.338542,17.984375 Z"
       inkscape:connector-curvature="0" />
    <path
       d="m 24.052083,10.770833 c -7.454819,0 -13.515625,6.063786 -13.515625,13.515625 0,7.45184 6.060806,13.489584 13.515625,13.489584 7.454817,1e-6 13.515625,-6.037744 13.515625,-13.489584 0,-7.451839 -6.060807,-13.515625 -13.515625,-13.515625 z m -4.713541,7.213542 4.583333,4.583333 4.583333,-4.583333 1.588542,1.588542 -4.583333,4.583333 4.583333,4.557292 -1.588542,1.614583 -4.583333,-4.583333 -4.583333,4.583333 L 17.75,28.713542 22.333333,24.15625 17.75,19.572917 19.338542,17.984375 z"
       id="path4445"
       style="color:#000000;fill:#d30000;fill-opacity:1;fill-rule:nonzero;stroke:#ffffff;stroke-width:1;marker:none;visibility:visible;display:inline;overflow:visible;stroke-opacity:1;stroke-miterlimit:4;stroke-dasharray:none;stroke-linejoin:round;stroke-linecap:round" />
    <g
       transform="matrix(1.566667,0,0,1.566667,-2.9115398,-19.865613)"
       id="g7435"
       style="fill:#ff0000;fill-opacity:1;stroke:none" />
  </g>
</svg>
