<?xml version="1.0" encoding="UTF-8" standalone="no"?>
<!-- Generator: Adobe Illustrator 9.0, SVG Export Plug-In  -->

<svg
   xmlns:dc="http://purl.org/dc/elements/1.1/"
   xmlns:cc="http://creativecommons.org/ns#"
   xmlns:rdf="http://www.w3.org/1999/02/22-rdf-syntax-ns#"
   xmlns:svg="http://www.w3.org/2000/svg"
   xmlns="http://www.w3.org/2000/svg"
   xmlns:sodipodi="http://sodipodi.sourceforge.net/DTD/sodipodi-0.dtd"
   xmlns:inkscape="http://www.inkscape.org/namespaces/inkscape"
   width="48"
   height="48"
   viewBox="0 0 48 48"
   xml:space="preserve"
   id="svg2"
   sodipodi:version="0.32"
   inkscape:version="0.48.3.1 r9886"
   sodipodi:docname="network-online.svg"
   inkscape:output_extension="org.inkscape.output.svg.inkscape"
   version="1.0"><metadata
   id="metadata33"><rdf:RDF><cc:Work
       rdf:about=""><dc:format>image/svg+xml</dc:format><dc:type
         rdf:resource="http://purl.org/dc/dcmitype/StillImage" /></cc:Work></rdf:RDF></metadata><defs
   id="defs31" /><sodipodi:namedview
   inkscape:window-height="717"
   inkscape:window-width="1366"
   inkscape:pageshadow="2"
   inkscape:pageopacity="0.0"
   guidetolerance="10.0"
   gridtolerance="10.0"
   objecttolerance="10.0"
   borderopacity="1.0"
   bordercolor="#666666"
   pagecolor="#ffffff"
   id="base"
   showgrid="true"
   inkscape:zoom="3.3916667"
   inkscape:cx="-49.251912"
   inkscape:cy="20.460459"
   inkscape:window-x="0"
   inkscape:window-y="0"
   inkscape:current-layer="svg2"
   width="48px"
   height="48px"
   inkscape:window-maximized="1" />
	<g
   transform="matrix(1.0471204,0,0,1.0474308,-1.1308893,-1.1322)"
   style="fill:#000000;fill-opacity:1;fill-rule:nonzero;stroke:#ffffff;stroke-width:7.63886802000000031;stroke-miterlimit:4;stroke-dasharray:none;stroke-linejoin:round;stroke-linecap:round;stroke-opacity:1"
   id="g2993">
		<g
   id="g2995"
   style="fill:#000000;fill-opacity:1;stroke:#ffffff;stroke-width:7.63886802000000031;stroke-miterlimit:4;stroke-dasharray:none;stroke-linejoin:round;stroke-linecap:round;stroke-opacity:1">
			<g
   style="fill:#000000;fill-opacity:1;stroke-width:7.63886802000000031;stroke-miterlimit:4;stroke-dasharray:none;stroke-linejoin:round;stroke-linecap:round;stroke:#ffffff;stroke-opacity:1"
   id="g2997">
				<g
   style="fill:#000000;fill-opacity:1;stroke-width:7.63886802000000031;stroke-miterlimit:4;stroke-dasharray:none;stroke-linejoin:round;stroke-linecap:round;stroke:#ffffff;stroke-opacity:1"
   id="g2999">
					<path
   inkscape:connector-curvature="0"
   style="fill:#000000;fill-opacity:1;stroke-width:7.63886802000000031;stroke-miterlimit:4;stroke-dasharray:none;stroke-linejoin:round;stroke-linecap:round;stroke:#ffffff;stroke-opacity:1"
   id="path3001"
   d="m 37.7,22 c 0,0 -0.4,-10.6 -6.3,-10.6 -5.9,0 -5.9,0 -5.9,0 l 0,25.3 c 0,0 -0.2,0 5.9,0 6,0 6.3,-10.6 6.3,-10.6 l 5.4,0 0,-4 -5.4,0 0,-0.1 z" />
					<path
   inkscape:connector-curvature="0"
   style="fill:#000000;fill-opacity:1;stroke-width:7.63886802000000031;stroke-miterlimit:4;stroke-dasharray:none;stroke-linejoin:round;stroke-linecap:round;stroke:#ffffff;stroke-opacity:1"
   id="path3003"
   d="m 22.8,11.4 c 0,0 0,0 -5.3,0 -5.3,0 -6.3,10.6 -6.3,10.6 l -6.3,0 0,4 6.2,0 c 0,0 1,10.6 6.3,10.6 5.3,0 5.3,0 5.3,0 l 0,-25.2 0.1,0 z" />
				</g>
				<g
   id="g3005"
   style="fill:#000000;fill-opacity:1;stroke:#ffffff;stroke-width:7.63886802000000031;stroke-linejoin:round;stroke-miterlimit:4;stroke-dasharray:none;stroke-linecap:round;stroke-opacity:1">
					
					
				</g>
			</g>
			<g
   style="fill:#000000;fill-opacity:1;stroke-width:7.63886802000000031;stroke-miterlimit:4;stroke-dasharray:none;stroke-linejoin:round;stroke-linecap:round;stroke:#ffffff;stroke-opacity:1"
   id="g3007">
				<path
   inkscape:connector-curvature="0"
   style="fill:#000000;fill-opacity:1;stroke-width:7.63886802000000031;stroke-miterlimit:4;stroke-dasharray:none;stroke-linejoin:round;stroke-linecap:round;stroke:#ffffff;stroke-opacity:1"
   id="path3009"
   d="m 37.7,22 c 0,0 -0.4,-10.6 -6.3,-10.6 -5.9,0 -5.9,0 -5.9,0 l 0,25.3 c 0,0 -0.2,0 5.9,0 6,0 6.3,-10.6 6.3,-10.6 l 5.4,0 0,-4 -5.4,0 0,-0.1 z" />
				<path
   inkscape:connector-curvature="0"
   style="fill:#000000;fill-opacity:1;stroke-width:7.63886802000000031;stroke-miterlimit:4;stroke-dasharray:none;stroke-linejoin:round;stroke-linecap:round;stroke:#ffffff;stroke-opacity:1"
   id="path3011"
   d="m 22.8,11.4 c 0,0 0,0 -5.3,0 -5.3,0 -6.3,10.6 -6.3,10.6 l -6.3,0 0,4 6.2,0 c 0,0 1,10.6 6.3,10.6 5.3,0 5.3,0 5.3,0 l 0,-25.2 0.1,0 z" />
			</g>
		</g>
	</g><g
   id="Layer_x0020_3"
   style="fill:#000000;fill-opacity:1;fill-rule:nonzero;stroke:#000000;stroke-width:0.85454547;stroke-miterlimit:4"
   transform="matrix(1.0471204,0,0,1.0474308,-1.1308893,-1.1322)">
		<g
   style="fill:#000000;fill-opacity:1;stroke:none"
   id="g5">
			<g
   id="g7"
   style="fill:#000000;fill-opacity:1">
				<g
   id="g9"
   style="fill:#000000;fill-opacity:1">
					<path
   d="m 37.7,22 c 0,0 -0.4,-10.6 -6.3,-10.6 -5.9,0 -5.9,0 -5.9,0 l 0,25.3 c 0,0 -0.2,0 5.9,0 6,0 6.3,-10.6 6.3,-10.6 l 5.4,0 0,-4 -5.4,0 0,-0.1 z"
   id="path11"
   style="fill:#000000;fill-opacity:1"
   inkscape:connector-curvature="0" />
					<path
   d="m 22.8,11.4 c 0,0 0,0 -5.3,0 -5.3,0 -6.3,10.6 -6.3,10.6 l -6.3,0 0,4 6.2,0 c 0,0 1,10.6 6.3,10.6 5.3,0 5.3,0 5.3,0 l 0,-25.2 0.1,0 z"
   id="path13"
   style="fill:#000000;fill-opacity:1"
   inkscape:connector-curvature="0" />
				</g>
				<g
   style="fill:#000000;fill-opacity:1;stroke:#ffffff;stroke-width:5.56027079;stroke-linejoin:round"
   id="g15">
					
					
				</g>
			</g>
			<g
   id="g21"
   style="fill:#000000;fill-opacity:1">
				<path
   d="m 37.7,22 c 0,0 -0.4,-10.6 -6.3,-10.6 -5.9,0 -5.9,0 -5.9,0 l 0,25.3 c 0,0 -0.2,0 5.9,0 6,0 6.3,-10.6 6.3,-10.6 l 5.4,0 0,-4 -5.4,0 0,-0.1 z"
   id="path23"
   style="fill:#000000;fill-opacity:1"
   inkscape:connector-curvature="0" />
				<path
   d="m 22.8,11.4 c 0,0 0,0 -5.3,0 -5.3,0 -6.3,10.6 -6.3,10.6 l -6.3,0 0,4 6.2,0 c 0,0 1,10.6 6.3,10.6 5.3,0 5.3,0 5.3,0 l 0,-25.2 0.1,0 z"
   id="path25"
   style="fill:#000000;fill-opacity:1"
   inkscape:connector-curvature="0" />
			</g>
		</g>
	</g>
	<g
   id="crop_x0020_marks"
   style="fill-rule:nonzero;stroke:#000000;stroke-width:0.85454547;stroke-miterlimit:4"
   transform="matrix(1.1702128,0,0,1.1702128,-4.0851064,-4.0851064)">
		<path
   style="fill:none;stroke:none"
   d="M 48,48 L 0,48 L 0,0 L 48,0 L 48,48 z "
   id="path28" />
	</g>
</svg>