<?xml version="1.0" encoding="UTF-8" standalone="no"?>
<!-- Created with Inkscape (http://www.inkscape.org/) -->

<svg
   xmlns:dc="http://purl.org/dc/elements/1.1/"
   xmlns:cc="http://creativecommons.org/ns#"
   xmlns:rdf="http://www.w3.org/1999/02/22-rdf-syntax-ns#"
   xmlns:svg="http://www.w3.org/2000/svg"
   xmlns="http://www.w3.org/2000/svg"
   version="1.0"
   width="48"
   height="48"
   viewBox="0 0 48 48"
   id="svg2"
   xml:space="preserve"><metadata
     id="metadata33"><rdf:RDF><cc:Work
         rdf:about=""><dc:format>image/svg+xml</dc:format><dc:type
           rdf:resource="http://purl.org/dc/dcmitype/StillImage" /><dc:title></dc:title></cc:Work></rdf:RDF></metadata><defs
     id="defs31" /><g
     transform="matrix(1.0471204,0,0,1.0474308,75.527586,-29.142028)"
     id="g3003"
     style="fill:none;stroke:#ffffff;stroke-width:7.63886786;stroke-linecap:round;stroke-linejoin:round;stroke-miterlimit:4;stroke-opacity:1;stroke-dasharray:none"><g
       id="g3005"
       style="fill:none;stroke:#ffffff;stroke-width:7.63886786;stroke-linecap:round;stroke-linejoin:round;stroke-miterlimit:4;stroke-opacity:1;stroke-dasharray:none"><g
         id="g3007"
         style="fill:none;stroke:#ffffff;stroke-width:7.63886786;stroke-linecap:round;stroke-linejoin:round;stroke-miterlimit:4;stroke-opacity:1;stroke-dasharray:none"><path
           d="m -35.508846,42.241258 c 0,0 -0.4,-10.6 -6.3,-10.6 -5.9,0 -5.9,0 -5.9,0 l 0,25.3 c 0,0 -0.2,0 5.9,0 6,0 6.3,-10.6 6.3,-10.6 l 5.4,0 0,-4 -5.4,0 0,-0.1 z"
           id="path3009"
           style="fill:none;stroke:#ffffff;stroke-width:7.63886786;stroke-linecap:round;stroke-linejoin:round;stroke-miterlimit:4;stroke-opacity:1;stroke-dasharray:none" /><path
           d="m -50.408846,44.629938 c 0,0 0,0 -5.3,0 -5.3,0 -6.3,10.6 -6.3,10.6 l -6.3,0 0,4 6.2,0 c 0,0 1,10.6 6.3,10.6 5.3,0 5.3,0 5.3,0 l 0,-25.2 0.1,0 z"
           id="path3011"
           style="fill:none;stroke:#ffffff;stroke-width:7.63886786;stroke-linecap:round;stroke-linejoin:round;stroke-miterlimit:4;stroke-opacity:1;stroke-dasharray:none" /></g></g></g><g
     transform="matrix(1.0471204,0,0,1.0474308,75.527586,-29.142028)"
     id="Layer_x0020_3"
     style="fill:#000000;fill-opacity:1;fill-rule:nonzero;stroke:#000000;stroke-width:0.85454547;stroke-miterlimit:4"><g
       id="g5"
       style="fill:#000000;fill-opacity:1;stroke:none"><g
         id="g21"
         style="fill:#000000;fill-opacity:1"><path
           d="m -35.508846,42.241258 c 0,0 -0.4,-10.6 -6.3,-10.6 -5.9,0 -5.9,0 -5.9,0 l 0,25.3 c 0,0 -0.2,0 5.9,0 6,0 6.3,-10.6 6.3,-10.6 l 5.4,0 0,-4 -5.4,0 0,-0.1 z"
           id="path23"
           style="fill:#000000;fill-opacity:1" /><path
           d="m -50.408846,44.629938 c 0,0 0,0 -5.3,0 -5.3,0 -6.3,10.6 -6.3,10.6 l -6.3,0 0,4 6.2,0 c 0,0 1,10.6 6.3,10.6 5.3,0 5.3,0 5.3,0 l 0,-25.2 0.1,0 z"
           id="path25"
           style="fill:#000000;fill-opacity:1" /></g></g></g></svg>