<?xml version="1.0" encoding="UTF-8" standalone="no"?>
<!-- Created with Inkscape (http://www.inkscape.org/) -->

<svg
   xmlns:dc="http://purl.org/dc/elements/1.1/"
   xmlns:cc="http://creativecommons.org/ns#"
   xmlns:rdf="http://www.w3.org/1999/02/22-rdf-syntax-ns#"
   xmlns:svg="http://www.w3.org/2000/svg"
   xmlns="http://www.w3.org/2000/svg"
   xmlns:sodipodi="http://sodipodi.sourceforge.net/DTD/sodipodi-0.dtd"
   xmlns:inkscape="http://www.inkscape.org/namespaces/inkscape"
   version="1.0"
   width="48"
   height="48"
   viewBox="0 0 48 48"
   id="svg2"
   xml:space="preserve"
   inkscape:version="0.91 r13725"
   sodipodi:docname="printer-error.svg"><sodipodi:namedview
     pagecolor="#ffffff"
     bordercolor="#666666"
     borderopacity="1"
     objecttolerance="10"
     gridtolerance="10"
     guidetolerance="10"
     inkscape:pageopacity="0"
     inkscape:pageshadow="2"
     inkscape:window-width="1920"
     inkscape:window-height="1029"
     id="namedview21"
     showgrid="false"
     inkscape:zoom="6.9532167"
     inkscape:cx="-15.880714"
     inkscape:cy="22.946702"
     inkscape:window-x="0"
     inkscape:window-y="0"
     inkscape:window-maximized="1"
     inkscape:current-layer="svg2" /><defs
     id="defs16" /><metadata
     id="metadata31"><rdf:RDF><cc:Work
         rdf:about=""><dc:format>image/svg+xml</dc:format><dc:type
           rdf:resource="http://purl.org/dc/dcmitype/StillImage" /><dc:title /></cc:Work></rdf:RDF></metadata><rect
     width="48"
     height="48"
     rx="0"
     ry="0"
     x="0"
     y="0"
     id="rect3981"
     style="fill:none" /><g
     id="g3100"
     style="fill:#ffffff;stroke:#ffffff;stroke-width:8;stroke-miterlimit:4;stroke-dasharray:none"><path
       d="m 41,42 c 0,0.4 -0.6,1 -1,1 H 8 C 7.6,43 7,42.4 7,42 v -2 c 0,-0.4 0.5,-0.7 0.9,-0.7 h 31.9 c 0.4,0 1.2,0.3 1.2,0.7 v 2 z"
       id="path3102"
       style="fill:#ffffff;stroke:#ffffff;stroke-width:8;stroke-linejoin:round;stroke-miterlimit:4;stroke-dasharray:none" /><path
       d="m 44,39 c 0,0.4 -0.6,1 -1,1 H 5 C 4.6,40 4,39.4 4,39 V 25 c 0,-0.4 0.6,-1 1,-1 h 38 c 0.4,0 1,0.6 1,1 v 14 z"
       id="path3104"
       style="fill:#ffffff;stroke:#ffffff;stroke-width:8;stroke-linejoin:round;stroke-miterlimit:4;stroke-dasharray:none" /><path
       d="M 12,4 C 9,4 8,6 8,8 V 26 H 40 V 8 C 40,6 39,4 36,4 H 12 z"
       id="path3106"
       style="fill:#ffffff;stroke:#ffffff;stroke-width:8;stroke-linejoin:round;stroke-miterlimit:4;stroke-dasharray:none" /></g><g
     id="g3095"><path
       d="m 41,42 c 0,0.4 -0.6,1 -1,1 H 8 C 7.6,43 7,42.4 7,42 v -2 c 0,-0.4 0.5,-0.7 0.9,-0.7 h 31.9 c 0.4,0 1.2,0.3 1.2,0.7 v 2 z"
       id="path13" /><path
       d="m 44,39 c 0,0.4 -0.6,1 -1,1 H 5 C 4.6,40 4,39.4 4,39 V 25 c 0,-0.4 0.6,-1 1,-1 h 38 c 0.4,0 1,0.6 1,1 v 14 z"
       id="path15" /><path
       d="M 12,4 C 9,4 8,6 8,8 V 26 H 40 V 8 C 40,6 39,4 36,4 H 12 z"
       id="path17" /></g><path
     d="M 36,24 H 12 V 9 c 0,0 0,-1 1,-1 h 22 c 1,0 1,1 1,1 v 15 z"
     id="path19"
     style="fill:#ffffff" /><path
     d="M 11,37 H 37"
     id="path1315"
     style="fill:#ffffff;fill-rule:evenodd;stroke:#ffffff;stroke-width:4" /><path
     style="color:#000000;display:inline;overflow:visible;visibility:visible;fill:#d30000;fill-opacity:1;fill-rule:nonzero;stroke:#ffffff;stroke-width:5;stroke-miterlimit:4;stroke-dasharray:none;stroke-opacity:1;marker:none"
     id="path4154"
     d="m 31.984375,18.494791 c -7.454819,0 -13.515625,6.063786 -13.515625,13.515625 C 18.46875,39.462256 24.529556,45.5 31.984375,45.5 39.439192,45.500001 45.5,39.462256 45.5,32.010416 45.5,24.558577 39.439193,18.494791 31.984375,18.494791 Z m -4.713541,7.213542 4.583333,4.583333 4.583333,-4.583333 1.588542,1.588542 -4.583333,4.583333 4.583333,4.557292 -1.588542,1.614583 -4.583333,-4.583333 -4.583333,4.583333 -1.588542,-1.614583 4.583333,-4.557292 -4.583333,-4.583333 1.588542,-1.588542 z"
     inkscape:connector-curvature="0" /><path
     inkscape:connector-curvature="0"
     d="m 31.984375,18.494791 c -7.454819,0 -13.515625,6.063786 -13.515625,13.515625 C 18.46875,39.462256 24.529556,45.5 31.984375,45.5 39.439192,45.500001 45.5,39.462256 45.5,32.010416 45.5,24.558577 39.439193,18.494791 31.984375,18.494791 Z m -4.713541,7.213542 4.583333,4.583333 4.583333,-4.583333 1.588542,1.588542 -4.583333,4.583333 4.583333,4.557292 -1.588542,1.614583 -4.583333,-4.583333 -4.583333,4.583333 -1.588542,-1.614583 4.583333,-4.557292 -4.583333,-4.583333 1.588542,-1.588542 z"
     id="path4445"
     style="color:#000000;display:inline;overflow:visible;visibility:visible;fill:#d30000;fill-opacity:1;fill-rule:nonzero;stroke:#ffffff;stroke-width:1;stroke-miterlimit:4;stroke-dasharray:none;stroke-opacity:1;marker:none" /></svg>