<?xml version="1.0" encoding="UTF-8" standalone="no"?>
<!-- Created with Inkscape (http://www.inkscape.org/) -->

<svg
   xmlns:dc="http://purl.org/dc/elements/1.1/"
   xmlns:cc="http://creativecommons.org/ns#"
   xmlns:rdf="http://www.w3.org/1999/02/22-rdf-syntax-ns#"
   xmlns:svg="http://www.w3.org/2000/svg"
   xmlns="http://www.w3.org/2000/svg"
   xmlns:sodipodi="http://sodipodi.sourceforge.net/DTD/sodipodi-0.dtd"
   xmlns:inkscape="http://www.inkscape.org/namespaces/inkscape"
   width="48px"
   height="48px"
   id="svg3465"
   sodipodi:version="0.32"
   inkscape:version="0.48.4 r9939"
   sodipodi:docname="stock_lock-broken.svg"
   inkscape:output_extension="org.inkscape.output.svg.inkscape"
   sodipodi:modified="true"
   version="1.1">
  <defs
     id="defs3467" />
  <sodipodi:namedview
     id="base"
     pagecolor="#ffffff"
     bordercolor="#666666"
     borderopacity="1.0"
     inkscape:pageopacity="0.0"
     inkscape:pageshadow="2"
     inkscape:zoom="11.166395"
     inkscape:cx="33.451774"
     inkscape:cy="34.010074"
     inkscape:current-layer="layer1"
     showgrid="true"
     inkscape:grid-bbox="true"
     inkscape:document-units="px"
     inkscape:grid-points="true"
     inkscape:window-width="1366"
     inkscape:window-height="718"
     inkscape:window-x="0"
     inkscape:window-y="0"
     inkscape:window-maximized="1" />
  <metadata
     id="metadata3470">
    <rdf:RDF>
      <cc:Work
         rdf:about="">
        <dc:format>image/svg+xml</dc:format>
        <dc:type
           rdf:resource="http://purl.org/dc/dcmitype/StillImage" />
        <dc:title></dc:title>
      </cc:Work>
    </rdf:RDF>
  </metadata>
  <g
     id="layer1"
     inkscape:label="Layer 1"
     inkscape:groupmode="layer">
    <path
       sodipodi:nodetypes="cccccccccccccsccsccccc"
       inkscape:r_cy="true"
       inkscape:r_cx="true"
       id="path2983"
       d="M 24.000000,4.0000000 C 17.000000,4.0000000 12.000000,8.1739046 12.000000,15.000000 L 12.000000,21.000000 L 10.000000,21.000000 C 8.0000000,21.000000 7.0000000,22.000000 7.0000000,24.000000 L 7.0000000,41.000000 C 7.0000000,41.980326 8.0000000,44.000000 10.000000,44.000000 L 39.384016,44.000000 C 41.000000,43.990546 42.000000,41.980324 42.000000,41.000000 L 42.000000,24.000000 C 42.000000,22.000000 41.000000,20.990546 39.000000,20.990546 L 37.000000,21.000000 L 37.000000,15.000000 C 37.000000,8.0000000 32.000000,4.0000000 25.000000,4.0000000 L 24.000000,4.0000000 z M 24.000000,9.0000000 L 25.000000,9.0000000 C 32.000000,9.0000000 32.000000,15.000000 32.000000,17.000000 L 32.000000,21.000000 L 17.000000,21.000000 L 17.000000,17.000000 C 17.000000,15.000000 17.000000,9.0000000 24.000000,9.0000000 z "
       style="opacity:1;color:#000000;fill:#000000;fill-opacity:1;fill-rule:nonzero;stroke:#ffffff;stroke-width:8;stroke-linecap:butt;stroke-linejoin:miter;marker:none;marker-start:none;marker-mid:none;marker-end:none;stroke-miterlimit:4;stroke-dasharray:none;stroke-dashoffset:0;stroke-opacity:1;visibility:visible;display:block;overflow:visible" />
    <path
       style="opacity:1.0000000;color:#000000;fill:#000000;fill-opacity:1.0000000;fill-rule:nonzero;stroke:none;stroke-width:0.99999970;stroke-linecap:butt;stroke-linejoin:miter;marker:none;marker-start:none;marker-mid:none;marker-end:none;stroke-miterlimit:10.000000;stroke-dasharray:none;stroke-dashoffset:0.0000000;stroke-opacity:1.0000000;visibility:visible;display:block;overflow:visible"
       d="M 24.000000,4.0000000 C 17.000000,4.0000000 12.000000,8.1739046 12.000000,15.000000 L 12.000000,21.000000 L 10.000000,21.000000 C 8.0000000,21.000000 7.0000000,22.000000 7.0000000,24.000000 L 7.0000000,41.000000 C 7.0000000,41.980326 8.0000000,44.000000 10.000000,44.000000 L 39.384016,44.000000 C 41.000000,43.990546 42.000000,41.980324 42.000000,41.000000 L 42.000000,24.000000 C 42.000000,22.000000 41.000000,20.990546 39.000000,20.990546 L 37.000000,21.000000 L 37.000000,15.000000 C 37.000000,8.0000000 32.000000,4.0000000 25.000000,4.0000000 L 24.000000,4.0000000 z M 24.000000,9.0000000 L 25.000000,9.0000000 C 32.000000,9.0000000 32.000000,15.000000 32.000000,17.000000 L 32.000000,21.000000 L 17.000000,21.000000 L 17.000000,17.000000 C 17.000000,15.000000 17.000000,9.0000000 24.000000,9.0000000 z "
       id="path2086"
       inkscape:r_cx="true"
       inkscape:r_cy="true"
       sodipodi:nodetypes="cccccccccccccsccsccccc" />
    <path
       style="fill:#ffffff;fill-opacity:1;stroke:none"
       inkscape:transform-center-x="-1.3181908"
       inkscape:transform-center-y="0.30880485"
       d="m 30.250748,15.943392 -1.14591,-5.46863 7.003541,-4.3939781 c 3.04485,6.9720411 5.833587,11.6029281 1.880642,11.5641421 z"
       id="path2984"
       inkscape:connector-curvature="0"
       sodipodi:nodetypes="ccccc" />
  </g>
</svg>
