<?xml version="1.0" encoding="UTF-8" standalone="no"?>
<!-- Created with Inkscape (http://www.inkscape.org/) -->

<svg
   xmlns:dc="http://purl.org/dc/elements/1.1/"
   xmlns:cc="http://creativecommons.org/ns#"
   xmlns:rdf="http://www.w3.org/1999/02/22-rdf-syntax-ns#"
   xmlns:svg="http://www.w3.org/2000/svg"
   xmlns="http://www.w3.org/2000/svg"
   xmlns:sodipodi="http://sodipodi.sourceforge.net/DTD/sodipodi-0.dtd"
   xmlns:inkscape="http://www.inkscape.org/namespaces/inkscape"
   id="svg2"
   height="48px"
   width="48px"
   version="1.1"
   inkscape:version="0.48.3.1 r9886"
   sodipodi:docname="notification-network-ethernet-connected.svg">
  <defs
     id="defs11" />
  <sodipodi:namedview
     pagecolor="#ffffff"
     bordercolor="#666666"
     borderopacity="1"
     objecttolerance="10"
     gridtolerance="10"
     guidetolerance="10"
     inkscape:pageopacity="0"
     inkscape:pageshadow="2"
     inkscape:window-width="1366"
     inkscape:window-height="717"
     id="namedview9"
     showgrid="false"
     inkscape:zoom="4.9166667"
     inkscape:cx="48.54362"
     inkscape:cy="16.051838"
     inkscape:window-x="0"
     inkscape:window-y="0"
     inkscape:window-maximized="1"
     inkscape:current-layer="layer1" />
  <metadata
     id="metadata7">
    <rdf:RDF>
      <cc:Work
         rdf:about="">
        <dc:format>image/svg+xml</dc:format>
        <dc:type
           rdf:resource="http://purl.org/dc/dcmitype/StillImage" />
        <cc:license
           rdf:resource="http://creativecommons.org/licenses/GPL/2.0/" />
        <dc:title></dc:title>
        <dc:creator>
          <cc:Agent>
            <dc:title>Luca Ferretti &lt;elle.uca@libero.it&gt;</dc:title>
          </cc:Agent>
        </dc:creator>
        <dc:contributor>
          <cc:Agent>
            <dc:title>Shape based on exising PNG icon in gnome-icon-theme</dc:title>
          </cc:Agent>
        </dc:contributor>
        <dc:subject>
          <rdf:Bag>
            <rdf:li>hard disk</rdf:li>
          </rdf:Bag>
        </dc:subject>
      </cc:Work>
      <cc:License
         rdf:about="http://creativecommons.org/licenses/GPL/2.0/">
        <cc:permits
           rdf:resource="http://web.resource.org/cc/Reproduction" />
        <cc:permits
           rdf:resource="http://web.resource.org/cc/Distribution" />
        <cc:requires
           rdf:resource="http://web.resource.org/cc/Notice" />
        <cc:permits
           rdf:resource="http://web.resource.org/cc/DerivativeWorks" />
        <cc:requires
           rdf:resource="http://web.resource.org/cc/ShareAlike" />
        <cc:requires
           rdf:resource="http://web.resource.org/cc/SourceCode" />
      </cc:License>
    </rdf:RDF>
  </metadata>
  <g
     id="layer1">
    <rect
       id="rect5523"
       style="fill:#000000;fill-opacity:1;stroke:#ffffff;stroke-opacity:1;stroke-width:2;stroke-miterlimit:4;stroke-dasharray:none"
       rx="2.5423703"
       ry="2.6440678"
       height="40"
       width="40"
       y="4"
       x="4" />
    <rect
       id="rect6226"
       style="fill:none"
       rx="0"
       ry="0"
       height="48"
       width="48"
       y="0"
       x="0" />
    <rect
       style="fill:#faffff;fill-opacity:1;stroke:none"
       id="rect3754"
       width="32"
       height="32"
       x="8"
       y="8"
       ry="2.8474576"
       rx="2.5423715" />
    <g
       transform="translate(8.949153,-5.8983051)"
       style="font-size:4px;font-style:normal;font-weight:normal;line-height:125%;letter-spacing:0px;word-spacing:0px;fill:#000000;fill-opacity:1;stroke:none;font-family:Sans"
       id="flowRoot3775">
      <path
         d="m 14.557,22.759105 c -0.768006,1.8e-5 -1.493338,0.09602 -2.176,0.288 -0.68267,0.192018 -1.440003,0.501351 -2.272,0.928 l -1.344,-3.616 c 0.8319985,-0.533312 1.813331,-0.938645 2.944,-1.216 1.130662,-0.298644 2.239994,-0.447977 3.328,-0.448 1.365325,2.3e-5 2.485324,0.181356 3.36,0.544 0.895989,0.362688 1.599988,0.821355 2.112,1.376 0.511987,0.554687 0.863987,1.162686 1.056,1.824 0.21332,0.661351 0.319986,1.290684 0.32,1.888 -1.4e-5,0.59735 -0.09601,1.152016 -0.288,1.664 -0.17068,0.490681 -0.39468,0.949348 -0.672,1.376 -0.277346,0.42668 -0.597346,0.832013 -0.96,1.216 -0.362678,0.384012 -0.714678,0.746679 -1.056,1.088 -0.256011,0.256011 -0.522677,0.533344 -0.8,0.832 -0.277343,0.277344 -0.533343,0.57601 -0.768,0.896 -0.213342,0.32001 -0.394675,0.661343 -0.544,1.024 -0.149342,0.341342 -0.224008,0.693341 -0.224,1.056 -8e-6,0.08534 -8e-6,0.213341 0,0.384 -8e-6,0.170674 0.01066,0.320007 0.032,0.448 l -4.224,0 c -0.04267,-0.213326 -0.07467,-0.447993 -0.096,-0.704 -4e-6,-0.277325 -4e-6,-0.511992 0,-0.704 -4e-6,-0.597324 0.07466,-1.130657 0.224,-1.6 0.149329,-0.490656 0.341329,-0.938656 0.576,-1.344 0.255995,-0.426655 0.543994,-0.821321 0.864,-1.184 0.319994,-0.362654 0.65066,-0.714653 0.992,-1.056 0.490659,-0.490653 0.938659,-0.970652 1.344,-1.44 0.405325,-0.490651 0.607991,-1.045317 0.608,-1.664 -9e-6,-0.511983 -0.202675,-0.949316 -0.608,-1.312 -0.384008,-0.362648 -0.960007,-0.543982 -1.728,-0.544 m 2.976,16.096 c -9e-6,0.938668 -0.309342,1.664001 -0.928,2.176 -0.597341,0.512 -1.280007,0.767999 -2.048,0.768 -0.768006,-10e-7 -1.461338,-0.256 -2.08,-0.768 -0.597337,-0.511999 -0.896003,-1.237332 -0.896,-2.176 -3e-6,-0.938663 0.298663,-1.663996 0.896,-2.176 0.618662,-0.511995 1.311994,-0.767995 2.08,-0.768 0.767993,5e-6 1.450659,0.256005 2.048,0.768 0.618658,0.512004 0.927991,1.237337 0.928,2.176"
         style="font-size:32px;font-variant:normal;font-weight:bold;font-stretch:normal;font-family:Ubuntu;-inkscape-font-specification:Ubuntu Bold"
         id="path3784"
         inkscape:connector-curvature="0" />
    </g>
  </g>
</svg>
