<?xml version="1.0" encoding="UTF-8" standalone="no"?>
<!-- Created with Inkscape (http://www.inkscape.org/) -->

<svg
   xmlns:dc="http://purl.org/dc/elements/1.1/"
   xmlns:cc="http://creativecommons.org/ns#"
   xmlns:rdf="http://www.w3.org/1999/02/22-rdf-syntax-ns#"
   xmlns:svg="http://www.w3.org/2000/svg"
   xmlns="http://www.w3.org/2000/svg"
   xmlns:xlink="http://www.w3.org/1999/xlink"
   version="1.0"
   width="48"
   height="48"
   id="svg2665">
  <metadata
     id="metadata6">
    <rdf:RDF>
      <cc:Work
         rdf:about="">
        <dc:format>image/svg+xml</dc:format>
        <dc:type
           rdf:resource="http://purl.org/dc/dcmitype/StillImage" />
        <dc:title></dc:title>
      </cc:Work>
    </rdf:RDF>
  </metadata>
  <defs
     id="defs2667">
    <linearGradient
       x1="24"
       y1="4"
       x2="24"
       y2="44.042454"
       id="linearGradient2422-489"
       xlink:href="#linearGradient5578-737-461"
       gradientUnits="userSpaceOnUse" />
    <linearGradient
       id="linearGradient5578-737-461">
      <stop
         id="stop2442"
         style="stop-color:#c4c4c4;stop-opacity:1"
         offset="0" />
      <stop
         id="stop2444"
         style="stop-color:#666666;stop-opacity:1"
         offset="1" />
    </linearGradient>
    <linearGradient
       x1="37.290337"
       y1="4.2397261"
       x2="38.40411"
       y2="10.486565"
       id="linearGradient3224-904"
       xlink:href="#linearGradient3218-256"
       gradientUnits="userSpaceOnUse" />
    <linearGradient
       id="linearGradient3218-256">
      <stop
         id="stop2448"
         style="stop-color:#ffffff;stop-opacity:1"
         offset="0" />
      <stop
         id="stop2450"
         style="stop-color:#ffffff;stop-opacity:0"
         offset="1" />
    </linearGradient>
    <linearGradient
       x1="11.89726"
       y1="4.5862279"
       x2="13.203295"
       y2="6.525733"
       id="linearGradient3250-337"
       xlink:href="#linearGradient3218-323"
       gradientUnits="userSpaceOnUse" />
    <linearGradient
       id="linearGradient3218-323">
      <stop
         id="stop2454"
         style="stop-color:#ffffff;stop-opacity:1"
         offset="0" />
      <stop
         id="stop2456"
         style="stop-color:#ffffff;stop-opacity:0"
         offset="1" />
    </linearGradient>
    <linearGradient
       x1="16.852667"
       y1="9.3443155"
       x2="18.222099"
       y2="11.453599"
       id="linearGradient3258-403"
       xlink:href="#linearGradient3218-850"
       gradientUnits="userSpaceOnUse" />
    <linearGradient
       id="linearGradient3218-850">
      <stop
         id="stop2460"
         style="stop-color:#ffffff;stop-opacity:1"
         offset="0" />
      <stop
         id="stop2462"
         style="stop-color:#ffffff;stop-opacity:0"
         offset="1" />
    </linearGradient>
    <linearGradient
       x1="24.515596"
       y1="15.242043"
       x2="24.515596"
       y2="21.809383"
       id="linearGradient3274-103"
       xlink:href="#linearGradient3218-969"
       gradientUnits="userSpaceOnUse" />
    <linearGradient
       id="linearGradient3218-969">
      <stop
         id="stop2466"
         style="stop-color:#ffffff;stop-opacity:1"
         offset="0" />
      <stop
         id="stop2468"
         style="stop-color:#ffffff;stop-opacity:0"
         offset="1" />
    </linearGradient>
    <linearGradient
       x1="23.801859"
       y1="28.415104"
       x2="23.801859"
       y2="23.157433"
       id="linearGradient3282-245"
       xlink:href="#linearGradient3218-121"
       gradientUnits="userSpaceOnUse"
       gradientTransform="translate(0,-0.08219178)" />
    <linearGradient
       id="linearGradient3218-121">
      <stop
         id="stop2472"
         style="stop-color:#ffffff;stop-opacity:1"
         offset="0" />
      <stop
         id="stop2474"
         style="stop-color:#ffffff;stop-opacity:0"
         offset="1" />
    </linearGradient>
    <linearGradient
       id="linearGradient5578-737-461-426">
      <stop
         id="stop2467"
         style="stop-color:#dadada;stop-opacity:1"
         offset="0" />
      <stop
         id="stop2469"
         style="stop-color:#717171;stop-opacity:1"
         offset="1" />
    </linearGradient>
  </defs>
  <g
     transform="translate(-58.295599,-0.520181)"
     id="g3835"
     style="stroke:#ffffff;stroke-width:4;stroke-miterlimit:4;stroke-opacity:1;stroke-dasharray:none">
    <path
       d="m 95.559459,4.5201809 -3.76413,3.616671 c -1.9727,1.9002861 -3.604354,3.6211321 -3.752874,3.9415221 -0.0041,0.0098 -0.0104,0.02579 -0.01121,0.03248 1.28e-4,0.0016 -2.74e-4,0.0091 0,0.01083 8.43e-4,0.0038 0.0098,0.01739 0.01121,0.02166 8.16e-4,0.0023 -0.001,0.0084 0,0.01083 0.133268,0.302853 1.24111,1.526667 2.576601,2.826209 1.357754,1.321198 2.7117,2.412687 3.091945,2.51218 0.0089,0.002 0.02584,-8.24e-4 0.03361,0 0.0024,1.33e-4 0.0089,0 0.01119,0 0.0024,0 0.0087,1.96e-4 0.01122,0 0.687495,-0.0994 7.370499,-6.389415 7.528209,-7.081748 8.6e-4,-0.0052 0,-0.01722 0,-0.02166 -1.6e-4,-0.0017 3.1e-4,-0.009 0,-0.01083 -4.8e-4,-0.002 6.3e-4,-0.0087 0,-0.01083 -0.002,-0.0068 -0.008,-0.02441 -0.0112,-0.03249 -0.16415,-0.3371211 -1.389737,-1.6548201 -2.856679,-3.0644331 l -2.867872,-2.750404 z m -25.45258,0.346502 -3.405591,3.270169 c -1.814295,1.746357 -3.302767,3.3721561 -3.394416,3.6816491 -5.59e-4,0.0023 -0.01084,0.0087 -0.01119,0.01083 -1.87e-4,0.002 0,0.009 0,0.01083 0,0.23118 0.357153,0.667054 0.795367,0.963727 0.397128,0.268853 0.810821,0.490838 0.963431,0.530589 0.0025,5.6e-4 0.0089,-4.77e-4 0.0112,0 0.0043,6.92e-4 0.0187,-2.48e-4 0.0224,0 10e-4,-1.8e-4 0.01,3.45e-4 0.0112,0 0.0047,-0.0021 0.01611,-0.0071 0.02242,-0.01083 0.273059,-0.16936 1.802822,-1.583921 3.551249,-3.281002 L 72.06738,6.7508179 71.092732,5.8087509 70.10687,4.8666829 z m 5.018817,4.840279 -3.484019,3.3676231 -3.47286,3.356799 0.851407,0.877104 c 0.447673,0.460591 0.909523,0.842406 1.053077,0.877084 0.0022,3.94e-4 0.0092,-1.84e-4 0.0112,0 8.88e-4,0 0.01012,1.8e-4 0.01122,0 0.0014,-5.28e-4 0.0095,7.25e-4 0.01116,0 0.0018,-8.93e-4 0.0092,-0.0098 0.01122,-0.01081 0.262972,-0.149896 1.810646,-1.569782 3.573665,-3.281005 l 3.394433,-3.29183 -0.985851,-0.942067 -0.974646,-0.9528951 z m 6.598398,6.0638961 c -1.469974,0.100205 -4.378006,1.355115 -5.231645,2.284775 -0.982674,1.070163 -2.066181,3.672856 -2.072504,4.981052 -0.01433,2.958963 1.804682,5.813256 4.44748,6.973468 5.127019,2.250841 10.945033,-1.36634 10.945033,-6.800204 0,-4.167236 -3.494199,-7.451417 -7.909116,-7.439091 -0.05475,1.48e-4 -0.119474,-0.0041 -0.179248,0 z m 0.257678,2.772054 c 0.812137,-0.04862 1.663444,0.113356 2.498186,0.530587 3.241413,1.62018 3.241413,6.663527 0,8.28371 -2.339052,1.16916 -5.497022,0.279896 -6.643191,-1.862484 -1.735135,-3.243246 0.880565,-6.756381 4.145005,-6.951813 z m 4.97398,16.253386 -4.749936,0.09745 -4.749952,0.09745 -0.112021,1.299412 -0.112009,1.299411 4.861961,0 4.861957,0 0,-1.396863 0,-1.396863 z m -9.679122,7.298326 0,1.212769 0,1.212788 4.839583,0 4.839539,0 0,-1.212788 0,-1.212769 -4.839539,0 -4.839583,0 z"
       id="path1421-7"
       style="fill:#000000;fill-opacity:1;stroke:#ffffff;stroke-width:4;stroke-miterlimit:4;stroke-opacity:1;stroke-dasharray:none" />
    <path
       d="m 81.749962,16.263891 c -1.37299,0.09358 -4.08916,1.265536 -4.886479,2.133742 -0.917841,0.999421 -1.929862,3.430066 -1.935768,4.651785 -0.01339,2.763364 1.685616,5.428977 4.154051,6.512495 4.788756,2.102051 10.222918,-1.27602 10.222918,-6.350684 0,-3.891766 -3.263664,-6.95885 -7.3873,-6.947338 -0.05114,1.38e-4 -0.111592,-0.0038 -0.167422,0 z"
       id="path3202-7"
       style="fill:#000000;fill-opacity:1;stroke:#ffffff;stroke-width:4;stroke-miterlimit:4;stroke-opacity:1;stroke-dasharray:none" />
    <path
       d="m 81.967945,17.901875 c 0.909208,-0.05445 1.862268,0.126944 2.796783,0.594188 3.628844,1.814391 3.628844,7.462284 0,9.276679 -2.618628,1.309307 -6.154056,0.313447 -7.437221,-2.08574 -1.942528,-3.632014 0.985815,-7.566269 4.640438,-7.785127 z"
       id="path3200-9"
       style="fill:#000000;fill-opacity:1;stroke:#ffffff;stroke-width:4;stroke-miterlimit:4;stroke-opacity:1;stroke-dasharray:none" />
    <path
       d="m 77.791757,35.469323 c 2.902288,0 5.716722,0 8.619009,0"
       id="path3284-5"
       style="fill:#000000;fill-opacity:1;stroke:#ffffff;stroke-width:4;stroke-linecap:square;stroke-linejoin:miter;stroke-miterlimit:4;stroke-opacity:1;stroke-dasharray:none;stroke-dashoffset:0;marker:none;visibility:visible;display:block;overflow:visible;enable-background:accumulate" />
    <path
       d="m 77.791757,42.620008 c 2.902288,0 5.716722,0 8.619009,0"
       id="path3286-6"
       style="fill:#000000;fill-opacity:1;stroke:#ffffff;stroke-width:4;stroke-linecap:square;stroke-linejoin:miter;stroke-miterlimit:4;stroke-opacity:1;stroke-dasharray:none;stroke-dashoffset:0;marker:none;visibility:visible;display:block;overflow:visible;enable-background:accumulate" />
  </g>
  <g
     id="g3842">
    <path
       d="m 37.263858,4 -3.76413,3.616671 c -1.9727,1.900286 -3.604354,3.621132 -3.752874,3.941522 -0.0041,0.0098 -0.0104,0.02579 -0.01121,0.03248 1.28e-4,0.0016 -2.74e-4,0.0091 0,0.01083 8.43e-4,0.0038 0.0098,0.01739 0.01121,0.02166 8.16e-4,0.0023 -10e-4,0.0084 0,0.01083 0.133268,0.302853 1.24111,1.526667 2.576601,2.826209 1.357754,1.321198 2.7117,2.412687 3.091945,2.51218 0.0089,0.002 0.02584,-8.24e-4 0.03361,0 0.0024,1.33e-4 0.0089,0 0.01119,0 0.0024,0 0.0087,1.96e-4 0.01122,0 0.687495,-0.0994 7.370503,-6.389415 7.528206,-7.081748 8.59e-4,-0.00516 0,-0.017224 0,-0.021657 -1.58e-4,-0.0017 3.14e-4,-0.00898 0,-0.010828 -4.73e-4,-0.002 6.3e-4,-0.0087 0,-0.010827 -0.0023,-0.00682 -0.0075,-0.024408 -0.01122,-0.032485 C 42.824259,9.477716 41.598672,8.160017 40.13173,6.750404 L 37.263858,4 z M 11.811278,4.3465018 8.4056866,7.616671 C 6.5913918,9.363028 5.10292,10.988827 5.0112704,11.29832 c -5.581e-4,0.0023 -0.010845,0.0087 -0.011188,0.01083 -1.867e-4,0.002 0,0.009 0,0.01083 0,0.23118 0.3571534,0.667054 0.7953679,0.963727 0.3971272,0.268853 0.8108208,0.490838 0.9634306,0.530589 0.00248,5.6e-4 0.00887,-4.77e-4 0.011203,0 0.00433,6.92e-4 0.018699,-2.48e-4 0.022404,0 0.00103,-1.8e-4 0.010001,3.45e-4 0.011202,0 0.00472,-0.0021 0.016109,-0.0071 0.022418,-0.01083 0.2730589,-0.16936 1.8028218,-1.583921 3.551249,-3.281002 L 13.771788,6.230637 12.79714,5.2885705 11.811278,4.3465018 z m 5.018817,4.8402792 -3.484019,3.367623 -3.4728599,3.356799 0.8514069,0.877104 c 0.447673,0.460591 0.909523,0.842406 1.053077,0.877084 0.0022,3.94e-4 0.0092,-1.84e-4 0.0112,0 8.88e-4,0 0.01012,1.8e-4 0.01122,0 0.0014,-5.28e-4 0.0095,7.25e-4 0.01116,0 0.0018,-8.93e-4 0.0092,-0.0098 0.01122,-0.01081 0.262972,-0.149896 1.810646,-1.569782 3.573665,-3.281005 l 3.394433,-3.29183 -0.985851,-0.942067 -0.974646,-0.952895 z m 6.598398,6.063896 c -1.469974,0.100205 -4.378006,1.355115 -5.231645,2.284775 -0.982674,1.070163 -2.066181,3.672856 -2.072504,4.981052 -0.01433,2.958963 1.804682,5.813256 4.44748,6.973468 5.127019,2.250841 10.945033,-1.36634 10.945033,-6.800204 0,-4.167236 -3.494199,-7.451417 -7.909116,-7.439091 -0.05475,1.48e-4 -0.119474,-0.0041 -0.179248,0 z m 0.257678,2.772054 c 0.812137,-0.04862 1.663444,0.113356 2.498186,0.530587 3.241413,1.62018 3.241413,6.663527 0,8.28371 -2.339052,1.16916 -5.497022,0.279896 -6.643191,-1.862484 -1.735135,-3.243246 0.880565,-6.756381 4.145005,-6.951813 z m 4.97398,16.253386 -4.749936,0.09745 -4.749952,0.09745 -0.112021,1.299412 -0.112009,1.299411 4.861961,0 4.861957,0 0,-1.396863 0,-1.396863 z m -9.679122,7.298326 0,1.212769 0,1.212788 4.839583,0 4.839539,0 0,-1.212788 0,-1.212769 -4.839539,0 -4.839583,0 z"
       id="path1421"
       style="fill:#000000;fill-opacity:1;stroke:#000000;stroke-width:1;stroke-miterlimit:4;stroke-opacity:1;stroke-dasharray:none" />
    <path
       d="m 23.454361,15.74371 c -1.37299,0.09358 -4.08916,1.265536 -4.886479,2.133742 -0.917841,0.999421 -1.929862,3.430066 -1.935768,4.651785 -0.01339,2.763364 1.685616,5.428977 4.154051,6.512495 4.788756,2.102051 10.222918,-1.27602 10.222918,-6.350684 0,-3.891766 -3.263664,-6.95885 -7.3873,-6.947338 -0.05114,1.38e-4 -0.111592,-0.0038 -0.167422,0 z"
       id="path3202"
       style="fill:#000000;fill-opacity:1;stroke:#000000;stroke-width:1;stroke-miterlimit:4;stroke-opacity:1;stroke-dasharray:none" />
    <path
       d="m 23.672344,17.381694 c 0.909208,-0.05445 1.862268,0.126944 2.796783,0.594188 3.628844,1.814391 3.628844,7.462284 0,9.276679 -2.618628,1.309307 -6.154056,0.313447 -7.437221,-2.08574 -1.942528,-3.632014 0.985815,-7.566269 4.640438,-7.785127 z"
       id="path3200"
       style="fill:#000000;fill-opacity:1;stroke:#000000;stroke-width:1;stroke-miterlimit:4;stroke-opacity:1;stroke-dasharray:none" />
    <path
       d="m 19.496156,34.949142 c 2.902288,0 5.716722,0 8.619009,0"
       id="path3284"
       style="fill:#000000;fill-opacity:1;stroke:#000000;stroke-width:1;stroke-linecap:square;stroke-linejoin:miter;stroke-miterlimit:4;stroke-opacity:1;stroke-dasharray:none;stroke-dashoffset:0;marker:none;visibility:visible;display:block;overflow:visible;enable-background:accumulate" />
    <path
       d="m 19.496156,42.099827 c 2.902288,0 5.716722,0 8.619009,0"
       id="path3286"
       style="fill:#000000;fill-opacity:1;stroke:#000000;stroke-width:1;stroke-linecap:square;stroke-linejoin:miter;stroke-miterlimit:4;stroke-opacity:1;stroke-dasharray:none;stroke-dashoffset:0;marker:none;visibility:visible;display:block;overflow:visible;enable-background:accumulate" />
  </g>
</svg>
