<?xml version="1.0" encoding="UTF-8" standalone="no"?>
<!-- Created with Inkscape (http://www.inkscape.org/) -->

<svg
   xmlns:dc="http://purl.org/dc/elements/1.1/"
   xmlns:cc="http://creativecommons.org/ns#"
   xmlns:rdf="http://www.w3.org/1999/02/22-rdf-syntax-ns#"
   xmlns:svg="http://www.w3.org/2000/svg"
   xmlns="http://www.w3.org/2000/svg"
   xmlns:xlink="http://www.w3.org/1999/xlink"
   version="1.1"
   width="48"
   height="48"
   id="svg1872">
  <defs
     id="defs13">
    <filter
       x="0"
       y="0"
       width="1"
       height="1"
       color-interpolation-filters="sRGB"
       id="filter3824">
      <feColorMatrix
         result="fbSourceGraphic"
         values="1"
         type="saturate"
         id="feColorMatrix3826" />
      <feColorMatrix
         result="fbSourceGraphic"
         values="-1 0 0 0 1 0 -1 0 0 1 0 0 -1 0 1 0 0 0 1 0 "
         in="fbSourceGraphic"
         id="feColorMatrix3828" />
      <feColorMatrix
         id="feColorMatrix3830"
         values="0 0 0 -1 0 0 0 0 -1 0 0 0 0 -1 0 0 0 0 1 0"
         in="fbSourceGraphic"
         result="fbSourceGraphicAlpha" />
      <feColorMatrix
         in="fbSourceGraphic"
         result="fbSourceGraphic"
         values="1"
         type="saturate"
         id="feColorMatrix3832" />
      <feColorMatrix
         result="fbSourceGraphic"
         values="-1 0 0 0 1 0 -1 0 0 1 0 0 -1 0 1 0 0 0 1 0 "
         in="fbSourceGraphic"
         id="feColorMatrix3834" />
      <feColorMatrix
         id="feColorMatrix3836"
         values="0 0 0 -1 0 0 0 0 -1 0 0 0 0 -1 0 0 0 0 1 0"
         in="fbSourceGraphic"
         result="fbSourceGraphicAlpha" />
      <feColorMatrix
         in="fbSourceGraphic"
         result="fbSourceGraphic"
         values="1"
         type="saturate"
         id="feColorMatrix3838" />
      <feColorMatrix
         values="-1 0 0 0 1 0 -1 0 0 1 0 0 -1 0 1 0 0 0 1 0 "
         in="fbSourceGraphic"
         id="feColorMatrix3840" />
    </filter>
  </defs>
  <metadata
     id="metadata1877">
    <rdf:RDF>
      <cc:Work
         rdf:about="">
        <dc:format>image/svg+xml</dc:format>
        <dc:type
           rdf:resource="http://purl.org/dc/dcmitype/StillImage" />
        <dc:title></dc:title>
        <dc:creator>
          <cc:Agent>
            <dc:title>Luca Ferretti &lt;elle.uca@libero.it&gt;</dc:title>
          </cc:Agent>
        </dc:creator>
        <dc:subject>
          <rdf:Bag>
            <rdf:li>face</rdf:li>
            <rdf:li>smiley</rdf:li>
            <rdf:li>happy</rdf:li>
            <rdf:li>smile</rdf:li>
            <rdf:li>:-)</rdf:li>
          </rdf:Bag>
        </dc:subject>
        <cc:license
           rdf:resource="http://creativecommons.org/licenses/LGPL/2.1/" />
      </cc:Work>
      <cc:License
         rdf:about="http://creativecommons.org/licenses/LGPL/2.1/">
        <cc:permits
           rdf:resource="http://web.resource.org/cc/Reproduction" />
        <cc:permits
           rdf:resource="http://web.resource.org/cc/Distribution" />
        <cc:requires
           rdf:resource="http://web.resource.org/cc/Notice" />
        <cc:permits
           rdf:resource="http://web.resource.org/cc/DerivativeWorks" />
        <cc:requires
           rdf:resource="http://web.resource.org/cc/ShareAlike" />
        <cc:requires
           rdf:resource="http://web.resource.org/cc/SourceCode" />
      </cc:License>
    </rdf:RDF>
  </metadata>
  <g
     id="layer1">
    <path
       d="M 48,24 A 24,24 0 1 1 0,24 24,24 0 1 1 48,24 z"
       id="path3653"
       style="fill:#ffffff;fill-rule:evenodd" />
    <path
       d="m 43.955,23.933 a 20.0225,20.0225 0 1 1 -40.045,0 20.0225,20.0225 0 1 1 40.045,0 z"
       id="path1880"
       style="fill-rule:evenodd" />
    <path
       d="M 40,24 A 16,16 0 1 1 8,24 16,16 0 1 1 40,24 z"
       id="path4540"
       style="fill:#ffffff;fill-rule:evenodd" />
    <path
       d="m 19,18 a 4,3.9663 0 1 1 -8,0 4,3.9663 0 1 1 8,0 z"
       transform="translate(2,0)"
       id="path5427"
       style="fill-rule:evenodd" />
    <use
       transform="translate(14,0)"
       id="use7203"
       x="0"
       y="0"
       width="48"
       height="48"
       xlink:href="#path5427" />
    <g
       transform="matrix(0.17868487,0.17868487,-0.17868487,0.17868487,23.422809,23.102593)"
       id="g3798"
       style="fill:#ffffff;fill-opacity:1;stroke:none;display:inline">
      <path
         d="m 16.793334,-5.6657942 c -2.983848,0 -5.386209,2.5192365 -5.386209,5.64635325 l 0,11.02383295 -11.04172524,0 c -3.13219396,0 -5.65551906,2.39847 -5.65551906,5.377481 l 0,11.292706 c 0,2.979014 2.5233251,5.37748 5.65551906,5.37748 l 11.04172524,0 0,10.934209 c 0,3.127118 2.402361,5.646353 5.386209,5.646353 l 11.311039,0 c 2.983847,0 5.386209,-2.519235 5.386209,-5.646353 l 0,-10.934209 10.862188,0 c 3.132195,0 5.655521,-2.398466 5.655521,-5.37748 l 0,-11.292706 c 0,-2.979011 -2.523326,-5.377481 -5.655521,-5.377481 l -10.862188,0 0,-11.02383295 c 0,-3.12711675 -2.402362,-5.64635325 -5.386209,-5.64635325 l -11.311039,0 z"
         id="rect3803"
         style="fill:#ffffff;fill-opacity:1;stroke:none;filter:url(#filter3824)" />
    </g>
  </g>
</svg>
