<?xml version="1.0" encoding="UTF-8" standalone="no"?>
<!-- Created with Inkscape (http://www.inkscape.org/) -->

<svg
   xmlns:dc="http://purl.org/dc/elements/1.1/"
   xmlns:cc="http://creativecommons.org/ns#"
   xmlns:rdf="http://www.w3.org/1999/02/22-rdf-syntax-ns#"
   xmlns:svg="http://www.w3.org/2000/svg"
   xmlns="http://www.w3.org/2000/svg"
   version="1.0"
   width="48"
   height="48"
   id="svg2">
  <defs
     id="defs11" />
  <metadata
     id="metadata7">
    <rdf:RDF>
      <cc:Work
         rdf:about="">
        <dc:format>image/svg+xml</dc:format>
        <dc:type
           rdf:resource="http://purl.org/dc/dcmitype/StillImage" />
        <dc:title></dc:title>
        <dc:date>December 2008</dc:date>
        <dc:creator>
          <cc:Agent>
            <dc:title>Luca Ferretti &lt;elle.uca@libero.it&gt;</dc:title>
          </cc:Agent>
        </dc:creator>
        <dc:subject>
          <rdf:Bag>
            <rdf:li>emblem. unreadable</rdf:li>
            <rdf:li>no read</rdf:li>
          </rdf:Bag>
        </dc:subject>
        <dc:description />
      </cc:Work>
    </rdf:RDF>
  </metadata>
  <g
     id="layer1">
    <rect
       width="48"
       height="48"
       ry="0"
       x="0"
       y="0"
       id="rect3165"
       style="fill:none" />
    <path
       d="M 41,24 A 17,17 0 1 1 7,24 17,17 0 1 1 41,24 z"
       id="path3163"
       style="fill:#ffffff;stroke:#ffffff;stroke-width:14;stroke-linecap:round;stroke-linejoin:round" />
    <path
       d="M 41,24 A 17,17 0 1 1 7,24 17,17 0 1 1 41,24 z"
       id="path3157"
       style="fill:#ffffff;stroke:#000000;stroke-width:6;stroke-linecap:round;stroke-linejoin:round" />
    <g
       transform="matrix(0.46610169,0,0,0.46610169,12.707,12.410119)"
       id="layer1-0">
      <rect
         width="48"
         height="48"
         x="0"
         y="0"
         id="rect4928"
         style="fill:none" />
      <path
         d="M 24,4 C 17,4 12,8.1739 12,15 v 6 h -2 c -2,0 -3,1 -3,3 v 17 c 0,0.98 1,3 3,3 H 39.384 C 41,43.991 42,41.98 42,41 V 24 c 0,-2 -1,-3.009 -3,-3.009 L 37,21 V 15 C 37,8 32,4 25,4 h -1 z m 0,5 h 1 c 7,0 7,6 7,8 v 4 H 17 v -4 c 0,-2 0,-8 7,-8 z"
         id="path4200"
         style="color:#000000;fill:#ffffff;stroke:#ffffff;stroke-width:8;stroke-miterlimit:10;display:block" />
      <path
         d="M 24,4 C 17,4 12,8.1739 12,15 v 6 h -2 c -2,0 -3,1 -3,3 v 17 c 0,0.98 1,3 3,3 H 39.384 C 41,43.991 42,41.98 42,41 V 24 c 0,-2 -1,-3.009 -3,-3.009 L 37,21 V 15 C 37,8 32,4 25,4 h -1 z m 0,5 h 1 c 7,0 7,6 7,8 v 4 H 17 v -4 c 0,-2 0,-8 7,-8 z"
         id="path2086"
         style="color:#000000;display:block" />
    </g>
  </g>
</svg>
