<?xml version="1.0" encoding="UTF-8" standalone="no"?>
<!-- Created with Inkscape (http://www.inkscape.org/) -->

<svg
   xmlns:dc="http://purl.org/dc/elements/1.1/"
   xmlns:cc="http://creativecommons.org/ns#"
   xmlns:rdf="http://www.w3.org/1999/02/22-rdf-syntax-ns#"
   xmlns:svg="http://www.w3.org/2000/svg"
   xmlns="http://www.w3.org/2000/svg"
   version="1.1"
   width="48"
   height="48"
   id="svg2">
  <defs
     id="defs4" />
  <metadata
     id="metadata7">
    <rdf:RDF>
      <cc:Work
         rdf:about="">
        <dc:format>image/svg+xml</dc:format>
        <dc:type
           rdf:resource="http://purl.org/dc/dcmitype/StillImage" />
        <dc:title></dc:title>
      </cc:Work>
    </rdf:RDF>
  </metadata>
  <g
     transform="translate(0,-1004.3622)"
     id="layer1">
    <g
       transform="matrix(1,0,0,-1,0,2056.7244)"
       id="g3762"
       style="stroke:#ffffff;stroke-width:8;stroke-linecap:round;stroke-linejoin:round;stroke-miterlimit:4;stroke-opacity:1;stroke-dasharray:none">
      <path
         d="m 43.977868,1033.6236 c 0,8.1399 -8.94935,14.7386 -19.988934,14.7386 -11.039584,0 -19.9889342,-6.5987 -19.9889342,-14.7386 0,-0.7217 -0.052759,-0.4545 20.3940962,-0.4545 21.055287,0 19.583772,0.07 19.583772,0.4545 z"
         id="path3764"
         style="fill:#000000;fill-opacity:1;stroke:#ffffff;stroke-width:8;stroke-linecap:round;stroke-linejoin:round;stroke-miterlimit:4;stroke-opacity:1;stroke-dasharray:none" />
      <path
         d="m 44.186279,18.976739 -50.4918403,0 25.2459203,-43.727217 z"
         transform="matrix(0.79220721,0,0,0.50311915,8.9953108,1020.8146)"
         id="path3766"
         style="fill:#000000;fill-opacity:1;stroke:#ffffff;stroke-width:12.67170811;stroke-linecap:round;stroke-linejoin:round;stroke-miterlimit:4;stroke-opacity:1;stroke-dasharray:none" />
    </g>
    <g
       transform="matrix(1,0,0,-1,0,2056.7244)"
       id="g3758">
      <path
         d="m 43.977868,1033.6236 c 0,8.1399 -8.94935,14.7386 -19.988934,14.7386 -11.039584,0 -19.9889342,-6.5987 -19.9889342,-14.7386 0,-0.7217 -0.052759,-0.4545 20.3940962,-0.4545 21.055287,0 19.583772,0.07 19.583772,0.4545 z"
         id="path2985"
         style="fill:#000000;fill-opacity:1;stroke:none" />
      <path
         d="m 44.186279,18.976739 -50.4918403,0 25.2459203,-43.727217 z"
         transform="matrix(0.79220721,0,0,0.50311915,8.9953108,1020.8146)"
         id="path3756"
         style="fill:#000000;fill-opacity:1;stroke:none" />
    </g>
  </g>
</svg>
