<?xml version="1.0" encoding="UTF-8" standalone="no"?>
<!-- Created with Inkscape (http://www.inkscape.org/) -->

<svg
   xmlns:dc="http://purl.org/dc/elements/1.1/"
   xmlns:cc="http://creativecommons.org/ns#"
   xmlns:rdf="http://www.w3.org/1999/02/22-rdf-syntax-ns#"
   xmlns:svg="http://www.w3.org/2000/svg"
   xmlns="http://www.w3.org/2000/svg"
   xmlns:sodipodi="http://sodipodi.sourceforge.net/DTD/sodipodi-0.dtd"
   xmlns:inkscape="http://www.inkscape.org/namespaces/inkscape"
   id="svg3304"
   height="48px"
   width="48px"
   version="1.1"
   inkscape:version="0.48.4 r9939"
   sodipodi:docname="remmina-sftp.svg">
  <defs
     id="defs14" />
  <sodipodi:namedview
     pagecolor="#ffffff"
     bordercolor="#666666"
     borderopacity="1"
     objecttolerance="10"
     gridtolerance="10"
     guidetolerance="10"
     inkscape:pageopacity="0"
     inkscape:pageshadow="2"
     inkscape:window-width="1366"
     inkscape:window-height="718"
     id="namedview12"
     showgrid="false"
     inkscape:zoom="8"
     inkscape:cx="-3.129018"
     inkscape:cy="19.495174"
     inkscape:window-x="0"
     inkscape:window-y="0"
     inkscape:window-maximized="1"
     inkscape:current-layer="g3894" />
  <metadata
     id="metadata3309">
    <rdf:RDF>
      <cc:Work
         rdf:about="">
        <dc:format>image/svg+xml</dc:format>
        <dc:type
           rdf:resource="http://purl.org/dc/dcmitype/StillImage" />
        <dc:title />
        <dc:creator>
          <cc:Agent>
            <dc:title>Luca Ferretti &lt;elle.uca@libero.it&gt;</dc:title>
          </cc:Agent>
        </dc:creator>
        <cc:license
           rdf:resource="http://creativecommons.org/licenses/GPL/2.0/" />
        <dc:subject>
          <rdf:Bag>
            <rdf:li>computer</rdf:li>
          </rdf:Bag>
        </dc:subject>
        <dc:date>June 2009</dc:date>
      </cc:Work>
      <cc:License
         rdf:about="http://creativecommons.org/licenses/GPL/2.0/">
        <cc:permits
           rdf:resource="http://web.resource.org/cc/Reproduction" />
        <cc:permits
           rdf:resource="http://web.resource.org/cc/Distribution" />
        <cc:requires
           rdf:resource="http://web.resource.org/cc/Notice" />
        <cc:permits
           rdf:resource="http://web.resource.org/cc/DerivativeWorks" />
        <cc:requires
           rdf:resource="http://web.resource.org/cc/ShareAlike" />
        <cc:requires
           rdf:resource="http://web.resource.org/cc/SourceCode" />
      </cc:License>
    </rdf:RDF>
  </metadata>
  <g
     id="layer1">
    <rect
       id="rect5087"
       style="fill:none"
       height="30"
       width="30"
       y="14.288136"
       x="16.525423" />
    <g
       transform="matrix(1.6,0,0,1.6,-26.440678,-22.861018)"
       id="g3894"
       style="stroke:#ffffff;stroke-opacity:1;stroke-width:5;stroke-miterlimit:4;stroke-dasharray:none">
      <path
         id="path3896"
         style="fill:#000000;fill-opacity:1;stroke:#ffffff;stroke-width:7.5;stroke-linecap:round;stroke-linejoin:round;stroke-opacity:1;stroke-miterlimit:4;stroke-dasharray:none"
         d="m 22.150424,40.538136 h 18.75 c 0,0 -1.2375,-6.875 -9.375,-6.875 -8.1375,0 -9.375,6.875 -9.375,6.875 z"
         inkscape:connector-curvature="0" />
      <path
         id="path3898"
         style="fill-rule:evenodd;stroke:#ffffff;stroke-opacity:1;stroke-width:5;stroke-miterlimit:4;stroke-dasharray:none"
         d="m 21.525424,16.788136 h 20 c 1.265625,0 2.5,1.125937 2.5,2.5 v 13.75 h -25 v -13.75 c 0,-1.108625 1.35225,-2.5 2.5,-2.5 z"
         inkscape:connector-curvature="0" />
      <rect
         id="rect3900"
         style="fill:#ffffff;fill-rule:evenodd;stroke:#ffffff;stroke-opacity:1;stroke-width:5;stroke-miterlimit:4;stroke-dasharray:none"
         height="11.25"
         width="20"
         y="19.288136"
         x="21.525421" />
    </g>
    <rect
       id="rect4784"
       style="fill:none"
       height="30"
       width="30"
       y="14.288136"
       x="16.525423" />
    <g
       id="g3803"
       transform="matrix(0.96203629,0.22526283,-0.27654882,0.91075031,31.882458,-2.0015451)">
      <g
         transform="matrix(0.97046184,-0.24003174,0.29468019,1.0251103,-306.93434,-1023.3497)"
         id="layer1-8">
        <g
           transform="matrix(0.08197549,0,0,0.08197549,8.5825912,997.19246)"
           id="g3010" />
      </g>
    </g>
    <g
       id="g3874"
       transform="matrix(1.6,0,0,1.6,-26.440678,-22.861018)">
      <path
         inkscape:connector-curvature="0"
         d="m 22.150424,40.538136 h 18.75 c 0,0 -1.2375,-6.875 -9.375,-6.875 -8.1375,0 -9.375,6.875 -9.375,6.875 z"
         style="fill:#000000;fill-opacity:1;stroke:#000000;stroke-width:2.5;stroke-linecap:round;stroke-linejoin:round"
         id="path3217" />
      <path
         inkscape:connector-curvature="0"
         d="m 21.525424,16.788136 h 20 c 1.265625,0 2.5,1.125937 2.5,2.5 v 13.75 h -25 v -13.75 c 0,-1.108625 1.35225,-2.5 2.5,-2.5 z"
         style="fill-rule:evenodd"
         id="path2175" />
      <rect
         x="21.525421"
         y="19.288136"
         width="20"
         height="11.25"
         style="fill:#ffffff;fill-rule:evenodd"
         id="rect4355" />
    </g>
    <path
       inkscape:connector-curvature="0"
       d="m 24.191579,14.378201 -0.171887,0.0035 -0.175393,0.01402 -0.175389,0.02104 -0.171889,0.02806 -0.168375,0.03858 -0.168377,0.04561 -0.168377,0.05262 -0.161361,0.06315 -0.161362,0.06665 -0.154346,0.07717 -0.150839,0.08419 -0.147327,0.0912 -0.143822,0.09822 -0.136808,0.105238 -0.129791,0.112255 -0.126282,0.115752 -0.119267,0.122775 -0.112255,0.129791 -0.105238,0.133298 -0.10173,0.140317 -0.0912,0.14382 -0.08419,0.14733 -0.07717,0.150837 -0.06665,0.154348 -0.05964,0.157853 -0.05262,0.161359 -0.04561,0.164871 -0.03508,0.16487 -0.02807,0.164868 -0.01754,0.168377 -0.007,0.168377 -0.0035,0.168377 0.007,0.168378 0.01754,0.168378 0.02456,0.164868 0.03508,0.168377 0.04209,0.161361 0.04911,0.161362 0.05964,0.16136 0.06665,0.154346 0.07366,0.150838 0.08419,0.150837 0.0877,0.143823 0.09822,0.140313 0.105238,0.1333 0.112254,0.129791 0.115764,0.126282 0.126282,0.119267 0.12979,0.112255 0.136808,0.105238 0.140312,0.10173 0.143823,0.0912 0.150837,0.08419 0.154348,0.08067 0.161359,0.07016 0.161362,0.06315 0.164869,0.05612 0.168378,0.04561 0.168378,0.03858 0.175391,0.03157 0.171886,0.02456 0.171885,0.01402 0.175393,0.0036 0.175391,0 0.175393,-0.01054 0.171885,-0.02105 0.175393,-0.02807 0.171887,-0.03508 0.168375,-0.04209 0.164869,-0.05262 0.164871,-0.05964 0.157853,-0.06665 0.157853,-0.07366 0.154343,-0.08419 0.147332,-0.0912 0.143822,-0.09472 0.136807,-0.10173 0.133297,-0.112255 0.126283,-0.115764 0.119269,-0.122777 0.115764,-0.126281 0.108746,-0.133297 0.09822,-0.136807 0.09472,-0.143822 0.0877,-0.147332 0.07717,-0.150837 0.07015,-0.154344 0.06315,-0.157854 0.05262,-0.157856 0.04561,-0.164868 0.03858,-0.164869 0.02807,-0.164868 0.02104,-0.168378 0.01054,-0.168378 0.0035,-0.168375 -0.007,-0.168377 -0.01402,-0.168379 -0.02455,-0.164868 -0.03156,-0.168379 -0.03858,-0.161359 -0.04911,-0.16487 3.234243,-0.985708 0.04911,0.157854 0.04561,0.161361 0.03858,0.157853 0.03858,0.161361 0.03508,0.161362 0.02806,0.161362 0.02456,0.164869 0.02104,0.161361 0.01754,0.16487 0.01054,0.164869 0.007,0.164869 0.0035,0.164868 0,0.164871 -0.0035,0.164869 -0.007,0.16136 -0.01402,0.164872 -0.01754,0.164868 -0.02456,0.164877 -0.02456,0.161364 -0.02806,0.161359 -0.03508,0.161361 -0.03858,0.16136 -0.04209,0.157856 -0.04561,0.16136 -0.04911,0.157854 -0.05612,0.154346 -0.05964,0.154348 -0.05964,0.154343 -0.06664,0.150801 -0.07016,0.150839 -0.07366,0.147332 -0.07717,0.147326 -0.08419,0.143823 -0.08419,0.143822 -0.08769,0.140316 -0.09472,0.140313 -0.09471,0.136806 -0.09822,0.133299 -0.105238,0.129791 -0.105238,0.129791 -0.108747,0.126281 -0.112254,0.126283 -0.115764,0.119268 -0.119266,0.119267 -0.122775,0.115764 -0.122775,0.112255 -0.129789,0.108747 -0.129791,0.105238 -0.133298,0.105237 -0.133301,0.10173 -0.140313,0.09472 -0.140315,0.09471 -0.143824,0.0877 -0.143822,0.0877 -0.147327,0.08419 -0.150839,0.08067 -0.150836,0.07366 -0.154349,0.07366 -0.154343,0.07016 -0.157853,0.06315 -0.157856,0.06315 -0.157852,0.05612 -0.164869,0.05262 -0.16136,0.05262 -0.164872,0.04561 -0.164868,0.04209 -0.16487,0.03508 -0.168377,0.03508 -0.168375,0.03157 -0.168379,0.02455 -0.168376,0.02104 -0.171885,0.01754 -0.168377,0.01402 -0.168379,0.01054 -0.171885,0.007 -0.171884,0.0035 -0.171883,-0.0035 -0.168378,-0.007 -0.171884,-0.01054 -0.168377,-0.01402 -0.171887,-0.01754 -0.168376,-0.02456 -0.168378,-0.02456 -0.168375,-0.03157 -0.168378,-0.03508 -0.164869,-0.03858 -0.164872,-0.04209 -0.164868,-0.04561 -0.161359,-0.05262 -0.161364,-0.05262 -0.161362,-0.05964 -0.157853,-0.05964 -0.157853,-0.06665 -0.154344,-0.07016 -0.150845,-0.07365 -0.154346,-0.07717 -0.147332,-0.07717 -0.147328,-0.08419 -0.143823,-0.0877 -0.143822,-0.0912 -0.140313,-0.09472 -0.136806,-0.09471 -0.136807,-0.10173 -0.1333,-0.105238 -0.129789,-0.105238 -0.126285,-0.112255 -0.122771,-0.112255 -0.122776,-0.115763 -0.119266,-0.119267 -0.115763,-0.119266 -0.112256,-0.126285 -0.108746,-0.126282 -0.105238,-0.129789 -0.10173,-0.129789 -0.09822,-0.136806 -0.09471,-0.136808 -0.0912,-0.136805 -0.0912,-0.140317 -0.08419,-0.143822 -0.08067,-0.147329 -0.07718,-0.143822 -0.07366,-0.150837 -0.07016,-0.150839 -0.06315,-0.150837 -0.06315,-0.154346 -0.05612,-0.154345 -0.05612,-0.157853 -0.04911,-0.154347 -0.04561,-0.161362 -0.04209,-0.157854 -0.03858,-0.16136 -0.03157,-0.161361 -0.02806,-0.16487 -0.02806,-0.161362 -0.02105,-0.161358 -0.01754,-0.164872 -0.01054,-0.164869 -0.007,-0.164869 -0.007,-0.164869 0.0035,-0.164867 0.0036,-0.164874 0.007,-0.164867 0.01402,-0.164869 0.01754,-0.161363 0.02104,-0.164868 0.02456,-0.16136 0.02806,-0.161362 0.03508,-0.161362 0.03858,-0.16136 0.04209,-0.161363 0.04561,-0.157852 0.04911,-0.157854 0.05262,-0.154347 0.05964,-0.157852 0.06313,-0.150838 0.06665,-0.154347 0.07016,-0.147329 0.07366,-0.150837 0.07718,-0.147331 0.08067,-0.143822 0.08419,-0.143822 0.0877,-0.140314 0.09471,-0.136806 0.09471,-0.136807 0.09822,-0.136807 0.10173,-0.129788 0.105238,-0.129792 0.112255,-0.126284 0.112255,-0.122774 0.115752,-0.122774 0.115764,-0.119267 0.122777,-0.115764 0.126282,-0.112255 0.126282,-0.108747 0.129789,-0.108746 0.133297,-0.10173 0.1333,-0.10173 0.140314,-0.09472 0.140316,-0.09471 0.143822,-0.0912 0.143822,-0.0877 0.147328,-0.08419 0.150838,-0.07717 0.150838,-0.07718 0.150838,-0.07366 0.154345,-0.07017 0.157853,-0.06314 0.157854,-0.06313 0.161362,-0.05612 0.16136,-0.05612 0.161363,-0.04911 0.164868,-0.04561 0.16487,-0.04209 0.168378,-0.03858 0.164868,-0.03508 0.168378,-0.03157 0.168377,-0.02456 0.168376,-0.02104 0.171887,-0.02104 0.168375,-0.01402 0.171886,-0.01054 0.171884,-0.0036 0.168378,-0.0036 0,-1.6662324 3.423665,3.3008934 -3.423665,3.30089 0,-1.66623 z"
       style="fill:#000000;fill-opacity:1;fill-rule:evenodd;stroke:#000000;stroke-width:0.5622229;stroke-linecap:round;stroke-linejoin:round;stroke-miterlimit:4;stroke-opacity:1;stroke-dasharray:none"
       id="path3850" />
  </g>
</svg>
