<?xml version="1.0" encoding="UTF-8" standalone="no"?>
<!-- Generator: Adobe Illustrator 9.0, SVG Export Plug-In  -->

<svg
   xmlns:dc="http://purl.org/dc/elements/1.1/"
   xmlns:cc="http://creativecommons.org/ns#"
   xmlns:rdf="http://www.w3.org/1999/02/22-rdf-syntax-ns#"
   xmlns:svg="http://www.w3.org/2000/svg"
   xmlns="http://www.w3.org/2000/svg"
   xmlns:sodipodi="http://sodipodi.sourceforge.net/DTD/sodipodi-0.dtd"
   xmlns:inkscape="http://www.inkscape.org/namespaces/inkscape"
   id="svg2"
   sodipodi:docname="font-x-generic.svg"
   xml:space="preserve"
   height="48"
   sodipodi:version="0.32"
   width="48"
   version="1.0"
   viewBox="0 0 48 48"
   inkscape:version="0.48.3.1 r9886"><defs
   id="defs13" /><metadata
   id="metadata27"><rdf:RDF><cc:Work
       rdf:about=""><dc:format>image/svg+xml</dc:format><dc:type
         rdf:resource="http://purl.org/dc/dcmitype/StillImage" /></cc:Work></rdf:RDF></metadata><sodipodi:namedview
   id="base"
   bordercolor="#666666"
   pagecolor="#ffffff"
   borderopacity="1.0"
   showgrid="true"
   inkscape:zoom="4.9166667"
   inkscape:cx="-10.474576"
   inkscape:cy="24"
   inkscape:window-width="736"
   inkscape:window-height="421"
   inkscape:window-x="8"
   inkscape:window-y="0"
   inkscape:window-maximized="0"
   inkscape:current-layer="svg2" />
	<rect
   id="rect1341"
   style="fill:none"
   rx="0"
   ry="0"
   height="48"
   width="48"
   y="0"
   x="0" /><g
   id="g7"
   style="stroke:#000">
				<g
   id="g9">
					<path
   id="path11"
   d="m18 30.9l-2.8 7.2h-9.2l12.1-28.2h11.6l12.3 28.2h-9.6l-3-7.2h-11.4zm10-4.8s-3.8-9.8-4.4-11.4h-0.2c-0.5 1.7-4.2 11.4-4.2 11.4h8.8z" />
				</g>
			</g><g
   id="g3089"
   style="stroke:#fff;stroke-width:12;fill:#fff;stroke-miterlimit:4;stroke-dasharray:none">
				<path
   id="path3091"
   sodipodi:nodetypes="cccccccccccccc"
   style="stroke-linejoin:round;stroke:#fff;stroke-width:12;fill:#fff;stroke-miterlimit:4;stroke-dasharray:none"
   d="m15 38h-9l12-28h12l12 28h-9l-3-7-12-0.1-3 7.1zm14-12s-3.4-9.4-4-11h-2c-0.5 1.7-4 11-4 11h10z" />
			</g><g
   id="g17"
   style="stroke:#000;stroke-width:4">
				<path
   id="path19"
   sodipodi:nodetypes="cccccccccccccc"
   style="stroke-linejoin:round;stroke-width:4"
   d="m15 38h-9l12-28h12l12 28h-9l-3-7-12-0.1-3 7.1zm14-12s-3.4-9.4-4-11h-2c-0.5 1.7-4 11-4 11h10z" />
			</g>
</svg>