<?xml version="1.0" encoding="UTF-8" standalone="no"?>
<!-- Created with Inkscape (http://www.inkscape.org/) -->

<svg
   xmlns:dc="http://purl.org/dc/elements/1.1/"
   xmlns:cc="http://creativecommons.org/ns#"
   xmlns:rdf="http://www.w3.org/1999/02/22-rdf-syntax-ns#"
   xmlns:svg="http://www.w3.org/2000/svg"
   xmlns="http://www.w3.org/2000/svg"
   xmlns:xlink="http://www.w3.org/1999/xlink"
   xmlns:sodipodi="http://sodipodi.sourceforge.net/DTD/sodipodi-0.dtd"
   xmlns:inkscape="http://www.inkscape.org/namespaces/inkscape"
   width="48px"
   height="48px"
   id="svg4007"
   version="1.1"
   inkscape:version="0.48.3.1 r9886"
   sodipodi:docname="office-database.svg">
  <defs
     id="defs4009">
    <linearGradient
       id="linearGradient3923">
      <stop
         offset="0"
         style="stop-color:#ffffff;stop-opacity:1;"
         id="stop3925" />
      <stop
         id="stop3927"
         style="stop-color:#ffffff;stop-opacity:0.23529412;"
         offset="0.08125819" />
      <stop
         offset="0.87818879"
         style="stop-color:#ffffff;stop-opacity:0.15686275;"
         id="stop3929" />
      <stop
         offset="1"
         style="stop-color:#ffffff;stop-opacity:0.39215687;"
         id="stop3931" />
    </linearGradient>
    <linearGradient
       x1="102.30806"
       y1="-2.3925467"
       x2="102.30806"
       y2="-24.582239"
       id="linearGradient2588"
       xlink:href="#linearGradient3844"
       gradientUnits="userSpaceOnUse"
       gradientTransform="matrix(0.7369845,0,0,0.7314898,-52.605621,21.888493)"
       spreadMethod="reflect" />
    <linearGradient
       id="linearGradient3844">
      <stop
         id="stop3846"
         style="stop-color:#a5a6a8;stop-opacity:1"
         offset="0" />
      <stop
         id="stop3848"
         style="stop-color:#e8e8e8;stop-opacity:1"
         offset="1" />
    </linearGradient>
    <linearGradient
       x1="109.95628"
       y1="-24.91135"
       x2="109.95628"
       y2="-2.3757858"
       id="linearGradient2590"
       xlink:href="#linearGradient2509"
       gradientUnits="userSpaceOnUse"
       gradientTransform="matrix(0.7369845,0,0,0.7314898,-52.605621,21.888493)" />
    <linearGradient
       id="linearGradient2509">
      <stop
         id="stop2511"
         style="stop-color:#b3b3b3;stop-opacity:1"
         offset="0" />
      <stop
         id="stop2513"
         style="stop-color:#dadada;stop-opacity:1"
         offset="1" />
    </linearGradient>
    <linearGradient
       x1="103.95014"
       y1="-7.6656942"
       x2="89.423676"
       y2="-7.6656942"
       id="linearGradient2593"
       xlink:href="#linearGradient2793"
       gradientUnits="userSpaceOnUse"
       gradientTransform="matrix(0.7365163,0,0,0.7204767,-52.560989,28.852531)"
       spreadMethod="reflect" />
    <linearGradient
       id="linearGradient2793">
      <stop
         id="stop2795"
         style="stop-color:#868688;stop-opacity:1"
         offset="0" />
      <stop
         id="stop2797"
         style="stop-color:#d9d9da;stop-opacity:1"
         offset="1" />
    </linearGradient>
    <linearGradient
       x1="89.01844"
       y1="22.536863"
       x2="89.01844"
       y2="27.54611"
       id="linearGradient2595"
       xlink:href="#linearGradient3858"
       gradientUnits="userSpaceOnUse"
       gradientTransform="matrix(1.6086956,0,0,1.6666668,-127.4707,-18.576854)" />
    <linearGradient
       id="linearGradient3858">
      <stop
         id="stop3860"
         style="stop-color:#a0a0a0;stop-opacity:1"
         offset="0" />
      <stop
         id="stop3862"
         style="stop-color:#4a4a4a;stop-opacity:1"
         offset="1" />
    </linearGradient>
    <linearGradient
       x1="103.95014"
       y1="-7.6656942"
       x2="89.423676"
       y2="-7.6656942"
       id="linearGradient2597"
       xlink:href="#linearGradient2793"
       gradientUnits="userSpaceOnUse"
       gradientTransform="matrix(0.7365163,0,0,0.7204767,-52.560989,37.852531)"
       spreadMethod="reflect" />
    <linearGradient
       x1="89.01844"
       y1="22.536863"
       x2="89.01844"
       y2="27.54611"
       id="linearGradient2599"
       xlink:href="#linearGradient3858"
       gradientUnits="userSpaceOnUse"
       gradientTransform="matrix(1.6086956,0,0,1.6666668,-127.4707,-9.576854)" />
    <linearGradient
       x1="103.95014"
       y1="-7.6656942"
       x2="89.423676"
       y2="-7.6656942"
       id="linearGradient2575"
       xlink:href="#linearGradient2793"
       gradientUnits="userSpaceOnUse"
       gradientTransform="matrix(0.7365163,0,0,0.7204767,-52.560989,46.852531)"
       spreadMethod="reflect" />
    <linearGradient
       x1="89.01844"
       y1="22.536863"
       x2="89.01844"
       y2="27.54611"
       id="linearGradient2577"
       xlink:href="#linearGradient3858"
       gradientUnits="userSpaceOnUse"
       gradientTransform="matrix(1.6086956,0,0,1.6666668,-127.4707,-0.5768545)" />
    <linearGradient
       id="linearGradient23419">
      <stop
         id="stop23421"
         style="stop-color:#000000;stop-opacity:1"
         offset="0" />
      <stop
         id="stop23423"
         style="stop-color:#000000;stop-opacity:0"
         offset="1" />
    </linearGradient>
    <radialGradient
       r="22.627417"
       fy="41.63604"
       fx="23.334524"
       cy="41.63604"
       cx="23.334524"
       gradientTransform="matrix(0.9516533,0,0,0.3655503,1.7936239,24.007202)"
       gradientUnits="userSpaceOnUse"
       id="radialGradient4005"
       xlink:href="#linearGradient23419"
       inkscape:collect="always" />
  </defs>
  <sodipodi:namedview
     id="base"
     pagecolor="#ffffff"
     bordercolor="#666666"
     borderopacity="1.0"
     inkscape:pageopacity="0.0"
     inkscape:pageshadow="2"
     inkscape:zoom="7.9991455"
     inkscape:cx="21.697946"
     inkscape:cy="21.455218"
     inkscape:current-layer="layer1"
     showgrid="true"
     inkscape:grid-bbox="true"
     inkscape:document-units="px"
     showguides="true"
     inkscape:guide-bbox="true"
     inkscape:window-width="1366"
     inkscape:window-height="717"
     inkscape:window-x="0"
     inkscape:window-y="0"
     inkscape:window-maximized="1" />
  <metadata
     id="metadata4012">
    <rdf:RDF>
      <cc:Work
         rdf:about="">
        <dc:format>image/svg+xml</dc:format>
        <dc:type
           rdf:resource="http://purl.org/dc/dcmitype/StillImage" />
        <dc:title />
      </cc:Work>
    </rdf:RDF>
  </metadata>
  <g
     id="layer1"
     inkscape:label="Layer 1"
     inkscape:groupmode="layer">
    <path
       inkscape:connector-curvature="0"
       d="M 45.533456,39.227265 C 45.535278,43.795964 35.893898,47.5 24,47.5 12.106102,47.5 2.464708,43.795964 2.466544,39.227265 2.464722,34.658566 12.106102,30.95453 24,30.95453 c 11.893898,0 21.535294,3.704036 21.533456,8.272735 z"
       id="path23417"
       style="opacity:0.3;fill:url(#radialGradient4005);fill-opacity:1;fill-rule:evenodd;stroke:none;stroke-width:2;marker:none;visibility:visible;display:inline;overflow:visible" />
    <g
       id="g3796"
       style="stroke:#ffffff;stroke-width:8;stroke-miterlimit:4;stroke-opacity:1;stroke-dasharray:none"
       transform="translate(0,-0.5)">
      <path
         inkscape:connector-curvature="0"
         d="m 42.484183,37.112916 c 0,4.077669 -8.282739,7.387084 -18.488235,7.387084 -10.205513,0 -18.4882475,-3.309415 -18.4882475,-7.387084 0,-11.816215 -2.2597682,-7.233301 18.4882475,-7.387083 21.223177,-0.158667 18.488235,-5.446015 18.488235,7.387083 z"
         id="path3798"
         style="fill:#000000;fill-opacity:1;stroke:#ffffff;stroke-width:8;stroke-miterlimit:4;stroke-opacity:1;stroke-dasharray:none" />
      <path
         inkscape:connector-curvature="0"
         d="m 42.499999,30.000001 c 0,4.142137 -8.282732,7.499999 -18.499998,7.499999 -10.217269,0 -18.5,-3.357862 -18.5,-7.499999 0,-4.142136 8.282731,-7.500001 18.5,-7.500001 10.217266,0 18.499998,3.357865 18.499998,7.500001 l 0,0 z"
         id="path3800"
         style="fill:#868688;fill-opacity:1;stroke:#ffffff;stroke-width:8;stroke-miterlimit:4;stroke-opacity:1;stroke-dasharray:none" />
      <path
         inkscape:connector-curvature="0"
         d="m 42.484183,28.112916 c 0,4.077669 -8.282739,7.387084 -18.488235,7.387084 -10.205513,0 -18.4882475,-3.309415 -18.4882475,-7.387084 0,-13.070521 -2.2597682,-7.233301 18.4882475,-7.387083 21.223177,-0.158667 18.488235,-5.690708 18.488235,7.387083 z"
         id="path3802"
         style="fill:#000000;fill-opacity:1;stroke:#ffffff;stroke-width:8;stroke-miterlimit:4;stroke-opacity:1;stroke-dasharray:none" />
      <path
         inkscape:connector-curvature="0"
         d="m 42.499999,21.000001 c 0,4.142137 -8.282732,7.499999 -18.499998,7.499999 -10.217269,0 -18.5,-3.357862 -18.5,-7.499999 0,-4.142136 8.282731,-7.500001 18.5,-7.500001 10.217266,0 18.499998,3.357865 18.499998,7.500001 l 0,0 z"
         id="path3804"
         style="fill:#868688;fill-opacity:1;stroke:#ffffff;stroke-width:8;stroke-miterlimit:4;stroke-opacity:1;stroke-dasharray:none" />
      <path
         inkscape:connector-curvature="0"
         d="m 42.484183,19.112916 c 0,4.077669 -8.282739,7.387084 -18.488235,7.387084 -10.205513,0 -18.4882475,-3.309415 -18.4882475,-7.387084 0,-13.9508896 -2.2597682,-7.233301 18.4882475,-7.387083 21.223177,-0.158667 18.488235,-5.5410032 18.488235,7.387083 z"
         id="path3806"
         style="fill:#000000;fill-opacity:1;stroke:#ffffff;stroke-width:8;stroke-miterlimit:4;stroke-opacity:1;stroke-dasharray:none" />
      <path
         inkscape:connector-curvature="0"
         d="m 42.499999,12.000001 c 0,4.142137 -8.282732,7.499999 -18.499998,7.499999 -10.217269,0 -18.5,-3.357862 -18.5,-7.499999 0,-4.1421359 8.282731,-7.5000011 18.5,-7.5000011 10.217266,0 18.499998,3.3578652 18.499998,7.5000011 l 0,0 z"
         id="path3808"
         style="fill:#000000;fill-opacity:1;stroke:#ffffff;stroke-width:8;stroke-miterlimit:4;stroke-opacity:1;stroke-dasharray:none" />
    </g>
    <g
       id="g3788"
       transform="translate(0,-0.5)">
      <path
         style="fill:#000000;fill-opacity:1;stroke:#000000;stroke-width:0.99999988;stroke-miterlimit:4;stroke-opacity:1;stroke-dasharray:none"
         id="path2561"
         d="m 42.484183,37.112916 c 0,4.077669 -8.282739,7.387084 -18.488235,7.387084 -10.205513,0 -18.4882475,-3.309415 -18.4882475,-7.387084 0,-11.816215 -2.2597682,-7.233301 18.4882475,-7.387083 21.223177,-0.158667 18.488235,-5.446015 18.488235,7.387083 z"
         inkscape:connector-curvature="0" />
      <path
         style="fill:#ffffff;fill-opacity:1;stroke:#ffffff;stroke-width:0.99999988;stroke-miterlimit:4;stroke-opacity:1;stroke-dasharray:none"
         id="path2563"
         d="m 42.499999,30.000001 c 0,4.142137 -8.282732,7.499999 -18.499998,7.499999 -10.217269,0 -18.5,-3.357862 -18.5,-7.499999 0,-4.142136 8.282731,-7.500001 18.5,-7.500001 10.217266,0 18.499998,3.357865 18.499998,7.500001 l 0,0 z"
         inkscape:connector-curvature="0" />
      <path
         style="fill:#000000;fill-opacity:1;stroke:#000000;stroke-width:0.99999988;stroke-miterlimit:4;stroke-opacity:1;stroke-dasharray:none"
         id="path2536"
         d="m 42.484183,28.112916 c 0,4.077669 -8.282739,7.387084 -18.488235,7.387084 -10.205513,0 -18.4882475,-3.309415 -18.4882475,-7.387084 0,-13.070521 -2.2597682,-7.233301 18.4882475,-7.387083 21.223177,-0.158667 18.488235,-5.690708 18.488235,7.387083 z"
         inkscape:connector-curvature="0" />
      <path
         style="fill:#ffffff;fill-opacity:1;stroke:#ffffff;stroke-width:0.99999988;stroke-miterlimit:4;stroke-opacity:1;stroke-dasharray:none"
         id="path2538"
         d="m 42.499999,21.000001 c 0,4.142137 -8.282732,7.499999 -18.499998,7.499999 -10.217269,0 -18.5,-3.357862 -18.5,-7.499999 0,-4.142136 8.282731,-7.500001 18.5,-7.500001 10.217266,0 18.499998,3.357865 18.499998,7.500001 l 0,0 z"
         inkscape:connector-curvature="0" />
      <path
         style="fill:#000000;fill-opacity:1;stroke:#000000;stroke-width:0.99999988;stroke-miterlimit:4;stroke-opacity:1;stroke-dasharray:none"
         id="path3878"
         d="m 42.484183,19.112916 c 0,4.077669 -8.282739,7.387084 -18.488235,7.387084 -10.205513,0 -18.4882475,-3.309415 -18.4882475,-7.387084 0,-13.9508896 -2.2597682,-7.233301 18.4882475,-7.387083 21.223177,-0.158667 18.488235,-5.5410032 18.488235,7.387083 z"
         inkscape:connector-curvature="0" />
      <path
         style="fill:#000000;fill-opacity:1;stroke:#ffffff;stroke-width:2;stroke-miterlimit:4;stroke-opacity:1;stroke-dasharray:none"
         id="path3880"
         d="m 42.499999,12.000001 c 0,4.142137 -8.282732,7.499999 -18.499998,7.499999 -10.217269,0 -18.5,-3.357862 -18.5,-7.499999 0,-4.1421359 8.282731,-7.5000011 18.5,-7.5000011 10.217266,0 18.499998,3.3578652 18.499998,7.5000011 l 0,0 z"
         inkscape:connector-curvature="0" />
    </g>
  </g>
</svg>
