<?xml version="1.0" encoding="UTF-8" standalone="no"?>
<!-- Generator: Adobe Illustrator 9.0, SVG Export Plug-In  -->

<svg
   xmlns:dc="http://purl.org/dc/elements/1.1/"
   xmlns:cc="http://creativecommons.org/ns#"
   xmlns:rdf="http://www.w3.org/1999/02/22-rdf-syntax-ns#"
   xmlns:svg="http://www.w3.org/2000/svg"
   xmlns="http://www.w3.org/2000/svg"
   xmlns:sodipodi="http://sodipodi.sourceforge.net/DTD/sodipodi-0.dtd"
   xmlns:inkscape="http://www.inkscape.org/namespaces/inkscape"
   id="svg2"
   sodipodi:docname="text-html.svg"
   xml:space="preserve"
   height="48px"
   sodipodi:version="0.32"
   width="48px"
   viewBox="0 0 48 48"
   version="1.1"
   inkscape:version="0.48.3.1 r9886"><defs
   id="defs19" /><metadata
   id="metadata19"><rdf:RDF><cc:Work
       rdf:about=""><dc:format>image/svg+xml</dc:format><dc:type
         rdf:resource="http://purl.org/dc/dcmitype/StillImage" /><dc:title>Document new</dc:title><dc:creator><cc:Agent><dc:title>Jakub Stainer</dc:title></cc:Agent></dc:creator><cc:license
         rdf:resource="http://creativecommons.org/licenses/GPL/2.0/" /></cc:Work><cc:License
       rdf:about="http://creativecommons.org/licenses/GPL/2.0/"><cc:permits
         rdf:resource="http://web.resource.org/cc/Reproduction" /><cc:permits
         rdf:resource="http://web.resource.org/cc/Distribution" /><cc:requires
         rdf:resource="http://web.resource.org/cc/Notice" /><cc:permits
         rdf:resource="http://web.resource.org/cc/DerivativeWorks" /><cc:requires
         rdf:resource="http://web.resource.org/cc/ShareAlike" /><cc:requires
         rdf:resource="http://web.resource.org/cc/SourceCode" /></cc:License></rdf:RDF></metadata><sodipodi:namedview
   id="base"
   bordercolor="#666666"
   guidetolerance="0.50000000px"
   pagecolor="#ffffff"
   gridtolerance="0.50000000px"
   borderopacity="1.0"
   showgrid="true"
   showguides="true"
   inkscape:zoom="4.9166667"
   inkscape:cx="-10.474576"
   inkscape:cy="24"
   inkscape:window-width="736"
   inkscape:window-height="421"
   inkscape:window-x="8"
   inkscape:window-y="0"
   inkscape:window-maximized="0"
   inkscape:current-layer="svg2"><sodipodi:guide
     id="guide3305"
     position="24.944882"
     orientation="vertical" /><sodipodi:guide
     id="guide3307"
     position="28.031496"
     orientation="horizontal" /></sodipodi:namedview>
	<rect
   id="rect3319"
   style="fill:none"
   height="48"
   width="48"
   y="0"
   x="0" /><path
   id="path4775"
   sodipodi:nodetypes="ccccccc"
   style="stroke-linejoin:round;stroke:#fff;stroke-width:12;fill:#fff;stroke-miterlimit:4;stroke-dasharray:none"
   d="m39 41h-30v-35h21l9 10v4.679 20.321z" /><path
   id="path7"
   sodipodi:nodetypes="cccccc"
   style="stroke-linejoin:round;stroke:#000;stroke-width:4"
   d="m39 41h-30v-35h21l9 10v25z" /><path
   id="path9"
   sodipodi:nodetypes="cccccc"
   style="fill:#fff"
   d="m37 16l-0.003 23.004-25.997-0.004 0.017-30.982 17.983-0.018 8 8z" />
<path
   id="path3312"
   sodipodi:rx="24"
   sodipodi:ry="24"
   style="fill:#fff;fill-rule:evenodd"
   sodipodi:type="arc"
   d="m48 24a24 24 0 1 1 -48 0 24 24 0 1 1 48 0z"
   transform="matrix(.51282 0 0 .5 12 13.5)"
   sodipodi:cy="24"
   sodipodi:cx="24" /><path
   id="path4048"
   sodipodi:rx="20"
   sodipodi:ry="20"
   style="fill-rule:evenodd"
   sodipodi:type="arc"
   d="m44 24a20 20 0 1 1 -40 0 20 20 0 1 1 40 0z"
   transform="matrix(.51282 0 0 .5 12 13.5)"
   sodipodi:cy="24"
   sodipodi:cx="24" /><path
   id="path4784"
   sodipodi:rx="16"
   sodipodi:ry="16"
   style="fill:#fff;fill-rule:evenodd"
   sodipodi:type="arc"
   d="m40 24a16 16 0 1 1 -32 0 16 16 0 1 1 32 0z"
   transform="matrix(.51282 0 0 .5 12 13.5)"
   sodipodi:cy="24"
   sodipodi:cx="24" /><path
   id="path5512"
   sodipodi:nodetypes="cc"
   style="stroke:#000;stroke-linecap:round;stroke-width:2.0255;fill:none"
   d="m17.128 30.625c4.103-1.5 10.257-1.5 14.359 0" /><path
   id="path5516"
   style="stroke:#000;stroke-width:2.0255;fill:none"
   d="m16.086 25.5h16.443" /><path
   id="path5520"
   sodipodi:nodetypes="cc"
   style="stroke:#000;stroke-linecap:round;stroke-width:2.0255;fill:none"
   d="m22.256 17.276c-2.564 5.224-2.564 11.724 0 16.724" /><path
   id="path6250"
   sodipodi:nodetypes="cc"
   style="stroke:#000;stroke-linecap:round;stroke-width:2.0255;fill:none"
   d="m17.128 20.375c4.103 1.5 10.257 1.5 14.359 0" /><path
   id="path9156"
   sodipodi:nodetypes="cc"
   style="stroke:#000;stroke-linecap:round;stroke-width:2.0255;fill:none"
   d="m26.359 17.276c2.564 5.224 2.564 11.724 0 16.724" /></svg>