<?xml version="1.0" encoding="UTF-8" standalone="no"?>
<!-- Created with Inkscape (http://www.inkscape.org/) -->

<svg
   xmlns:dc="http://purl.org/dc/elements/1.1/"
   xmlns:cc="http://creativecommons.org/ns#"
   xmlns:rdf="http://www.w3.org/1999/02/22-rdf-syntax-ns#"
   xmlns:svg="http://www.w3.org/2000/svg"
   xmlns="http://www.w3.org/2000/svg"
   version="1.1"
   width="48"
   height="48"
   viewBox="0 0 48 48"
   id="svg2"
   xml:space="preserve"><defs
   id="defs14" /><metadata
   id="metadata19"><rdf:RDF><cc:Work
       rdf:about=""><dc:format>image/svg+xml</dc:format><dc:type
         rdf:resource="http://purl.org/dc/dcmitype/StillImage" /><dc:title></dc:title><dc:creator><cc:Agent><dc:title>Luca Ferretti &lt;elle.uca@libero.it&gt;</dc:title></cc:Agent></dc:creator><cc:license
         rdf:resource="" /><dc:date>December 2008</dc:date><dc:contributor><cc:Agent><dc:title>Based on text-x-generic</dc:title></cc:Agent></dc:contributor></cc:Work></rdf:RDF></metadata>
	<rect
   width="48"
   height="48"
   x="0"
   y="0"
   id="rect3319"
   style="fill:none" /><path
   d="M 39,41 H 9 V 6 h 21 l 9,10 V 20.679 41 z"
   id="path4775"
   style="fill:#ffffff;stroke:#ffffff;stroke-width:12;stroke-linejoin:round;stroke-miterlimit:4;stroke-dasharray:none" /><path
   d="M 39,41 H 9 V 6 h 21 l 9,10 v 25 z"
   id="path7"
   style="stroke:#000000;stroke-width:4;stroke-linejoin:round" /><path
   d="M 37,16 36.997,39.004 11,39 11.017,8.018 29,8 l 8,8 z"
   id="path9"
   style="fill:#ffffff" />
<path
   d="m 32.737306,28.386805 a 7.0974758,7.0974758 0 0 1 -14.194951,0 7.0974758,7.0974758 0 1 1 14.194951,0 z"
   id="path3759"
   style="fill:none;stroke:#000000;stroke-width:1.5;stroke-linecap:round;stroke-linejoin:round;stroke-miterlimit:4;stroke-opacity:1;stroke-dasharray:none" /><path
   d="m 29.29093,18.558181 -3.025439,8.9261 -9.424138,-0.119051 -2.798998,-8.999674 7.694262,-5.443058 z"
   id="path3757"
   style="fill:#ffffff;fill-opacity:1;stroke:#000000;stroke-width:1.5;stroke-linecap:round;stroke-linejoin:round;stroke-miterlimit:4;stroke-opacity:1;stroke-dasharray:none" /></svg>