<?xml version="1.0" encoding="UTF-8" standalone="no"?>
<!-- Created with Inkscape (http://www.inkscape.org/) -->

<svg
   xmlns:dc="http://purl.org/dc/elements/1.1/"
   xmlns:cc="http://creativecommons.org/ns#"
   xmlns:rdf="http://www.w3.org/1999/02/22-rdf-syntax-ns#"
   xmlns:svg="http://www.w3.org/2000/svg"
   xmlns="http://www.w3.org/2000/svg"
   version="1.1"
   width="48"
   height="48"
   viewBox="0 0 48 48"
   id="svg2"
   xml:space="preserve"><defs
   id="defs12" /><metadata
   id="metadata19"><rdf:RDF><cc:Work
       rdf:about=""><dc:format>image/svg+xml</dc:format><dc:type
         rdf:resource="http://purl.org/dc/dcmitype/StillImage" /><dc:title></dc:title><dc:creator><cc:Agent><dc:title>Luca Ferretti &lt;elle.uca@libero.it&gt;</dc:title></cc:Agent></dc:creator><cc:license
         rdf:resource="http://creativecommons.org/licenses/LGPL/2.1/" /><dc:subject><rdf:Bag><rdf:li>document new</rdf:li><rdf:li>document add</rdf:li></rdf:Bag></dc:subject><dc:description>A paper sheet with a + sign</dc:description></cc:Work><cc:License
       rdf:about="http://creativecommons.org/licenses/LGPL/2.1/"><cc:permits
         rdf:resource="http://web.resource.org/cc/Reproduction" /><cc:permits
         rdf:resource="http://web.resource.org/cc/Distribution" /><cc:requires
         rdf:resource="http://web.resource.org/cc/Notice" /><cc:permits
         rdf:resource="http://web.resource.org/cc/DerivativeWorks" /><cc:requires
         rdf:resource="http://web.resource.org/cc/ShareAlike" /><cc:requires
         rdf:resource="http://web.resource.org/cc/SourceCode" /></cc:License></rdf:RDF></metadata>
	<rect
   width="48"
   height="48"
   x="0"
   y="0"
   id="rect3319"
   style="fill:none" /><path
   d="M 39,41 H 9 V 6 h 17 l 13,14 v 21 z"
   id="path4775"
   style="fill:#ffffff;stroke:#ffffff;stroke-width:12;stroke-linejoin:round" /><path
   d="M 39,41 H 9 V 6 h 17 l 13,14 v 21 z"
   id="path7"
   style="stroke:#000000;stroke-width:4;stroke-linejoin:round" /><path
   d="M 36.991,20 36.997,39.004 11,39 11.017,8.018 24.969,8.0339 36.991,19.9999 z"
   id="path9"
   style="fill:#ffffff" />
<g
   transform="matrix(-0.63983051,0,0,0.63983051,48.203389,17.288135)"
   id="layer1"><path
     d="M 43,22.972 24.053,6.09 l -0.029,11 c -11.115,0.068 -13.081,-4.05 -13.086,-7 L 4,9.9778 c 0,8.5552 7.079,20.908 20.024,21.057 v 9.969 L 43,22.9718 z"
     id="rect4942"
     style="stroke:#ffffff;stroke-width:4;stroke-linecap:round;stroke-linejoin:round" /><rect
     width="3"
     height="3"
     x="21"
     y="-19.039"
     transform="scale(1,-1)"
     id="rect7865"
     style="fill:#ffffff" /><rect
     width="3"
     height="3"
     x="21"
     y="-32.039001"
     transform="scale(1,-1)"
     id="rect9805"
     style="fill:#ffffff" /><rect
     width="48"
     height="48"
     rx="0"
     ry="0"
     x="0"
     y="0"
     id="rect2170"
     style="opacity:0.6;fill:none" /></g></svg>