<?xml version="1.0" encoding="UTF-8" standalone="no"?>
<!-- Generator: Adobe Illustrator 9.0, SVG Export Plug-In  -->

<svg
   xmlns:dc="http://purl.org/dc/elements/1.1/"
   xmlns:cc="http://creativecommons.org/ns#"
   xmlns:rdf="http://www.w3.org/1999/02/22-rdf-syntax-ns#"
   xmlns:svg="http://www.w3.org/2000/svg"
   xmlns="http://www.w3.org/2000/svg"
   xmlns:sodipodi="http://sodipodi.sourceforge.net/DTD/sodipodi-0.dtd"
   xmlns:inkscape="http://www.inkscape.org/namespaces/inkscape"
   id="svg2730"
   xml:space="preserve"
   height="48"
   width="48"
   version="1.0"
   viewBox="0 0 48 48"
   inkscape:version="0.91 r13725"
   sodipodi:docname="edit-clear-all.svg"><defs
     id="defs17" /><sodipodi:namedview
     pagecolor="#ffffff"
     bordercolor="#666666"
     borderopacity="1"
     objecttolerance="10"
     gridtolerance="10"
     guidetolerance="10"
     inkscape:pageopacity="0"
     inkscape:pageshadow="2"
     inkscape:window-width="1920"
     inkscape:window-height="1029"
     id="namedview15"
     showgrid="false"
     inkscape:zoom="4.9166667"
     inkscape:cx="24"
     inkscape:cy="24"
     inkscape:window-x="0"
     inkscape:window-y="0"
     inkscape:window-maximized="1"
     inkscape:current-layer="svg2730" /><metadata
     id="metadata2753"><rdf:RDF><cc:Work
         rdf:about=""><dc:format>image/svg+xml</dc:format><dc:type
           rdf:resource="http://purl.org/dc/dcmitype/StillImage" /><dc:title></dc:title></cc:Work></rdf:RDF></metadata><rect
     id="rect3319"
     style="fill:none"
     height="48"
     width="48"
     y="2.3571778e-07"
     x="0" /><path
     inkscape:connector-curvature="0"
     id="path4775"
     style="fill:#ffffff;stroke:#ffffff;stroke-width:12;stroke-linejoin:round"
     d="m 38.999999,41 -30.0000003,0 0,-35.0000002 17.0000003,0 13,14.0000002 0,21 z" /><path
     inkscape:connector-curvature="0"
     id="path7"
     style="stroke:#000000;stroke-width:4;stroke-linejoin:round"
     d="m 38.999999,41 -30.0000003,0 0,-35.0000002 17.0000003,0 13,14.0000002 0,21 z" /><path
     inkscape:connector-curvature="0"
     id="path9"
     style="fill:#ffffff"
     d="m 36.990999,20 0.006,19.004 -25.997,-0.004 0.017,-30.9820002 13.952,0.0159 12.022,11.9660002 z" /><rect
     id="rect2759"
     style="fill:none"
     height="35.796612"
     width="35.796612"
     y="12.203388"
     x="-48"
     transform="scale(-1,1)" /><path
     id="path3552"
     style="fill:#ffffff;stroke:#ffffff;stroke-width:8.94915295;stroke-linecap:round;stroke-linejoin:round"
     d="m 29.272409,27.126846 11.77037,7.475526 -5.14949,7.321897 c -0.73607,1.387119 -2.86895,0.539187 -2.86895,0.539187 L 17.428206,35.142304 c 0,0 5.44406,0.924745 6.62088,-0.847932 l 5.223323,-7.167526 z"
     inkscape:connector-curvature="0" /><path
     id="path3546"
     style="stroke:#ffffff;stroke-width:5.96610165"
     d="m 24.881356,27.118643 1.491523,-2.237288 c 0.74577,-1.267797 2.46102,-1.491525 3.72882,-0.745763 l 12.67796,7.457627 c 1.2678,0.745763 1.49153,2.461017 0.74576,3.728814 l -1.49152,2.237287 c -0.37512,0.404949 -0.74577,0 -0.74577,0 L 24.881356,27.864406 c 0,0 -0.37512,-0.360949 0,-0.745763 z"
     inkscape:connector-curvature="0" /><path
     id="path3544"
     style="stroke:#ffffff;stroke-width:5.96610165"
     d="m 33.116819,27.170846 c -0.82556,1.136543 -0.36692,2.67878 0.91803,3.408882 1.2842,0.730847 3.02705,0.325152 3.85261,-0.81139 l 6.69732,-9.985017 c 0.82563,-1.136691 0.36699,-2.679078 -0.91744,-3.409702 -1.28435,-0.730623 -3.02742,-0.324705 -3.85283,0.811763 l -6.78942,9.904475 0.0917,0.08129 z"
     inkscape:connector-curvature="0" /><path
     id="path2737"
     style="fill:#ffffff;stroke:#000000;stroke-width:2.99185061;stroke-linecap:round;stroke-linejoin:round"
     d="m 29.272409,27.126846 11.77037,7.475526 -5.14949,7.321897 c -0.73607,1.387119 -2.86895,0.539187 -2.86895,0.539187 L 17.428206,35.142304 c 0,0 5.44406,0.924745 6.62088,-0.847932 l 5.223323,-7.167526 z"
     inkscape:connector-curvature="0" /><path
     id="path2739"
     d="m 33.116819,27.170846 c -0.82556,1.136543 -0.36692,2.67878 0.91803,3.408882 1.2842,0.730847 3.02705,0.325152 3.85261,-0.81139 l 6.69732,-9.985017 c 0.82563,-1.136691 0.36699,-2.679078 -0.91744,-3.409702 -1.28435,-0.730623 -3.02742,-0.324705 -3.85283,0.811763 l -6.78942,9.904475 0.0917,0.08129 z"
     inkscape:connector-curvature="0" /><path
     id="path2741"
     d="m 24.881356,27.118643 1.491523,-2.237288 c 0.74577,-1.267797 2.46102,-1.491525 3.72882,-0.745763 l 12.67796,7.457627 c 1.2678,0.745763 1.49153,2.461017 0.74576,3.728814 l -1.49152,2.237287 c -0.37512,0.404949 -0.74577,0 -0.74577,0 L 24.881356,27.864406 c 0,0 -0.37512,-0.360949 0,-0.745763 z"
     inkscape:connector-curvature="0" /><path
     id="path2745"
     style="fill:none;stroke:#000000;stroke-width:2.23728824;stroke-linecap:round;stroke-linejoin:round"
     d="m 33.084749,37.55932 c -1.64068,2.461017 -3.72882,2.983051 -3.72882,2.983051"
     inkscape:connector-curvature="0" /><path
     id="path3550"
     style="fill:none;stroke:#000000;stroke-width:2.23728824;stroke-linecap:round;stroke-linejoin:round"
     d="m 28.983049,35.694913 c -1.64068,2.461017 -3.728813,2.983051 -3.728813,2.983051"
     inkscape:connector-curvature="0" /></svg>