<?xml version="1.0" encoding="UTF-8" standalone="no"?>
<!-- Generator: Adobe Illustrator 9.0, SVG Export Plug-In  -->

<svg
   xmlns:dc="http://purl.org/dc/elements/1.1/"
   xmlns:cc="http://creativecommons.org/ns#"
   xmlns:rdf="http://www.w3.org/1999/02/22-rdf-syntax-ns#"
   xmlns:svg="http://www.w3.org/2000/svg"
   xmlns="http://www.w3.org/2000/svg"
   xmlns:sodipodi="http://sodipodi.sourceforge.net/DTD/sodipodi-0.dtd"
   xmlns:inkscape="http://www.inkscape.org/namespaces/inkscape"
   id="svg2"
   xml:space="preserve"
   height="48"
   width="48"
   version="1.0"
   viewBox="0 0 48 48"
   inkscape:version="0.48.3.1 r9886"
   sodipodi:docname="filefind.svg"><defs
   id="defs17" /><sodipodi:namedview
   pagecolor="#ffffff"
   bordercolor="#666666"
   borderopacity="1"
   objecttolerance="10"
   gridtolerance="10"
   guidetolerance="10"
   inkscape:pageopacity="0"
   inkscape:pageshadow="2"
   inkscape:window-width="736"
   inkscape:window-height="480"
   id="namedview15"
   showgrid="false"
   inkscape:zoom="4.9166667"
   inkscape:cx="24"
   inkscape:cy="24"
   inkscape:window-x="0"
   inkscape:window-y="0"
   inkscape:window-maximized="0"
   inkscape:current-layer="g5" /><metadata
   id="metadata27"><rdf:RDF><cc:Work
       rdf:about=""><dc:format>image/svg+xml</dc:format><dc:type
         rdf:resource="http://purl.org/dc/dcmitype/StillImage" /></cc:Work></rdf:RDF></metadata>
	<g
   id="Layer_x0020_3"
   style="stroke:#000;fill:#fff">
		<g
   id="g5">
			<path
   id="path7"
   style="stroke:#fff;stroke-width:6.9612;fill:none"
   d="m37.9 38.8l-7.8-7.8c-0.7-0.7-1.8-0.9-2.7-0.6 1.8-2.2 2.9-5 2.9-8 0-6.9-5.6-12.5-12.5-12.5s-12.6 5.5-12.6 12.4 5.6 12.5 12.5 12.5c3 0 5.8-1.1 8-2.9-0.3 0.9-0.1 2 0.6 2.7l7.8 7.8c1 1 2.7 1 3.7 0s1-2.7 0-3.7l0.1 0.1zm-20.1-7.3c-5.1 0-9.2-4.1-9.2-9.2s4.1-9.2 9.2-9.2 9.2 4.1 9.2 9.2-4.1 9.2-9.2 9.2z" />
			<path
   id="path9"
   style="stroke-linejoin:round;stroke:#fff;stroke-width:16;fill:none;stroke-miterlimit:4;stroke-dasharray:none;stroke-linecap:round"
   d="m38.3 17.1v20.6h-25.3v-29.2h16.9l8.3 8.5 0.1 0.1z" />
			<path
   id="path11"
   style="stroke-linejoin:round;stroke:#000;stroke-width:6.6225;fill:none"
   d="m38.3 17.1v20.6h-25.3v-29.2h16.9l8.3 8.5 0.1 0.1z" />
			<path
   id="path13"
   d="m38.3 17.1v20.6h-25.3v-29.2h16.9l8.3 8.5 0.1 0.1z" />
			<g
   id="g15">
				<path
   id="path17"
   style="fill:#000"
   d="m38 38.9l-7.8-7.8c-0.7-0.7-1.8-0.9-2.7-0.6 1.8-2.2 2.9-5 2.9-8 0-6.9-5.6-12.5-12.5-12.5s-12.5 5.6-12.5 12.5 5.6 12.5 12.5 12.5c3 0 5.8-1.1 8-2.9-0.3 0.9-0.1 2 0.6 2.7l7.8 7.8c1 1 2.7 1 3.7 0s1-2.7 0-3.7zm-20.1-7.3c-5.1 0-9.2-4.1-9.2-9.2s4.1-9.2 9.2-9.2 9.2 4.1 9.2 9.2-4.1 9.2-9.2 9.2z" />
				<path
   id="path19"
   d="m27.1 22.4c0 5.1-4.1 9.2-9.2 9.2s-9.2-4.1-9.2-9.2 4.1-9.2 9.2-9.2 9.2 4.1 9.2 9.2z" />
			</g>
		</g>
	</g>
	
</svg>