<?xml version="1.0" encoding="UTF-8" standalone="no"?>
<!-- Created with Inkscape (http://www.inkscape.org/) -->

<svg
   xmlns:dc="http://purl.org/dc/elements/1.1/"
   xmlns:cc="http://creativecommons.org/ns#"
   xmlns:rdf="http://www.w3.org/1999/02/22-rdf-syntax-ns#"
   xmlns:svg="http://www.w3.org/2000/svg"
   xmlns="http://www.w3.org/2000/svg"
   xmlns:sodipodi="http://sodipodi.sourceforge.net/DTD/sodipodi-0.dtd"
   xmlns:inkscape="http://www.inkscape.org/namespaces/inkscape"
   width="48"
   height="48"
   id="svg1306"
   sodipodi:version="0.32"
   inkscape:version="0.48.3.1 r9886"
   sodipodi:docname="format-text-direction-ltr.svg"
   inkscape:export-filename="/home/lapo/Desktop/insert-link-16.png"
   inkscape:export-xdpi="90.000031"
   inkscape:export-ydpi="90.000031"
   version="1.0"
   inkscape:output_extension="org.inkscape.output.svg.inkscape">
  <defs
     id="defs1308">
    <linearGradient
       id="linearGradient3384">
      <stop
         style="stop-color:white;stop-opacity:1"
         offset="0"
         id="stop3386" />
      <stop
         style="stop-color:#eeeeec;stop-opacity:1"
         offset="1"
         id="stop3388" />
    </linearGradient>
    <linearGradient
       id="linearGradient3269">
      <stop
         id="stop3271"
         offset="0"
         style="stop-color:#fecb81;stop-opacity:1" />
      <stop
         id="stop3273"
         offset="1"
         style="stop-color:#fcaf3e;stop-opacity:1" />
    </linearGradient>
  </defs>
  <sodipodi:namedview
     id="base"
     pagecolor="#ffffff"
     bordercolor="#666"
     borderopacity="1"
     inkscape:pageopacity="0.0"
     inkscape:pageshadow="2"
     inkscape:zoom="5.6568545"
     inkscape:cx="26.594295"
     inkscape:cy="13.149015"
     inkscape:current-layer="layer1"
     showgrid="true"
     inkscape:grid-bbox="true"
     inkscape:document-units="px"
     fill="#fcaf3e"
     stroke="#555753"
     showguides="true"
     inkscape:guide-bbox="true"
     inkscape:window-width="1366"
     inkscape:window-height="717"
     inkscape:window-x="0"
     inkscape:window-y="0"
     inkscape:showpageshadow="false"
     showborder="true"
     inkscape:grid-points="true"
     width="48px"
     height="48px"
     objecttolerance="10000"
     gridtolerance="10000"
     guidetolerance="10000"
     inkscape:window-maximized="1">
    <inkscape:grid
       id="GridFromPre046Settings"
       type="xygrid"
       originx="0px"
       originy="0px"
       spacingx="0.5px"
       spacingy="0.5px"
       color="#3f3fff"
       empcolor="#3f3fff"
       opacity="0.15"
       empopacity="0.38"
       empspacing="2" />
  </sodipodi:namedview>
  <metadata
     id="metadata1311">
    <rdf:RDF>
      <cc:Work
         rdf:about="">
        <dc:format>image/svg+xml</dc:format>
        <dc:type
           rdf:resource="http://purl.org/dc/dcmitype/StillImage" />
        <dc:title>Insert Text</dc:title>
        <dc:creator>
          <cc:Agent>
            <dc:title>Lapo Calamandrei</dc:title>
          </cc:Agent>
        </dc:creator>
        <dc:source>http://www.gnome.org</dc:source>
        <dc:contributor>
          <cc:Agent>
            <dc:title />
          </cc:Agent>
        </dc:contributor>
        <cc:license
           rdf:resource="http://creativecommons.org/licenses/GPL/2.0/" />
        <dc:subject>
          <rdf:Bag>
            <rdf:li>insert</rdf:li>
            <rdf:li>text</rdf:li>
            <rdf:li>generic</rdf:li>
          </rdf:Bag>
        </dc:subject>
      </cc:Work>
      <cc:License
         rdf:about="http://creativecommons.org/licenses/GPL/2.0/">
        <cc:permits
           rdf:resource="http://web.resource.org/cc/Reproduction" />
        <cc:permits
           rdf:resource="http://web.resource.org/cc/Distribution" />
        <cc:requires
           rdf:resource="http://web.resource.org/cc/Notice" />
        <cc:permits
           rdf:resource="http://web.resource.org/cc/DerivativeWorks" />
        <cc:requires
           rdf:resource="http://web.resource.org/cc/ShareAlike" />
        <cc:requires
           rdf:resource="http://web.resource.org/cc/SourceCode" />
      </cc:License>
    </rdf:RDF>
  </metadata>
  <g
     id="layer1"
     inkscape:label="Layer 1"
     inkscape:groupmode="layer">
    <g
       id="g2998"
       style="stroke:#ffffff;stroke-opacity:1;stroke-width:8;stroke-miterlimit:4;stroke-dasharray:none;stroke-linejoin:round;stroke-linecap:round">
      <g
         id="g3000"
         transform="matrix(0,0.84060474,1.3904688,0,-17.947128,15.680336)"
         style="fill:#000000;fill-opacity:1;stroke:#ffffff;stroke-opacity:1;stroke-width:7.39968862999999999;stroke-miterlimit:4;stroke-dasharray:none;stroke-linejoin:round;stroke-linecap:round">
        <path
           sodipodi:nodetypes="cccc"
           id="path3002"
           d="m 15.500002,35.500004 17.00001,0 -8.500005,8.999992 -8.500005,-8.999992 z"
           style="color:#000000;fill:#000000;fill-opacity:1;fill-rule:nonzero;stroke:#ffffff;stroke-width:7.39968862999999999;marker:none;visibility:visible;display:inline;overflow:visible;stroke-opacity:1;stroke-miterlimit:4;stroke-dasharray:none;stroke-linejoin:round;stroke-linecap:round"
           inkscape:connector-curvature="0" />
      </g>
      <path
         style="font-size:17.50059891000000079px;font-style:normal;font-weight:bold;fill:#000000;fill-opacity:1;stroke:#ffffff;font-family:Bitstream Vera Sans;stroke-opacity:1;stroke-width:8;stroke-miterlimit:4;stroke-dasharray:none;stroke-linejoin:round;stroke-linecap:round"
         d="m 14.526833,23.381293 -5.8460824,0 -0.9225562,2.762897 -3.7581944,0 5.3702356,-15.165453 4.4573964,0 5.370235,15.165453 -3.758194,0 -0.91284,-2.762897 m -4.9138213,-3.067931 3.9718443,0 -1.981076,-5.779429 -1.9907683,5.779429 M 26.743382,23.79776 c 0.74452,3e-6 1.310989,-0.284413 1.699445,-0.853247 0.394906,-0.568828 0.592365,-1.394988 0.592377,-2.47848 -1.2e-5,-1.083482 -0.197471,-1.909641 -0.592377,-2.478481 -0.388456,-0.568822 -0.954925,-0.853236 -1.699445,-0.853246 -0.744518,10e-6 -1.5354,0.287809 -1.93678,0.863405 -0.394929,0.568839 -0.592388,1.391612 -0.592377,2.468322 -1.1e-5,1.076722 0.197448,1.902881 0.592377,2.47848 0.40138,0.568834 1.192262,0.85325 1.93678,0.853247 m -2.529157,-7.364336 c 0.479067,-0.663626 1.227874,-1.151196 1.810546,-1.46271 0.582649,-0.318262 1.252712,-0.477399 2.010191,-0.477412 1.340125,1.3e-5 2.440708,0.558685 3.30178,1.676023 0.861036,1.110583 1.291555,2.542819 1.291567,4.296708 -1.2e-5,1.7539 -0.430531,3.189522 -1.291567,4.306866 -0.861072,1.110576 -1.961655,1.665864 -3.30178,1.665864 -0.757479,0 -1.427542,-0.155752 -2.010191,-0.467254 -0.582672,-0.318275 -1.331479,-0.80923 -1.810546,-1.472869 l 0,1.64555 -3.476575,0 0,-15.006324 3.476575,0 0,5.295558 M 44,15.123081 l 0,2.966048 c -0.472617,-0.338581 -0.948452,-0.589138 -1.427529,-0.75167 -0.472617,-0.162514 -0.964643,-0.243775 -1.476079,-0.243785 -0.971116,10e-6 -1.728582,0.297969 -2.2724,0.893878 -0.537355,0.589156 -0.806026,1.415315 -0.806026,2.478481 0,1.063177 0.268671,1.892722 0.806026,2.488637 0.543818,0.589149 1.301284,0.883722 2.2724,0.88372 0.543805,2e-6 1.058496,-0.08465 1.544059,-0.253942 C 43.132466,23.415155 43.58566,23.164599 44,22.832778 l 0,2.976207 c -0.543829,0.209925 -1.097362,0.365677 -1.660589,0.467254 -0.556777,0.108349 -1.116785,0.162524 -1.680023,0.162524 -1.961642,0 -3.495996,-0.524814 -4.603064,-1.574444 -1.107056,-1.056399 -1.66059,-2.522492 -1.66059,-4.398286 0,-1.875782 0.553534,-3.33849 1.66059,-4.388128 1.107068,-1.05639 2.641422,-1.58459 4.603064,-1.584603 0.569712,1.3e-5 1.12972,0.05419 1.680023,0.162524 0.556753,0.101587 1.110286,0.25734 1.660589,0.467255"
         id="path3004"
         sodipodi:nodetypes="ccccccccccccccsssssssccsssssssccccccccsssssssccsssssssc"
         inkscape:connector-curvature="0" />
      <rect
         style="color:#000000;fill:#000000;fill-opacity:1;fill-rule:nonzero;stroke:#ffffff;stroke-width:8;marker:none;visibility:visible;display:inline;overflow:visible;enable-background:accumulate;stroke-opacity:1;stroke-miterlimit:4;stroke-dasharray:none;stroke-linejoin:round;stroke-linecap:round"
         id="rect3006"
         width="26.049112"
         height="5.884233"
         x="-31.739956"
         y="32.492432"
         transform="scale(-1,1)" />
    </g>
    <g
       id="g2992">
      <g
         style="fill:#000000;fill-opacity:1;stroke:none"
         transform="matrix(0,0.84060474,1.3904688,0,-17.947128,15.680336)"
         id="g3362">
        <path
           inkscape:connector-curvature="0"
           style="color:#000000;fill:#000000;fill-opacity:1;fill-rule:nonzero;stroke:none;stroke-width:0.77752703;marker:none;visibility:visible;display:inline;overflow:visible"
           d="m 15.500002,35.500004 17.00001,0 -8.500005,8.999992 -8.500005,-8.999992 z"
           id="path3364"
           sodipodi:nodetypes="cccc" />
      </g>
      <path
         inkscape:connector-curvature="0"
         sodipodi:nodetypes="ccccccccccccccsssssssccsssssssccccccccsssssssccsssssssc"
         id="text3378"
         d="m 14.526833,23.381293 -5.8460824,0 -0.9225562,2.762897 -3.7581944,0 5.3702356,-15.165453 4.4573964,0 5.370235,15.165453 -3.758194,0 -0.91284,-2.762897 m -4.9138213,-3.067931 3.9718443,0 -1.981076,-5.779429 -1.9907683,5.779429 M 26.743382,23.79776 c 0.74452,3e-6 1.310989,-0.284413 1.699445,-0.853247 0.394906,-0.568828 0.592365,-1.394988 0.592377,-2.47848 -1.2e-5,-1.083482 -0.197471,-1.909641 -0.592377,-2.478481 -0.388456,-0.568822 -0.954925,-0.853236 -1.699445,-0.853246 -0.744518,10e-6 -1.5354,0.287809 -1.93678,0.863405 -0.394929,0.568839 -0.592388,1.391612 -0.592377,2.468322 -1.1e-5,1.076722 0.197448,1.902881 0.592377,2.47848 0.40138,0.568834 1.192262,0.85325 1.93678,0.853247 m -2.529157,-7.364336 c 0.479067,-0.663626 1.227874,-1.151196 1.810546,-1.46271 0.582649,-0.318262 1.252712,-0.477399 2.010191,-0.477412 1.340125,1.3e-5 2.440708,0.558685 3.30178,1.676023 0.861036,1.110583 1.291555,2.542819 1.291567,4.296708 -1.2e-5,1.7539 -0.430531,3.189522 -1.291567,4.306866 -0.861072,1.110576 -1.961655,1.665864 -3.30178,1.665864 -0.757479,0 -1.427542,-0.155752 -2.010191,-0.467254 -0.582672,-0.318275 -1.331479,-0.80923 -1.810546,-1.472869 l 0,1.64555 -3.476575,0 0,-15.006324 3.476575,0 0,5.295558 M 44,15.123081 l 0,2.966048 c -0.472617,-0.338581 -0.948452,-0.589138 -1.427529,-0.75167 -0.472617,-0.162514 -0.964643,-0.243775 -1.476079,-0.243785 -0.971116,10e-6 -1.728582,0.297969 -2.2724,0.893878 -0.537355,0.589156 -0.806026,1.415315 -0.806026,2.478481 0,1.063177 0.268671,1.892722 0.806026,2.488637 0.543818,0.589149 1.301284,0.883722 2.2724,0.88372 0.543805,2e-6 1.058496,-0.08465 1.544059,-0.253942 C 43.132466,23.415155 43.58566,23.164599 44,22.832778 l 0,2.976207 c -0.543829,0.209925 -1.097362,0.365677 -1.660589,0.467254 -0.556777,0.108349 -1.116785,0.162524 -1.680023,0.162524 -1.961642,0 -3.495996,-0.524814 -4.603064,-1.574444 -1.107056,-1.056399 -1.66059,-2.522492 -1.66059,-4.398286 0,-1.875782 0.553534,-3.33849 1.66059,-4.388128 1.107068,-1.05639 2.641422,-1.58459 4.603064,-1.584603 0.569712,1.3e-5 1.12972,0.05419 1.680023,0.162524 0.556753,0.101587 1.110286,0.25734 1.660589,0.467255"
         style="font-size:17.50059891px;font-style:normal;font-weight:bold;fill:#000000;fill-opacity:1;stroke:none;font-family:Bitstream Vera Sans" />
      <rect
         transform="scale(-1,1)"
         y="32.492432"
         x="-31.739956"
         height="5.884233"
         width="26.049112"
         id="rect2166"
         style="color:#000000;fill:#000000;fill-opacity:1;fill-rule:nonzero;stroke:none;stroke-width:4;marker:none;visibility:visible;display:inline;overflow:visible;enable-background:accumulate" />
    </g>
  </g>
</svg>
