<?xml version="1.0" encoding="UTF-8" standalone="no"?>
<!-- Created with Inkscape (http://www.inkscape.org/) -->

<svg
   xmlns:dc="http://purl.org/dc/elements/1.1/"
   xmlns:cc="http://creativecommons.org/ns#"
   xmlns:rdf="http://www.w3.org/1999/02/22-rdf-syntax-ns#"
   xmlns:svg="http://www.w3.org/2000/svg"
   xmlns="http://www.w3.org/2000/svg"
   version="1.1"
   width="48"
   height="48"
   viewBox="0 0 48 48"
   id="svg2"
   xml:space="preserve"><defs
   id="defs12" /><metadata
   id="metadata19"><rdf:RDF><cc:Work
       rdf:about=""><dc:format>image/svg+xml</dc:format><dc:type
         rdf:resource="http://purl.org/dc/dcmitype/StillImage" /><dc:title></dc:title><dc:creator><cc:Agent><dc:title>Luca Ferretti &lt;elle.uca@libero.it&gt;</dc:title></cc:Agent></dc:creator><cc:license
         rdf:resource="http://creativecommons.org/licenses/LGPL/2.1/" /><dc:subject><rdf:Bag><rdf:li>document new</rdf:li><rdf:li>document add</rdf:li></rdf:Bag></dc:subject><dc:description>A paper sheet with a + sign</dc:description></cc:Work><cc:License
       rdf:about="http://creativecommons.org/licenses/LGPL/2.1/"><cc:permits
         rdf:resource="http://web.resource.org/cc/Reproduction" /><cc:permits
         rdf:resource="http://web.resource.org/cc/Distribution" /><cc:requires
         rdf:resource="http://web.resource.org/cc/Notice" /><cc:permits
         rdf:resource="http://web.resource.org/cc/DerivativeWorks" /><cc:requires
         rdf:resource="http://web.resource.org/cc/ShareAlike" /><cc:requires
         rdf:resource="http://web.resource.org/cc/SourceCode" /></cc:License></rdf:RDF></metadata>
	<rect
   width="48"
   height="48"
   x="0"
   y="0"
   id="rect3319"
   style="fill:none" /><path
   d="M 39,41 H 9 V 6 h 17 l 13,14 v 21 z"
   id="path4775"
   style="fill:#ffffff;stroke:#ffffff;stroke-width:12;stroke-linejoin:round" /><path
   d="M 39,41 H 9 V 6 h 17 l 13,14 v 21 z"
   id="path7"
   style="stroke:#000000;stroke-width:4;stroke-linejoin:round" /><path
   d="M 36.991,20 36.997,39.004 11,39 11.017,8.018 24.969,8.0339 36.991,19.9999 z"
   id="path9"
   style="fill:#ffffff" />
<rect
   width="24.610168"
   height="24.610168"
   x="11.79661"
   y="14.440679"
   id="rect2169"
   style="opacity:0.6;fill:none" /><path
   d="m 32.305085,28.283898 c 0.666526,-0.615254 0.717797,-1.28178 1.025424,-2.050847 l -1.025424,-3.076272 -3.076271,3.076272 -3.588983,-1.025424 -1.025424,-3.588983 3.076272,-3.076271 -3.076272,-1.025424 c -0.769067,0.307628 -1.435593,0.922881 -2.050847,1.538136 -1.948305,1.948305 -2.512288,4.76822 -1.538136,7.177966 l -5.63983,5.63983 c -0.974153,0.974153 -0.974153,2.614831 0,3.588983 0.974152,0.974153 2.61483,0.974153 3.588983,0 l 5.63983,-5.63983 c 2.409746,1.025423 5.742373,0.410169 7.690678,-1.538136 z"
   id="path3149"
   style="fill:#ffffff;stroke:#ffffff;stroke-width:4.10169506;stroke-linecap:round;stroke-linejoin:round" /><path
   d="m 32.305085,28.283898 c 0.666526,-0.615254 0.717797,-1.28178 1.025424,-2.050847 l -1.025424,-3.076272 -3.076271,3.076272 -3.588983,-1.025424 -1.025424,-3.588983 3.076272,-3.076271 -3.076272,-1.025424 c -0.769067,0.307628 -1.435593,0.922881 -2.050847,1.538136 -1.948305,1.948305 -2.512288,4.76822 -1.538136,7.177966 l -5.63983,5.63983 c -0.974153,0.974153 -0.974153,2.614831 0,3.588983 0.974152,0.974153 2.61483,0.974153 3.588983,0 l 5.63983,-5.63983 c 2.409746,1.025423 5.742373,0.410169 7.690678,-1.538136 z"
   id="path9-4" /><path
   d="m 17.949154,33.923729 a 1.025424,1.025424 0 0 1 -2.050848,0 1.025424,1.025424 0 1 1 2.050848,0 z"
   id="path2176"
   style="fill:#ffffff" /></svg>