<?xml version="1.0" encoding="UTF-8" standalone="no"?>
<!-- Created with Inkscape (http://www.inkscape.org/) -->

<svg
   xmlns:dc="http://purl.org/dc/elements/1.1/"
   xmlns:cc="http://creativecommons.org/ns#"
   xmlns:rdf="http://www.w3.org/1999/02/22-rdf-syntax-ns#"
   xmlns:svg="http://www.w3.org/2000/svg"
   xmlns="http://www.w3.org/2000/svg"
   xmlns:sodipodi="http://sodipodi.sourceforge.net/DTD/sodipodi-0.dtd"
   xmlns:inkscape="http://www.inkscape.org/namespaces/inkscape"
   version="1.0"
   width="48"
   height="48"
   viewBox="0 0 48 48"
   id="svg2"
   xml:space="preserve"
   inkscape:version="0.48.3.1 r9886"
   sodipodi:docname="gtk-edit.svg"><sodipodi:namedview
   pagecolor="#ffffff"
   bordercolor="#666666"
   borderopacity="1"
   objecttolerance="10"
   gridtolerance="10"
   guidetolerance="10"
   inkscape:pageopacity="0"
   inkscape:pageshadow="2"
   inkscape:window-width="736"
   inkscape:window-height="480"
   id="namedview12"
   showgrid="false"
   inkscape:zoom="4.9166667"
   inkscape:cx="24"
   inkscape:cy="24"
   inkscape:window-x="0"
   inkscape:window-y="0"
   inkscape:window-maximized="0"
   inkscape:current-layer="Layer_x0020_4" /><defs
   id="defs22">
			
			
			
			
			
			
			
			
			
			
			
			
		</defs><metadata
   id="metadata37"><rdf:RDF><cc:Work
       rdf:about=""><dc:format>image/svg+xml</dc:format><dc:type
         rdf:resource="http://purl.org/dc/dcmitype/StillImage" /><dc:title /></cc:Work></rdf:RDF></metadata>
	<g
   id="Layer_x0020_4"
   style="stroke:#000000">
		<path
   d="m 39.9,33.6 -17,-17 -9.6,-3.8 3.4,10.8 16.5,16.6 6.7,-6.7 v 0.1 z"
   id="path19"
   style="fill:none;stroke:#ffffff;stroke-width:14;stroke-linejoin:round;stroke-miterlimit:4;stroke-dasharray:none" /><path
   d="m 39.9,33.6 -17,-17 -9.6,-3.8 3.4,10.8 16.5,16.6 6.7,-6.7 v 0.1 z"
   id="path21"
   style="fill:none;stroke:#000000;stroke-width:6.16879988;stroke-linejoin:round" /><path
   d="m 39.9,33.6 -17,-17 -9.6,-3.8 3.4,10.8 16.5,16.6 6.7,-6.7 v 0.1 z"
   id="path23" /><path
   d="m 17.4,14.1 -3.1,3.1 -1.4,-4.7 4.5,1.7 v -0.1 z"
   id="path25" /><path
   d="m 16.2,23.4 3.8,-0.3 3,-3 0.4,-3.5"
   id="path27"
   style="fill:none;stroke:#000000;stroke-width:1.54219997" /><path
   d="m 17.2,14.3 -2.6,2.6 2,6.5 3.3,-0.3 3,-3 0.4,-3 -6.2,-2.7 0.1,-0.1 z"
   id="path29"
   style="fill:#ffffff" />
	</g>
	
</svg>