<?xml version="1.0" encoding="UTF-8" standalone="no"?>
<!-- Created with Inkscape (http://www.inkscape.org/) -->

<svg
   xmlns:dc="http://purl.org/dc/elements/1.1/"
   xmlns:cc="http://creativecommons.org/ns#"
   xmlns:rdf="http://www.w3.org/1999/02/22-rdf-syntax-ns#"
   xmlns:svg="http://www.w3.org/2000/svg"
   xmlns="http://www.w3.org/2000/svg"
   version="1.0"
   width="48"
   height="48"
   id="svg249">
  <defs
     id="defs3">
    <linearGradient
       id="linearGradient3702">
      <stop
         id="stop3704"
         style="stop-color:#000000;stop-opacity:0"
         offset="0" />
      <stop
         id="stop3710"
         style="stop-color:#000000;stop-opacity:1"
         offset="0.5" />
      <stop
         id="stop3706"
         style="stop-color:#000000;stop-opacity:0"
         offset="1" />
    </linearGradient>
    <linearGradient
       id="linearGradient5345">
      <stop
         id="stop5347"
         style="stop-color:#efe8ef;stop-opacity:1"
         offset="0" />
      <stop
         id="stop1936"
         style="stop-color:#dabce7;stop-opacity:1"
         offset="0.42469135" />
      <stop
         id="stop7129"
         style="stop-color:#dabce7;stop-opacity:1"
         offset="0.9041152" />
      <stop
         id="stop5349"
         style="stop-color:#efe8ef;stop-opacity:1"
         offset="1" />
    </linearGradient>
    <linearGradient
       id="linearGradient2378">
      <stop
         id="stop2380"
         style="stop-color:#ffffff;stop-opacity:1"
         offset="0" />
      <stop
         id="stop4146"
         style="stop-color:#fefede;stop-opacity:0.91836733"
         offset="0.25" />
      <stop
         id="stop2386"
         style="stop-color:#f5f328;stop-opacity:1"
         offset="0.5" />
      <stop
         id="stop2382"
         style="stop-color:#f5f32d;stop-opacity:0.12234043"
         offset="1" />
    </linearGradient>
    <linearGradient
       id="linearGradient15662">
      <stop
         id="stop15664"
         style="stop-color:#ffffff;stop-opacity:1"
         offset="0" />
      <stop
         id="stop15666"
         style="stop-color:#f8f8f8;stop-opacity:1"
         offset="1" />
    </linearGradient>
    <linearGradient
       id="linearGradient269">
      <stop
         id="stop270"
         style="stop-color:#a3a3a3;stop-opacity:1"
         offset="0" />
      <stop
         id="stop271"
         style="stop-color:#8a8a8a;stop-opacity:1"
         offset="1" />
    </linearGradient>
    <linearGradient
       id="linearGradient259">
      <stop
         id="stop260"
         style="stop-color:#fafafa;stop-opacity:1"
         offset="0" />
      <stop
         id="stop261"
         style="stop-color:#bbbbbb;stop-opacity:1"
         offset="1" />
    </linearGradient>
    <linearGradient
       id="linearGradient4622">
      <stop
         id="stop4624"
         style="stop-color:#dabce7;stop-opacity:1"
         offset="0" />
      <stop
         id="stop4626"
         style="stop-color:#efe8ef;stop-opacity:1"
         offset="1" />
    </linearGradient>
    <linearGradient
       id="linearGradient2796">
      <stop
         id="stop2798"
         style="stop-color:#d6d6d1;stop-opacity:1"
         offset="0" />
      <stop
         id="stop2800"
         style="stop-color:#a2a298;stop-opacity:1"
         offset="1" />
    </linearGradient>
    <linearGradient
       id="linearGradient2808">
      <stop
         id="stop2810"
         style="stop-color:#ffffff;stop-opacity:1"
         offset="0" />
      <stop
         id="stop2812"
         style="stop-color:#ffffff;stop-opacity:0.2937853"
         offset="1" />
    </linearGradient>
  </defs>
  <metadata
     id="metadata4">
    <rdf:RDF>
      <cc:Work
         rdf:about="">
        <dc:format>image/svg+xml</dc:format>
        <dc:type
           rdf:resource="http://purl.org/dc/dcmitype/StillImage" />
        <dc:title></dc:title>
        <dc:subject>
          <rdf:Bag>
            <rdf:li>text</rdf:li>
            <rdf:li>plaintext</rdf:li>
            <rdf:li>regular</rdf:li>
            <rdf:li>document</rdf:li>
          </rdf:Bag>
        </dc:subject>
        <cc:license
           rdf:resource="http://creativecommons.org/licenses/GPL/2.0/" />
        <dc:creator>
          <cc:Agent>
            <dc:title>Andreas Nilsson</dc:title>
          </cc:Agent>
        </dc:creator>
        <dc:source>http://www.gnome.org</dc:source>
        <dc:contributor>
          <cc:Agent>
            <dc:title>Luca Ferretti
Jakub Steiner
Lapo Calamandrei</dc:title>
          </cc:Agent>
        </dc:contributor>
        <dc:date>December 2006</dc:date>
      </cc:Work>
      <cc:License
         rdf:about="http://creativecommons.org/licenses/GPL/2.0/">
        <cc:permits
           rdf:resource="http://web.resource.org/cc/Reproduction" />
        <cc:permits
           rdf:resource="http://web.resource.org/cc/Distribution" />
        <cc:requires
           rdf:resource="http://web.resource.org/cc/Notice" />
        <cc:permits
           rdf:resource="http://web.resource.org/cc/DerivativeWorks" />
        <cc:requires
           rdf:resource="http://web.resource.org/cc/ShareAlike" />
        <cc:requires
           rdf:resource="http://web.resource.org/cc/SourceCode" />
      </cc:License>
    </rdf:RDF>
  </metadata>
  <g
     transform="translate(-0.01694761,-0.01689977)"
     id="layer5"
     style="display:inline">
    <g
       transform="matrix(1.15,0,0,1.15,-5,-3.6)"
       id="layer1" />
    <g
       transform="matrix(1.0332826,0,0,1.0394085,-2.571065,-1.0591103)"
       id="g3020"
       style="stroke:#ffffff;stroke-width:7.98565578;stroke-miterlimit:4;stroke-opacity:1;stroke-dasharray:none">
      <g
         transform="matrix(1.006671,0,0,1,0.966642,0.716205)"
         id="g3022"
         style="stroke:#ffffff;stroke-width:7.95915222;stroke-miterlimit:4;stroke-opacity:1;stroke-dasharray:none" />
      <g
         transform="matrix(1.005587,0,0,1.004813,-0.22864,1.985055)"
         id="g3024"
         style="stroke:#ffffff;stroke-width:7.94434547;stroke-miterlimit:4;stroke-opacity:1;stroke-dasharray:none">
        <path
           d="M 8.1359163,8.5385328 C 6.1926724,10.556239 6.212511,13.730389 8.2022073,15.720086 l 2.6516507,2.651651 c 1.808973,1.808973 4.41263,2.181887 6.419529,0.739927 l 19.025379,19.049275 c 0.886329,0.886329 2.295655,0.886329 3.181981,0 l 1.767766,-1.767766 c 0.886329,-0.886329 0.88633,-2.295652 0,-3.181981 L 22.200387,14.184664 c 1.44196,-2.006898 1.069046,-4.6105562 -0.739927,-6.4195292 l -2.651651,-2.651651 c -1.989696,-1.989696 -5.163846,-2.009536 -7.181553,-0.066291 l 5.325398,5.2812042 0,2.12132 -1.414214,1.414214 -2.12132,0 C 11.666497,12.081602 9.8444463,10.356837 8.1359163,8.5385328 z"
           id="path3026"
           style="fill:#000000;fill-opacity:1;stroke:#ffffff;stroke-width:7.94434547;stroke-linecap:round;stroke-linejoin:round;stroke-miterlimit:4;stroke-opacity:1;stroke-dasharray:none" />
      </g>
      <path
         d="m 40.0625,5 -3.9375,4.53125 -0.625,2.3125 -15.4375,15.5 C 18.241523,26.081497 16.091515,25.947796 14.875,27.15625 L 7.34375,34.625 c -1.4293003,1.419829 -1.0187095,4.150503 0.9375,6.09375 l 0.75,0.71875 c 1.95621,1.943246 4.6957,2.357329 6.125,0.9375 l 7.5,-7.46875 c 1.167694,-1.159956 1.099946,-3.177539 -0.03125,-4.9375 L 38.09375,14.4375 40.0625,14.21875 44.9375,9.90625 C 44.937499,9.9062496 40.0625,5 40.0625,5 z"
         id="path3028"
         style="fill:#000000;fill-opacity:1;stroke:#ffffff;stroke-width:7.98565578;stroke-linecap:round;stroke-linejoin:round;stroke-miterlimit:4;stroke-opacity:1;stroke-dasharray:none" />
    </g>
    <g
       transform="matrix(1.0332826,0,0,1.0394085,-2.571065,-1.0591103)"
       id="g2208">
      <g
         transform="matrix(1.006671,0,0,1,0.966642,0.716205)"
         id="g5318" />
      <g
         transform="matrix(1.005587,0,0,1.004813,-0.22864,1.985055)"
         id="g5312">
        <path
           d="M 8.1359163,8.5385328 C 6.1926724,10.556239 6.212511,13.730389 8.2022073,15.720086 l 2.6516507,2.651651 c 1.808973,1.808973 4.41263,2.181887 6.419529,0.739927 l 19.025379,19.049275 c 0.886329,0.886329 2.295655,0.886329 3.181981,0 l 1.767766,-1.767766 c 0.886329,-0.886329 0.88633,-2.295652 0,-3.181981 L 22.200387,14.184664 c 1.44196,-2.006898 1.069046,-4.6105562 -0.739927,-6.4195292 l -2.651651,-2.651651 c -1.989696,-1.989696 -5.163846,-2.009536 -7.181553,-0.066291 l 5.325398,5.2812042 0,2.12132 -1.414214,1.414214 -2.12132,0 C 11.666497,12.081602 9.8444463,10.356837 8.1359163,8.5385328 z"
           id="path5302"
           style="fill:#000000;fill-opacity:1;stroke:none" />
      </g>
      <path
         d="m 40.0625,5 -3.9375,4.53125 -0.625,2.3125 -15.4375,15.5 C 18.241523,26.081497 16.091515,25.947796 14.875,27.15625 L 7.34375,34.625 c -1.4293003,1.419829 -1.0187095,4.150503 0.9375,6.09375 l 0.75,0.71875 c 1.95621,1.943246 4.6957,2.357329 6.125,0.9375 l 7.5,-7.46875 c 1.167694,-1.159956 1.099946,-3.177539 -0.03125,-4.9375 L 38.09375,14.4375 40.0625,14.21875 44.9375,9.90625 C 44.937499,9.9062496 40.0625,5 40.0625,5 z"
         id="rect5288"
         style="fill:#000000;fill-opacity:1;stroke:none" />
    </g>
  </g>
</svg>
