<?xml version="1.0" encoding="UTF-8" standalone="no"?>
<!-- Created with Inkscape (http://www.inkscape.org/) -->

<svg
   xmlns:dc="http://purl.org/dc/elements/1.1/"
   xmlns:cc="http://creativecommons.org/ns#"
   xmlns:rdf="http://www.w3.org/1999/02/22-rdf-syntax-ns#"
   xmlns:svg="http://www.w3.org/2000/svg"
   xmlns="http://www.w3.org/2000/svg"
   version="1.0"
   width="48"
   height="48"
   viewBox="0 0 48 48"
   id="svg2"
   xml:space="preserve"><defs
   id="defs16" /><metadata
   id="metadata31"><rdf:RDF><cc:Work
       rdf:about=""><dc:format>image/svg+xml</dc:format><dc:type
         rdf:resource="http://purl.org/dc/dcmitype/StillImage" /><dc:title></dc:title></cc:Work></rdf:RDF></metadata>
	<rect
   width="48"
   height="48"
   rx="0"
   ry="0"
   x="0"
   y="0"
   id="rect3981"
   style="fill:none" /><g
   id="g3100"
   style="fill:#ffffff;stroke:#ffffff;stroke-width:8;stroke-miterlimit:4;stroke-dasharray:none"><path
     d="m 41,42 c 0,0.4 -0.6,1 -1,1 H 8 C 7.6,43 7,42.4 7,42 v -2 c 0,-0.4 0.5,-0.7 0.9,-0.7 h 31.9 c 0.4,0 1.2,0.3 1.2,0.7 v 2 z"
     id="path3102"
     style="fill:#ffffff;stroke:#ffffff;stroke-width:8;stroke-linejoin:round;stroke-miterlimit:4;stroke-dasharray:none" /><path
     d="m 44,39 c 0,0.4 -0.6,1 -1,1 H 5 C 4.6,40 4,39.4 4,39 V 25 c 0,-0.4 0.6,-1 1,-1 h 38 c 0.4,0 1,0.6 1,1 v 14 z"
     id="path3104"
     style="fill:#ffffff;stroke:#ffffff;stroke-width:8;stroke-linejoin:round;stroke-miterlimit:4;stroke-dasharray:none" /><path
     d="M 12,4 C 9,4 8,6 8,8 V 26 H 40 V 8 C 40,6 39,4 36,4 H 12 z"
     id="path3106"
     style="fill:#ffffff;stroke:#ffffff;stroke-width:8;stroke-linejoin:round;stroke-miterlimit:4;stroke-dasharray:none" /></g><g
   id="g3095"><path
     d="m 41,42 c 0,0.4 -0.6,1 -1,1 H 8 C 7.6,43 7,42.4 7,42 v -2 c 0,-0.4 0.5,-0.7 0.9,-0.7 h 31.9 c 0.4,0 1.2,0.3 1.2,0.7 v 2 z"
     id="path13" /><path
     d="m 44,39 c 0,0.4 -0.6,1 -1,1 H 5 C 4.6,40 4,39.4 4,39 V 25 c 0,-0.4 0.6,-1 1,-1 h 38 c 0.4,0 1,0.6 1,1 v 14 z"
     id="path15" /><path
     d="M 12,4 C 9,4 8,6 8,8 V 26 H 40 V 8 C 40,6 39,4 36,4 H 12 z"
     id="path17" /></g><path
   d="M 36,24 H 12 V 9 c 0,0 0,-1 1,-1 h 22 c 1,0 1,1 1,1 v 15 z"
   id="path19"
   style="fill:#ffffff" />
<path
   d="M 11,37 H 37"
   id="path1315"
   style="fill:#ffffff;fill-rule:evenodd;stroke:#ffffff;stroke-width:4" /><g
   transform="matrix(1.15,0,0,1.15,-18.220339,39.925422)"
   id="layer1"
   style="display:inline" /><g
   transform="translate(1.724941,3.0699249)"
   id="g3874"
   style="stroke:#ffffff;stroke-width:10;stroke-miterlimit:4;stroke-opacity:1;stroke-dasharray:none"><path
     d="m 31.392859,27.275129 c -4e-6,0.752479 -0.0302,1.453857 -0.09058,2.104137 -0.06039,0.65029 -0.140908,1.309863 -0.24155,1.978725 l -1.721043,0 c -0.100646,-0.668862 -0.186197,-1.328435 -0.256648,-1.978725 -0.06039,-0.65028 -0.09058,-1.351658 -0.09058,-2.104137 l 0,-2.494309 2.400402,0 0,2.494309 m 0.196259,6.061587 c -4e-6,0.408752 -0.14594,0.724604 -0.437809,0.947558 -0.281812,0.222955 -0.603878,0.334433 -0.9662,0.334433 -0.362327,0 -0.689425,-0.111478 -0.981297,-0.334433 -0.281808,-0.222954 -0.422713,-0.538806 -0.422712,-0.947558 -1e-6,-0.408749 0.140904,-0.724602 0.422712,-0.947558 0.291872,-0.222953 0.61897,-0.33443 0.981297,-0.334433 0.362322,3e-6 0.684388,0.11148 0.9662,0.334433 0.291869,0.222956 0.437805,0.538809 0.437809,0.947558"
     id="path3876"
     style="font-size:22px;font-style:normal;font-variant:normal;font-weight:bold;font-stretch:normal;line-height:125%;letter-spacing:0px;word-spacing:0px;fill:#000000;fill-opacity:1;fill-rule:nonzero;stroke:#ffffff;stroke-width:10;stroke-miterlimit:4;stroke-opacity:1;stroke-dasharray:none;font-family:Ubuntu;-inkscape-font-specification:Ubuntu Bold" /><path
     d="m 33.316954,26.771498 a 8.6240788,8.2555285 0 1 1 -17.248158,0 8.6240788,8.2555285 0 1 1 17.248158,0 z"
     transform="matrix(1.2681713,0,0,1.2807187,-1.1029272,-4.9296922)"
     id="path3878"
     style="fill:#ffffff;fill-opacity:1;fill-rule:nonzero;stroke:#ffffff;stroke-width:7.84664774;stroke-miterlimit:4;stroke-opacity:1;stroke-dasharray:none" /><path
     d="m 31.212942,34.532661 -2.168377,0 0,-7.065525 2.168377,0 0,7.065525 m 0.20374,-9.107274 c -3e-6,0.367166 -0.130978,0.658204 -0.392927,0.873117 -0.252252,0.205973 -0.553012,0.308956 -0.902278,0.308949 -0.349269,7e-6 -0.65488,-0.102976 -0.91683,-0.308949 -0.25225,-0.214913 -0.378374,-0.505951 -0.378374,-0.873117 0,-0.367147 0.126124,-0.653708 0.378374,-0.859683 0.26195,-0.21491 0.567561,-0.322372 0.91683,-0.322381 0.349266,9e-6 0.650026,0.107471 0.902278,0.322381 0.261949,0.205975 0.392924,0.492536 0.392927,0.859683"
     id="path3880"
     style="font-size:17.90568733px;font-style:normal;font-variant:normal;font-weight:bold;font-stretch:normal;line-height:125%;letter-spacing:0px;word-spacing:0px;fill:#000000;fill-opacity:1;fill-rule:nonzero;stroke:#ffffff;stroke-width:10;stroke-miterlimit:4;stroke-opacity:1;stroke-dasharray:none;font-family:Ubuntu;-inkscape-font-specification:Ubuntu Bold" /></g><g
   transform="translate(1.724941,3.0699249)"
   id="g3869"><path
     d="m 31.392859,27.275129 c -4e-6,0.752479 -0.0302,1.453857 -0.09058,2.104137 -0.06039,0.65029 -0.140908,1.309863 -0.24155,1.978725 l -1.721043,0 c -0.100646,-0.668862 -0.186197,-1.328435 -0.256648,-1.978725 -0.06039,-0.65028 -0.09058,-1.351658 -0.09058,-2.104137 l 0,-2.494309 2.400402,0 0,2.494309 m 0.196259,6.061587 c -4e-6,0.408752 -0.14594,0.724604 -0.437809,0.947558 -0.281812,0.222955 -0.603878,0.334433 -0.9662,0.334433 -0.362327,0 -0.689425,-0.111478 -0.981297,-0.334433 -0.281808,-0.222954 -0.422713,-0.538806 -0.422712,-0.947558 -1e-6,-0.408749 0.140904,-0.724602 0.422712,-0.947558 0.291872,-0.222953 0.61897,-0.33443 0.981297,-0.334433 0.362322,3e-6 0.684388,0.11148 0.9662,0.334433 0.291869,0.222956 0.437805,0.538809 0.437809,0.947558"
     id="path3765"
     style="font-size:22px;font-style:normal;font-variant:normal;font-weight:bold;font-stretch:normal;line-height:125%;letter-spacing:0px;word-spacing:0px;fill:#000000;fill-opacity:1;fill-rule:nonzero;stroke:#ffffff;stroke-width:7.62627077;stroke-miterlimit:4;stroke-opacity:1;stroke-dasharray:none;font-family:Ubuntu;-inkscape-font-specification:Ubuntu Bold" /><path
     d="m 33.316954,26.771498 a 8.6240788,8.2555285 0 1 1 -17.248158,0 8.6240788,8.2555285 0 1 1 17.248158,0 z"
     transform="matrix(1.2681713,0,0,1.2807187,-1.1029272,-4.9296922)"
     id="path2988-8"
     style="fill:#ffffff;fill-opacity:1;fill-rule:nonzero;stroke:#000000;stroke-width:2.5652945;stroke-miterlimit:4;stroke-opacity:1;stroke-dasharray:none" /><path
     d="m 31.212942,34.532661 -2.168377,0 0,-7.065525 2.168377,0 0,7.065525 m 0.20374,-9.107274 c -3e-6,0.367166 -0.130978,0.658204 -0.392927,0.873117 -0.252252,0.205973 -0.553012,0.308956 -0.902278,0.308949 -0.349269,7e-6 -0.65488,-0.102976 -0.91683,-0.308949 -0.25225,-0.214913 -0.378374,-0.505951 -0.378374,-0.873117 0,-0.367147 0.126124,-0.653708 0.378374,-0.859683 0.26195,-0.21491 0.567561,-0.322372 0.91683,-0.322381 0.349266,9e-6 0.650026,0.107471 0.902278,0.322381 0.261949,0.205975 0.392924,0.492536 0.392927,0.859683"
     id="path3830"
     style="font-size:17.90568733px;font-style:normal;font-variant:normal;font-weight:bold;font-stretch:normal;line-height:125%;letter-spacing:0px;word-spacing:0px;fill:#000000;fill-opacity:1;fill-rule:nonzero;stroke:none;font-family:Ubuntu;-inkscape-font-specification:Ubuntu Bold" /></g></svg>