<?xml version="1.0" encoding="UTF-8" standalone="no"?>
<!-- Created with Inkscape (http://www.inkscape.org/) -->

<svg
   xmlns:dc="http://purl.org/dc/elements/1.1/"
   xmlns:cc="http://creativecommons.org/ns#"
   xmlns:rdf="http://www.w3.org/1999/02/22-rdf-syntax-ns#"
   xmlns:svg="http://www.w3.org/2000/svg"
   xmlns="http://www.w3.org/2000/svg"
   version="1.1"
   width="48"
   height="48"
   id="svg2">
  <metadata
     id="metadata8">
    <rdf:RDF>
      <cc:Work
         rdf:about="">
        <dc:format>image/svg+xml</dc:format>
        <dc:type
           rdf:resource="http://purl.org/dc/dcmitype/StillImage" />
        <dc:title></dc:title>
      </cc:Work>
    </rdf:RDF>
  </metadata>
  <defs
     id="defs6" />
  <g
     id="text2987"
     style="font-size:4px;font-style:normal;font-weight:normal;line-height:125%;letter-spacing:0px;word-spacing:0px;fill:#000000;fill-opacity:1;stroke:none;font-family:Sans">
    <path
       d="m 13.010234,24.188205 c 0.52799,3e-6 1.03199,-0.012 1.512,-0.036 0.479989,-0.024 0.863988,-0.06 1.152,-0.108 l 0,-4.068 c -0.216012,-0.04799 -0.540012,-0.09599 -0.972,-0.144 -0.432011,-0.04799 -0.82801,-0.07199 -1.188,-0.072 -0.504009,8e-6 -0.984009,0.03601 -1.44,0.108 -0.432008,0.04801 -0.816008,0.156008 -1.152,0.324 -0.336007,0.168007 -0.600007,0.396007 -0.792,0.684 -0.1920064,0.288006 -0.2880063,0.648006 -0.2879997,1.08 -6.6e-6,0.840005 0.2759927,1.428004 0.8279997,1.764 0.575992,0.312004 1.355992,0.468003 2.34,0.468 m -0.432,-15.6960005 c 1.583989,1.9e-5 2.903988,0.180019 3.96,0.54 1.055986,0.360018 1.895985,0.876018 2.52,1.5480005 0.647984,0.672016 1.103983,1.488016 1.368,2.448 0.263983,0.960014 0.395983,2.028013 0.396,3.204 l 0,11.16 c -0.768016,0.168 -1.836015,0.36 -3.204,0.576 -1.368013,0.239999 -3.024011,0.359999 -4.968,0.36 -1.224008,-1e-6 -2.340007,-0.108001 -3.3479997,-0.324 -0.9840051,-0.216 -1.8360042,-0.564 -2.556,-1.044 -0.7200028,-0.503999 -1.2720022,-1.151998 -1.656,-1.944 -0.3840014,-0.791997 -0.5760012,-1.763996 -0.576,-2.916 -1.2e-6,-1.103993 0.2159985,-2.039992 0.648,-2.808 0.4559976,-0.767991 1.055997,-1.37999 1.8,-1.836 0.7439956,-0.455989 1.5959947,-0.779989 2.556,-0.972 0.9599927,-0.215989 1.9559917,-0.323989 2.9879997,-0.324 0.69599,1.1e-5 1.30799,0.03601 1.836,0.108 0.551989,0.04801 0.995988,0.120011 1.332,0.216 l 0,-0.504 c -1.2e-5,-0.911987 -0.276012,-1.643987 -0.828,-2.196 -0.552011,-0.551986 -1.51201,-0.827985 -2.88,-0.828 -0.912007,1.5e-5 -1.812007,0.07202 -2.6999997,0.216 -0.8880051,0.120014 -1.6560043,0.300014 -2.304,0.54 l -0.684,-4.3200005 c 0.3119967,-0.09598 0.6959963,-0.191982 1.152,-0.288 0.4799954,-0.119981 0.9959948,-0.215981 1.548,-0.288 0.5519937,-0.09598 1.1279927,-0.167981 1.7279997,-0.216 0.623992,-0.07198 1.247992,-0.107981 1.872,-0.108"
       id="path2996"
       style="font-size:36px;font-variant:normal;font-weight:bold;font-stretch:normal;stroke:#ffffff;stroke-width:8;stroke-linecap:round;stroke-linejoin:round;stroke-miterlimit:4;stroke-opacity:1;stroke-dasharray:none;font-family:Ubuntu;-inkscape-font-specification:Ubuntu Bold" />
    <path
       d="m 37.804672,30.320205 c -1.5e-5,-3.455987 -1.272014,-5.183986 -3.816,-5.184 -0.55201,1.4e-5 -1.10401,0.07201 -1.656,0.216 -0.528009,0.144014 -0.960008,0.324014 -1.296,0.54 l 0,9.756 c 0.263992,0.048 0.599991,0.096 1.008,0.144 0.407991,0.024 0.85199,0.036 1.332,0.036 1.463988,4e-6 2.567987,-0.503996 3.312,-1.512 0.743986,-1.007994 1.115985,-2.339992 1.116,-3.996 m 5.472,0.144 c -2e-5,1.512008 -0.22802,2.880006 -0.684,4.104 -0.432019,1.224004 -1.068019,2.268003 -1.908,3.132 -0.840017,0.864001 -1.872016,1.536 -3.096,2.016 -1.224013,0.455999 -2.616012,0.683999 -4.176,0.684 -0.64801,-10e-7 -1.332009,-0.036 -2.052,-0.108 -0.696008,-0.048 -1.392007,-0.120001 -2.088,-0.216 -0.672006,-0.096 -1.320005,-0.204 -1.944,-0.324 -0.624004,-0.144 -1.176003,-0.288 -1.656,-0.432 l 0,-26.46 5.364,-0.864 0,9.432 c 0.599991,-0.263982 1.223991,-0.467981 1.872,-0.612 0.647989,-0.143981 1.343989,-0.215981 2.088,-0.216 1.343987,1.9e-5 2.531985,0.240019 3.564,0.72 1.031983,0.456018 1.895983,1.116017 2.592,1.98 0.695981,0.864015 1.223981,1.908014 1.584,3.132 0.35998,1.200012 0.53998,2.544011 0.54,4.032"
       id="path2998"
       style="font-size:36px;font-variant:normal;font-weight:bold;font-stretch:normal;stroke:#ffffff;stroke-width:8;stroke-linecap:round;stroke-linejoin:round;stroke-miterlimit:4;stroke-opacity:1;stroke-dasharray:none;font-family:Ubuntu;-inkscape-font-specification:Ubuntu Bold" />
    <path
       d="m 13.010234,24.188205 c 0.52799,3e-6 1.03199,-0.012 1.512,-0.036 0.479989,-0.024 0.863988,-0.06 1.152,-0.108 l 0,-4.068 c -0.216012,-0.04799 -0.540012,-0.09599 -0.972,-0.144 -0.432011,-0.04799 -0.82801,-0.07199 -1.188,-0.072 -0.504009,8e-6 -0.984009,0.03601 -1.44,0.108 -0.432008,0.04801 -0.816008,0.156008 -1.152,0.324 -0.336007,0.168007 -0.600007,0.396007 -0.792,0.684 -0.1920064,0.288006 -0.2880063,0.648006 -0.2879997,1.08 -6.6e-6,0.840005 0.2759927,1.428004 0.8279997,1.764 0.575992,0.312004 1.355992,0.468003 2.34,0.468 m -0.432,-15.6960005 c 1.583989,1.9e-5 2.903988,0.180019 3.96,0.54 1.055986,0.360018 1.895985,0.876018 2.52,1.5480005 0.647984,0.672016 1.103983,1.488016 1.368,2.448 0.263983,0.960014 0.395983,2.028013 0.396,3.204 l 0,11.16 c -0.768016,0.168 -1.836015,0.36 -3.204,0.576 -1.368013,0.239999 -3.024011,0.359999 -4.968,0.36 -1.224008,-1e-6 -2.340007,-0.108001 -3.3479997,-0.324 -0.9840051,-0.216 -1.8360042,-0.564 -2.556,-1.044 -0.7200028,-0.503999 -1.2720022,-1.151998 -1.656,-1.944 -0.3840014,-0.791997 -0.5760012,-1.763996 -0.576,-2.916 -1.2e-6,-1.103993 0.2159985,-2.039992 0.648,-2.808 0.4559976,-0.767991 1.055997,-1.37999 1.8,-1.836 0.7439956,-0.455989 1.5959947,-0.779989 2.556,-0.972 0.9599927,-0.215989 1.9559917,-0.323989 2.9879997,-0.324 0.69599,1.1e-5 1.30799,0.03601 1.836,0.108 0.551989,0.04801 0.995988,0.120011 1.332,0.216 l 0,-0.504 c -1.2e-5,-0.911987 -0.276012,-1.643987 -0.828,-2.196 -0.552011,-0.551986 -1.51201,-0.827985 -2.88,-0.828 -0.912007,1.5e-5 -1.812007,0.07202 -2.6999997,0.216 -0.8880051,0.120014 -1.6560043,0.300014 -2.304,0.54 l -0.684,-4.3200005 c 0.3119967,-0.09598 0.6959963,-0.191982 1.152,-0.288 0.4799954,-0.119981 0.9959948,-0.215981 1.548,-0.288 0.5519937,-0.09598 1.1279927,-0.167981 1.7279997,-0.216 0.623992,-0.07198 1.247992,-0.107981 1.872,-0.108"
       id="path2992"
       style="font-size:36px;font-variant:normal;font-weight:bold;font-stretch:normal;font-family:Ubuntu;-inkscape-font-specification:Ubuntu Bold" />
    <path
       d="m 37.804672,30.320205 c -1.5e-5,-3.455987 -1.272014,-5.183986 -3.816,-5.184 -0.55201,1.4e-5 -1.10401,0.07201 -1.656,0.216 -0.528009,0.144014 -0.960008,0.324014 -1.296,0.54 l 0,9.756 c 0.263992,0.048 0.599991,0.096 1.008,0.144 0.407991,0.024 0.85199,0.036 1.332,0.036 1.463988,4e-6 2.567987,-0.503996 3.312,-1.512 0.743986,-1.007994 1.115985,-2.339992 1.116,-3.996 m 5.472,0.144 c -2e-5,1.512008 -0.22802,2.880006 -0.684,4.104 -0.432019,1.224004 -1.068019,2.268003 -1.908,3.132 -0.840017,0.864001 -1.872016,1.536 -3.096,2.016 -1.224013,0.455999 -2.616012,0.683999 -4.176,0.684 -0.64801,-10e-7 -1.332009,-0.036 -2.052,-0.108 -0.696008,-0.048 -1.392007,-0.120001 -2.088,-0.216 -0.672006,-0.096 -1.320005,-0.204 -1.944,-0.324 -0.624004,-0.144 -1.176003,-0.288 -1.656,-0.432 l 0,-26.46 5.364,-0.864 0,9.432 c 0.599991,-0.263982 1.223991,-0.467981 1.872,-0.612 0.647989,-0.143981 1.343989,-0.215981 2.088,-0.216 1.343987,1.9e-5 2.531985,0.240019 3.564,0.72 1.031983,0.456018 1.895983,1.116017 2.592,1.98 0.695981,0.864015 1.223981,1.908014 1.584,3.132 0.35998,1.200012 0.53998,2.544011 0.54,4.032"
       id="path2994"
       style="font-size:36px;font-variant:normal;font-weight:bold;font-stretch:normal;font-family:Ubuntu;-inkscape-font-specification:Ubuntu Bold" />
  </g>
</svg>
