<?xml version="1.0" encoding="UTF-8" standalone="no"?>
<!-- Created with Inkscape (http://www.inkscape.org/) -->

<svg
   xmlns:dc="http://purl.org/dc/elements/1.1/"
   xmlns:cc="http://creativecommons.org/ns#"
   xmlns:rdf="http://www.w3.org/1999/02/22-rdf-syntax-ns#"
   xmlns:svg="http://www.w3.org/2000/svg"
   xmlns="http://www.w3.org/2000/svg"
   version="1.0"
   width="48"
   height="48"
   id="svg2">
  <defs
     id="defs21" />
  <metadata
     id="metadata7">
    <rdf:RDF>
      <cc:Work
         rdf:about="">
        <dc:format>image/svg+xml</dc:format>
        <dc:type
           rdf:resource="http://purl.org/dc/dcmitype/StillImage" />
        <dc:title></dc:title>
        <dc:date>December 2008</dc:date>
        <dc:creator>
          <cc:Agent>
            <dc:title>Luca Ferretti &lt;elle.uca@libero.it</dc:title>
          </cc:Agent>
        </dc:creator>
        <dc:subject>
          <rdf:Bag>
            <rdf:li>office</rdf:li>
            <rdf:li>calendar</rdf:li>
            <rdf:li>appointmens</rdf:li>
          </rdf:Bag>
        </dc:subject>
        <dc:contributor>
          <cc:Agent>
            <dc:title>Inspired by calendar icon on Nokia E71</dc:title>
          </cc:Agent>
        </dc:contributor>
      </cc:Work>
    </rdf:RDF>
  </metadata>
  <g
     id="layer1">
    <rect
       width="48"
       height="48"
       x="0"
       y="0"
       id="rect3155"
       style="fill:none" />
    <rect
       width="40"
       height="36"
       ry="5.8221002"
       x="4"
       y="8"
       id="rect3241"
       style="stroke:#ffffff;stroke-width:8;stroke-linecap:round;stroke-linejoin:round" />
    <rect
       width="40"
       height="36"
       ry="5.8221002"
       x="4"
       y="8"
       id="rect3221" />
    <rect
       width="34"
       height="30"
       ry="2.9756999"
       x="7"
       y="11"
       id="rect3223"
       style="fill:#ffffff" />
    <rect
       width="1.4237288"
       height="1.4237288"
       ry="0.40677965"
       x="-87.86441"
       y="79.728813"
       id="rect3002"
       style="opacity:0.4;fill:#000000;fill-opacity:0.5098038;stroke:#ffffff;stroke-width:1;stroke-linecap:round;stroke-linejoin:round;stroke-miterlimit:4;stroke-opacity:1;stroke-dasharray:none" />
    <g
       transform="matrix(0.63336394,0.05574859,-0.05574859,0.63336394,19.581882,-1.3455299)"
       id="g2988">
      <path
         d="m 20,27 6,4 C 31.646,27.713 38.487,20.641 41.427,11 L 31,4 C 24.966,8.5653 21.882,16.647 20,27 z"
         id="path3750"
         style="fill:#ffffff;fill-rule:evenodd;stroke:#ffffff;stroke-width:8;stroke-linecap:round;stroke-linejoin:round" />
      <path
         d="M 9,43 C 20,44 25.461,41 24,32 L 20,30 C 12,32 17,39 9,43 z"
         id="path5221"
         style="fill:#ffffff;fill-rule:evenodd;stroke:#ffffff;stroke-width:8;stroke-linejoin:round" />
      <path
         d="m 21,28 4,2 C 30.646,26.713 38.487,20.641 41.427,11 L 31,4 C 24.966,8.5653 22.882,17.647 21,28 z"
         id="path3020"
         style="fill-rule:evenodd" />
      <path
         d="M 9,43 C 20,44 25.461,41 24,32 L 20,30 C 12,32 17,39 9,43 z"
         id="path3748"
         style="fill-rule:evenodd" />
    </g>
    <path
       d="m 20.709839,19.380152 a 4.817914,4.4583683 0 1 1 -9.635828,0 4.817914,4.4583683 0 1 1 9.635828,0 z"
       transform="translate(4.5771773,-1.4628112)"
       id="path3797"
       style="fill:#c90016;fill-opacity:1;stroke:#000000;stroke-width:1.70000005;stroke-linecap:round;stroke-linejoin:round;stroke-miterlimit:4;stroke-opacity:1;stroke-dasharray:none" />
    <path
       d="m 20.709839,19.380152 a 4.817914,4.4583683 0 1 1 -9.635828,0 4.817914,4.4583683 0 1 1 9.635828,0 z"
       transform="translate(10.042274,14.93248)"
       id="path3799"
       style="fill:#dd4814;fill-opacity:1;stroke:#000000;stroke-width:1.70000005;stroke-linecap:round;stroke-linejoin:round;stroke-miterlimit:4;stroke-opacity:1;stroke-dasharray:none" />
    <path
       d="m 20.709839,19.380152 a 4.817914,4.4583683 0 1 1 -9.635828,0 4.817914,4.4583683 0 1 1 9.635828,0 z"
       transform="translate(-1.6070108,9.1797454)"
       id="path3801"
       style="fill:#a0a0a0;fill-opacity:1;stroke:#000000;stroke-width:1.70000005;stroke-linecap:round;stroke-linejoin:round;stroke-miterlimit:4;stroke-opacity:1;stroke-dasharray:none" />
  </g>
</svg>
