<?xml version="1.0" encoding="UTF-8" standalone="no"?>
<!-- Created with Inkscape (http://www.inkscape.org/) -->

<svg
   xmlns:dc="http://purl.org/dc/elements/1.1/"
   xmlns:cc="http://creativecommons.org/ns#"
   xmlns:rdf="http://www.w3.org/1999/02/22-rdf-syntax-ns#"
   xmlns:svg="http://www.w3.org/2000/svg"
   xmlns="http://www.w3.org/2000/svg"
   version="1.1"
   width="48"
   height="48"
   viewBox="0 0 48 48"
   id="svg2"
   xml:space="preserve"><defs
   id="defs12" /><metadata
   id="metadata19"><rdf:RDF><cc:Work
       rdf:about=""><dc:format>image/svg+xml</dc:format><dc:type
         rdf:resource="http://purl.org/dc/dcmitype/StillImage" /><dc:title></dc:title><dc:creator><cc:Agent><dc:title>Luca Ferretti &lt;elle.uca@libero.it&gt;</dc:title></cc:Agent></dc:creator><cc:license
         rdf:resource="http://creativecommons.org/licenses/LGPL/2.1/" /><dc:subject><rdf:Bag><rdf:li>document new</rdf:li><rdf:li>document add</rdf:li></rdf:Bag></dc:subject><dc:description>A paper sheet with a + sign</dc:description></cc:Work><cc:License
       rdf:about="http://creativecommons.org/licenses/LGPL/2.1/"><cc:permits
         rdf:resource="http://web.resource.org/cc/Reproduction" /><cc:permits
         rdf:resource="http://web.resource.org/cc/Distribution" /><cc:requires
         rdf:resource="http://web.resource.org/cc/Notice" /><cc:permits
         rdf:resource="http://web.resource.org/cc/DerivativeWorks" /><cc:requires
         rdf:resource="http://web.resource.org/cc/ShareAlike" /><cc:requires
         rdf:resource="http://web.resource.org/cc/SourceCode" /></cc:License></rdf:RDF></metadata>
	<rect
   width="48"
   height="48"
   x="0"
   y="0"
   id="rect3319"
   style="fill:none" /><path
   d="M 39,41 H 9 V 6 h 17 l 13,14 v 21 z"
   id="path4775"
   style="fill:#ffffff;stroke:#ffffff;stroke-width:12;stroke-linejoin:round" /><path
   d="M 39,41 H 9 V 6 h 17 l 13,14 v 21 z"
   id="path7"
   style="stroke:#000000;stroke-width:4;stroke-linejoin:round" /><path
   d="M 36.991,20 36.997,39.004 11,39 11.017,8.018 24.969,8.0339 36.991,19.9999 z"
   id="path9"
   style="fill:#ffffff" />
<rect
   width="17.721344"
   height="2.7701435"
   rx="1.0585386"
   ry="0.65574092"
   x="15.087158"
   y="22.170904"
   id="rect3193"
   style="fill:#000000;fill-opacity:1;stroke:none;display:inline" /><rect
   width="17.721344"
   height="2.7701435"
   rx="1.0585386"
   ry="0.65574092"
   x="15.087158"
   y="27.175266"
   id="rect3193-5"
   style="fill:#000000;fill-opacity:1;stroke:none;display:inline" /><rect
   width="17.721344"
   height="2.7701435"
   rx="1.0585386"
   ry="0.65574092"
   x="15.087158"
   y="32.145836"
   id="rect3193-8"
   style="fill:#000000;fill-opacity:1;stroke:none;display:inline" /><path
   d="m 14.506216,10.284915 9.392089,0 9.595479,9.457129 c 0.413255,0.407296 1.058538,1.679969 1.058538,2.035583 l 0,14.548799 c 0,0.355613 -0.472108,0.641902 -1.058538,0.641902 l -18.987568,0 c -0.58643,0 -1.058538,-0.286289 -1.058538,-0.641902 l 0,-25.39961 c 0,-0.355613 0.472108,-0.641901 1.058538,-0.641901 z"
   id="rect3245"
   style="opacity:0.35;fill:#000000;fill-opacity:1;stroke:none;display:inline" /></svg>