<?xml version="1.0" encoding="UTF-8" standalone="no"?>
<!-- Generator: Adobe Illustrator 9.0, SVG Export Plug-In  -->

<svg
   xmlns:dc="http://purl.org/dc/elements/1.1/"
   xmlns:cc="http://creativecommons.org/ns#"
   xmlns:rdf="http://www.w3.org/1999/02/22-rdf-syntax-ns#"
   xmlns:svg="http://www.w3.org/2000/svg"
   xmlns="http://www.w3.org/2000/svg"
   xmlns:sodipodi="http://sodipodi.sourceforge.net/DTD/sodipodi-0.dtd"
   xmlns:inkscape="http://www.inkscape.org/namespaces/inkscape"
   id="svg2"
   xml:space="preserve"
   height="48"
   width="48"
   version="1.0"
   viewBox="0 0 48 48"
   inkscape:version="0.48.3.1 r9886"
   sodipodi:docname="gtk-connect.svg"><defs
   id="defs16" /><sodipodi:namedview
   pagecolor="#ffffff"
   bordercolor="#666666"
   borderopacity="1"
   objecttolerance="10"
   gridtolerance="10"
   guidetolerance="10"
   inkscape:pageopacity="0"
   inkscape:pageshadow="2"
   inkscape:window-width="736"
   inkscape:window-height="480"
   id="namedview14"
   showgrid="false"
   inkscape:zoom="4.9166667"
   inkscape:cx="-10.474576"
   inkscape:cy="24"
   inkscape:window-x="0"
   inkscape:window-y="0"
   inkscape:window-maximized="0"
   inkscape:current-layer="svg2" /><metadata
   id="metadata33"><rdf:RDF><cc:Work
       rdf:about=""><dc:format>image/svg+xml</dc:format><dc:type
         rdf:resource="http://purl.org/dc/dcmitype/StillImage" /><dc:title>Network Online</dc:title><dc:creator><cc:Agent><dc:title>Luca Ferretti &lt;elle.uca@libero.it&gt;</dc:title></cc:Agent></dc:creator><dc:subject><rdf:Bag><rdf:li>network</rdf:li><rdf:li>online</rdf:li><rdf:li>connected</rdf:li></rdf:Bag></dc:subject><dc:description>Connected plugs</dc:description><dc:contributor><cc:Agent><dc:title>Based on Jakub Steiner's work, I've just made it pixel perfect</dc:title></cc:Agent></dc:contributor><cc:license
         rdf:resource="http://creativecommons.org/licenses/LGPL/2.1/" /></cc:Work><cc:License
       rdf:about="http://creativecommons.org/licenses/LGPL/2.1/"><cc:permits
         rdf:resource="http://web.resource.org/cc/Reproduction" /><cc:permits
         rdf:resource="http://web.resource.org/cc/Distribution" /><cc:requires
         rdf:resource="http://web.resource.org/cc/Notice" /><cc:permits
         rdf:resource="http://web.resource.org/cc/DerivativeWorks" /><cc:requires
         rdf:resource="http://web.resource.org/cc/ShareAlike" /><cc:requires
         rdf:resource="http://web.resource.org/cc/SourceCode" /></cc:License></rdf:RDF></metadata>
<rect
   id="rect6087"
   style="fill:none"
   height="48"
   width="48"
   y="0"
   x="0" /><g
   id="g4143"
   style="fill:#fff"><path
     id="path4145"
     style="fill:#fff;fill-rule:evenodd"
     d="m5 26v-4h6c0-4 2-10 6-11h5v26h-5c-4-1-6-7-6-11h-6z" /><path
     id="path4147"
     style="fill:#fff;fill-rule:evenodd"
     d="m43 26v-4h-6c0-4-2-10-6-11h-5v26h5c4-1 6-7 6-11h6z" /></g><g
   id="g7058"
   style="stroke-linejoin:round;stroke:#fff;stroke-linecap:round;stroke-width:8;fill:#fff;stroke-miterlimit:4;stroke-dasharray:none"><path
     id="path7060"
     style="stroke-linejoin:round;fill-rule:evenodd;stroke:#fff;stroke-linecap:round;stroke-width:8;fill:#fff;stroke-miterlimit:4;stroke-dasharray:none"
     d="m5 26v-4h6c0-4 2-10 6-11h5v26h-5c-4-1-6-7-6-11h-6z" /><path
     id="path7062"
     style="stroke-linejoin:round;fill-rule:evenodd;stroke:#fff;stroke-linecap:round;stroke-width:8;fill:#fff;stroke-miterlimit:4;stroke-dasharray:none"
     d="m43 26v-4h-6c0-4-2-10-6-11h-5v26h5c4-1 6-7 6-11h6z" /></g><g
   id="g3170"><path
     id="path2186"
     style="fill-rule:evenodd"
     d="m5 26v-4h6c0-4 2-10 6-11h5v26h-5c-4-1-6-7-6-11h-6z" /><path
     id="path3159"
     style="fill-rule:evenodd"
     d="m43 26v-4h-6c0-4-2-10-6-11h-5v26h5c4-1 6-7 6-11h6z" /></g></svg>