<?xml version="1.0" encoding="UTF-8" standalone="no"?>
<!-- Generator: Adobe Illustrator 9.0, SVG Export Plug-In  -->

<svg
   xmlns:dc="http://purl.org/dc/elements/1.1/"
   xmlns:cc="http://creativecommons.org/ns#"
   xmlns:rdf="http://www.w3.org/1999/02/22-rdf-syntax-ns#"
   xmlns:svg="http://www.w3.org/2000/svg"
   xmlns="http://www.w3.org/2000/svg"
   xmlns:sodipodi="http://sodipodi.sourceforge.net/DTD/sodipodi-0.dtd"
   xmlns:inkscape="http://www.inkscape.org/namespaces/inkscape"
   width="48"
   height="48"
   viewBox="0 0 48 48"
   xml:space="preserve"
   id="svg2"
   sodipodi:version="0.32"
   inkscape:version="0.48.3.1 r9886"
   sodipodi:docname="tool-check-spelling.svg"
   inkscape:output_extension="org.inkscape.output.svg.inkscape"
   version="1.0"><metadata
   id="metadata29"><rdf:RDF><cc:Work
       rdf:about=""><dc:format>image/svg+xml</dc:format><dc:type
         rdf:resource="http://purl.org/dc/dcmitype/StillImage" /></cc:Work></rdf:RDF></metadata><defs
   id="defs27" /><sodipodi:namedview
   inkscape:window-height="616"
   inkscape:window-width="772"
   inkscape:pageshadow="2"
   inkscape:pageopacity="0.0"
   guidetolerance="10.0"
   gridtolerance="10.0"
   objecttolerance="10.0"
   borderopacity="1.0"
   bordercolor="#666666"
   pagecolor="#ffffff"
   id="base"
   inkscape:zoom="3.3916667"
   inkscape:cx="26.595616"
   inkscape:cy="28.817839"
   inkscape:window-x="1"
   inkscape:window-y="45"
   inkscape:current-layer="g5"
   width="48px"
   height="48px"
   showgrid="false"
   inkscape:window-maximized="0" />
	<g
   id="Layer_x0020_3"
   style="fill-rule:nonzero;stroke:#ffffff;stroke-width:5.66828966;stroke-linejoin:round;stroke-miterlimit:4;fill:#000000;fill-opacity:1"
   transform="matrix(1.1797384,0,0,1.1797384,-4.3137237,-4.3137237)">
		<g
   id="g5"
   style="stroke-width:5.66828966;fill:#000000;fill-opacity:1">
			
			
			<g
   id="g11"
   style="stroke-width:5.66828966;fill:#000000;fill-opacity:1">
				
				
			</g>
			<g
   id="g3762"
   style="stroke:#ffffff;stroke-opacity:1;stroke-width:6.78116436999999994;stroke-miterlimit:4;stroke-dasharray:none"><path
     style="fill:#000000;fill-opacity:1;fill-rule:evenodd;stroke:#ffffff;stroke-width:6.78116436999999994;stroke-linecap:round;stroke-linejoin:round;stroke-miterlimit:4;stroke-opacity:1;stroke-dasharray:none"
     d="m 23.254056,30.088589 c -2.217543,-2.217543 -5.147868,-5.147868 -5.147868,-5.147868 l -4.672679,4.67268 9.820547,9.820548 17.027563,-17.027562 -4.67268,-4.67268 c 0,0 -9.107766,9.107766 -12.434081,12.43408 l 0.0792,-0.0792 z"
     id="path3764"
     inkscape:connector-curvature="0" /><g
     style="fill:#000000;fill-opacity:1;stroke:#ffffff;stroke-opacity:1;stroke-width:7.70606650000000037;stroke-miterlimit:4;stroke-dasharray:none"
     id="g3766"
     transform="matrix(0.8799774,0,0,0.8799774,2.9991948,3.0091848)">
				<path
   d="m 9.2,17.2 -1,3.8 -3.6,0 4.6,-14.8 4.4,0 4.6,14.9 -3.6,0 -1.1,-3.8 -4.3,0 0,-0.1 z M 12.9,14.7 12,11.6 c -0.2,-0.9 -0.5,-2 -0.7,-2.9 l -0.1,0 c -0.2,0.9 -0.4,2 -0.7,2.9 l -0.9,3.2 3.3,0 0,-0.1 z"
   id="path3768"
   style="fill:#000000;fill-opacity:1;stroke:#ffffff;stroke-opacity:1;stroke-width:7.70606650000000037;stroke-miterlimit:4;stroke-dasharray:none"
   inkscape:connector-curvature="0" />
				<path
   d="m 20.2,6.4 c 0.9,-0.2 2.6,-0.3 4.3,-0.3 2,0 3.3,0.2 4.4,0.8 1,0.5 1.8,1.6 1.8,2.9 0,1.3 -0.8,2.5 -2.4,3.2 l 0,0 c 1.7,0.4 3,1.7 3,3.7 0,1.4 -0.6,2.4 -1.5,3.2 -1.1,0.9 -2.9,1.3 -5.8,1.3 -1.7,0 -2.9,-0.1 -3.6,-0.2 l 0,-14.6 -0.2,0 z m 3.3,5.7 1.1,0 c 1.8,0 2.7,-0.7 2.7,-1.8 0,-1.1 -0.9,-1.7 -2.4,-1.7 -0.7,0 -1.2,0 -1.4,0.1 l 0,3.4 0,0 z m 0,6.6 c 0.3,0.1 0.7,0.1 1.3,0.1 1.5,0 2.9,-0.6 2.9,-2.2 0,-1.5 -1.3,-2.1 -3,-2.1 l -1.1,0 0,4.2 -0.1,0 z"
   id="path3770"
   style="fill:#000000;fill-opacity:1;stroke:#ffffff;stroke-opacity:1;stroke-width:7.70606650000000037;stroke-miterlimit:4;stroke-dasharray:none"
   inkscape:connector-curvature="0" />
			</g></g><g
   id="g3756"><path
     inkscape:connector-curvature="0"
     id="path9"
     d="m 23.254056,30.088589 c -2.217543,-2.217543 -5.147868,-5.147868 -5.147868,-5.147868 l -4.672679,4.67268 9.820547,9.820548 17.027563,-17.027562 -4.67268,-4.67268 c 0,0 -9.107766,9.107766 -12.434081,12.43408 l 0.0792,-0.0792 z"
     style="fill:#000000;fill-opacity:1;fill-rule:evenodd;stroke:#000000;stroke-width:1.34263599;stroke-linecap:round;stroke-linejoin:round;stroke-miterlimit:4;stroke-opacity:1;stroke-dasharray:none" /><g
     transform="matrix(0.8799774,0,0,0.8799774,2.9991948,3.0091848)"
     id="g17"
     style="fill:#000000;fill-opacity:1;stroke:none">
				<path
   inkscape:connector-curvature="0"
   style="fill:#000000;fill-opacity:1"
   id="path19"
   d="m 9.2,17.2 -1,3.8 -3.6,0 4.6,-14.8 4.4,0 4.6,14.9 -3.6,0 -1.1,-3.8 -4.3,0 0,-0.1 z M 12.9,14.7 12,11.6 c -0.2,-0.9 -0.5,-2 -0.7,-2.9 l -0.1,0 c -0.2,0.9 -0.4,2 -0.7,2.9 l -0.9,3.2 3.3,0 0,-0.1 z" />
				<path
   inkscape:connector-curvature="0"
   style="fill:#000000;fill-opacity:1"
   id="path21"
   d="m 20.2,6.4 c 0.9,-0.2 2.6,-0.3 4.3,-0.3 2,0 3.3,0.2 4.4,0.8 1,0.5 1.8,1.6 1.8,2.9 0,1.3 -0.8,2.5 -2.4,3.2 l 0,0 c 1.7,0.4 3,1.7 3,3.7 0,1.4 -0.6,2.4 -1.5,3.2 -1.1,0.9 -2.9,1.3 -5.8,1.3 -1.7,0 -2.9,-0.1 -3.6,-0.2 l 0,-14.6 -0.2,0 z m 3.3,5.7 1.1,0 c 1.8,0 2.7,-0.7 2.7,-1.8 0,-1.1 -0.9,-1.7 -2.4,-1.7 -0.7,0 -1.2,0 -1.4,0.1 l 0,3.4 0,0 z m 0,6.6 c 0.3,0.1 0.7,0.1 1.3,0.1 1.5,0 2.9,-0.6 2.9,-2.2 0,-1.5 -1.3,-2.1 -3,-2.1 l -1.1,0 0,4.2 -0.1,0 z" />
			</g></g>
		</g>
	</g>
	
</svg>