<?xml version="1.0" encoding="UTF-8" standalone="no"?>
<!-- Created with Inkscape (http://www.inkscape.org/) -->

<svg
   xmlns:dc="http://purl.org/dc/elements/1.1/"
   xmlns:cc="http://creativecommons.org/ns#"
   xmlns:rdf="http://www.w3.org/1999/02/22-rdf-syntax-ns#"
   xmlns:svg="http://www.w3.org/2000/svg"
   xmlns="http://www.w3.org/2000/svg"
   version="1.0"
   width="48"
   height="48"
   viewBox="0 0 48 48"
   id="svg2"
   xml:space="preserve"><defs
   id="defs16" /><metadata
   id="metadata31"><rdf:RDF><cc:Work
       rdf:about=""><dc:format>image/svg+xml</dc:format><dc:type
         rdf:resource="http://purl.org/dc/dcmitype/StillImage" /><dc:title></dc:title></cc:Work></rdf:RDF></metadata>
	<rect
   width="48"
   height="48"
   rx="0"
   ry="0"
   x="0"
   y="0"
   id="rect3981"
   style="fill:none" /><g
   id="g3100"
   style="fill:#ffffff;stroke:#ffffff;stroke-width:8;stroke-miterlimit:4;stroke-dasharray:none"><path
     d="m 41,42 c 0,0.4 -0.6,1 -1,1 H 8 C 7.6,43 7,42.4 7,42 v -2 c 0,-0.4 0.5,-0.7 0.9,-0.7 h 31.9 c 0.4,0 1.2,0.3 1.2,0.7 v 2 z"
     id="path3102"
     style="fill:#ffffff;stroke:#ffffff;stroke-width:8;stroke-linejoin:round;stroke-miterlimit:4;stroke-dasharray:none" /><path
     d="m 44,39 c 0,0.4 -0.6,1 -1,1 H 5 C 4.6,40 4,39.4 4,39 V 25 c 0,-0.4 0.6,-1 1,-1 h 38 c 0.4,0 1,0.6 1,1 v 14 z"
     id="path3104"
     style="fill:#ffffff;stroke:#ffffff;stroke-width:8;stroke-linejoin:round;stroke-miterlimit:4;stroke-dasharray:none" /><path
     d="M 12,4 C 9,4 8,6 8,8 V 26 H 40 V 8 C 40,6 39,4 36,4 H 12 z"
     id="path3106"
     style="fill:#ffffff;stroke:#ffffff;stroke-width:8;stroke-linejoin:round;stroke-miterlimit:4;stroke-dasharray:none" /></g><g
   id="g3095"><path
     d="m 41,42 c 0,0.4 -0.6,1 -1,1 H 8 C 7.6,43 7,42.4 7,42 v -2 c 0,-0.4 0.5,-0.7 0.9,-0.7 h 31.9 c 0.4,0 1.2,0.3 1.2,0.7 v 2 z"
     id="path13" /><path
     d="m 44,39 c 0,0.4 -0.6,1 -1,1 H 5 C 4.6,40 4,39.4 4,39 V 25 c 0,-0.4 0.6,-1 1,-1 h 38 c 0.4,0 1,0.6 1,1 v 14 z"
     id="path15" /><path
     d="M 12,4 C 9,4 8,6 8,8 V 26 H 40 V 8 C 40,6 39,4 36,4 H 12 z"
     id="path17" /></g><path
   d="M 36,24 H 12 V 9 c 0,0 0,-1 1,-1 h 22 c 1,0 1,1 1,1 v 15 z"
   id="path19"
   style="fill:#ffffff" />
<path
   d="M 11,37 H 37"
   id="path1315"
   style="fill:#ffffff;fill-rule:evenodd;stroke:#ffffff;stroke-width:4" /><g
   transform="matrix(1.15,0,0,1.15,-18.220339,39.925422)"
   id="layer1"
   style="display:inline" /><g
   transform="translate(-1.8813558,-0.01694825)"
   id="g3827"
   style="stroke:#ffffff;stroke-width:6;stroke-miterlimit:4;stroke-opacity:1;stroke-dasharray:none"><g
     transform="matrix(0.65028631,0,0,0.65414165,16.659115,16.74624)"
     id="g3829"
     style="stroke:#ffffff;stroke-width:9.19947529;stroke-miterlimit:4;stroke-opacity:1;stroke-dasharray:none;display:inline"><g
       transform="matrix(1.006671,0,0,1,0.966642,0.716205)"
       id="g3831"
       style="stroke:#ffffff;stroke-width:9.16894245;stroke-miterlimit:4;stroke-opacity:1;stroke-dasharray:none" /><g
       transform="matrix(1.005587,0,0,1.004813,-0.22864,1.985055)"
       id="g3833"
       style="stroke:#ffffff;stroke-width:9.15188599;stroke-miterlimit:4;stroke-opacity:1;stroke-dasharray:none"><path
         d="M 8.1359163,8.5385328 C 6.1926724,10.556239 6.212511,13.730389 8.2022073,15.720086 l 2.6516507,2.651651 c 1.808973,1.808973 4.41263,2.181887 6.419529,0.739927 l 19.025379,19.049275 c 0.886329,0.886329 2.295655,0.886329 3.181981,0 l 1.767766,-1.767766 c 0.886329,-0.886329 0.88633,-2.295652 0,-3.181981 L 22.200387,14.184664 c 1.44196,-2.006898 1.069046,-4.6105562 -0.739927,-6.4195292 l -2.651651,-2.651651 c -1.989696,-1.989696 -5.163846,-2.009536 -7.181553,-0.066291 l 5.325398,5.2812042 0,2.12132 -1.414214,1.414214 -2.12132,0 C 11.666497,12.081602 9.8444463,10.356837 8.1359163,8.5385328 z"
         id="path3835"
         style="fill:#000000;fill-opacity:1;stroke:#ffffff;stroke-width:9.15188599;stroke-miterlimit:4;stroke-opacity:1;stroke-dasharray:none" /></g><path
       d="m 40.0625,5 -3.9375,4.53125 -0.625,2.3125 -15.4375,15.5 C 18.241523,26.081497 16.091515,25.947796 14.875,27.15625 L 7.34375,34.625 c -1.4293003,1.419829 -1.0187095,4.150503 0.9375,6.09375 l 0.75,0.71875 c 1.95621,1.943246 4.6957,2.357329 6.125,0.9375 l 7.5,-7.46875 c 1.167694,-1.159956 1.099946,-3.177539 -0.03125,-4.9375 L 38.09375,14.4375 40.0625,14.21875 44.9375,9.90625 C 44.937499,9.9062496 40.0625,5 40.0625,5 z"
       id="path3837"
       style="fill:#000000;fill-opacity:1;stroke:#ffffff;stroke-width:9.19947529;stroke-miterlimit:4;stroke-opacity:1;stroke-dasharray:none" /></g></g><g
   transform="translate(-1.8813558,-0.01694825)"
   id="g3820"><g
     transform="matrix(0.65028631,0,0,0.65414165,16.659115,16.74624)"
     id="g2208"
     style="display:inline"><g
       transform="matrix(1.006671,0,0,1,0.966642,0.716205)"
       id="g5318" /><g
       transform="matrix(1.005587,0,0,1.004813,-0.22864,1.985055)"
       id="g5312"><path
         d="M 8.1359163,8.5385328 C 6.1926724,10.556239 6.212511,13.730389 8.2022073,15.720086 l 2.6516507,2.651651 c 1.808973,1.808973 4.41263,2.181887 6.419529,0.739927 l 19.025379,19.049275 c 0.886329,0.886329 2.295655,0.886329 3.181981,0 l 1.767766,-1.767766 c 0.886329,-0.886329 0.88633,-2.295652 0,-3.181981 L 22.200387,14.184664 c 1.44196,-2.006898 1.069046,-4.6105562 -0.739927,-6.4195292 l -2.651651,-2.651651 c -1.989696,-1.989696 -5.163846,-2.009536 -7.181553,-0.066291 l 5.325398,5.2812042 0,2.12132 -1.414214,1.414214 -2.12132,0 C 11.666497,12.081602 9.8444463,10.356837 8.1359163,8.5385328 z"
         id="path5302"
         style="fill:#000000;fill-opacity:1;stroke:none" /></g><path
       d="m 40.0625,5 -3.9375,4.53125 -0.625,2.3125 -15.4375,15.5 C 18.241523,26.081497 16.091515,25.947796 14.875,27.15625 L 7.34375,34.625 c -1.4293003,1.419829 -1.0187095,4.150503 0.9375,6.09375 l 0.75,0.71875 c 1.95621,1.943246 4.6957,2.357329 6.125,0.9375 l 7.5,-7.46875 c 1.167694,-1.159956 1.099946,-3.177539 -0.03125,-4.9375 L 38.09375,14.4375 40.0625,14.21875 44.9375,9.90625 C 44.937499,9.9062496 40.0625,5 40.0625,5 z"
       id="rect5288"
       style="fill:#000000;fill-opacity:1;stroke:none" /></g></g></svg>