<?xml version="1.0" encoding="UTF-8" standalone="no"?>
<!-- Created with Inkscape (http://www.inkscape.org/) -->

<svg
   xmlns:dc="http://purl.org/dc/elements/1.1/"
   xmlns:cc="http://creativecommons.org/ns#"
   xmlns:rdf="http://www.w3.org/1999/02/22-rdf-syntax-ns#"
   xmlns:svg="http://www.w3.org/2000/svg"
   xmlns="http://www.w3.org/2000/svg"
   xmlns:sodipodi="http://sodipodi.sourceforge.net/DTD/sodipodi-0.dtd"
   xmlns:inkscape="http://www.inkscape.org/namespaces/inkscape"
   id="svg3189"
   height="48"
   width="48"
   version="1.0"
   inkscape:version="0.48.3.1 r9886"
   sodipodi:docname="insert-link.svg">
  <defs
     id="defs15" />
  <sodipodi:namedview
     pagecolor="#ffffff"
     bordercolor="#666666"
     borderopacity="1"
     objecttolerance="10"
     gridtolerance="10"
     guidetolerance="10"
     inkscape:pageopacity="0"
     inkscape:pageshadow="2"
     inkscape:window-width="640"
     inkscape:window-height="480"
     id="namedview13"
     showgrid="false"
     inkscape:zoom="4.9166667"
     inkscape:cx="24"
     inkscape:cy="24"
     inkscape:window-x="0"
     inkscape:window-y="0"
     inkscape:window-maximized="0"
     inkscape:current-layer="layer1" />
  <metadata
     id="metadata3194">
    <rdf:RDF>
      <cc:Work
         rdf:about="">
        <dc:format>image/svg+xml</dc:format>
        <dc:type
           rdf:resource="http://purl.org/dc/dcmitype/StillImage" />
        <cc:license
           rdf:resource="" />
        <dc:title></dc:title>
        <dc:date>2008-12-30</dc:date>
        <dc:creator>
          <cc:Agent>
            <dc:title>Vinicius Depizzol &lt;vdepizzol@gmail.com&gt;</dc:title>
          </cc:Agent>
        </dc:creator>
        <dc:subject>
          <rdf:Bag>
            <rdf:li>text</rdf:li>
            <rdf:li>insert</rdf:li>
          </rdf:Bag>
        </dc:subject>
      </cc:Work>
    </rdf:RDF>
  </metadata>
  <g
     id="layer1">
    <rect
       id="rect3793"
       style="fill-opacity:0"
       rx="0"
       ry="0"
       height="48"
       width="48"
       y="0"
       x="0" />
    <rect
       id="rect6561"
       style="stroke-linejoin:round;fill-rule:evenodd;stroke:#fff;stroke-linecap:round;stroke-width:8"
       rx="3"
       ry="3"
       height="34"
       width="40"
       y="4"
       x="4" />
    <path
       id="path3165"
       style="stroke-linejoin:round;stroke:#fff;stroke-linecap:round;stroke-width:13.713;fill:#fff"
       d="m13.836 26.522h15.078l-7.539 13.059-7.539-13.059z"
       transform="matrix(1 0 0 .76578 2.625 11.69)" />
    <rect
       id="rect1315"
       style="fill-rule:evenodd"
       rx="3.3"
       ry="3.3"
       height="34"
       width="40"
       y="4"
       x="4" />
    <rect
       id="rect6622"
       style="fill:#fff;fill-rule:evenodd"
       rx="1.5"
       ry="1.5"
       height="26"
       width="32"
       y="8"
       x="8" />
    <path
       id="path3187"
       style="stroke-linejoin:round;stroke:#fff;stroke-linecap:round;stroke-width:10.285;fill:#fff"
       transform="matrix(1 0 0 .76578 2.625 11.69)"
       d="m13.836 26.522h15.078l-7.539 13.059-7.539-13.059z" />
    <path
       id="path3159"
       style="stroke-linejoin:round;stroke:#000;stroke-linecap:round;stroke-width:4.571;fill:#fff"
       transform="matrix(1 0 0 .76578 2.625 11.69)"
       d="m13.836 26.522h15.078l-7.539 13.059-7.539-13.059z" />
    <g
       transform="scale(1.0979273,0.91080712)"
       style="font-size:4.39170885px;font-style:normal;font-weight:normal;line-height:125%;letter-spacing:0px;word-spacing:0px;fill:#000000;fill-opacity:1;stroke:none;font-family:Sans"
       id="text2992">
      <path
         d="m 13.183022,25.29844 c -10e-7,-0.667534 0.09662,-1.273589 0.289853,-1.818167 0.193234,-0.562132 0.447953,-1.062786 0.764157,-1.501965 0.333768,-0.456729 0.711454,-0.851982 1.133061,-1.185761 0.439167,-0.351327 0.895905,-0.658747 1.370213,-0.922259 -0.421608,-0.509428 -0.799294,-1.053999 -1.133061,-1.633716 -0.333772,-0.59726 -0.500657,-1.247232 -0.500654,-1.949919 -3e-6,-1.545866 0.465517,-2.731626 1.396563,-3.557284 0.931037,-0.84319 2.213415,-1.264794 3.847137,-1.264812 0.825633,1.8e-5 1.545872,0.114203 2.160721,0.342553 0.614828,0.21082 1.124266,0.509456 1.528315,0.895909 0.421592,0.36892 0.737794,0.808091 0.948609,1.317512 0.210789,0.491887 0.31619,1.027675 0.316203,1.607366 -1.3e-5,1.07159 -0.307432,2.028982 -0.922259,2.872178 -0.597284,0.825652 -1.361441,1.519541 -2.292472,2.08167 l 2.951228,2.951228 c 0.158089,-0.35133 0.307407,-0.7905 0.447955,-1.317513 0.158088,-0.544563 0.254705,-1.018867 0.289853,-1.422913 l 3.267431,0.421604 c -0.03515,0.333778 -0.09663,0.702681 -0.184452,1.10671 -0.08785,0.386478 -0.202035,0.781732 -0.342553,1.185762 -0.122984,0.404043 -0.272302,0.80808 -0.447954,1.212111 -0.158118,0.404043 -0.333786,0.772946 -0.527005,1.106711 0.562122,0.63241 1.106694,1.326299 1.633715,2.08167 0.544555,0.737809 1.010075,1.484399 1.396564,2.239772 l -4.031589,0 c -0.140549,-0.228369 -0.333784,-0.509438 -0.579706,-0.843208 -0.245949,-0.351336 -0.491884,-0.649972 -0.737807,-0.895909 -0.702686,0.56214 -1.519543,1.036444 -2.450573,1.422914 -0.931052,0.368903 -1.976278,0.553355 -3.135681,0.553355 -1.229684,0 -2.257343,-0.149318 -3.082979,-0.447954 -0.825645,-0.316203 -1.493184,-0.711456 -2.00262,-1.185762 -0.491873,-0.491869 -0.843209,-1.036441 -1.05401,-1.633715 -0.210803,-0.614836 -0.316204,-1.220891 -0.316203,-1.818168 m 3.662685,-0.395254 c -4e-6,0.263508 0.0527,0.535793 0.158102,0.816858 0.105396,0.281074 0.272281,0.544576 0.500655,0.790508 0.24593,0.228372 0.553349,0.421607 0.922259,0.579705 0.368897,0.140538 0.816851,0.210805 1.343863,0.210802 0.737798,3e-6 1.378987,-0.09661 1.923568,-0.289852 0.562129,-0.193232 1.02765,-0.447951 1.396564,-0.764158 l -4.216041,-4.242391 c -0.245942,0.122976 -0.491878,0.272294 -0.737807,0.447955 -0.228375,0.175676 -0.439177,0.386477 -0.632406,0.632406 -0.193241,0.228375 -0.351342,0.491878 -0.474305,0.790507 -0.122972,0.298643 -0.184456,0.641196 -0.184452,1.02766 m 5.11195,-9.090837 c -10e-6,-0.404023 -0.131761,-0.764143 -0.395254,-1.080361 -0.263512,-0.316187 -0.702682,-0.474288 -1.317513,-0.474304 -0.562146,1.6e-5 -1.001316,0.175684 -1.317513,0.527005 -0.298642,0.333785 -0.44796,0.772955 -0.447954,1.317512 -6e-6,0.456752 0.131745,0.904706 0.395254,1.343863 0.263496,0.421617 0.606049,0.825654 1.02766,1.212112 0.56213,-0.316191 1.045218,-0.693878 1.449264,-1.133061 0.404028,-0.439158 0.606046,-1.010079 0.606056,-1.712766"
         style="font-size:26.35025406px;font-variant:normal;font-weight:bold;font-stretch:normal;font-family:Ubuntu;-inkscape-font-specification:Ubuntu Bold"
         id="path3016" />
    </g>
  </g>
</svg>
