<?xml version="1.0" encoding="UTF-8" standalone="no"?>
<!-- Generator: Adobe Illustrator 9.0, SVG Export Plug-In  -->

<svg
   xmlns:dc="http://purl.org/dc/elements/1.1/"
   xmlns:cc="http://creativecommons.org/ns#"
   xmlns:rdf="http://www.w3.org/1999/02/22-rdf-syntax-ns#"
   xmlns:svg="http://www.w3.org/2000/svg"
   xmlns="http://www.w3.org/2000/svg"
   xmlns:sodipodi="http://sodipodi.sourceforge.net/DTD/sodipodi-0.dtd"
   xmlns:inkscape="http://www.inkscape.org/namespaces/inkscape"
   id="svg2"
   xml:space="preserve"
   height="48"
   width="48"
   version="1.0"
   viewBox="0 0 48 48"
   inkscape:version="0.48.3.1 r9886"
   sodipodi:docname="insert-object.svg"><defs
   id="defs12" /><sodipodi:namedview
   pagecolor="#ffffff"
   bordercolor="#666666"
   borderopacity="1"
   objecttolerance="10"
   gridtolerance="10"
   guidetolerance="10"
   inkscape:pageopacity="0"
   inkscape:pageshadow="2"
   inkscape:window-width="736"
   inkscape:window-height="480"
   id="namedview10"
   showgrid="false"
   inkscape:zoom="4.9166667"
   inkscape:cx="24"
   inkscape:cy="24"
   inkscape:window-x="0"
   inkscape:window-y="0"
   inkscape:window-maximized="0"
   inkscape:current-layer="g5" /><metadata
   id="metadata17"><rdf:RDF><cc:Work
       rdf:about=""><dc:format>image/svg+xml</dc:format><dc:type
         rdf:resource="http://purl.org/dc/dcmitype/StillImage" /></cc:Work></rdf:RDF></metadata>
	<g
   id="Layer_x0020_3"
   style="stroke:#000">
		<g
   id="g5">
			<path
   id="path7"
   style="stroke-linejoin:round;stroke:#fff;stroke-width:8;stroke-miterlimit:4;stroke-dasharray:none"
   d="m39.6 17.9c-1.3 0-2.5 1.2-3.2 2.9-1 0.5-2.5 0.1-2.9-1v-7.2h-0.2-18.6-0.2v7.3c-0.4 1.2-1.8 1.6-2.8 1.1-0.6-1.9-1.9-3.1-3.3-3.1-2.1 0-3.8 2.8-3.8 6.2s1.7 6.2 3.8 6.2c1.3 0 2.5-1.2 3.2-2.9 1-0.5 2.5-0.1 2.9 1v7.2h0.2 18.7 0.2v-7.3c0.4-1.2 1.8-1.6 2.8-1.1 0.6 1.9 1.9 3.1 3.3 3.1 2.1 0 3.8-2.8 3.8-6.2s-1.7-6.2-3.8-6.2h-0.1z" />
			<path
   id="path9"
   d="m39.6 17.9c-1.3 0-2.5 1.2-3.2 2.9-1 0.5-2.5 0.1-2.9-1v-7.2h-0.2-18.6-0.2v7.3c-0.4 1.2-1.8 1.6-2.8 1.1-0.6-1.9-1.9-3.1-3.3-3.1-2.1 0-3.8 2.8-3.8 6.2s1.7 6.2 3.8 6.2c1.3 0 2.5-1.2 3.2-2.9 1-0.5 2.5-0.1 2.9 1v7.2h0.2 18.7 0.2v-7.3c0.4-1.2 1.8-1.6 2.8-1.1 0.6 1.9 1.9 3.1 3.3 3.1 2.1 0 3.8-2.8 3.8-6.2s-1.7-6.2-3.8-6.2h-0.1z" />
		</g>
	</g>
	
</svg>