<?xml version="1.0" encoding="UTF-8" standalone="no"?>
<!-- Created with Inkscape (http://www.inkscape.org/) -->

<svg
   xmlns:dc="http://purl.org/dc/elements/1.1/"
   xmlns:cc="http://creativecommons.org/ns#"
   xmlns:rdf="http://www.w3.org/1999/02/22-rdf-syntax-ns#"
   xmlns:svg="http://www.w3.org/2000/svg"
   xmlns="http://www.w3.org/2000/svg"
   version="1.1"
   width="48"
   height="48"
   id="svg1307">
  <defs
     id="defs17" />
  <metadata
     id="metadata1312">
    <rdf:RDF>
      <cc:Work
         rdf:about="">
        <dc:format>image/svg+xml</dc:format>
        <dc:type
           rdf:resource="http://purl.org/dc/dcmitype/StillImage" />
        <dc:title></dc:title>
      </cc:Work>
    </rdf:RDF>
  </metadata>
  <g
     id="layer1">
    <rect
       width="48"
       height="48"
       ry="0"
       x="0"
       y="0"
       id="rect2190"
       style="fill:none" />
    <path
       d="m 37,24 a 13,13 0 1 1 -26,0 13,13 0 1 1 26,0 z"
       id="path5706"
       style="fill:none;stroke:#ffffff;stroke-width:20" />
    <path
       d="m 37,24 a 13,13 0 1 1 -26,0 13,13 0 1 1 26,0 z"
       id="path3954"
       style="fill:none;stroke:#000000;stroke-width:12" />
    <path
       d="m 30.5,12.74167 a 13,13 0 0 1 6.302501,9.000904"
       id="path4829"
       style="fill:none;stroke:#ffffff;stroke-width:6" />
    <path
       d="M 17.5,35.25833 A 13,13 0 0 1 11.197499,26.257427"
       id="path5704"
       style="fill:none;stroke:#ffffff;stroke-width:6" />
  </g>
  <rect
     width="27.108479"
     height="27.108479"
     x="20.917999"
     y="20.891521"
     id="rect3319"
     style="fill:none" />
  <path
     d="M 42.943639,44.04668 H 26.00084 V 24.280081 h 9.600919 l 7.34188,7.90664 V 44.04668 z"
     id="path4775"
     style="fill:#ffffff;stroke:#ffffff;stroke-width:6.77711964;stroke-linejoin:round" />
  <path
     d="M 42.943639,44.04668 H 26.00084 V 24.280081 h 9.600919 l 7.34188,7.90664 V 44.04668 z"
     id="path7"
     style="stroke:#000000;stroke-width:2.25903988;stroke-linejoin:round" />
  <path
     d="m 41.809036,32.186721 0.0034,10.732698 -14.682065,-0.0023 0.0096,-17.497393 7.879531,0.009 6.789544,6.757917 z"
     id="path9"
     style="fill:#ffffff" />
</svg>
