<?xml version="1.0" encoding="UTF-8" standalone="no"?>
<!-- Created with Inkscape (http://www.inkscape.org/) -->

<svg
   xmlns:dc="http://purl.org/dc/elements/1.1/"
   xmlns:cc="http://creativecommons.org/ns#"
   xmlns:rdf="http://www.w3.org/1999/02/22-rdf-syntax-ns#"
   xmlns:svg="http://www.w3.org/2000/svg"
   xmlns="http://www.w3.org/2000/svg"
   version="1.1"
   width="48"
   height="48"
   id="svg11300">
  <defs
     id="defs11" />
  <metadata
     id="metadata4">
    <rdf:RDF>
      <cc:Work
         rdf:about="">
        <dc:format>image/svg+xml</dc:format>
        <dc:type
           rdf:resource="http://purl.org/dc/dcmitype/StillImage" />
        <dc:creator>
          <cc:Agent>
            <dc:title>Luca Ferretti</dc:title>
          </cc:Agent>
        </dc:creator>
        <dc:source />
        <cc:license
           rdf:resource="http://creativecommons.org/licenses/LGPL/2.1/" />
        <dc:title></dc:title>
        <dc:subject>
          <rdf:Bag>
            <rdf:li>object rotate right</rdf:li>
          </rdf:Bag>
        </dc:subject>
      </cc:Work>
      <cc:License
         rdf:about="http://creativecommons.org/licenses/LGPL/2.1/">
        <cc:permits
           rdf:resource="http://web.resource.org/cc/Reproduction" />
        <cc:permits
           rdf:resource="http://web.resource.org/cc/Distribution" />
        <cc:requires
           rdf:resource="http://web.resource.org/cc/Notice" />
        <cc:permits
           rdf:resource="http://web.resource.org/cc/DerivativeWorks" />
        <cc:requires
           rdf:resource="http://web.resource.org/cc/ShareAlike" />
        <cc:requires
           rdf:resource="http://web.resource.org/cc/SourceCode" />
      </cc:License>
    </rdf:RDF>
  </metadata>
  <path
     d="m 37.888312,7.4941227 c -4.62202,0.251565 -6.293751,5.5559563 -9.139364,8.4134563 -2.44878,3.234849 -4.741508,6.487027 -7.316646,9.615379 -3.490249,-2.624383 -6.172889,-6.946832 -10.530562,-8.257206 -4.9362615,-1.039523 -8.9985858,5.394395 -5.7161305,9.229645 4.510096,4.707063 8.7715295,9.889308 14.2500725,13.501783 3.176332,1.501565 6.527993,-0.52046 8.131396,-3.33184 C 32.96336,29.664838 38.963851,22.918979 43.49173,15.352738 45.300819,11.398973 42.01263,7.4002047 37.888312,7.4941227 z"
     id="path3763"
     style="fill:#000000;fill-opacity:1;fill-rule:nonzero;stroke:#ffffff;stroke-width:8;stroke-miterlimit:4;stroke-opacity:1;stroke-dasharray:none" />
  <path
     d="m 37.888312,7.4941227 c -4.62202,0.251565 -6.293751,5.5559563 -9.139364,8.4134563 -2.44878,3.234849 -4.741508,6.487027 -7.316646,9.615379 -3.490249,-2.624383 -6.172889,-6.946832 -10.530562,-8.257206 -4.9362615,-1.039523 -8.9985858,5.394395 -5.7161305,9.229645 4.510096,4.707063 8.7715295,9.889308 14.2500725,13.501783 3.176332,1.501565 6.527993,-0.52046 8.131396,-3.33184 C 32.96336,29.664838 38.963851,22.918979 43.49173,15.352738 45.300819,11.398973 42.01263,7.4002047 37.888312,7.4941227 z"
     id="path2996"
     style="fill:#000000;fill-opacity:1;fill-rule:nonzero;stroke:none" />
</svg>
