<?xml version="1.0" encoding="UTF-8" standalone="no"?>
<!-- Created with Inkscape (http://www.inkscape.org/) -->

<svg
   xmlns:dc="http://purl.org/dc/elements/1.1/"
   xmlns:cc="http://creativecommons.org/ns#"
   xmlns:rdf="http://www.w3.org/1999/02/22-rdf-syntax-ns#"
   xmlns:svg="http://www.w3.org/2000/svg"
   xmlns="http://www.w3.org/2000/svg"
   version="1.1"
   width="48"
   height="48"
   viewBox="0 0 48 48"
   id="svg2"
   xml:space="preserve"><defs
     id="defs9" /><metadata
     id="metadata17"><rdf:RDF><cc:Work
         rdf:about=""><dc:format>image/svg+xml</dc:format><dc:type
           rdf:resource="http://purl.org/dc/dcmitype/StillImage" /><dc:title></dc:title></cc:Work></rdf:RDF></metadata><g
     id="g3765"
     style="stroke:#ffffff;stroke-width:12;stroke-miterlimit:4;stroke-opacity:1;stroke-dasharray:none"><path
       d="M 6,6.0129615 6,42"
       id="path3767"
       style="fill:none;stroke:#ffffff;stroke-width:12;stroke-linecap:round;stroke-linejoin:round;stroke-miterlimit:4;stroke-opacity:1;stroke-dasharray:none" /><path
       d="m 6,42 13.141094,0"
       id="path3769"
       style="fill:none;stroke:#ffffff;stroke-width:12;stroke-linecap:round;stroke-linejoin:round;stroke-miterlimit:4;stroke-opacity:1;stroke-dasharray:none" /><path
       d="M 6,6 19.141094,6"
       id="path3771"
       style="fill:none;stroke:#ffffff;stroke-width:12;stroke-linecap:round;stroke-linejoin:round;stroke-miterlimit:4;stroke-opacity:1;stroke-dasharray:none" /></g><g
     id="g3760"><path
       d="M 6,6.0129615 6,42"
       id="path2986"
       style="fill:none;stroke:#000000;stroke-width:4;stroke-linecap:round;stroke-linejoin:round;stroke-miterlimit:4;stroke-opacity:1;stroke-dasharray:none" /><path
       d="m 6,42 13.141094,0"
       id="path3756"
       style="fill:none;stroke:#000000;stroke-width:4;stroke-linecap:round;stroke-linejoin:round;stroke-miterlimit:4;stroke-opacity:1;stroke-dasharray:none" /><path
       d="M 6,6 19.141094,6"
       id="path3758"
       style="fill:none;stroke:#000000;stroke-width:4;stroke-linecap:round;stroke-linejoin:round;stroke-miterlimit:4;stroke-opacity:1;stroke-dasharray:none" /></g><rect
     width="48"
     height="48"
     x="0"
     y="0"
     id="rect3313"
     style="fill:none" /><g
     transform="matrix(0,1,1,0,3.888,0.11239)"
     id="g5500"><path
       d="m 41,26 c 0.3,0 0.588,-0.532 0,-1 L 25,9 C 24,8 24,8 23,9 L 7,25 c -0.5984,0.425 -0.2,1 0,1 h 10 v 13 c 0,0 0,1 1,1 h 12 c 1,0 1,-1 1,-1 V 26 h 10 z"
       id="path4046"
       style="stroke:#ffffff;stroke-width:8" /><path
       d="m 41,26 c 0.3,0 0.588,-0.532 0,-1 L 25,9 C 24,8 24,8 23,9 L 7,25 c -0.5984,0.425 -0.2,1 0,1 h 10 v 13 c 0,0 0,1 1,1 h 12 c 1,0 1,-1 1,-1 V 26 h 10 z"
       id="path9" /></g></svg>