<?xml version="1.0" encoding="UTF-8" standalone="no"?>
<!-- Created with Inkscape (http://www.inkscape.org/) -->

<svg
   xmlns:dc="http://purl.org/dc/elements/1.1/"
   xmlns:cc="http://creativecommons.org/ns#"
   xmlns:rdf="http://www.w3.org/1999/02/22-rdf-syntax-ns#"
   xmlns:svg="http://www.w3.org/2000/svg"
   xmlns="http://www.w3.org/2000/svg"
   xmlns:sodipodi="http://sodipodi.sourceforge.net/DTD/sodipodi-0.dtd"
   xmlns:inkscape="http://www.inkscape.org/namespaces/inkscape"
   version="1.0"
   width="48"
   height="48"
   viewBox="0 0 48 48"
   id="svg2"
   xml:space="preserve"
   inkscape:version="0.48.4 r9939"
   sodipodi:docname="preferences-color.svg"><sodipodi:namedview
     pagecolor="#ffffff"
     bordercolor="#666666"
     borderopacity="1"
     objecttolerance="10"
     gridtolerance="10"
     guidetolerance="10"
     inkscape:pageopacity="0"
     inkscape:pageshadow="2"
     inkscape:window-width="1366"
     inkscape:window-height="718"
     id="namedview19"
     showgrid="false"
     inkscape:zoom="4.9166667"
     inkscape:cx="0.30508491"
     inkscape:cy="24"
     inkscape:window-x="0"
     inkscape:window-y="0"
     inkscape:window-maximized="1"
     inkscape:current-layer="svg2" /><metadata
     id="metadata25"><rdf:RDF><cc:Work
         rdf:about=""><dc:format>image/svg+xml</dc:format><dc:type
           rdf:resource="http://purl.org/dc/dcmitype/StillImage" /><dc:title></dc:title></cc:Work></rdf:RDF></metadata><defs
     id="defs23" /><path
     d="m 42.120119,33.897726 a 8.2202297,8.2199454 0 1 1 -16.440459,0 8.2202297,8.2199454 0 1 1 16.440459,0 z"
     id="path3855"
     style="fill:#c90016;fill-opacity:1;stroke:#ffffff;stroke-width:7.75976229;stroke-miterlimit:4;stroke-opacity:1;stroke-dasharray:none"
     inkscape:connector-curvature="0" /><path
     d="m 22.320619,29.499103 a 8.2205079,8.2184898 0 1 1 -16.4410153,0 8.2205079,8.2184898 0 1 1 16.4410153,0 z"
     id="path3857"
     style="fill:#dd4713;fill-opacity:1;stroke:#ffffff;stroke-width:7.75920677;stroke-miterlimit:4;stroke-opacity:1;stroke-dasharray:none"
     inkscape:connector-curvature="0" /><path
     d="m 42.120119,33.897726 a 8.2202297,8.2199454 0 1 1 -16.440459,0 8.2202297,8.2199454 0 1 1 16.440459,0 z"
     id="path3763"
     style="fill:#c90016;fill-opacity:1;stroke:none"
     inkscape:connector-curvature="0" /><path
     d="m 22.320619,29.499103 a 8.2205079,8.2184898 0 1 1 -16.4410153,0 8.2205079,8.2184898 0 1 1 16.4410153,0 z"
     id="path3763-4"
     style="fill:#dd4713;fill-opacity:1;stroke:none"
     inkscape:connector-curvature="0" /><rect
     width="48"
     height="48"
     x="0"
     y="0"
     id="rect5087"
     style="fill:none" /><rect
     width="48"
     height="48"
     x="0"
     y="0"
     id="rect4784"
     style="fill:none" /><path
     d="m 35.52062,14.097803 a 8.220656,8.2177128 0 1 1 -16.441312,0 8.220656,8.2177128 0 1 1 16.441312,0 z"
     id="path3859"
     style="fill:#808080;fill-opacity:1;stroke:#ffffff;stroke-width:7.75891018;stroke-miterlimit:4;stroke-opacity:1;stroke-dasharray:none"
     inkscape:connector-curvature="0" /><path
     d="m 35.52062,14.097803 a 8.220656,8.2177128 0 1 1 -16.441312,0 8.220656,8.2177128 0 1 1 16.441312,0 z"
     id="path3763-4-8"
     style="fill:#808080;fill-opacity:1;stroke:none"
     inkscape:connector-curvature="0" /></svg>