<?xml version="1.0" encoding="UTF-8" standalone="no"?>
<!-- Created with Inkscape (http://www.inkscape.org/) -->

<svg
   xmlns:dc="http://purl.org/dc/elements/1.1/"
   xmlns:cc="http://creativecommons.org/ns#"
   xmlns:rdf="http://www.w3.org/1999/02/22-rdf-syntax-ns#"
   xmlns:svg="http://www.w3.org/2000/svg"
   xmlns="http://www.w3.org/2000/svg"
   version="1.0"
   width="48"
   height="48"
   id="svg2">
  <defs
     id="defs11" />
  <metadata
     id="metadata7">
    <rdf:RDF>
      <cc:Work
         rdf:about="">
        <dc:format>image/svg+xml</dc:format>
        <dc:type
           rdf:resource="http://purl.org/dc/dcmitype/StillImage" />
        <dc:title></dc:title>
        <dc:date>December 2008</dc:date>
        <dc:creator>
          <cc:Agent>
            <dc:title>Luca Ferretti &lt;elle.uca@libero.it&gt;</dc:title>
          </cc:Agent>
        </dc:creator>
        <dc:subject>
          <rdf:Bag>
            <rdf:li>emblem. unreadable</rdf:li>
            <rdf:li>no read</rdf:li>
          </rdf:Bag>
        </dc:subject>
        <dc:description />
      </cc:Work>
    </rdf:RDF>
  </metadata>
  <g
     id="layer1">
    <rect
       width="48"
       height="48"
       ry="0"
       x="0"
       y="0"
       id="rect3165"
       style="fill:none" />
    <path
       d="M 41,24 A 17,17 0 1 1 7,24 17,17 0 1 1 41,24 z"
       id="path3163"
       style="fill:#ffffff;stroke:#ffffff;stroke-width:14;stroke-linecap:round;stroke-linejoin:round" />
    <path
       d="M 41,24 A 17,17 0 1 1 7,24 17,17 0 1 1 41,24 z"
       id="path3157"
       style="fill:#ffffff;stroke:#000000;stroke-width:6;stroke-linecap:round;stroke-linejoin:round" />
    <path
       d="m 31.214684,16.725249 c -2.401041,0.130682 -3.26947,2.886201 -4.747706,4.370612 -1.272089,1.680436 -2.463112,3.369873 -3.800842,4.994986 -1.81311,-1.363311 -3.206685,-3.608732 -5.470404,-4.289444 -2.564284,-0.54001 -4.674575,2.802274 -2.969409,4.794606 2.3429,2.445219 4.556624,5.137285 7.402611,7.01389 1.650037,0.780031 3.391154,-0.270368 4.224088,-1.730821 2.803254,-3.636612 5.920382,-7.140943 8.272519,-11.071445 0.939784,-2.053897 -0.768361,-4.131172 -2.910857,-4.082384 z"
       id="path2996"
       style="fill:#000000;fill-opacity:1;fill-rule:nonzero;stroke:none" />
  </g>
</svg>
