<?xml version="1.0" encoding="UTF-8" standalone="no"?>
<!-- Created with Inkscape (http://www.inkscape.org/) -->

<svg
   xmlns:dc="http://purl.org/dc/elements/1.1/"
   xmlns:cc="http://creativecommons.org/ns#"
   xmlns:rdf="http://www.w3.org/1999/02/22-rdf-syntax-ns#"
   xmlns:svg="http://www.w3.org/2000/svg"
   xmlns="http://www.w3.org/2000/svg"
   version="1.1"
   width="48"
   height="48"
   viewBox="0 0 48 48"
   id="svg2"
   xml:space="preserve"><defs
   id="defs12" /><metadata
   id="metadata19"><rdf:RDF><cc:Work
       rdf:about=""><dc:format>image/svg+xml</dc:format><dc:type
         rdf:resource="http://purl.org/dc/dcmitype/StillImage" /><dc:title></dc:title><dc:creator><cc:Agent><dc:title>Luca Ferretti &lt;elle.uca@libero.it&gt;</dc:title></cc:Agent></dc:creator><cc:license
         rdf:resource="http://creativecommons.org/licenses/LGPL/2.1/" /><dc:subject><rdf:Bag><rdf:li>document new</rdf:li><rdf:li>document add</rdf:li></rdf:Bag></dc:subject><dc:description>A paper sheet with a + sign</dc:description></cc:Work><cc:License
       rdf:about="http://creativecommons.org/licenses/LGPL/2.1/"><cc:permits
         rdf:resource="http://web.resource.org/cc/Reproduction" /><cc:permits
         rdf:resource="http://web.resource.org/cc/Distribution" /><cc:requires
         rdf:resource="http://web.resource.org/cc/Notice" /><cc:permits
         rdf:resource="http://web.resource.org/cc/DerivativeWorks" /><cc:requires
         rdf:resource="http://web.resource.org/cc/ShareAlike" /><cc:requires
         rdf:resource="http://web.resource.org/cc/SourceCode" /></cc:License></rdf:RDF></metadata>
	<rect
   width="48"
   height="48"
   x="0"
   y="0"
   id="rect3319"
   style="fill:none" /><path
   d="M 39,41 H 9 V 6 h 17 l 13,14 v 21 z"
   id="path4775"
   style="fill:#ffffff;stroke:#ffffff;stroke-width:12;stroke-linejoin:round" /><path
   d="M 39,41 H 9 V 6 h 17 l 13,14 v 21 z"
   id="path7"
   style="stroke:#000000;stroke-width:4;stroke-linejoin:round" /><path
   d="M 36.991,20 36.997,39.004 11,39 11.017,8.018 24.969,8.0339 36.991,19.9999 z"
   id="path9"
   style="fill:#ffffff" />
<g
   transform="matrix(0.76029055,0,0,0.76029055,5.4479418,8.0920096)"
   id="g2548"
   style="fill:#000000;fill-opacity:1;display:inline"><g
     transform="translate(0.28125,0)"
     id="g2550"
     style="fill:#000000;fill-opacity:1;stroke:none" /><g
     transform="matrix(0.7665063,0,0,0.7437268,5.5975086,6.5151456)"
     id="g2195"
     style="fill:#000000;fill-opacity:1" /><g
     transform="matrix(0.8208993,0,0,-0.7368421,7.158786,41.315789)"
     id="layer1"
     style="fill:#000000;fill-opacity:1;stroke:none"><g
       transform="matrix(-1,0,0,1,45.9611,0)"
       id="g2302"
       style="fill:#000000;fill-opacity:1;stroke:none"><path
         d="M 17.424821,41.893434 C 0.283744,32.442251 9.935604,12.409146 26.422371,12.56649 l 0,-8.0664906 L 42.5,18.558177 26.422371,33.301549 c 0,0 0,-8.729032 0,-8.729032 -10.234617,-0.415164 -14.741673,7.26702 -5.772326,13.363448 2.567094,1.744847 0.788778,6.170696 -3.225224,3.957469 z"
         id="path2304"
         style="color:#000000;fill:#000000;fill-opacity:1;fill-rule:nonzero;stroke:none;stroke-width:0.99999887;marker:none;visibility:visible;display:block;overflow:visible" /></g></g></g></svg>