<?xml version="1.0" encoding="UTF-8" standalone="no"?>
<!-- Generator: Adobe Illustrator 9.0, SVG Export Plug-In  -->

<svg
   xmlns:dc="http://purl.org/dc/elements/1.1/"
   xmlns:cc="http://creativecommons.org/ns#"
   xmlns:rdf="http://www.w3.org/1999/02/22-rdf-syntax-ns#"
   xmlns:svg="http://www.w3.org/2000/svg"
   xmlns="http://www.w3.org/2000/svg"
   xmlns:sodipodi="http://sodipodi.sourceforge.net/DTD/sodipodi-0.dtd"
   xmlns:inkscape="http://www.inkscape.org/namespaces/inkscape"
   id="svg2"
   xml:space="preserve"
   height="48"
   width="48"
   version="1.0"
   viewBox="0 0 48 48"
   inkscape:version="0.48.3.1 r9886"
   sodipodi:docname="system-run.svg"><defs
   id="defs12" /><sodipodi:namedview
   pagecolor="#ffffff"
   bordercolor="#666666"
   borderopacity="1"
   objecttolerance="10"
   gridtolerance="10"
   guidetolerance="10"
   inkscape:pageopacity="0"
   inkscape:pageshadow="2"
   inkscape:window-width="1680"
   inkscape:window-height="999"
   id="namedview10"
   showgrid="false"
   inkscape:zoom="4.9166667"
   inkscape:cx="-10.474576"
   inkscape:cy="24"
   inkscape:window-x="0"
   inkscape:window-y="0"
   inkscape:window-maximized="1"
   inkscape:current-layer="g5" /><metadata
   id="metadata17"><rdf:RDF><cc:Work
       rdf:about=""><dc:format>image/svg+xml</dc:format><dc:type
         rdf:resource="http://purl.org/dc/dcmitype/StillImage" /></cc:Work></rdf:RDF></metadata>
	<g
   id="Layer_x0020_4"
   style="stroke:#000">
		<g
   id="g5"
   transform="translate(7.1186441,1.4237288)">
			<path
   id="path7"
   style="fill:none;stroke:#ffffff;stroke-width:10;stroke-linecap:round;stroke-linejoin:round;stroke-miterlimit:4;stroke-dasharray:none"
   d="m 35.381356,22.176271 -2.4,-8.1 -5.6,1.6 c -1.1,-1.6 -2.7,-3 -4.4,-4 l 0.9,-5.5 -9.2,-1.2 -0.8,5.3 c -0.3,0.1 -0.7,0.2 -1,0.3 -1.2,0.3 -2.3,0.9 -3.3000001,1.5 l -4.3,-3.3 -5.69999997,6.9 4.49999997,3.5 c -0.4,1.1 -0.6,2.3 -0.6,3.6 l -5.6,1.6 2.40000003,8.1 5.59999997,-1.6 c 1.1,1.6 2.7,3 4.4000001,4 l -0.9000001,5.5 9.2000001,1.2 0.8,-5.3 c 0.3,-0.1 0.7,-0.2 1,-0.3 1.2,-0.3 2.3,-0.9 3.3,-1.5 l 4.3,3.3 5.7,-6.9 -4.5,-3.5 c 0.4,-1.1 0.6,-2.3 0.6,-3.6 l 5.6,-1.6 z m -17.5,5.9 c -2.8,0.8 -5.8,-0.8 -6.7,-3.6 -0.9,-2.8 0.8,-5.8 3.6,-6.7 2.8,-0.8 5.8,0.8 6.7,3.6 0.8,2.8 -0.8,5.8 -3.6,6.7 z"
   inkscape:connector-curvature="0" />
			<path
   id="path9"
   d="m 35.381356,22.176271 -2.4,-8.1 -5.6,1.6 c -1.1,-1.6 -2.7,-3 -4.4,-4 l 0.9,-5.5 -9.2,-1.2 -0.8,5.3 c -0.3,0.1 -0.7,0.2 -1,0.3 -1.2,0.3 -2.3,0.9 -3.3000001,1.5 l -4.3,-3.3 -5.69999997,6.9 4.49999997,3.5 c -0.4,1.1 -0.6,2.3 -0.6,3.6 l -5.6,1.6 2.40000003,8.1 5.59999997,-1.6 c 1.1,1.6 2.7,3 4.4000001,4 l -0.9000001,5.5 9.2000001,1.2 0.8,-5.3 c 0.3,-0.1 0.7,-0.2 1,-0.3 1.2,-0.3 2.3,-0.9 3.3,-1.5 l 4.3,3.3 5.7,-6.9 -4.5,-3.5 c 0.4,-1.1 0.6,-2.3 0.6,-3.6 l 5.6,-1.6 z m -17.5,5.9 c -2.8,0.8 -5.8,-0.8 -6.7,-3.6 -0.9,-2.8 0.8,-5.8 3.6,-6.7 2.8,-0.8 5.8,0.8 6.7,3.6 0.8,2.8 -0.8,5.8 -3.6,6.7 z"
   inkscape:connector-curvature="0" />
		</g>
	</g>
	
</svg>