<?xml version="1.0" encoding="UTF-8" standalone="no"?>
<!-- Created with Inkscape (http://www.inkscape.org/) -->

<svg
   xmlns:dc="http://purl.org/dc/elements/1.1/"
   xmlns:cc="http://creativecommons.org/ns#"
   xmlns:rdf="http://www.w3.org/1999/02/22-rdf-syntax-ns#"
   xmlns:svg="http://www.w3.org/2000/svg"
   xmlns="http://www.w3.org/2000/svg"
   xmlns:sodipodi="http://sodipodi.sourceforge.net/DTD/sodipodi-0.dtd"
   xmlns:inkscape="http://www.inkscape.org/namespaces/inkscape"
   version="1.1"
   width="48"
   height="48"
   id="svg2160"
   inkscape:version="0.48.3.1 r9886"
   sodipodi:docname="shutdown.svg">
  <sodipodi:namedview
     pagecolor="#ffffff"
     bordercolor="#666666"
     borderopacity="1"
     objecttolerance="10"
     gridtolerance="10"
     guidetolerance="10"
     inkscape:pageopacity="0"
     inkscape:pageshadow="2"
     inkscape:window-width="889"
     inkscape:window-height="604"
     id="namedview11"
     showgrid="false"
     inkscape:zoom="4.9166667"
     inkscape:cx="19.065698"
     inkscape:cy="31.266821"
     inkscape:window-x="0"
     inkscape:window-y="0"
     inkscape:window-maximized="0"
     inkscape:current-layer="layer1" />
  <defs
     id="defs2162" />
  <metadata
     id="metadata2165">
    <rdf:RDF>
      <cc:Work
         rdf:about="">
        <dc:format>image/svg+xml</dc:format>
        <dc:type
           rdf:resource="http://purl.org/dc/dcmitype/StillImage" />
        <dc:title />
      </cc:Work>
    </rdf:RDF>
  </metadata>
  <g
     id="layer1">
    <g
       id="g3760"
       style="stroke:#ffffff;stroke-opacity:1;stroke-width:8;stroke-miterlimit:4;stroke-dasharray:none;stroke-linejoin:round;stroke-linecap:round">
      <rect
         width="6.3636365"
         height="22.727272"
         ry="3.2834594"
         x="20.818182"
         y="4"
         id="rect3756"
         style="color:#000000;fill:#000000;fill-opacity:1;fill-rule:nonzero;stroke:#ffffff;stroke-width:8;marker:none;visibility:visible;display:inline;overflow:visible;enable-background:accumulate;stroke-opacity:1;stroke-miterlimit:4;stroke-dasharray:none;stroke-linejoin:round;stroke-linecap:round" />
      <path
         d="m 13.772727,13.6875 c -0.774866,0 -1.463572,0.332827 -1.960227,0.852273 l -0.02841,-0.02841 C 8.6577273,17.637727 6.7272728,21.96 6.7272727,26.727273 6.7272727,36.261818 14.465455,44.000001 24,44 33.534545,44 41.272728,36.261817 41.272727,26.727273 41.272727,21.96 39.342273,17.637727 36.215909,14.511364 35.720154,14.000475 35.02325,13.6875 34.255682,13.6875 c -1.505457,0 -2.727273,1.221818 -2.727273,2.727273 -1e-6,0.767568 0.312975,1.464472 0.823864,1.960227 2.139091,2.139091 3.465909,5.090455 3.465909,8.352273 10e-7,6.523637 -5.294545,11.818182 -11.818182,11.818182 -6.523638,1e-6 -11.818182,-5.294545 -11.818182,-11.818182 0,-3.261818 1.326818,-6.213182 3.465909,-8.352273 C 16.158616,17.879245 16.5,17.182341 16.5,16.414773 16.5,14.909318 15.278182,13.6875 13.772727,13.6875 z"
         id="path3758"
         style="color:#000000;fill:#000000;fill-opacity:1;fill-rule:nonzero;stroke:#ffffff;stroke-width:8;marker:none;visibility:visible;display:inline;overflow:visible;enable-background:accumulate;stroke-opacity:1;stroke-miterlimit:4;stroke-dasharray:none;stroke-linejoin:round;stroke-linecap:round"
         inkscape:connector-curvature="0" />
    </g>
    <rect
       width="6.3636365"
       height="22.727272"
       ry="3.2834594"
       x="20.818182"
       y="4"
       id="rect2186"
       style="color:#000000;fill:#000000;fill-opacity:1;fill-rule:nonzero;stroke:none;stroke-width:1;marker:none;visibility:visible;display:inline;overflow:visible;enable-background:accumulate" />
    <path
       d="m 13.772727,13.6875 c -0.774866,0 -1.463572,0.332827 -1.960227,0.852273 l -0.02841,-0.02841 C 8.6577273,17.637727 6.7272728,21.96 6.7272727,26.727273 6.7272727,36.261818 14.465455,44.000001 24,44 33.534545,44 41.272728,36.261817 41.272727,26.727273 41.272727,21.96 39.342273,17.637727 36.215909,14.511364 35.720154,14.000475 35.02325,13.6875 34.255682,13.6875 c -1.505457,0 -2.727273,1.221818 -2.727273,2.727273 -1e-6,0.767568 0.312975,1.464472 0.823864,1.960227 2.139091,2.139091 3.465909,5.090455 3.465909,8.352273 10e-7,6.523637 -5.294545,11.818182 -11.818182,11.818182 -6.523638,1e-6 -11.818182,-5.294545 -11.818182,-11.818182 0,-3.261818 1.326818,-6.213182 3.465909,-8.352273 C 16.158616,17.879245 16.5,17.182341 16.5,16.414773 16.5,14.909318 15.278182,13.6875 13.772727,13.6875 z"
       id="path2181"
       style="color:#000000;fill:#000000;fill-opacity:1;fill-rule:nonzero;stroke:none;stroke-width:1;marker:none;visibility:visible;display:inline;overflow:visible;enable-background:accumulate"
       inkscape:connector-curvature="0" />
    <rect
       width="0"
       height="0"
       x="0"
       y="0"
       id="rect2219"
       style="color:#000000;fill:#ff0000;fill-opacity:1;fill-rule:evenodd;stroke:none;stroke-width:0;marker:none;visibility:visible;display:inline;overflow:visible;enable-background:accumulate" />
  </g>
</svg>
