<?xml version="1.0" encoding="UTF-8" standalone="no"?>
<!-- Created with Inkscape (http://www.inkscape.org/) -->

<svg
   xmlns:dc="http://purl.org/dc/elements/1.1/"
   xmlns:cc="http://creativecommons.org/ns#"
   xmlns:rdf="http://www.w3.org/1999/02/22-rdf-syntax-ns#"
   xmlns:svg="http://www.w3.org/2000/svg"
   xmlns="http://www.w3.org/2000/svg"
   xmlns:sodipodi="http://sodipodi.sourceforge.net/DTD/sodipodi-0.dtd"
   xmlns:inkscape="http://www.inkscape.org/namespaces/inkscape"
   version="1.1"
   width="48"
   height="48"
   viewBox="0 0 48 48"
   id="svg1358"
   xml:space="preserve"
   inkscape:version="0.48.3.1 r9886"
   sodipodi:docname="folder-system.svg"><sodipodi:namedview
   pagecolor="#ffffff"
   bordercolor="#666666"
   borderopacity="1"
   objecttolerance="10"
   gridtolerance="10"
   guidetolerance="10"
   inkscape:pageopacity="0"
   inkscape:pageshadow="2"
   inkscape:window-width="1366"
   inkscape:window-height="717"
   id="namedview12"
   showgrid="false"
   inkscape:zoom="9.8333333"
   inkscape:cx="22.446607"
   inkscape:cy="20.551053"
   inkscape:window-x="0"
   inkscape:window-y="0"
   inkscape:window-maximized="1"
   inkscape:current-layer="layer1" /><defs
   id="defs9" />
<metadata
   id="metadata1375">
  <rdf:RDF>
    <cc:Work
   rdf:about="">
      <dc:format>image/svg+xml</dc:format>
      <dc:type
   rdf:resource="http://purl.org/dc/dcmitype/StillImage" />
      <dc:title />
      <dc:description>A folder</dc:description>
      <cc:license
   rdf:resource="http://creativecommons.org/licenses/LGPL/2.1/" />
      <dc:contributor>
        <cc:Agent>
          <dc:title />
        </cc:Agent>
      </dc:contributor>
      <dc:subject>
        <rdf:Bag>
          <rdf:li>folder</rdf:li>
          <rdf:li>directory</rdf:li>
        </rdf:Bag>
      </dc:subject>
    </cc:Work>
    <cc:License
   rdf:about="http://creativecommons.org/licenses/LGPL/2.1/"><cc:permits
     rdf:resource="http://web.resource.org/cc/Reproduction" /><cc:permits
     rdf:resource="http://web.resource.org/cc/Distribution" /><cc:requires
     rdf:resource="http://web.resource.org/cc/Notice" /><cc:permits
     rdf:resource="http://web.resource.org/cc/DerivativeWorks" /><cc:requires
     rdf:resource="http://web.resource.org/cc/ShareAlike" /><cc:requires
     rdf:resource="http://web.resource.org/cc/SourceCode" /></cc:License></rdf:RDF></metadata>
	<path
   inkscape:connector-curvature="0"
   style="stroke:#ffffff;stroke-width:8;stroke-miterlimit:4;stroke-opacity:1;stroke-dasharray:none"
   id="path3753"
   d="M 6.9999999,9.3 C 4.9999999,9.3 4,10.3 4,12.3 v 25 c 0,2 1.9999999,4 3.9999999,4 H 40 c 1.999999,0 4,-2 4,-4 V 19.299999 C 44,17.3 41.999999,15.3 40,15.3 H 21.999999 v -3 c 0,-2 -1,-3 -2.999999,-3 H 6.9999999 z" /><path
   d="M 6.9999999,9.3 C 4.9999999,9.3 4,10.3 4,12.3 v 25 c 0,2 1.9999999,4 3.9999999,4 H 40 c 1.999999,0 4,-2 4,-4 V 19.299999 C 44,17.3 41.999999,15.3 40,15.3 H 21.999999 v -3 c 0,-2 -1,-3 -2.999999,-3 H 6.9999999 z"
   id="path1365"
   style="stroke:none"
   inkscape:connector-curvature="0" /><rect
   width="51"
   height="51"
   x="-1.75"
   y="0.15254237"
   id="rect4762"
   style="fill:none" />
<g
   transform="matrix(0.47457627,0,0,0.47457627,19.725,17.084745)"
   id="layer1"><rect
     width="42.204399"
     height="41.569721"
     ry="0"
     x="1.6330357"
     y="2.7124233"
     id="rect3942"
     style="fill:none" /><path
     d="m 22.680719,7.0426898 c 4.278472,-0.128433 0.242676,4.0190982 4.202855,5.6196192 4.267042,1.725144 4.227474,-3.9672232 7.587121,-0.853911 3.11697,2.888229 -2.713392,3.011207 -1.063024,6.900574 1.779619,4.191613 5.838275,0.139431 5.978077,4.680924 0.13101,4.213264 -4.079758,0.239026 -5.704628,4.138786 -1.751482,4.202872 4.027004,4.164766 0.86695,7.473889 -2.933206,3.070098 -3.057182,-2.673453 -7.005932,-1.047037 -4.256489,1.75199 -0.14156,5.749612 -4.75239,5.888178 -4.278471,0.128173 -0.242676,-4.019273 -4.202855,-5.619707 -4.267041,-1.725144 -4.227474,3.967311 -7.587119,0.853911 -3.1171459,-2.888229 2.71339,-3.011206 1.063022,-6.900574 -1.779265,-4.191613 -5.8379215,-0.139431 -5.978427,-4.680924 -0.130394,-4.213264 4.080462,-0.239026 5.704978,-4.138786 1.751482,-4.202872 -4.0273531,-4.164766 -0.866948,-7.473456 2.933205,-3.0702692 3.05718,2.67302 7.00593,1.046864 4.256489,-1.752337 0.14156,-5.7499582 4.75239,-5.8883502 z"
     id="path2190"
     style="fill-rule:evenodd;stroke:#ffffff;stroke-width:6.9809761"
     inkscape:connector-curvature="0" /><path
     d="m 22.680719,7.0426898 c 4.278472,-0.128433 0.242676,4.0190982 4.202855,5.6196192 4.267042,1.725144 4.227474,-3.9672232 7.587121,-0.853911 3.11697,2.888229 -2.713392,3.011207 -1.063024,6.900574 1.779619,4.191613 5.838275,0.139431 5.978077,4.680924 0.13101,4.213264 -4.079758,0.239026 -5.704628,4.138786 -1.751482,4.202872 4.027004,4.164766 0.86695,7.473889 -2.933206,3.070098 -3.057182,-2.673453 -7.005932,-1.047037 -4.256489,1.75199 -0.14156,5.749612 -4.75239,5.888178 -4.278471,0.128173 -0.242676,-4.019273 -4.202855,-5.619707 -4.267041,-1.725144 -4.227474,3.967311 -7.587119,0.853911 -3.1171459,-2.888229 2.71339,-3.011206 1.063022,-6.900574 -1.779265,-4.191613 -5.8379215,-0.139431 -5.978427,-4.680924 -0.130394,-4.213264 4.080462,-0.239026 5.704978,-4.138786 1.751482,-4.202872 -4.0273531,-4.164766 -0.866948,-7.473456 2.933205,-3.0702692 3.05718,2.67302 7.00593,1.046864 4.256489,-1.752337 0.14156,-5.7499582 4.75239,-5.8883502 z"
     id="path1315"
     style="fill-rule:evenodd"
     inkscape:connector-curvature="0" /><path
     d="m 27.227529,23.551845 a 4.444387,4.2760522 0 1 1 -8.888422,0 4.444387,4.2760522 0 1 1 8.888422,0 z"
     id="path3065"
     style="fill:#ffffff;fill-rule:evenodd"
     inkscape:connector-curvature="0" /></g></svg>