<?xml version="1.0" encoding="UTF-8" standalone="no"?>
<!-- Created with Inkscape (http://www.inkscape.org/) -->

<svg
   xmlns:dc="http://purl.org/dc/elements/1.1/"
   xmlns:cc="http://creativecommons.org/ns#"
   xmlns:rdf="http://www.w3.org/1999/02/22-rdf-syntax-ns#"
   xmlns:svg="http://www.w3.org/2000/svg"
   xmlns="http://www.w3.org/2000/svg"
   version="1.1"
   width="48"
   height="48"
   viewBox="0 0 48 48"
   id="svg1358"
   xml:space="preserve"><defs
   id="defs9" />
<metadata
   id="metadata1375">
  <rdf:RDF>
    <cc:Work
   rdf:about="">
      <dc:format>image/svg+xml</dc:format>
      <dc:type
   rdf:resource="http://purl.org/dc/dcmitype/StillImage" />
      <dc:title></dc:title>
      <dc:description>A folder</dc:description>
      <cc:license
   rdf:resource="http://creativecommons.org/licenses/LGPL/2.1/" />
      <dc:contributor>
        <cc:Agent>
          <dc:title />
        </cc:Agent>
      </dc:contributor>
      <dc:subject>
        <rdf:Bag>
          <rdf:li>folder</rdf:li>
          <rdf:li>directory</rdf:li>
        </rdf:Bag>
      </dc:subject>
    </cc:Work>
    <cc:License
   rdf:about="http://creativecommons.org/licenses/LGPL/2.1/"><cc:permits
     rdf:resource="http://web.resource.org/cc/Reproduction" /><cc:permits
     rdf:resource="http://web.resource.org/cc/Distribution" /><cc:requires
     rdf:resource="http://web.resource.org/cc/Notice" /><cc:permits
     rdf:resource="http://web.resource.org/cc/DerivativeWorks" /><cc:requires
     rdf:resource="http://web.resource.org/cc/ShareAlike" /><cc:requires
     rdf:resource="http://web.resource.org/cc/SourceCode" /></cc:License></rdf:RDF></metadata>
	<rect
   width="48"
   height="48"
   x="0"
   y="0"
   id="rect4762"
   style="fill:none" /><path
   d="M 5.7711864,5.7288136 C 4.2570621,5.7288136 3.5,6.4858757 3.5,8 v 18.926554 c 0,1.514124 1.5141243,3.028248 3.0282486,3.028248 H 30.754238 c 1.514123,0 3.028248,-1.514124 3.028248,-3.028248 v -13.62712 c 0,-1.514123 -1.514125,-3.028247 -3.028248,-3.028247 H 17.127118 V 8 c 0,-1.5141243 -0.757062,-2.2711864 -2.271186,-2.2711864 H 5.7711864 z"
   id="path9126"
   style="fill:#ffffff;stroke:#ffffff;stroke-width:7;stroke-linecap:round;stroke-linejoin:round;stroke-miterlimit:4;stroke-dasharray:none" /><path
   d="M 5.7711864,5.7288136 C 4.2570621,5.7288136 3.5,6.4858757 3.5,8 v 18.926554 c 0,1.514124 1.5141243,3.028248 3.0282486,3.028248 H 30.754238 c 1.514123,0 3.028248,-1.514124 3.028248,-3.028248 v -13.62712 c 0,-1.514123 -1.514125,-3.028247 -3.028248,-3.028247 H 17.127118 V 8 c 0,-1.5141243 -0.757062,-2.2711864 -2.271186,-2.2711864 H 5.7711864 z"
   id="path1365"
   style="fill:#999999" />
<path
   d="M 16.271187,16.564972 C 14.757062,16.564972 14,17.322034 14,18.836159 v 18.926553 c 0,1.514124 1.514125,3.028248 3.028249,3.028248 h 24.225989 c 1.514123,0 3.028248,-1.514124 3.028248,-3.028248 v -13.62712 c 0,-1.514122 -1.514125,-3.028246 -3.028248,-3.028246 h -13.62712 v -2.271187 c 0,-1.514125 -0.757062,-2.271187 -2.271186,-2.271187 h -9.084745 z"
   id="path9126-6"
   style="fill:#ffffff;stroke:#ffffff;stroke-width:7;stroke-linecap:round;stroke-linejoin:round;stroke-miterlimit:4;stroke-dasharray:none" /><path
   d="M 16.271187,16.564972 C 14.757062,16.564972 14,17.322034 14,18.836159 v 18.926553 c 0,1.514124 1.514125,3.028248 3.028249,3.028248 h 24.225989 c 1.514123,0 3.028248,-1.514124 3.028248,-3.028248 v -13.62712 c 0,-1.514122 -1.514125,-3.028246 -3.028248,-3.028246 h -13.62712 v -2.271187 c 0,-1.514125 -0.757062,-2.271187 -2.271186,-2.271187 h -9.084745 z"
   id="path1365-5"
   style="fill:#000000" /></svg>