<?xml version="1.0" encoding="UTF-8" standalone="no"?>
<!-- Generator: Adobe Illustrator 9.0, SVG Export Plug-In  -->

<svg
   xmlns:dc="http://purl.org/dc/elements/1.1/"
   xmlns:cc="http://creativecommons.org/ns#"
   xmlns:rdf="http://www.w3.org/1999/02/22-rdf-syntax-ns#"
   xmlns:svg="http://www.w3.org/2000/svg"
   xmlns="http://www.w3.org/2000/svg"
   xmlns:sodipodi="http://sodipodi.sourceforge.net/DTD/sodipodi-0.dtd"
   xmlns:inkscape="http://www.inkscape.org/namespaces/inkscape"
   id="svg3737"
   xml:space="preserve"
   height="48"
   width="48"
   version="1.0"
   viewBox="0 0 48 48"
   inkscape:version="0.48.3.1 r9886"
   sodipodi:docname="view-refresh.svg"><defs
   id="defs12" /><sodipodi:namedview
   pagecolor="#ffffff"
   bordercolor="#666666"
   borderopacity="1"
   objecttolerance="10"
   gridtolerance="10"
   guidetolerance="10"
   inkscape:pageopacity="0"
   inkscape:pageshadow="2"
   inkscape:window-width="640"
   inkscape:window-height="480"
   id="namedview10"
   showgrid="false"
   inkscape:zoom="4.9166667"
   inkscape:cx="24"
   inkscape:cy="24"
   inkscape:window-x="0"
   inkscape:window-y="0"
   inkscape:window-maximized="0"
   inkscape:current-layer="svg3737" /><metadata
   id="metadata3756"><rdf:RDF><cc:Work
       rdf:about=""><dc:format>image/svg+xml</dc:format><dc:type
         rdf:resource="http://purl.org/dc/dcmitype/StillImage" /><dc:title>Reload View</dc:title><dc:creator><cc:Agent><dc:title>Jakub Stainer &lt;jimmac@novell.com&gt;</dc:title></cc:Agent></dc:creator><dc:subject><rdf:Bag><rdf:li>reload</rdf:li><rdf:li>view</rdf:li><rdf:li>refresh</rdf:li><rdf:li>update</rdf:li></rdf:Bag></dc:subject><dc:contributor><cc:Agent><dc:title>Luca Ferretti &lt;elle.uca@libero.it&gt;</dc:title></cc:Agent></dc:contributor><cc:license
         rdf:resource="http://creativecommons.org/licenses/LGPL/2.1/" /></cc:Work><cc:License
       rdf:about="http://creativecommons.org/licenses/LGPL/2.1/"><cc:permits
         rdf:resource="http://web.resource.org/cc/Reproduction" /><cc:permits
         rdf:resource="http://web.resource.org/cc/Distribution" /><cc:requires
         rdf:resource="http://web.resource.org/cc/Notice" /><cc:permits
         rdf:resource="http://web.resource.org/cc/DerivativeWorks" /><cc:requires
         rdf:resource="http://web.resource.org/cc/ShareAlike" /><cc:requires
         rdf:resource="http://web.resource.org/cc/SourceCode" /></cc:License></rdf:RDF></metadata>
	<path
   id="path5537"
   style="fill:#fff;fill-rule:evenodd"
   d="m47 24a23 23 0 1 1 -46 0 23 23 0 1 1 46 0z" /><path
   id="path6424"
   style="fill-rule:evenodd"
   d="m43 24a19 19 0 1 1 -38 0 19 19 0 1 1 38 0z" /><path
   id="path3746"
   style="fill:#fff"
   d="m29.1 8.9c0-0.1-0.2-0.2-0.2-0.1l-8 8.1c-0.3 0.3-0.2 0.3 0 0.5l8 8c0.1 0.1 0.2 0 0.2-0.1l-0.1-5.3h2c2 0 3 0.2 3 2v3c0 2-3.9 2.3-3.9 2.9s0.9 1.1 0.9 1.1h3c2.7 0 4-2.4 4-5v-4c0-4.2-2.6-6-6-6h-3v-5.1h0.1z" />
	
<path
   id="path7311"
   style="fill:#fff"
   d="m18.9 39.1c0 0.1 0.2 0.2 0.2 0.1l8-8.1c0.3-0.3 0.2-0.3 0-0.5l-8-8c-0.1-0.1-0.2 0-0.2 0.1l0.1 5.3h-2c-2 0-3-0.2-3-2v-3c0-2 3.9-2.3 3.9-2.9s-0.9-1.1-0.9-1.1h-3c-2.7 0-4 2.4-4 5v4c0 4.2 2.6 6 6 6h3v5.1h-0.1z" /></svg>