<?xml version="1.0" encoding="UTF-8" standalone="no"?>
<!-- Created with Inkscape (http://www.inkscape.org/) -->

<svg
   xmlns:dc="http://purl.org/dc/elements/1.1/"
   xmlns:cc="http://creativecommons.org/ns#"
   xmlns:rdf="http://www.w3.org/1999/02/22-rdf-syntax-ns#"
   xmlns:svg="http://www.w3.org/2000/svg"
   xmlns="http://www.w3.org/2000/svg"
   xmlns:xlink="http://www.w3.org/1999/xlink"
   xmlns:sodipodi="http://sodipodi.sourceforge.net/DTD/sodipodi-0.dtd"
   xmlns:inkscape="http://www.inkscape.org/namespaces/inkscape"
   id="svg3172"
   height="22"
   width="18"
   version="1.0"
   inkscape:version="0.91 r13725"
   sodipodi:docname="account-logged-in.svg">
  <defs
     id="defs9">
    <linearGradient
       inkscape:collect="always"
       xlink:href="#linearGradient3678"
       id="linearGradient3684"
       x1="9.1701241"
       y1="3"
       x2="9.311203"
       y2="15"
       gradientUnits="userSpaceOnUse"
       gradientTransform="matrix(1.0717621,0,0,1.0717621,-39.606244,-12.613667)" />
    <linearGradient
       id="linearGradient3678">
      <stop
         style="stop-color:#ffffff;stop-opacity:1;"
         offset="0"
         id="stop3680" />
      <stop
         style="stop-color:#e6e6e6;stop-opacity:1;"
         offset="1"
         id="stop3682" />
    </linearGradient>
    <linearGradient
       inkscape:collect="always"
       xlink:href="#linearGradient3678"
       id="linearGradient3692"
       x1="15"
       y1="8"
       x2="15"
       y2="20"
       gradientUnits="userSpaceOnUse"
       gradientTransform="matrix(1.0717621,0,0,1.0717621,-39.606244,-12.613667)" />
    <linearGradient
       inkscape:collect="always"
       xlink:href="#linearGradient3678"
       id="linearGradient4166"
       x1="8.85534"
       y1="3.8800924"
       x2="8.85534"
       y2="18.118107"
       gradientUnits="userSpaceOnUse" />
  </defs>
  <sodipodi:namedview
     pagecolor="#ffffff"
     bordercolor="#666666"
     borderopacity="1"
     objecttolerance="10"
     gridtolerance="10"
     guidetolerance="10"
     inkscape:pageopacity="0"
     inkscape:pageshadow="2"
     inkscape:window-width="1920"
     inkscape:window-height="1029"
     id="namedview7"
     showgrid="false"
     inkscape:zoom="42.909091"
     inkscape:cx="8.0363455"
     inkscape:cy="10.688594"
     inkscape:window-x="0"
     inkscape:window-y="0"
     inkscape:window-maximized="1"
     inkscape:current-layer="svg3172" />
  <metadata
     id="metadata10">
    <rdf:RDF>
      <cc:Work
         rdf:about="">
        <dc:format>image/svg+xml</dc:format>
        <dc:type
           rdf:resource="http://purl.org/dc/dcmitype/StillImage" />
        <dc:title />
      </cc:Work>
    </rdf:RDF>
  </metadata>
  <path
     id="path2396-7"
     d="m9 5c-3.864 0-7 3.136-7 7s3.136 7 7 7 7-3.136 7-7-3.136-7-7-7zm3 2 2 2-5.5 7.5-4-3.5 2-2 2 2 3.5-6z"
     style="opacity:0.5" />
  <path
     id="path2396"
     d="m9 3.9992c-3.864 0-7 3.136-7 6.9998 0 3.864 3.136 7 7 7s7-3.136 7-7c0-3.8638-3.136-6.9998-7-6.9998zm3 2 2 2l-5.5 7.4998-4-3.5 2-1.9998 2 1.9998 3.5-5.9998z"
     style="fill:url(#linearGradient4166);fill-opacity:1" />
  <path
     style="display:inline;overflow:visible;visibility:visible;opacity:0.5;fill:#000000;fill-opacity:1;fill-rule:nonzero;stroke:none;stroke-width:1;marker:none;enable-background:accumulate"
     d="m -32.10391,-8.3266188 -5.35881,5.3588103 3.215286,0 0,7.5023348 4.287049,0 0,-7.5023348 3.215285,0 -5.35881,-5.3588103 z m 6.430574,5.3588103 0,7.5023348 -3.215287,0 5.35881,5.35881 5.35881,-5.35881 -3.215288,0 0,-7.5023348 -4.287045,0 z"
     id="path4348-1-7"
     inkscape:connector-curvature="0" />
  <path
     d="m -18.171004,3.4627643 -5.358809,5.35881 -5.35881,-5.35881 3.215286,0 0,-7.5023351 4.287046,0 0,7.5023351 3.215287,0 z"
     id="path4348-1"
     style="display:inline;overflow:visible;visibility:visible;fill:url(#linearGradient3692);fill-opacity:1;fill-rule:nonzero;stroke:none;stroke-width:1;marker:none;enable-background:accumulate"
     inkscape:connector-curvature="0" />
  <path
     d="m -26.7451,-4.0395708 -5.35881,-5.3588099 -5.35881,5.3588099 3.215286,0 0,7.5023351 4.287049,0 0,-7.5023351 3.215285,0 z"
     id="path4348-1-3"
     style="display:inline;overflow:visible;visibility:visible;fill:url(#linearGradient3684);fill-opacity:1;fill-rule:nonzero;stroke:none;stroke-width:1;marker:none;enable-background:accumulate"
     inkscape:connector-curvature="0" />
</svg>
