<?xml version="1.0" encoding="UTF-8" standalone="no"?>
<!-- Created with Inkscape (http://www.inkscape.org/) -->

<svg
   xmlns:dc="http://purl.org/dc/elements/1.1/"
   xmlns:cc="http://creativecommons.org/ns#"
   xmlns:rdf="http://www.w3.org/1999/02/22-rdf-syntax-ns#"
   xmlns:svg="http://www.w3.org/2000/svg"
   xmlns="http://www.w3.org/2000/svg"
   xmlns:xlink="http://www.w3.org/1999/xlink"
   xmlns:sodipodi="http://sodipodi.sourceforge.net/DTD/sodipodi-0.dtd"
   xmlns:inkscape="http://www.inkscape.org/namespaces/inkscape"
   id="svg3795"
   height="22"
   width="20"
   version="1.1"
   inkscape:version="0.91 r13725"
   sodipodi:docname="user-available-panel.svg">
  <defs
     id="defs9">
    <linearGradient
       id="linearGradient3678">
      <stop
         style="stop-color:#ffffff;stop-opacity:1;"
         offset="0"
         id="stop3680" />
      <stop
         style="stop-color:#e6e6e6;stop-opacity:1;"
         offset="1"
         id="stop3682" />
    </linearGradient>
    <linearGradient
       inkscape:collect="always"
       xlink:href="#linearGradient3678"
       id="linearGradient4166"
       x1="8.85534"
       y1="-2.0145078"
       x2="8.85534"
       y2="13.014507"
       gradientUnits="userSpaceOnUse" />
  </defs>
  <sodipodi:namedview
     pagecolor="#ffffff"
     bordercolor="#666666"
     borderopacity="1"
     objecttolerance="10"
     gridtolerance="10"
     guidetolerance="10"
     inkscape:pageopacity="0"
     inkscape:pageshadow="2"
     inkscape:window-width="1920"
     inkscape:window-height="1029"
     id="namedview7"
     showgrid="false"
     inkscape:zoom="15.170655"
     inkscape:cx="16.099706"
     inkscape:cy="7.3429077"
     inkscape:window-x="0"
     inkscape:window-y="0"
     inkscape:window-maximized="1"
     inkscape:current-layer="layer1" />
  <metadata
     id="metadata3800">
    <rdf:RDF>
      <cc:Work
         rdf:about="">
        <dc:format>image/svg+xml</dc:format>
        <dc:type
           rdf:resource="http://purl.org/dc/dcmitype/StillImage" />
        <dc:title />
      </cc:Work>
    </rdf:RDF>
  </metadata>
  <g
     id="layer1"
     transform="translate(0,6)">
    <path
       id="path2396-2"
       style="opacity:0.5;fill-rule:evenodd"
       d="m9.5-1c-4.14 0-7.5 3.36-7.5 7.5s3.36 7.5 7.5 7.5c1.9648 0 3.7561-0.76222 5.0938-2h5.406l-3.344-3.3438c0.208-0.6876 0.344-1.401 0.344-2.1562 0-4.14-3.36-7.5-7.5-7.5z" />
    <path
       id="path2396"
       style="fill-rule:evenodd;fill:url(#linearGradient4166);fill-opacity:1"
       d="m9.5-2c-4.14 0-7.5 3.36-7.5 7.5s3.36 7.5 7.5 7.5c1.9648 0 3.7561-0.76222 5.0938-2h5.406l-3.344-3.3438c0.208-0.6876 0.344-1.401 0.344-2.1562 0-4.14-3.36-7.5-7.5-7.5z" />
  </g>
</svg>
