<?xml version="1.0" encoding="UTF-8" standalone="no"?>
<!-- Created with Inkscape (http://www.inkscape.org/) -->

<svg
   xmlns:dc="http://purl.org/dc/elements/1.1/"
   xmlns:cc="http://creativecommons.org/ns#"
   xmlns:rdf="http://www.w3.org/1999/02/22-rdf-syntax-ns#"
   xmlns:svg="http://www.w3.org/2000/svg"
   xmlns="http://www.w3.org/2000/svg"
   xmlns:xlink="http://www.w3.org/1999/xlink"
   xmlns:sodipodi="http://sodipodi.sourceforge.net/DTD/sodipodi-0.dtd"
   xmlns:inkscape="http://www.inkscape.org/namespaces/inkscape"
   version="1.0"
   width="22"
   height="22"
   id="svg2"
   sodipodi:version="0.32"
   inkscape:version="0.91 r13725"
   sodipodi:docname="gnome-mplayer-panel.svg"
   inkscape:output_extension="org.inkscape.output.svg.inkscape">
  <metadata
     id="metadata31">
    <rdf:RDF>
      <cc:Work
         rdf:about="">
        <dc:format>image/svg+xml</dc:format>
        <dc:type
           rdf:resource="http://purl.org/dc/dcmitype/StillImage" />
        <dc:title></dc:title>
      </cc:Work>
    </rdf:RDF>
  </metadata>
  <sodipodi:namedview
     inkscape:window-height="1029"
     inkscape:window-width="1920"
     inkscape:pageshadow="2"
     inkscape:pageopacity="0.0"
     guidetolerance="10000"
     gridtolerance="10000"
     objecttolerance="10000"
     borderopacity="1.0"
     bordercolor="#666666"
     pagecolor="#ffffff"
     id="base"
     width="48px"
     height="48px"
     showgrid="true"
     inkscape:zoom="8.8000002"
     inkscape:cx="37.042269"
     inkscape:cy="19.302653"
     inkscape:window-x="0"
     inkscape:window-y="0"
     inkscape:current-layer="g3855"
     inkscape:window-maximized="1" />
  <defs
     id="defs4">
    <linearGradient
       id="linearGradient3655">
      <stop
         style="stop-color:white;stop-opacity:1"
         offset="0"
         id="stop3657" />
      <stop
         style="stop-color:white;stop-opacity:0"
         offset="1"
         id="stop3659" />
    </linearGradient>
    <linearGradient
       x1="108.11752"
       y1="16.246464"
       x2="108.97424"
       y2="24.144896"
       id="linearGradient1969"
       xlink:href="#linearGradient3655"
       gradientUnits="userSpaceOnUse"
       gradientTransform="matrix(0,-1,1,0,-4.523091,226.3445)" />
    <linearGradient
       x1="108.11752"
       y1="16.246464"
       x2="108.97424"
       y2="24.144896"
       id="linearGradient1971"
       xlink:href="#linearGradient3655"
       gradientUnits="userSpaceOnUse"
       gradientTransform="matrix(0,1,-1,0,220.9148,-49.35703)" />
    <linearGradient
       x1="108.11752"
       y1="16.246464"
       x2="108.97424"
       y2="24.144896"
       id="linearGradient1973"
       xlink:href="#linearGradient3655"
       gradientUnits="userSpaceOnUse" />
    <linearGradient
       x1="108.11752"
       y1="16.246464"
       x2="108.97424"
       y2="24.144896"
       id="linearGradient1975"
       xlink:href="#linearGradient3655"
       gradientUnits="userSpaceOnUse"
       gradientTransform="matrix(-1,0,0,-1,216.0238,177.6105)" />
  </defs>
  <g
     id="g3855"
     transform="matrix(0.52347129,0,0,0.52347129,11.816905,-14.253003)">
    <g
       id="g3138"
       transform="matrix(1.0177091,0,0,1.0177091,-27.432048,22.086647)">
      <rect
         id="rect2176"
         transform="matrix(0,-1,1,0,0,0)"
         height="28.982872"
         width="32.39262"
         y="9.3195877"
         x="-40.113483"
         style="fill:#e6e6e6;fill-opacity:1;stroke:#ffffff;stroke-width:1.58405697;stroke-linecap:round;stroke-linejoin:round;stroke-miterlimit:4;stroke-opacity:1;stroke-dasharray:none" />
      <rect
         id="rect5113"
         style="fill:#000000;fill-opacity:1"
         transform="matrix(0,-1,1,0,0,0)"
         ry="0.73469877"
         height="2.4795699"
         width="3.3297057"
         y="11.038612"
         x="-38.441856" />
      <use
         id="use6084"
         xlink:href="#rect5113"
         transform="translate(-0.01412914,-5.1482105)"
         height="48"
         width="48"
         y="0"
         x="0"
         style="fill:#000000;fill-opacity:1" />
      <use
         id="use6086"
         xlink:href="#rect5113"
         transform="translate(-0.01412914,-10.262494)"
         height="48"
         width="48"
         y="0"
         x="0"
         style="fill:#000000;fill-opacity:1" />
      <use
         id="use6090"
         xlink:href="#rect5113"
         transform="translate(-0.01412914,-15.377119)"
         height="48"
         width="48"
         y="0"
         x="0"
         style="fill:#000000;fill-opacity:1" />
      <use
         id="use6092"
         xlink:href="#rect5113"
         transform="translate(-0.01412914,-20.571872)"
         height="48"
         width="48"
         y="0"
         x="0"
         style="fill:#000000;fill-opacity:1" />
      <use
         id="use6094"
         xlink:href="#rect5113"
         transform="translate(-0.01412914,-25.686497)"
         height="48"
         width="48"
         y="0"
         x="0"
         style="fill:#000000;fill-opacity:1" />
      <use
         style="fill:#000000;fill-opacity:1"
         id="use6098"
         xlink:href="#rect5113"
         transform="translate(23.079743,-0.03359712)"
         height="48"
         width="48"
         y="0"
         x="0" />
      <use
         style="fill:#000000;fill-opacity:1"
         id="use6100"
         xlink:href="#rect5113"
         transform="translate(23.001319,-5.1482105)"
         height="48"
         width="48"
         y="0"
         x="0" />
      <use
         style="fill:#000000;fill-opacity:1"
         id="use6102"
         xlink:href="#rect5113"
         transform="translate(23.001319,-10.262494)"
         height="48"
         width="48"
         y="0"
         x="0" />
      <use
         style="fill:#000000;fill-opacity:1"
         id="use6104"
         xlink:href="#rect5113"
         transform="translate(23.079743,-15.457248)"
         height="48"
         width="48"
         y="0"
         x="0" />
      <use
         style="fill:#000000;fill-opacity:1"
         id="use6106"
         xlink:href="#rect5113"
         transform="translate(23.079743,-20.571872)"
         height="48"
         width="48"
         y="0"
         x="0" />
      <use
         style="fill:#000000;fill-opacity:1"
         id="use6108"
         xlink:href="#rect5113"
         transform="translate(23.001319,-25.686497)"
         height="48"
         width="48"
         y="0"
         x="0" />
      <rect
         id="rect2188"
         style="fill:#000000;fill-opacity:1"
         rx="1.255896"
         ry="1.3187207"
         height="12.729447"
         width="17.048748"
         y="25.622047"
         x="15.286649" />
      <rect
         id="rect2190"
         style="fill:#000000;fill-opacity:1"
         rx="1.255896"
         ry="1.3187207"
         height="12.729447"
         width="17.048748"
         y="9.4825935"
         x="15.286649" />
    </g>
    <path
       transform="matrix(1.5232558,0,0,1.5232558,-37.94137,9.6816411)"
       d="m 33.977272,32.090908 a 4.8863635,4.8863635 0 0 1 -4.886364,4.886364 4.8863635,4.8863635 0 0 1 -4.886363,-4.886364 4.8863635,4.8863635 0 0 1 4.886363,-4.886363 4.8863635,4.8863635 0 0 1 4.886364,4.886363 z"
       sodipodi:ry="4.8863635"
       sodipodi:rx="4.8863635"
       sodipodi:cy="32.090908"
       sodipodi:cx="29.090908"
       id="path3853"
       style="fill:#000000;fill-opacity:1;stroke:none"
       sodipodi:type="arc" />
    <g
       transform="matrix(0.17918475,0,0,0.18115615,-22.001571,32.21742)"
       id="layer1"
       style="fill:#ffffff;fill-opacity:1">
      <g
         id="g2020"
         style="fill:#ffffff;fill-opacity:1">
        <g
           id="g3763"
           transform="matrix(1,0,0,0.930282,0,0.766728)"
           style="fill:#ffffff;fill-opacity:1">
          <g
             id="g3758"
             style="fill:#ffffff;fill-opacity:1" />
          <g
             id="g3753"
             style="fill:#ffffff;fill-opacity:1" />
        </g>
        <g
           id="g2012"
           style="fill:#ffffff;fill-opacity:1">
          <g
             id="g2006"
             style="fill:#ffffff;fill-opacity:1" />
        </g>
        <g
           id="g3675"
           transform="translate(0,-10)"
           style="fill:#ffffff;fill-opacity:1">
          <path
             inkscape:connector-curvature="0"
             id="path6330"
             style="fill:#e6e6e6;fill-opacity:1;fill-rule:evenodd;stroke:none"
             d="m 140.95734,128.20425 49.17835,28.5036 -49.26786,26.98876 0.0895,-55.49236 z" />
        </g>
      </g>
    </g>
    <path
       inkscape:connector-curvature="0"
       id="path5443"
       d="m 6.1518361,49.715971 c -4.761623,0.0021 -8.641959,3.929946 -8.679261,8.746444 -1.78e-4,0.02287 -0.0056,0.04503 -0.0056,0.06793 -1.7e-5,0.0038 -1.7e-5,0.0075 0,0.01132 -4e-6,0.0019 -4e-6,0.0038 0,0.0056 1.7e-4,0.03781 0.0021,0.07559 0.0056,0.113223 0.07098,4.795565 3.949435,8.691916 8.696059,8.684174 4.7842229,-0.0078 8.6785439,-3.977898 8.6736619,-8.825701 -0.0048,-4.847805 -3.906232,-8.80518 -8.6904599,-8.803056 z m 0,2.496558 c 3.4445237,-0.0015 6.2175409,2.808319 6.2210689,6.312159 0.0035,3.503839 -2.7597492,6.317862 -6.2042709,6.323482 -3.444523,0.0056 -6.22469999,-2.802668 -6.23226999,-6.306498 1.8e-5,-0.0038 1.8e-5,-0.0075 0,-0.01132 5.11e-4,-3.50384 2.77094799,-6.316292 6.21547199,-6.31782 z"
       style="color:#000000;fill:#e6e6e6;fill-opacity:1;fill-rule:nonzero;stroke:none;stroke-width:13.78605175;marker:none;visibility:visible;display:inline;overflow:visible" />
  </g>
</svg>
