<?xml version="1.0" encoding="UTF-8" standalone="no"?>
<!-- Created with Inkscape (http://www.inkscape.org/) -->

<svg
   xmlns:dc="http://purl.org/dc/elements/1.1/"
   xmlns:cc="http://creativecommons.org/ns#"
   xmlns:rdf="http://www.w3.org/1999/02/22-rdf-syntax-ns#"
   xmlns:svg="http://www.w3.org/2000/svg"
   xmlns="http://www.w3.org/2000/svg"
   xmlns:xlink="http://www.w3.org/1999/xlink"
   xmlns:sodipodi="http://sodipodi.sourceforge.net/DTD/sodipodi-0.dtd"
   xmlns:inkscape="http://www.inkscape.org/namespaces/inkscape"
   id="svg2"
   height="22"
   width="22"
   version="1.1"
   inkscape:version="0.91 r13725"
   sodipodi:docname="indicator-appmenu-menu-panel.svg">
  <defs
     id="defs14">
    <linearGradient
       inkscape:collect="always"
       xlink:href="#linearGradient3678"
       id="linearGradient4150"
       x1="12.771187"
       y1="8.0487289"
       x2="12.771187"
       y2="15.016949"
       gradientUnits="userSpaceOnUse"
       gradientTransform="matrix(1.3787076,0,0,1.3787076,-7.612553,-4.1657839)" />
    <linearGradient
       inkscape:collect="always"
       xlink:href="#linearGradient3678"
       id="linearGradient3684"
       x1="9.1701241"
       y1="3"
       x2="9.311203"
       y2="15"
       gradientUnits="userSpaceOnUse"
       gradientTransform="matrix(1.0717621,0,0,1.0717621,-33.014571,-13.932002)" />
    <linearGradient
       id="linearGradient3678">
      <stop
         style="stop-color:#ffffff;stop-opacity:1;"
         offset="0"
         id="stop3680" />
      <stop
         style="stop-color:#e6e6e6;stop-opacity:1;"
         offset="1"
         id="stop3682" />
    </linearGradient>
    <linearGradient
       inkscape:collect="always"
       xlink:href="#linearGradient3678"
       id="linearGradient3692"
       x1="15"
       y1="8"
       x2="15"
       y2="20"
       gradientUnits="userSpaceOnUse"
       gradientTransform="matrix(1.0717621,0,0,1.0717621,-33.014571,-13.932002)" />
  </defs>
  <sodipodi:namedview
     pagecolor="#ffffff"
     bordercolor="#666666"
     borderopacity="1"
     objecttolerance="10"
     gridtolerance="10"
     guidetolerance="10"
     inkscape:pageopacity="0"
     inkscape:pageshadow="2"
     inkscape:window-width="1920"
     inkscape:window-height="1029"
     id="namedview12"
     showgrid="false"
     inkscape:zoom="30.341309"
     inkscape:cx="16.921208"
     inkscape:cy="9.320978"
     inkscape:window-x="0"
     inkscape:window-y="0"
     inkscape:window-maximized="1"
     inkscape:current-layer="svg2" />
  <metadata
     id="metadata8">
    <rdf:RDF>
      <cc:Work
         rdf:about="">
        <dc:format>image/svg+xml</dc:format>
        <dc:type
           rdf:resource="http://purl.org/dc/dcmitype/StillImage" />
        <dc:title />
      </cc:Work>
    </rdf:RDF>
  </metadata>
  <path
     id="path3796"
     style="color:#000000;opacity:0.5"
     d="m 3.417108,5.4851695 3.4467691,3.446769 3.4467689,-3.446769 -6.893538,0 z"
     inkscape:connector-curvature="0" />
  <path
     style="color:#000000;fill:url(#linearGradient4150);fill-opacity:1"
     d="m 3.417108,6.8638771 3.4467691,3.4467689 3.4467689,-3.4467689 -6.893538,0 z m 8.272246,0 0,1.3787077 6.893538,0 0,-1.3787077 -6.893538,0 z m -2.7574155,2.7574154 0,1.3787075 9.6509535,0 0,-1.3787075 -9.6509534,0 z m -1.3787076,2.7574145 0,1.378708 11.0296611,0 0,-1.378708 -11.0296612,0 z m 0,2.757415 0,1.378708 11.0296611,0 0,-1.378708 -11.0296612,0 z"
     id="rect3009"
     inkscape:connector-curvature="0" />
  <rect
     id="rect3798"
     style="color:#000000;opacity:0.5"
     height="1.3787076"
     width="6.893538"
     y="5.4851694"
     x="11.689354" />
  <rect
     id="rect3806"
     style="color:#000000;opacity:0.5"
     height="1.3787076"
     width="2.7574153"
     y="8.2425842"
     x="10.310647" />
  <path
     style="display:inline;overflow:visible;visibility:visible;opacity:0.5;fill:#000000;fill-opacity:1;fill-rule:nonzero;stroke:none;stroke-width:1;marker:none;enable-background:accumulate"
     d="m -25.512236,-9.6449534 -5.358811,5.3588103 3.215286,0 0,7.5023348 4.287049,0 0,-7.5023348 3.215285,0 -5.358809,-5.3588103 z m 6.430573,5.3588103 0,7.5023348 -3.215287,0 5.35881,5.35881 5.35881,-5.35881 -3.215288,0 0,-7.5023348 -4.287045,0 z"
     id="path4348-1-7"
     inkscape:connector-curvature="0" />
  <path
     d="m -11.579331,2.1444297 -5.358809,5.35881 -5.35881,-5.35881 3.215286,0 0,-7.5023351 4.287046,0 0,7.5023351 3.215287,0 z"
     id="path4348-1"
     style="display:inline;overflow:visible;visibility:visible;fill:url(#linearGradient3692);fill-opacity:1;fill-rule:nonzero;stroke:none;stroke-width:1;marker:none;enable-background:accumulate"
     inkscape:connector-curvature="0" />
  <path
     d="m -20.153427,-5.3579054 -5.358809,-5.3588096 -5.358811,5.3588096 3.215286,0 0,7.5023351 4.287049,0 0,-7.5023351 3.215285,0 z"
     id="path4348-1-3"
     style="display:inline;overflow:visible;visibility:visible;fill:url(#linearGradient3684);fill-opacity:1;fill-rule:nonzero;stroke:none;stroke-width:1;marker:none;enable-background:accumulate"
     inkscape:connector-curvature="0" />
</svg>
