<?xml version="1.0" encoding="UTF-8" standalone="no"?>
<!-- Created with Inkscape (http://www.inkscape.org/) -->

<svg
   xmlns:dc="http://purl.org/dc/elements/1.1/"
   xmlns:cc="http://creativecommons.org/ns#"
   xmlns:rdf="http://www.w3.org/1999/02/22-rdf-syntax-ns#"
   xmlns:svg="http://www.w3.org/2000/svg"
   xmlns="http://www.w3.org/2000/svg"
   xmlns:xlink="http://www.w3.org/1999/xlink"
   xmlns:sodipodi="http://sodipodi.sourceforge.net/DTD/sodipodi-0.dtd"
   xmlns:inkscape="http://www.inkscape.org/namespaces/inkscape"
   version="1.0"
   width="22"
   height="22"
   id="svg2"
   inkscape:version="0.48.3.1 r9886"
   sodipodi:docname="mplayer.svg">
  <sodipodi:namedview
     pagecolor="#ffffff"
     bordercolor="#666666"
     borderopacity="1"
     objecttolerance="10"
     gridtolerance="10"
     guidetolerance="10"
     inkscape:pageopacity="0"
     inkscape:pageshadow="2"
     inkscape:window-width="1366"
     inkscape:window-height="717"
     id="namedview29"
     showgrid="false"
     inkscape:zoom="10.727273"
     inkscape:cx="11"
     inkscape:cy="11"
     inkscape:window-x="0"
     inkscape:window-y="0"
     inkscape:window-maximized="1"
     inkscape:current-layer="g3783" />
  <metadata
     id="metadata31">
    <rdf:RDF>
      <cc:Work
         rdf:about="">
        <dc:format>image/svg+xml</dc:format>
        <dc:type
           rdf:resource="http://purl.org/dc/dcmitype/StillImage" />
        <dc:title />
      </cc:Work>
    </rdf:RDF>
  </metadata>
  <defs
     id="defs4">
    <linearGradient
       id="linearGradient3655">
      <stop
         id="stop3657"
         style="stop-color:#ffffff;stop-opacity:1"
         offset="0" />
      <stop
         id="stop3659"
         style="stop-color:#ffffff;stop-opacity:0"
         offset="1" />
    </linearGradient>
    <linearGradient
       x1="108.11752"
       y1="16.246464"
       x2="108.97424"
       y2="24.144896"
       id="linearGradient1969"
       xlink:href="#linearGradient3655"
       gradientUnits="userSpaceOnUse"
       gradientTransform="matrix(0,-1,1,0,-4.523091,226.3445)" />
    <linearGradient
       x1="108.11752"
       y1="16.246464"
       x2="108.97424"
       y2="24.144896"
       id="linearGradient1971"
       xlink:href="#linearGradient3655"
       gradientUnits="userSpaceOnUse"
       gradientTransform="matrix(0,1,-1,0,220.9148,-49.35703)" />
    <linearGradient
       x1="108.11752"
       y1="16.246464"
       x2="108.97424"
       y2="24.144896"
       id="linearGradient1973"
       xlink:href="#linearGradient3655"
       gradientUnits="userSpaceOnUse" />
    <linearGradient
       x1="108.11752"
       y1="16.246464"
       x2="108.97424"
       y2="24.144896"
       id="linearGradient1975"
       xlink:href="#linearGradient3655"
       gradientUnits="userSpaceOnUse"
       gradientTransform="matrix(-1,0,0,-1,216.0238,177.6105)" />
  </defs>
  <g
     transform="matrix(0.54988639,0,0,0.54988639,-2.2860861,-3.3179285)"
     id="g3783">
    <g
       transform="matrix(0.17918475,0,0,0.18115615,4.7519029,9.0963251)"
       id="layer1-3"
       style="stroke:#ffffff;stroke-width:25.23422518;stroke-miterlimit:4;stroke-opacity:1;stroke-dasharray:none">
      <rect
         width="30.90909"
         height="18.40909"
         rx="2.891494"
         ry="2.891494"
         x="9.090909"
         y="14.818183"
         transform="matrix(5.5808321,0,0,5.5200996,-26.519572,-50.212621)"
         id="rect3012"
         style="fill:#000000;fill-opacity:1;stroke:#000000;stroke-width:4.54639367;stroke-linecap:round;stroke-linejoin:round;stroke-miterlimit:4;stroke-opacity:1;stroke-dasharray:none" />
    </g>
    <path
       d="m 30.909091,30.52841 a 2.4715908,2.4715908 0 1 1 -4.943182,0 2.4715908,2.4715908 0 1 1 4.943182,0 z"
       transform="matrix(2.7931035,0,0,2.7931035,-46.389109,-49.854236)"
       id="path3013"
       style="fill:#000000;fill-opacity:1;stroke:none" />
    <path
       d="m 13.307744,18.257079 -2.380311,11.616947 2.561422,0 1.50063,-7.347913 2.897768,7.347913 2.302691,0 2.949513,-7.347913 1.474758,7.347913 1.707614,0 c 0.209562,-0.261341 0.435554,-0.514902 0.672696,-0.750315 l -2.173326,-10.866632 -2.535548,0 -3.234116,8.098228 -3.182371,-8.098228 -2.56142,0 z m 15.937726,0 0,9.236637 c 0.80749,-0.40278 1.689772,-0.671374 2.613166,-0.802061 l 0,-1.733486 c 1.336082,5e-6 2.262682,-0.05994 2.768404,-0.181111 0.861582,-0.21073 1.544481,-0.601028 2.043961,-1.138409 0.505708,-0.537367 0.750303,-1.206752 0.750316,-2.018088 -1.3e-5,-0.732295 -0.182124,-1.341273 -0.569204,-1.862852 -0.380854,-0.526827 -0.910212,-0.906589 -1.57825,-1.138408 -0.661808,-0.237066 -1.755332,-0.36221 -3.259989,-0.362222 l -2.768404,0 z m 2.613166,2.173326 0.750316,0 c 0.811636,1.1e-5 1.35618,0.05421 1.655867,0.206984 0.412059,0.205475 0.620939,0.535368 0.62095,0.983172 -1e-5,0.258157 -0.08302,0.488311 -0.232856,0.672696 -0.143606,0.179132 -0.339106,0.309075 -0.595077,0.388094 -0.255985,0.07903 -0.715713,0.103498 -1.371265,0.103492 l -0.827935,0 0,-2.354438 z"
       id="text7217-6"
       style="font-size:42.40975189000000256px;font-style:normal;font-variant:normal;font-weight:bold;font-stretch:normal;text-align:start;line-height:125%;writing-mode:lr-tb;text-anchor:start;fill:#000000;fill-opacity:1;stroke:#000000;stroke-width:3.31173515000000007;stroke-miterlimit:4;stroke-opacity:1;stroke-dasharray:none;font-family:Century Gothic" />
    <g
       transform="matrix(0.17918475,0,0,0.18115615,4.7519029,9.0962967)"
       id="layer1"
       style="fill:#ffffff;fill-opacity:1">
      <g
         id="g2020"
         style="fill:#ffffff;fill-opacity:1">
        <g
           transform="matrix(1,0,0,0.930282,0,0.766728)"
           id="g3763"
           style="fill:#ffffff;fill-opacity:1">
          <g
             id="g3758"
             style="fill:#ffffff;fill-opacity:1">
            <path
               d="m 38.0625,2.125 c -0.339168,-7.378e-4 -0.656064,-0.00145 -1,0.03125 L 7,5.03125 C 5.5631055,5.1678579 4.3373208,5.9792012 3.71875,7.15625 1.3583789,9.1493204 0.07340531,12.265748 0.375,15.40625 l 1.34375,13.9375 c -1.27499289,0.776356 -2.03343301,2.151853 -1.875,3.625 C 0.40222238,38.144185 5.4345274,42.02322 10.9375,41.5 L 25.375,40.125 c -0.68805,-1.389282 -1.100595,-2.944618 -1.125,-4.59375 -0.0043,-0.04546 -0.03104,-0.07934 -0.03125,-0.125 -4e-6,-0.0023 -5e-6,-0.02897 0,-0.03125 l -17.5,0 c -1.6425252,0 -2.96875,-1.339404 -2.96875,-3 l 0,-20.53125 c -10e-8,-1.660596 1.3262247,-3 2.96875,-3 l 34.4375,0 c 1.642527,10e-8 2.96875,1.339404 2.96875,3 l 0,18.84375 c 0.688527,1.413679 1.09206,3.010169 1.09375,4.6875 6.5e-5,0.06436 0.0011,0.123403 0,0.1875 1.756336,-1.961362 2.664974,-4.618411 2.40625,-7.3125 L 46.28125,14.28125 C 47.531811,13.504159 48.283471,12.155915 48.125,10.6875 47.601435,5.8355314 43.150014,2.1360644 38.0625,2.125 z"
               transform="matrix(4.6205596,0,0,4.9127871,-2.4998762,-18.469218)"
               id="rect1872"
               style="color:#000000;fill:#ffffff;fill-opacity:1;fill-rule:nonzero;stroke:none;stroke-width:38.11546707;marker:none;visibility:visible;display:inline;overflow:visible" />
          </g>
          <g
             id="g3753"
             style="fill:#ffffff;fill-opacity:1" />
        </g>
        <g
           id="g2012"
           style="fill:#ffffff;fill-opacity:1">
          <g
             id="g2006"
             style="fill:#ffffff;fill-opacity:1" />
        </g>
        <g
           transform="translate(0,-10)"
           id="g3675"
           style="fill:#ffffff;fill-opacity:1">
          <path
             d="m 140.95734,128.20425 49.17835,28.5036 -49.26786,26.98876 0.0895,-55.49236 z"
             id="path6330"
             style="fill:#ffffff;fill-opacity:1;fill-rule:evenodd;stroke:none" />
        </g>
      </g>
    </g>
    <path
       d="m 13.161159,18.257051 -2.38031,11.616946 2.561421,0 1.50063,-7.347913 2.897768,7.347913 2.302691,0 2.949514,-7.347913 1.474757,7.347913 1.707614,0 c 0.209562,-0.261342 0.435554,-0.514903 0.672696,-0.750315 l -2.173326,-10.866631 -2.535548,0 -3.234116,8.098227 -3.182371,-8.098227 -2.56142,0 z m 15.937726,0 0,9.236636 c 0.80749,-0.402779 1.689772,-0.671375 2.613167,-0.802061 l 0,-1.733486 c 1.336081,4e-6 2.262682,-0.05994 2.768403,-0.181111 0.861582,-0.21073 1.544482,-0.601029 2.043962,-1.138409 0.505708,-0.537367 0.750302,-1.206752 0.750315,-2.018089 -1.3e-5,-0.732294 -0.182124,-1.341272 -0.569204,-1.862851 -0.380854,-0.526826 -0.910212,-0.906589 -1.57825,-1.138409 -0.661807,-0.237065 -1.755332,-0.362209 -3.259989,-0.36222 l -2.768404,0 z m 2.613167,2.173326 0.750315,0 c 0.811636,9e-6 1.35618,0.05421 1.655867,0.206983 0.412059,0.205475 0.620939,0.535368 0.62095,0.983171 -1e-5,0.258158 -0.08302,0.488312 -0.232856,0.672697 -0.143606,0.179132 -0.339105,0.309076 -0.595077,0.388094 -0.255985,0.07903 -0.715712,0.103499 -1.371265,0.103491 l -0.827934,0 0,-2.354436 z"
       id="text7217"
       style="font-size:42.40975189px;font-style:normal;font-variant:normal;font-weight:bold;font-stretch:normal;text-align:start;line-height:125%;writing-mode:lr-tb;text-anchor:start;fill:#ffffff;fill-opacity:1;stroke:none;font-family:Century Gothic" />
    <path
       d="m 32.90531,26.594848 c -4.761623,0.0021 -8.641959,3.929946 -8.679261,8.746444 -1.78e-4,0.02287 -0.0056,0.04503 -0.0056,0.06793 -1.7e-5,0.0038 -1.7e-5,0.0075 0,0.01132 -4e-6,0.0019 -4e-6,0.0038 0,0.0056 1.7e-4,0.03781 0.0021,0.07559 0.0056,0.113223 0.07098,4.795565 3.949435,8.691916 8.696059,8.684174 4.784223,-0.0078 8.678544,-3.977898 8.673662,-8.825701 -0.0048,-4.847805 -3.906232,-8.80518 -8.69046,-8.803056 z m 0,2.496558 c 3.444524,-0.0015 6.217541,2.808319 6.221069,6.312159 0.0035,3.503839 -2.759749,6.317862 -6.204271,6.323482 -3.444523,0.0056 -6.2247,-2.802668 -6.23227,-6.306498 1.8e-5,-0.0038 1.8e-5,-0.0075 0,-0.01132 5.11e-4,-3.50384 2.770948,-6.316292 6.215472,-6.31782 z"
       id="path5443"
       style="color:#000000;fill:#ffffff;fill-opacity:1;fill-rule:nonzero;stroke:none;stroke-width:13.78605175;marker:none;visibility:visible;display:inline;overflow:visible" />
  </g>
</svg>
