<?xml version="1.0" encoding="UTF-8" standalone="no"?>
<!-- Created with Inkscape (http://www.inkscape.org/) -->

<svg
   xmlns:dc="http://purl.org/dc/elements/1.1/"
   xmlns:cc="http://creativecommons.org/ns#"
   xmlns:rdf="http://www.w3.org/1999/02/22-rdf-syntax-ns#"
   xmlns:svg="http://www.w3.org/2000/svg"
   xmlns="http://www.w3.org/2000/svg"
   xmlns:xlink="http://www.w3.org/1999/xlink"
   xmlns:sodipodi="http://sodipodi.sourceforge.net/DTD/sodipodi-0.dtd"
   xmlns:inkscape="http://www.inkscape.org/namespaces/inkscape"
   height="22"
   id="svg3200"
   version="1.0"
   width="22"
   inkscape:version="0.91 r13725"
   sodipodi:docname="nm-device-wired-secure.svg">
  <sodipodi:namedview
     pagecolor="#ffffff"
     bordercolor="#666666"
     borderopacity="1"
     objecttolerance="10"
     gridtolerance="10"
     guidetolerance="10"
     inkscape:pageopacity="0"
     inkscape:pageshadow="2"
     inkscape:window-width="1920"
     inkscape:window-height="1029"
     id="namedview13"
     showgrid="false"
     inkscape:zoom="30.341309"
     inkscape:cx="12.191864"
     inkscape:cy="9.0032889"
     inkscape:window-x="0"
     inkscape:window-y="0"
     inkscape:window-maximized="1"
     inkscape:current-layer="svg3200" />
  <metadata
     id="metadata8">
    <rdf:RDF>
      <cc:Work
         rdf:about="">
        <dc:format>image/svg+xml</dc:format>
        <dc:type
           rdf:resource="http://purl.org/dc/dcmitype/StillImage" />
        <dc:title />
      </cc:Work>
    </rdf:RDF>
  </metadata>
  <defs
     id="defs3202">
    <linearGradient
       inkscape:collect="always"
       xlink:href="#linearGradient3678"
       id="linearGradient3684"
       x1="9.1701241"
       y1="3"
       x2="9.311203"
       y2="15"
       gradientUnits="userSpaceOnUse"
       gradientTransform="matrix(1.0717621,0,0,1.0717621,-0.7893828,-1.861145)" />
    <linearGradient
       id="linearGradient3678">
      <stop
         style="stop-color:#ffffff;stop-opacity:1;"
         offset="0"
         id="stop3680" />
      <stop
         style="stop-color:#e6e6e6;stop-opacity:1;"
         offset="1"
         id="stop3682" />
    </linearGradient>
    <linearGradient
       inkscape:collect="always"
       xlink:href="#linearGradient3678"
       id="linearGradient3692"
       x1="15"
       y1="8"
       x2="15"
       y2="20"
       gradientUnits="userSpaceOnUse"
       gradientTransform="matrix(1.0717621,0,0,1.0717621,-0.7893828,-1.861145)" />
  </defs>
  <path
     style="display:inline;overflow:visible;visibility:visible;opacity:0.5;fill:#000000;fill-opacity:1;fill-rule:nonzero;stroke:none;stroke-width:1;marker:none;enable-background:accumulate"
     d="m 6.7129517,2.4259035 -5.3588104,5.3588103 3.2152862,0 0,7.5023342 4.2870485,0 0,-7.5023342 3.215285,0 -5.3588093,-5.3588103 z m 6.4305733,5.3588103 0,7.5023342 -3.2152867,0 5.3588107,5.35881 5.35881,-5.35881 -3.215288,0 0,-7.5023342 -4.287046,0 z"
     id="path4348-1-7"
     inkscape:connector-curvature="0" />
  <path
     d="m 20.645858,14.215286 -5.358809,5.35881 -5.3588107,-5.35881 3.2152857,0 0,-7.5023345 4.287047,0 0,7.5023345 3.215287,0 z"
     id="path4348-1"
     style="display:inline;overflow:visible;visibility:visible;fill:url(#linearGradient3692);fill-opacity:1;fill-rule:nonzero;stroke:none;stroke-width:1;marker:none;enable-background:accumulate"
     inkscape:connector-curvature="0" />
  <path
     d="M 12.071761,6.7129515 6.7129517,1.3541416 1.3541413,6.7129515 l 3.2152862,0 0,7.5023345 4.2870485,0 0,-7.5023345 3.215285,0 z"
     id="path4348-1-3"
     style="display:inline;overflow:visible;visibility:visible;fill:url(#linearGradient3684);fill-opacity:1;fill-rule:nonzero;stroke:none;stroke-width:1;marker:none;enable-background:accumulate"
     inkscape:connector-curvature="0" />
  <!-- imported from 'ubuntu-mono-dark/status/22/nm-vpn-lock.svg' -->
  <g
     id="svg3215">
    <metadata
       id="metadata12">
      <rdf:RDF>
        <cc:Work
           rdf:about="">
          <dc:format>image/svg+xml</dc:format>
          <dc:type
             rdf:resource="http://purl.org/dc/dcmitype/StillImage" />
          <dc:title />
        </cc:Work>
      </rdf:RDF>
    </metadata>
    <sodipodi:namedview
       bordercolor="#666666"
       borderopacity="1.0"
       gridtolerance="10.0"
       guidetolerance="10.0"
       id="base"
       inkscape:current-layer="svg3215"
       inkscape:cx="-2.6506024"
       inkscape:cy="13.012048"
       inkscape:pageopacity="0.0"
       inkscape:pageshadow="2"
       inkscape:window-height="753"
       inkscape:window-maximized="1"
       inkscape:window-width="1280"
       inkscape:window-x="0"
       inkscape:window-y="24"
       inkscape:zoom="10.375"
       objecttolerance="10.0"
       pagecolor="#ffffff"
       showgrid="false" />
    <defs
       id="defs3217" />
    <path
       d="m 17.626209,12.626209 c -1.108,0 -2,0.910763 -2,2.03125 l 0,0.96875 c -0.554,0 -1,0.446 -1,1 l 0,3 c 0,0.554 0.446,1 1,1 l 4,0 c 0.554,0 1,-0.446 1,-1 l 0,-3 c 0,-0.554 -0.446,-1 -1,-1 l 0,-0.96875 c 0,-1.120486 -0.892,-2.03125 -2,-2.03125 z m 0,1 c 0.554,0 1,0.442363 1,1 l 0,1 -2,0 0,-1 c 0,-0.557637 0.446,-1 1,-1 z"
       id="path2441"
       style="display:inline;overflow:visible;visibility:visible;opacity:1;fill:#000000;fill-opacity:0.50196078;fill-rule:nonzero;stroke:none;stroke-width:1;stroke-linecap:butt;stroke-linejoin:miter;stroke-miterlimit:4;stroke-dasharray:none;stroke-dashoffset:0;stroke-opacity:1;marker:none;marker-start:none;marker-mid:none;marker-end:none;enable-background:accumulate"
       inkscape:connector-curvature="0" />
    <path
       d="m 17.626209,11.626209 c -1.108,0 -2,0.910763 -2,2.03125 l 0,0.96875 c -0.554,0 -1,0.446 -1,1 l 0,3 c 0,0.554 0.446,1 1,1 l 4,0 c 0.554,0 1,-0.446 1,-1 l 0,-3 c 0,-0.554 -0.446,-1 -1,-1 l 0,-0.96875 c 0,-1.120486 -0.892,-2.03125 -2,-2.03125 z m 0,1 c 0.554,0 1,0.442363 1,1 l 0,1 -2,0 0,-1 c 0,-0.557637 0.446,-1 1,-1 z"
       id="rect2822"
       style="display:inline;overflow:visible;visibility:visible;opacity:1;fill:#df382c;fill-opacity:1;fill-rule:nonzero;stroke:none;stroke-width:1;stroke-linecap:butt;stroke-linejoin:miter;stroke-miterlimit:4;stroke-dasharray:none;stroke-dashoffset:0;stroke-opacity:1;marker:none;marker-start:none;marker-mid:none;marker-end:none;enable-background:accumulate"
       inkscape:connector-curvature="0" />
  </g>
</svg>
