<?xml version="1.0" encoding="UTF-8" standalone="no"?>
<svg
   xmlns:dc="http://purl.org/dc/elements/1.1/"
   xmlns:cc="http://creativecommons.org/ns#"
   xmlns:rdf="http://www.w3.org/1999/02/22-rdf-syntax-ns#"
   xmlns:svg="http://www.w3.org/2000/svg"
   xmlns="http://www.w3.org/2000/svg"
   xmlns:xlink="http://www.w3.org/1999/xlink"
   xmlns:sodipodi="http://sodipodi.sourceforge.net/DTD/sodipodi-0.dtd"
   xmlns:inkscape="http://www.inkscape.org/namespaces/inkscape"
   version="1.1"
   width="22"
   height="22"
   id="svg2"
   inkscape:version="0.91 r13725"
   sodipodi:docname="onboard-panel.svg">
  <sodipodi:namedview
     pagecolor="#ffffff"
     bordercolor="#666666"
     borderopacity="1"
     objecttolerance="10"
     gridtolerance="10"
     guidetolerance="10"
     inkscape:pageopacity="0"
     inkscape:pageshadow="2"
     inkscape:window-width="1920"
     inkscape:window-height="1029"
     id="namedview9"
     showgrid="false"
     inkscape:zoom="21.454545"
     inkscape:cx="25.393789"
     inkscape:cy="13.661113"
     inkscape:window-x="0"
     inkscape:window-y="0"
     inkscape:window-maximized="1"
     inkscape:current-layer="svg2" />
  <metadata
     id="metadata16">
    <rdf:RDF>
      <cc:Work
         rdf:about="">
        <dc:format>image/svg+xml</dc:format>
        <dc:type
           rdf:resource="http://purl.org/dc/dcmitype/StillImage" />
        <dc:title>Full Keyboard-Alpha.svg</dc:title>
        <cc:license
           rdf:resource="https://www.gnu.org/licenses/gpl.txt" />
        <dc:creator>
          <cc:Agent>
            <dc:title>Onboard Devel Team at https://launchpad.net/~onboard</dc:title>
          </cc:Agent>
        </dc:creator>
        <dc:rights>
          <cc:Agent>
            <dc:title>GPL-3+ license</dc:title>
          </cc:Agent>
        </dc:rights>
        <dc:publisher>
          <cc:Agent>
            <dc:title>Onboard Devel Team</dc:title>
          </cc:Agent>
        </dc:publisher>
        <dc:source>https://launchpad.net/onboard</dc:source>
        <dc:relation>This file is part of Onboard</dc:relation>
        <dc:contributor>
          <cc:Agent>
            <dc:title>Copyright © 2016, Francesco Fumanti &lt;francesco.fumanti@gmx.net&gt;
Copyright © 2012, Gerd Kohlberger &lt;lowfi@chello.at&gt;</dc:title>
          </cc:Agent>
        </dc:contributor>
      </cc:Work>
    </rdf:RDF>
  </metadata>
  <defs
     id="defs14">
    <linearGradient
       inkscape:collect="always"
       xlink:href="#linearGradient3678"
       id="linearGradient4143"
       x1="15.559504"
       y1="11.913162"
       x2="15.559504"
       y2="20.020922"
       gradientUnits="userSpaceOnUse" />
    <linearGradient
       inkscape:collect="always"
       xlink:href="#linearGradient3678"
       id="linearGradient4145"
       x1="5.8231707"
       y1="11.913162"
       x2="5.8231707"
       y2="20.152754"
       gradientUnits="userSpaceOnUse" />
    <linearGradient
       inkscape:collect="always"
       xlink:href="#linearGradient3678"
       id="linearGradient4147"
       x1="15.42767"
       y1="2.1109128"
       x2="15.42767"
       y2="10.020921"
       gradientUnits="userSpaceOnUse" />
    <linearGradient
       inkscape:collect="always"
       xlink:href="#linearGradient3678"
       id="linearGradient4149"
       x1="5.7572536"
       y1="2.2427461"
       x2="5.7572536"
       y2="9.8890877"
       gradientUnits="userSpaceOnUse" />
    <linearGradient
       id="linearGradient3678">
      <stop
         style="stop-color:#ffffff;stop-opacity:1;"
         offset="0"
         id="stop3680" />
      <stop
         style="stop-color:#e6e6e6;stop-opacity:1;"
         offset="1"
         id="stop3682" />
    </linearGradient>
  </defs>
  <path
     inkscape:connector-curvature="0"
     d="m 3.0080943,2.6497009 c -0.554,0 -1,0.446 -1,1 l 0,6.0000002 c 0,0.5539999 0.446,0.9999999 1,0.9999999 l 6,0 c 0.554,0 0.9999997,-0.446 0.9999997,-0.9999999 l 0,-6.0000002 c 0,-0.554 -0.4459997,-1 -0.9999997,-1 l -6,0 z m 1,1 4,0 c 0.554,0 1,0.446 1,1 l 0,4 c 0,0.554 -0.446,1.0000002 -1,1.0000002 l -4,0 c -0.554,0 -1,-0.4460002 -1,-1.0000002 l 0,-4 c 0,-0.554 0.446,-1 1,-1 z"
     id="rect3012-6"
     style="fill:#000000;fill-opacity:0.50196081;stroke:none" />
  <path
     inkscape:connector-curvature="0"
     d="m 13.008094,2.6497009 c -0.554,0 -1,0.446 -1,1 l 0,6.0000002 c 0,0.5539999 0.446,0.9999999 1,0.9999999 l 6,0 c 0.554,0 1,-0.446 1,-0.9999999 l 0,-6.0000002 c 0,-0.554 -0.446,-1 -1,-1 l -6,0 z m 1,1 4,0 c 0.554,0 1,0.446 1,1 l 0,4 c 0,0.554 -0.446,1.0000002 -1,1.0000002 l -4,0 c -0.554,0 -1,-0.4460002 -1,-1.0000002 l 0,-4 c 0,-0.554 0.446,-1 1,-1 z"
     id="path3790-2"
     style="fill:#000000;fill-opacity:0.50196081;stroke:none" />
  <path
     inkscape:connector-curvature="0"
     d="m 3.0080943,12.649701 c -0.554,0 -1,0.446 -1,1 l 0,6 c 0,0.554 0.446,1 1,1 l 6,0 c 0.554,0 0.9999997,-0.446 0.9999997,-1 l 0,-6 c 0,-0.554 -0.4459997,-1 -0.9999997,-1 l -6,0 z m 1,1 4,0 c 0.554,0 1,0.446 1,1 l 0,4 c 0,0.554 -0.446,1 -1,1 l -4,0 c -0.554,0 -1,-0.446 -1,-1 l 0,-4 c 0,-0.554 0.446,-1 1,-1 z"
     id="path3794-9"
     style="fill:#000000;fill-opacity:0.50196081;stroke:none" />
  <path
     inkscape:connector-curvature="0"
     d="m 13.008094,12.649701 c -0.554,0 -1,0.446 -1,1 l 0,6 c 0,0.554 0.446,1 1,1 l 6,0 c 0.554,0 1,-0.446 1,-1 l 0,-6 c 0,-0.554 -0.446,-1 -1,-1 l -6,0 z m 1,1 4,0 c 0.554,0 1,0.446 1,1 l 0,4 c 0,0.554 -0.446,1 -1,1 l -4,0 c -0.554,0 -1,-0.446 -1,-1 l 0,-4 c 0,-0.554 0.446,-1 1,-1 z"
     id="path3798-1"
     style="fill:#000000;fill-opacity:0.50196081;stroke:none" />
  <path
     d="M 3,2 C 2.446,2 2,2.446 2,3 l 0,6 c 0,0.554 0.446,1 1,1 l 6,0 c 0.554,0 1,-0.446 1,-1 L 10,3 C 10,2.446 9.554,2 9,2 L 3,2 z M 4,3 8,3 C 8.554,3 9,3.446 9,4 L 9,8 C 9,8.554 8.554,9 8,9 L 4,9 C 3.446,9 3,8.554 3,8 L 3,4 C 3,3.446 3.446,3 4,3 z"
     id="rect3012"
     style="fill:url(#linearGradient4149);fill-opacity:1;stroke:none" />
  <path
     d="m 13,2 c -0.554,0 -1,0.446 -1,1 l 0,6 c 0,0.554 0.446,1 1,1 l 6,0 c 0.554,0 1,-0.446 1,-1 L 20,3 C 20,2.446 19.554,2 19,2 l -6,0 z m 1,1 4,0 c 0.554,0 1,0.446 1,1 l 0,4 c 0,0.554 -0.446,1 -1,1 L 14,9 C 13.446,9 13,8.554 13,8 l 0,-4 c 0,-0.554 0.446,-1 1,-1 z"
     id="path3790"
     style="fill:url(#linearGradient4147);fill-opacity:1;stroke:none" />
  <path
     d="m 3,12 c -0.554,0 -1,0.446 -1,1 l 0,6 c 0,0.554 0.446,1 1,1 l 6,0 c 0.554,0 1,-0.446 1,-1 l 0,-6 C 10,12.446 9.554,12 9,12 l -6,0 z m 1,1 4,0 c 0.554,0 1,0.446 1,1 l 0,4 c 0,0.554 -0.446,1 -1,1 L 4,19 C 3.446,19 3,18.554 3,18 l 0,-4 c 0,-0.554 0.446,-1 1,-1 z"
     id="path3794"
     style="fill:url(#linearGradient4145);fill-opacity:1;stroke:none" />
  <path
     d="m 13,12 c -0.554,0 -1,0.446 -1,1 l 0,6 c 0,0.554 0.446,1 1,1 l 6,0 c 0.554,0 1,-0.446 1,-1 l 0,-6 c 0,-0.554 -0.446,-1 -1,-1 l -6,0 z m 1,1 4,0 c 0.554,0 1,0.446 1,1 l 0,4 c 0,0.554 -0.446,1 -1,1 l -4,0 c -0.554,0 -1,-0.446 -1,-1 l 0,-4 c 0,-0.554 0.446,-1 1,-1 z"
     id="path3798"
     style="fill:url(#linearGradient4143);fill-opacity:1;stroke:none" />
</svg>
