<?xml version="1.0" encoding="UTF-8" standalone="no"?>
<!-- Created with Inkscape (http://www.inkscape.org/) -->

<svg
   xmlns:dc="http://purl.org/dc/elements/1.1/"
   xmlns:cc="http://creativecommons.org/ns#"
   xmlns:rdf="http://www.w3.org/1999/02/22-rdf-syntax-ns#"
   xmlns:svg="http://www.w3.org/2000/svg"
   xmlns="http://www.w3.org/2000/svg"
   xmlns:sodipodi="http://sodipodi.sourceforge.net/DTD/sodipodi-0.dtd"
   xmlns:inkscape="http://www.inkscape.org/namespaces/inkscape"
   width="22"
   height="22"
   id="svg2"
   version="1.1"
   inkscape:version="0.48.4 r9939"
   sodipodi:docname="rhythmbox-panel.svg">
  <defs
     id="defs4" />
  <sodipodi:namedview
     id="base"
     pagecolor="#ffffff"
     bordercolor="#666666"
     borderopacity="1.0"
     inkscape:pageopacity="0.0"
     inkscape:pageshadow="2"
     inkscape:zoom="16"
     inkscape:cx="8.0648949"
     inkscape:cy="15.506617"
     inkscape:document-units="px"
     inkscape:current-layer="layer1"
     showgrid="false"
     inkscape:showpageshadow="false"
     borderlayer="true"
     inkscape:window-width="1366"
     inkscape:window-height="718"
     inkscape:window-x="0"
     inkscape:window-y="0"
     inkscape:window-maximized="1" />
  <metadata
     id="metadata7">
    <rdf:RDF>
      <cc:Work
         rdf:about="">
        <dc:format>image/svg+xml</dc:format>
        <dc:type
           rdf:resource="http://purl.org/dc/dcmitype/StillImage" />
        <dc:title></dc:title>
      </cc:Work>
    </rdf:RDF>
  </metadata>
  <g
     inkscape:label="Layer 1"
     inkscape:groupmode="layer"
     id="layer1"
     transform="translate(0,-1030.3622)">
    <g
       id="g3801"
       style="stroke:#00ffff;stroke-width:8;stroke-miterlimit:4;stroke-opacity:1;stroke-dasharray:none" />
    <path
       style="fill:#ffffff;fill-opacity:1;stroke:none"
       d="m 5.783949,1037.1519 10.432846,0 c 0.821696,0 1.483205,0.4238 1.483205,0.9502 l 0,12.2498 c -3.051198,0.013 -9.205215,0.01 -13.4,0.01 0.0018,-3.3155 7.22e-4,-8.2394 7.22e-4,-12.2568 0,-0.5264 0.661509,-0.9502 1.483204,-0.9502 z"
       id="rect2985"
       inkscape:connector-curvature="0"
       sodipodi:nodetypes="ssscccs" />
    <path
       sodipodi:nodetypes="ssscccs"
       inkscape:connector-curvature="0"
       id="path2988"
       d="m 7.389088,1037.8618 7.222339,0 c 0.568834,0 1.026777,0.1695 1.026777,0.38 l 0,4.899 c -2.112251,0.01 -6.372487,0.01 -9.276408,0.01 0.0012,-1.326 5.22e-4,-3.2952 5.22e-4,-4.9018 0,-0.2106 0.457943,-0.3801 1.026777,-0.3801 z"
       style="fill:#000000;fill-opacity:1;stroke:none" />
    <path
       sodipodi:type="arc"
       style="fill:#000000;fill-opacity:1;stroke:#ffffff;stroke-width:3.52819085;stroke-miterlimit:4;stroke-opacity:1;stroke-dasharray:none"
       id="path2990"
       sodipodi:cx="27.652925"
       sodipodi:cy="21.862303"
       sodipodi:rx="9.0913725"
       sodipodi:ry="9.0913725"
       d="m 36.744298,21.862303 a 9.0913725,9.0913725 0 1 1 -18.182745,0 9.0913725,9.0913725 0 1 1 18.182745,0 z"
       transform="matrix(0.56686268,0,0,0.56686268,-4.6750395,1025.5965)" />
    <path
       style="fill:#ffffff;fill-opacity:1;stroke:#000000;stroke-width:0.99999994;stroke-linecap:square;stroke-linejoin:miter;stroke-miterlimit:4;stroke-opacity:1;stroke-dasharray:none"
       d="m 6.862,1045.5817 8.276,0"
       id="path3760"
       inkscape:connector-curvature="0" />
    <path
       inkscape:connector-curvature="0"
       id="path3762"
       d="m 6.862,1047.6431 8.276,0"
       style="fill:#ffffff;fill-opacity:1;stroke:#000000;stroke-width:0.99999994;stroke-linecap:square;stroke-linejoin:miter;stroke-miterlimit:4;stroke-opacity:1;stroke-dasharray:none" />
    <path
       sodipodi:type="arc"
       style="fill:#ffffff;fill-opacity:1;stroke:#000000;stroke-width:1.30371048;stroke-linecap:square;stroke-linejoin:round;stroke-miterlimit:4;stroke-opacity:1;stroke-dasharray:none"
       id="path3766"
       sodipodi:cx="24.8125"
       sodipodi:cy="20.3125"
       sodipodi:rx="2.6875"
       sodipodi:ry="2.6875"
       d="m 27.5,20.3125 a 2.6875,2.6875 0 1 1 -5.375,0 2.6875,2.6875 0 1 1 5.375,0 z"
       transform="matrix(0.76704147,0,0,0.76704147,-8.0318449,1022.4088)" />
    <path
       style="fill:none;stroke:#ffffff;stroke-width:1;stroke-linecap:butt;stroke-linejoin:miter;stroke-miterlimit:4;stroke-opacity:1;stroke-dasharray:none"
       d="m 11.193631,1038.2471 3.349814,3.4786"
       id="path3768"
       inkscape:connector-curvature="0" />
  </g>
</svg>
