<?xml version="1.0" encoding="UTF-8" standalone="no"?>
<!-- Created with Inkscape (http://www.inkscape.org/) -->

<svg
   xmlns:dc="http://purl.org/dc/elements/1.1/"
   xmlns:cc="http://creativecommons.org/ns#"
   xmlns:rdf="http://www.w3.org/1999/02/22-rdf-syntax-ns#"
   xmlns:svg="http://www.w3.org/2000/svg"
   xmlns="http://www.w3.org/2000/svg"
   xmlns:sodipodi="http://sodipodi.sourceforge.net/DTD/sodipodi-0.dtd"
   xmlns:inkscape="http://www.inkscape.org/namespaces/inkscape"
   width="22"
   height="22"
   id="svg3564"
   version="1.1"
   inkscape:version="0.48.3.1 r9886"
   sodipodi:docname="xfce4-menu.svg">
  <defs
     id="defs3566" />
  <sodipodi:namedview
     id="base"
     pagecolor="#ffffff"
     bordercolor="#666666"
     borderopacity="1.0"
     inkscape:pageopacity="0.0"
     inkscape:pageshadow="2"
     inkscape:zoom="8"
     inkscape:cx="6.3323002"
     inkscape:cy="11.771233"
     inkscape:document-units="px"
     inkscape:current-layer="g3411"
     showgrid="false"
     fit-margin-top="20"
     fit-margin-left="20"
     fit-margin-right="20"
     fit-margin-bottom="20"
     inkscape:window-width="873"
     inkscape:window-height="444"
     inkscape:window-x="48"
     inkscape:window-y="147"
     inkscape:window-maximized="0" />
  <metadata
     id="metadata3569">
    <rdf:RDF>
      <cc:Work
         rdf:about="">
        <dc:format>image/svg+xml</dc:format>
        <dc:type
           rdf:resource="http://purl.org/dc/dcmitype/StillImage" />
        <dc:title />
      </cc:Work>
    </rdf:RDF>
  </metadata>
  <g
     inkscape:label="Layer 1"
     inkscape:groupmode="layer"
     id="layer1"
     transform="translate(-413.98737,-549.26317)">
    <g
       id="g3411"
       transform="matrix(1.0631936,0,0,1.0631936,116.28057,369.03392)">
      <g
         id="g2989"
         style="stroke:#ffffff;stroke-opacity:1;stroke-width:3.76224989000000010;stroke-miterlimit:4;stroke-dasharray:none">
        <path
           sodipodi:type="arc"
           style="fill:#000000;fill-opacity:1;stroke:#ffffff;stroke-opacity:1;stroke-width:3.77777776000000021;stroke-miterlimit:4;stroke-dasharray:none"
           id="path2991"
           sodipodi:cx="308.875"
           sodipodi:cy="43.625"
           sodipodi:rx="8.5"
           sodipodi:ry="8.5"
           d="m 317.375,43.625 a 8.5,8.5 0 1 1 -17,0 8.5,8.5 0 1 1 17,0 z"
           transform="matrix(0.99588968,0,0,0.99588968,-17.247394,136.41737)" />
        <path
           inkscape:connector-curvature="0"
           style="fill:#ffffff;fill-opacity:1;stroke:#ffffff;stroke-opacity:1;stroke-width:3.76224989000000010;stroke-miterlimit:4;stroke-dasharray:none"
           d="m 292.78742,174.47965 c -0.0159,0.002 -0.034,0.009 -0.0586,0.0234 -0.0493,0.0285 -0.0737,0.0614 -0.0937,0.0937 -0.33329,0.5614 -0.32976,1.24326 -0.45703,1.78125 a 0.17507612,0.17508397 0 0 0 0,0.0234 c -0.0608,0.59725 -0.30639,1.28207 -0.10547,1.96875 a 0.17507612,0.17508397 0 0 0 0.0234,0.0234 0.17507612,0.17508397 0 0 0 0,0.0234 c 0.0554,0.0969 0.14136,0.17766 0.24609,0.19922 0.10473,0.0212 0.18701,-0.0328 0.25781,-0.082 0.12658,-0.0881 0.19843,-0.22378 0.22266,-0.375 l 0.0234,0 0,-0.0469 c 0.26294,-1.03675 0.45759,-2.1332 0.38672,-3.22266 a 0.17507612,0.17508397 0 0 0 0,-0.0234 c -0.0162,-0.0968 -0.0586,-0.17529 -0.11719,-0.24609 -0.0585,-0.0704 -0.12586,-0.1491 -0.26953,-0.14063 a 0.17507612,0.17508397 0 0 0 -0.0234,0 c -0.008,7.5e-4 -0.0193,-0.002 -0.0351,0 z m 2.53125,0.6211 c -0.57198,0.25595 -0.80099,0.88687 -1.10156,1.27734 a 0.15209342,0.15210025 0 0 0 0,0.0234 c -0.3763,0.6669 -0.90768,1.37468 -0.96094,2.23828 0,0.21171 0.14596,0.37322 0.31641,0.41016 0.16044,0.0346 0.35722,-0.0398 0.45703,-0.19922 0.008,-0.008 -0.006,-0.0142 0,-0.0234 0.7125,-0.97903 1.24016,-2.13524 1.67578,-3.24609 0.0439,-0.1062 0.0523,-0.20913 0,-0.31641 -0.0523,-0.10758 -0.2038,-0.18097 -0.33984,-0.16406 a 0.15209342,0.15210025 0 0 0 -0.0234,0 l -0.0234,0 z m -6.6914,0.375 c -0.0369,-7.5e-4 -0.0697,0.005 -0.10547,0.0117 -0.0708,0.0132 -0.1709,0.0645 -0.2461,0.0937 -0.26593,0.10089 -0.41698,0.33131 -0.48046,0.59765 -0.0647,0.27251 -0.0431,0.58042 0,0.89063 0.0431,0.30959 0.0969,0.62339 0.16406,0.86719 0.0577,0.21093 0.10895,0.31669 0.1289,0.38671 l 0,0.0469 c 0,0.0231 -0.008,0.0284 -0.0234,0.0469 -0.008,0.005 0.008,0.0234 0,0.0234 -0.0192,0.0146 -0.0582,0.0234 -0.082,0.0234 -0.047,0.003 -0.0686,-0.0111 -0.11719,-0.0234 -0.0331,-0.008 -0.0803,-0.0311 -0.0703,-0.0234 -0.0154,-0.009 -0.0369,-0.007 -0.0469,-0.0234 0,0.006 0.009,-0.004 0,-0.0234 -0.0108,-0.02 -0.03,-0.0584 -0.0469,-0.0937 -0.0377,-0.0802 -0.0655,-0.17507 -0.11719,-0.29297 -0.10319,-0.23479 -0.23913,-0.52645 -0.38672,-0.79687 -0.14814,-0.2715 -0.31068,-0.52149 -0.50391,-0.69141 -0.0966,-0.0849 -0.22495,-0.15904 -0.33984,-0.1875 -0.11089,-0.0277 -0.24863,-0.0101 -0.36328,0.0469 -0.29627,0.16437 -0.46224,0.4341 -0.52734,0.71484 -0.0654,0.28504 -0.0243,0.6045 0.0234,0.89062 0.0485,0.28551 0.11566,0.53325 0.16407,0.72657 0.0208,0.0815 0.0517,0.14671 0.0586,0.1875 0,0.0404 -0.0251,0.15997 -0.0351,0.19921 -0.05,0.17323 -0.16378,0.45704 -0.16406,0.45704 0,0 -2.30491,6.12457 2.64844,5.69531 0.0408,-0.003 0.12558,-0.0234 0.16406,-0.0234 0.97276,-0.19585 1.90052,-0.49025 2.71875,-0.82031 0.16075,-0.077 0.36086,-0.14684 0.59765,-0.25781 0.47357,-0.22187 1.06902,-0.50642 1.64063,-0.82032 0.57183,-0.31413 1.10626,-0.65143 1.51172,-1.00781 0.40616,-0.35692 0.71073,-0.74724 0.65625,-1.13672 -0.0862,-0.62788 -0.51143,-1.10438 -1.06641,-1.46484 -0.55706,-0.36177 -1.25266,-0.61472 -1.94531,-0.79688 -0.69234,-0.18207 -1.36142,-0.33027 -1.875,-0.41015 -0.25671,-0.04 -0.4937,-0.0426 -0.64453,-0.0703 -0.0446,-0.008 -0.0814,-0.0157 -0.10547,-0.0234 -0.013,-0.001 -0.0111,-0.0157 -0.0234,-0.0234 -0.0154,-0.009 -0.0376,-0.007 -0.0469,-0.0234 -0.008,-0.0154 0,-0.0292 0,-0.0469 0,-0.007 -7e-5,-0.0142 0,-0.0234 l 0,-0.38672 c -0.008,-0.3166 -0.0283,-0.73529 -0.0937,-1.125 -0.0662,-0.39132 -0.17141,-0.76665 -0.38672,-1.01953 -0.12797,-0.15045 -0.30741,-0.24244 -0.52735,-0.25781 -0.0331,-0.004 -0.0686,-0.011 -0.10546,-0.0117 z"
           id="path2993" />
      </g>
      <g
         id="g2985">
        <path
           transform="matrix(0.99588968,0,0,0.99588968,-17.247394,136.41737)"
           d="m 317.375,43.625 a 8.5,8.5 0 1 1 -17,0 8.5,8.5 0 1 1 17,0 z"
           sodipodi:ry="8.5"
           sodipodi:rx="8.5"
           sodipodi:cy="43.625"
           sodipodi:cx="308.875"
           id="path3394"
           style="fill:#000000;fill-opacity:1;stroke:none"
           sodipodi:type="arc" />
        <path
           id="path3396"
           d="m 292.78742,174.47965 c -0.0159,0.002 -0.034,0.009 -0.0586,0.0234 -0.0493,0.0285 -0.0737,0.0614 -0.0937,0.0937 -0.33329,0.5614 -0.32976,1.24326 -0.45703,1.78125 a 0.17507612,0.17508397 0 0 0 0,0.0234 c -0.0608,0.59725 -0.30639,1.28207 -0.10547,1.96875 a 0.17507612,0.17508397 0 0 0 0.0234,0.0234 0.17507612,0.17508397 0 0 0 0,0.0234 c 0.0554,0.0969 0.14136,0.17766 0.24609,0.19922 0.10473,0.0212 0.18701,-0.0328 0.25781,-0.082 0.12658,-0.0881 0.19843,-0.22378 0.22266,-0.375 l 0.0234,0 0,-0.0469 c 0.26294,-1.03675 0.45759,-2.1332 0.38672,-3.22266 a 0.17507612,0.17508397 0 0 0 0,-0.0234 c -0.0162,-0.0968 -0.0586,-0.17529 -0.11719,-0.24609 -0.0585,-0.0704 -0.12586,-0.1491 -0.26953,-0.14063 a 0.17507612,0.17508397 0 0 0 -0.0234,0 c -0.008,7.5e-4 -0.0193,-0.002 -0.0351,0 z m 2.53125,0.6211 c -0.57198,0.25595 -0.80099,0.88687 -1.10156,1.27734 a 0.15209342,0.15210025 0 0 0 0,0.0234 c -0.3763,0.6669 -0.90768,1.37468 -0.96094,2.23828 0,0.21171 0.14596,0.37322 0.31641,0.41016 0.16044,0.0346 0.35722,-0.0398 0.45703,-0.19922 0.008,-0.008 -0.006,-0.0142 0,-0.0234 0.7125,-0.97903 1.24016,-2.13524 1.67578,-3.24609 0.0439,-0.1062 0.0523,-0.20913 0,-0.31641 -0.0523,-0.10758 -0.2038,-0.18097 -0.33984,-0.16406 a 0.15209342,0.15210025 0 0 0 -0.0234,0 l -0.0234,0 z m -6.6914,0.375 c -0.0369,-7.5e-4 -0.0697,0.005 -0.10547,0.0117 -0.0708,0.0132 -0.1709,0.0645 -0.2461,0.0937 -0.26593,0.10089 -0.41698,0.33131 -0.48046,0.59765 -0.0647,0.27251 -0.0431,0.58042 0,0.89063 0.0431,0.30959 0.0969,0.62339 0.16406,0.86719 0.0577,0.21093 0.10895,0.31669 0.1289,0.38671 l 0,0.0469 c 0,0.0231 -0.008,0.0284 -0.0234,0.0469 -0.008,0.005 0.008,0.0234 0,0.0234 -0.0192,0.0146 -0.0582,0.0234 -0.082,0.0234 -0.047,0.003 -0.0686,-0.0111 -0.11719,-0.0234 -0.0331,-0.008 -0.0803,-0.0311 -0.0703,-0.0234 -0.0154,-0.009 -0.0369,-0.007 -0.0469,-0.0234 0,0.006 0.009,-0.004 0,-0.0234 -0.0108,-0.02 -0.03,-0.0584 -0.0469,-0.0937 -0.0377,-0.0802 -0.0655,-0.17507 -0.11719,-0.29297 -0.10319,-0.23479 -0.23913,-0.52645 -0.38672,-0.79687 -0.14814,-0.2715 -0.31068,-0.52149 -0.50391,-0.69141 -0.0966,-0.0849 -0.22495,-0.15904 -0.33984,-0.1875 -0.11089,-0.0277 -0.24863,-0.0101 -0.36328,0.0469 -0.29627,0.16437 -0.46224,0.4341 -0.52734,0.71484 -0.0654,0.28504 -0.0243,0.6045 0.0234,0.89062 0.0485,0.28551 0.11566,0.53325 0.16407,0.72657 0.0208,0.0815 0.0517,0.14671 0.0586,0.1875 0,0.0404 -0.0251,0.15997 -0.0351,0.19921 -0.05,0.17323 -0.16378,0.45704 -0.16406,0.45704 0,0 -2.30491,6.12457 2.64844,5.69531 0.0408,-0.003 0.12558,-0.0234 0.16406,-0.0234 0.97276,-0.19585 1.90052,-0.49025 2.71875,-0.82031 0.16075,-0.077 0.36086,-0.14684 0.59765,-0.25781 0.47357,-0.22187 1.06902,-0.50642 1.64063,-0.82032 0.57183,-0.31413 1.10626,-0.65143 1.51172,-1.00781 0.40616,-0.35692 0.71073,-0.74724 0.65625,-1.13672 -0.0862,-0.62788 -0.51143,-1.10438 -1.06641,-1.46484 -0.55706,-0.36177 -1.25266,-0.61472 -1.94531,-0.79688 -0.69234,-0.18207 -1.36142,-0.33027 -1.875,-0.41015 -0.25671,-0.04 -0.4937,-0.0426 -0.64453,-0.0703 -0.0446,-0.008 -0.0814,-0.0157 -0.10547,-0.0234 -0.013,-0.001 -0.0111,-0.0157 -0.0234,-0.0234 -0.0154,-0.009 -0.0376,-0.007 -0.0469,-0.0234 -0.008,-0.0154 0,-0.0292 0,-0.0469 0,-0.007 -7e-5,-0.0142 0,-0.0234 l 0,-0.38672 c -0.008,-0.3166 -0.0283,-0.73529 -0.0937,-1.125 -0.0662,-0.39132 -0.17141,-0.76665 -0.38672,-1.01953 -0.12797,-0.15045 -0.30741,-0.24244 -0.52735,-0.25781 -0.0331,-0.004 -0.0686,-0.011 -0.10546,-0.0117 z"
           style="fill:#ffffff;fill-opacity:1;stroke:none"
           inkscape:connector-curvature="0" />
      </g>
    </g>
  </g>
</svg>
