<?xml version="1.0" encoding="UTF-8" standalone="no"?>
<!-- Created with Inkscape (http://www.inkscape.org/) -->

<svg
   xmlns:dc="http://purl.org/dc/elements/1.1/"
   xmlns:cc="http://creativecommons.org/ns#"
   xmlns:rdf="http://www.w3.org/1999/02/22-rdf-syntax-ns#"
   xmlns:svg="http://www.w3.org/2000/svg"
   xmlns="http://www.w3.org/2000/svg"
   xmlns:sodipodi="http://sodipodi.sourceforge.net/DTD/sodipodi-0.dtd"
   xmlns:inkscape="http://www.inkscape.org/namespaces/inkscape"
   version="1.1"
   width="22"
   height="22"
   id="steam"
   inkscape:version="0.48.4 r9939"
   sodipodi:docname="steam_tray_mono.svg">
  <sodipodi:namedview
     pagecolor="#ffffff"
     bordercolor="#666666"
     borderopacity="1"
     objecttolerance="10"
     gridtolerance="10"
     guidetolerance="10"
     inkscape:pageopacity="0"
     inkscape:pageshadow="2"
     inkscape:window-width="1366"
     inkscape:window-height="718"
     id="namedview26"
     showgrid="false"
     inkscape:zoom="4.9166667"
     inkscape:cx="-9.3559322"
     inkscape:cy="24"
     inkscape:window-x="0"
     inkscape:window-y="0"
     inkscape:window-maximized="1"
     inkscape:current-layer="steam" />
  <metadata
     id="metadata">
    <rdf:RDF>
      <cc:Work
         rdf:about="">
        <dc:title />
        <dc:format>image/svg+xml</dc:format>
        <dc:type
           rdf:resource="http://purl.org/dc/dcmitype/StillImage" />
      </cc:Work>
    </rdf:RDF>
  </metadata>
  <defs
     id="defs">
    <linearGradient
       id="logoShadingGrad">
      <stop
         id="logoShadingGrad1"
         style="stop-color:#bfbfbf;stop-opacity:1"
         offset="0" />
      <stop
         id="logoShadingGrad2"
         style="stop-color:#dfdfdf;stop-opacity:1"
         offset="1" />
    </linearGradient>
    <linearGradient
       x1="2"
       y1="-254"
       x2="254"
       y2="-254"
       id="bgGlowOverlayGrad"
       gradientUnits="userSpaceOnUse"
       gradientTransform="translate(52.067797,250.57627)">
      <stop
         id="bgGlowOverlayGrad1"
         style="stop-color:#3f3f3f;stop-opacity:1"
         offset="0" />
      <stop
         id="bgGlowOverlayGrad2"
         style="stop-color:#000000;stop-opacity:0"
         offset="1" />
    </linearGradient>
    <linearGradient
       id="bgGrad">
      <stop
         id="bgGrad1"
         style="stop-color:#9f9f9f;stop-opacity:1"
         offset="0" />
      <stop
         id="bgGrad2"
         style="stop-color:#3f3f3f;stop-opacity:1"
         offset="0.12" />
      <stop
         id="bgGrad3"
         style="stop-color:#0f0f0f;stop-opacity:1"
         offset="1" />
    </linearGradient>
    <linearGradient
       x1="0"
       y1="52.558804"
       x2="202.0594"
       y2="52.558804"
       id="logoGrad"
       gradientUnits="userSpaceOnUse"
       gradientTransform="matrix(0.30229375,-1.1281757,0.82701013,0.2215967,-42.515379,218.34075)">
      <stop
         id="logoGrad1"
         style="stop-color:#bfbfbf;stop-opacity:1"
         offset="0" />
      <stop
         id="logoGrad2"
         style="stop-color:#8f8f8f;stop-opacity:1"
         offset="0.30000001" />
      <stop
         id="logoGrad3"
         style="stop-color:#dfdfdf;stop-opacity:1"
         offset="1" />
    </linearGradient>
    <pattern
       patternTransform="translate(-3,0)"
       id="stripesPattern"
       height="10"
       width="10"
       patternUnits="userSpaceOnUse">
      <path
         style="fill:#5f5f5f;fill-opacity:1;stroke:none"
         d="M 0,0 2.5,0 0,2.5 z"
         id="stripesPatternTL" />
      <path
         style="fill:#5f5f5f;fill-opacity:1;stroke:none"
         d="M 0,7.5 7.5,0 10,0 10,2.5 2.5,10 0,10 z"
         id="stripesPatternMid" />
      <path
         style="fill:#5f5f5f;fill-opacity:1;stroke:none"
         d="M 7.5,10 10,7.5 10,10 z"
         id="stripesPatternBR" />
    </pattern>
  </defs>
  <path
     d="m 16.677966,4.138989 c -2.386993,0 -4.322034,1.93504 -4.322034,4.322034 l -2.966101,4.067796 c -0.63916,0 -1.233614,0.190682 -1.729343,0.519067 L 1,10.155938 1,14.054243 6.291314,16.138452 C 6.520191,17.644827 7.81954,18.8 9.389831,18.8 c 1.731741,6e-6 3.135593,-1.403851 3.135593,-3.135588 l 4.152542,-2.881355 C 19.064959,12.783057 21,10.848011 21,8.461023 21,6.074029 19.064959,4.138989 16.677966,4.138989 z m 0,1.525423 c 1.544525,0 2.79661,1.252085 2.79661,2.796611 0,1.54452 -1.252085,2.796604 -2.79661,2.796604 -1.544525,6e-6 -2.79661,-1.252078 -2.79661,-2.796604 0,-1.544526 1.252085,-2.796611 2.79661,-2.796611 z m 0,0.593221 c -1.216898,0 -2.288135,0.986489 -2.288135,2.20339 0,1.216895 1.071237,2.288135 2.288135,2.288135 1.216898,-5e-6 2.20339,-1.07124 2.20339,-2.288141 0,-1.216895 -0.986492,-2.203384 -2.20339,-2.203384 z m -7.20339,6.949152 c 1.310506,0 2.372881,1.062373 2.372881,2.372876 0,1.310514 -1.062375,2.372882 -2.372881,2.372882 -0.970094,0 -1.803726,-0.582834 -2.171611,-1.416846 l 0.879238,0.346934 c 0.317558,0.294687 0.740238,0.476697 1.207627,0.476691 0.98288,6e-6 1.779661,-0.796778 1.779661,-1.779655 0,-0.982883 -0.796781,-1.779661 -1.77966,-1.779661 L 8.502648,13.413353 C 8.799341,13.279935 9.128172,13.20678 9.474576,13.206785 z"
     id="logoShading"
     style="fill:#ffffff;fill-opacity:1;stroke:none"
     inkscape:connector-curvature="0" />
  <path
     d="m 16.565531,5.567179 c -1.651072,0.01639 -3.015859,1.666749 -2.764722,3.291008 0.190247,1.676149 2.055961,2.921791 3.672508,2.383223 C 18.943283,10.870241 19.883821,9.228885 19.48883,7.771143 19.198029,6.458869 17.905272,5.491835 16.565531,5.567179 z m 0.03677,0.829646 c 1.194385,-0.06553 2.307854,1.073451 2.100546,2.284401 -0.05198,1.122117 -1.1296,2.055401 -2.243034,1.914392 -1.366632,-0.0909 -2.314568,-1.703489 -1.751221,-2.934788 0.316696,-0.746083 1.092168,-1.239472 1.893709,-1.264005 z"
     id="path3776"
     style="fill:#000000;fill-opacity:1;stroke:none"
     inkscape:connector-curvature="0" />
  <path
     d="m 9.372196,13.114435 c -0.272785,0.04443 -0.746099,-0.03328 -0.836541,0.307958 0.152208,0.348522 0.649406,0.370019 0.967538,0.505601 0.844513,0.06361 1.557328,0.814018 1.512209,1.673083 0.04071,0.924683 -0.846247,1.730535 -1.767308,1.597242 -0.666783,-0.03385 -1.204538,-0.615623 -1.843148,-0.714737 -0.353087,0.15033 0.04921,0.537811 0.206837,0.714737 0.650269,0.7839 1.788724,1.104075 2.734846,0.696351 1.197522,-0.429016 1.939246,-1.878022 1.470842,-3.079574 C 11.492663,13.77511 10.467896,13.03995 9.372196,13.114435 z"
     id="path3778"
     style="fill:#000000;fill-opacity:1;stroke:none"
     inkscape:connector-curvature="0" />
</svg>
