<?xml version="1.0" encoding="UTF-8" standalone="no"?>
<!-- Created with Inkscape (http://www.inkscape.org/) -->

<svg
   xmlns:dc="http://purl.org/dc/elements/1.1/"
   xmlns:cc="http://creativecommons.org/ns#"
   xmlns:rdf="http://www.w3.org/1999/02/22-rdf-syntax-ns#"
   xmlns:svg="http://www.w3.org/2000/svg"
   xmlns="http://www.w3.org/2000/svg"
   xmlns:xlink="http://www.w3.org/1999/xlink"
   xmlns:sodipodi="http://sodipodi.sourceforge.net/DTD/sodipodi-0.dtd"
   xmlns:inkscape="http://www.inkscape.org/namespaces/inkscape"
   id="svg2816"
   height="22"
   width="20"
   version="1.0"
   inkscape:version="0.91 r13725"
   sodipodi:docname="user-busy-panel.svg">
  <defs
     id="defs8">
    <linearGradient
       id="linearGradient3678">
      <stop
         style="stop-color:#ffffff;stop-opacity:1;"
         offset="0"
         id="stop3680" />
      <stop
         style="stop-color:#e6e6e6;stop-opacity:1;"
         offset="1"
         id="stop3682" />
    </linearGradient>
    <linearGradient
       inkscape:collect="always"
       xlink:href="#linearGradient3678"
       id="linearGradient4156"
       x1="9.2711868"
       y1="4.0423727"
       x2="9.2711868"
       y2="18.957626"
       gradientUnits="userSpaceOnUse" />
  </defs>
  <sodipodi:namedview
     pagecolor="#ffffff"
     bordercolor="#666666"
     borderopacity="1"
     objecttolerance="10"
     gridtolerance="10"
     guidetolerance="10"
     inkscape:pageopacity="0"
     inkscape:pageshadow="2"
     inkscape:window-width="1920"
     inkscape:window-height="1029"
     id="namedview6"
     showgrid="false"
     inkscape:zoom="10.727273"
     inkscape:cx="10"
     inkscape:cy="11"
     inkscape:window-x="0"
     inkscape:window-y="0"
     inkscape:window-maximized="1"
     inkscape:current-layer="svg2816" />
  <metadata
     id="metadata8">
    <rdf:RDF>
      <cc:Work
         rdf:about="">
        <dc:format>image/svg+xml</dc:format>
        <dc:type
           rdf:resource="http://purl.org/dc/dcmitype/StillImage" />
        <dc:title />
      </cc:Work>
    </rdf:RDF>
  </metadata>
  <path
     id="path2396-4"
     style="opacity:0.5;fill-rule:evenodd"
     d="m9.5 5c-4.14 0-7.5 3.36-7.5 7.5s3.36 7.5 7.5 7.5c1.9648 0 3.7561-0.76222 5.0938-2h5.406l-3.344-3.344c0.208-0.687 0.344-1.401 0.344-2.156 0-4.14-3.36-7.5-7.5-7.5zm4.5 9h-9v-2h9v2z" />
  <path
     id="path2396"
     style="fill-rule:evenodd;fill:url(#linearGradient4156);fill-opacity:1"
     d="m9.5 4c-4.14 0-7.5 3.36-7.5 7.5s3.36 7.5 7.5 7.5c1.9648 0 3.7561-0.76222 5.0938-2h5.406l-3.344-3.344c0.208-0.687 0.344-1.401 0.344-2.156 0-4.14-3.36-7.5-7.5-7.5zm4.5 9h-9v-2h9v2z" />
</svg>
