<?xml version="1.0" encoding="UTF-8" standalone="no"?>
<!-- Created with Inkscape (http://www.inkscape.org/) -->

<svg
   xmlns:dc="http://purl.org/dc/elements/1.1/"
   xmlns:cc="http://creativecommons.org/ns#"
   xmlns:rdf="http://www.w3.org/1999/02/22-rdf-syntax-ns#"
   xmlns:svg="http://www.w3.org/2000/svg"
   xmlns="http://www.w3.org/2000/svg"
   xmlns:xlink="http://www.w3.org/1999/xlink"
   xmlns:sodipodi="http://sodipodi.sourceforge.net/DTD/sodipodi-0.dtd"
   xmlns:inkscape="http://www.inkscape.org/namespaces/inkscape"
   id="svg3215"
   height="22"
   width="22"
   version="1.0"
   inkscape:version="0.91 r13725"
   sodipodi:docname="ubuntuone-client-paused.svg">
  <defs
     id="defs8">
    <linearGradient
       inkscape:collect="always"
       xlink:href="#linearGradient3678"
       id="linearGradient4142"
       x1="10.716102"
       y1="3.9618645"
       x2="10.716102"
       y2="17.944916"
       gradientUnits="userSpaceOnUse" />
    <linearGradient
       id="linearGradient3678">
      <stop
         style="stop-color:#ffffff;stop-opacity:1;"
         offset="0"
         id="stop3680" />
      <stop
         style="stop-color:#e6e6e6;stop-opacity:1;"
         offset="1"
         id="stop3682" />
    </linearGradient>
  </defs>
  <sodipodi:namedview
     pagecolor="#ffffff"
     bordercolor="#666666"
     borderopacity="1"
     objecttolerance="10"
     gridtolerance="10"
     guidetolerance="10"
     inkscape:pageopacity="0"
     inkscape:pageshadow="2"
     inkscape:window-width="1920"
     inkscape:window-height="1029"
     id="namedview6"
     showgrid="false"
     inkscape:zoom="21.454545"
     inkscape:cx="15.056749"
     inkscape:cy="6.7935398"
     inkscape:window-x="0"
     inkscape:window-y="0"
     inkscape:window-maximized="1"
     inkscape:current-layer="svg3215" />
  <metadata
     id="metadata8">
    <rdf:RDF>
      <cc:Work
         rdf:about="">
        <dc:format>image/svg+xml</dc:format>
        <dc:type
           rdf:resource="http://purl.org/dc/dcmitype/StillImage" />
        <dc:title />
      </cc:Work>
    </rdf:RDF>
  </metadata>
  <path
     id="path3766"
     style="opacity:0.5;fill-rule:evenodd"
     d="m12.5 5c-1.689 0-3.1368 1.0624-3.9062 2.5938-0.4332-0.3606-0.9866-0.5938-1.5938-0.5938-1.38 0-2.5 1.12-2.5 2.5 0 0.3099 0.053 0.601 0.1562 0.875-1.5694 0.701-2.6562 2.289-2.6562 4.125 0 2.493 2.007 4.5 4.5 4.5h9c2.493 0 4.5-2.007 4.5-4.5 0-1.975-1.268-3.641-3.031-4.25 0.004-0.085 0.031-0.164 0.031-0.25 0-2.76-2.016-5-4.5-5zm-4.5 5h2v6h-2v-6zm4 0h2v6h-2v-6z" />
  <path
     id="rect3193"
     style="fill-rule:evenodd;fill:url(#linearGradient4142);fill-opacity:1"
     d="m12.5 4c-1.689 0-3.1368 1.0624-3.9062 2.5938-0.4332-0.3606-0.9866-0.5938-1.5938-0.5938-1.38 0-2.5 1.12-2.5 2.5 0 0.3099 0.053 0.601 0.1562 0.875-1.5694 0.701-2.6562 2.289-2.6562 4.125 0 2.493 2.007 4.5 4.5 4.5h9c2.493 0 4.5-2.007 4.5-4.5 0-1.975-1.268-3.641-3.031-4.25 0.004-0.0854 0.031-0.1635 0.031-0.25 0-2.76-2.016-5-4.5-5zm-4.5 5h2v6h-2v-6zm4 0h2v6h-2v-6z" />
</svg>
