<?xml version="1.0" encoding="UTF-8" standalone="no"?>
<!-- Created with Inkscape (http://www.inkscape.org/) -->

<svg
   xmlns:dc="http://purl.org/dc/elements/1.1/"
   xmlns:cc="http://creativecommons.org/ns#"
   xmlns:rdf="http://www.w3.org/1999/02/22-rdf-syntax-ns#"
   xmlns:svg="http://www.w3.org/2000/svg"
   xmlns="http://www.w3.org/2000/svg"
   xmlns:sodipodi="http://sodipodi.sourceforge.net/DTD/sodipodi-0.dtd"
   xmlns:inkscape="http://www.inkscape.org/namespaces/inkscape"
   width="48"
   height="48"
   id="svg2"
   sodipodi:version="0.32"
   inkscape:version="0.48.3.1 r9886"
   version="1.0"
   sodipodi:docname="alc.svg"
   inkscape:output_extension="org.inkscape.output.svg.inkscape">
  <defs
     id="defs4" />
  <sodipodi:namedview
     id="base"
     pagecolor="#ffffff"
     bordercolor="#666666"
     borderopacity="1.0"
     inkscape:pageopacity="0.0"
     inkscape:pageshadow="2"
     inkscape:zoom="8.109756"
     inkscape:cx="33.73609"
     inkscape:cy="18.735695"
     inkscape:document-units="px"
     inkscape:current-layer="layer1"
     inkscape:window-width="1366"
     inkscape:window-height="717"
     inkscape:window-x="0"
     inkscape:window-y="0"
     width="48px"
     height="48px"
     showgrid="true"
     inkscape:object-bbox="false"
     objecttolerance="10000"
     gridtolerance="10000"
     guidetolerance="10000"
     inkscape:window-maximized="1" />
  <metadata
     id="metadata7">
    <rdf:RDF>
      <cc:Work
         rdf:about="">
        <dc:format>image/svg+xml</dc:format>
        <dc:type
           rdf:resource="http://purl.org/dc/dcmitype/StillImage" />
      </cc:Work>
    </rdf:RDF>
  </metadata>
  <g
     inkscape:label="Ebene 1"
     inkscape:groupmode="layer"
     id="layer1"
     transform="translate(-244.3829,-331.6479)">
    <path
       inkscape:connector-curvature="0"
       id="path2983"
       d="m 269.12247,375.14315 c -0.8318,-0.75419 -2.21906,-1.63167 -2.57959,-1.63167 -0.17474,0 -0.89635,0.28672 -1.60355,0.63717 -1.10802,0.54906 -1.2982,0.60761 -1.37514,0.42332 -0.19168,-0.45916 -0.62293,-3.55252 -0.50978,-3.65654 0.0666,-0.0612 0.48163,0.0551 0.93682,0.26237 0.44953,0.20471 1.23693,0.53315 1.74976,0.72985 l 0.93244,0.35765 0.52872,-0.24446 c 0.29081,-0.13445 0.9845,-0.46644 1.54155,-0.73778 0.55704,-0.27132 1.03512,-0.47095 1.0624,-0.44361 0.0273,0.0274 0.0949,1.12901 0.15034,2.44817 0.11374,2.70787 0.11152,2.71279 -0.83397,1.85553 z m 2.09948,-1.47132 c -0.0449,-0.0413 -0.0817,-0.26563 -0.0817,-0.49852 0,-0.29998 0.0913,-0.47645 0.31312,-0.60524 0.62328,-0.36188 5.59015,-1.77437 6.29693,-1.79072 l 0.69579,-0.0161 -0.0222,0.42971 c -0.0122,0.23635 -0.081,0.48383 -0.15297,0.54995 -0.0719,0.0661 -1.3457,0.45749 -2.83058,0.8697 -3.99284,1.10842 -4.12964,1.14284 -4.21844,1.06122 z m -5.0512,-2.55008 c -0.39056,-0.54785 -0.42623,-2.15931 -0.0623,-2.815 l 0.28369,-0.51118 -0.65262,-0.13871 c -2.23689,-0.47542 -4.67079,-1.65915 -5.63469,-2.74045 -0.83371,-0.93524 -1.12239,-1.67307 -1.11647,-2.85355 0.007,-1.46705 0.54786,-2.68467 1.84106,-4.14749 0.81744,-0.92469 2.44686,-2.12004 3.58573,-2.63051 1.13228,-0.50752 3.60592,-1.14025 5.04142,-1.28954 0.47657,-0.0496 0.81553,-0.13376 0.75326,-0.1871 -0.0623,-0.0534 -0.56742,-0.2458 -1.12256,-0.42766 -1.32492,-0.43407 -3.47846,-1.27773 -4.69617,-1.83977 -1.46227,-0.67491 -2.51008,-1.37284 -3.87912,-2.58382 -3.15144,-2.78761 -5.03559,-5.64409 -5.78335,-8.76801 -0.16028,-0.66958 -0.55561,-3.17743 -0.50855,-3.22605 0.015,-0.0155 1.38858,0.6753 3.05246,1.53501 3.20269,1.65481 5.03109,2.82449 7.18814,4.59847 1.79112,1.47304 3.05744,2.85295 6.50324,7.08662 l 2.92855,3.59818 0.0711,-3.08651 c 0.0572,-2.48304 0.12595,-3.29908 0.35171,-4.1738 0.81571,-3.16043 2.37111,-5.77036 4.90639,-8.23284 1.12372,-1.09143 3.02476,-2.64014 3.24079,-2.64014 0.13976,0 0.10383,4.58676 -0.0536,6.84577 -0.38067,5.46203 -1.70021,8.91466 -4.51545,11.81489 -0.42309,0.43586 -0.76695,0.83346 -0.76418,0.88357 0.003,0.0501 0.31867,0.46525 0.70194,0.92257 0.91724,1.09439 1.75336,2.68573 2.02533,3.85471 0.40208,1.72828 0.0525,5.72317 -0.65242,7.45496 -0.36397,0.89423 -0.77462,1.20731 -2.6951,2.05469 -1.50849,0.6656 -4.8557,1.85781 -5.21592,1.85781 -0.14254,0 -0.16044,-0.22047 -0.0831,-1.02333 0.0914,-0.94869 0.0794,-1.02334 -0.16329,-1.02334 -0.14402,0 -0.38537,0.0766 -0.53633,0.17024 -0.15097,0.0936 -1.13311,0.58429 -2.18254,1.09035 l -1.90804,0.92011 -0.24891,-0.34915 z m -0.1165,-11.09475 c 0.60332,-0.23171 0.7721,-0.53362 0.7721,-1.38103 0,-0.84567 -0.25211,-1.2013 -0.97919,-1.38128 -1.22918,-0.30424 -2.0823,0.26674 -2.0823,1.39367 0,0.74866 0.21772,1.1541 0.72953,1.35858 0.58203,0.23252 0.97408,0.23505 1.55986,0.0101 z"
       style="fill:#000000;stroke-width:8;stroke-miterlimit:4;stroke-dasharray:none;stroke:#ffffff;stroke-opacity:1;stroke-linejoin:round;stroke-linecap:round" />
    <path
       style="fill:#000000"
       d="m 269.12247,375.14315 c -0.8318,-0.75419 -2.21906,-1.63167 -2.57959,-1.63167 -0.17474,0 -0.89635,0.28672 -1.60355,0.63717 -1.10802,0.54906 -1.2982,0.60761 -1.37514,0.42332 -0.19168,-0.45916 -0.62293,-3.55252 -0.50978,-3.65654 0.0666,-0.0612 0.48163,0.0551 0.93682,0.26237 0.44953,0.20471 1.23693,0.53315 1.74976,0.72985 l 0.93244,0.35765 0.52872,-0.24446 c 0.29081,-0.13445 0.9845,-0.46644 1.54155,-0.73778 0.55704,-0.27132 1.03512,-0.47095 1.0624,-0.44361 0.0273,0.0274 0.0949,1.12901 0.15034,2.44817 0.11374,2.70787 0.11152,2.71279 -0.83397,1.85553 z m 2.09948,-1.47132 c -0.0449,-0.0413 -0.0817,-0.26563 -0.0817,-0.49852 0,-0.29998 0.0913,-0.47645 0.31312,-0.60524 0.62328,-0.36188 5.59015,-1.77437 6.29693,-1.79072 l 0.69579,-0.0161 -0.0222,0.42971 c -0.0122,0.23635 -0.081,0.48383 -0.15297,0.54995 -0.0719,0.0661 -1.3457,0.45749 -2.83058,0.8697 -3.99284,1.10842 -4.12964,1.14284 -4.21844,1.06122 z m -5.0512,-2.55008 c -0.39056,-0.54785 -0.42623,-2.15931 -0.0623,-2.815 l 0.28369,-0.51118 -0.65262,-0.13871 c -2.23689,-0.47542 -4.67079,-1.65915 -5.63469,-2.74045 -0.83371,-0.93524 -1.12239,-1.67307 -1.11647,-2.85355 0.007,-1.46705 0.54786,-2.68467 1.84106,-4.14749 0.81744,-0.92469 2.44686,-2.12004 3.58573,-2.63051 1.13228,-0.50752 3.60592,-1.14025 5.04142,-1.28954 0.47657,-0.0496 0.81553,-0.13376 0.75326,-0.1871 -0.0623,-0.0534 -0.56742,-0.2458 -1.12256,-0.42766 -1.32492,-0.43407 -3.47846,-1.27773 -4.69617,-1.83977 -1.46227,-0.67491 -2.51008,-1.37284 -3.87912,-2.58382 -3.15144,-2.78761 -5.03559,-5.64409 -5.78335,-8.76801 -0.16028,-0.66958 -0.55561,-3.17743 -0.50855,-3.22605 0.015,-0.0155 1.38858,0.6753 3.05246,1.53501 3.20269,1.65481 5.03109,2.82449 7.18814,4.59847 1.79112,1.47304 3.05744,2.85295 6.50324,7.08662 l 2.92855,3.59818 0.0711,-3.08651 c 0.0572,-2.48304 0.12595,-3.29908 0.35171,-4.1738 0.81571,-3.16043 2.37111,-5.77036 4.90639,-8.23284 1.12372,-1.09143 3.02476,-2.64014 3.24079,-2.64014 0.13976,0 0.10383,4.58676 -0.0536,6.84577 -0.38067,5.46203 -1.70021,8.91466 -4.51545,11.81489 -0.42309,0.43586 -0.76695,0.83346 -0.76418,0.88357 0.003,0.0501 0.31867,0.46525 0.70194,0.92257 0.91724,1.09439 1.75336,2.68573 2.02533,3.85471 0.40208,1.72828 0.0525,5.72317 -0.65242,7.45496 -0.36397,0.89423 -0.77462,1.20731 -2.6951,2.05469 -1.50849,0.6656 -4.8557,1.85781 -5.21592,1.85781 -0.14254,0 -0.16044,-0.22047 -0.0831,-1.02333 0.0914,-0.94869 0.0794,-1.02334 -0.16329,-1.02334 -0.14402,0 -0.38537,0.0766 -0.53633,0.17024 -0.15097,0.0936 -1.13311,0.58429 -2.18254,1.09035 l -1.90804,0.92011 -0.24891,-0.34915 z m -0.1165,-11.09475 c 0.60332,-0.23171 0.7721,-0.53362 0.7721,-1.38103 0,-0.84567 -0.25211,-1.2013 -0.97919,-1.38128 -1.22918,-0.30424 -2.0823,0.26674 -2.0823,1.39367 0,0.74866 0.21772,1.1541 0.72953,1.35858 0.58203,0.23252 0.97408,0.23505 1.55986,0.0101 z"
       id="path1933"
       inkscape:connector-curvature="0" />
  </g>
</svg>
