<?xml version="1.0" encoding="UTF-8" standalone="no"?>
<!-- Created with Inkscape (http://www.inkscape.org/) -->

<svg
   xmlns:dc="http://purl.org/dc/elements/1.1/"
   xmlns:cc="http://creativecommons.org/ns#"
   xmlns:rdf="http://www.w3.org/1999/02/22-rdf-syntax-ns#"
   xmlns:svg="http://www.w3.org/2000/svg"
   xmlns="http://www.w3.org/2000/svg"
   xmlns:sodipodi="http://sodipodi.sourceforge.net/DTD/sodipodi-0.dtd"
   xmlns:inkscape="http://www.inkscape.org/namespaces/inkscape"
   width="48px"
   height="48px"
   id="svg2108"
   sodipodi:version="0.32"
   inkscape:version="0.48.3.1 r9886"
   sodipodi:docname="amule.svg"
   inkscape:export-filename="/home/jesusda/docs/themes/iconos/pasodoble/amule_48.png"
   inkscape:export-xdpi="90"
   inkscape:export-ydpi="90"
   inkscape:output_extension="org.inkscape.output.svg.inkscape"
   version="1.1">
  <defs
     id="defs3">
    <linearGradient
       id="linearGradient34648">
      <stop
         id="stop34650"
         offset="0"
         style="stop-color:white;stop-opacity:1;" />
      <stop
         id="stop34652"
         offset="1"
         style="stop-color:white;stop-opacity:0" />
    </linearGradient>
    <linearGradient
       id="linearGradient25671">
      <stop
         style="stop-color:white;stop-opacity:1;"
         offset="0"
         id="stop25673" />
      <stop
         style="stop-color:white;stop-opacity:0;"
         offset="1"
         id="stop25675" />
    </linearGradient>
    <linearGradient
       id="linearGradient19466">
      <stop
         style="stop-color:#f1f1f1;stop-opacity:1;"
         offset="0"
         id="stop19468" />
      <stop
         style="stop-color:#babdb6;stop-opacity:1;"
         offset="1"
         id="stop19470" />
    </linearGradient>
    <linearGradient
       id="linearGradient11455">
      <stop
         style="stop-color:#e7a53c;stop-opacity:1;"
         offset="0"
         id="stop11457" />
      <stop
         style="stop-color:#c17d11;stop-opacity:1;"
         offset="1"
         id="stop11459" />
    </linearGradient>
  </defs>
  <sodipodi:namedview
     inkscape:showpageshadow="false"
     id="base"
     pagecolor="#ffffff"
     bordercolor="#666666"
     borderopacity="1.0"
     inkscape:pageopacity="0.0"
     inkscape:pageshadow="2"
     inkscape:zoom="7.9999999"
     inkscape:cx="-4.1142103"
     inkscape:cy="25.727597"
     inkscape:current-layer="layer1"
     showgrid="true"
     inkscape:grid-bbox="true"
     inkscape:document-units="px"
     fill="#9db029"
     stroke="#727e0a"
     inkscape:window-width="1366"
     inkscape:window-height="717"
     inkscape:window-x="0"
     inkscape:window-y="0"
     objecttolerance="10000"
     gridtolerance="10000"
     guidetolerance="10000"
     inkscape:window-maximized="1" />
  <metadata
     id="metadata4">
    <rdf:RDF>
      <cc:Work
         rdf:about="">
        <dc:format>image/svg+xml</dc:format>
        <dc:type
           rdf:resource="http://purl.org/dc/dcmitype/StillImage" />
        <dc:title>aMule</dc:title>
        <dc:creator>
          <cc:Agent>
            <dc:title>jEsuSdA 8)</dc:title>
          </cc:Agent>
        </dc:creator>
        <dc:source>http://www.jesusda.com</dc:source>
        <dc:subject>
          <rdf:Bag>
            <rdf:li>amule</rdf:li>
            <rdf:li>xmule</rdf:li>
            <rdf:li>edonkey</rdf:li>
            <rdf:li>p2p</rdf:li>
          </rdf:Bag>
        </dc:subject>
        <cc:license
           rdf:resource="http://creativecommons.org/licenses/by-sa/2.0/" />
      </cc:Work>
      <cc:License
         rdf:about="http://creativecommons.org/licenses/by-sa/2.0/">
        <cc:permits
           rdf:resource="http://web.resource.org/cc/Reproduction" />
        <cc:permits
           rdf:resource="http://web.resource.org/cc/Distribution" />
        <cc:requires
           rdf:resource="http://web.resource.org/cc/Notice" />
        <cc:requires
           rdf:resource="http://web.resource.org/cc/Attribution" />
        <cc:permits
           rdf:resource="http://web.resource.org/cc/DerivativeWorks" />
        <cc:requires
           rdf:resource="http://web.resource.org/cc/ShareAlike" />
      </cc:License>
    </rdf:RDF>
  </metadata>
  <g
     id="layer1"
     inkscape:label="cipek"
     inkscape:groupmode="layer"
     style="display:inline">
    <g
       transform="matrix(0.83342623,0,0,0.83342623,4.2619403,3.9968118)"
       id="g3011"
       style="stroke:#ffffff;stroke-opacity:1;stroke-width:9.59892995;stroke-miterlimit:4;stroke-dasharray:none;stroke-linejoin:round;stroke-linecap:round">
      <path
         inkscape:connector-curvature="0"
         style="fill:#000000;fill-opacity:1;fill-rule:evenodd;stroke:#ffffff;display:inline;stroke-opacity:1;stroke-width:9.59892995;stroke-miterlimit:4;stroke-dasharray:none;stroke-linejoin:round;stroke-linecap:round"
         d="m 22.5,10.625 c -1.650727,0.164612 -3.260108,0.929694 -4.71875,1.9375 -1.458642,1.007806 -2.761836,2.247273 -3.4375,3.75 -1.734319,3.85726 -0.28125,8.241392 -0.28125,11.5625 0,1.483221 -0.592705,4.057585 -0.90625,6.375 -0.156772,1.158707 -0.257431,2.26425 -0.0625,3.34375 0.194931,1.0795 0.945928,2.354565 2.21875,2.71875 3.096417,0.885954 7.785215,0.421714 12.5,-0.5 4.714785,-0.921714 9.212651,-2.269258 11.6875,-4.15625 0.529069,-0.403397 0.898748,-1.082717 0.96875,-1.71875 0.07,-0.636033 -0.08393,-1.173353 -0.28125,-1.65625 C 39.792868,31.315455 39.169454,30.452509 38.46875,29.5625 37.067341,27.782482 35.384101,25.821309 34.9375,24.71875 34.415215,23.429336 34.231074,21.697217 33.96875,19.875 33.706426,18.052783 33.338488,16.058195 32,14.4375 30.940105,13.154137 29.38706,12.244634 27.6875,11.5625 25.98794,10.880366 24.166619,10.458804 22.5,10.625 z m 0.3125,2.96875 c 0.87832,-0.08759 2.38355,0.201563 3.75,0.75 1.36645,0.548437 2.603189,1.399421 3.125,2.03125 0.704667,0.853239 1.067176,2.202122 1.3125,3.90625 0.245324,1.704128 0.393793,3.680152 1.15625,5.5625 0.842833,2.080769 2.644902,3.951941 3.9375,5.59375 0.646299,0.820905 1.14851,1.567412 1.3125,1.96875 -1.613706,1.121048 -5.820045,2.589796 -10.15625,3.4375 -4.475941,0.875022 -9.23702,1.102693 -11.125,0.5625 -0.06998,-0.02002 -0.0074,0.134691 -0.09375,-0.34375 -0.08639,-0.478441 -0.04578,-1.375005 0.09375,-2.40625 0.279054,-2.062489 0.9375,-4.606867 0.9375,-6.78125 0,-3.994104 -1.011192,-8.025277 0.03125,-10.34375 0.299996,-0.667213 1.234883,-1.71227 2.375,-2.5 1.140117,-0.78773 2.496131,-1.352974 3.34375,-1.4375 z"
         id="path3013" />
      <path
         inkscape:connector-curvature="0"
         style="fill:#000000;fill-opacity:1;fill-rule:evenodd;stroke:#ffffff;stroke-opacity:1;stroke-width:9.59892995;stroke-miterlimit:4;stroke-dasharray:none;stroke-linejoin:round;stroke-linecap:round"
         d="m 34.59375,37.8125 c -0.670017,0.0607 -1.368131,0.205626 -2.03125,0.40625 -0.663119,0.200624 -1.280386,0.450612 -1.84375,0.78125 -0.563364,0.330638 -1.210227,0.644364 -1.46875,1.6875 -0.22081,0.890959 -0.0087,1.562283 0.25,2.21875 0.258681,0.656467 0.636218,1.283864 1.0625,1.90625 0.852564,1.244771 1.787475,2.395373 3.1875,2.96875 0.764865,0.313249 1.398766,0.216347 2,0.09375 0.601234,-0.122597 1.190036,-0.328762 1.75,-0.59375 0.559964,-0.264988 1.066311,-0.558438 1.53125,-0.9375 0.464939,-0.379062 0.945057,-0.772838 1.15625,-1.625 0.366417,-1.478486 -0.181498,-2.630979 -0.8125,-3.8125 -0.631002,-1.181521 -1.367279,-2.308708 -2.75,-2.875 -0.738726,-0.302544 -1.361233,-0.27945 -2.03125,-0.21875 z m 0.25,2.96875 c 0.414044,-0.03751 0.75833,0.04181 0.65625,0 0.02323,0.0095 0.781261,0.712073 1.21875,1.53125 0.437489,0.819177 0.517507,1.869046 0.5625,1.6875 0.08297,-0.334769 0.08891,-0.174402 -0.125,0 -0.213913,0.174402 -0.564385,0.385933 -0.9375,0.5625 -0.373115,0.176567 -0.772827,0.315933 -1.0625,0.375 -0.289673,0.05907 -0.49378,-0.02454 -0.28125,0.0625 -0.174553,-0.07149 -1.197104,-0.930875 -1.84375,-1.875 -0.323323,-0.472062 -0.573957,-0.976302 -0.71875,-1.34375 -0.07454,-0.18916 -0.0824,-0.110014 -0.09375,-0.1875 0.266418,-0.15636 0.73343,-0.353169 1.21875,-0.5 0.48532,-0.146831 0.992206,-0.27499 1.40625,-0.3125 z"
         id="path3015" />
      <path
         inkscape:connector-curvature="0"
         style="fill:#000000;fill-opacity:1;fill-rule:evenodd;stroke:#ffffff;stroke-opacity:1;stroke-width:9.59892995;stroke-miterlimit:4;stroke-dasharray:none;stroke-linejoin:round;stroke-linecap:round"
         d="m 29.59375,8.25 c -1.425583,0.03296 -2.808937,0.2569964 -3.96875,0.71875 -0.752635,0.2996454 -1.094584,0.7800786 -1.4375,1.25 -0.342916,0.469921 -0.614796,0.986335 -0.8125,1.53125 l -0.59375,1.65625 1.71875,0.3125 c 1.804886,0.347472 3.980773,1.447539 4.9375,2.40625 l 0.3125,0.3125 0.4375,0.09375 c 2.706543,0.567149 5.663793,1.033585 8.125,1.3125 1.230604,0.139458 2.333153,0.22588 3.25,0.25 0.916847,0.02412 1.524527,0.119848 2.375,-0.21875 0.414425,-0.164994 0.997684,-0.828094 1.03125,-1.4375 0.03357,-0.609406 -0.167039,-0.9064 -0.3125,-1.125 -0.290922,-0.4372 -0.576852,-0.675083 -0.9375,-0.96875 -0.721295,-0.587333 -1.734942,-1.24963 -2.875,-1.9375 C 38.563635,11.03051 35.785386,9.5869603 33.78125,8.875 32.489754,8.4162007 31.031342,8.2167628 29.59375,8.25 z m 0.0625,3 c 1.103744,-0.02552 2.283604,0.138597 3.125,0.4375 1.56415,0.555657 4.311077,1.943646 6.4375,3.21875 -0.209573,-0.02128 -0.342833,-0.0064 -0.5625,-0.03125 -2.280857,-0.258477 -5.075127,-0.723126 -7.625,-1.25 -0.974413,-0.846441 -2.149738,-1.491155 -3.4375,-2 0.638951,-0.163816 1.270813,-0.356696 2.0625,-0.375 z"
         id="path3017" />
      <path
         inkscape:connector-curvature="0"
         style="fill:#000000;fill-opacity:1;fill-rule:evenodd;stroke:#ffffff;stroke-opacity:1;stroke-width:9.59892995;stroke-miterlimit:4;stroke-dasharray:none;stroke-linejoin:round;stroke-linecap:round"
         d="M 7.375,0.09375 C 7.2925714,0.12119474 7.0911904,0.20392099 6.8125,0.4375 6.5338096,0.67107901 6.2600942,1.1387336 6.21875,1.5 c -0.069411,0.6065185 0.059956,1.0109401 0.1875,1.53125 0.1275443,0.5203099 0.2997757,1.0996242 0.53125,1.75 0.4629486,1.3007517 1.1116832,2.854144 1.875,4.53125 1.526634,3.354212 3.471854,7.143547 5.1875,9.875 l 2,3.15625 0.75,-3.65625 c 0.09405,-0.460693 0.209411,-0.857469 0.34375,-1.15625 0.324254,-0.721165 1.453496,-1.895995 2.75,-2.71875 l 0.96875,-0.625 -0.34375,-1.09375 C 20.078216,11.807037 19.530004,10.564254 18.75,9.5 17.466022,7.7481159 15.258953,5.466077 13.1875,3.5625 12.151774,2.6107115 11.155348,1.7463323 10.3125,1.125 9.8910762,0.81433386 9.5106903,0.57680577 9.125,0.375 8.9321548,0.27409712 8.7514675,0.16499606 8.5,0.09375 8.2485325,0.02250394 7.9054642,-0.08286867 7.375,0.09375 z M 10.25,5 c 0.319859,0.2779581 0.568263,0.4394047 0.90625,0.75 1.963541,1.8044106 4.123318,4.0906467 5.15625,5.5 0.337374,0.46032 0.60859,1.160321 0.875,1.8125 -0.771199,0.586748 -1.414851,1.256568 -1.96875,2 C 13.954976,12.821977 12.6171,10.479504 11.53125,8.09375 11.001344,6.9294774 10.629455,5.9669018 10.25,5 z"
         id="path3019" />
      <path
         sodipodi:type="arc"
         style="fill:#000000;fill-opacity:1;fill-rule:evenodd;stroke:#ffffff;stroke-width:138.17471601;stroke-miterlimit:4;stroke-opacity:1;stroke-dasharray:none;stroke-linejoin:round;stroke-linecap:round"
         id="path3021"
         sodipodi:cx="320.64716"
         sodipodi:cy="683.87244"
         sodipodi:rx="167.95804"
         sodipodi:ry="128.25887"
         d="m 488.60519,683.87244 c 0,70.83541 -75.19737,128.25886 -167.95803,128.25886 -92.76067,0 -167.95804,-57.42345 -167.95804,-128.25886 0,-70.83542 75.19737,-128.25887 167.95804,-128.25887 92.76066,0 167.95803,57.42345 167.95803,128.25887 z"
         transform="matrix(0.07970761,-0.01200931,0.01525557,0.05824794,-9.354171,0.3736775)" />
      <path
         sodipodi:type="arc"
         style="fill:#000000;fill-opacity:1;fill-rule:evenodd;stroke:#ffffff;stroke-width:82.70956794;stroke-opacity:1;stroke-miterlimit:4;stroke-dasharray:none;stroke-linejoin:round;stroke-linecap:round"
         id="path3023"
         sodipodi:cx="297.23483"
         sodipodi:cy="487.41241"
         sodipodi:rx="24.43026"
         sodipodi:ry="23.412333"
         d="m 321.66509,487.41241 c 0,12.93028 -10.9378,23.41234 -24.43026,23.41234 -13.49246,0 -24.43026,-10.48206 -24.43026,-23.41234 0,-12.93027 10.9378,-23.41233 24.43026,-23.41233 13.49246,0 24.43026,10.48206 24.43026,23.41233 z"
         transform="matrix(0.1023782,-0.02160856,0.01729527,0.1279104,-16.855638,-31.815609)" />
      <path
         sodipodi:type="arc"
         style="fill:#000000;fill-opacity:1;fill-rule:evenodd;stroke:#ffffff;stroke-width:90.02806717;stroke-opacity:1;stroke-miterlimit:4;stroke-dasharray:none;stroke-linejoin:round;stroke-linecap:round"
         id="path3025"
         sodipodi:cx="297.23483"
         sodipodi:cy="487.41241"
         sodipodi:rx="24.43026"
         sodipodi:ry="23.412333"
         d="m 321.66509,487.41241 c 0,12.93028 -10.9378,23.41234 -24.43026,23.41234 -13.49246,0 -24.43026,-10.48206 -24.43026,-23.41234 0,-12.93027 10.9378,-23.41233 24.43026,-23.41233 13.49246,0 24.43026,10.48206 24.43026,23.41233 z"
         transform="matrix(0.09627539,0,0,0.1180795,-0.5588137,-34.382628)" />
    </g>
    <g
       id="g3002"
       transform="matrix(0.83342623,0,0,0.83342623,4.2619403,3.9968118)">
      <path
         id="path826"
         d="m 22.5,10.625 c -1.650727,0.164612 -3.260108,0.929694 -4.71875,1.9375 -1.458642,1.007806 -2.761836,2.247273 -3.4375,3.75 -1.734319,3.85726 -0.28125,8.241392 -0.28125,11.5625 0,1.483221 -0.592705,4.057585 -0.90625,6.375 -0.156772,1.158707 -0.257431,2.26425 -0.0625,3.34375 0.194931,1.0795 0.945928,2.354565 2.21875,2.71875 3.096417,0.885954 7.785215,0.421714 12.5,-0.5 4.714785,-0.921714 9.212651,-2.269258 11.6875,-4.15625 0.529069,-0.403397 0.898748,-1.082717 0.96875,-1.71875 0.07,-0.636033 -0.08393,-1.173353 -0.28125,-1.65625 C 39.792868,31.315455 39.169454,30.452509 38.46875,29.5625 37.067341,27.782482 35.384101,25.821309 34.9375,24.71875 34.415215,23.429336 34.231074,21.697217 33.96875,19.875 33.706426,18.052783 33.338488,16.058195 32,14.4375 30.940105,13.154137 29.38706,12.244634 27.6875,11.5625 25.98794,10.880366 24.166619,10.458804 22.5,10.625 z m 0.3125,2.96875 c 0.87832,-0.08759 2.38355,0.201563 3.75,0.75 1.36645,0.548437 2.603189,1.399421 3.125,2.03125 0.704667,0.853239 1.067176,2.202122 1.3125,3.90625 0.245324,1.704128 0.393793,3.680152 1.15625,5.5625 0.842833,2.080769 2.644902,3.951941 3.9375,5.59375 0.646299,0.820905 1.14851,1.567412 1.3125,1.96875 -1.613706,1.121048 -5.820045,2.589796 -10.15625,3.4375 -4.475941,0.875022 -9.23702,1.102693 -11.125,0.5625 -0.06998,-0.02002 -0.0074,0.134691 -0.09375,-0.34375 -0.08639,-0.478441 -0.04578,-1.375005 0.09375,-2.40625 0.279054,-2.062489 0.9375,-4.606867 0.9375,-6.78125 0,-3.994104 -1.011192,-8.025277 0.03125,-10.34375 0.299996,-0.667213 1.234883,-1.71227 2.375,-2.5 1.140117,-0.78773 2.496131,-1.352974 3.34375,-1.4375 z"
         style="fill:#000000;fill-opacity:1;fill-rule:evenodd;stroke:none;display:inline"
         inkscape:connector-curvature="0" />
      <path
         id="path916"
         d="m 34.59375,37.8125 c -0.670017,0.0607 -1.368131,0.205626 -2.03125,0.40625 -0.663119,0.200624 -1.280386,0.450612 -1.84375,0.78125 -0.563364,0.330638 -1.210227,0.644364 -1.46875,1.6875 -0.22081,0.890959 -0.0087,1.562283 0.25,2.21875 0.258681,0.656467 0.636218,1.283864 1.0625,1.90625 0.852564,1.244771 1.787475,2.395373 3.1875,2.96875 0.764865,0.313249 1.398766,0.216347 2,0.09375 0.601234,-0.122597 1.190036,-0.328762 1.75,-0.59375 0.559964,-0.264988 1.066311,-0.558438 1.53125,-0.9375 0.464939,-0.379062 0.945057,-0.772838 1.15625,-1.625 0.366417,-1.478486 -0.181498,-2.630979 -0.8125,-3.8125 -0.631002,-1.181521 -1.367279,-2.308708 -2.75,-2.875 -0.738726,-0.302544 -1.361233,-0.27945 -2.03125,-0.21875 z m 0.25,2.96875 c 0.414044,-0.03751 0.75833,0.04181 0.65625,0 0.02323,0.0095 0.781261,0.712073 1.21875,1.53125 0.437489,0.819177 0.517507,1.869046 0.5625,1.6875 0.08297,-0.334769 0.08891,-0.174402 -0.125,0 -0.213913,0.174402 -0.564385,0.385933 -0.9375,0.5625 -0.373115,0.176567 -0.772827,0.315933 -1.0625,0.375 -0.289673,0.05907 -0.49378,-0.02454 -0.28125,0.0625 -0.174553,-0.07149 -1.197104,-0.930875 -1.84375,-1.875 -0.323323,-0.472062 -0.573957,-0.976302 -0.71875,-1.34375 -0.07454,-0.18916 -0.0824,-0.110014 -0.09375,-0.1875 0.266418,-0.15636 0.73343,-0.353169 1.21875,-0.5 0.48532,-0.146831 0.992206,-0.27499 1.40625,-0.3125 z"
         style="fill:#000000;fill-opacity:1;fill-rule:evenodd;stroke:none"
         inkscape:connector-curvature="0" />
      <path
         id="path837"
         d="m 29.59375,8.25 c -1.425583,0.03296 -2.808937,0.2569964 -3.96875,0.71875 -0.752635,0.2996454 -1.094584,0.7800786 -1.4375,1.25 -0.342916,0.469921 -0.614796,0.986335 -0.8125,1.53125 l -0.59375,1.65625 1.71875,0.3125 c 1.804886,0.347472 3.980773,1.447539 4.9375,2.40625 l 0.3125,0.3125 0.4375,0.09375 c 2.706543,0.567149 5.663793,1.033585 8.125,1.3125 1.230604,0.139458 2.333153,0.22588 3.25,0.25 0.916847,0.02412 1.524527,0.119848 2.375,-0.21875 0.414425,-0.164994 0.997684,-0.828094 1.03125,-1.4375 0.03357,-0.609406 -0.167039,-0.9064 -0.3125,-1.125 -0.290922,-0.4372 -0.576852,-0.675083 -0.9375,-0.96875 -0.721295,-0.587333 -1.734942,-1.24963 -2.875,-1.9375 C 38.563635,11.03051 35.785386,9.5869603 33.78125,8.875 32.489754,8.4162007 31.031342,8.2167628 29.59375,8.25 z m 0.0625,3 c 1.103744,-0.02552 2.283604,0.138597 3.125,0.4375 1.56415,0.555657 4.311077,1.943646 6.4375,3.21875 -0.209573,-0.02128 -0.342833,-0.0064 -0.5625,-0.03125 -2.280857,-0.258477 -5.075127,-0.723126 -7.625,-1.25 -0.974413,-0.846441 -2.149738,-1.491155 -3.4375,-2 0.638951,-0.163816 1.270813,-0.356696 2.0625,-0.375 z"
         style="fill:#000000;fill-opacity:1;fill-rule:evenodd;stroke:none"
         inkscape:connector-curvature="0" />
      <path
         id="path839"
         d="M 7.375,0.09375 C 7.2925714,0.12119474 7.0911904,0.20392099 6.8125,0.4375 6.5338096,0.67107901 6.2600942,1.1387336 6.21875,1.5 c -0.069411,0.6065185 0.059956,1.0109401 0.1875,1.53125 0.1275443,0.5203099 0.2997757,1.0996242 0.53125,1.75 0.4629486,1.3007517 1.1116832,2.854144 1.875,4.53125 1.526634,3.354212 3.471854,7.143547 5.1875,9.875 l 2,3.15625 0.75,-3.65625 c 0.09405,-0.460693 0.209411,-0.857469 0.34375,-1.15625 0.324254,-0.721165 1.453496,-1.895995 2.75,-2.71875 l 0.96875,-0.625 -0.34375,-1.09375 C 20.078216,11.807037 19.530004,10.564254 18.75,9.5 17.466022,7.7481159 15.258953,5.466077 13.1875,3.5625 12.151774,2.6107115 11.155348,1.7463323 10.3125,1.125 9.8910762,0.81433386 9.5106903,0.57680577 9.125,0.375 8.9321548,0.27409712 8.7514675,0.16499606 8.5,0.09375 8.2485325,0.02250394 7.9054642,-0.08286867 7.375,0.09375 z M 10.25,5 c 0.319859,0.2779581 0.568263,0.4394047 0.90625,0.75 1.963541,1.8044106 4.123318,4.0906467 5.15625,5.5 0.337374,0.46032 0.60859,1.160321 0.875,1.8125 -0.771199,0.586748 -1.414851,1.256568 -1.96875,2 C 13.954976,12.821977 12.6171,10.479504 11.53125,8.09375 11.001344,6.9294774 10.629455,5.9669018 10.25,5 z"
         style="fill:#000000;fill-opacity:1;fill-rule:evenodd;stroke:none"
         inkscape:connector-curvature="0" />
      <path
         transform="matrix(0.07970761,-0.01200931,0.01525557,0.05824794,-9.354171,0.3736775)"
         d="m 488.60519,683.87244 c 0,70.83541 -75.19737,128.25886 -167.95803,128.25886 -92.76067,0 -167.95804,-57.42345 -167.95804,-128.25886 0,-70.83542 75.19737,-128.25887 167.95804,-128.25887 92.76066,0 167.95803,57.42345 167.95803,128.25887 z"
         sodipodi:ry="128.25887"
         sodipodi:rx="167.95804"
         sodipodi:cy="683.87244"
         sodipodi:cx="320.64716"
         id="path829"
         style="fill:#000000;fill-opacity:1;fill-rule:evenodd;stroke:#000000;stroke-width:14.39480495;stroke-miterlimit:4;stroke-opacity:1;stroke-dasharray:none"
         sodipodi:type="arc" />
      <path
         transform="matrix(0.1023782,-0.02160856,0.01729527,0.1279104,-16.855638,-31.815609)"
         d="m 321.66509,487.41241 c 0,12.93028 -10.9378,23.41234 -24.43026,23.41234 -13.49246,0 -24.43026,-10.48206 -24.43026,-23.41234 0,-12.93027 10.9378,-23.41233 24.43026,-23.41233 13.49246,0 24.43026,10.48206 24.43026,23.41233 z"
         sodipodi:ry="23.412333"
         sodipodi:rx="24.43026"
         sodipodi:cy="487.41241"
         sodipodi:cx="297.23483"
         id="path863"
         style="fill:#000000;fill-opacity:1;fill-rule:evenodd;stroke:#000000;stroke-width:0.74640436pt"
         sodipodi:type="arc" />
      <path
         transform="matrix(0.09627539,0,0,0.1180795,-0.5588137,-34.382628)"
         d="m 321.66509,487.41241 c 0,12.93028 -10.9378,23.41234 -24.43026,23.41234 -13.49246,0 -24.43026,-10.48206 -24.43026,-23.41234 0,-12.93027 10.9378,-23.41233 24.43026,-23.41233 13.49246,0 24.43026,10.48206 24.43026,23.41233 z"
         sodipodi:ry="23.412333"
         sodipodi:rx="24.43026"
         sodipodi:cy="487.41241"
         sodipodi:cx="297.23483"
         id="path857"
         style="fill:#000000;fill-opacity:1;fill-rule:evenodd;stroke:#000000;stroke-width:0.80502539pt"
         sodipodi:type="arc" />
    </g>
  </g>
  <g
     inkscape:groupmode="layer"
     id="layer2"
     inkscape:label="dalsi cipek"
     style="display:inline" />
</svg>
