<?xml version="1.0" encoding="UTF-8" standalone="no"?>
<!-- Created with Inkscape (http://www.inkscape.org/) -->

<svg
   xmlns:dc="http://purl.org/dc/elements/1.1/"
   xmlns:cc="http://creativecommons.org/ns#"
   xmlns:rdf="http://www.w3.org/1999/02/22-rdf-syntax-ns#"
   xmlns:svg="http://www.w3.org/2000/svg"
   xmlns="http://www.w3.org/2000/svg"
   xmlns:sodipodi="http://sodipodi.sourceforge.net/DTD/sodipodi-0.dtd"
   xmlns:inkscape="http://www.inkscape.org/namespaces/inkscape"
   id="svg2"
   sodipodi:version="0.32"
   inkscape:version="0.48.3.1 r9886"
   width="48"
   height="48"
   version="1.0"
   sodipodi:docname="anjuta.svg"
   inkscape:output_extension="org.inkscape.output.svg.inkscape">
  <metadata
     id="metadata7">
    <rdf:RDF>
      <cc:Work
         rdf:about="">
        <dc:format>image/svg+xml</dc:format>
        <dc:type
           rdf:resource="http://purl.org/dc/dcmitype/StillImage" />
      </cc:Work>
    </rdf:RDF>
  </metadata>
  <defs
     id="defs5" />
  <sodipodi:namedview
     inkscape:window-height="717"
     inkscape:window-width="1366"
     inkscape:pageshadow="2"
     inkscape:pageopacity="0.0"
     guidetolerance="10000"
     gridtolerance="10000"
     objecttolerance="10000"
     borderopacity="1.0"
     bordercolor="#666666"
     pagecolor="#ffffff"
     id="base"
     width="48px"
     height="48px"
     showgrid="true"
     inkscape:zoom="9.1460674"
     inkscape:cx="4.5888931"
     inkscape:cy="25.360327"
     inkscape:window-x="0"
     inkscape:window-y="0"
     inkscape:current-layer="svg2"
     inkscape:window-maximized="1" />
  <path
     inkscape:connector-curvature="0"
     id="path2982"
     d="m 24.210433,42.712482 c -1.168492,-0.7071 -1.990445,-3.649304 -1.8192,-6.511881 0.144292,-2.412006 0.128779,-2.439527 -1.518065,-2.693146 -2.276356,-0.350567 -3.600432,-2.332895 -3.878145,-5.806139 -0.268745,-3.361076 0.598008,-4.336764 1.34328,-1.512105 0.718667,2.723828 2.327133,5.262745 3.357187,5.299215 2.695512,0.09544 5.748906,0.588077 6.932392,1.118472 1.2774,0.572483 1.189008,0.620765 -1.613297,0.881231 l -2.964744,0.275564 -0.152601,2.484931 c -0.142378,2.31849 -0.02041,2.615344 1.820903,4.432002 1.085428,1.070891 1.839693,2.085852 1.676149,2.255472 -0.450341,0.467067 -2.251546,0.340561 -3.183859,-0.223616 z M 34.246031,37.56167 c -1.638234,-1.582935 -1.103378,-2.230194 1.714709,-2.075066 2.665115,0.146708 3.74263,-0.593809 4.299044,-2.9545 0.35629,-1.511617 -0.880446,-4.149407 -1.94546,-4.149407 -1.491166,0 -4.557813,-3.113504 -7.074649,-7.182751 -1.806392,-2.92059 -2.819449,-4.091717 -3.539452,-4.091717 -1.056704,0 -4.2272,-2.903677 -3.731662,-3.417618 0.15738,-0.163224 1.086595,0.193044 2.064923,0.791709 0.978327,0.598666 2.155187,1.096155 2.615248,1.105533 0.966516,0.0197 3.06003,1.697492 3.06003,2.452377 0,0.82182 4.441375,6.24266 5.114705,6.24266 0.337309,0 1.881585,1.233986 3.431719,2.742189 3.151312,3.066069 3.458584,4.289831 2.016006,8.029091 -1.280075,3.318042 -5.743094,4.712531 -8.025161,2.5075 z M 5.1237613,36.554113 C 4.5759363,35.644326 4.6302366,35.382718 5.5226537,34.632328 6.2616201,34.010967 6.9475374,32.06099 7.9321712,27.782369 8.6892324,24.492642 9.7347893,21.177497 10.255632,20.41538 c 0.520842,-0.762116 1.319008,-1.966389 1.773704,-2.676163 0.454695,-0.709775 1.121763,-1.480993 1.482373,-1.713818 0.537623,-0.347117 0.541057,-0.615051 0.01907,-1.488384 -0.79795,-1.335052 -0.885785,-6.1644453 -0.138458,-7.6127034 0.550138,-1.0661187 0.58942,-1.0536309 2.026864,0.6443322 0.80622,0.9523364 1.465854,1.9135319 1.465854,2.1359894 0,0.2224582 0.367996,0.8262018 0.81777,1.3416538 0.82348,0.943733 0.534616,1.196032 -1.13214,0.98883 -0.83046,-0.103238 -1.237341,1.418792 -0.672105,2.514168 0.693629,1.344197 0.612149,2.046468 -0.237443,2.046468 -1.236841,0 -2.246689,2.250389 -3.954484,8.812322 C 8.8768186,36.281222 6.9370871,39.565548 5.1237613,36.554113 z M 25.779274,12.274245 c 0,-1.193562 -1.924725,-1.52317 -3.000155,-0.513774 -0.925602,0.86877 -0.952757,0.837133 -0.95008,-1.106879 0.0037,-2.7061619 0.891364,-5.8447804 1.652973,-5.8447804 0.341566,0 1.331715,0.7604746 2.200333,1.6899438 1.558312,1.6674828 2.016258,3.7074306 1.279375,5.6990416 -0.374195,1.011348 -1.182446,1.063604 -1.182446,0.07645 z"
     style="fill:#000000;stroke:#ffffff;stroke-width:8;stroke-miterlimit:4;stroke-opacity:1;stroke-dasharray:none;stroke-linejoin:round;stroke-linecap:round" />
  <path
     style="fill:#000000;stroke:#000000;stroke-width:1.67126274;stroke-miterlimit:4;stroke-opacity:1;stroke-dasharray:none"
     d="m 24.210433,42.712482 c -1.168492,-0.7071 -1.990445,-3.649304 -1.8192,-6.511881 0.144292,-2.412006 0.128779,-2.439527 -1.518065,-2.693146 -2.276356,-0.350567 -3.600432,-2.332895 -3.878145,-5.806139 -0.268745,-3.361076 0.598008,-4.336764 1.34328,-1.512105 0.718667,2.723828 2.327133,5.262745 3.357187,5.299215 2.695512,0.09544 5.748906,0.588077 6.932392,1.118472 1.2774,0.572483 1.189008,0.620765 -1.613297,0.881231 l -2.964744,0.275564 -0.152601,2.484931 c -0.142378,2.31849 -0.02041,2.615344 1.820903,4.432002 1.085428,1.070891 1.839693,2.085852 1.676149,2.255472 -0.450341,0.467067 -2.251546,0.340561 -3.183859,-0.223616 z M 34.246031,37.56167 c -1.638234,-1.582935 -1.103378,-2.230194 1.714709,-2.075066 2.665115,0.146708 3.74263,-0.593809 4.299044,-2.9545 0.35629,-1.511617 -0.880446,-4.149407 -1.94546,-4.149407 -1.491166,0 -4.557813,-3.113504 -7.074649,-7.182751 -1.806392,-2.92059 -2.819449,-4.091717 -3.539452,-4.091717 -1.056704,0 -4.2272,-2.903677 -3.731662,-3.417618 0.15738,-0.163224 1.086595,0.193044 2.064923,0.791709 0.978327,0.598666 2.155187,1.096155 2.615248,1.105533 0.966516,0.0197 3.06003,1.697492 3.06003,2.452377 0,0.82182 4.441375,6.24266 5.114705,6.24266 0.337309,0 1.881585,1.233986 3.431719,2.742189 3.151312,3.066069 3.458584,4.289831 2.016006,8.029091 -1.280075,3.318042 -5.743094,4.712531 -8.025161,2.5075 z M 5.1237613,36.554113 C 4.5759363,35.644326 4.6302366,35.382718 5.5226537,34.632328 6.2616201,34.010967 6.9475374,32.06099 7.9321712,27.782369 8.6892324,24.492642 9.7347893,21.177497 10.255632,20.41538 c 0.520842,-0.762116 1.319008,-1.966389 1.773704,-2.676163 0.454695,-0.709775 1.121763,-1.480993 1.482373,-1.713818 0.537623,-0.347117 0.541057,-0.615051 0.01907,-1.488384 -0.79795,-1.335052 -0.885785,-6.1644453 -0.138458,-7.6127034 0.550138,-1.0661187 0.58942,-1.0536309 2.026864,0.6443322 0.80622,0.9523364 1.465854,1.9135319 1.465854,2.1359894 0,0.2224582 0.367996,0.8262018 0.81777,1.3416538 0.82348,0.943733 0.534616,1.196032 -1.13214,0.98883 -0.83046,-0.103238 -1.237341,1.418792 -0.672105,2.514168 0.693629,1.344197 0.612149,2.046468 -0.237443,2.046468 -1.236841,0 -2.246689,2.250389 -3.954484,8.812322 C 8.8768186,36.281222 6.9370871,39.565548 5.1237613,36.554113 z M 25.779274,12.274245 c 0,-1.193562 -1.924725,-1.52317 -3.000155,-0.513774 -0.925602,0.86877 -0.952757,0.837133 -0.95008,-1.106879 0.0037,-2.7061619 0.891364,-5.8447804 1.652973,-5.8447804 0.341566,0 1.331715,0.7604746 2.200333,1.6899438 1.558312,1.6674828 2.016258,3.7074306 1.279375,5.6990416 -0.374195,1.011348 -1.182446,1.063604 -1.182446,0.07645 z"
     id="path2226"
     inkscape:connector-curvature="0" />
</svg>
