<?xml version="1.0" encoding="UTF-8" standalone="no"?>
<!-- Created with Inkscape (http://www.inkscape.org/) -->

<svg
   xmlns:dc="http://purl.org/dc/elements/1.1/"
   xmlns:cc="http://creativecommons.org/ns#"
   xmlns:rdf="http://www.w3.org/1999/02/22-rdf-syntax-ns#"
   xmlns:svg="http://www.w3.org/2000/svg"
   xmlns="http://www.w3.org/2000/svg"
   xmlns:sodipodi="http://sodipodi.sourceforge.net/DTD/sodipodi-0.dtd"
   xmlns:inkscape="http://www.inkscape.org/namespaces/inkscape"
   id="svg2"
   sodipodi:version="0.32"
   inkscape:version="0.48.3.1 r9886"
   width="48"
   height="48"
   version="1.0"
   sodipodi:docname="Azureus.svg"
   inkscape:output_extension="org.inkscape.output.svg.inkscape">
  <metadata
     id="metadata7">
    <rdf:RDF>
      <cc:Work
         rdf:about="">
        <dc:format>image/svg+xml</dc:format>
        <dc:type
           rdf:resource="http://purl.org/dc/dcmitype/StillImage" />
      </cc:Work>
    </rdf:RDF>
  </metadata>
  <defs
     id="defs5" />
  <sodipodi:namedview
     inkscape:window-height="614"
     inkscape:window-width="772"
     inkscape:pageshadow="2"
     inkscape:pageopacity="0.0"
     guidetolerance="10000"
     gridtolerance="10000"
     objecttolerance="10000"
     borderopacity="1.0"
     bordercolor="#666666"
     pagecolor="#ffffff"
     id="base"
     width="48px"
     height="48px"
     showgrid="true"
     inkscape:zoom="5.6568543"
     inkscape:cx="18.298245"
     inkscape:cy="23.21565"
     inkscape:window-x="382"
     inkscape:window-y="102"
     inkscape:current-layer="svg2"
     inkscape:window-maximized="0" />
  <path
     inkscape:connector-curvature="0"
     id="path2982"
     d="m 23.92874,41.210823 c -0.06867,-0.183181 0.01855,-0.455012 0.193813,-0.604054 0.175265,-0.14905 0.414482,-0.367982 0.531593,-0.486516 0.380895,-0.385526 2.280038,-3.425809 2.194596,-3.51327 -0.177903,-0.182121 -2.106674,1.517305 -2.10921,1.858406 -0.0018,0.240953 -0.177506,0.361776 -0.526124,0.361776 -0.66593,0 -0.84531,-0.688338 -0.239192,-0.917868 0.455846,-0.172626 4.070676,-4.388112 3.906754,-4.555918 -0.176081,-0.180253 -3.233251,-0.562921 -9.775707,-1.223635 -4.208,-0.424958 -5.845009,-2.673978 -2.666851,-3.663878 0.250979,-0.07817 0.598429,-0.261559 0.772114,-0.407531 0.173684,-0.145971 1.240318,-0.627271 2.370297,-1.069553 2.085044,-0.816109 2.2995,-1.03551 1.270574,-1.299873 -0.526535,-0.135282 -1.481966,-0.535621 -3.114556,-1.30504 -0.772907,-0.364261 -0.782749,-0.353399 -1.370388,1.512434 -0.770138,2.445286 -1.328902,2.557806 -5.7875064,1.165448 -1.2348628,-0.385629 -2.4086357,-0.315959 -3.4630546,0.20555 -1.1252336,0.556534 -1.5382569,0.583503 -1.4462505,0.09443 0.047503,-0.25251 0.4941221,-0.475863 1.4364883,-0.718388 1.484859,-0.382137 1.4589011,-0.406628 -0.8018399,-0.756441 -0.6864716,-0.106221 -0.8900969,-0.226009 -0.8396885,-0.493968 0.087889,-0.467182 0.7985558,-0.608664 0.7985558,-0.158982 0,0.253873 0.2192127,0.339074 0.8723791,0.339074 l 0.8723788,0 -0.9660779,-0.755133 C 5.510492,24.402572 4.8337109,23.968554 4.5378772,23.853415 4.2420457,23.738274 3.9999995,23.541643 3.9999995,23.416455 c 0,-0.385908 0.6771914,-0.520369 0.9251809,-0.183703 0.2005579,0.272275 1.5484758,1.273993 2.3990464,1.782873 0.3444378,0.20607 0.1397683,-0.820342 -0.3107265,-1.558285 -0.2391537,-0.391748 -0.2504167,-0.566444 -0.052284,-0.810836 0.339362,-0.418596 0.8996545,0.03758 0.7527051,0.612828 -0.2309622,0.904127 0.5984824,2.241226 1.4761895,2.379682 3.0022901,0.473604 4.4940301,0.443665 4.4959281,-0.09023 0.001,-0.283001 0.05923,-1.003458 0.129385,-1.601017 L 13.942976,22.8613 13.024119,22.240921 c -5.0776797,-3.428272 -5.2551449,-6.897217 -0.392541,-7.673112 0.636843,-0.101617 1.450513,-0.245736 1.808156,-0.320263 0.425036,-0.08857 0.75317,-0.03246 0.947368,0.16199 0.832201,0.833284 2.269383,0.823456 4.000883,-0.02735 l 1.633722,-0.802768 -0.668749,-1.354186 -0.668748,-1.354186 -1.643337,0.111705 c -1.452031,0.0987 -1.635457,0.07008 -1.575638,-0.24589 0.05569,-0.29418 0.281787,-0.34451 1.274916,-0.283804 0.663968,0.04059 1.207217,0.02773 1.207217,-0.02857 0,-0.17718 -2.648051,-1.8770995 -2.924057,-1.8770995 -0.345161,0 -0.214324,-0.9071274 0.148493,-1.0295189 0.152387,-0.051406 0.323783,0.08941 0.380881,0.3129243 0.09503,0.3720307 2.110336,1.7260599 2.292091,1.5399984 0.125225,-0.1281904 -0.760836,-1.4699471 -0.970713,-1.4699471 -0.262474,0 -0.239274,-0.5898375 0.02989,-0.7601355 0.241544,-0.1528178 0.879619,0.2928569 0.743081,0.5190154 -0.04684,0.077588 0.189161,0.5177117 0.524456,0.9780522 l 0.609625,0.8369831 -0.04846,-1.4873796 c -0.03787,-1.1624698 0.01666,-1.4873799 0.249606,-1.4873799 0.226479,0 0.310931,0.39681 0.351677,1.6523805 0.05629,1.7346654 0.22052,2.2248916 1.117979,3.3371736 2.297267,2.847157 2.245486,2.377898 0.402095,3.643984 -1.394244,0.957601 -1.473587,1.051402 -1,1.182224 0.806191,0.222701 2.946089,1.430607 3.988085,2.25115 1.429138,1.125409 1.674973,1.253369 1.781194,0.927129 0.04991,-0.153279 0.295381,-1.341952 0.545497,-2.641494 0.688376,-3.576617 0.965904,-4.009379 2.272236,-3.5432 1.46567,0.523043 4.537312,5.820076 6.119435,10.55294 0.299637,0.896352 0.639531,1.642588 0.755321,1.658296 0.336537,0.04567 4.124516,-3.452555 4.335794,-4.004131 0.240612,-0.628153 0.901212,-0.54471 0.994638,0.125641 0.05997,0.430299 -0.130137,0.5849 -0.631237,0.513339 -0.0786,-0.01122 -0.43299,0.462199 -0.787528,1.052052 -0.354538,0.589852 -0.598467,1.072458 -0.542061,1.072458 0.215633,0 3.155392,-2.2388 3.482094,-2.65182 0.191211,-0.24173 0.451626,-0.365405 0.58789,-0.279196 0.480331,0.303896 0.22663,0.887096 -0.550285,1.264976 -0.431222,0.209741 -1.068253,0.626897 -1.41562,0.927013 l -0.63158,0.545668 0.842105,-0.144975 c 0.463159,-0.07973 0.932105,-0.230194 1.042106,-0.334348 C 43.463484,23.208267 44,23.403973 44,23.956673 c 0,0.441728 -0.104291,0.540538 -0.578947,0.548524 -0.318423,0.0054 -1.005264,0.243426 -1.526316,0.529046 l -0.947369,0.51931 0.987576,0.0097 c 0.543165,0.0054 1.046125,-0.08724 1.117687,-0.205776 C 43.33909,24.883033 44,25.127772 44,25.708331 c 0,0.539042 -0.04016,0.559758 -0.833485,0.429893 -0.628303,-0.102849 -1.571248,0.07495 -3.830404,0.722241 -2.855639,0.818195 -3.015956,0.841108 -3.400718,0.486043 -0.774809,-0.715012 -3.41905,-4.477519 -4.724867,-6.723043 l -1.315791,-2.262674 0,2.955216 c 0,3.442046 -0.854681,6.196652 -1.922658,6.196652 -0.11936,0 -0.782771,0.339437 -1.474247,0.754301 -0.691476,0.414867 -1.370576,0.755187 -1.509112,0.756271 -0.138531,0.0011 -0.725561,0.240506 -1.304509,0.532047 -0.578947,0.291542 -1.242104,0.539671 -1.473683,0.551402 -0.421053,0.02133 -0.421053,0.02133 0,0.194663 1.013612,0.417284 2.560408,0.877109 2.947196,0.876129 0.893885,-0.0023 4.947667,1.57441 4.942463,1.922318 -0.0028,0.186735 -0.376247,1.839568 -0.8299,3.672965 -0.593179,2.397268 -0.762514,3.410301 -0.602951,3.607121 0.272356,0.335944 0.07942,0.92571 -0.302835,0.92571 -0.503462,0 -0.7855,-0.459466 -0.553929,-0.902412 0.116552,-0.222942 0.18317,-0.862707 0.148041,-1.421705 l -0.06387,-1.016357 -0.419406,1.185325 c -0.230673,0.651937 -0.394579,1.392425 -0.364237,1.645538 0.05947,0.496078 -0.388846,0.788564 -0.900567,0.587545 -0.367624,-0.144415 -0.410929,-0.54088 -0.09447,-0.864837 0.121728,-0.124613 0.353711,-0.740322 0.515518,-1.368246 0.16181,-0.627917 0.221179,-1.054508 0.13193,-0.947981 -0.819038,0.977608 -1.564485,2.132329 -1.690886,2.619234 -0.172899,0.666004 -0.942015,0.927653 -1.143881,0.389133 z"
     style="fill:#000000;stroke-width:8;stroke-miterlimit:4;stroke-dasharray:none;stroke:#ffffff;stroke-opacity:1;stroke-linejoin:round;stroke-linecap:round" />
  <path
     style="fill:#000000"
     d="m 23.92874,41.210823 c -0.06867,-0.183181 0.01855,-0.455012 0.193813,-0.604054 0.175265,-0.14905 0.414482,-0.367982 0.531593,-0.486516 0.380895,-0.385526 2.280038,-3.425809 2.194596,-3.51327 -0.177903,-0.182121 -2.106674,1.517305 -2.10921,1.858406 -0.0018,0.240953 -0.177506,0.361776 -0.526124,0.361776 -0.66593,0 -0.84531,-0.688338 -0.239192,-0.917868 0.455846,-0.172626 4.070676,-4.388112 3.906754,-4.555918 -0.176081,-0.180253 -3.233251,-0.562921 -9.775707,-1.223635 -4.208,-0.424958 -5.845009,-2.673978 -2.666851,-3.663878 0.250979,-0.07817 0.598429,-0.261559 0.772114,-0.407531 0.173684,-0.145971 1.240318,-0.627271 2.370297,-1.069553 2.085044,-0.816109 2.2995,-1.03551 1.270574,-1.299873 -0.526535,-0.135282 -1.481966,-0.535621 -3.114556,-1.30504 -0.772907,-0.364261 -0.782749,-0.353399 -1.370388,1.512434 -0.770138,2.445286 -1.328902,2.557806 -5.7875064,1.165448 -1.2348628,-0.385629 -2.4086357,-0.315959 -3.4630546,0.20555 -1.1252336,0.556534 -1.5382569,0.583503 -1.4462505,0.09443 0.047503,-0.25251 0.4941221,-0.475863 1.4364883,-0.718388 1.484859,-0.382137 1.4589011,-0.406628 -0.8018399,-0.756441 -0.6864716,-0.106221 -0.8900969,-0.226009 -0.8396885,-0.493968 0.087889,-0.467182 0.7985558,-0.608664 0.7985558,-0.158982 0,0.253873 0.2192127,0.339074 0.8723791,0.339074 l 0.8723788,0 -0.9660779,-0.755133 C 5.510492,24.402572 4.8337109,23.968554 4.5378772,23.853415 4.2420457,23.738274 3.9999995,23.541643 3.9999995,23.416455 c 0,-0.385908 0.6771914,-0.520369 0.9251809,-0.183703 0.2005579,0.272275 1.5484758,1.273993 2.3990464,1.782873 0.3444378,0.20607 0.1397683,-0.820342 -0.3107265,-1.558285 -0.2391537,-0.391748 -0.2504167,-0.566444 -0.052284,-0.810836 0.339362,-0.418596 0.8996545,0.03758 0.7527051,0.612828 -0.2309622,0.904127 0.5984824,2.241226 1.4761895,2.379682 3.0022901,0.473604 4.4940301,0.443665 4.4959281,-0.09023 0.001,-0.283001 0.05923,-1.003458 0.129385,-1.601017 L 13.942976,22.8613 13.024119,22.240921 c -5.0776797,-3.428272 -5.2551449,-6.897217 -0.392541,-7.673112 0.636843,-0.101617 1.450513,-0.245736 1.808156,-0.320263 0.425036,-0.08857 0.75317,-0.03246 0.947368,0.16199 0.832201,0.833284 2.269383,0.823456 4.000883,-0.02735 l 1.633722,-0.802768 -0.668749,-1.354186 -0.668748,-1.354186 -1.643337,0.111705 c -1.452031,0.0987 -1.635457,0.07008 -1.575638,-0.24589 0.05569,-0.29418 0.281787,-0.34451 1.274916,-0.283804 0.663968,0.04059 1.207217,0.02773 1.207217,-0.02857 0,-0.17718 -2.648051,-1.8770995 -2.924057,-1.8770995 -0.345161,0 -0.214324,-0.9071274 0.148493,-1.0295189 0.152387,-0.051406 0.323783,0.08941 0.380881,0.3129243 0.09503,0.3720307 2.110336,1.7260599 2.292091,1.5399984 0.125225,-0.1281904 -0.760836,-1.4699471 -0.970713,-1.4699471 -0.262474,0 -0.239274,-0.5898375 0.02989,-0.7601355 0.241544,-0.1528178 0.879619,0.2928569 0.743081,0.5190154 -0.04684,0.077588 0.189161,0.5177117 0.524456,0.9780522 l 0.609625,0.8369831 -0.04846,-1.4873796 c -0.03787,-1.1624698 0.01666,-1.4873799 0.249606,-1.4873799 0.226479,0 0.310931,0.39681 0.351677,1.6523805 0.05629,1.7346654 0.22052,2.2248916 1.117979,3.3371736 2.297267,2.847157 2.245486,2.377898 0.402095,3.643984 -1.394244,0.957601 -1.473587,1.051402 -1,1.182224 0.806191,0.222701 2.946089,1.430607 3.988085,2.25115 1.429138,1.125409 1.674973,1.253369 1.781194,0.927129 0.04991,-0.153279 0.295381,-1.341952 0.545497,-2.641494 0.688376,-3.576617 0.965904,-4.009379 2.272236,-3.5432 1.46567,0.523043 4.537312,5.820076 6.119435,10.55294 0.299637,0.896352 0.639531,1.642588 0.755321,1.658296 0.336537,0.04567 4.124516,-3.452555 4.335794,-4.004131 0.240612,-0.628153 0.901212,-0.54471 0.994638,0.125641 0.05997,0.430299 -0.130137,0.5849 -0.631237,0.513339 -0.0786,-0.01122 -0.43299,0.462199 -0.787528,1.052052 -0.354538,0.589852 -0.598467,1.072458 -0.542061,1.072458 0.215633,0 3.155392,-2.2388 3.482094,-2.65182 0.191211,-0.24173 0.451626,-0.365405 0.58789,-0.279196 0.480331,0.303896 0.22663,0.887096 -0.550285,1.264976 -0.431222,0.209741 -1.068253,0.626897 -1.41562,0.927013 l -0.63158,0.545668 0.842105,-0.144975 c 0.463159,-0.07973 0.932105,-0.230194 1.042106,-0.334348 C 43.463484,23.208267 44,23.403973 44,23.956673 c 0,0.441728 -0.104291,0.540538 -0.578947,0.548524 -0.318423,0.0054 -1.005264,0.243426 -1.526316,0.529046 l -0.947369,0.51931 0.987576,0.0097 c 0.543165,0.0054 1.046125,-0.08724 1.117687,-0.205776 C 43.33909,24.883033 44,25.127772 44,25.708331 c 0,0.539042 -0.04016,0.559758 -0.833485,0.429893 -0.628303,-0.102849 -1.571248,0.07495 -3.830404,0.722241 -2.855639,0.818195 -3.015956,0.841108 -3.400718,0.486043 -0.774809,-0.715012 -3.41905,-4.477519 -4.724867,-6.723043 l -1.315791,-2.262674 0,2.955216 c 0,3.442046 -0.854681,6.196652 -1.922658,6.196652 -0.11936,0 -0.782771,0.339437 -1.474247,0.754301 -0.691476,0.414867 -1.370576,0.755187 -1.509112,0.756271 -0.138531,0.0011 -0.725561,0.240506 -1.304509,0.532047 -0.578947,0.291542 -1.242104,0.539671 -1.473683,0.551402 -0.421053,0.02133 -0.421053,0.02133 0,0.194663 1.013612,0.417284 2.560408,0.877109 2.947196,0.876129 0.893885,-0.0023 4.947667,1.57441 4.942463,1.922318 -0.0028,0.186735 -0.376247,1.839568 -0.8299,3.672965 -0.593179,2.397268 -0.762514,3.410301 -0.602951,3.607121 0.272356,0.335944 0.07942,0.92571 -0.302835,0.92571 -0.503462,0 -0.7855,-0.459466 -0.553929,-0.902412 0.116552,-0.222942 0.18317,-0.862707 0.148041,-1.421705 l -0.06387,-1.016357 -0.419406,1.185325 c -0.230673,0.651937 -0.394579,1.392425 -0.364237,1.645538 0.05947,0.496078 -0.388846,0.788564 -0.900567,0.587545 -0.367624,-0.144415 -0.410929,-0.54088 -0.09447,-0.864837 0.121728,-0.124613 0.353711,-0.740322 0.515518,-1.368246 0.16181,-0.627917 0.221179,-1.054508 0.13193,-0.947981 -0.819038,0.977608 -1.564485,2.132329 -1.690886,2.619234 -0.172899,0.666004 -0.942015,0.927653 -1.143881,0.389133 z"
     id="path2161"
     inkscape:connector-curvature="0" />
</svg>
