<?xml version="1.0" encoding="UTF-8" standalone="no"?>
<!-- Created with Inkscape (http://www.inkscape.org/) -->

<svg
   xmlns:dc="http://purl.org/dc/elements/1.1/"
   xmlns:cc="http://creativecommons.org/ns#"
   xmlns:rdf="http://www.w3.org/1999/02/22-rdf-syntax-ns#"
   xmlns:svg="http://www.w3.org/2000/svg"
   xmlns="http://www.w3.org/2000/svg"
   xmlns:sodipodi="http://sodipodi.sourceforge.net/DTD/sodipodi-0.dtd"
   xmlns:inkscape="http://www.inkscape.org/namespaces/inkscape"
   id="svg2"
   sodipodi:version="0.32"
   inkscape:version="0.48.3.1 r9886"
   width="48"
   height="48"
   version="1.0"
   sodipodi:docname="beep-media-player.svg"
   inkscape:output_extension="org.inkscape.output.svg.inkscape">
  <metadata
     id="metadata7">
    <rdf:RDF>
      <cc:Work
         rdf:about="">
        <dc:format>image/svg+xml</dc:format>
        <dc:type
           rdf:resource="http://purl.org/dc/dcmitype/StillImage" />
      </cc:Work>
    </rdf:RDF>
  </metadata>
  <defs
     id="defs5" />
  <sodipodi:namedview
     inkscape:window-height="616"
     inkscape:window-width="772"
     inkscape:pageshadow="2"
     inkscape:pageopacity="0.0"
     guidetolerance="10000"
     gridtolerance="10000"
     objecttolerance="10000"
     borderopacity="1.0"
     bordercolor="#666666"
     pagecolor="#ffffff"
     id="base"
     width="48px"
     height="48px"
     showgrid="true"
     inkscape:zoom="4.2395834"
     inkscape:cx="22.835759"
     inkscape:cy="18.427387"
     inkscape:window-x="2"
     inkscape:window-y="67"
     inkscape:current-layer="svg2"
     inkscape:window-maximized="0" />
  <g
     id="g2985"
     style="stroke:#ffffff;stroke-opacity:1;stroke-width:8;stroke-miterlimit:4;stroke-dasharray:none;stroke-linejoin:round;stroke-linecap:round">
    <path
       style="fill:#000000;fill-opacity:1;fill-rule:evenodd;stroke:#ffffff;stroke-opacity:1;stroke-width:8;stroke-miterlimit:4;stroke-dasharray:none;stroke-linejoin:round;stroke-linecap:round"
       d="M 4,4 4,44 44,44 44,4 4,4 z m 24.010417,2.65625 2.65625,0 0,2.682292 -2.65625,0 0,-2.682292 z m 5.3125,0 2.682291,0 0,2.682292 -2.682291,0 0,-2.682292 z m 5.338541,0 2.682292,0 0,2.682292 -2.682292,0 0,-2.682292 z m -5.338541,5.338542 2.682291,0 0,2.682291 -2.682291,0 0,-2.682291 z m 5.338541,0 2.682292,0 0,2.682291 -2.682292,0 0,-2.682291 z M 4.8333333,18.166667 c 3.7581874,0 7.5178547,0 11.2760417,0 0,1.55355 0,3.107906 0,4.661458 -0.75357,0 -1.512056,-1e-6 -2.265625,0 0,0.781787 0,1.561963 0,2.34375 0.753569,0 1.512055,-1e-6 2.265625,0 0,1.553552 0,3.107907 0,4.661458 -3.758187,0 -7.5178543,-1e-6 -11.2760417,0 0,-3.888888 0,-7.777778 0,-11.666666 z m 9.0104167,7.005208 c -2.251049,0 -4.4937438,-1e-6 -6.7447917,0 0,0.781787 0,1.561964 0,2.34375 2.251048,0 4.4937437,0 6.7447917,0 0,-0.781786 0,-1.561964 0,-2.34375 z m 0,-2.34375 c 0,-0.781787 0,-1.561964 0,-2.34375 -2.251049,0 -4.4937438,-1e-6 -6.7447917,0 0,0.781787 0,1.561963 0,2.34375 2.251048,0 4.4937437,-1e-6 6.7447917,0 z M 18.375,18.166667 c 3.748526,0 7.475432,0 11.223958,0 0,3.888888 0,7.777777 0,11.666666 -0.743909,0 -1.469633,-1e-6 -2.213541,0 0,-3.117125 0,-6.231834 0,-9.348958 -0.753569,0 -1.512055,-1e-6 -2.265625,0 0,3.117125 1e-6,6.231832 0,9.348958 -0.75357,0 -1.512055,-1e-6 -2.265625,0 0,-3.117125 -1e-6,-6.231834 0,-9.348958 -0.75357,0 -1.512054,-1e-6 -2.265625,0 0,3.117125 1e-6,6.231832 0,9.348958 -0.743909,0 -1.469634,-1e-6 -2.213542,0 0,-3.888888 -1e-6,-7.777778 0,-11.666666 z m 13.515625,0 c 3.758187,0 7.517854,0 11.276042,0 0,2.335337 -10e-7,4.669869 0,7.005208 -3.004618,0 -6.005799,-1e-6 -9.010417,0 0,1.553552 2e-6,3.107907 0,4.661458 -0.75357,0 -1.512058,-1e-6 -2.265625,0 0,-3.888888 -2e-6,-7.777778 0,-11.666666 z m 2.265625,2.317708 c 0,0.781787 2e-6,1.561963 0,2.34375 2.251047,0 4.493742,-1e-6 6.744792,0 0,-0.781787 -2e-6,-1.561964 0,-2.34375 -2.251049,0 -4.493743,-1e-6 -6.744792,0 z"
       id="path2987"
       inkscape:connector-curvature="0" />
  </g>
  <g
     id="g2982">
    <path
       inkscape:connector-curvature="0"
       id="path3133"
       d="M 4,4 4,44 44,44 44,4 4,4 z m 24.010417,2.65625 2.65625,0 0,2.682292 -2.65625,0 0,-2.682292 z m 5.3125,0 2.682291,0 0,2.682292 -2.682291,0 0,-2.682292 z m 5.338541,0 2.682292,0 0,2.682292 -2.682292,0 0,-2.682292 z m -5.338541,5.338542 2.682291,0 0,2.682291 -2.682291,0 0,-2.682291 z m 5.338541,0 2.682292,0 0,2.682291 -2.682292,0 0,-2.682291 z M 4.8333333,18.166667 c 3.7581874,0 7.5178547,0 11.2760417,0 0,1.55355 0,3.107906 0,4.661458 -0.75357,0 -1.512056,-1e-6 -2.265625,0 0,0.781787 0,1.561963 0,2.34375 0.753569,0 1.512055,-1e-6 2.265625,0 0,1.553552 0,3.107907 0,4.661458 -3.758187,0 -7.5178543,-1e-6 -11.2760417,0 0,-3.888888 0,-7.777778 0,-11.666666 z m 9.0104167,7.005208 c -2.251049,0 -4.4937438,-1e-6 -6.7447917,0 0,0.781787 0,1.561964 0,2.34375 2.251048,0 4.4937437,0 6.7447917,0 0,-0.781786 0,-1.561964 0,-2.34375 z m 0,-2.34375 c 0,-0.781787 0,-1.561964 0,-2.34375 -2.251049,0 -4.4937438,-1e-6 -6.7447917,0 0,0.781787 0,1.561963 0,2.34375 2.251048,0 4.4937437,-1e-6 6.7447917,0 z M 18.375,18.166667 c 3.748526,0 7.475432,0 11.223958,0 0,3.888888 0,7.777777 0,11.666666 -0.743909,0 -1.469633,-1e-6 -2.213541,0 0,-3.117125 0,-6.231834 0,-9.348958 -0.753569,0 -1.512055,-1e-6 -2.265625,0 0,3.117125 1e-6,6.231832 0,9.348958 -0.75357,0 -1.512055,-1e-6 -2.265625,0 0,-3.117125 -1e-6,-6.231834 0,-9.348958 -0.75357,0 -1.512054,-1e-6 -2.265625,0 0,3.117125 1e-6,6.231832 0,9.348958 -0.743909,0 -1.469634,-1e-6 -2.213542,0 0,-3.888888 -1e-6,-7.777778 0,-11.666666 z m 13.515625,0 c 3.758187,0 7.517854,0 11.276042,0 0,2.335337 -10e-7,4.669869 0,7.005208 -3.004618,0 -6.005799,-1e-6 -9.010417,0 0,1.553552 2e-6,3.107907 0,4.661458 -0.75357,0 -1.512058,-1e-6 -2.265625,0 0,-3.888888 -2e-6,-7.777778 0,-11.666666 z m 2.265625,2.317708 c 0,0.781787 2e-6,1.561963 0,2.34375 2.251047,0 4.493742,-1e-6 6.744792,0 0,-0.781787 -2e-6,-1.561964 0,-2.34375 -2.251049,0 -4.493743,-1e-6 -6.744792,0 z"
       style="fill:#000000;fill-opacity:1;fill-rule:evenodd;stroke:none" />
  </g>
</svg>
