<?xml version="1.0" encoding="UTF-8" standalone="no"?>
<!-- Created with Inkscape (http://www.inkscape.org/) -->

<svg
   xmlns:dc="http://purl.org/dc/elements/1.1/"
   xmlns:cc="http://creativecommons.org/ns#"
   xmlns:rdf="http://www.w3.org/1999/02/22-rdf-syntax-ns#"
   xmlns:svg="http://www.w3.org/2000/svg"
   xmlns="http://www.w3.org/2000/svg"
   xmlns:sodipodi="http://sodipodi.sourceforge.net/DTD/sodipodi-0.dtd"
   xmlns:inkscape="http://www.inkscape.org/namespaces/inkscape"
   width="48"
   height="48"
   id="svg2"
   sodipodi:version="0.32"
   inkscape:version="0.48.3.1 r9886"
   version="1.0"
   sodipodi:docname="deluge.svg"
   inkscape:output_extension="org.inkscape.output.svg.inkscape">
  <defs
     id="defs4" />
  <sodipodi:namedview
     id="base"
     pagecolor="#ffffff"
     bordercolor="#666666"
     borderopacity="1.0"
     gridtolerance="10000"
     guidetolerance="10000"
     objecttolerance="10000"
     inkscape:pageopacity="0.0"
     inkscape:pageshadow="2"
     inkscape:zoom="5.6"
     inkscape:cx="24.795697"
     inkscape:cy="23.844316"
     inkscape:document-units="px"
     inkscape:current-layer="layer1"
     width="48px"
     height="48px"
     showgrid="true"
     inkscape:window-width="772"
     inkscape:window-height="612"
     inkscape:window-x="1"
     inkscape:window-y="104"
     inkscape:window-maximized="0" />
  <metadata
     id="metadata7">
    <rdf:RDF>
      <cc:Work
         rdf:about="">
        <dc:format>image/svg+xml</dc:format>
        <dc:type
           rdf:resource="http://purl.org/dc/dcmitype/StillImage" />
      </cc:Work>
    </rdf:RDF>
  </metadata>
  <g
     inkscape:label="Layer 1"
     inkscape:groupmode="layer"
     id="layer1">
    <path
       inkscape:connector-curvature="0"
       id="path2984"
       d="m 23.138415,4.0015039 c -0.0397,-0.014837 -0.06248,0.00504 -0.07812,0.026039 -1.915608,2.5722999 -8.683021,12.1546952 -11.431085,17.0554902 -2.7480629,4.900795 -3.9188674,17.410279 3.280904,20.779056 1.097248,0.513404 3.450985,1.535485 5.233822,1.848763 5.073193,0.89146 11.505998,-0.37816 14.19121,-2.786164 4.615609,-4.139119 5.999692,-10.361251 3.61941,-16.35244 C 36.795499,21.654886 24.369176,4.4614618 23.138415,4.0015039 z M 20.638679,15.87525 c 5.99313,0 12.421617,3.464613 13.123614,8.983426 0.177925,1.398766 -0.534394,2.086415 -0.885323,0.859285 -6.027157,-10.672106 -17.384444,-5.899872 -16.326401,1.874802 1.058043,7.774672 6.321261,9.389074 12.212252,10.33745 4.724424,0.760573 6.319431,0.595414 4.608888,1.588374 -3.320537,1.92755 -9.804051,2.917406 -13.410042,2.083113 C 9.2081257,37.917237 9.4830393,25.526498 16.99323,17.359468 c 0.155702,-0.16932 0.552928,-0.466924 1.223829,-0.833245 0.670902,-0.366321 1.412255,-0.650973 2.42162,-0.650973 z"
       style="fill:#000000;stroke-width:8;stroke-miterlimit:4;stroke-dasharray:none;stroke:#ffffff;stroke-opacity:1;stroke-linejoin:round;stroke-linecap:round" />
    <path
       style="fill:#000000"
       d="m 23.138415,4.0015039 c -0.0397,-0.014837 -0.06248,0.00504 -0.07812,0.026039 -1.915608,2.5722999 -8.683021,12.1546952 -11.431085,17.0554902 -2.7480629,4.900795 -3.9188674,17.410279 3.280904,20.779056 1.097248,0.513404 3.450985,1.535485 5.233822,1.848763 5.073193,0.89146 11.505998,-0.37816 14.19121,-2.786164 4.615609,-4.139119 5.999692,-10.361251 3.61941,-16.35244 C 36.795499,21.654886 24.369176,4.4614618 23.138415,4.0015039 z M 20.638679,15.87525 c 5.99313,0 12.421617,3.464613 13.123614,8.983426 0.177925,1.398766 -0.534394,2.086415 -0.885323,0.859285 -6.027157,-10.672106 -17.384444,-5.899872 -16.326401,1.874802 1.058043,7.774672 6.321261,9.389074 12.212252,10.33745 4.724424,0.760573 6.319431,0.595414 4.608888,1.588374 -3.320537,1.92755 -9.804051,2.917406 -13.410042,2.083113 C 9.2081257,37.917237 9.4830393,25.526498 16.99323,17.359468 c 0.155702,-0.16932 0.552928,-0.466924 1.223829,-0.833245 0.670902,-0.366321 1.412255,-0.650973 2.42162,-0.650973 z"
       id="path2211"
       inkscape:connector-curvature="0" />
    <g
       id="g2213"
       transform="matrix(0.87081346,0,0,0.91396466,3.1393708,3.0998692)" />
    <g
       transform="matrix(0.87081346,0,0,0.91396466,3.1393708,3.0998692)"
       id="g2986"
       style="stroke-width:8.96732105000000068;stroke-miterlimit:4;stroke-dasharray:none;stroke:#ffffff;stroke-opacity:1;stroke-linejoin:round;stroke-linecap:round" />
  </g>
</svg>
