<?xml version="1.0" encoding="UTF-8" standalone="no"?>
<!-- Created with Inkscape (http://www.inkscape.org/) -->

<svg
   xmlns:dc="http://purl.org/dc/elements/1.1/"
   xmlns:cc="http://creativecommons.org/ns#"
   xmlns:rdf="http://www.w3.org/1999/02/22-rdf-syntax-ns#"
   xmlns:svg="http://www.w3.org/2000/svg"
   xmlns="http://www.w3.org/2000/svg"
   xmlns:xlink="http://www.w3.org/1999/xlink"
   xmlns:sodipodi="http://sodipodi.sourceforge.net/DTD/sodipodi-0.dtd"
   xmlns:inkscape="http://www.inkscape.org/namespaces/inkscape"
   width="48"
   height="48"
   id="svg7149"
   sodipodi:version="0.32"
   inkscape:version="0.48.3.1 r9886"
   sodipodi:docname="exfalso.svg"
   inkscape:export-filename="/home/bene/Desktop/exfalso.png"
   inkscape:export-xdpi="90.000000"
   inkscape:export-ydpi="90.000000"
   inkscape:output_extension="org.inkscape.output.svg.inkscape"
   version="1.0">
  <defs
     id="defs7151">
    <linearGradient
       inkscape:collect="always"
       xlink:href="#linearGradient2854"
       id="linearGradient3614"
       x1="7.9840488"
       y1="6.4300642"
       x2="16.909092"
       y2="53.272732"
       gradientUnits="userSpaceOnUse"
       gradientTransform="translate(90.44897,-28.04676)" />
    <linearGradient
       id="linearGradient2854">
      <stop
         style="stop-color:#0a0a0a;stop-opacity:1.0000000;"
         offset="0.0000000"
         id="stop2856" />
      <stop
         style="stop-color:#224354;stop-opacity:1.0000000;"
         offset="1.0000000"
         id="stop2858" />
    </linearGradient>
    <linearGradient
       inkscape:collect="always"
       xlink:href="#linearGradient2854"
       id="linearGradient5100"
       x1="7.9840488"
       y1="6.4300642"
       x2="16.909092"
       y2="53.272732"
       gradientUnits="userSpaceOnUse"
       gradientTransform="translate(90.44897,-28.04676)" />
    <linearGradient
       id="linearGradient3616">
      <stop
         style="stop-color:#000000;stop-opacity:1;"
         offset="0"
         id="stop3618" />
      <stop
         style="stop-color:#ffffff;stop-opacity:0.99170125;"
         offset="1.0000000"
         id="stop3620" />
    </linearGradient>
  </defs>
  <sodipodi:namedview
     id="base"
     pagecolor="#120a14"
     bordercolor="#666666"
     borderopacity="1.0"
     inkscape:pageopacity="0.0000000"
     inkscape:pageshadow="2"
     inkscape:zoom="4"
     inkscape:cx="-8.954456"
     inkscape:cy="26.788437"
     inkscape:current-layer="layer1"
     showgrid="true"
     inkscape:document-units="px"
     inkscape:grid-bbox="true"
     inkscape:window-width="836"
     inkscape:window-height="614"
     inkscape:window-x="15"
     inkscape:window-y="45"
     width="48px"
     height="48px"
     objecttolerance="10000"
     gridtolerance="10000"
     guidetolerance="10000"
     inkscape:window-maximized="0" />
  <metadata
     id="metadata7154">
    <rdf:RDF>
      <cc:Work
         rdf:about="">
        <dc:format>image/svg+xml</dc:format>
        <dc:type
           rdf:resource="http://purl.org/dc/dcmitype/StillImage" />
      </cc:Work>
    </rdf:RDF>
  </metadata>
  <g
     id="layer1"
     inkscape:label="Layer 1"
     inkscape:groupmode="layer">
    <path
       inkscape:connector-curvature="0"
       inkscape:export-ydpi="90.000000"
       inkscape:export-xdpi="90.000000"
       inkscape:export-filename="/home/bene/Desktop/path7057.png"
       sodipodi:nodetypes="cscscscscscscscsc"
       id="path2991"
       d="m 4.3133334,4.3133337 c 4.8357737,5.0933829 2.73734,8.3517033 5.3906199,14.3506903 2.4622407,5.567065 7.8220657,1.400085 11.4914757,5.335985 -3.669393,3.935868 -9.047473,-0.249302 -11.5096976,5.317762 -2.6532639,5.999003 -0.5366394,9.275513 -5.372398,14.368896 5.0933836,-4.835773 8.3698946,-2.719133 14.3688976,-5.372397 5.567079,-2.462241 1.400084,-7.822066 5.336,-11.491475 3.907874,3.669824 -0.242538,9.050448 5.317763,11.509681 6.000322,2.653869 9.256176,0.517352 14.350672,5.354191 -4.836823,-5.094496 -2.700339,-8.350365 -5.35419,-14.350672 -2.459233,-5.560302 -7.821652,-1.428096 -11.491475,-5.335986 3.669823,-3.907906 9.032242,0.224301 11.491475,-5.335985 C 40.986344,12.6637 38.849826,9.4078306 43.686666,4.3133337 38.592154,9.1501576 35.336301,7.0136726 29.335994,9.6675256 23.775693,12.126758 27.926105,17.5074 24.018231,21.177223 20.082331,17.507798 24.24931,12.147973 18.682231,9.6857316 12.683228,7.0324676 9.406717,9.1491076 4.3133334,4.3133337 z"
       style="fill:#000000;fill-opacity:1;fill-rule:evenodd;stroke:#ffffff;stroke-width:8;stroke-linecap:round;stroke-linejoin:round;stroke-miterlimit:4;stroke-opacity:1;stroke-dasharray:none" />
    <path
       style="fill:#000000;fill-opacity:1;fill-rule:evenodd;stroke:#000000;stroke-width:0.62666672;stroke-linecap:butt;stroke-linejoin:miter;stroke-miterlimit:4;stroke-opacity:1;stroke-dasharray:none"
       d="m 4.3133334,4.3133337 c 4.8357737,5.0933829 2.73734,8.3517033 5.3906199,14.3506903 2.4622407,5.567065 7.8220657,1.400085 11.4914757,5.335985 -3.669393,3.935868 -9.047473,-0.249302 -11.5096976,5.317762 -2.6532639,5.999003 -0.5366394,9.275513 -5.372398,14.368896 5.0933836,-4.835773 8.3698946,-2.719133 14.3688976,-5.372397 5.567079,-2.462241 1.400084,-7.822066 5.336,-11.491475 3.907874,3.669824 -0.242538,9.050448 5.317763,11.509681 6.000322,2.653869 9.256176,0.517352 14.350672,5.354191 -4.836823,-5.094496 -2.700339,-8.350365 -5.35419,-14.350672 -2.459233,-5.560302 -7.821652,-1.428096 -11.491475,-5.335986 3.669823,-3.907906 9.032242,0.224301 11.491475,-5.335985 C 40.986344,12.6637 38.849826,9.4078306 43.686666,4.3133337 38.592154,9.1501576 35.336301,7.0136726 29.335994,9.6675256 23.775693,12.126758 27.926105,17.5074 24.018231,21.177223 20.082331,17.507798 24.24931,12.147973 18.682231,9.6857316 12.683228,7.0324676 9.406717,9.1491076 4.3133334,4.3133337 z"
       id="path7057"
       sodipodi:nodetypes="cscscscscscscscsc"
       inkscape:export-filename="/home/bene/Desktop/path7057.png"
       inkscape:export-xdpi="90.000000"
       inkscape:export-ydpi="90.000000"
       inkscape:connector-curvature="0" />
  </g>
</svg>
