<?xml version="1.0" encoding="UTF-8" standalone="no"?>
<svg
   xmlns:dc="http://purl.org/dc/elements/1.1/"
   xmlns:cc="http://creativecommons.org/ns#"
   xmlns:rdf="http://www.w3.org/1999/02/22-rdf-syntax-ns#"
   xmlns:svg="http://www.w3.org/2000/svg"
   xmlns="http://www.w3.org/2000/svg"
   xmlns:xlink="http://www.w3.org/1999/xlink"
   xmlns:sodipodi="http://sodipodi.sourceforge.net/DTD/sodipodi-0.dtd"
   xmlns:inkscape="http://www.inkscape.org/namespaces/inkscape"
   width="38.400002pt"
   height="38.400002pt"
   version="1.1"
   id="svg2"
   sodipodi:version="0.32"
   inkscape:version="0.48.3.1 r9886"
   sodipodi:docname="gaim.svg"
   inkscape:output_extension="org.inkscape.output.svg.inkscape">
  <metadata
     id="metadata21">
    <rdf:RDF>
      <cc:Work
         rdf:about="">
        <dc:format>image/svg+xml</dc:format>
        <dc:type
           rdf:resource="http://purl.org/dc/dcmitype/StillImage" />
      </cc:Work>
    </rdf:RDF>
  </metadata>
  <sodipodi:namedview
     inkscape:window-height="612"
     inkscape:window-width="772"
     inkscape:pageshadow="2"
     inkscape:pageopacity="0.0"
     guidetolerance="10.0"
     gridtolerance="10.0"
     objecttolerance="10.0"
     borderopacity="1.0"
     bordercolor="#666666"
     pagecolor="#ffffff"
     id="base"
     inkscape:zoom="2.7915986"
     inkscape:cx="19.281136"
     inkscape:cy="55.039708"
     inkscape:window-x="1"
     inkscape:window-y="53"
     inkscape:current-layer="svg2"
     showgrid="false"
     inkscape:window-maximized="0" />
  <style
     type="text/css"
     id="style4">
#P0 {fill:#000;fill-opacity:.3137255}
#P1 {fill:url(#L1);stroke-width:.71700001}
#P2 {fill:url(#R0);stroke-width:.64874142}
#P1,#P2 {stroke:#000}
</style>
  <defs
     id="defs6">
    <linearGradient
       id="L0">
      <stop
         style="stop-color:#f8f0b6"
         id="stop9" />
      <stop
         offset="0.5"
         style="stop-color:#e5bb13"
         id="stop11" />
      <stop
         style="stop-color:#bf5600"
         offset="1"
         id="stop13" />
    </linearGradient>
    <linearGradient
       xlink:href="#L0"
       id="L1"
       gradientUnits="userSpaceOnUse"
       gradientTransform="matrix(1,0,0,1.03334,-0.1262669,-1037.821)"
       x1="14.143999"
       y1="1024.514"
       x2="29.989687"
       y2="1039.6663" />
    <radialGradient
       xlink:href="#L0"
       id="R0"
       gradientUnits="userSpaceOnUse"
       gradientTransform="matrix(-1.3040216,1.2772756,-0.8805641,-0.9599492,903.5102,1000.4155)"
       cx="-9.9956121"
       cy="1019.0612"
       fx="-9.9956121"
       fy="1019.0612"
       r="8.5848799" />
  </defs>
  <g
     id="g2994"
     style="stroke:#ffffff;stroke-opacity:1;stroke-width:8;stroke-miterlimit:4;stroke-dasharray:none;stroke-linejoin:round;stroke-linecap:round">
    <path
       id="path2996"
       d="M 30.845566,18.64364 C 27.953515,19.563746 25.485953,21.366042 14.645128,19.699312 13.649762,19.560829 14.343797,40.911626 17.581535,44 27.177578,33.079815 28.48059,38.191637 34.367205,42.817308 31.49187,37.142602 30.097867,25.516324 32.063365,25.827082 c 1.556119,0.245991 7.171133,2.966684 7.306796,1.86123 0.39972,-0.513103 -4.493661,-1.982616 -8.524595,-9.044672 z"
       style="fill:#000000;fill-opacity:1;stroke:#ffffff;stroke-opacity:1;stroke-width:8;stroke-miterlimit:4;stroke-dasharray:none;stroke-linejoin:round;stroke-linecap:round"
       inkscape:connector-curvature="0" />
    <path
       id="path2998"
       d="m 29.938501,11.467071 c 0,4.123938 -3.238572,7.467072 -7.233554,7.467072 -3.994983,0 -7.233554,-3.343134 -7.233554,-7.467072 0,-4.123937 3.238571,-7.4670714 7.233554,-7.4670714 3.994982,0 7.233554,3.3431344 7.233554,7.4670714 z"
       style="fill:#000000;fill-opacity:1;stroke:#ffffff;stroke-opacity:1;stroke-width:8;stroke-miterlimit:4;stroke-dasharray:none;stroke-linejoin:round;stroke-linecap:round"
       inkscape:connector-curvature="0" />
  </g>
  <g
     id="g2990">
    <path
       inkscape:connector-curvature="0"
       style="fill:#000000;fill-opacity:1;stroke:none"
       d="M 30.845566,18.64364 C 27.953515,19.563746 25.485953,21.366042 14.645128,19.699312 13.649762,19.560829 14.343797,40.911626 17.581535,44 27.177578,33.079815 28.48059,38.191637 34.367205,42.817308 31.49187,37.142602 30.097867,25.516324 32.063365,25.827082 c 1.556119,0.245991 7.171133,2.966684 7.306796,1.86123 0.39972,-0.513103 -4.493661,-1.982616 -8.524595,-9.044672 z"
       id="P1" />
    <path
       inkscape:connector-curvature="0"
       style="fill:#000000;fill-opacity:1;stroke:none"
       d="m 29.938501,11.467071 c 0,4.123938 -3.238572,7.467072 -7.233554,7.467072 -3.994983,0 -7.233554,-3.343134 -7.233554,-7.467072 0,-4.123937 3.238571,-7.4670714 7.233554,-7.4670714 3.994982,0 7.233554,3.3431344 7.233554,7.4670714 z"
       id="P2" />
  </g>
</svg>
