<?xml version="1.0" encoding="UTF-8" standalone="no"?>
<!-- Generator: Adobe Illustrator 9.0, SVG Export Plug-In  -->

<svg
   xmlns:dc="http://purl.org/dc/elements/1.1/"
   xmlns:cc="http://creativecommons.org/ns#"
   xmlns:rdf="http://www.w3.org/1999/02/22-rdf-syntax-ns#"
   xmlns:svg="http://www.w3.org/2000/svg"
   xmlns="http://www.w3.org/2000/svg"
   xmlns:sodipodi="http://sodipodi.sourceforge.net/DTD/sodipodi-0.dtd"
   xmlns:inkscape="http://www.inkscape.org/namespaces/inkscape"
   width="48"
   height="48"
   viewBox="0 0 48 48"
   xml:space="preserve"
   id="svg2"
   sodipodi:version="0.32"
   inkscape:version="0.48.3.1 r9886"
   sodipodi:docname="gdesklets.svg"
   inkscape:output_extension="org.inkscape.output.svg.inkscape"
   version="1.0"><metadata
   id="metadata17"><rdf:RDF><cc:Work
       rdf:about=""><dc:format>image/svg+xml</dc:format><dc:type
         rdf:resource="http://purl.org/dc/dcmitype/StillImage" /></cc:Work></rdf:RDF></metadata><defs
   id="defs15" /><sodipodi:namedview
   inkscape:window-height="717"
   inkscape:window-width="1366"
   inkscape:pageshadow="2"
   inkscape:pageopacity="0.0"
   guidetolerance="10000"
   gridtolerance="10000"
   objecttolerance="10000"
   borderopacity="1.0"
   bordercolor="#666666"
   pagecolor="#ffffff"
   id="base"
   inkscape:zoom="4"
   inkscape:cx="-16.434633"
   inkscape:cy="19.076604"
   inkscape:window-x="0"
   inkscape:window-y="0"
   inkscape:current-layer="svg2"
   width="48px"
   height="48px"
   showgrid="true"
   showguides="true"
   inkscape:guide-bbox="true"
   inkscape:window-maximized="1" />
	<g
   id="Layer_x0020_3"
   style="fill:#000000;fill-opacity:1;fill-rule:nonzero;stroke:#ffffff;stroke-width:2.69504714;stroke-miterlimit:4;stroke-opacity:1;stroke-dasharray:none"
   transform="matrix(0.96600738,-0.96600737,0.96925636,0.96925637,-22.591576,23.873419)">
		<g
   id="g5"
   style="fill:#000000;fill-opacity:1;stroke:#ffffff;stroke-width:2.69504714;stroke-miterlimit:4;stroke-opacity:1;stroke-dasharray:none">
			
			<path
   style="fill:#000000;fill-opacity:1;stroke:#ffffff;stroke-width:2.69504714;stroke-miterlimit:4;stroke-opacity:1;stroke-dasharray:none"
   d="m 39.6,17.9 c -1.3,0 -2.5,1.2 -3.2,2.9 -1,0.5 -2.5,0.1 -2.9,-1 l 0,-7.2 -0.2,0 -18.6,0 -0.2,0 0,7.3 c -0.4,1.2 -1.8,1.6 -2.8,1.1 -0.6,-1.9 -1.9,-3.1 -3.3,-3.1 -2.1,0 -3.8,2.8 -3.8,6.2 0,3.4 1.7,6.2 3.8,6.2 1.3,0 2.5,-1.2 3.2,-2.9 1,-0.5 2.5,-0.1 2.9,1 l 0,7.2 0.2,0 18.7,0 0.2,0 0,-7.3 c 0.4,-1.2 1.8,-1.6 2.8,-1.1 0.6,1.9 1.9,3.1 3.3,3.1 2.1,0 3.8,-2.8 3.8,-6.2 0,-3.4 -1.7,-6.2 -3.8,-6.2 l -0.1,0 z"
   id="path9"
   inkscape:connector-curvature="0" />
		</g>
	</g>
	
</svg>