<?xml version="1.0" encoding="UTF-8" standalone="no"?>
<!-- Created with Inkscape (http://www.inkscape.org/) -->

<svg
   xmlns:dc="http://purl.org/dc/elements/1.1/"
   xmlns:cc="http://creativecommons.org/ns#"
   xmlns:rdf="http://www.w3.org/1999/02/22-rdf-syntax-ns#"
   xmlns:svg="http://www.w3.org/2000/svg"
   xmlns="http://www.w3.org/2000/svg"
   xmlns:sodipodi="http://sodipodi.sourceforge.net/DTD/sodipodi-0.dtd"
   xmlns:inkscape="http://www.inkscape.org/namespaces/inkscape"
   id="svg2"
   sodipodi:version="0.32"
   inkscape:version="0.48.3.1 r9886"
   width="48"
   height="48"
   version="1.0"
   sodipodi:docname="gdm.svg"
   inkscape:output_extension="org.inkscape.output.svg.inkscape">
  <metadata
     id="metadata7">
    <rdf:RDF>
      <cc:Work
         rdf:about="">
        <dc:format>image/svg+xml</dc:format>
        <dc:type
           rdf:resource="http://purl.org/dc/dcmitype/StillImage" />
      </cc:Work>
    </rdf:RDF>
  </metadata>
  <defs
     id="defs5" />
  <sodipodi:namedview
     inkscape:window-height="614"
     inkscape:window-width="772"
     inkscape:pageshadow="2"
     inkscape:pageopacity="0.0"
     guidetolerance="10000"
     gridtolerance="10000"
     objecttolerance="10000"
     borderopacity="1.0"
     bordercolor="#666666"
     pagecolor="#ffffff"
     id="base"
     showgrid="true"
     width="48px"
     height="48px"
     showguides="true"
     inkscape:guide-bbox="true"
     inkscape:zoom="3.1796875"
     inkscape:cx="18.761327"
     inkscape:cy="33.327621"
     inkscape:window-x="311"
     inkscape:window-y="102"
     inkscape:current-layer="svg2"
     inkscape:window-maximized="0" />
  <g
     id="g2987"
     style="stroke:#ffffff;stroke-opacity:1;stroke-width:8;stroke-miterlimit:4;stroke-dasharray:none">
    <path
       style="fill:#000000;fill-opacity:1;fill-rule:evenodd;stroke:#ffffff;stroke-opacity:1;stroke-width:8;stroke-miterlimit:4;stroke-dasharray:none"
       d="M 19.833333,14 C 9.0784088,14 4,23.456155 4,29.833333 l 0,0.859375 C 4,25.644109 8.3291259,18.166667 17.515625,18.166667 l 20.651042,0 0,3.307291 C 38.166667,26.522558 33.837541,34 24.651042,34 l 3.515625,0 C 38.921591,34 44,24.543845 44,18.166667 L 44,14 19.833333,14 z"
       id="path2989"
       inkscape:connector-curvature="0" />
    <path
       style="fill:#000000;fill-opacity:1;fill-rule:evenodd;stroke:#ffffff;stroke-opacity:1;stroke-width:8;stroke-miterlimit:4;stroke-dasharray:none"
       d="m 4,34 17.118055,0 c 7.618072,0 11.215278,-5.516091 11.215278,-9.236111 l 0,-2.430556 -17.118055,0 C 7.5972062,22.333333 4,27.849424 4,31.569444 L 4,34 z"
       id="path2991"
       sodipodi:nodetypes="czzczzc"
       inkscape:connector-curvature="0" />
  </g>
  <g
     id="g2983">
    <path
       inkscape:connector-curvature="0"
       id="path3141"
       d="M 19.833333,14 C 9.0784088,14 4,23.456155 4,29.833333 l 0,0.859375 C 4,25.644109 8.3291259,18.166667 17.515625,18.166667 l 20.651042,0 0,3.307291 C 38.166667,26.522558 33.837541,34 24.651042,34 l 3.515625,0 C 38.921591,34 44,24.543845 44,18.166667 L 44,14 19.833333,14 z"
       style="fill:#000000;fill-opacity:1;fill-rule:evenodd;stroke:none" />
    <path
       inkscape:connector-curvature="0"
       sodipodi:nodetypes="czzczzc"
       id="path4114"
       d="m 4,34 17.118055,0 c 7.618072,0 11.215278,-5.516091 11.215278,-9.236111 l 0,-2.430556 -17.118055,0 C 7.5972062,22.333333 4,27.849424 4,31.569444 L 4,34 z"
       style="fill:#000000;fill-opacity:1;fill-rule:evenodd;stroke:none" />
  </g>
</svg>
