<?xml version="1.0" encoding="UTF-8" standalone="no"?>
<svg
   xmlns:dc="http://purl.org/dc/elements/1.1/"
   xmlns:cc="http://creativecommons.org/ns#"
   xmlns:rdf="http://www.w3.org/1999/02/22-rdf-syntax-ns#"
   xmlns:svg="http://www.w3.org/2000/svg"
   xmlns="http://www.w3.org/2000/svg"
   xmlns:sodipodi="http://sodipodi.sourceforge.net/DTD/sodipodi-0.dtd"
   xmlns:inkscape="http://www.inkscape.org/namespaces/inkscape"
   version="1.1"
   width="48"
   height="48"
   viewBox="0 0 48.000002 48"
   overflow="visible"
   enable-background="new 0 0 128.012 128"
   xml:space="preserve"
   id="svg2"
   sodipodi:version="0.32"
   inkscape:version="0.48.3.1 r9886"
   sodipodi:docname="gnome-session-switch.svg"
   inkscape:output_extension="org.inkscape.output.svg.inkscape"
   sodipodi:modified="true"
   style="overflow:visible"><sodipodi:namedview
   inkscape:window-height="628"
   inkscape:window-width="794"
   inkscape:pageshadow="2"
   inkscape:pageopacity="0.0"
   guidetolerance="10.0"
   gridtolerance="10.0"
   objecttolerance="10.0"
   borderopacity="1.0"
   bordercolor="#666666"
   pagecolor="#ffffff"
   id="base"
   inkscape:zoom="3.296875"
   inkscape:cx="15.8972"
   inkscape:cy="17.766082"
   inkscape:window-x="7"
   inkscape:window-y="30"
   inkscape:current-layer="svg2"
   showgrid="false"
   inkscape:window-maximized="0" /><metadata
   id="metadata61"><rdf:RDF><cc:Work
       rdf:about=""><dc:format>image/svg+xml</dc:format><dc:type
         rdf:resource="http://purl.org/dc/dcmitype/StillImage" /></cc:Work></rdf:RDF></metadata><defs
   id="defs59" />
	
	
	
	<linearGradient
   id="XMLID_7_"
   x1="89.220703"
   y1="70.170898"
   x2="77.356499"
   gradientUnits="userSpaceOnUse"
   y2="20.816099">
		<stop
   offset="0"
   id="stop11"
   style="stop-color:#6e6e6e" />
		<stop
   offset="1"
   id="stop13"
   style="stop-color:#7b7b7b" />
	</linearGradient>
	
	
		<linearGradient
   id="XMLID_8_"
   x1="595.16412"
   y1="44.329102"
   gradientTransform="matrix(-1,0,0,1,676.1953,0)"
   x2="579.53802"
   gradientUnits="userSpaceOnUse"
   y2="75.265999">
		<stop
   offset="0"
   id="stop18"
   style="stop-color:#7f7f7f" />
		<stop
   offset="1"
   id="stop20"
   style="stop-color:#949494" />
	</linearGradient>
	
	
	<linearGradient
   id="XMLID_9_"
   x1="43.597698"
   y1="37.950199"
   x2="122.6445"
   gradientUnits="userSpaceOnUse"
   y2="37.950199">
		<stop
   offset="0"
   id="stop27"
   style="stop-color:#b1b1b1" />
		<stop
   offset="1"
   id="stop29"
   style="stop-color:#a3a3a3" />
	</linearGradient>
	
	
	<linearGradient
   id="XMLID_10_"
   x1="1"
   y1="78.950203"
   x2="85.414101"
   gradientUnits="userSpaceOnUse"
   y2="78.950203">
		<stop
   offset="0"
   id="stop36"
   style="stop-color:#6e6e6e" />
		<stop
   offset="1"
   id="stop38"
   style="stop-color:#7b7b7b" />
	</linearGradient>
	<g
   id="g3005"
   style="stroke:#ffffff;stroke-opacity:1;stroke-width:8.00000033000000066;stroke-miterlimit:4;stroke-dasharray:none;stroke-linejoin:round;stroke-linecap:round"><path
     d="m 34.219884,11.123822 c -0.116181,0.05016 -0.191729,0.164748 -0.191729,0.291403 0,0 0,4.830046 0,5.396345 -0.611692,0 -16.506469,0 -16.506469,0 -0.17554,0 -0.317432,0.141892 -0.317432,0.317432 v 5.682035 c 0,0.17554 0.141892,0.317432 0.317432,0.317432 0,0 15.894777,0 16.506469,0 0,0.575822 0,5.396345 0,5.396345 0,0.127925 0.07714,0.243788 0.19522,0.29299 0.118402,0.0492 0.254898,0.02254 0.345684,-0.06761 l 9.336947,-8.317038 c 0.06095,-0.06063 0.09523,-0.143479 0.09396,-0.229821 -0.0013,-0.08602 -0.03714,-0.167604 -0.09967,-0.226646 l -9.336947,-8.792552 c -0.09205,-0.08698 -0.227281,-0.110466 -0.343461,-0.06031 z"
     id="path3007"
     style="fill:#000000;stroke:#ffffff;stroke-opacity:1;stroke-width:8.00000033000000066;stroke-miterlimit:4;stroke-dasharray:none;stroke-linejoin:round;stroke-linecap:round"
     inkscape:connector-curvature="0" /><path
     d="M 13.43697,21.341961 4.0997058,30.13483 c -0.06253,0.05873 -0.0984,0.140622 -0.09967,0.226646 -0.0013,0.08602 0.03301,0.168874 0.09396,0.229821 l 9.3369472,8.31672 c 0.09079,0.09015 0.227282,0.116815 0.345684,0.06761 0.118084,-0.0492 0.19522,-0.165064 0.19522,-0.292989 0,0 0,-4.820524 0,-5.396346 0.611692,0 16.506469,0 16.506469,0 0.17554,0 0.317432,-0.141892 0.317432,-0.317432 v -5.682034 c 0,-0.17554 -0.141892,-0.317432 -0.317432,-0.317432 0,0 -15.894777,0 -16.506469,0 0,-0.566299 0,-5.396345 0,-5.396345 0,-0.126656 -0.07523,-0.241249 -0.191729,-0.291403 -0.116497,-0.05015 -0.250771,-0.02666 -0.343144,0.06031 z"
     id="path3009"
     style="fill:#000000;stroke:#ffffff;stroke-opacity:1;stroke-width:8.00000033000000066;stroke-miterlimit:4;stroke-dasharray:none;stroke-linejoin:round;stroke-linecap:round"
     inkscape:connector-curvature="0" /></g><g
   id="g3001"><path
     inkscape:connector-curvature="0"
     style="fill:#000000"
     id="path15"
     d="m 34.219884,11.123822 c -0.116181,0.05016 -0.191729,0.164748 -0.191729,0.291403 0,0 0,4.830046 0,5.396345 -0.611692,0 -16.506469,0 -16.506469,0 -0.17554,0 -0.317432,0.141892 -0.317432,0.317432 v 5.682035 c 0,0.17554 0.141892,0.317432 0.317432,0.317432 0,0 15.894777,0 16.506469,0 0,0.575822 0,5.396345 0,5.396345 0,0.127925 0.07714,0.243788 0.19522,0.29299 0.118402,0.0492 0.254898,0.02254 0.345684,-0.06761 l 9.336947,-8.317038 c 0.06095,-0.06063 0.09523,-0.143479 0.09396,-0.229821 -0.0013,-0.08602 -0.03714,-0.167604 -0.09967,-0.226646 l -9.336947,-8.792552 c -0.09205,-0.08698 -0.227281,-0.110466 -0.343461,-0.06031 z" /><path
     inkscape:connector-curvature="0"
     style="fill:#000000"
     id="path40"
     d="M 13.43697,21.341961 4.0997058,30.13483 c -0.06253,0.05873 -0.0984,0.140622 -0.09967,0.226646 -0.0013,0.08602 0.03301,0.168874 0.09396,0.229821 l 9.3369472,8.31672 c 0.09079,0.09015 0.227282,0.116815 0.345684,0.06761 0.118084,-0.0492 0.19522,-0.165064 0.19522,-0.292989 0,0 0,-4.820524 0,-5.396346 0.611692,0 16.506469,0 16.506469,0 0.17554,0 0.317432,-0.141892 0.317432,-0.317432 v -5.682034 c 0,-0.17554 -0.141892,-0.317432 -0.317432,-0.317432 0,0 -15.894777,0 -16.506469,0 0,-0.566299 0,-5.396345 0,-5.396345 0,-0.126656 -0.07523,-0.241249 -0.191729,-0.291403 -0.116497,-0.05015 -0.250771,-0.02666 -0.343144,0.06031 z" /></g>
	<linearGradient
   id="XMLID_11_"
   x1="8.1542997"
   y1="64.207001"
   x2="80.318703"
   gradientUnits="userSpaceOnUse"
   y2="98.641296">
		<stop
   offset="0"
   id="stop43"
   style="stop-color:#7f7f7f" />
		<stop
   offset="1"
   id="stop45"
   style="stop-color:#949494" />
	</linearGradient>
	
	
	<linearGradient
   id="XMLID_12_"
   x1="15.6523"
   y1="59.7617"
   x2="19.4666"
   gradientUnits="userSpaceOnUse"
   y2="76.925697">
		<stop
   offset="0"
   id="stop52"
   style="stop-color:#b1b1b1" />
		<stop
   offset="1"
   id="stop54"
   style="stop-color:#a3a3a3" />
	</linearGradient>
	
</svg>