<?xml version="1.0" encoding="UTF-8" standalone="no"?>
<svg
   xmlns:dc="http://purl.org/dc/elements/1.1/"
   xmlns:cc="http://creativecommons.org/ns#"
   xmlns:rdf="http://www.w3.org/1999/02/22-rdf-syntax-ns#"
   xmlns:svg="http://www.w3.org/2000/svg"
   xmlns="http://www.w3.org/2000/svg"
   xmlns:sodipodi="http://sodipodi.sourceforge.net/DTD/sodipodi-0.dtd"
   xmlns:inkscape="http://www.inkscape.org/namespaces/inkscape"
   version="1.1"
   width="48"
   height="48"
   viewBox="0 0 48.000002 48"
   overflow="visible"
   enable-background="new 0 0 128.008 128"
   xml:space="preserve"
   id="svg2"
   sodipodi:version="0.32"
   inkscape:version="0.48.3.1 r9886"
   sodipodi:docname="gnome-session-logout.svg"
   inkscape:output_extension="org.inkscape.output.svg.inkscape"
   sodipodi:modified="true"
   style="overflow:visible"><sodipodi:namedview
   inkscape:window-height="717"
   inkscape:window-width="1366"
   inkscape:pageshadow="2"
   inkscape:pageopacity="0.0"
   guidetolerance="10.0"
   gridtolerance="10.0"
   objecttolerance="10.0"
   borderopacity="1.0"
   bordercolor="#666666"
   pagecolor="#ffffff"
   id="base"
   inkscape:zoom="4.6624854"
   inkscape:cx="35.039358"
   inkscape:cy="27.495311"
   inkscape:window-x="0"
   inkscape:window-y="0"
   inkscape:current-layer="g3015"
   showgrid="false"
   inkscape:window-maximized="1" /><metadata
   id="metadata88"><rdf:RDF><cc:Work
       rdf:about=""><dc:format>image/svg+xml</dc:format><dc:type
         rdf:resource="http://purl.org/dc/dcmitype/StillImage" /></cc:Work></rdf:RDF></metadata><defs
   id="defs86" />
	
	
	<linearGradient
   id="XMLID_10_"
   x1="108.8496"
   y1="44.700199"
   x2="79.279297"
   gradientUnits="userSpaceOnUse"
   y2="82.0364">
		<stop
   offset="0"
   id="stop9"
   style="stop-color:#828282" />
		<stop
   offset="0.82"
   id="stop11"
   style="stop-color:#6b6b6b" />
		<stop
   offset="1"
   id="stop13"
   style="stop-color:#666666" />
	</linearGradient>
	
	
		<linearGradient
   id="XMLID_11_"
   x1="588.5498"
   y1="51.591301"
   gradientTransform="matrix(-1,0,0,1,676.1953,0)"
   x2="565.7616"
   gradientUnits="userSpaceOnUse"
   y2="91.470703">
		<stop
   offset="0"
   id="stop18"
   style="stop-color:#808080" />
		<stop
   offset="0.8389"
   id="stop20"
   style="stop-color:#9b9b9b" />
		<stop
   offset="1"
   id="stop22"
   style="stop-color:#a0a0a0" />
	</linearGradient>
	
	<linearGradient
   id="XMLID_12_"
   x1="77.152298"
   y1="76.716797"
   x2="136.1207"
   gradientUnits="userSpaceOnUse"
   y2="72.192596">
		<stop
   offset="0"
   id="stop27"
   style="stop-color:#9c9c9c" />
		<stop
   offset="1"
   id="stop29"
   style="stop-color:#a0a0a0" />
	</linearGradient>
	
	<linearGradient
   id="XMLID_13_"
   x1="71.976601"
   y1="49.313999"
   x2="121.4751"
   gradientUnits="userSpaceOnUse"
   y2="67.721497">
		<stop
   offset="0"
   id="stop34"
   style="stop-color:#a6a6a6" />
		<stop
   offset="1"
   id="stop36"
   style="stop-color:#a7a7a7" />
	</linearGradient>
	
	
	
	<linearGradient
   id="XMLID_14_"
   x1="57.883801"
   y1="114.4971"
   x2="43.883701"
   gradientUnits="userSpaceOnUse"
   y2="20.663601">
		<stop
   offset="0"
   id="stop45"
   style="stop-color:#828282" />
		<stop
   offset="0.82"
   id="stop47"
   style="stop-color:#6b6b6b" />
		<stop
   offset="1"
   id="stop49"
   style="stop-color:#666666" />
	</linearGradient>
	<g
   id="g3019"
   style="stroke:#ffffff;stroke-opacity:1;stroke-width:8.00000033000000066;stroke-miterlimit:4;stroke-dasharray:none"><path
     d="m 36.922311,18.485587 c -0.11904,0.04889 -0.196813,0.165069 -0.196813,0.293632 0,0 0,2.958221 0,3.491837 -0.609167,0 -11.427831,0 -11.427831,0 -0.175544,0 -0.317439,0.142213 -0.317439,0.31744 v 5.364732 c 0,0.175544 0.141895,0.317439 0.317439,0.317439 0,0 10.818664,0 11.427831,0 0,0.533617 0,3.491838 0,3.491838 0,0.126341 0.07523,0.241254 0.191734,0.291409 0.1165,0.05016 0.251095,0.02667 0.343469,-0.06 l 6.63957,-6.254198 c 0.0619,-0.05873 0.09841,-0.139673 0.09968,-0.225382 0.0016,-0.08539 -0.03143,-0.167925 -0.09142,-0.228874 l -6.639576,-6.729401 c -0.09047,-0.09142 -0.227287,-0.119357 -0.346644,-0.07047 z"
     id="path3021"
     style="fill:#000000;stroke:#ffffff;stroke-opacity:1;stroke-width:8.00000033000000066;stroke-miterlimit:4;stroke-dasharray:none"
     inkscape:connector-curvature="0" /><path
     d="m 4.0000002,25.128014 c 0,8.751814 7.1201738,15.871987 15.8719868,15.871987 6.249119,0 11.936052,-3.699443 14.488268,-9.425421 0.04412,-0.09841 0.03492,-0.211732 -0.02349,-0.302202 -0.05873,-0.08984 -0.15872,-0.144435 -0.266332,-0.144435 h -5.859938 c -0.09936,0 -0.192686,0.04635 -0.252683,0.125388 -1.918605,2.524916 -4.941584,4.032755 -8.085825,4.032755 -5.601224,0 -10.1580708,-4.556848 -10.1580708,-10.158072 0,-5.601224 4.5568468,-10.158072 10.1580708,-10.158072 3.28074,0 6.379587,1.611324 8.288987,4.310197 0.05968,0.08412 0.15618,0.13396 0.259348,0.13396 h 5.772642 c 0.106342,0 0.205701,-0.05333 0.264745,-0.142213 0.05873,-0.08857 0.0692,-0.20094 0.02762,-0.299029 C 32.025488,13.160853 26.152853,9.2560267 19.87199,9.2560267 11.120177,9.2560267 4.0000032,16.3762 4.0000032,25.128014 z"
     id="path3023"
     style="fill:#000000;stroke:#ffffff;stroke-opacity:1;stroke-width:8.00000033000000066;stroke-miterlimit:4;stroke-dasharray:none"
     inkscape:connector-curvature="0" /></g><path
   sodipodi:type="arc"
   style="fill:#ffffff;fill-opacity:1;stroke:none;overflow:visible"
   id="path3034"
   sodipodi:cx="23.978891"
   sodipodi:cy="23.514511"
   sodipodi:rx="13.171504"
   sodipodi:ry="13.678101"
   d="m 37.150395,23.514511 a 13.171504,13.678101 0 1 1 -26.343008,0 13.171504,13.678101 0 1 1 26.343008,0 z"
   transform="matrix(1.101727,0,0,1.101727,-6.7021118,-1.1774208)" /><g
   id="g3015"><path
     inkscape:connector-curvature="0"
     style="fill:#000000"
     id="path15"
     d="m 36.922311,18.485587 c -0.11904,0.04889 -0.196813,0.165069 -0.196813,0.293632 0,0 0,2.958221 0,3.491837 -0.609167,0 -11.427831,0 -11.427831,0 -0.175544,0 -0.317439,0.142213 -0.317439,0.31744 v 5.364732 c 0,0.175544 0.141895,0.317439 0.317439,0.317439 0,0 10.818664,0 11.427831,0 0,0.533617 0,3.491838 0,3.491838 0,0.126341 0.07523,0.241254 0.191734,0.291409 0.1165,0.05016 0.251095,0.02667 0.343469,-0.06 l 6.63957,-6.254198 c 0.0619,-0.05873 0.09841,-0.139673 0.09968,-0.225382 0.0016,-0.08539 -0.03143,-0.167925 -0.09142,-0.228874 l -6.639576,-6.729401 c -0.09047,-0.09142 -0.227287,-0.119357 -0.346644,-0.07047 z" /><path
     inkscape:connector-curvature="0"
     style="fill:#000000"
     id="path51"
     d="m 4.0000002,25.128014 c 0,8.751814 7.1201738,15.871987 15.8719868,15.871987 6.249119,0 11.936052,-3.699443 14.488268,-9.425421 0.04412,-0.09841 0.03492,-0.211732 -0.02349,-0.302202 -0.05873,-0.08984 -0.15872,-0.144435 -0.266332,-0.144435 h -5.859938 c -0.09936,0 -0.192686,0.04635 -0.252683,0.125388 -1.918605,2.524916 -4.941584,4.032755 -8.085825,4.032755 -5.601224,0 -10.1580708,-4.556848 -10.1580708,-10.158072 0,-5.601224 4.5568468,-10.158072 10.1580708,-10.158072 3.28074,0 6.379587,1.611324 8.288987,4.310197 0.05968,0.08412 0.15618,0.13396 0.259348,0.13396 h 5.772642 c 0.106342,0 0.205701,-0.05333 0.264745,-0.142213 0.05873,-0.08857 0.0692,-0.20094 0.02762,-0.299029 C 32.025488,13.160853 26.152853,9.2560267 19.87199,9.2560267 11.120177,9.2560267 4.0000032,16.3762 4.0000032,25.128014 z" /></g>
	<linearGradient
   id="XMLID_15_"
   x1="49.616199"
   y1="60.9067"
   x2="54.116199"
   gradientUnits="userSpaceOnUse"
   y2="111.6567">
		<stop
   offset="0"
   id="stop54"
   style="stop-color:#808080" />
		<stop
   offset="0.8389"
   id="stop56"
   style="stop-color:#9b9b9b" />
		<stop
   offset="1"
   id="stop58"
   style="stop-color:#a0a0a0" />
	</linearGradient>
	
	<linearGradient
   id="XMLID_16_"
   x1="50.9897"
   y1="84.453102"
   x2="58.3228"
   gradientUnits="userSpaceOnUse"
   y2="113.6201">
		<stop
   offset="0"
   id="stop63"
   style="stop-color:#9c9c9c" />
		<stop
   offset="1"
   id="stop65"
   style="stop-color:#a7a7a7" />
	</linearGradient>
	
	<linearGradient
   id="XMLID_17_"
   x1="18.6621"
   y1="34.936001"
   x2="45.912102"
   gradientUnits="userSpaceOnUse"
   y2="57.9361">
		<stop
   offset="0"
   id="stop70"
   style="stop-color:#a6a6a6" />
		<stop
   offset="1"
   id="stop72"
   style="stop-color:#a7a7a7" />
	</linearGradient>
	
	<linearGradient
   id="XMLID_18_"
   x1="48.951199"
   y1="51.4897"
   x2="46.118198"
   gradientUnits="userSpaceOnUse"
   y2="-6.5092001">
		<stop
   offset="0"
   id="stop77"
   style="stop-color:#a6a6a6" />
		<stop
   offset="0.802"
   id="stop79"
   style="stop-color:#bfbfbf" />
		<stop
   offset="1"
   id="stop81"
   style="stop-color:#c6c6c6" />
	</linearGradient>
	
</svg>