<?xml version="1.0" encoding="UTF-8" standalone="no"?>
<svg
   xmlns:dc="http://purl.org/dc/elements/1.1/"
   xmlns:cc="http://creativecommons.org/ns#"
   xmlns:rdf="http://www.w3.org/1999/02/22-rdf-syntax-ns#"
   xmlns:svg="http://www.w3.org/2000/svg"
   xmlns="http://www.w3.org/2000/svg"
   xmlns:sodipodi="http://sodipodi.sourceforge.net/DTD/sodipodi-0.dtd"
   xmlns:inkscape="http://www.inkscape.org/namespaces/inkscape"
   version="1.1"
   width="48"
   height="48"
   viewBox="0 0 48 48"
   overflow="visible"
   enable-background="new 0 0 128 128"
   xml:space="preserve"
   id="svg2"
   sodipodi:version="0.32"
   inkscape:version="0.48.3.1 r9886"
   sodipodi:docname="gnome-session-reboot.svg"
   inkscape:output_extension="org.inkscape.output.svg.inkscape"
   sodipodi:modified="true"
   style="overflow:visible"><sodipodi:namedview
   inkscape:window-height="628"
   inkscape:window-width="794"
   inkscape:pageshadow="2"
   inkscape:pageopacity="0.0"
   guidetolerance="10.0"
   gridtolerance="10.0"
   objecttolerance="10.0"
   borderopacity="1.0"
   bordercolor="#666666"
   pagecolor="#ffffff"
   id="base"
   inkscape:zoom="2.3312427"
   inkscape:cx="17.029723"
   inkscape:cy="85.352906"
   inkscape:window-x="202"
   inkscape:window-y="88"
   inkscape:current-layer="svg2"
   showgrid="false"
   inkscape:window-maximized="0" /><metadata
   id="metadata93"><rdf:RDF><cc:Work
       rdf:about=""><dc:format>image/svg+xml</dc:format><dc:type
         rdf:resource="http://purl.org/dc/dcmitype/StillImage" /></cc:Work></rdf:RDF></metadata><defs
   id="defs91" />
	
	
	
	<linearGradient
   id="XMLID_9_"
   x1="65.098602"
   y1="67.5"
   x2="121"
   gradientUnits="userSpaceOnUse"
   y2="67.5">
		<stop
   offset="0"
   id="stop11"
   style="stop-color:#545454" />
		<stop
   offset="0.3319"
   id="stop13"
   style="stop-color:#505050" />
		<stop
   offset="0.8192"
   id="stop15"
   style="stop-color:#474747" />
		<stop
   offset="1"
   id="stop17"
   style="stop-color:#424242" />
	</linearGradient>
	
	<linearGradient
   id="XMLID_10_"
   x1="98.113297"
   y1="117.6191"
   x2="74.4431"
   gradientUnits="userSpaceOnUse"
   y2="-4.7357998">
		<stop
   offset="0"
   id="stop22"
   style="stop-color:#696969" />
		<stop
   offset="0.5072"
   id="stop24"
   style="stop-color:#585858" />
		<stop
   offset="1"
   id="stop26"
   style="stop-color:#464646" />
	</linearGradient>
	
	
	<linearGradient
   id="XMLID_11_"
   x1="78.251999"
   y1="10.0327"
   x2="105.918"
   gradientUnits="userSpaceOnUse"
   y2="49.3657">
		<stop
   offset="0"
   id="stop33"
   style="stop-color:#9a9a9a" />
		<stop
   offset="1"
   id="stop35"
   style="stop-color:#848484" />
	</linearGradient>
	
	<linearGradient
   id="XMLID_12_"
   x1="-6.25"
   y1="26.976601"
   x2="116.7498"
   gradientUnits="userSpaceOnUse"
   y2="26.976601">
		<stop
   offset="0"
   id="stop40"
   style="stop-color:#a2a2a2" />
		<stop
   offset="0.4719"
   id="stop42"
   style="stop-color:#dedede" />
		<stop
   offset="0.8119"
   id="stop44"
   style="stop-color:#b9b9b9" />
		<stop
   offset="1"
   id="stop46"
   style="stop-color:#a9a9a9" />
	</linearGradient>
	
	
	<linearGradient
   id="XMLID_13_"
   x1="33.144501"
   y1="0.1035"
   x2="46.144501"
   gradientUnits="userSpaceOnUse"
   y2="114.1035">
		<stop
   offset="0"
   id="stop53"
   style="stop-color:#545454" />
		<stop
   offset="0.3319"
   id="stop55"
   style="stop-color:#505050" />
		<stop
   offset="0.8192"
   id="stop57"
   style="stop-color:#474747" />
		<stop
   offset="1"
   id="stop59"
   style="stop-color:#424242" />
	</linearGradient>
	<g
   id="g3027"
   style="stroke:#ffffff;stroke-opacity:1;stroke-width:8;stroke-miterlimit:4;stroke-dasharray:none;stroke-linejoin:round;stroke-linecap:round"><path
     d="m 27.711865,7.050847 c -0.187458,0 -0.338983,0.151865 -0.338983,0.338984 v 11.525423 c 0,0.136949 0.08271,0.260678 0.209152,0.313221 0.12678,0.05254 0.272542,0.02339 0.369492,-0.07356 0,0 2.98305,-2.983051 3.36,-3.36 3.051864,2.242034 4.874915,5.788814 4.874915,9.561017 0,6.542034 -5.288814,11.864407 -11.830848,11.864407 -0.187457,0 -0.338983,0.151525 -0.338983,0.338983 v 6.101695 c 0,0.187458 0.151526,0.338983 0.338983,0.338983 10.280339,0 18.610509,-8.363729 18.610509,-18.644068 0,-5.516949 -2.552882,-10.858644 -6.827119,-14.388474 0.438305,-0.438305 3.337966,-3.337966 3.337966,-3.337966 0.06475,-0.06475 0.09932,-0.151526 0.09932,-0.239661 0,-0.04373 -0.0085,-0.0878 -0.02576,-0.129831 -0.0522,-0.126441 -0.176272,-0.209153 -0.313221,-0.209153 H 27.711865 z"
     id="path3029"
     style="fill:#000000;stroke:#ffffff;stroke-opacity:1;stroke-width:8;stroke-miterlimit:4;stroke-dasharray:none;stroke-linejoin:round;stroke-linecap:round"
     inkscape:connector-curvature="0" /><path
     d="m 20.254237,40.949153 c 0.187458,0 0.338983,-0.151526 0.338983,-0.338984 V 29.084746 c 0,-0.136949 -0.08271,-0.261017 -0.209152,-0.313221 -0.12678,-0.0522 -0.272542,-0.02305 -0.369492,0.07356 0,0 -2.98305,2.983051 -3.36,3.36 -3.051864,-2.242034 -4.874915,-5.788475 -4.874915,-9.561017 0,-6.542034 5.288814,-11.864407 11.830848,-11.864407 0.187457,0 0.338983,-0.151864 0.338983,-0.338983 V 4.338983 C 23.949492,4.151864 23.797966,4 23.610509,4 13.33017,4 5,12.363729 5,22.644068 c 0,5.516949 2.552882,10.858644 6.827119,14.388474 -0.438305,0.438305 -3.337966,3.337966 -3.337966,3.337966 -0.06475,0.06475 -0.09932,0.151526 -0.09932,0.239661 0,0.04373 0.0085,0.0878 0.02576,0.129831 0.0522,0.126441 0.176272,0.209153 0.313221,0.209153 h 11.525423 z"
     id="path3031"
     style="fill:#000000;stroke:#ffffff;stroke-opacity:1;stroke-width:8;stroke-miterlimit:4;stroke-dasharray:none;stroke-linejoin:round;stroke-linecap:round"
     inkscape:connector-curvature="0" /></g><g
   id="g3023"><path
     inkscape:connector-curvature="0"
     style="fill:#000000"
     id="path19"
     d="m 27.711865,7.050847 c -0.187458,0 -0.338983,0.151865 -0.338983,0.338984 v 11.525423 c 0,0.136949 0.08271,0.260678 0.209152,0.313221 0.12678,0.05254 0.272542,0.02339 0.369492,-0.07356 0,0 2.98305,-2.983051 3.36,-3.36 3.051864,2.242034 4.874915,5.788814 4.874915,9.561017 0,6.542034 -5.288814,11.864407 -11.830848,11.864407 -0.187457,0 -0.338983,0.151525 -0.338983,0.338983 v 6.101695 c 0,0.187458 0.151526,0.338983 0.338983,0.338983 10.280339,0 18.610509,-8.363729 18.610509,-18.644068 0,-5.516949 -2.552882,-10.858644 -6.827119,-14.388474 0.438305,-0.438305 3.337966,-3.337966 3.337966,-3.337966 0.06475,-0.06475 0.09932,-0.151526 0.09932,-0.239661 0,-0.04373 -0.0085,-0.0878 -0.02576,-0.129831 -0.0522,-0.126441 -0.176272,-0.209153 -0.313221,-0.209153 H 27.711865 z" /><path
     inkscape:connector-curvature="0"
     style="fill:#000000"
     id="path61"
     d="m 20.254237,40.949153 c 0.187458,0 0.338983,-0.151526 0.338983,-0.338984 V 29.084746 c 0,-0.136949 -0.08271,-0.261017 -0.209152,-0.313221 -0.12678,-0.0522 -0.272542,-0.02305 -0.369492,0.07356 0,0 -2.98305,2.983051 -3.36,3.36 -3.051864,-2.242034 -4.874915,-5.788475 -4.874915,-9.561017 0,-6.542034 5.288814,-11.864407 11.830848,-11.864407 0.187457,0 0.338983,-0.151864 0.338983,-0.338983 V 4.338983 C 23.949492,4.151864 23.797966,4 23.610509,4 13.33017,4 5,12.363729 5,22.644068 c 0,5.516949 2.552882,10.858644 6.827119,14.388474 -0.438305,0.438305 -3.337966,3.337966 -3.337966,3.337966 -0.06475,0.06475 -0.09932,0.151526 -0.09932,0.239661 0,0.04373 0.0085,0.0878 0.02576,0.129831 0.0522,0.126441 0.176272,0.209153 0.313221,0.209153 h 11.525423 z" /></g>
	<linearGradient
   id="XMLID_14_"
   x1="36.951199"
   y1="114"
   x2="36.951199"
   gradientUnits="userSpaceOnUse"
   y2="6.7495999">
		<stop
   offset="0"
   id="stop64"
   style="stop-color:#696969" />
		<stop
   offset="0.5072"
   id="stop66"
   style="stop-color:#585858" />
		<stop
   offset="1"
   id="stop68"
   style="stop-color:#464646" />
	</linearGradient>
	
	
	<linearGradient
   id="XMLID_15_"
   x1="53.439499"
   y1="2.8052001"
   x2="12.9391"
   gradientUnits="userSpaceOnUse"
   y2="80.305801">
		<stop
   offset="0"
   id="stop75"
   style="stop-color:#9a9a9a" />
		<stop
   offset="1"
   id="stop77"
   style="stop-color:#848484" />
	</linearGradient>
	
	<linearGradient
   id="XMLID_16_"
   x1="81.547897"
   y1="-17.315399"
   x2="-3.4521"
   gradientUnits="userSpaceOnUse"
   y2="59.434601">
		<stop
   offset="0"
   id="stop82"
   style="stop-color:#dedede" />
		<stop
   offset="0.6438"
   id="stop84"
   style="stop-color:#b9b9b9" />
		<stop
   offset="1"
   id="stop86"
   style="stop-color:#a9a9a9" />
	</linearGradient>
	
</svg>