<?xml version="1.0" encoding="UTF-8" standalone="no"?>
<!-- Generator: Adobe Illustrator 9.0, SVG Export Plug-In  -->

<svg
   xmlns:dc="http://purl.org/dc/elements/1.1/"
   xmlns:cc="http://creativecommons.org/ns#"
   xmlns:rdf="http://www.w3.org/1999/02/22-rdf-syntax-ns#"
   xmlns:svg="http://www.w3.org/2000/svg"
   xmlns="http://www.w3.org/2000/svg"
   xmlns:sodipodi="http://sodipodi.sourceforge.net/DTD/sodipodi-0.dtd"
   xmlns:inkscape="http://www.inkscape.org/namespaces/inkscape"
   id="svg1358"
   sodipodi:docname="folder-remote-nfs.svg"
   xml:space="preserve"
   height="48px"
   sodipodi:version="0.32"
   width="48px"
   viewBox="0 0 48 48"
   version="1.1"
   inkscape:version="0.48.3.1 r9886"><defs
   id="defs9" />
<metadata
   id="metadata1375">
  <rdf:RDF>
    <cc:Work
   rdf:about="">
      <dc:format>image/svg+xml</dc:format>
      <dc:type
   rdf:resource="http://purl.org/dc/dcmitype/StillImage" />
      <dc:title></dc:title>
      <dc:description>A remote or networked folder</dc:description>
      <cc:license
   rdf:resource="http://creativecommons.org/licenses/GPL/2.0/" />
      <dc:contributor>
        <cc:Agent>
          <dc:title />
        </cc:Agent>
      </dc:contributor>
      <dc:subject>
        <rdf:Bag>
          <rdf:li>folder</rdf:li>
          <rdf:li>remote</rdf:li>
          <rdf:li>share</rdf:li>
        </rdf:Bag>
      </dc:subject>
      <dc:date />
    </cc:Work>
   <cc:License
   rdf:about="http://creativecommons.org/licenses/LGPL/2.1/"><cc:permits
     rdf:resource="http://web.resource.org/cc/Reproduction" /><cc:permits
     rdf:resource="http://web.resource.org/cc/Distribution" /><cc:requires
     rdf:resource="http://web.resource.org/cc/Notice" /><cc:permits
     rdf:resource="http://web.resource.org/cc/DerivativeWorks" /><cc:requires
     rdf:resource="http://web.resource.org/cc/ShareAlike" /><cc:requires
     rdf:resource="http://web.resource.org/cc/SourceCode" /></cc:License></rdf:RDF></metadata><sodipodi:namedview
   id="base"
   borderopacity="1.0"
   showgrid="true"
   bordercolor="#666666"
   guidetolerance="0.50000000px"
   pagecolor="#ffffff"
   gridtolerance="0.50000000px"
   showguides="true"
   inkscape:zoom="9.8333333"
   inkscape:cx="8.061736"
   inkscape:cy="24.721271"
   inkscape:window-width="1366"
   inkscape:window-height="717"
   inkscape:window-x="0"
   inkscape:window-y="0"
   inkscape:window-maximized="1"
   inkscape:current-layer="svg1358"><inkscape:grid
     id="GridFromPre046Settings"
     type="xygrid"
     originx="0.0000000px"
     originy="0.0000000px"
     spacingx="1.0000000px"
     spacingy="1.0000000px"
     color="#3f3fff"
     empcolor="#3f3fff"
     opacity="0.15"
     empopacity="0.38"
     empspacing="5" /></sodipodi:namedview>
	<rect
   id="rect4762"
   style="fill:none"
   height="48"
   width="48"
   y="0"
   x="0" /><path
   id="path5481"
   sodipodi:nodetypes="cccccccccccccccccccc"
   style="stroke:#ffffff;stroke-width:8;fill:#fff;stroke-miterlimit:4;stroke-dasharray:none;stroke-opacity:1"
   d="m9 4c-2 0-3 1-3 3v21c0 2 2 4 4 4h11v7h-9c-2 2-2 3 0 5h22c2-2 2-3 0-5h-9v-7h13c2 0 4-2 4-4v-14c0-2-2-4-4-4h-14v-3c0-2-1-3-3-3h-12z" /><path
   id="path1365"
   sodipodi:nodetypes="cccccccccccccccccccc"
   d="m9 4c-2 0-3 1-3 3v21c0 2 2 4 4 4h11v7h-9c-2 2-2 3 0 5h22c2-2 2-3 0-5h-9v-7h13c2 0 4-2 4-4v-14c0-2-2-4-4-4h-14v-3c0-2-1-3-3-3h-12z" />
<path
   id="path1306"
   sodipodi:nodetypes="cccc"
   style="stroke-linejoin:round;stroke:#fff;stroke-linecap:round;stroke-width:4;fill:none"
   d="m11 12h8v4h18" /><flowRoot
   transform="matrix(0.65305283,0,0,0.65300993,-2.6351018,18.268068)"
   xml:space="preserve"
   id="flowRoot3789"
   style="font-size:4px;font-style:normal;font-weight:normal;line-height:125%;letter-spacing:0px;word-spacing:0px;fill:#000000;fill-opacity:1;fill-rule:nonzero;stroke:none;font-family:Sans"><flowRegion
     id="flowRegion3791"><rect
       id="rect3793"
       width="5.6019654"
       height="17.395578"
       x="16.805897"
       y="16.452087" /></flowRegion><flowPara
     id="flowPara3795" /></flowRoot><path
   transform="matrix(1.0208301,0,0,1.0983737,-12.403511,5.5272357)"
   d="m 33.316954,26.771498 a 8.6240788,8.2555285 0 1 1 -17.248158,0 8.6240788,8.2555285 0 1 1 17.248158,0 z"
   sodipodi:ry="8.2555285"
   sodipodi:rx="8.6240788"
   sodipodi:cy="26.771498"
   sodipodi:cx="24.692875"
   id="path3761"
   style="fill:#ffffff;fill-opacity:1;fill-rule:nonzero;stroke:#ffffff;stroke-width:7.55506468;stroke-miterlimit:4;stroke-opacity:1;stroke-dasharray:none"
   sodipodi:type="arc" /><path
   inkscape:connector-curvature="0"
   d="m 13.75437,33.146829 c -3e-6,0.645343 -0.02431,1.246861 -0.07292,1.804556 -0.04862,0.557703 -0.113425,1.123369 -0.194439,1.697 l -1.385374,0 c -0.08102,-0.573631 -0.149881,-1.139297 -0.206591,-1.697 -0.04861,-0.557695 -0.07292,-1.159213 -0.07292,-1.804556 l 0,-2.139176 1.932234,0 0,2.139176 m 0.157981,5.198555 c -3e-6,0.350556 -0.117476,0.621438 -0.35242,0.812648 -0.226847,0.191211 -0.486099,0.286817 -0.777755,0.286817 -0.291659,0 -0.55496,-0.09561 -0.789905,-0.286817 -0.226847,-0.19121 -0.340269,-0.462092 -0.340268,-0.812648 -10e-7,-0.350552 0.113421,-0.621435 0.340268,-0.812647 0.234945,-0.19121 0.498246,-0.286815 0.789905,-0.286817 0.291656,2e-6 0.550908,0.09561 0.777755,0.286817 0.234944,0.191212 0.352417,0.462095 0.35242,0.812647"
   style="font-size:22px;font-style:normal;font-variant:normal;font-weight:bold;font-stretch:normal;line-height:125%;letter-spacing:0px;word-spacing:0px;fill:#000000;fill-opacity:1;fill-rule:nonzero;stroke:#ffffff;stroke-width:6.33648157;stroke-miterlimit:4;stroke-opacity:1;stroke-dasharray:none;font-family:Ubuntu;-inkscape-font-specification:Ubuntu Bold"
   id="path3765" /><path
   sodipodi:type="arc"
   style="fill:#ffffff;fill-opacity:1;fill-rule:nonzero;stroke:#000000;stroke-width:2.5652945;stroke-miterlimit:4;stroke-opacity:1;stroke-dasharray:none"
   id="path2988-8"
   sodipodi:cx="24.692875"
   sodipodi:cy="26.771498"
   sodipodi:rx="8.6240788"
   sodipodi:ry="8.2555285"
   d="m 33.316954,26.771498 a 8.6240788,8.2555285 0 1 1 -17.248158,0 8.6240788,8.2555285 0 1 1 17.248158,0 z"
   transform="matrix(1.0208301,0,0,1.0983737,-12.403511,5.5272357)" /><path
   inkscape:connector-curvature="0"
   id="path3830"
   style="font-size:17.90568733px;font-style:normal;font-variant:normal;font-weight:bold;font-stretch:normal;line-height:125%;letter-spacing:0px;word-spacing:0px;fill:#000000;fill-opacity:1;fill-rule:nonzero;stroke:none;font-family:Ubuntu;-inkscape-font-specification:Ubuntu Bold"
   d="m 13.609543,39.371054 -1.745461,0 0,-6.059555 1.745461,0 0,6.059555 m 0.164004,-7.810606 c -2e-6,0.314889 -0.105433,0.56449 -0.316291,0.748805 -0.203054,0.176647 -0.445154,0.264967 -0.726301,0.264961 -0.281148,6e-6 -0.527153,-0.08831 -0.738013,-0.264961 -0.203053,-0.184315 -0.304578,-0.433916 -0.304576,-0.748805 -2e-6,-0.314874 0.101523,-0.560635 0.304576,-0.737285 0.21086,-0.184312 0.456865,-0.276472 0.738013,-0.276481 0.281147,9e-6 0.523247,0.09217 0.726301,0.276481 0.210858,0.17665 0.316289,0.422411 0.316291,0.737285" /></svg>