<?xml version="1.0" encoding="UTF-8" standalone="no"?>
<!-- Created with Inkscape (http://www.inkscape.org/) -->

<svg
   xmlns:dc="http://purl.org/dc/elements/1.1/"
   xmlns:cc="http://creativecommons.org/ns#"
   xmlns:rdf="http://www.w3.org/1999/02/22-rdf-syntax-ns#"
   xmlns:svg="http://www.w3.org/2000/svg"
   xmlns="http://www.w3.org/2000/svg"
   xmlns:xlink="http://www.w3.org/1999/xlink"
   xmlns:sodipodi="http://sodipodi.sourceforge.net/DTD/sodipodi-0.dtd"
   xmlns:inkscape="http://www.inkscape.org/namespaces/inkscape"
   width="48px"
   height="48px"
   id="svg1325"
   sodipodi:version="0.32"
   inkscape:version="0.91 r13725"
   sodipodi:docname="xfce4-systray.svg"
   inkscape:output_extension="org.inkscape.output.svg.inkscape"
   version="1.1">
  <sodipodi:namedview
     inkscape:window-height="1029"
     inkscape:window-width="1920"
     inkscape:pageshadow="2"
     inkscape:pageopacity="0.0"
     guidetolerance="10000"
     gridtolerance="10000"
     objecttolerance="10000"
     borderopacity="1.0"
     bordercolor="#666666"
     pagecolor="#ffffff"
     id="base"
     inkscape:showpageshadow="false"
     showgrid="true"
     inkscape:zoom="11.313709"
     inkscape:cx="23.731264"
     inkscape:cy="21.984514"
     inkscape:window-x="0"
     inkscape:window-y="0"
     inkscape:current-layer="layer1"
     inkscape:grid-points="false"
     inkscape:grid-bbox="true"
     showborder="true"
     inkscape:window-maximized="1" />
  <defs
     id="defs1327">
    <linearGradient
       id="linearGradient2783">
      <stop
         style="stop-color:#729fcf;stop-opacity:1"
         offset="0"
         id="stop2785" />
      <stop
         style="stop-color:#3465a4;stop-opacity:1;"
         offset="1"
         id="stop2787" />
    </linearGradient>
    <linearGradient
       inkscape:collect="always"
       id="linearGradient2270">
      <stop
         style="stop-color:#ffffff;stop-opacity:1;"
         offset="0"
         id="stop2272" />
      <stop
         style="stop-color:#ffffff;stop-opacity:0;"
         offset="1"
         id="stop2274" />
    </linearGradient>
    <linearGradient
       inkscape:collect="always"
       xlink:href="#linearGradient2270"
       id="linearGradient1341"
       gradientUnits="userSpaceOnUse"
       x1="23.99696"
       y1="18.375"
       x2="45.753761"
       y2="18.375"
       gradientTransform="translate(0,-8)" />
    <radialGradient
       inkscape:collect="always"
       xlink:href="#linearGradient2270"
       id="radialGradient2218"
       cx="3.6239223"
       cy="2.0049825"
       fx="3.6239223"
       fy="2.0049825"
       r="23"
       gradientTransform="matrix(1.246687e-8,1.125998,-1.627297,3.116107e-17,6.886624,6.5312)"
       gradientUnits="userSpaceOnUse" />
  </defs>
  <sodipodi:namedview
     id="namedview22"
     pagecolor="#ffffff"
     bordercolor="#666666"
     borderopacity="1.0"
     inkscape:pageopacity="0"
     inkscape:pageshadow="2"
     inkscape:zoom="1"
     inkscape:cx="29.202731"
     inkscape:cy="14.650528"
     inkscape:current-layer="layer1"
     showgrid="false"
     inkscape:grid-bbox="true"
     inkscape:document-units="px"
     stroke="#eeeeec"
     fill="#2e3436"
     inkscape:window-width="1270"
     inkscape:window-height="943"
     inkscape:window-x="0"
     inkscape:window-y="25"
     showborder="false"
     inkscape:grid-points="true"
     showguides="false"
     inkscape:guide-bbox="true"
     inkscape:showpageshadow="false">
    <sodipodi:guide
       orientation="vertical"
       position="31.875"
       id="guide2260" />
    <inkscape:grid
       id="GridFromPre046Settings"
       type="xygrid"
       originx="0px"
       originy="0px"
       spacingx="0.5px"
       spacingy="0.5px"
       color="#3f3fff"
       empcolor="#3f3fff"
       opacity="0.15"
       empopacity="0.38"
       empspacing="2" />
  </sodipodi:namedview>
  <metadata
     id="metadata1330">
    <rdf:RDF>
      <cc:Work
         rdf:about="">
        <dc:format>image/svg+xml</dc:format>
        <dc:type
           rdf:resource="http://purl.org/dc/dcmitype/StillImage" />
        <dc:title>Info</dc:title>
        <dc:creator>
          <cc:Agent>
            <dc:title>Lapo Calamandrei</dc:title>
          </cc:Agent>
        </dc:creator>
        <dc:subject>
          <rdf:Bag>
            <rdf:li>panel</rdf:li>
            <rdf:li>applet</rdf:li>
            <rdf:li>info</rdf:li>
          </rdf:Bag>
        </dc:subject>
        <dc:contributor>
          <cc:Agent>
            <dc:title>Andreas Nilsson</dc:title>
          </cc:Agent>
        </dc:contributor>
        <cc:license
           rdf:resource="http://creativecommons.org/licenses/GPL/2.0/" />
      </cc:Work>
      <cc:License
         rdf:about="http://creativecommons.org/licenses/GPL/2.0/">
        <cc:permits
           rdf:resource="http://web.resource.org/cc/Reproduction" />
        <cc:permits
           rdf:resource="http://web.resource.org/cc/Distribution" />
        <cc:requires
           rdf:resource="http://web.resource.org/cc/Notice" />
        <cc:permits
           rdf:resource="http://web.resource.org/cc/DerivativeWorks" />
        <cc:requires
           rdf:resource="http://web.resource.org/cc/ShareAlike" />
        <cc:requires
           rdf:resource="http://web.resource.org/cc/SourceCode" />
      </cc:License>
    </rdf:RDF>
  </metadata>
  <g
     id="layer1"
     inkscape:label="Layer 1"
     inkscape:groupmode="layer">
    <g
       id="g4188">
      <path
         inkscape:connector-curvature="0"
         id="path4173"
         d="M 6.6477432,8.863648 C 5.7107337,8.951959 4.9959586,9.740676 5.0000168,10.681829 l 0,26.363628 c 1.004e-4,1.004112 0.8140691,1.818081 1.8181814,1.818181 l 46.3636188,0 c 1.004113,-1e-4 1.818082,-0.814069 1.818182,-1.818181 l 0,-26.363628 c -1e-4,-1.004112 -0.814069,-1.8180806 -1.818182,-1.818181 l -46.3636188,0 c -0.05679,-0.00266 -0.113668,-0.00266 -0.170455,0 l 0,0 z m 1.988636,3.636362 42.7272568,0 0,22.727265 -42.7272568,0 0,-22.727265 z"
         style="stroke-width:9;stroke-miterlimit:4;stroke-dasharray:none;stroke:#ffffff;stroke-opacity:1;fill:#000000;fill-opacity:1;stroke-linejoin:round;stroke-linecap:round" />
      <g
         style="stroke-width:12.37337597;stroke-miterlimit:4;stroke-dasharray:none;stroke:#ffffff;stroke-opacity:1;fill:#000000;fill-opacity:1;fill-rule:nonzero;stroke-linejoin:round;stroke-linecap:round"
         id="g4175"
         transform="matrix(0.73416168,0,0,0.72063755,13.504477,13.529937)">
        <ellipse
           ry="8.2555285"
           rx="8.6240788"
           cy="26.771498"
           cx="24.692875"
           transform="matrix(1.8198487,0,0,1.9912668,-20.969786,-29.393184)"
           id="ellipse4177"
           style="fill:#ffffff;fill-opacity:1;stroke:#ffffff;stroke-width:6.49988752;stroke-miterlimit:4;stroke-dasharray:none;stroke-opacity:1;stroke-linejoin:round;stroke-linecap:round" />
        <g
           id="g4179"
           style="font-style:normal;font-weight:normal;font-size:4px;line-height:125%;font-family:Sans;letter-spacing:0px;word-spacing:0px;fill:#000000;stroke-width:12.56470572;stroke-miterlimit:4;stroke-dasharray:none;stroke:#ffffff;stroke-opacity:1;stroke-linejoin:round;stroke-linecap:round"
           transform="matrix(0.9847401,0,0,0.98480479,9.3527411,0.03050508)">
          <path
             id="path4181"
             style="font-variant:normal;font-weight:bold;font-stretch:normal;font-size:22px;font-family:Ubuntu;-inkscape-font-specification:'Ubuntu Bold';stroke-width:12.56470572;stroke-miterlimit:4;stroke-dasharray:none;stroke:#ffffff;stroke-opacity:1;stroke-linejoin:round;stroke-linecap:round"
             d="m 16.56225,20.967103 c -5e-6,1.18801 -0.044,2.295343 -0.132,3.322 -0.08801,1.026674 -0.205338,2.068006 -0.352,3.124 l -2.508,0 c -0.146668,-1.055994 -0.271335,-2.097326 -0.374,-3.124 -0.088,-1.026657 -0.132001,-2.13399 -0.132,-3.322 l 0,-3.938 3.498,0 0,3.938 m 0.286,9.57 c -5e-6,0.645335 -0.212672,1.144001 -0.638,1.496 -0.410671,0.352 -0.880004,0.528 -1.408,0.528 -0.528003,0 -1.004669,-0.176 -1.43,-0.528 -0.410668,-0.351999 -0.616001,-0.850665 -0.616,-1.496 -10e-7,-0.645331 0.205332,-1.143997 0.616,-1.496 0.425331,-0.351996 0.901997,-0.527996 1.43,-0.528 0.527996,4e-6 0.997329,0.176004 1.408,0.528 0.425328,0.352003 0.637995,0.850669 0.638,1.496"
             inkscape:connector-curvature="0" />
        </g>
      </g>
      <rect
         style="fill:#ffffff;fill-opacity:1;stroke:#ffffff;stroke-width:9;stroke-miterlimit:4;stroke-dasharray:none;stroke-opacity:1;stroke-linejoin:round;stroke-linecap:round"
         id="rect4171"
         width="46.138718"
         height="25.809397"
         x="5.833631"
         y="11.230448" />
    </g>
    <rect
       style="fill:#ffffff;fill-opacity:1;stroke:none"
       id="rect2999"
       width="46.138718"
       height="25.809397"
       x="5.833631"
       y="11.230448" />
    <g
       id="g2994"
       style="stroke-width:2;stroke-miterlimit:4;stroke-dasharray:none;stroke:#000000;stroke-opacity:1">
      <path
         inkscape:connector-curvature="0"
         id="rect1333"
         d="M 6.6477432,8.863648 C 5.7107337,8.951959 4.9959586,9.740676 5.0000168,10.681829 l 0,26.363628 c 1.004e-4,1.004112 0.8140691,1.818081 1.8181814,1.818181 l 46.3636188,0 c 1.004113,-1e-4 1.818082,-0.814069 1.818182,-1.818181 l 0,-26.363628 c -1e-4,-1.004112 -0.814069,-1.8180806 -1.818182,-1.818181 l -46.3636188,0 c -0.05679,-0.00266 -0.113668,-0.00266 -0.170455,0 l 0,0 z m 1.988636,3.636362 42.7272568,0 0,22.727265 -42.7272568,0 0,-22.727265 z"
         style="fill:#000000;fill-opacity:1;stroke:#000000;stroke-width:2;stroke-miterlimit:4;stroke-dasharray:none;stroke-opacity:1" />
      <g
         style="fill:#000000;fill-opacity:1;fill-rule:nonzero;stroke:none;stroke-width:0.81389493;stroke-miterlimit:4"
         id="g3754"
         transform="matrix(0.73416168,0,0,0.72063755,13.504477,13.529937)">
        <ellipse
           ry="8.2555285"
           rx="8.6240788"
           cy="26.771498"
           cx="24.692875"
           transform="matrix(1.8198487,0,0,1.9912668,-20.969786,-29.393184)"
           id="path2988-8"
           style="fill:#ffffff;fill-opacity:1;stroke:#000000;stroke-width:2.5652945;stroke-miterlimit:4;stroke-dasharray:none;stroke-opacity:1" />
        <g
           id="flowRoot2989"
           style="font-style:normal;font-weight:normal;font-size:4px;line-height:125%;font-family:Sans;letter-spacing:0px;word-spacing:0px;fill:#000000"
           transform="matrix(0.9847401,0,0,0.98480479,9.3527411,0.03050508)">
          <path
             id="path3055"
             style="font-variant:normal;font-weight:bold;font-stretch:normal;font-size:22px;font-family:Ubuntu;-inkscape-font-specification:'Ubuntu Bold'"
             d="m 16.56225,20.967103 c -5e-6,1.18801 -0.044,2.295343 -0.132,3.322 -0.08801,1.026674 -0.205338,2.068006 -0.352,3.124 l -2.508,0 c -0.146668,-1.055994 -0.271335,-2.097326 -0.374,-3.124 -0.088,-1.026657 -0.132001,-2.13399 -0.132,-3.322 l 0,-3.938 3.498,0 0,3.938 m 0.286,9.57 c -5e-6,0.645335 -0.212672,1.144001 -0.638,1.496 -0.410671,0.352 -0.880004,0.528 -1.408,0.528 -0.528003,0 -1.004669,-0.176 -1.43,-0.528 -0.410668,-0.351999 -0.616001,-0.850665 -0.616,-1.496 -10e-7,-0.645331 0.205332,-1.143997 0.616,-1.496 0.425331,-0.351996 0.901997,-0.527996 1.43,-0.528 0.527996,4e-6 0.997329,0.176004 1.408,0.528 0.425328,0.352003 0.637995,0.850669 0.638,1.496"
             inkscape:connector-curvature="0" />
        </g>
      </g>
    </g>
  </g>
</svg>
