<?xml version="1.0" encoding="UTF-8" standalone="no"?>
<!-- Created with Inkscape (http://www.inkscape.org/) -->

<svg
   xmlns:dc="http://purl.org/dc/elements/1.1/"
   xmlns:cc="http://creativecommons.org/ns#"
   xmlns:rdf="http://www.w3.org/1999/02/22-rdf-syntax-ns#"
   xmlns:svg="http://www.w3.org/2000/svg"
   xmlns="http://www.w3.org/2000/svg"
   xmlns:xlink="http://www.w3.org/1999/xlink"
   xmlns:sodipodi="http://sodipodi.sourceforge.net/DTD/sodipodi-0.dtd"
   xmlns:inkscape="http://www.inkscape.org/namespaces/inkscape"
   version="1.0"
   width="48"
   height="48"
   id="svg3201"
   inkscape:version="0.48.3.1 r9886"
   sodipodi:docname="gnome-sticky-notes-applet.svg">
  <metadata
     id="metadata19">
    <rdf:RDF>
      <cc:Work
         rdf:about="">
        <dc:format>image/svg+xml</dc:format>
        <dc:type
           rdf:resource="http://purl.org/dc/dcmitype/StillImage" />
        <dc:title />
      </cc:Work>
    </rdf:RDF>
  </metadata>
  <sodipodi:namedview
     pagecolor="#ffffff"
     bordercolor="#666666"
     borderopacity="1"
     objecttolerance="10"
     gridtolerance="10"
     guidetolerance="10"
     inkscape:pageopacity="0"
     inkscape:pageshadow="2"
     inkscape:window-width="1680"
     inkscape:window-height="1021"
     id="namedview17"
     showgrid="false"
     inkscape:zoom="13.409091"
     inkscape:cx="28.85548"
     inkscape:cy="18.654617"
     inkscape:window-x="1366"
     inkscape:window-y="0"
     inkscape:window-maximized="1"
     inkscape:current-layer="svg3201"
     fit-margin-top="0"
     fit-margin-left="0"
     fit-margin-right="0"
     fit-margin-bottom="0" />
  <defs
     id="defs3203">
    <linearGradient
       id="linearGradient3587-6-5">
      <stop
         id="stop3589-9-2"
         style="stop-color:#000000;stop-opacity:1"
         offset="0" />
      <stop
         id="stop3591-7-4"
         style="stop-color:#363636;stop-opacity:1"
         offset="1" />
    </linearGradient>
    <linearGradient
       x1="11.888327"
       y1="2.3846951"
       x2="11.888327"
       y2="20.015596"
       id="linearGradient3194"
       xlink:href="#linearGradient3587-6-5"
       gradientUnits="userSpaceOnUse"
       gradientTransform="translate(-0.9997118,-1.0000003)" />
    <linearGradient
       x1="11.888327"
       y1="2.3846951"
       x2="11.888327"
       y2="11.988697"
       id="linearGradient3225"
       xlink:href="#linearGradient3587-6-5"
       gradientUnits="userSpaceOnUse"
       gradientTransform="translate(-0.9997118,-1.0000003)" />
    <linearGradient
       x1="11.888327"
       y1="16.498461"
       x2="11.888327"
       y2="20.015596"
       id="linearGradient3227"
       xlink:href="#linearGradient3587-6-5"
       gradientUnits="userSpaceOnUse"
       gradientTransform="translate(-0.9997118,-1.0000003)" />
    <linearGradient
       x1="11.888327"
       y1="2.3846951"
       x2="11.888327"
       y2="20.015596"
       id="linearGradient3261"
       xlink:href="#linearGradient3587-6-5"
       gradientUnits="userSpaceOnUse"
       gradientTransform="translate(-0.9997118,-1.0000003)" />
    <linearGradient
       id="linearGradient3678">
      <stop
         style="stop-color:#ffffff;stop-opacity:1;"
         offset="0"
         id="stop3680" />
      <stop
         style="stop-color:#e6e6e6;stop-opacity:1;"
         offset="1"
         id="stop3682" />
    </linearGradient>
    <linearGradient
       gradientTransform="matrix(-0.4100229,0,0,0.5447147,78.029995,-3.8459034)"
       gradientUnits="userSpaceOnUse"
       xlink:href="#linearGradient3678"
       id="linearGradient2388"
       y2="38.279892"
       x2="159.68553"
       y1="14.403693"
       x1="159.68553" />
    <linearGradient
       inkscape:collect="always"
       xlink:href="#linearGradient3587-6-5"
       id="linearGradient3795"
       gradientUnits="userSpaceOnUse"
       gradientTransform="matrix(2.1470634,0,0,2.1470634,-15.682132,-14.420467)"
       x1="11.888327"
       y1="2.3846951"
       x2="11.888327"
       y2="20.015596" />
    <linearGradient
       inkscape:collect="always"
       xlink:href="#linearGradient3587-6-5"
       id="linearGradient3797"
       gradientUnits="userSpaceOnUse"
       gradientTransform="matrix(2.1470634,0,0,2.1470634,-15.682132,-14.420467)"
       x1="11.888327"
       y1="2.3846951"
       x2="11.888327"
       y2="20.015596" />
  </defs>
  <g
     id="g3783"
     style="stroke:#ffffff;stroke-width:8;stroke-miterlimit:4;stroke-opacity:1;stroke-dasharray:none"
     transform="translate(12.126708,13.299933)">
    <path
       style="fill:#ffffff;fill-opacity:1;fill-rule:nonzero;stroke:#ffffff;stroke-width:8;stroke-miterlimit:4;stroke-opacity:1;stroke-dasharray:none;marker:none;visibility:visible;display:inline;overflow:visible;enable-background:accumulate"
       id="path3785"
       d="m -7.0267831,-1.0690363 c -0.015416,0.0876796 -0.059804,0.17874514 -0.067096,0.26838288 -0.032522,7.73361252 -2.6e-5,15.48069542 0,23.21512442 0.0094,-7.834602 0.049953,-15.6490979 0.067096,-23.4835073 z M 27.192035,23.420907 c -0.130627,1.912969 -2.088476,3.204004 -3.891552,2.952212 -9.169689,-0.01095 -18.340252,-0.02851 -27.5092494,-0.0671 -1.67239,-0.114395 -2.7930134,-1.570497 -2.8851164,-3.153499 -1.883e-4,1.207102 0.00145,2.416099 0,3.623169 -0.2520515,1.806509 0.9701742,3.760674 2.8851164,3.891553 9.1864588,0.03862 18.3891934,-0.01095 27.5763444,0 1.806509,0.252052 3.760674,-0.970172 3.891553,-2.885117 -0.0014,-26.1375114 0.03931,-29.6549151 -0.0671,-4.361218 z M -3.8732838,-3.6857698 c -1.606337,-0.027727 -3.0232844,1.0463956 -3.1534993,2.3483505 -0.038557,7.4562949 -0.056092,14.8860233 -0.067096,22.3428793 -0.2515723,1.466273 0.9738134,3.047274 2.8851164,3.1535 9.1689974,0.03135 18.3395607,0.05814 27.5092497,0.0671 1.803076,0.204593 3.760922,-0.794062 3.891552,-2.348351 0.03336,-6.451711 0.06602,-19.0535489 0.0671,-25.5059218 -4.870777,0 0.06141,-0.057557 -6.172812,-0.057557 -8.302105,-0.016854 -16.6572291,0.0079 -24.9596108,0 z M 27.060078,-6.5231177 c -18.040052,19.0154117 -9.020026,9.5077059 0,0 z"
       inkscape:connector-curvature="0"
       sodipodi:nodetypes="cccccccccccccccccccccccc" />
    <path
       style="opacity:0.7;fill:url(#linearGradient3795);fill-opacity:1;fill-rule:nonzero;stroke:#ffffff;stroke-width:8;stroke-miterlimit:4;stroke-opacity:1;stroke-dasharray:none;marker:none;visibility:visible;display:inline;overflow:visible;enable-background:accumulate"
       id="path3787"
       d="m -7.0267831,-3.2154805 c -0.015416,0.087682 -0.059804,0.1787452 -0.067096,0.2683829 -0.032522,7.7336126 -2.6e-5,15.4806946 0,23.2151236 0.0094,-7.834602 0.049953,-15.649097 0.067096,-23.4835065 z"
       inkscape:connector-curvature="0" />
    <path
       style="fill:#000000;fill-opacity:1;fill-rule:nonzero;stroke:#ffffff;stroke-width:8;stroke-miterlimit:4;stroke-opacity:1;stroke-dasharray:none;marker:none;visibility:visible;display:inline;overflow:visible;enable-background:accumulate"
       id="path3789"
       d="m 27.192039,21.274462 c -0.130627,1.912969 -2.088476,3.204004 -3.891552,2.952212 -9.169689,-0.01095 -18.340252,-0.02851 -27.5092494,-0.0671 -1.67239,-0.114395 -2.7930134,-1.570497 -2.8851164,-3.153499 -1.883e-4,1.207102 0.00145,2.416099 0,3.623169 -0.2520515,1.806509 0.9701742,3.760674 2.8851164,3.891553 9.1864588,0.03862 18.3891934,-0.01095 27.5763444,0 1.806509,0.252052 3.760674,-0.970172 3.891553,-2.885117 0,0 -0.0671,-4.361222 -0.0671,-4.361222 z"
       inkscape:connector-curvature="0" />
    <path
       style="fill:#000000;fill-opacity:1;fill-rule:nonzero;stroke:#ffffff;stroke-width:8;stroke-miterlimit:4;stroke-opacity:1;stroke-dasharray:none;marker:none;visibility:visible;display:inline;overflow:visible;enable-background:accumulate"
       id="path3791"
       d="m -3.873284,-5.832214 c -1.606337,-0.027727 -3.023284,1.0463956 -3.153499,2.3483506 -0.03856,7.4562948 -0.05609,14.8860224 -0.0671,22.3428784 -0.251572,1.466273 0.973813,3.047274 2.885116,3.1535 9.168998,0.03135 18.339561,0.05814 27.50925,0.0671 1.803076,0.204593 3.760922,-0.794062 3.891552,-2.348351 0.03336,-6.451711 0.06602,-12.938295 0.0671,-19.39066679 L 16.456722,11.143006 c -0.805136,0.805136 -1.796143,1.094125 -2.818021,1.140628 -0.495224,0.405295 -0.985716,0.798242 -1.610297,1.006436 C 11.1814,13.572404 9.8704463,13.681752 8.8078088,12.619113 7.74517,11.556473 7.854517,10.245521 8.1368515,9.3985175 8.3450523,8.7739361 8.7379949,8.2834438 9.1432875,7.7882193 9.1897925,6.7663412 9.478779,5.7753332 10.283915,4.9701986 L 21.086327,-5.832214 c -8.302105,-0.016854 -16.657229,0.0079 -24.959611,0 z"
       inkscape:connector-curvature="0" />
    <path
       style="fill:#000000;fill-opacity:1;fill-rule:nonzero;stroke:#ffffff;stroke-width:8;stroke-miterlimit:4;stroke-opacity:1;stroke-dasharray:none;marker:none;visibility:visible;display:inline;overflow:visible;enable-background:accumulate"
       id="path3793"
       d="M 11.878047,6.5124688 C 11.322235,7.0682832 11.177383,7.8447321 11.356165,8.5525545 L 11.118944,8.789775 c -0.841084,0.8410848 -1.1796435,1.856762 -0.7591,2.277305 0.420543,0.420543 1.43622,0.08197 2.277304,-0.759101 l 0.23722,-0.23722 c 0.707823,0.178786 1.484272,0.03392 2.040084,-0.5218827 l 15.182031,-15.182032 c 0.841084,-0.8410846 0.841084,-2.1953216 0,-3.0364062 -0.841084,-0.8410844 -2.195321,-0.8410844 -3.036405,0 L 11.878047,6.5124688 z"
       inkscape:connector-curvature="0" />
  </g>
  <g
     id="g3776"
     transform="translate(12.326708,14.099933)">
    <path
       sodipodi:nodetypes="cccccccccccccccccccccccc"
       inkscape:connector-curvature="0"
       d="m -7.0267831,-1.0690363 c -0.015416,0.0876796 -0.059804,0.17874514 -0.067096,0.26838288 -0.032522,7.73361252 -2.6e-5,15.48069542 0,23.21512442 0.0094,-7.834602 0.049953,-15.6490979 0.067096,-23.4835073 z M 27.192035,23.420907 c -0.130627,1.912969 -2.088476,3.204004 -3.891552,2.952212 -9.169689,-0.01095 -18.340252,-0.02851 -27.5092494,-0.0671 -1.67239,-0.114395 -2.7930134,-1.570497 -2.8851164,-3.153499 -1.883e-4,1.207102 0.00145,2.416099 0,3.623169 -0.2520515,1.806509 0.9701742,3.760674 2.8851164,3.891553 9.1864588,0.03862 18.3891934,-0.01095 27.5763444,0 1.806509,0.252052 3.760674,-0.970172 3.891553,-2.885117 -0.0014,-26.1375114 0.03931,-29.6549151 -0.0671,-4.361218 z M -3.8732838,-3.6857698 c -1.606337,-0.027727 -3.0232844,1.0463956 -3.1534993,2.3483505 -0.038557,7.4562949 -0.056092,14.8860233 -0.067096,22.3428793 -0.2515723,1.466273 0.9738134,3.047274 2.8851164,3.1535 9.1689974,0.03135 18.3395607,0.05814 27.5092497,0.0671 1.803076,0.204593 3.760922,-0.794062 3.891552,-2.348351 0.03336,-6.451711 0.06602,-19.0535489 0.0671,-25.5059218 -4.870777,0 0.06141,-0.057557 -6.172812,-0.057557 -8.302105,-0.016854 -16.6572291,0.0079 -24.9596108,0 z M 27.060078,-6.5231177 c -18.040052,19.0154117 -9.020026,9.5077059 0,0 z"
       id="path3197"
       style="fill:#ffffff;fill-opacity:1;fill-rule:nonzero;stroke:none;stroke-width:3;marker:none;visibility:visible;display:inline;overflow:visible;enable-background:accumulate" />
    <path
       inkscape:connector-curvature="0"
       d="m -7.0267831,-3.2154805 c -0.015416,0.087682 -0.059804,0.1787452 -0.067096,0.2683829 -0.032522,7.7336126 -2.6e-5,15.4806946 0,23.2151236 0.0094,-7.834602 0.049953,-15.649097 0.067096,-23.4835065 z"
       id="path3223"
       style="opacity:0.7;fill:url(#linearGradient3797);fill-opacity:1;fill-rule:nonzero;stroke:none;stroke-width:3;marker:none;visibility:visible;display:inline;overflow:visible;enable-background:accumulate" />
    <path
       inkscape:connector-curvature="0"
       d="m 27.192039,21.274462 c -0.130627,1.912969 -2.088476,3.204004 -3.891552,2.952212 -9.169689,-0.01095 -18.340252,-0.02851 -27.5092494,-0.0671 -1.67239,-0.114395 -2.7930134,-1.570497 -2.8851164,-3.153499 -1.883e-4,1.207102 0.00145,2.416099 0,3.623169 -0.2520515,1.806509 0.9701742,3.760674 2.8851164,3.891553 9.1864588,0.03862 18.3891934,-0.01095 27.5763444,0 1.806509,0.252052 3.760674,-0.970172 3.891553,-2.885117 0,0 -0.0671,-4.361222 -0.0671,-4.361222 z"
       id="path3221"
       style="fill:#000000;fill-opacity:1;fill-rule:nonzero;stroke:none;stroke-width:3;marker:none;visibility:visible;display:inline;overflow:visible;enable-background:accumulate" />
    <path
       inkscape:connector-curvature="0"
       d="m -3.873284,-5.832214 c -1.606337,-0.027727 -3.023284,1.0463956 -3.153499,2.3483506 -0.03856,7.4562948 -0.05609,14.8860224 -0.0671,22.3428784 -0.251572,1.466273 0.973813,3.047274 2.885116,3.1535 9.168998,0.03135 18.339561,0.05814 27.50925,0.0671 1.803076,0.204593 3.760922,-0.794062 3.891552,-2.348351 0.03336,-6.451711 0.06602,-12.938295 0.0671,-19.39066679 L 16.456722,11.143006 c -0.805136,0.805136 -1.796143,1.094125 -2.818021,1.140628 -0.495224,0.405295 -0.985716,0.798242 -1.610297,1.006436 C 11.1814,13.572404 9.8704463,13.681752 8.8078088,12.619113 7.74517,11.556473 7.854517,10.245521 8.1368515,9.3985175 8.3450523,8.7739361 8.7379949,8.2834438 9.1432875,7.7882193 9.1897925,6.7663412 9.478779,5.7753332 10.283915,4.9701986 L 21.086327,-5.832214 c -8.302105,-0.016854 -16.657229,0.0079 -24.959611,0 z"
       id="path3219"
       style="fill:#000000;fill-opacity:1;fill-rule:nonzero;stroke:none;stroke-width:3;marker:none;visibility:visible;display:inline;overflow:visible;enable-background:accumulate" />
    <path
       inkscape:connector-curvature="0"
       d="M 11.878047,6.5124688 C 11.322235,7.0682832 11.177383,7.8447321 11.356165,8.5525545 L 11.118944,8.789775 c -0.841084,0.8410848 -1.1796435,1.856762 -0.7591,2.277305 0.420543,0.420543 1.43622,0.08197 2.277304,-0.759101 l 0.23722,-0.23722 c 0.707823,0.178786 1.484272,0.03392 2.040084,-0.5218827 l 15.182031,-15.182032 c 0.841084,-0.8410846 0.841084,-2.1953216 0,-3.0364062 -0.841084,-0.8410844 -2.195321,-0.8410844 -3.036405,0 L 11.878047,6.5124688 z"
       id="rect3226"
       style="fill:#000000;fill-opacity:1;fill-rule:nonzero;stroke:none;stroke-width:3;marker:none;visibility:visible;display:inline;overflow:visible;enable-background:accumulate" />
  </g>
</svg>
