<?xml version="1.0" encoding="UTF-8" standalone="no"?>
<!-- Created with Inkscape (http://www.inkscape.org/) -->

<svg
   xmlns:dc="http://purl.org/dc/elements/1.1/"
   xmlns:cc="http://creativecommons.org/ns#"
   xmlns:rdf="http://www.w3.org/1999/02/22-rdf-syntax-ns#"
   xmlns:svg="http://www.w3.org/2000/svg"
   xmlns="http://www.w3.org/2000/svg"
   version="1.2"
   width="48"
   height="48"
   id="svg249">
  <defs
     id="defs3">
    <linearGradient
       id="linearGradient3702">
      <stop
         id="stop3704"
         style="stop-color:#000000;stop-opacity:0"
         offset="0" />
      <stop
         id="stop3710"
         style="stop-color:#000000;stop-opacity:1"
         offset="0.5" />
      <stop
         id="stop3706"
         style="stop-color:#000000;stop-opacity:0"
         offset="1" />
    </linearGradient>
    <linearGradient
       id="linearGradient5345">
      <stop
         id="stop5347"
         style="stop-color:#efe8ef;stop-opacity:1"
         offset="0" />
      <stop
         id="stop1936"
         style="stop-color:#dabce7;stop-opacity:1"
         offset="0.42469135" />
      <stop
         id="stop7129"
         style="stop-color:#dabce7;stop-opacity:1"
         offset="0.9041152" />
      <stop
         id="stop5349"
         style="stop-color:#efe8ef;stop-opacity:1"
         offset="1" />
    </linearGradient>
    <linearGradient
       id="linearGradient2378">
      <stop
         id="stop2380"
         style="stop-color:#ffffff;stop-opacity:1"
         offset="0" />
      <stop
         id="stop4146"
         style="stop-color:#fefede;stop-opacity:0.91836733"
         offset="0.25" />
      <stop
         id="stop2386"
         style="stop-color:#f5f328;stop-opacity:1"
         offset="0.5" />
      <stop
         id="stop2382"
         style="stop-color:#f5f32d;stop-opacity:0.12234043"
         offset="1" />
    </linearGradient>
    <linearGradient
       id="linearGradient15662">
      <stop
         id="stop15664"
         style="stop-color:#ffffff;stop-opacity:1"
         offset="0" />
      <stop
         id="stop15666"
         style="stop-color:#f8f8f8;stop-opacity:1"
         offset="1" />
    </linearGradient>
    <linearGradient
       id="linearGradient269">
      <stop
         id="stop270"
         style="stop-color:#a3a3a3;stop-opacity:1"
         offset="0" />
      <stop
         id="stop271"
         style="stop-color:#8a8a8a;stop-opacity:1"
         offset="1" />
    </linearGradient>
    <linearGradient
       id="linearGradient259">
      <stop
         id="stop260"
         style="stop-color:#fafafa;stop-opacity:1"
         offset="0" />
      <stop
         id="stop261"
         style="stop-color:#bbbbbb;stop-opacity:1"
         offset="1" />
    </linearGradient>
    <filter
       x="0"
       y="0"
       width="1"
       height="1"
       color-interpolation-filters="sRGB"
       id="filter3770">
      <feColorMatrix
         id="feColorMatrix3772"
         type="saturate"
         values="1"
         result="fbSourceGraphic" />
      <feColorMatrix
         id="feColorMatrix3774"
         in="fbSourceGraphic"
         values="-1 0 0 0 1 0 -1 0 0 1 0 0 -1 0 1 0 0 0 1 0 " />
    </filter>
    <filter
       x="0"
       y="0"
       width="1"
       height="1"
       color-interpolation-filters="sRGB"
       id="filter3770-4">
      <feColorMatrix
         id="feColorMatrix3772-6"
         type="saturate"
         values="1"
         result="fbSourceGraphic" />
      <feColorMatrix
         id="feColorMatrix3774-8"
         in="fbSourceGraphic"
         values="-1 0 0 0 1 0 -1 0 0 1 0 0 -1 0 1 0 0 0 1 0 " />
    </filter>
    <filter
       x="0"
       y="0"
       width="1"
       height="1"
       color-interpolation-filters="sRGB"
       id="filter3770-4-3">
      <feColorMatrix
         id="feColorMatrix3772-6-3"
         type="saturate"
         values="1"
         result="fbSourceGraphic" />
      <feColorMatrix
         id="feColorMatrix3774-8-7"
         in="fbSourceGraphic"
         values="-1 0 0 0 1 0 -1 0 0 1 0 0 -1 0 1 0 0 0 1 0 " />
    </filter>
    <filter
       x="0"
       y="0"
       width="1"
       height="1"
       color-interpolation-filters="sRGB"
       id="filter3770-43">
      <feColorMatrix
         id="feColorMatrix3772-9"
         type="saturate"
         values="1"
         result="fbSourceGraphic" />
      <feColorMatrix
         id="feColorMatrix3774-81"
         in="fbSourceGraphic"
         values="-1 0 0 0 1 0 -1 0 0 1 0 0 -1 0 1 0 0 0 1 0 " />
    </filter>
    <filter
       x="0"
       y="0"
       width="1"
       height="1"
       color-interpolation-filters="sRGB"
       id="filter3824">
      <feColorMatrix
         result="fbSourceGraphic"
         values="1"
         type="saturate"
         id="feColorMatrix3826" />
      <feColorMatrix
         result="fbSourceGraphic"
         values="-1 0 0 0 1 0 -1 0 0 1 0 0 -1 0 1 0 0 0 1 0 "
         in="fbSourceGraphic"
         id="feColorMatrix3828" />
      <feColorMatrix
         id="feColorMatrix3830"
         values="0 0 0 -1 0 0 0 0 -1 0 0 0 0 -1 0 0 0 0 1 0"
         in="fbSourceGraphic"
         result="fbSourceGraphicAlpha" />
      <feColorMatrix
         in="fbSourceGraphic"
         result="fbSourceGraphic"
         values="1"
         type="saturate"
         id="feColorMatrix3832" />
      <feColorMatrix
         result="fbSourceGraphic"
         values="-1 0 0 0 1 0 -1 0 0 1 0 0 -1 0 1 0 0 0 1 0 "
         in="fbSourceGraphic"
         id="feColorMatrix3834" />
      <feColorMatrix
         id="feColorMatrix3836"
         values="0 0 0 -1 0 0 0 0 -1 0 0 0 0 -1 0 0 0 0 1 0"
         in="fbSourceGraphic"
         result="fbSourceGraphicAlpha" />
      <feColorMatrix
         in="fbSourceGraphic"
         result="fbSourceGraphic"
         values="1"
         type="saturate"
         id="feColorMatrix3838" />
      <feColorMatrix
         values="-1 0 0 0 1 0 -1 0 0 1 0 0 -1 0 1 0 0 0 1 0 "
         in="fbSourceGraphic"
         id="feColorMatrix3840" />
    </filter>
  </defs>
  <metadata
     id="metadata4">
    <rdf:RDF>
      <cc:Work
         rdf:about="">
        <dc:format>image/svg+xml</dc:format>
        <dc:type
           rdf:resource="http://purl.org/dc/dcmitype/StillImage" />
        <dc:title></dc:title>
        <dc:subject>
          <rdf:Bag>
            <rdf:li>text</rdf:li>
            <rdf:li>plaintext</rdf:li>
            <rdf:li>regular</rdf:li>
            <rdf:li>document</rdf:li>
          </rdf:Bag>
        </dc:subject>
        <cc:license
           rdf:resource="http://creativecommons.org/licenses/GPL/2.0/" />
        <dc:creator>
          <cc:Agent>
            <dc:title>Andreas Nilsson</dc:title>
          </cc:Agent>
        </dc:creator>
        <dc:source>http://www.gnome.org</dc:source>
        <dc:contributor>
          <cc:Agent>
            <dc:title>Luca Ferretti
Jakub Steiner
Lapo Calamandrei</dc:title>
          </cc:Agent>
        </dc:contributor>
        <dc:date>December 2006</dc:date>
      </cc:Work>
      <cc:License
         rdf:about="http://creativecommons.org/licenses/GPL/2.0/">
        <cc:permits
           rdf:resource="http://web.resource.org/cc/Reproduction" />
        <cc:permits
           rdf:resource="http://web.resource.org/cc/Distribution" />
        <cc:requires
           rdf:resource="http://web.resource.org/cc/Notice" />
        <cc:permits
           rdf:resource="http://web.resource.org/cc/DerivativeWorks" />
        <cc:requires
           rdf:resource="http://web.resource.org/cc/ShareAlike" />
        <cc:requires
           rdf:resource="http://web.resource.org/cc/SourceCode" />
      </cc:License>
    </rdf:RDF>
  </metadata>
  <g
     id="layer5"
     style="display:inline">
    <g
       transform="matrix(1.0467962,0,0,1.0142631,-2.1666781,-0.34231379)"
       id="g3806"
       style="fill:none;stroke:#ffffff;stroke-width:7.76396561;stroke-miterlimit:4;stroke-opacity:1;stroke-dasharray:none">
      <path
         d="m 11.96875,4.28125 c -2.5583434,0 -4.6875,2.1290852 -4.6875,4.6875 l 0,30.0625 c 0,2.558415 2.1291567,4.6875 4.6875,4.6875 l 26.0625,0 c 2.558343,0 4.6875,-2.129084 4.6875,-4.6875 l 0,-30.0625 c 0,-2.5584148 -2.129156,-4.6875 -4.6875,-4.6875 l -26.0625,0 z m 0,3.4375 26.0625,0 c 0.721455,0 1.25,0.5298031 1.25,1.25 l 0,30.0625 c 0,0.7202 -0.528548,1.25 -1.25,1.25 l -26.0625,0 c -0.721452,0 -1.25,-0.529803 -1.25,-1.25 l 0,-30.0625 c 0,-0.7201969 0.528548,-1.25 1.25,-1.25 z"
         id="path3808"
         style="fill:none;stroke:#ffffff;stroke-width:7.76396561;stroke-miterlimit:4;stroke-opacity:1;stroke-dasharray:none" />
      <path
         d="m 13.851461,7 0,25 6.591781,-8 6.408219,8 0,-25"
         id="path3810"
         style="fill:none;stroke:#ffffff;stroke-width:7.76396561;stroke-miterlimit:4;stroke-opacity:1;stroke-dasharray:none" />
    </g>
    <rect
       width="32.853306"
       height="35.499207"
       rx="1.6536278"
       ry="1.6386853"
       x="7.6874976"
       y="6.1401501"
       id="rect3050"
       style="fill:#ffffff;fill-opacity:1;stroke:none" />
    <g
       transform="matrix(1.0467962,0,0,1.0142631,-2.1666781,-0.34231379)"
       id="layer1"
       style="fill:#000000;fill-opacity:1;stroke:#000000;stroke-opacity:1">
      <path
         d="m 11.96875,4.28125 c -2.5583434,0 -4.6875,2.1290852 -4.6875,4.6875 l 0,30.0625 c 0,2.558415 2.1291567,4.6875 4.6875,4.6875 l 26.0625,0 c 2.558343,0 4.6875,-2.129084 4.6875,-4.6875 l 0,-30.0625 c 0,-2.5584148 -2.129156,-4.6875 -4.6875,-4.6875 l -26.0625,0 z m 0,3.4375 26.0625,0 c 0.721455,0 1.25,0.5298031 1.25,1.25 l 0,30.0625 c 0,0.7202 -0.528548,1.25 -1.25,1.25 l -26.0625,0 c -0.721452,0 -1.25,-0.529803 -1.25,-1.25 l 0,-30.0625 c 0,-0.7201969 0.528548,-1.25 1.25,-1.25 z"
         id="rect1880"
         style="fill:#000000;fill-opacity:1;fill-rule:evenodd;stroke:none" />
      <path
         d="m 13.851461,7 0,25 6.591781,-8 6.408219,8 0,-25"
         id="path3655"
         style="fill:#000000;fill-opacity:1;fill-rule:evenodd;stroke:none" />
    </g>
    <flowRoot
       id="flowRoot3130"
       xml:space="preserve"
       style="font-size:4px;font-style:normal;font-weight:normal;line-height:125%;letter-spacing:0px;word-spacing:0px;fill:#000000;fill-opacity:1;stroke:none;font-family:Sans"><flowRegion
         id="flowRegion3132"><rect
           width="10.253048"
           height="9.7227182"
           x="27.930717"
           y="19.185398"
           id="rect3134" /></flowRegion><flowPara
         id="flowPara3136"></flowPara></flowRoot>    <path
       d="m 43.32887,31.174891 a 10.828973,11.157575 0 0 1 -21.657945,0 10.828973,11.157575 0 1 1 21.657945,0 z"
       id="path3163"
       style="fill:#ffffff;fill-opacity:1;fill-rule:nonzero;stroke:#ffffff;stroke-width:10;stroke-linecap:round;stroke-linejoin:round;stroke-miterlimit:4;stroke-opacity:1;stroke-dasharray:none" />
    <path
       d="m 43.32887,31.174891 a 10.828973,11.157575 0 0 1 -21.657945,0 10.828973,11.157575 0 1 1 21.657945,0 z"
       id="path2988-8"
       style="fill:#ffffff;fill-opacity:1;fill-rule:nonzero;stroke:#000000;stroke-width:3.34184957;stroke-miterlimit:4;stroke-opacity:1;stroke-dasharray:none" />
    <g
       transform="translate(-38.797888,14.648779)"
       id="flowRoot3789"
       style="font-size:4px;font-style:normal;font-weight:normal;line-height:125%;letter-spacing:0px;word-spacing:0px;fill:#000000;fill-opacity:1;fill-rule:nonzero;stroke:none;font-family:Sans" />
    <g
       transform="matrix(0.80473746,0,0,0.79166035,13.211712,12.242154)"
       id="text3797"
       style="font-size:3.25557971px;font-style:normal;font-weight:normal;line-height:125%;letter-spacing:0px;word-spacing:0px;fill:#000000;fill-opacity:1;fill-rule:nonzero;stroke:none;font-family:Sans">
      <path
         d="m 24.063811,20.393221 c -0.42974,10e-6 -0.835602,0.05373 -1.217587,0.161151 -0.38199,0.107444 -0.805758,0.280533 -1.271304,0.519265 l -0.752039,-2.023343 c 0.465547,-0.298416 1.014654,-0.525221 1.647323,-0.680416 0.632665,-0.167107 1.253395,-0.250667 1.862192,-0.250679 0.763971,1.2e-5 1.39067,0.101478 1.880097,0.304396 0.501353,0.202944 0.895278,0.459592 1.181775,0.769945 0.286484,0.310377 0.483447,0.650584 0.590888,1.020624 0.119364,0.370061 0.179049,0.722206 0.179057,1.056436 -8e-6,0.334248 -0.05373,0.644613 -0.161151,0.931095 -0.0955,0.274563 -0.220844,0.531211 -0.37602,0.769945 -0.155189,0.23875 -0.334246,0.465555 -0.53717,0.680416 -0.202938,0.214875 -0.3999,0.417806 -0.590888,0.608793 -0.143251,0.143252 -0.292465,0.298435 -0.447642,0.465548 -0.155188,0.155189 -0.298434,0.322308 -0.429737,0.50136 -0.119376,0.179062 -0.220841,0.370056 -0.304396,0.572982 -0.08356,0.190998 -0.125345,0.387961 -0.12534,0.590887 -5e-6,0.04775 -5e-6,0.119376 0,0.214869 -5e-6,0.0955 0.006,0.17906 0.01791,0.250679 l -2.363551,0 c -0.02388,-0.119367 -0.04178,-0.250675 -0.05372,-0.393925 -3e-6,-0.155178 -3e-6,-0.286486 0,-0.393925 -3e-6,-0.334235 0.04178,-0.632662 0.12534,-0.895284 0.08356,-0.274548 0.190991,-0.525228 0.322302,-0.752039 0.143243,-0.238736 0.304394,-0.459573 0.483454,-0.662511 0.179053,-0.202924 0.364078,-0.399886 0.555076,-0.590887 0.27455,-0.274546 0.525229,-0.543131 0.752039,-0.805756 0.2268,-0.274546 0.340203,-0.58491 0.340208,-0.931096 -5e-6,-0.286481 -0.113408,-0.531192 -0.340208,-0.734133 -0.214873,-0.202921 -0.537175,-0.304387 -0.966907,-0.304397 m 1.665229,9.006561 c -6e-6,0.525234 -0.173094,0.931096 -0.519265,1.217586 -0.334244,0.286491 -0.716232,0.429737 -1.145964,0.429737 -0.42974,0 -0.817696,-0.143246 -1.16387,-0.429737 -0.334242,-0.28649 -0.501361,-0.692352 -0.501359,-1.217586 -2e-6,-0.525232 0.167117,-0.931094 0.501359,-1.217587 0.346174,-0.286488 0.73413,-0.429733 1.16387,-0.429736 0.429732,3e-6 0.81172,0.143248 1.145964,0.429736 0.346171,0.286493 0.519259,0.692355 0.519265,1.217587"
         id="path2997"
         style="font-size:17.90568733px;font-variant:normal;font-weight:bold;font-stretch:normal;font-family:Ubuntu;-inkscape-font-specification:Ubuntu Bold" />
    </g>
  </g>
</svg>
