<?xml version="1.0" encoding="UTF-8" standalone="no"?>
<!-- Created with Inkscape (http://www.inkscape.org/) -->

<svg
   xmlns:dc="http://purl.org/dc/elements/1.1/"
   xmlns:cc="http://creativecommons.org/ns#"
   xmlns:rdf="http://www.w3.org/1999/02/22-rdf-syntax-ns#"
   xmlns:svg="http://www.w3.org/2000/svg"
   xmlns="http://www.w3.org/2000/svg"
   version="1.0"
   width="48"
   height="48"
   viewBox="0 0 42.5 48"
   id="svg456">
  <defs
     id="defs21" />
  <metadata
     id="metadata6993">
    <rdf:RDF>
      <cc:Work
         rdf:about="">
        <dc:format>image/svg+xml</dc:format>
        <dc:type
           rdf:resource="http://purl.org/dc/dcmitype/StillImage" />
        <cc:license
           rdf:resource="http://creativecommons.org/licenses/LGPL/2.1/" />
        <dc:title></dc:title>
        <dc:subject>
          <rdf:Bag>
            <rdf:li>start</rdf:li>
            <rdf:li>applications</rdf:li>
            <rdf:li>launchers</rdf:li>
          </rdf:Bag>
        </dc:subject>
        <dc:description>The GNOME logo</dc:description>
      </cc:Work>
      <cc:License
         rdf:about="http://creativecommons.org/licenses/LGPL/2.1/">
        <cc:permits
           rdf:resource="http://web.resource.org/cc/Reproduction" />
        <cc:permits
           rdf:resource="http://web.resource.org/cc/Distribution" />
        <cc:requires
           rdf:resource="http://web.resource.org/cc/Notice" />
        <cc:permits
           rdf:resource="http://web.resource.org/cc/DerivativeWorks" />
        <cc:requires
           rdf:resource="http://web.resource.org/cc/ShareAlike" />
        <cc:requires
           rdf:resource="http://web.resource.org/cc/SourceCode" />
      </cc:License>
    </rdf:RDF>
  </metadata>
  <rect
     width="48"
     height="48"
     ry="0"
     x="-2.75"
     y="0"
     id="rect2184"
     style="fill:none" />
  <g
     transform="translate(-3.1599,-0.90283)"
     id="g505"
     style="opacity:0.5;fill:#ffffff;stroke:#ffffff">
    <path
       d="m 28.2,17.8 c -3,0 -3.6,4.3 -1.9,4.3 1.7,0 4.9,-4.3 1.9,-4.3 z"
       id="path506"
       style="stroke:#ffffff" />
    <path
       d="m 23.1,21.5 c 0.9,0.1 1.9,-3.5 0.2,-3.2 -1.7,0.2 -1.1,3.2 -0.2,3.2 z"
       id="path507"
       style="stroke:#ffffff" />
    <path
       d="m 19,23.7 c 0.6,-0.3 0.1,-3.1 -1,-2.3 -1.1,0.8 0.4,2.6 1,2.3 z"
       id="path508"
       style="stroke:#ffffff" />
    <path
       d="m 20.8,22.3 c 0.8,-0.2 0.8,-3.3 -0.6,-2.7 -1.4,0.6 -0.2,2.9 0.6,2.7 z"
       id="path509"
       style="stroke:#ffffff" />
    <path
       d="m 24.8,29.3 c 0.1,1 -0.8,1.6 -1.6,0.9 -2.8,-2.1 4.7,-3.2 4.2,-6.1 -0.4,-2.4 -7.9,-1.7 -8.7,2.1 -0.7,2.6 2.3,6.1 5.3,6.1 1.5,0 3.2,-1.4 3.6,-3.1 0.2,-1.3 -2.9,-0.8 -2.8,0.1 z"
       id="newshape"
       style="stroke:#ffffff" />
  </g>
  <path
     d="M 22.122,15.954 C 27.221,16.503 30.88,2.8 22.252,3.03 14.494,3.2363 17.975,15.954 22.122,15.954 z"
     id="path513"
     style="stroke:#ffffff;stroke-width:4.05980015" />
  <path
     d="M 9.24,21.189 C 13.997,18.294 7.0164,8.12 2.6092,11.77 -3.9882,17.233 6.6055,24.398 9.24,21.189 z"
     id="path514"
     style="stroke:#ffffff;stroke-width:4.02899981" />
  <path
     d="m 15.467,16.574 c 3.78,-1.985 1.241,-13.895 -5.083,-11.154 -5.8137,2.5186 0,13.634 5.083,11.154 z"
     id="path515"
     style="stroke:#ffffff;stroke-width:4.02449989" />
  <path
     d="M 26.304,34.6 C 25.65,37.634 25.113,38.605 22.742,36.523 14.44,30.28 36.2,34.036 34.36,21.483 30.435,11.727 9.628,15.714 8.566,27.727 c -1.7786,7.731 7.116,18.137 16.01,18.137 4.447,0 10.733,-5.715 10.674,-9.217 -0.068,-3.988 -2.306,-6.271 -5.801,-5.42 -2.656,0.647 -2.77,1.635 -3.145,3.373 z"
     id="path516"
     style="stroke:#ffffff;stroke-width:4;stroke-linecap:round;stroke-linejoin:bevel" />
  <path
     d="M 10.48,21.845 C 15.25,19 8.25,9 3.8305,12.587 -2.7854,17.957 7.8379,25 10.48,21.845 z"
     id="path8016"
     style="fill:none" />
  <path
     d="M 35.715,3 C 27.873,3 24.701,15.434 30.656,16.82 39.484,18.876 45.737,4.979 35.715,3 z"
     id="path512"
     style="stroke:#ffffff;stroke-width:3.9776001;stroke-linecap:round;stroke-linejoin:round" />
</svg>
