<?xml version="1.0" encoding="UTF-8" standalone="no"?>
<!-- Generator: Adobe Illustrator 9.0, SVG Export Plug-In  -->

<svg
   xmlns:dc="http://purl.org/dc/elements/1.1/"
   xmlns:cc="http://creativecommons.org/ns#"
   xmlns:rdf="http://www.w3.org/1999/02/22-rdf-syntax-ns#"
   xmlns:svg="http://www.w3.org/2000/svg"
   xmlns="http://www.w3.org/2000/svg"
   xmlns:sodipodi="http://sodipodi.sourceforge.net/DTD/sodipodi-0.dtd"
   xmlns:inkscape="http://www.inkscape.org/namespaces/inkscape"
   width="48"
   height="48"
   viewBox="0 0 48 48"
   xml:space="preserve"
   id="svg2"
   sodipodi:version="0.32"
   inkscape:version="0.48.3.1 r9886"
   sodipodi:docname="xfpm-ac-adapter.svg"
   inkscape:output_extension="org.inkscape.output.svg.inkscape"
   version="1.0"><metadata
   id="metadata33"><rdf:RDF><cc:Work
       rdf:about=""><dc:format>image/svg+xml</dc:format><dc:type
         rdf:resource="http://purl.org/dc/dcmitype/StillImage" /><dc:title /></cc:Work></rdf:RDF></metadata><defs
   id="defs31" /><sodipodi:namedview
   inkscape:window-height="717"
   inkscape:window-width="1366"
   inkscape:pageshadow="2"
   inkscape:pageopacity="0.0"
   guidetolerance="10.0"
   gridtolerance="10.0"
   objecttolerance="10.0"
   borderopacity="1.0"
   bordercolor="#666666"
   pagecolor="#ffffff"
   id="base"
   showgrid="true"
   inkscape:zoom="6.7833334"
   inkscape:cx="17.590736"
   inkscape:cy="13.524791"
   inkscape:window-x="0"
   inkscape:window-y="0"
   inkscape:current-layer="svg2"
   width="48px"
   height="48px"
   inkscape:window-maximized="1" />
	<g
   id="Layer_x0020_3"
   style="fill:#000000;fill-opacity:1;fill-rule:nonzero;stroke:#000000;stroke-width:0.703183;stroke-miterlimit:4"
   transform="matrix(1.2766099,0,0,0.89075671,0.86679056,2.4047331)">
		
	</g>
	
<g
   id="g3778"
   style="stroke:#ffffff;stroke-width:12;stroke-linecap:round;stroke-linejoin:round;stroke-miterlimit:4;stroke-opacity:1;stroke-dasharray:none"
   transform="matrix(0.98723423,0,0,0.98825301,0.3250103,0.28193)"><g
     style="fill:#000000;fill-opacity:1;fill-rule:nonzero;stroke:#ffffff;stroke-width:12.6211462;stroke-linecap:round;stroke-linejoin:round;stroke-miterlimit:4;stroke-opacity:1;stroke-dasharray:none"
     id="g3780"
     transform="matrix(1.1382352,0,0,0.79420552,3.3959982,4.7237484)">
			<g
   id="g3782"
   style="fill:#000000;fill-opacity:1;stroke:#ffffff;stroke-width:12.6211462;stroke-linecap:round;stroke-linejoin:round;stroke-miterlimit:4;stroke-opacity:1;stroke-dasharray:none">
				<g
   id="g3784"
   style="fill:#000000;fill-opacity:1;stroke:#ffffff;stroke-width:12.6211462;stroke-linecap:round;stroke-linejoin:round;stroke-miterlimit:4;stroke-opacity:1;stroke-dasharray:none">
					
					<path
   d="m 22.8,11.4 c 0,0 0,0 -5.3,0 -5.3,0 -6.3,10.6 -6.3,10.6 L 2.0012418,22 2.8177934,26 11.1,26 c 0,0 1,10.6 6.3,10.6 5.3,0 5.3,0 5.3,0 l 0,-25.2 z"
   id="path3786"
   style="fill:#000000;fill-opacity:1;stroke:#ffffff;stroke-width:12.6211462;stroke-linecap:round;stroke-linejoin:round;stroke-miterlimit:4;stroke-opacity:1;stroke-dasharray:none"
   inkscape:connector-curvature="0"
   sodipodi:nodetypes="csccccsccc" />
				</g>
				<g
   style="fill:#000000;fill-opacity:1;stroke:#ffffff;stroke-width:12.6211462;stroke-linecap:round;stroke-linejoin:round;stroke-miterlimit:4;stroke-opacity:1;stroke-dasharray:none"
   id="g3788">
					
					
				</g>
			</g>
			<g
   id="g3790"
   style="fill:#000000;fill-opacity:1;stroke:#ffffff;stroke-width:12.6211462;stroke-linecap:round;stroke-linejoin:round;stroke-miterlimit:4;stroke-opacity:1;stroke-dasharray:none">
				
				
			</g>
		</g><rect
     style="color:#000000;fill:#000000;fill-opacity:1;fill-rule:nonzero;stroke:#ffffff;stroke-width:12;stroke-linecap:round;stroke-linejoin:round;stroke-miterlimit:4;stroke-opacity:1;stroke-dasharray:none;marker:none;visibility:visible;display:inline;overflow:visible;enable-background:accumulate"
     id="rect3792"
     width="14.211406"
     height="2.667357"
     x="22.065928"
     y="16.851093"
     ry="1.3336785" /><rect
     style="color:#000000;fill:#000000;fill-opacity:1;fill-rule:nonzero;stroke:#ffffff;stroke-width:12;stroke-linecap:round;stroke-linejoin:round;stroke-miterlimit:4;stroke-opacity:1;stroke-dasharray:none;marker:none;visibility:visible;display:inline;overflow:visible;enable-background:accumulate"
     id="rect3794"
     width="14.211406"
     height="2.667357"
     x="22.063005"
     y="28.053743"
     ry="1.3336785" /><path
     sodipodi:type="arc"
     style="fill:none;stroke:#ffffff;stroke-width:14.02173996;stroke-linecap:round;stroke-linejoin:round;stroke-miterlimit:4;stroke-opacity:1;stroke-dasharray:none"
     id="path3796"
     sodipodi:cx="22.828951"
     sodipodi:cy="26.838917"
     sodipodi:rx="21.369566"
     sodipodi:ry="21.369566"
     d="m 44.198517,26.838917 c 0,11.802085 -9.567481,21.369566 -21.369566,21.369566 -11.802086,0 -21.3695661,-9.567481 -21.3695661,-21.369566 0,-11.802086 9.5674801,-21.3695662 21.3695661,-21.3695662 11.802085,0 21.369566,9.5674802 21.369566,21.3695662 z"
     transform="matrix(0.85581393,0,0,0.85581393,4.4626659,1.0308811)" /></g><path
   sodipodi:type="arc"
   style="fill:#ffffff;fill-opacity:1;stroke:none"
   id="path3008"
   sodipodi:cx="22.702702"
   sodipodi:cy="22.791155"
   sodipodi:rx="15.184275"
   sodipodi:ry="15.184275"
   d="m 37.886976,22.791155 a 15.184275,15.184275 0 1 1 -30.3685491,0 15.184275,15.184275 0 1 1 30.3685491,0 z"
   transform="matrix(1.1549682,0,0,1.15616,-2.100391,-2.0151377)" /><g
   id="g2997"
   transform="matrix(0.98723423,0,0,0.98825301,0.3250103,0.28193)"><g
     transform="matrix(1.1382352,0,0,0.79420552,3.3959982,4.7237484)"
     id="g5"
     style="fill:#000000;fill-opacity:1;fill-rule:nonzero;stroke:none">
			<g
   style="fill:#000000;fill-opacity:1"
   id="g7">
				<g
   style="fill:#000000;fill-opacity:1"
   id="g9">
					
					<path
   sodipodi:nodetypes="csccccsccc"
   inkscape:connector-curvature="0"
   style="fill:#000000;fill-opacity:1"
   id="path13"
   d="m 22.8,11.4 c 0,0 0,0 -5.3,0 -5.3,0 -6.3,10.6 -6.3,10.6 L 2.0012418,22 2.8177934,26 11.1,26 c 0,0 1,10.6 6.3,10.6 5.3,0 5.3,0 5.3,0 l 0,-25.2 z" />
				</g>
				<g
   id="g15"
   style="fill:#000000;fill-opacity:1;stroke:#ffffff;stroke-width:4.57539988;stroke-linejoin:round">
					
					
				</g>
			</g>
			<g
   style="fill:#000000;fill-opacity:1"
   id="g21">
				
				
			</g>
		</g><rect
     ry="1.3336785"
     y="16.851093"
     x="22.065928"
     height="2.667357"
     width="14.211406"
     id="rect2168"
     style="color:#000000;fill:#000000;fill-opacity:1;fill-rule:nonzero;stroke:none;stroke-width:4;marker:none;visibility:visible;display:inline;overflow:visible;enable-background:accumulate" /><rect
     ry="1.3336785"
     y="28.053743"
     x="22.063005"
     height="2.667357"
     width="14.211406"
     id="rect3141"
     style="color:#000000;fill:#000000;fill-opacity:1;fill-rule:nonzero;stroke:none;stroke-width:4;marker:none;visibility:visible;display:inline;overflow:visible;enable-background:accumulate" /><path
     transform="matrix(0.85581393,0,0,0.85581393,4.4626659,1.0308811)"
     d="m 44.198517,26.838917 c 0,11.802085 -9.567481,21.369566 -21.369566,21.369566 -11.802086,0 -21.3695661,-9.567481 -21.3695661,-21.369566 0,-11.802086 9.5674801,-21.3695662 21.3695661,-21.3695662 11.802085,0 21.369566,9.5674802 21.369566,21.3695662 z"
     sodipodi:ry="21.369566"
     sodipodi:rx="21.369566"
     sodipodi:cy="26.838917"
     sodipodi:cx="22.828951"
     id="path2990"
     style="fill:none;stroke:#000000;stroke-width:4;stroke-miterlimit:4;stroke-opacity:1;stroke-dasharray:none"
     sodipodi:type="arc" /></g></svg>