<?xml version="1.0" encoding="UTF-8" standalone="no"?>
<!-- Created with Inkscape (http://www.inkscape.org/) -->

<svg
   xmlns:dc="http://purl.org/dc/elements/1.1/"
   xmlns:cc="http://creativecommons.org/ns#"
   xmlns:rdf="http://www.w3.org/1999/02/22-rdf-syntax-ns#"
   xmlns:svg="http://www.w3.org/2000/svg"
   xmlns="http://www.w3.org/2000/svg"
   xmlns:xlink="http://www.w3.org/1999/xlink"
   xmlns:sodipodi="http://sodipodi.sourceforge.net/DTD/sodipodi-0.dtd"
   xmlns:inkscape="http://www.inkscape.org/namespaces/inkscape"
   width="48px"
   height="48px"
   id="svg1325"
   sodipodi:version="0.32"
   inkscape:version="0.91 r13725"
   sodipodi:docname="xfce4-taskbar.svg"
   inkscape:output_extension="org.inkscape.output.svg.inkscape"
   version="1.1">
  <sodipodi:namedview
     inkscape:window-height="1029"
     inkscape:window-width="1920"
     inkscape:pageshadow="2"
     inkscape:pageopacity="0.0"
     guidetolerance="10000"
     gridtolerance="10000"
     objecttolerance="10000"
     borderopacity="1.0"
     bordercolor="#666666"
     pagecolor="#ffffff"
     id="base"
     inkscape:showpageshadow="false"
     showgrid="true"
     inkscape:zoom="8.0000001"
     inkscape:cx="32.71737"
     inkscape:cy="5.2068647"
     inkscape:window-x="0"
     inkscape:window-y="0"
     inkscape:current-layer="layer1"
     inkscape:grid-points="false"
     inkscape:grid-bbox="true"
     showborder="true"
     inkscape:window-maximized="1" />
  <defs
     id="defs1327">
    <linearGradient
       id="linearGradient2783">
      <stop
         style="stop-color:#729fcf;stop-opacity:1"
         offset="0"
         id="stop2785" />
      <stop
         style="stop-color:#3465a4;stop-opacity:1;"
         offset="1"
         id="stop2787" />
    </linearGradient>
    <linearGradient
       inkscape:collect="always"
       id="linearGradient2270">
      <stop
         style="stop-color:#ffffff;stop-opacity:1;"
         offset="0"
         id="stop2272" />
      <stop
         style="stop-color:#ffffff;stop-opacity:0;"
         offset="1"
         id="stop2274" />
    </linearGradient>
    <linearGradient
       inkscape:collect="always"
       xlink:href="#linearGradient2270"
       id="linearGradient1341"
       gradientUnits="userSpaceOnUse"
       x1="23.99696"
       y1="18.375"
       x2="45.753761"
       y2="18.375"
       gradientTransform="translate(0,-8)" />
    <radialGradient
       inkscape:collect="always"
       xlink:href="#linearGradient2270"
       id="radialGradient2218"
       cx="3.6239223"
       cy="2.0049825"
       fx="3.6239223"
       fy="2.0049825"
       r="23"
       gradientTransform="matrix(1.246687e-8,1.125998,-1.627297,3.116107e-17,6.886624,6.5312)"
       gradientUnits="userSpaceOnUse" />
  </defs>
  <sodipodi:namedview
     id="namedview22"
     pagecolor="#ffffff"
     bordercolor="#666666"
     borderopacity="1.0"
     inkscape:pageopacity="0"
     inkscape:pageshadow="2"
     inkscape:zoom="1"
     inkscape:cx="29.202731"
     inkscape:cy="14.650528"
     inkscape:current-layer="layer1"
     showgrid="false"
     inkscape:grid-bbox="true"
     inkscape:document-units="px"
     stroke="#eeeeec"
     fill="#2e3436"
     inkscape:window-width="1270"
     inkscape:window-height="943"
     inkscape:window-x="0"
     inkscape:window-y="25"
     showborder="false"
     inkscape:grid-points="true"
     showguides="false"
     inkscape:guide-bbox="true"
     inkscape:showpageshadow="false">
    <sodipodi:guide
       orientation="vertical"
       position="31.875"
       id="guide2260" />
    <inkscape:grid
       id="GridFromPre046Settings"
       type="xygrid"
       originx="0px"
       originy="0px"
       spacingx="0.5px"
       spacingy="0.5px"
       color="#3f3fff"
       empcolor="#3f3fff"
       opacity="0.15"
       empopacity="0.38"
       empspacing="2" />
  </sodipodi:namedview>
  <metadata
     id="metadata1330">
    <rdf:RDF>
      <cc:Work
         rdf:about="">
        <dc:format>image/svg+xml</dc:format>
        <dc:type
           rdf:resource="http://purl.org/dc/dcmitype/StillImage" />
        <dc:title></dc:title>
        <dc:creator>
          <cc:Agent>
            <dc:title>Lapo Calamandrei</dc:title>
          </cc:Agent>
        </dc:creator>
        <dc:subject>
          <rdf:Bag>
            <rdf:li>panel</rdf:li>
            <rdf:li>applet</rdf:li>
            <rdf:li>info</rdf:li>
          </rdf:Bag>
        </dc:subject>
        <dc:contributor>
          <cc:Agent>
            <dc:title>Andreas Nilsson</dc:title>
          </cc:Agent>
        </dc:contributor>
        <cc:license
           rdf:resource="http://creativecommons.org/licenses/GPL/2.0/" />
      </cc:Work>
      <cc:License
         rdf:about="http://creativecommons.org/licenses/GPL/2.0/">
        <cc:permits
           rdf:resource="http://web.resource.org/cc/Reproduction" />
        <cc:permits
           rdf:resource="http://web.resource.org/cc/Distribution" />
        <cc:requires
           rdf:resource="http://web.resource.org/cc/Notice" />
        <cc:permits
           rdf:resource="http://web.resource.org/cc/DerivativeWorks" />
        <cc:requires
           rdf:resource="http://web.resource.org/cc/ShareAlike" />
        <cc:requires
           rdf:resource="http://web.resource.org/cc/SourceCode" />
      </cc:License>
    </rdf:RDF>
  </metadata>
  <g
     id="layer1"
     inkscape:label="Layer 1"
     inkscape:groupmode="layer">
    <g
       id="g4218"
       style="stroke:#ffffff;stroke-opacity:1;stroke-width:9;stroke-miterlimit:4;stroke-dasharray:none">
      <g
         id="g4212"
         style="stroke-width:9;stroke-miterlimit:4;stroke-dasharray:none;stroke:#ffffff;stroke-opacity:1">
        <path
           inkscape:connector-curvature="0"
           id="path4214"
           d="M 6.6477432,8.863648 C 5.7107337,8.951959 4.9959586,9.740676 5.0000168,10.681829 l 0,26.363628 c 1.004e-4,1.004112 0.8140691,1.818081 1.8181814,1.818181 l 46.3636188,0 c 1.004113,-1e-4 1.818082,-0.814069 1.818182,-1.818181 l 0,-26.363628 c -1e-4,-1.004112 -0.814069,-1.8180806 -1.818182,-1.818181 l -46.3636188,0 c -0.05679,-0.00266 -0.113668,-0.00266 -0.170455,0 l 0,0 z m 1.988636,3.636362 42.7272568,0 0,22.727265 -42.7272568,0 0,-22.727265 z"
           style="fill:#000000;fill-opacity:1;stroke:#ffffff;stroke-width:9;stroke-miterlimit:4;stroke-dasharray:none;stroke-opacity:1" />
      </g>
      <path
         inkscape:connector-curvature="0"
         id="path4216"
         d="m 19.941078,17.829833 c -1.305121,0 -2.316078,1.121108 -2.316078,2.394859 l 0,20.755448 c 0,1.273751 1.010957,2.39486 2.316078,2.39486 l 20.961332,0 c 1.30512,0 2.316076,-1.121109 2.316076,-2.39486 l 0,-20.755448 c 0,-1.273751 -1.010956,-2.394859 -2.316076,-2.394859 l -20.961332,0 z m 0,2.128763 20.961332,0 c 0.08047,0 0.183286,0.06025 0.183286,0.266096 l 0,20.755448 c 0,0.205853 -0.102818,0.266096 -0.183286,0.266096 l -20.961332,0 c -0.08047,0 -0.183287,-0.06025 -0.183287,-0.266096 l 0,-20.755448 c 0,-0.20585 0.102818,-0.266096 0.183287,-0.266096 z"
         style="color:#000000;display:inline;overflow:visible;visibility:visible;fill:#000000;fill-opacity:1;fill-rule:evenodd;stroke:#ffffff;stroke-width:9;stroke-miterlimit:4;stroke-dasharray:none;stroke-opacity:1;marker:none;enable-background:accumulate" />
    </g>
    <g
       id="g4188">
      <path
         inkscape:connector-curvature="0"
         id="path4173"
         d="M 6.6477432,8.863648 C 5.7107337,8.951959 4.9959586,9.740676 5.0000168,10.681829 l 0,26.363628 c 1.004e-4,1.004112 0.8140691,1.818081 1.8181814,1.818181 l 46.3636188,0 c 1.004113,-1e-4 1.818082,-0.814069 1.818182,-1.818181 l 0,-26.363628 c -1e-4,-1.004112 -0.814069,-1.8180806 -1.818182,-1.818181 l -46.3636188,0 c -0.05679,-0.00266 -0.113668,-0.00266 -0.170455,0 l 0,0 z m 1.988636,3.636362 42.7272568,0 0,22.727265 -42.7272568,0 0,-22.727265 z"
         style="stroke-width:9;stroke-miterlimit:4;stroke-dasharray:none;stroke:#ffffff;stroke-opacity:1;fill:#000000;fill-opacity:1;stroke-linejoin:round;stroke-linecap:round" />
      <rect
         style="fill:#ffffff;fill-opacity:1;stroke:#ffffff;stroke-width:9;stroke-miterlimit:4;stroke-dasharray:none;stroke-opacity:1;stroke-linejoin:round;stroke-linecap:round"
         id="rect4171"
         width="46.138718"
         height="25.809397"
         x="5.833631"
         y="11.230448" />
    </g>
    <rect
       style="fill:#ffffff;fill-opacity:1;stroke:none"
       id="rect2999"
       width="46.138718"
       height="25.809397"
       x="5.833631"
       y="11.230448" />
    <g
       id="g2994"
       style="stroke-width:2;stroke-miterlimit:4;stroke-dasharray:none;stroke:#000000;stroke-opacity:1">
      <path
         inkscape:connector-curvature="0"
         id="rect1333"
         d="M 6.6477432,8.863648 C 5.7107337,8.951959 4.9959586,9.740676 5.0000168,10.681829 l 0,26.363628 c 1.004e-4,1.004112 0.8140691,1.818081 1.8181814,1.818181 l 46.3636188,0 c 1.004113,-1e-4 1.818082,-0.814069 1.818182,-1.818181 l 0,-26.363628 c -1e-4,-1.004112 -0.814069,-1.8180806 -1.818182,-1.818181 l -46.3636188,0 c -0.05679,-0.00266 -0.113668,-0.00266 -0.170455,0 l 0,0 z m 1.988636,3.636362 42.7272568,0 0,22.727265 -42.7272568,0 0,-22.727265 z"
         style="fill:#000000;fill-opacity:1;stroke:#000000;stroke-width:2;stroke-miterlimit:4;stroke-dasharray:none;stroke-opacity:1" />
    </g>
    <rect
       style="opacity:1;fill:#ffffff;fill-opacity:1;stroke:none;stroke-width:1.25;stroke-linecap:round;stroke-linejoin:round;stroke-miterlimit:4;stroke-dasharray:none;stroke-opacity:1"
       id="rect4210"
       width="20.771261"
       height="17.942835"
       x="19.801592"
       y="23.930641"
       rx="0"
       ry="0" />
    <path
       inkscape:connector-curvature="0"
       id="rect4585"
       d="m 19.941078,17.829833 c -1.305121,0 -2.316078,1.121108 -2.316078,2.394859 l 0,20.755448 c 0,1.273751 1.010957,2.39486 2.316078,2.39486 l 20.961332,0 c 1.30512,0 2.316076,-1.121109 2.316076,-2.39486 l 0,-20.755448 c 0,-1.273751 -1.010956,-2.394859 -2.316076,-2.394859 l -20.961332,0 z m 0,2.128763 20.961332,0 c 0.08047,0 0.183286,0.06025 0.183286,0.266096 l 0,20.755448 c 0,0.205853 -0.102818,0.266096 -0.183286,0.266096 l -20.961332,0 c -0.08047,0 -0.183287,-0.06025 -0.183287,-0.266096 l 0,-20.755448 c 0,-0.20585 0.102818,-0.266096 0.183287,-0.266096 z"
       style="color:#000000;display:inline;overflow:visible;visibility:visible;fill:#000000;fill-opacity:1;fill-rule:evenodd;stroke:#000000;stroke-width:1.25;stroke-miterlimit:4;stroke-dasharray:none;stroke-opacity:1;marker:none;enable-background:accumulate" />
    <rect
       ry="2.0803337"
       rx="1.3358936"
       y="20.362951"
       x="17.8916"
       height="4.5378356"
       width="25.060286"
       id="rect5556"
       style="color:#000000;display:inline;overflow:visible;visibility:visible;fill:#000000;fill-opacity:1;fill-rule:evenodd;stroke:#ffffff;stroke-width:0;stroke-linecap:square;stroke-linejoin:round;stroke-miterlimit:4;stroke-dasharray:none;stroke-dashoffset:0;stroke-opacity:1;marker:none;enable-background:accumulate" />
  </g>
</svg>
