<?xml version="1.0" encoding="UTF-8" standalone="no"?>
<!-- Created with Inkscape (http://www.inkscape.org/) -->

<svg
   xmlns:dc="http://purl.org/dc/elements/1.1/"
   xmlns:cc="http://creativecommons.org/ns#"
   xmlns:rdf="http://www.w3.org/1999/02/22-rdf-syntax-ns#"
   xmlns:svg="http://www.w3.org/2000/svg"
   xmlns="http://www.w3.org/2000/svg"
   version="1.0"
   width="48"
   height="48"
   id="svg249">
  <defs
     id="defs3">
    <linearGradient
       id="linearGradient3702">
      <stop
         id="stop3704"
         style="stop-color:#000000;stop-opacity:0"
         offset="0" />
      <stop
         id="stop3710"
         style="stop-color:#000000;stop-opacity:1"
         offset="0.5" />
      <stop
         id="stop3706"
         style="stop-color:#000000;stop-opacity:0"
         offset="1" />
    </linearGradient>
    <linearGradient
       id="linearGradient5345">
      <stop
         id="stop5347"
         style="stop-color:#efe8ef;stop-opacity:1"
         offset="0" />
      <stop
         id="stop1936"
         style="stop-color:#dabce7;stop-opacity:1"
         offset="0.42469135" />
      <stop
         id="stop7129"
         style="stop-color:#dabce7;stop-opacity:1"
         offset="0.9041152" />
      <stop
         id="stop5349"
         style="stop-color:#efe8ef;stop-opacity:1"
         offset="1" />
    </linearGradient>
    <linearGradient
       id="linearGradient2378">
      <stop
         id="stop2380"
         style="stop-color:#ffffff;stop-opacity:1"
         offset="0" />
      <stop
         id="stop4146"
         style="stop-color:#fefede;stop-opacity:0.91836733"
         offset="0.25" />
      <stop
         id="stop2386"
         style="stop-color:#f5f328;stop-opacity:1"
         offset="0.5" />
      <stop
         id="stop2382"
         style="stop-color:#f5f32d;stop-opacity:0.12234043"
         offset="1" />
    </linearGradient>
    <linearGradient
       id="linearGradient15662">
      <stop
         id="stop15664"
         style="stop-color:#ffffff;stop-opacity:1"
         offset="0" />
      <stop
         id="stop15666"
         style="stop-color:#f8f8f8;stop-opacity:1"
         offset="1" />
    </linearGradient>
    <linearGradient
       id="linearGradient269">
      <stop
         id="stop270"
         style="stop-color:#a3a3a3;stop-opacity:1"
         offset="0" />
      <stop
         id="stop271"
         style="stop-color:#8a8a8a;stop-opacity:1"
         offset="1" />
    </linearGradient>
    <linearGradient
       id="linearGradient259">
      <stop
         id="stop260"
         style="stop-color:#fafafa;stop-opacity:1"
         offset="0" />
      <stop
         id="stop261"
         style="stop-color:#bbbbbb;stop-opacity:1"
         offset="1" />
    </linearGradient>
    <filter
       x="0"
       y="0"
       width="1"
       height="1"
       color-interpolation-filters="sRGB"
       id="filter3770">
      <feColorMatrix
         id="feColorMatrix3772"
         type="saturate"
         values="1"
         result="fbSourceGraphic" />
      <feColorMatrix
         id="feColorMatrix3774"
         in="fbSourceGraphic"
         values="-1 0 0 0 1 0 -1 0 0 1 0 0 -1 0 1 0 0 0 1 0 " />
    </filter>
    <filter
       x="0"
       y="0"
       width="1"
       height="1"
       color-interpolation-filters="sRGB"
       id="filter3770-4">
      <feColorMatrix
         id="feColorMatrix3772-6"
         type="saturate"
         values="1"
         result="fbSourceGraphic" />
      <feColorMatrix
         id="feColorMatrix3774-8"
         in="fbSourceGraphic"
         values="-1 0 0 0 1 0 -1 0 0 1 0 0 -1 0 1 0 0 0 1 0 " />
    </filter>
    <filter
       x="0"
       y="0"
       width="1"
       height="1"
       color-interpolation-filters="sRGB"
       id="filter3770-4-3">
      <feColorMatrix
         id="feColorMatrix3772-6-3"
         type="saturate"
         values="1"
         result="fbSourceGraphic" />
      <feColorMatrix
         id="feColorMatrix3774-8-7"
         in="fbSourceGraphic"
         values="-1 0 0 0 1 0 -1 0 0 1 0 0 -1 0 1 0 0 0 1 0 " />
    </filter>
    <filter
       x="0"
       y="0"
       width="1"
       height="1"
       color-interpolation-filters="sRGB"
       id="filter3770-43">
      <feColorMatrix
         id="feColorMatrix3772-9"
         type="saturate"
         values="1"
         result="fbSourceGraphic" />
      <feColorMatrix
         id="feColorMatrix3774-81"
         in="fbSourceGraphic"
         values="-1 0 0 0 1 0 -1 0 0 1 0 0 -1 0 1 0 0 0 1 0 " />
    </filter>
    <filter
       x="0"
       y="0"
       width="1"
       height="1"
       color-interpolation-filters="sRGB"
       id="filter3824">
      <feColorMatrix
         result="fbSourceGraphic"
         values="1"
         type="saturate"
         id="feColorMatrix3826" />
      <feColorMatrix
         result="fbSourceGraphic"
         values="-1 0 0 0 1 0 -1 0 0 1 0 0 -1 0 1 0 0 0 1 0 "
         in="fbSourceGraphic"
         id="feColorMatrix3828" />
      <feColorMatrix
         id="feColorMatrix3830"
         values="0 0 0 -1 0 0 0 0 -1 0 0 0 0 -1 0 0 0 0 1 0"
         in="fbSourceGraphic"
         result="fbSourceGraphicAlpha" />
      <feColorMatrix
         in="fbSourceGraphic"
         result="fbSourceGraphic"
         values="1"
         type="saturate"
         id="feColorMatrix3832" />
      <feColorMatrix
         result="fbSourceGraphic"
         values="-1 0 0 0 1 0 -1 0 0 1 0 0 -1 0 1 0 0 0 1 0 "
         in="fbSourceGraphic"
         id="feColorMatrix3834" />
      <feColorMatrix
         id="feColorMatrix3836"
         values="0 0 0 -1 0 0 0 0 -1 0 0 0 0 -1 0 0 0 0 1 0"
         in="fbSourceGraphic"
         result="fbSourceGraphicAlpha" />
      <feColorMatrix
         in="fbSourceGraphic"
         result="fbSourceGraphic"
         values="1"
         type="saturate"
         id="feColorMatrix3838" />
      <feColorMatrix
         values="-1 0 0 0 1 0 -1 0 0 1 0 0 -1 0 1 0 0 0 1 0 "
         in="fbSourceGraphic"
         id="feColorMatrix3840" />
    </filter>
  </defs>
  <metadata
     id="metadata4">
    <rdf:RDF>
      <cc:Work
         rdf:about="">
        <dc:format>image/svg+xml</dc:format>
        <dc:type
           rdf:resource="http://purl.org/dc/dcmitype/StillImage" />
        <dc:title></dc:title>
        <dc:subject>
          <rdf:Bag>
            <rdf:li>text</rdf:li>
            <rdf:li>plaintext</rdf:li>
            <rdf:li>regular</rdf:li>
            <rdf:li>document</rdf:li>
          </rdf:Bag>
        </dc:subject>
        <cc:license
           rdf:resource="http://creativecommons.org/licenses/GPL/2.0/" />
        <dc:creator>
          <cc:Agent>
            <dc:title>Andreas Nilsson</dc:title>
          </cc:Agent>
        </dc:creator>
        <dc:source>http://www.gnome.org</dc:source>
        <dc:contributor>
          <cc:Agent>
            <dc:title>Luca Ferretti
Jakub Steiner
Lapo Calamandrei</dc:title>
          </cc:Agent>
        </dc:contributor>
        <dc:date>December 2006</dc:date>
      </cc:Work>
      <cc:License
         rdf:about="http://creativecommons.org/licenses/GPL/2.0/">
        <cc:permits
           rdf:resource="http://web.resource.org/cc/Reproduction" />
        <cc:permits
           rdf:resource="http://web.resource.org/cc/Distribution" />
        <cc:requires
           rdf:resource="http://web.resource.org/cc/Notice" />
        <cc:permits
           rdf:resource="http://web.resource.org/cc/DerivativeWorks" />
        <cc:requires
           rdf:resource="http://web.resource.org/cc/ShareAlike" />
        <cc:requires
           rdf:resource="http://web.resource.org/cc/SourceCode" />
      </cc:License>
    </rdf:RDF>
  </metadata>
  <g
     id="layer5"
     style="display:inline">
    <g
       transform="matrix(1.0467962,0,0,1.0142631,-2.1666781,-0.34231379)"
       id="g3806"
       style="fill:none;stroke:#ffffff;stroke-width:7.76396561;stroke-miterlimit:4;stroke-opacity:1;stroke-dasharray:none">
      <path
         d="m 11.96875,4.28125 c -2.5583434,0 -4.6875,2.1290852 -4.6875,4.6875 l 0,30.0625 c 0,2.558415 2.1291567,4.6875 4.6875,4.6875 l 26.0625,0 c 2.558343,0 4.6875,-2.129084 4.6875,-4.6875 l 0,-30.0625 c 0,-2.5584148 -2.129156,-4.6875 -4.6875,-4.6875 l -26.0625,0 z m 0,3.4375 26.0625,0 c 0.721455,0 1.25,0.5298031 1.25,1.25 l 0,30.0625 c 0,0.7202 -0.528548,1.25 -1.25,1.25 l -26.0625,0 c -0.721452,0 -1.25,-0.529803 -1.25,-1.25 l 0,-30.0625 c 0,-0.7201969 0.528548,-1.25 1.25,-1.25 z"
         id="path3808"
         style="fill:none;stroke:#ffffff;stroke-width:7.76396561;stroke-miterlimit:4;stroke-opacity:1;stroke-dasharray:none" />
      <path
         d="m 13.851461,7 0,25 6.591781,-8 6.408219,8 0,-25"
         id="path3810"
         style="fill:none;stroke:#ffffff;stroke-width:7.76396561;stroke-miterlimit:4;stroke-opacity:1;stroke-dasharray:none" />
    </g>
    <rect
       width="32.853306"
       height="35.499207"
       rx="1.6536278"
       ry="1.6386853"
       x="7.6874976"
       y="6.1401501"
       id="rect3050"
       style="fill:#ffffff;fill-opacity:1;stroke:none" />
    <g
       transform="matrix(1.0467962,0,0,1.0142631,-2.1666781,-0.34231379)"
       id="layer1"
       style="fill:#000000;fill-opacity:1;stroke:#000000;stroke-opacity:1">
      <path
         d="m 11.96875,4.28125 c -2.5583434,0 -4.6875,2.1290852 -4.6875,4.6875 l 0,30.0625 c 0,2.558415 2.1291567,4.6875 4.6875,4.6875 l 26.0625,0 c 2.558343,0 4.6875,-2.129084 4.6875,-4.6875 l 0,-30.0625 c 0,-2.5584148 -2.129156,-4.6875 -4.6875,-4.6875 l -26.0625,0 z m 0,3.4375 26.0625,0 c 0.721455,0 1.25,0.5298031 1.25,1.25 l 0,30.0625 c 0,0.7202 -0.528548,1.25 -1.25,1.25 l -26.0625,0 c -0.721452,0 -1.25,-0.529803 -1.25,-1.25 l 0,-30.0625 c 0,-0.7201969 0.528548,-1.25 1.25,-1.25 z"
         id="rect1880"
         style="fill:#000000;fill-opacity:1;fill-rule:evenodd;stroke:none" />
      <path
         d="m 13.851461,7 0,25 6.591781,-8 6.408219,8 0,-25"
         id="path3655"
         style="fill:#000000;fill-opacity:1;fill-rule:evenodd;stroke:none" />
    </g>
    <g
       transform="matrix(0.36992884,0,0,0.36992884,22.788376,24.246396)"
       id="g3816"
       style="fill:#ffffff;fill-opacity:1;stroke:#ffffff;stroke-width:21.62578011;stroke-miterlimit:4;stroke-opacity:1;stroke-dasharray:none">
      <path
         d="m 16.793334,-5.6657942 c -2.983848,0 -5.386209,2.5192365 -5.386209,5.64635325 l 0,11.02383295 -11.04172524,0 c -3.13219396,0 -5.65551906,2.39847 -5.65551906,5.377481 l 0,11.292706 c 0,2.979014 2.5233251,5.37748 5.65551906,5.37748 l 11.04172524,0 0,10.934209 c 0,3.127118 2.402361,5.646353 5.386209,5.646353 l 11.311039,0 c 2.983847,0 5.386209,-2.519235 5.386209,-5.646353 l 0,-10.934209 10.862188,0 c 3.132195,0 5.655521,-2.398466 5.655521,-5.37748 l 0,-11.292706 c 0,-2.979011 -2.523326,-5.377481 -5.655521,-5.377481 l -10.862188,0 0,-11.02383295 c 0,-3.12711675 -2.402362,-5.64635325 -5.386209,-5.64635325 l -11.311039,0 z"
         id="path3818"
         style="fill:#ffffff;fill-opacity:1;stroke:#ffffff;stroke-width:21.62578011;stroke-miterlimit:4;stroke-opacity:1;stroke-dasharray:none" />
    </g>
    <g
       transform="matrix(0.36992884,0,0,0.36992884,22.788376,24.246396)"
       id="g3798"
       style="fill:#ffffff;fill-opacity:1;stroke:#000000;stroke-width:7.15246677;stroke-miterlimit:4;stroke-opacity:1;stroke-dasharray:none">
      <path
         d="m 16.793334,-5.6657942 c -2.983848,0 -5.386209,2.5192365 -5.386209,5.64635325 l 0,11.02383295 -11.04172524,0 c -3.13219396,0 -5.65551906,2.39847 -5.65551906,5.377481 l 0,11.292706 c 0,2.979014 2.5233251,5.37748 5.65551906,5.37748 l 11.04172524,0 0,10.934209 c 0,3.127118 2.402361,5.646353 5.386209,5.646353 l 11.311039,0 c 2.983847,0 5.386209,-2.519235 5.386209,-5.646353 l 0,-10.934209 10.862188,0 c 3.132195,0 5.655521,-2.398466 5.655521,-5.37748 l 0,-11.292706 c 0,-2.979011 -2.523326,-5.377481 -5.655521,-5.377481 l -10.862188,0 0,-11.02383295 c 0,-3.12711675 -2.402362,-5.64635325 -5.386209,-5.64635325 l -11.311039,0 z"
         id="rect3803"
         style="fill:#ffffff;fill-opacity:1;stroke:#000000;stroke-width:7.15246677;stroke-miterlimit:4;stroke-opacity:1;stroke-dasharray:none" />
    </g>
  </g>
</svg>
