<?xml version="1.0" encoding="UTF-8" standalone="no"?>
<svg
   xmlns:dc="http://purl.org/dc/elements/1.1/"
   xmlns:cc="http://creativecommons.org/ns#"
   xmlns:rdf="http://www.w3.org/1999/02/22-rdf-syntax-ns#"
   xmlns:svg="http://www.w3.org/2000/svg"
   xmlns="http://www.w3.org/2000/svg"
   xmlns:sodipodi="http://sodipodi.sourceforge.net/DTD/sodipodi-0.dtd"
   xmlns:inkscape="http://www.inkscape.org/namespaces/inkscape"
   version="1.1"
   id="Layer_1"
   width="48"
   height="48"
   viewBox="0 0 48 48"
   overflow="visible"
   enable-background="new 0 0 128 128"
   xml:space="preserve"
   sodipodi:version="0.32"
   inkscape:version="0.48.3.1 r9886"
   sodipodi:docname="gnome-session-hibernate.svg"
   inkscape:output_extension="org.inkscape.output.svg.inkscape"
   sodipodi:modified="true"
   style="overflow:visible"><sodipodi:namedview
   inkscape:window-height="717"
   inkscape:window-width="1366"
   inkscape:pageshadow="2"
   inkscape:pageopacity="0.0"
   guidetolerance="10.0"
   gridtolerance="10.0"
   objecttolerance="10.0"
   borderopacity="1.0"
   bordercolor="#666666"
   pagecolor="#ffffff"
   id="base"
   inkscape:zoom="4.187398"
   inkscape:cx="32.728942"
   inkscape:cy="48.50804"
   inkscape:window-x="0"
   inkscape:window-y="0"
   inkscape:current-layer="Layer_1"
   showgrid="false"
   inkscape:window-maximized="1" /><metadata
   id="metadata83"><rdf:RDF><cc:Work
       rdf:about=""><dc:format>image/svg+xml</dc:format><dc:type
         rdf:resource="http://purl.org/dc/dcmitype/StillImage" /></cc:Work></rdf:RDF></metadata><defs
   id="defs81" />
	
	
	
		<linearGradient
   id="XMLID_38_"
   x1="66.369102"
   y1="-7.8505998"
   gradientTransform="matrix(1,0,0,-1,-0.9624,127.9346)"
   x2="63.035599"
   gradientUnits="userSpaceOnUse"
   y2="130.815">
		<stop
   offset="0"
   id="stop8"
   style="stop-color:#545454" />
		<stop
   offset="0.3319"
   id="stop10"
   style="stop-color:#505050" />
		<stop
   offset="0.8192"
   id="stop12"
   style="stop-color:#474747" />
		<stop
   offset="1"
   id="stop14"
   style="stop-color:#424242" />
	</linearGradient>
	
	
		<linearGradient
   id="XMLID_39_"
   x1="70.084"
   y1="6.2558999"
   gradientTransform="matrix(1,0,0,-1,-0.9624,127.9346)"
   x2="62.5839"
   gradientUnits="userSpaceOnUse"
   y2="84.756203">
		<stop
   offset="0"
   id="stop19"
   style="stop-color:#696969" />
		<stop
   offset="0.5072"
   id="stop21"
   style="stop-color:#585858" />
		<stop
   offset="1"
   id="stop23"
   style="stop-color:#464646" />
	</linearGradient>
	
	
	
		<linearGradient
   id="XMLID_40_"
   x1="17.4536"
   y1="101.3174"
   gradientTransform="matrix(1,0,0,-1,-0.9624,127.9346)"
   x2="124.1777"
   gradientUnits="userSpaceOnUse"
   y2="27.3354">
		<stop
   offset="0"
   id="stop30"
   style="stop-color:#8b8b8b" />
		<stop
   offset="1"
   id="stop32"
   style="stop-color:#5c5c5c" />
	</linearGradient>
	
	
		<linearGradient
   id="XMLID_41_"
   x1="4.6630998"
   y1="90.890602"
   gradientTransform="matrix(1,0,0,-1,-0.9624,127.9346)"
   x2="124.6597"
   gradientUnits="userSpaceOnUse"
   y2="90.890602">
		<stop
   offset="0"
   id="stop37"
   style="stop-color:#a2a2a2" />
		<stop
   offset="0.4719"
   id="stop39"
   style="stop-color:#dedede" />
		<stop
   offset="0.8119"
   id="stop41"
   style="stop-color:#b9b9b9" />
		<stop
   offset="1"
   id="stop43"
   style="stop-color:#a9a9a9" />
	</linearGradient>
	
	
	
	
		<linearGradient
   id="XMLID_42_"
   x1="70.105499"
   y1="65.898399"
   gradientTransform="matrix(1,0,0,-1,-0.9624,127.9346)"
   x2="58.358501"
   gradientUnits="userSpaceOnUse"
   y2="144.83881">
		<stop
   offset="0"
   id="stop52"
   style="stop-color:#545454" />
		<stop
   offset="0.3319"
   id="stop54"
   style="stop-color:#505050" />
		<stop
   offset="0.8192"
   id="stop56"
   style="stop-color:#474747" />
		<stop
   offset="1"
   id="stop58"
   style="stop-color:#424242" />
	</linearGradient>
	<g
   id="g3785"
   style="stroke:#ffffff;stroke-opacity:1;stroke-width:8;stroke-miterlimit:4;stroke-dasharray:none"><path
     d="m 29.73728,6.11552 c -0.0848,0.06016 -0.13536,0.15776 -0.13536,0.26144 v 5.92736 c 0,0.11872 0.0656,0.22752 0.17056,0.2832 4.43456,2.34016 7.18944,6.8976 7.18944,11.89248 0,7.41088 -6.02944,13.44 -13.44128,13.44 C 16.1088,37.92 10.08,31.89088 10.08,24.48 c 0,-4.99488 2.75488,-9.55232 7.18944,-11.89248 C 17.3744,12.53184 17.44,12.42304 17.44,12.30432 V 6.37696 C 17.44,6.27328 17.38944,6.17568 17.30464,6.11584 17.21984,6.05568 17.11136,6.04096 17.01312,6.07552 9.22976,8.8272 4,16.22336 4,24.48 4,35.24352 12.75648,44 23.52064,44 34.28576,44 43.04192,35.24352 43.04192,24.48 43.04192,16.22336 37.81216,8.8272 30.0288,6.0752 29.93056,6.04064 29.82208,6.05568 29.73728,6.11552 z"
     id="path3787"
     style="fill:#000000;fill-opacity:1;stroke:#ffffff;stroke-opacity:1;stroke-width:8;stroke-miterlimit:4;stroke-dasharray:none"
     inkscape:connector-curvature="0" /><path
     d="M 20.96,4 C 20.43072,4 20,4.43072 20,4.96 v 13.76 c 0,0.52928 0.43072,0.96 0.96,0.96 h 5.12192 c 0.52928,0 0.96,-0.43072 0.96,-0.96 V 4.96 C 27.04192,4.43072 26.6112,4 26.08192,4 H 20.96 z"
     id="path3789"
     style="fill:#000000;fill-opacity:1;stroke:#ffffff;stroke-opacity:1;stroke-width:8;stroke-miterlimit:4;stroke-dasharray:none"
     inkscape:connector-curvature="0" /></g><path
   sodipodi:type="arc"
   style="fill:#ffffff;fill-opacity:1;stroke:none;overflow:visible"
   id="path3034"
   sodipodi:cx="23.978891"
   sodipodi:cy="23.514511"
   sodipodi:rx="13.171504"
   sodipodi:ry="13.678101"
   d="m 37.150395,23.514511 a 13.171504,13.678101 0 1 1 -26.343008,0 13.171504,13.678101 0 1 1 26.343008,0 z"
   transform="matrix(1.2820513,0,0,1.2820513,-7.3386137,-6.0279883)" /><g
   id="g3781"><path
     inkscape:connector-curvature="0"
     style="fill:#000000;fill-opacity:1"
     id="path16"
     d="m 29.73728,6.11552 c -0.0848,0.06016 -0.13536,0.15776 -0.13536,0.26144 v 5.92736 c 0,0.11872 0.0656,0.22752 0.17056,0.2832 4.43456,2.34016 7.18944,6.8976 7.18944,11.89248 0,7.41088 -6.02944,13.44 -13.44128,13.44 C 16.1088,37.92 10.08,31.89088 10.08,24.48 c 0,-4.99488 2.75488,-9.55232 7.18944,-11.89248 C 17.3744,12.53184 17.44,12.42304 17.44,12.30432 V 6.37696 C 17.44,6.27328 17.38944,6.17568 17.30464,6.11584 17.21984,6.05568 17.11136,6.04096 17.01312,6.07552 9.22976,8.8272 4,16.22336 4,24.48 4,35.24352 12.75648,44 23.52064,44 34.28576,44 43.04192,35.24352 43.04192,24.48 43.04192,16.22336 37.81216,8.8272 30.0288,6.0752 29.93056,6.04064 29.82208,6.05568 29.73728,6.11552 z" /><path
     inkscape:connector-curvature="0"
     style="fill:#000000;fill-opacity:1"
     id="path60"
     d="M 20.96,4 C 20.43072,4 20,4.43072 20,4.96 v 13.76 c 0,0.52928 0.43072,0.96 0.96,0.96 h 5.12192 c 0.52928,0 0.96,-0.43072 0.96,-0.96 V 4.96 C 27.04192,4.43072 26.6112,4 26.08192,4 H 20.96 z" /></g>
	
		<linearGradient
   id="XMLID_43_"
   x1="15.9951"
   y1="108.5723"
   gradientTransform="matrix(1,0,0,-1,-0.9624,127.9346)"
   x2="144.71449"
   gradientUnits="userSpaceOnUse"
   y2="92.3395">
		<stop
   offset="0"
   id="stop63"
   style="stop-color:#8b8b8b" />
		<stop
   offset="1"
   id="stop65"
   style="stop-color:#5c5c5c" />
	</linearGradient>
	
	
		<linearGradient
   id="XMLID_44_"
   x1="10.9971"
   y1="123.9756"
   gradientTransform="matrix(1,0,0,-1,-0.9624,127.9346)"
   x2="146.2321"
   gradientUnits="userSpaceOnUse"
   y2="125.112">
		<stop
   offset="0"
   id="stop70"
   style="stop-color:#a2a2a2" />
		<stop
   offset="0.4719"
   id="stop72"
   style="stop-color:#cdcdcd" />
		<stop
   offset="0.8119"
   id="stop74"
   style="stop-color:#b4b4b4" />
		<stop
   offset="1"
   id="stop76"
   style="stop-color:#a9a9a9" />
	</linearGradient>
	
</svg>