<?xml version="1.0" encoding="UTF-8" standalone="no"?>
<!-- Created with Inkscape (http://www.inkscape.org/) -->

<svg
   xmlns:dc="http://purl.org/dc/elements/1.1/"
   xmlns:cc="http://creativecommons.org/ns#"
   xmlns:rdf="http://www.w3.org/1999/02/22-rdf-syntax-ns#"
   xmlns:svg="http://www.w3.org/2000/svg"
   xmlns="http://www.w3.org/2000/svg"
   xmlns:sodipodi="http://sodipodi.sourceforge.net/DTD/sodipodi-0.dtd"
   xmlns:inkscape="http://www.inkscape.org/namespaces/inkscape"
   id="svg2"
   sodipodi:version="0.32"
   inkscape:version="0.48.3.1 r9886"
   width="48"
   height="48"
   version="1.0"
   sodipodi:docname="gnome-palm.svg"
   inkscape:output_extension="org.inkscape.output.svg.inkscape">
  <metadata
     id="metadata7">
    <rdf:RDF>
      <cc:Work
         rdf:about="">
        <dc:format>image/svg+xml</dc:format>
        <dc:type
           rdf:resource="http://purl.org/dc/dcmitype/StillImage" />
      </cc:Work>
    </rdf:RDF>
  </metadata>
  <defs
     id="defs5" />
  <sodipodi:namedview
     inkscape:window-height="614"
     inkscape:window-width="772"
     inkscape:pageshadow="2"
     inkscape:pageopacity="0.0"
     guidetolerance="10000"
     gridtolerance="10000"
     objecttolerance="10000"
     borderopacity="1.0"
     bordercolor="#666666"
     pagecolor="#ffffff"
     id="base"
     showgrid="true"
     showguides="true"
     inkscape:guide-bbox="true"
     inkscape:zoom="5.9956763"
     inkscape:cx="22.759075"
     inkscape:cy="27.708103"
     inkscape:window-x="1"
     inkscape:window-y="42"
     inkscape:current-layer="svg2"
     inkscape:window-maximized="0" />
  <rect
     style="fill:#ffffff;fill-opacity:1;stroke:none"
     id="rect2985"
     width="20.848356"
     height="20.848356"
     x="13.509735"
     y="7.4707942"
     ry="2.2372882" />
  <g
     id="g2985"
     style="stroke-width:8;stroke-miterlimit:4;stroke-dasharray:none;stroke:#ffffff;stroke-opacity:1">
    <path
       style="fill:#000000;fill-rule:evenodd;stroke:#ffffff;stroke-width:8;stroke-miterlimit:4;stroke-dasharray:none;stroke-opacity:1"
       d="m 14,4 c -1.885041,0 -3.333333,1.5670753 -3.333333,3.515625 l 0,24.661458 C 10.666667,42.671079 17.333333,44 24,44 30.666667,44 37.333333,42.671078 37.333333,32.177083 l 0,-24.661458 C 37.333333,5.5670752 35.885041,4 34,4 L 14,4 z m 3.125,5 13.75,0 c 1.314363,0 2.291667,1.284526 2.291667,2.291667 l 0,13.75 c 0,1.204255 -1.229052,2.291666 -2.291667,2.291666 l -13.75,0 c -1.558527,0 -2.291667,-1.284525 -2.291667,-2.291666 l 0,-13.75 C 14.833333,10.284526 15.856803,9 17.125,9 z m 4.375,22.5 5,0 0,10 -5,0 0,-10 z m -7.161458,1.666667 3.333333,0 0,6.666666 c 0,2.860272 -5,-6.666666 -3.333333,-6.666666 z m 16.328125,0 3.333333,0 c 1.666667,0 -3.333333,9.526938 -3.333333,6.666666 l 0,-6.666666 z"
       id="path2987"
       inkscape:connector-curvature="0" />
  </g>
  <g
     id="g2982">
    <path
       inkscape:connector-curvature="0"
       id="path2161"
       d="m 14,4 c -1.885041,0 -3.333333,1.5670753 -3.333333,3.515625 l 0,24.661458 C 10.666667,42.671079 17.333333,44 24,44 30.666667,44 37.333333,42.671078 37.333333,32.177083 l 0,-24.661458 C 37.333333,5.5670752 35.885041,4 34,4 L 14,4 z m 3.125,5 13.75,0 c 1.314363,0 2.291667,1.284526 2.291667,2.291667 l 0,13.75 c 0,1.204255 -1.229052,2.291666 -2.291667,2.291666 l -13.75,0 c -1.558527,0 -2.291667,-1.284525 -2.291667,-2.291666 l 0,-13.75 C 14.833333,10.284526 15.856803,9 17.125,9 z m 4.375,22.5 5,0 0,10 -5,0 0,-10 z m -7.161458,1.666667 3.333333,0 0,6.666666 c 0,2.860272 -5,-6.666666 -3.333333,-6.666666 z m 16.328125,0 3.333333,0 c 1.666667,0 -3.333333,9.526938 -3.333333,6.666666 l 0,-6.666666 z"
       style="fill:#000000;fill-rule:evenodd;stroke:none" />
  </g>
</svg>
