<?xml version="1.0" encoding="UTF-8" standalone="no"?>
<!-- Created with Inkscape (http://www.inkscape.org/) -->

<svg
   xmlns:dc="http://purl.org/dc/elements/1.1/"
   xmlns:cc="http://creativecommons.org/ns#"
   xmlns:rdf="http://www.w3.org/1999/02/22-rdf-syntax-ns#"
   xmlns:svg="http://www.w3.org/2000/svg"
   xmlns="http://www.w3.org/2000/svg"
   xmlns:xlink="http://www.w3.org/1999/xlink"
   xmlns:sodipodi="http://sodipodi.sourceforge.net/DTD/sodipodi-0.dtd"
   xmlns:inkscape="http://www.inkscape.org/namespaces/inkscape"
   width="48"
   height="48"
   id="svg2"
   sodipodi:version="0.32"
   inkscape:version="0.48.3.1 r9886"
   version="1.0"
   sodipodi:docname="gnome-panel-force-quit.svg"
   inkscape:export-filename="/home/lapo/Desktop/xubuntu/pngs/wksp.png"
   inkscape:export-xdpi="90"
   inkscape:export-ydpi="90"
   inkscape:output_extension="org.inkscape.output.svg.inkscape">
  <sodipodi:namedview
     inkscape:window-height="717"
     inkscape:window-width="1366"
     inkscape:pageshadow="2"
     inkscape:pageopacity="0.0"
     guidetolerance="10000"
     gridtolerance="10000"
     objecttolerance="10000"
     borderopacity="1.0"
     bordercolor="#666666"
     pagecolor="#ffffff"
     id="base"
     showgrid="true"
     inkscape:showpageshadow="false"
     showborder="true"
     inkscape:zoom="4"
     inkscape:cx="20.372822"
     inkscape:cy="39.780054"
     inkscape:window-x="0"
     inkscape:window-y="0"
     inkscape:current-layer="layer1"
     showguides="true"
     inkscape:guide-bbox="true"
     inkscape:window-maximized="1">
    <inkscape:grid
       id="GridFromPre046Settings"
       type="xygrid"
       originx="0px"
       originy="0px"
       spacingx="0.5px"
       spacingy="0.5px"
       color="#3f3fff"
       empcolor="#3f3fff"
       opacity="0.15"
       empopacity="0.38"
       empspacing="2" />
  </sodipodi:namedview>
  <defs
     id="defs4">
    <linearGradient
       id="linearGradient3690">
      <stop
         style="stop-color:white;stop-opacity:1;"
         offset="0"
         id="stop3692" />
      <stop
         style="stop-color:white;stop-opacity:0.46875"
         offset="1"
         id="stop3694" />
    </linearGradient>
    <linearGradient
       id="linearGradient3674">
      <stop
         style="stop-color:#3465a4;stop-opacity:1"
         offset="0"
         id="stop3676" />
      <stop
         style="stop-color:#729fcf;stop-opacity:1;"
         offset="1"
         id="stop3678" />
    </linearGradient>
    <linearGradient
       id="linearGradient2781">
      <stop
         style="stop-color:#d3d7cf;stop-opacity:1"
         offset="0"
         id="stop2783" />
      <stop
         style="stop-color:#eeeeec;stop-opacity:1"
         offset="1"
         id="stop2785" />
    </linearGradient>
    <linearGradient
       id="linearGradient5048">
      <stop
         id="stop5050"
         offset="0"
         style="stop-color:black;stop-opacity:0;" />
      <stop
         style="stop-color:black;stop-opacity:1;"
         offset="0.5"
         id="stop5056" />
      <stop
         id="stop5052"
         offset="1"
         style="stop-color:black;stop-opacity:0;" />
    </linearGradient>
    <linearGradient
       id="linearGradient5060"
       inkscape:collect="always">
      <stop
         id="stop5062"
         offset="0"
         style="stop-color:black;stop-opacity:1;" />
      <stop
         id="stop5064"
         offset="1"
         style="stop-color:black;stop-opacity:0;" />
    </linearGradient>
    <linearGradient
       inkscape:collect="always"
       xlink:href="#linearGradient5048"
       id="linearGradient3843"
       gradientUnits="userSpaceOnUse"
       gradientTransform="matrix(2.3247849,0,0,1.6961357,-1617.8048,-899.92199)"
       x1="302.85715"
       y1="366.64789"
       x2="302.85715"
       y2="609.50507" />
    <radialGradient
       inkscape:collect="always"
       xlink:href="#linearGradient5060"
       id="radialGradient3845"
       gradientUnits="userSpaceOnUse"
       gradientTransform="matrix(2.3247849,0,0,1.6961357,-1617.3473,-899.92199)"
       cx="605.71429"
       cy="486.64789"
       fx="605.71429"
       fy="486.64789"
       r="117.14286" />
    <radialGradient
       inkscape:collect="always"
       xlink:href="#linearGradient5060"
       id="radialGradient3847"
       gradientUnits="userSpaceOnUse"
       gradientTransform="matrix(-2.3247849,0,0,1.6961357,62.225363,-899.92199)"
       cx="605.71429"
       cy="486.64789"
       fx="605.71429"
       fy="486.64789"
       r="117.14286" />
    <linearGradient
       inkscape:collect="always"
       xlink:href="#linearGradient5048"
       id="linearGradient3007"
       gradientUnits="userSpaceOnUse"
       gradientTransform="matrix(2.3247849,0,0,1.6961357,-1949.0408,-899.92199)"
       x1="302.85715"
       y1="366.64789"
       x2="302.85715"
       y2="609.50507" />
    <radialGradient
       inkscape:collect="always"
       xlink:href="#linearGradient5060"
       id="radialGradient3009"
       gradientUnits="userSpaceOnUse"
       gradientTransform="matrix(2.3247849,0,0,1.6961357,-1948.5834,-899.92199)"
       cx="605.71429"
       cy="486.64789"
       fx="605.71429"
       fy="486.64789"
       r="117.14286" />
    <radialGradient
       inkscape:collect="always"
       xlink:href="#linearGradient5060"
       id="radialGradient3011"
       gradientUnits="userSpaceOnUse"
       gradientTransform="matrix(-2.3247849,0,0,1.6961357,-269.0106,-899.92199)"
       cx="605.71429"
       cy="486.64789"
       fx="605.71429"
       fy="486.64789"
       r="117.14286" />
  </defs>
  <sodipodi:namedview
     id="namedview30"
     pagecolor="#ffffff"
     bordercolor="#666666"
     borderopacity="1.0"
     inkscape:pageopacity="0.0"
     inkscape:pageshadow="2"
     inkscape:zoom="1"
     inkscape:cx="10.097903"
     inkscape:cy="38.917761"
     inkscape:document-units="px"
     inkscape:current-layer="layer1"
     showgrid="false"
     inkscape:window-width="965"
     inkscape:window-height="763"
     inkscape:window-x="176"
     inkscape:window-y="103"
     fill="#729fcf"
     stroke="#3465a4"
     inkscape:showpageshadow="false"
     showguides="false"
     inkscape:guide-bbox="true"
     inkscape:grid-points="true"
     inkscape:grid-bbox="false"
     showborder="true">
    <sodipodi:guide
       orientation="vertical"
       position="24.041631"
       id="guide2191" />
    <sodipodi:guide
       orientation="horizontal"
       position="25.986174"
       id="guide2203" />
    <inkscape:grid
       id="GridFromPre046Settings"
       type="xygrid"
       originx="0px"
       originy="0px"
       spacingx="0.5px"
       spacingy="0.5px"
       color="#3f3fff"
       empcolor="#3f3fff"
       opacity="0.15"
       empopacity="0.38"
       empspacing="2" />
  </sodipodi:namedview>
  <metadata
     id="metadata7">
    <rdf:RDF>
      <cc:Work
         rdf:about="">
        <dc:format>image/svg+xml</dc:format>
        <dc:type
           rdf:resource="http://purl.org/dc/dcmitype/StillImage" />
        <dc:creator>
          <cc:Agent>
            <dc:title>Lapo Calamandrei</dc:title>
          </cc:Agent>
        </dc:creator>
        <dc:title>Generic Window</dc:title>
        <dc:subject>
          <rdf:Bag />
        </dc:subject>
        <cc:license
           rdf:resource="http://creativecommons.org/licenses/GPL/2.0/" />
      </cc:Work>
      <cc:License
         rdf:about="http://creativecommons.org/licenses/GPL/2.0/">
        <cc:permits
           rdf:resource="http://web.resource.org/cc/Reproduction" />
        <cc:permits
           rdf:resource="http://web.resource.org/cc/Distribution" />
        <cc:requires
           rdf:resource="http://web.resource.org/cc/Notice" />
        <cc:permits
           rdf:resource="http://web.resource.org/cc/DerivativeWorks" />
        <cc:requires
           rdf:resource="http://web.resource.org/cc/ShareAlike" />
        <cc:requires
           rdf:resource="http://web.resource.org/cc/SourceCode" />
      </cc:License>
    </rdf:RDF>
  </metadata>
  <g
     inkscape:label="Livello 1"
     inkscape:groupmode="layer"
     id="layer1">
    <g
       id="g3784"
       style="stroke:#ffffff;stroke-opacity:1;stroke-width:8;stroke-miterlimit:4;stroke-dasharray:none">
      <rect
         style="fill:#ffffff;fill-opacity:1;stroke:#ffffff;stroke-opacity:1;stroke-width:8;stroke-miterlimit:4;stroke-dasharray:none"
         id="rect3786"
         width="36"
         height="28"
         x="6"
         y="10"
         rx="2"
         ry="2.3333335" />
      <path
         style="fill:#000000;fill-opacity:1;stroke:#ffffff;stroke-opacity:1;stroke-width:8;stroke-miterlimit:4;stroke-dasharray:none"
         d="m 7.6467794,7.8803968 c -1.9659672,-2e-7 -3.6340491,1.5970783 -3.6340491,3.5821342 l 0,25.568131 c 0,1.985055 1.6680819,3.582134 3.6340491,3.582134 l 18.6893946,0 2.725537,0 0.51915,0 0.337447,0 10.434913,0 c 1.965966,-2e-6 3.634049,-1.597079 3.634049,-3.582134 l 0,-25.568131 c -3e-6,-1.9850547 -1.668082,-3.5821342 -3.634049,-3.5821342 l -12.303852,0 -0.05191,0 -0.571065,0 -3.841709,0 -15.9379006,0 z m 0,3.3225592 11.4991696,0 -5.139584,4.516604 -1.583407,1.401704 -1.817024,1.609365 2.180429,1.116172 1.868939,0.960427 0.02596,0 11.706829,5.918309 -4.646391,3.763836 -1.0383,0.83064 -1.245959,1.012342 0.934469,1.271917 0.83064,1.090215 1.86894,2.595749 -15.4447086,0 c -0.2307141,0 -0.31149,-0.107045 -0.31149,-0.259574 l 0,-25.568131 c 0,-0.152529 0.080776,-0.259575 0.31149,-0.259575 z m 21.0515266,0 11.654915,0 c 0.230716,0 0.31149,0.107044 0.31149,0.259575 l 0,25.568131 c 0,0.152527 -0.08077,0.259574 -0.31149,0.259574 l -9.578315,0 -2.777452,-3.841709 6.100011,-4.905966 1.713194,-1.427662 1.946812,-1.609364 -2.258302,-1.14213 -1.998727,-1.012342 -11.836616,-5.996181 7.03448,-6.151926 z"
         id="path3788"
         inkscape:connector-curvature="0" />
      <path
         style="fill:#000000;fill-opacity:1;stroke:#ffffff;stroke-width:8;stroke-linecap:round;stroke-miterlimit:4;stroke-opacity:1;stroke-dasharray:none"
         d="m 42.338721,14.384005 0,-3.406293 c 0,-1.0687927 -0.884225,-1.9292281 -1.982566,-1.9292281 l -11.740497,0 -6.102581,5.3355211 m -4.46077,0 6.102581,-5.3355211 -16.511044,0 c -1.0983406,0 -1.9825643,0.8604356 -1.9825643,1.9292281 l 0,3.406293"
         id="path3790"
         sodipodi:nodetypes="cccccccccc"
         inkscape:connector-curvature="0" />
    </g>
    <g
       id="g3779">
      <rect
         ry="2.3333335"
         rx="2"
         y="10"
         x="6"
         height="28"
         width="36"
         id="rect3009"
         style="fill:#ffffff;fill-opacity:1;stroke:none" />
      <path
         inkscape:connector-curvature="0"
         id="rect1887"
         d="m 7.6467794,7.8803968 c -1.9659672,-2e-7 -3.6340491,1.5970783 -3.6340491,3.5821342 l 0,25.568131 c 0,1.985055 1.6680819,3.582134 3.6340491,3.582134 l 18.6893946,0 2.725537,0 0.51915,0 0.337447,0 10.434913,0 c 1.965966,-2e-6 3.634049,-1.597079 3.634049,-3.582134 l 0,-25.568131 c -3e-6,-1.9850547 -1.668082,-3.5821342 -3.634049,-3.5821342 l -12.303852,0 -0.05191,0 -0.571065,0 -3.841709,0 -15.9379006,0 z m 0,3.3225592 11.4991696,0 -5.139584,4.516604 -1.583407,1.401704 -1.817024,1.609365 2.180429,1.116172 1.868939,0.960427 0.02596,0 11.706829,5.918309 -4.646391,3.763836 -1.0383,0.83064 -1.245959,1.012342 0.934469,1.271917 0.83064,1.090215 1.86894,2.595749 -15.4447086,0 c -0.2307141,0 -0.31149,-0.107045 -0.31149,-0.259574 l 0,-25.568131 c 0,-0.152529 0.080776,-0.259575 0.31149,-0.259575 z m 21.0515266,0 11.654915,0 c 0.230716,0 0.31149,0.107044 0.31149,0.259575 l 0,25.568131 c 0,0.152527 -0.08077,0.259574 -0.31149,0.259574 l -9.578315,0 -2.777452,-3.841709 6.100011,-4.905966 1.713194,-1.427662 1.946812,-1.609364 -2.258302,-1.14213 -1.998727,-1.012342 -11.836616,-5.996181 7.03448,-6.151926 z"
         style="fill:#000000;fill-opacity:1;stroke:none" />
      <path
         inkscape:connector-curvature="0"
         sodipodi:nodetypes="cccccccccc"
         id="rect2776"
         d="m 42.338721,14.384005 0,-3.406293 c 0,-1.0687927 -0.884225,-1.9292281 -1.982566,-1.9292281 l -11.740497,0 -6.102581,5.3355211 m -4.46077,0 6.102581,-5.3355211 -16.511044,0 c -1.0983406,0 -1.9825643,0.8604356 -1.9825643,1.9292281 l 0,3.406293"
         style="fill:#000000;fill-opacity:1;stroke:#000000;stroke-width:3.32255912;stroke-linecap:round;stroke-miterlimit:4;stroke-opacity:1;stroke-dasharray:none" />
    </g>
  </g>
</svg>
