<?xml version="1.0" encoding="UTF-8" standalone="no"?>
<!-- Created with Inkscape (http://www.inkscape.org/) -->

<svg
   xmlns:dc="http://purl.org/dc/elements/1.1/"
   xmlns:cc="http://creativecommons.org/ns#"
   xmlns:rdf="http://www.w3.org/1999/02/22-rdf-syntax-ns#"
   xmlns:svg="http://www.w3.org/2000/svg"
   xmlns="http://www.w3.org/2000/svg"
   version="1.0"
   width="48"
   height="48"
   id="svg2">
  <defs
     id="defs13" />
  <metadata
     id="metadata7">
    <rdf:RDF>
      <cc:Work
         rdf:about="">
        <dc:format>image/svg+xml</dc:format>
        <dc:type
           rdf:resource="http://purl.org/dc/dcmitype/StillImage" />
        <cc:license
           rdf:resource="http://creativecommons.org/licenses/GPL/2.0/" />
        <dc:title></dc:title>
        <dc:date>May 2009</dc:date>
        <dc:creator>
          <cc:Agent>
            <dc:title>Luca Ferretti</dc:title>
          </cc:Agent>
        </dc:creator>
        <dc:publisher>
          <cc:Agent>
            <dc:title>gnome.org</dc:title>
          </cc:Agent>
        </dc:publisher>
        <dc:subject>
          <rdf:Bag>
            <rdf:li>system</rdf:li>
            <rdf:li>monitor</rdf:li>
            <rdf:li>status</rdf:li>
          </rdf:Bag>
        </dc:subject>
      </cc:Work>
      <cc:License
         rdf:about="http://creativecommons.org/licenses/GPL/2.0/">
        <cc:permits
           rdf:resource="http://web.resource.org/cc/Reproduction" />
        <cc:permits
           rdf:resource="http://web.resource.org/cc/Distribution" />
        <cc:requires
           rdf:resource="http://web.resource.org/cc/Notice" />
        <cc:permits
           rdf:resource="http://web.resource.org/cc/DerivativeWorks" />
        <cc:requires
           rdf:resource="http://web.resource.org/cc/ShareAlike" />
        <cc:requires
           rdf:resource="http://web.resource.org/cc/SourceCode" />
      </cc:License>
    </rdf:RDF>
  </metadata>
  <g
     id="layer1">
    <rect
       width="60"
       height="60"
       x="0"
       y="0"
       id="rect1306"
       style="fill:none;display:none" />
    <rect
       width="48"
       height="48"
       rx="0"
       ry="0.16787"
       x="0"
       y="0"
       id="rect2386"
       style="fill:none" />
    <rect
       width="40"
       height="40"
       ry="4.6679001"
       x="4"
       y="4"
       id="rect3160"
       style="fill:#ffffff;stroke:#ffffff;stroke-width:8;stroke-linejoin:round" />
    <rect
       width="40"
       height="40"
       ry="3.9179001"
       x="4"
       y="4"
       id="rect3158" />
    <rect
       width="32"
       height="32"
       ry="2.9179001"
       x="8"
       y="8"
       id="rect3162"
       style="fill:#ffffff" />
    <path
       d="m 35.506109,23.516432 -1.498816,-5.058503 -3.497237,0.999211 c -0.686957,-0.999211 -1.686168,-1.87352 -2.747829,-2.498027 l 0.562056,-3.434786 -5.745461,-0.749408 -0.499606,3.309885 c -0.187352,0.06245 -0.437154,0.124901 -0.624506,0.187352 -0.749408,0.187352 -1.436365,0.562056 -2.060872,0.93676 l -2.685378,-2.060872 -3.559688,4.309096 2.81028,2.185773 c -0.249803,0.686957 -0.374704,1.436365 -0.374704,2.248223 l -3.497237,0.999211 1.498816,5.058504 3.497237,-0.999211 c 0.686957,0.999211 1.686168,1.87352 2.747829,2.498027 l -0.562056,3.434786 5.745461,0.749408 0.499605,-3.309885 c 0.187352,-0.06245 0.437155,-0.124901 0.624506,-0.187352 0.749408,-0.187352 1.436366,-0.562056 2.060872,-0.93676 l 2.685379,2.060872 3.559688,-4.309096 -2.81028,-2.185773 c 0.249802,-0.686957 0.374704,-1.436365 0.374704,-2.248224 l 3.497237,-0.999211 z m -10.928866,3.684589 c -1.748619,0.499606 -3.622138,-0.499605 -4.184194,-2.248223 -0.562056,-1.748619 0.499605,-3.622139 2.248223,-4.184195 1.748619,-0.499605 3.622139,0.499606 4.184195,2.248224 0.499605,1.748619 -0.499606,3.622139 -2.248224,4.184194 z"
       id="path9"
       style="stroke:#000000;stroke-width:0.62450665" />
  </g>
</svg>
