<?xml version="1.0" encoding="UTF-8" standalone="no"?>
<!-- Generator: Adobe Illustrator 9.0, SVG Export Plug-In  -->

<svg
   xmlns:dc="http://purl.org/dc/elements/1.1/"
   xmlns:cc="http://creativecommons.org/ns#"
   xmlns:rdf="http://www.w3.org/1999/02/22-rdf-syntax-ns#"
   xmlns:svg="http://www.w3.org/2000/svg"
   xmlns="http://www.w3.org/2000/svg"
   xmlns:sodipodi="http://sodipodi.sourceforge.net/DTD/sodipodi-0.dtd"
   xmlns:inkscape="http://www.inkscape.org/namespaces/inkscape"
   width="48"
   height="48"
   viewBox="0 0 48 48"
   xml:space="preserve"
   id="svg2"
   sodipodi:version="0.32"
   inkscape:version="0.48.3.1 r9886"
   sodipodi:docname="help-info.svg"
   inkscape:output_extension="org.inkscape.output.svg.inkscape"
   version="1.0"><metadata
   id="metadata35"><rdf:RDF><cc:Work
       rdf:about=""><dc:format>image/svg+xml</dc:format><dc:type
         rdf:resource="http://purl.org/dc/dcmitype/StillImage" /><dc:title /></cc:Work></rdf:RDF></metadata><defs
   id="defs33" /><sodipodi:namedview
   inkscape:window-height="717"
   inkscape:window-width="1366"
   inkscape:pageshadow="2"
   inkscape:pageopacity="0.0"
   guidetolerance="10.0"
   gridtolerance="10.0"
   objecttolerance="10.0"
   borderopacity="1.0"
   bordercolor="#666666"
   pagecolor="#ffffff"
   id="base"
   width="48px"
   height="48px"
   inkscape:zoom="6.7833333"
   inkscape:cx="-13.432973"
   inkscape:cy="24.103194"
   inkscape:window-x="0"
   inkscape:window-y="0"
   inkscape:current-layer="g5"
   showgrid="false"
   inkscape:window-maximized="1" />
	<g
   id="Layer_x0020_4"
   style="fill-rule:nonzero;stroke:#000000;stroke-width:0.81389493;stroke-miterlimit:4;fill:#000000;fill-opacity:1"
   transform="matrix(1.2287002,0,0,1.2286195,-5.5002387,-5.4868675)">
		<g
   style="stroke:none;fill:#000000;fill-opacity:1"
   id="g5">
			
			
			
			
			
			
			
			
			
			
			
		<flowRoot
   xml:space="preserve"
   id="flowRoot3789"
   style="fill:black;stroke:none;stroke-opacity:1;stroke-width:1px;stroke-linejoin:miter;stroke-linecap:butt;fill-opacity:1;font-family:Sans;font-style:normal;font-weight:normal;font-size:4px;line-height:125%;letter-spacing:0px;word-spacing:0px"><flowRegion
     id="flowRegion3791"><rect
       id="rect3793"
       width="5.6019654"
       height="17.395578"
       x="16.805897"
       y="16.452087" /></flowRegion><flowPara
     id="flowPara3795" /></flowRoot><path
   transform="matrix(1.5631662,0,0,1.6820168,-14.631555,-21.042302)"
   d="m 33.316954,26.771498 a 8.6240788,8.2555285 0 1 1 -17.248158,0 8.6240788,8.2555285 0 1 1 17.248158,0 z"
   sodipodi:ry="8.2555285"
   sodipodi:rx="8.6240788"
   sodipodi:cy="26.771498"
   sodipodi:cx="24.692875"
   id="path3761"
   style="fill:#ffffff;fill-opacity:1;stroke:#ffffff;stroke-width:6.9814105;stroke-miterlimit:4;stroke-opacity:1;stroke-dasharray:none"
   sodipodi:type="arc" /><path
   inkscape:connector-curvature="0"
   d="m 25.423217,21.253521 c -5e-6,0.98826 -0.03722,1.909407 -0.111652,2.763444 -0.07445,0.85405 -0.173685,1.720294 -0.297739,2.598735 l -2.121382,0 c -0.124058,-0.878441 -0.229508,-1.744685 -0.316347,-2.598735 -0.07444,-0.854037 -0.111652,-1.775184 -0.111651,-2.763444 l 0,-3.27587 2.958771,0 0,3.27587 m 0.241911,7.960914 c -4e-6,0.53683 -0.179887,0.951651 -0.539649,1.244465 -0.347365,0.292815 -0.744349,0.439223 -1.190953,0.439223 -0.446609,0 -0.849795,-0.146408 -1.209559,-0.439223 -0.347363,-0.292814 -0.521043,-0.707635 -0.521042,-1.244465 -1e-6,-0.536826 0.173679,-0.951647 0.521042,-1.244464 0.359764,-0.292813 0.76295,-0.43922 1.209559,-0.439223 0.446604,3e-6 0.843588,0.14641 1.190953,0.439223 0.359762,0.292817 0.539645,0.707638 0.539649,1.244464"
   style="font-size:22px;font-style:normal;font-variant:normal;font-weight:bold;font-stretch:normal;line-height:125%;letter-spacing:0px;word-spacing:0px;fill:#000000;stroke:#ffffff;stroke-width:9.70318031;stroke-miterlimit:4;stroke-opacity:1;stroke-dasharray:none;font-family:Ubuntu;-inkscape-font-specification:Ubuntu Bold"
   id="path3765" /><path
   sodipodi:type="arc"
   style="fill:#ffffff;fill-opacity:1;stroke:#000000;stroke-width:2.5652945;stroke-miterlimit:4;stroke-opacity:1;stroke-dasharray:none"
   id="path2988-8"
   sodipodi:cx="24.692875"
   sodipodi:cy="26.771498"
   sodipodi:rx="8.6240788"
   sodipodi:ry="8.2555285"
   d="m 33.316954,26.771498 a 8.6240788,8.2555285 0 1 1 -17.248158,0 8.6240788,8.2555285 0 1 1 17.248158,0 z"
   transform="matrix(1.5631662,0,0,1.6820168,-14.631555,-21.042302)" /><path
   inkscape:connector-curvature="0"
   id="path3830"
   style="font-size:17.90568733px;font-style:normal;font-variant:normal;font-weight:bold;font-stretch:normal;line-height:125%;letter-spacing:0px;word-spacing:0px;fill:#000000;font-family:Ubuntu;-inkscape-font-specification:Ubuntu Bold"
   d="m 25.201448,30.785116 -2.672772,0 0,-9.279424 2.672772,0 0,9.279424 m 0.251134,-11.960931 c -4e-6,0.482212 -0.161446,0.864443 -0.484328,1.146697 -0.31093,0.270513 -0.68165,0.405764 -1.112161,0.405754 -0.430515,10e-6 -0.807215,-0.135241 -1.130099,-0.405754 -0.310927,-0.282254 -0.466389,-0.664485 -0.466388,-1.146697 -1e-6,-0.482189 0.155461,-0.85854 0.466388,-1.129056 0.322884,-0.28225 0.699584,-0.423382 1.130099,-0.423395 0.430511,1.3e-5 0.801231,0.141145 1.112161,0.423395 0.322882,0.270516 0.484324,0.646867 0.484328,1.129056" /></g>
	</g>
	
</svg>