<?xml version="1.0" encoding="UTF-8" standalone="no"?>
<!-- Created with Inkscape (http://www.inkscape.org/) -->

<svg
   xmlns:dc="http://purl.org/dc/elements/1.1/"
   xmlns:cc="http://creativecommons.org/ns#"
   xmlns:rdf="http://www.w3.org/1999/02/22-rdf-syntax-ns#"
   xmlns:svg="http://www.w3.org/2000/svg"
   xmlns="http://www.w3.org/2000/svg"
   version="1.0"
   width="48"
   height="48"
   viewBox="0 0 48 48"
   id="svg2"
   xml:space="preserve"><metadata
   id="metadata23"><rdf:RDF><cc:Work
       rdf:about=""><dc:format>image/svg+xml</dc:format><dc:type
         rdf:resource="http://purl.org/dc/dcmitype/StillImage" /><dc:title></dc:title><dc:subject><rdf:Bag><rdf:li>trash</rdf:li><rdf:li>delete</rdf:li><rdf:li>deleted files</rdf:li><rdf:li>waste</rdf:li><rdf:li>recycle</rdf:li><rdf:li>bin</rdf:li><rdf:li>empty</rdf:li></rdf:Bag></dc:subject><dc:description>An empty trash bin</dc:description><cc:license
         rdf:resource="http://creativecommons.org/licenses/LGPL/2.1/" /></cc:Work><cc:License
       rdf:about="http://creativecommons.org/licenses/LGPL/2.1/"><cc:permits
         rdf:resource="http://web.resource.org/cc/Reproduction" /><cc:permits
         rdf:resource="http://web.resource.org/cc/Distribution" /><cc:requires
         rdf:resource="http://web.resource.org/cc/Notice" /><cc:permits
         rdf:resource="http://web.resource.org/cc/DerivativeWorks" /><cc:requires
         rdf:resource="http://web.resource.org/cc/ShareAlike" /><cc:requires
         rdf:resource="http://web.resource.org/cc/SourceCode" /></cc:License></rdf:RDF></metadata><defs
   id="defs21" />
	
	
<g
   transform="matrix(0.83279115,0,0,0.84093027,4.0260247,4.9451147)"
   id="g3762"
   style="stroke:#ffffff;stroke-width:9.55964851;stroke-linecap:round;stroke-linejoin:round;stroke-miterlimit:4;stroke-opacity:1;stroke-dasharray:none"><path
     d="m 24,15 c -5.863565,0 -11.639769,1.553513 -16.09375,3.96875 -4.4539811,2.415237 -7.93750002,5.755768 -7.9375,9.96875 0,4.212982 3.4835189,7.553513 7.9375,9.96875 4.453981,2.415237 10.230185,3.968751 16.09375,3.96875 5.863564,0 11.608519,-1.553513 16.0625,-3.96875 C 44.516481,36.491013 47.999999,33.150482 48,28.9375 48,24.724518 44.516481,21.383987 40.0625,18.96875 35.608519,16.553513 29.863564,15 24,15 z m 0,4 c 5.140544,0 10.357149,1.439882 14.15625,3.5 C 41.955351,24.560118 44,27.18334 44,28.9375 c 0,1.75416 -2.044649,4.377382 -5.84375,6.4375 -3.799101,2.060118 -9.015706,3.5 -14.15625,3.5 -5.140545,10e-7 -10.388399,-1.439881 -14.1875,-3.5 C 6.0133989,33.314881 3.96875,30.691659 3.96875,28.9375 3.96875,27.183341 6.0133989,24.560118 9.8125,22.5 13.611601,20.439882 18.859455,19 24,19 z"
     id="path3764"
     style="fill:#000000;fill-opacity:1;fill-rule:evenodd;stroke:#ffffff;stroke-width:9.55964851;stroke-linecap:round;stroke-linejoin:round;stroke-miterlimit:4;stroke-opacity:1;stroke-dasharray:none" /><path
     d="M 24,13 24,2.0000001"
     id="path3766"
     style="fill:none;stroke:#ffffff;stroke-width:9.55964851;stroke-linecap:round;stroke-linejoin:round;stroke-miterlimit:4;stroke-opacity:1;stroke-dasharray:none" /><path
     d="M 11,15 7,7"
     id="path3768"
     style="fill:none;stroke:#ffffff;stroke-width:9.55964851;stroke-linecap:round;stroke-linejoin:round;stroke-miterlimit:4;stroke-opacity:1;stroke-dasharray:none" /><path
     d="M 37,15 42,7"
     id="path3770"
     style="fill:none;stroke:#ffffff;stroke-width:9.55964851;stroke-linecap:round;stroke-linejoin:round;stroke-miterlimit:4;stroke-opacity:1;stroke-dasharray:none" /><path
     d="m 29,29 c 0,2.761424 -2.238576,5 -5,5 -2.761424,0 -5,-2.238576 -5,-5 0,-2.761424 2.238576,-5 5,-5 2.761424,0 5,2.238576 5,5 z"
     transform="matrix(1.2,0,0,1.2,-4.8,-5.8)"
     id="path3772"
     style="color:#000000;fill:#000000;fill-opacity:1;fill-rule:nonzero;stroke:#ffffff;stroke-width:7.96637392;stroke-dashoffset:0;marker:none;visibility:visible;display:inline;overflow:visible;enable-background:accumulate" /></g><g
   transform="matrix(0.83279115,0,0,0.84093027,4.0260247,4.9451147)"
   id="g3755"><path
     d="m 24,15 c -5.863565,0 -11.639769,1.553513 -16.09375,3.96875 -4.4539811,2.415237 -7.93750002,5.755768 -7.9375,9.96875 0,4.212982 3.4835189,7.553513 7.9375,9.96875 4.453981,2.415237 10.230185,3.968751 16.09375,3.96875 5.863564,0 11.608519,-1.553513 16.0625,-3.96875 C 44.516481,36.491013 47.999999,33.150482 48,28.9375 48,24.724518 44.516481,21.383987 40.0625,18.96875 35.608519,16.553513 29.863564,15 24,15 z m 0,4 c 5.140544,0 10.357149,1.439882 14.15625,3.5 C 41.955351,24.560118 44,27.18334 44,28.9375 c 0,1.75416 -2.044649,4.377382 -5.84375,6.4375 -3.799101,2.060118 -9.015706,3.5 -14.15625,3.5 -5.140545,10e-7 -10.388399,-1.439881 -14.1875,-3.5 C 6.0133989,33.314881 3.96875,30.691659 3.96875,28.9375 3.96875,27.183341 6.0133989,24.560118 9.8125,22.5 13.611601,20.439882 18.859455,19 24,19 z"
     id="path2224"
     style="fill:#000000;fill-opacity:1;fill-rule:evenodd;stroke:none" /><path
     d="M 24,13 24,2.0000001"
     id="path4181"
     style="fill:none;stroke:#000000;stroke-width:4;stroke-linecap:butt;stroke-linejoin:miter;stroke-miterlimit:4;stroke-opacity:1;stroke-dasharray:none" /><path
     d="M 11,15 7,7"
     id="path5152"
     style="fill:none;stroke:#000000;stroke-width:4;stroke-linecap:butt;stroke-linejoin:miter;stroke-miterlimit:4;stroke-opacity:1;stroke-dasharray:none" /><path
     d="M 37,15 42,7"
     id="path5154"
     style="fill:none;stroke:#000000;stroke-width:4;stroke-linecap:butt;stroke-linejoin:round;stroke-miterlimit:4;stroke-opacity:1;stroke-dasharray:none" /><path
     d="m 29,29 c 0,2.761424 -2.238576,5 -5,5 -2.761424,0 -5,-2.238576 -5,-5 0,-2.761424 2.238576,-5 5,-5 2.761424,0 5,2.238576 5,5 z"
     transform="matrix(1.2,0,0,1.2,-4.8,-5.8)"
     id="path5156"
     style="color:#000000;fill:#000000;fill-opacity:1;fill-rule:nonzero;stroke:#000000;stroke-width:3.33333325;stroke-linecap:round;stroke-linejoin:round;stroke-miterlimit:4;stroke-opacity:1;stroke-dashoffset:0;marker:none;visibility:visible;display:inline;overflow:visible;enable-background:accumulate" /></g><path
   d="m 23.784391,20.518449 c -5.137834,0.146921 -10.439999,1.558043 -14.462543,4.861359 -1.4695517,1.237634 -3.0269094,3.281396 -2.0274078,5.270155 1.9102962,3.369182 5.6978298,5.093337 9.2255338,6.259 6.676908,2.149209 14.268112,1.173448 20.263028,-2.369912 1.864593,-1.261307 4.029328,-2.901291 4.242641,-5.319874 -0.157349,-2.264148 -2.173807,-3.822201 -3.900136,-5.021563 -3.952917,-2.479709 -8.698495,-3.660946 -13.341116,-3.679165 z m 0.07734,2.563262 c 3.334792,-0.192085 6.307346,2.763791 6.347388,6.043553 0.179135,3.409232 -2.874325,6.693902 -6.314242,6.457874 -3.258844,-0.01102 -6.228981,-2.984876 -6.026981,-6.281097 -0.214858,-3.315946 2.796773,-6.145018 5.993835,-6.22033 z"
   id="path2994"
   style="fill:#ffffff;fill-opacity:1;stroke:none" /></svg>