<?xml version="1.0" encoding="UTF-8" standalone="no"?>
<!-- Created with Inkscape (http://www.inkscape.org/) -->

<svg
   xmlns:dc="http://purl.org/dc/elements/1.1/"
   xmlns:cc="http://creativecommons.org/ns#"
   xmlns:rdf="http://www.w3.org/1999/02/22-rdf-syntax-ns#"
   xmlns:svg="http://www.w3.org/2000/svg"
   xmlns="http://www.w3.org/2000/svg"
   xmlns:sodipodi="http://sodipodi.sourceforge.net/DTD/sodipodi-0.dtd"
   xmlns:inkscape="http://www.inkscape.org/namespaces/inkscape"
   version="1.0"
   width="48"
   height="48"
   id="svg2"
   inkscape:version="0.48.3.1 r9886"
   sodipodi:docname="accessories-character-map.svg">
  <sodipodi:namedview
     pagecolor="#ffffff"
     bordercolor="#666666"
     borderopacity="1"
     objecttolerance="10"
     gridtolerance="10"
     guidetolerance="10"
     inkscape:pageopacity="0"
     inkscape:pageshadow="2"
     inkscape:window-width="640"
     inkscape:window-height="480"
     id="namedview12"
     showgrid="false"
     inkscape:zoom="4.9166667"
     inkscape:cx="24"
     inkscape:cy="24"
     inkscape:window-x="0"
     inkscape:window-y="0"
     inkscape:window-maximized="0"
     inkscape:current-layer="svg2" />
  <defs
     id="defs13" />
  <metadata
     id="metadata7">
    <rdf:RDF>
      <cc:Work
         rdf:about="">
        <dc:format>image/svg+xml</dc:format>
        <dc:type
           rdf:resource="http://purl.org/dc/dcmitype/StillImage" />
        <cc:license
           rdf:resource="http://creativecommons.org/licenses/GPL/2.0/" />
        <dc:title />
        <dc:date>May 2009</dc:date>
        <dc:creator>
          <cc:Agent>
            <dc:title>Luca Ferretti</dc:title>
          </cc:Agent>
        </dc:creator>
        <dc:publisher>
          <cc:Agent>
            <dc:title>gnome.org</dc:title>
          </cc:Agent>
        </dc:publisher>
        <dc:subject>
          <rdf:Bag>
            <rdf:li>system</rdf:li>
            <rdf:li>monitor</rdf:li>
            <rdf:li>status</rdf:li>
          </rdf:Bag>
        </dc:subject>
      </cc:Work>
      <cc:License
         rdf:about="http://creativecommons.org/licenses/GPL/2.0/">
        <cc:permits
           rdf:resource="http://web.resource.org/cc/Reproduction" />
        <cc:permits
           rdf:resource="http://web.resource.org/cc/Distribution" />
        <cc:requires
           rdf:resource="http://web.resource.org/cc/Notice" />
        <cc:permits
           rdf:resource="http://web.resource.org/cc/DerivativeWorks" />
        <cc:requires
           rdf:resource="http://web.resource.org/cc/ShareAlike" />
        <cc:requires
           rdf:resource="http://web.resource.org/cc/SourceCode" />
      </cc:License>
    </rdf:RDF>
  </metadata>
  <g
     id="layer1">
    <rect
       width="60"
       height="60"
       x="0"
       y="0"
       id="rect1306"
       style="fill:none;display:none" />
    <rect
       width="48"
       height="48"
       rx="0"
       ry="0.16787"
       x="0"
       y="0"
       id="rect2386"
       style="fill:none" />
    <rect
       width="40"
       height="40"
       ry="4.6679001"
       x="4"
       y="4"
       id="rect3160"
       style="fill:#ffffff;stroke:#ffffff;stroke-width:8;stroke-linejoin:round" />
    <rect
       width="40"
       height="40"
       ry="3.9179001"
       x="4"
       y="4"
       id="rect3158" />
    <rect
       width="32"
       height="32"
       ry="2.9179001"
       x="8"
       y="8"
       id="rect3162"
       style="fill:#ffffff" />
    <path
       d="m 24.551524,28.507168 c -1.153783,0 -2.022752,0.189062 -2.609815,0.568597 -0.576891,0.380947 -0.866064,0.941082 -0.866064,1.6804 0,0.680061 0.2325,1.214798 0.696048,1.604211 0.473719,0.380946 1.127626,0.570009 1.961721,0.570009 1.038985,0 1.91522,-0.359783 2.625799,-1.079349 0.710579,-0.729444 1.065141,-1.639485 1.065141,-2.730121 v -0.613747 h -2.87283 M 33,26.482505 v 9.582932 H 27.424354 V 33.575173 C 26.68326,34.595265 25.849165,35.340226 24.92207,35.810062 23.994976,36.27002 22.867351,36.5 21.539193,36.5 19.747488,36.5 18.291456,35.994892 17.168189,34.984677 16.056548,33.965997 15.5,32.64538 15.5,31.025651 c 0,-1.969637 0.694595,-3.414415 2.085236,-4.334331 1.400814,-0.919917 3.593582,-1.379876 6.579756,-1.379876 h 3.259362 v -0.419042 c 0,-0.850782 -0.34439,-1.470172 -1.034625,-1.859586 -0.690235,-0.400698 -1.76555,-0.599638 -3.228847,-0.599638 -1.184298,0 -2.285768,0.114282 -3.30441,0.344263 -1.020094,0.22998 -1.967532,0.575654 -2.842314,1.034201 v -4.093063 c 1.184297,-0.280773 2.372955,-0.490999 3.567424,-0.63068 1.19447,-0.149557 2.38894,-0.224336 3.58341,-0.224336 3.119862,0 5.370755,0.599639 6.749771,1.798917 C 32.305405,21.853292 33,23.791889 33,26.482505 M 22.836835,11.5 27.193307,17.138015 H 24.164992 L 18.46583,11.5 h 4.371005"
       id="text3184"
       inkscape:connector-curvature="0" />
  </g>
</svg>
