<?xml version="1.0" encoding="UTF-8" standalone="no"?>
<!-- Created with Inkscape (http://www.inkscape.org/) -->

<svg
   xmlns:dc="http://purl.org/dc/elements/1.1/"
   xmlns:cc="http://creativecommons.org/ns#"
   xmlns:rdf="http://www.w3.org/1999/02/22-rdf-syntax-ns#"
   xmlns:svg="http://www.w3.org/2000/svg"
   xmlns="http://www.w3.org/2000/svg"
   version="1.1"
   width="48"
   height="48"
   id="svg1872">
  <defs
     id="defs23" />
  <metadata
     id="metadata1877">
    <rdf:RDF>
      <cc:Work
         rdf:about="">
        <dc:format>image/svg+xml</dc:format>
        <dc:type
           rdf:resource="http://purl.org/dc/dcmitype/StillImage" />
        <dc:title></dc:title>
        <dc:creator>
          <cc:Agent>
            <dc:title>Luca Ferretti &lt;elle.uca@libero.it&gt;</dc:title>
          </cc:Agent>
        </dc:creator>
        <dc:subject>
          <rdf:Bag>
            <rdf:li>keyboard device input</rdf:li>
          </rdf:Bag>
        </dc:subject>
        <dc:description>A keybord</dc:description>
        <cc:license
           rdf:resource="http://creativecommons.org/licenses/LGPL/2.1/" />
      </cc:Work>
      <cc:License
         rdf:about="http://creativecommons.org/licenses/LGPL/2.1/">
        <cc:permits
           rdf:resource="http://web.resource.org/cc/Reproduction" />
        <cc:permits
           rdf:resource="http://web.resource.org/cc/Distribution" />
        <cc:requires
           rdf:resource="http://web.resource.org/cc/Notice" />
        <cc:permits
           rdf:resource="http://web.resource.org/cc/DerivativeWorks" />
        <cc:requires
           rdf:resource="http://web.resource.org/cc/ShareAlike" />
        <cc:requires
           rdf:resource="http://web.resource.org/cc/SourceCode" />
      </cc:License>
    </rdf:RDF>
  </metadata>
  <g
     id="layer1">
    <rect
       width="40"
       height="26"
       rx="2.0383999"
       ry="2.2341001"
       x="4"
       y="10"
       id="rect4564"
       style="fill-rule:evenodd;stroke:#ffffff;stroke-width:8" />
    <rect
       width="40"
       height="26"
       rx="2.0383999"
       ry="2.2341001"
       x="4"
       y="10"
       id="rect1880"
       style="fill-rule:evenodd" />
    <path
       d="M 14,30 H 33"
       id="path2768"
       style="fill:none;stroke:#ffffff;stroke-width:4" />
    <path
       d="m 7,30 h 5"
       id="path3655"
       style="fill:none;stroke:#ffffff;stroke-width:4" />
    <path
       d="m 35,30 h 6"
       id="path3657"
       style="fill:none;stroke:#ffffff;stroke-width:4" />
    <path
       d="m 7,16 h 4"
       id="path3659"
       style="fill:none;stroke:#ffffff;stroke-width:4" />
    <path
       d="m 13,16 h 4"
       id="path3661"
       style="fill:none;stroke:#ffffff;stroke-width:4" />
    <path
       d="m 19,16 h 4"
       id="path3663"
       style="fill:none;stroke:#ffffff;stroke-width:4" />
    <path
       d="m 25,16 h 4"
       id="path3665"
       style="fill:none;stroke:#ffffff;stroke-width:4" />
    <path
       d="m 31,16 h 4"
       id="path3667"
       style="fill:none;stroke:#ffffff;stroke-width:4" />
    <path
       d="m 34,23 h 4"
       id="path3669"
       style="fill:none;stroke:#ffffff;stroke-width:4" />
    <path
       d="m 28,23 h 4"
       id="path3671"
       style="fill:none;stroke:#ffffff;stroke-width:4" />
    <path
       d="m 22,23 h 4"
       id="path3673"
       style="fill:none;stroke:#ffffff;stroke-width:4" />
    <path
       d="m 16,23 h 4"
       id="path3675"
       style="fill:none;stroke:#ffffff;stroke-width:4" />
    <path
       d="m 37,16 h 4"
       id="path5451"
       style="fill:none;stroke:#ffffff;stroke-width:4" />
    <path
       d="m 10,23 h 4"
       id="path5453"
       style="fill:none;stroke:#ffffff;stroke-width:4" />
  </g>
  <g
     id="g3048"
     style="stroke:#ffffff;stroke-width:7;stroke-miterlimit:4;stroke-opacity:1;stroke-dasharray:none">
    <path
       d="m 43.886801,32.135593 a 11.509276,12.054405 0 0 1 -23.018551,0 11.509276,12.054405 0 1 1 23.018551,0 z"
       id="path3050"
       style="fill:#ffffff;fill-opacity:1;fill-rule:nonzero;stroke:#ffffff;stroke-width:7;stroke-miterlimit:4;stroke-opacity:1;stroke-dasharray:none" />
    <g
       transform="matrix(0.72214034,0,0,0.72214034,21.660063,14.620765)"
       id="g3052"
       style="font-size:4px;font-style:normal;font-weight:normal;line-height:125%;letter-spacing:0px;word-spacing:0px;fill:#000000;fill-opacity:1;fill-rule:nonzero;stroke:#ffffff;stroke-width:9.69340706;stroke-miterlimit:4;stroke-opacity:1;stroke-dasharray:none;font-family:Sans">
      <path
         d="m 16.47425,32.275103 -3.278,0 0,-11.572 3.278,0 0,11.572 m 0.308,-14.916 c -5e-6,0.601348 -0.198005,1.078014 -0.594,1.43 -0.381337,0.337347 -0.836004,0.506013 -1.364,0.506 -0.528003,1.3e-5 -0.990002,-0.168653 -1.386,-0.506 -0.381335,-0.351986 -0.572001,-0.828652 -0.572,-1.43 -1e-6,-0.601317 0.190665,-1.07065 0.572,-1.408 0.395998,-0.351983 0.857997,-0.527983 1.386,-0.528 0.527996,1.7e-5 0.982663,0.176017 1.364,0.528 0.395995,0.33735 0.593995,0.806683 0.594,1.408"
         id="path3054"
         style="font-size:22px;font-variant:normal;font-weight:bold;font-stretch:normal;stroke:#ffffff;stroke-width:9.69340706;stroke-miterlimit:4;stroke-opacity:1;stroke-dasharray:none;font-family:Ubuntu;-inkscape-font-specification:Ubuntu Bold" />
    </g>
  </g>
  <g
     id="g3043">
    <path
       d="m 43.886801,32.135593 a 11.509276,12.054405 0 0 1 -23.018551,0 11.509276,12.054405 0 1 1 23.018551,0 z"
       id="path2988-8"
       style="fill:#ffffff;fill-opacity:1;fill-rule:nonzero;stroke:#000000;stroke-width:2.38733864;stroke-miterlimit:4;stroke-opacity:1;stroke-dasharray:none" />
    <g
       transform="matrix(0.72214034,0,0,0.72214034,21.660063,14.620765)"
       id="flowRoot2989"
       style="font-size:4px;font-style:normal;font-weight:normal;line-height:125%;letter-spacing:0px;word-spacing:0px;fill:#000000;fill-opacity:1;fill-rule:nonzero;stroke:none;font-family:Sans">
      <path
         d="m 16.47425,32.275103 -3.278,0 0,-11.572 3.278,0 0,11.572 m 0.308,-14.916 c -5e-6,0.601348 -0.198005,1.078014 -0.594,1.43 -0.381337,0.337347 -0.836004,0.506013 -1.364,0.506 -0.528003,1.3e-5 -0.990002,-0.168653 -1.386,-0.506 -0.381335,-0.351986 -0.572001,-0.828652 -0.572,-1.43 -1e-6,-0.601317 0.190665,-1.07065 0.572,-1.408 0.395998,-0.351983 0.857997,-0.527983 1.386,-0.528 0.527996,1.7e-5 0.982663,0.176017 1.364,0.528 0.395995,0.33735 0.593995,0.806683 0.594,1.408"
         id="path3058"
         style="font-size:22px;font-variant:normal;font-weight:bold;font-stretch:normal;font-family:Ubuntu;-inkscape-font-specification:Ubuntu Bold" />
    </g>
  </g>
</svg>
