<?xml version="1.0" encoding="UTF-8" standalone="no"?>
<!-- Created with Inkscape (http://www.inkscape.org/) -->

<svg
   xmlns:dc="http://purl.org/dc/elements/1.1/"
   xmlns:cc="http://creativecommons.org/ns#"
   xmlns:rdf="http://www.w3.org/1999/02/22-rdf-syntax-ns#"
   xmlns:svg="http://www.w3.org/2000/svg"
   xmlns="http://www.w3.org/2000/svg"
   version="1.1"
   width="48"
   height="48"
   id="svg1872">
  <defs
     id="defs23" />
  <metadata
     id="metadata1877">
    <rdf:RDF>
      <cc:Work
         rdf:about="">
        <dc:format>image/svg+xml</dc:format>
        <dc:type
           rdf:resource="http://purl.org/dc/dcmitype/StillImage" />
        <dc:title></dc:title>
        <dc:creator>
          <cc:Agent>
            <dc:title>Luca Ferretti &lt;elle.uca@libero.it&gt;</dc:title>
          </cc:Agent>
        </dc:creator>
        <dc:subject>
          <rdf:Bag>
            <rdf:li>keyboard device input</rdf:li>
          </rdf:Bag>
        </dc:subject>
        <dc:description>A keybord</dc:description>
        <cc:license
           rdf:resource="http://creativecommons.org/licenses/LGPL/2.1/" />
      </cc:Work>
      <cc:License
         rdf:about="http://creativecommons.org/licenses/LGPL/2.1/">
        <cc:permits
           rdf:resource="http://web.resource.org/cc/Reproduction" />
        <cc:permits
           rdf:resource="http://web.resource.org/cc/Distribution" />
        <cc:requires
           rdf:resource="http://web.resource.org/cc/Notice" />
        <cc:permits
           rdf:resource="http://web.resource.org/cc/DerivativeWorks" />
        <cc:requires
           rdf:resource="http://web.resource.org/cc/ShareAlike" />
        <cc:requires
           rdf:resource="http://web.resource.org/cc/SourceCode" />
      </cc:License>
    </rdf:RDF>
  </metadata>
  <g
     id="layer1">
    <rect
       width="40"
       height="26"
       rx="2.0383999"
       ry="2.2341001"
       x="4"
       y="10"
       id="rect4564"
       style="fill-rule:evenodd;stroke:#ffffff;stroke-width:8" />
    <rect
       width="40"
       height="26"
       rx="2.0383999"
       ry="2.2341001"
       x="4"
       y="10"
       id="rect1880"
       style="fill-rule:evenodd" />
    <path
       d="M 14,30 H 33"
       id="path2768"
       style="fill:none;stroke:#ffffff;stroke-width:4" />
    <path
       d="m 7,30 h 5"
       id="path3655"
       style="fill:none;stroke:#ffffff;stroke-width:4" />
    <path
       d="m 35,30 h 6"
       id="path3657"
       style="fill:none;stroke:#ffffff;stroke-width:4" />
    <path
       d="m 7,16 h 4"
       id="path3659"
       style="fill:none;stroke:#ffffff;stroke-width:4" />
    <path
       d="m 13,16 h 4"
       id="path3661"
       style="fill:none;stroke:#ffffff;stroke-width:4" />
    <path
       d="m 19,16 h 4"
       id="path3663"
       style="fill:none;stroke:#ffffff;stroke-width:4" />
    <path
       d="m 25,16 h 4"
       id="path3665"
       style="fill:none;stroke:#ffffff;stroke-width:4" />
    <path
       d="m 31,16 h 4"
       id="path3667"
       style="fill:none;stroke:#ffffff;stroke-width:4" />
    <path
       d="m 34,23 h 4"
       id="path3669"
       style="fill:none;stroke:#ffffff;stroke-width:4" />
    <path
       d="m 28,23 h 4"
       id="path3671"
       style="fill:none;stroke:#ffffff;stroke-width:4" />
    <path
       d="m 22,23 h 4"
       id="path3673"
       style="fill:none;stroke:#ffffff;stroke-width:4" />
    <path
       d="m 16,23 h 4"
       id="path3675"
       style="fill:none;stroke:#ffffff;stroke-width:4" />
    <path
       d="m 37,16 h 4"
       id="path5451"
       style="fill:none;stroke:#ffffff;stroke-width:4" />
    <path
       d="m 10,23 h 4"
       id="path5453"
       style="fill:none;stroke:#ffffff;stroke-width:4" />
  </g>
  <g
     transform="matrix(0.62450663,0,0,0.62450663,17.624683,18.097106)"
     id="Layer_x0020_4"
     style="stroke:#000000">
    <g
       id="g5">
      <path
         d="m 42.8,22.9 -2.4,-8.1 -5.6,1.6 c -1.1,-1.6 -2.7,-3 -4.4,-4 L 31.3,6.9 22.1,5.7 21.3,11 c -0.3,0.1 -0.7,0.2 -1,0.3 -1.2,0.3 -2.3,0.9 -3.3,1.5 L 12.7,9.5 7,16.4 l 4.5,3.5 c -0.4,1.1 -0.6,2.3 -0.6,3.6 l -5.6,1.6 2.4,8.1 5.6,-1.6 c 1.1,1.6 2.7,3 4.4,4 l -0.9,5.5 9.2,1.2 0.8,-5.3 c 0.3,-0.1 0.7,-0.2 1,-0.3 1.2,-0.3 2.3,-0.9 3.3,-1.5 l 4.3,3.3 5.7,-6.9 -4.5,-3.5 C 37,27 37.2,25.8 37.2,24.5 l 5.6,-1.6 z m -17.5,5.9 c -2.8,0.8 -5.8,-0.8 -6.7,-3.6 -0.9,-2.8 0.8,-5.8 3.6,-6.7 2.8,-0.8 5.8,0.8 6.7,3.6 0.8,2.8 -0.8,5.8 -3.6,6.7 z"
         id="path7"
         style="fill:none;stroke:#ffffff;stroke-width:7.45779991;stroke-linejoin:round" />
      <path
         d="m 42.8,22.9 -2.4,-8.1 -5.6,1.6 c -1.1,-1.6 -2.7,-3 -4.4,-4 L 31.3,6.9 22.1,5.7 21.3,11 c -0.3,0.1 -0.7,0.2 -1,0.3 -1.2,0.3 -2.3,0.9 -3.3,1.5 L 12.7,9.5 7,16.4 l 4.5,3.5 c -0.4,1.1 -0.6,2.3 -0.6,3.6 l -5.6,1.6 2.4,8.1 5.6,-1.6 c 1.1,1.6 2.7,3 4.4,4 l -0.9,5.5 9.2,1.2 0.8,-5.3 c 0.3,-0.1 0.7,-0.2 1,-0.3 1.2,-0.3 2.3,-0.9 3.3,-1.5 l 4.3,3.3 5.7,-6.9 -4.5,-3.5 C 37,27 37.2,25.8 37.2,24.5 l 5.6,-1.6 z m -17.5,5.9 c -2.8,0.8 -5.8,-0.8 -6.7,-3.6 -0.9,-2.8 0.8,-5.8 3.6,-6.7 2.8,-0.8 5.8,0.8 6.7,3.6 0.8,2.8 -0.8,5.8 -3.6,6.7 z"
         id="path9" />
    </g>
  </g>
</svg>
