<?xml version="1.0" encoding="UTF-8" standalone="no"?>
<!-- Created with Inkscape (http://www.inkscape.org/) -->

<svg
   xmlns:dc="http://purl.org/dc/elements/1.1/"
   xmlns:cc="http://creativecommons.org/ns#"
   xmlns:rdf="http://www.w3.org/1999/02/22-rdf-syntax-ns#"
   xmlns:svg="http://www.w3.org/2000/svg"
   xmlns="http://www.w3.org/2000/svg"
   xmlns:xlink="http://www.w3.org/1999/xlink"
   xmlns:sodipodi="http://sodipodi.sourceforge.net/DTD/sodipodi-0.dtd"
   xmlns:inkscape="http://www.inkscape.org/namespaces/inkscape"
   inkscape:export-ydpi="90.000000"
   inkscape:export-xdpi="90.000000"
   inkscape:export-filename="/home/jimmac/Desktop/wi-fi.png"
   width="48px"
   height="48px"
   id="svg11300"
   sodipodi:version="0.32"
   inkscape:version="0.48.3.1 r9886"
   sodipodi:docname="im-icq.svg"
   inkscape:output_extension="org.inkscape.output.svg.inkscape"
   version="1.1">
  <defs
     id="defs3">
    <linearGradient
       inkscape:collect="always"
       id="linearGradient4876">
      <stop
         style="stop-color:#000000;stop-opacity:1;"
         offset="0"
         id="stop4878" />
      <stop
         style="stop-color:#000000;stop-opacity:0;"
         offset="1"
         id="stop4880" />
    </linearGradient>
    <radialGradient
       inkscape:collect="always"
       xlink:href="#linearGradient4876"
       id="radialGradient4882"
       cx="24.25"
       cy="39.5"
       fx="24.25"
       fy="39.5"
       r="19.75"
       gradientTransform="matrix(1,0,0,0.341772,0,26)"
       gradientUnits="userSpaceOnUse" />
  </defs>
  <sodipodi:namedview
     stroke="#fcaf3e"
     fill="#edd400"
     id="base"
     pagecolor="#ffffff"
     bordercolor="#666666"
     borderopacity="0.25490196"
     inkscape:pageopacity="0.0"
     inkscape:pageshadow="2"
     inkscape:zoom="4"
     inkscape:cx="21.878887"
     inkscape:cy="20.512395"
     inkscape:current-layer="layer1"
     showgrid="false"
     inkscape:grid-bbox="true"
     inkscape:document-units="px"
     inkscape:showpageshadow="false"
     inkscape:window-width="780"
     inkscape:window-height="622"
     inkscape:window-x="498"
     inkscape:window-y="94"
     showguides="true"
     inkscape:guide-bbox="true"
     inkscape:window-maximized="0" />
  <metadata
     id="metadata4">
    <rdf:RDF>
      <cc:Work
         rdf:about="">
        <dc:format>image/svg+xml</dc:format>
        <dc:type
           rdf:resource="http://purl.org/dc/dcmitype/StillImage" />
        <dc:creator>
          <cc:Agent>
            <dc:title>Jakub Steiner</dc:title>
          </cc:Agent>
        </dc:creator>
        <dc:source>http://jimmac.musichall.cz</dc:source>
        <cc:license
           rdf:resource="http://creativecommons.org/licenses/GPL/2.0/" />
        <dc:title>IM - ICQ</dc:title>
      </cc:Work>
      <cc:License
         rdf:about="http://creativecommons.org/licenses/GPL/2.0/">
        <cc:permits
           rdf:resource="http://web.resource.org/cc/Reproduction" />
        <cc:permits
           rdf:resource="http://web.resource.org/cc/Distribution" />
        <cc:requires
           rdf:resource="http://web.resource.org/cc/Notice" />
        <cc:permits
           rdf:resource="http://web.resource.org/cc/DerivativeWorks" />
        <cc:requires
           rdf:resource="http://web.resource.org/cc/ShareAlike" />
        <cc:requires
           rdf:resource="http://web.resource.org/cc/SourceCode" />
      </cc:License>
    </rdf:RDF>
  </metadata>
  <g
     id="layer1"
     inkscape:label="Layer 1"
     inkscape:groupmode="layer">
    <g
       transform="matrix(0.8353896,0,0,0.8353896,3.7448477,4.857122)"
       id="g3014"
       style="stroke-width:9.57637011999999999;stroke-miterlimit:4;stroke-dasharray:none;stroke:#ffffff;stroke-opacity:1">
      <path
         inkscape:connector-curvature="0"
         style="color:#000000;fill:#000000;fill-opacity:1;fill-rule:evenodd;stroke:#ffffff;stroke-width:9.57637011999999999;marker:none;visibility:visible;display:inline;overflow:visible;stroke-miterlimit:4;stroke-dasharray:none;stroke-opacity:1"
         d="m 6.96875,17.09375 c -3.8396314,0.172496 -6.82829427,3.48291 -6.65625,7.3125 0.17246502,3.838958 3.467898,6.860217 7.3125,6.6875 0.1267008,-0.0089 0.2522679,-0.02981 0.375,-0.0625 l 12.5625,-2.9375 c 0.618076,-0.148791 1.128613,-0.582539 1.375314,-1.168453 C 22.184515,26.339383 22.137996,25.671085 21.8125,25.125 21.457923,24.543696 21.25,23.91442 21.25,23.25 c 0,-0.542365 0.123849,-1.060515 0.34375,-1.53125 0.262447,-0.572914 0.23956,-1.236008 -0.06177,-1.789462 C 21.230659,19.375833 20.686135,18.996741 20.0625,18.90625 L 7.34375,17.125 C 7.2200098,17.10282 7.0944543,17.09236 6.96875,17.09375 z M 7.125,21.125 17.40625,22.5625 C 17.382746,22.80322 17.25,23.003384 17.25,23.25 c 0,0.516975 0.116955,0.986364 0.21875,1.46875 l -10.0625,2.375 C 5.732183,27.152249 4.3881459,25.902578 4.3125,24.21875 4.2366344,22.530034 5.4546818,21.223083 7.125,21.125 z"
         id="path3016" />
      <path
         inkscape:connector-curvature="0"
         style="color:#000000;fill:#000000;fill-opacity:1;fill-rule:evenodd;stroke:#ffffff;stroke-width:9.57637011999999999;marker:none;visibility:visible;display:inline;overflow:visible;stroke-miterlimit:4;stroke-dasharray:none;stroke-opacity:1"
         d="M 33.59375,0.84375 C 30.872348,0.66837794 28.193923,2.1099593 26.90625,4.6875 26.843444,4.7968999 26.791127,4.9119959 26.75,5.03125 l -3.46875,12.0625 c -0.172864,0.586909 -0.0676,1.220654 0.285713,1.720167 0.353313,0.499512 0.915814,0.809846 1.526787,0.842333 1.270531,0.07897 2.322381,0.787389 2.90625,1.8125 0.331481,0.58912 0.93809,0.970958 1.612623,1.015086 0.674533,0.04413 1.325719,-0.255424 1.731127,-0.796336 l 7.875,-10.40625 c 0.07188,-0.09824 0.13464,-0.202845 0.1875,-0.3125 C 41.121194,7.5359402 39.758817,3.2841906 36.3125,1.5625 35.406633,1.1099515 34.457841,0.89943366 33.59375,0.84375 z m -0.25,4 C 33.776005,4.871605 34.167049,4.9586663 34.5,5.125 c 1.488427,0.7435797 2.058206,2.460867 1.34375,3.96875 l -6.3125,8.34375 C 28.967575,16.986301 28.364064,16.683987 27.6875,16.40625 l 2.875,-10 c 0.587199,-1.0560781 1.657371,-1.6349248 2.78125,-1.5625 z"
         id="path3018" />
      <path
         inkscape:connector-curvature="0"
         style="color:#000000;fill:#000000;fill-opacity:1;fill-rule:evenodd;stroke:#ffffff;stroke-width:9.57637011999999999;marker:none;visibility:visible;display:inline;overflow:visible;stroke-miterlimit:4;stroke-dasharray:none;stroke-opacity:1"
         d="m 10.03125,9.9375 c -1.9021798,0.103569 -3.7192454,1.15152 -4.75,2.875 -1.6586,2.773277 -0.7422252,6.43503 2.03125,8.09375 0.1093999,0.06281 0.2244959,0.115123 0.34375,0.15625 L 18.5625,25.125 c 0.612857,0.224242 1.296571,0.135412 1.831781,-0.23799 C 20.92949,24.513609 21.248888,23.902592 21.25,23.25 c 0,-0.863063 0.315454,-1.60389 0.84375,-2.25 0.290335,-0.363243 0.445036,-0.816295 0.4375,-1.28125 l 0,-0.03125 c -0.0026,-0.575634 -0.253166,-1.122222 -0.6875,-1.5 L 13.65625,11 C 13.569194,10.918862 13.475071,10.845655 13.375,10.78125 12.345943,10.165807 11.187031,9.8745702 10.03125,9.9375 z m 0.1875,4 c 0.334854,-0.01823 0.708956,0.07715 1.0625,0.28125 0.0097,0.0056 0.02153,-0.0058 0.03125,0 L 18,20.125 c -0.06935,0.148772 -0.158724,0.283455 -0.21875,0.4375 l -8.4375,-3.125 c -0.9040078,-0.568079 -1.1774142,-1.638831 -0.625,-2.5625 0.3563632,-0.59586 0.9024208,-0.904963 1.5,-0.9375 z"
         id="path3020" />
      <path
         inkscape:connector-curvature="0"
         style="color:#000000;fill:#000000;fill-opacity:1;fill-rule:evenodd;stroke:#ffffff;stroke-width:9.57637011999999999;marker:none;visibility:visible;display:inline;overflow:visible;stroke-miterlimit:4;stroke-dasharray:none;stroke-opacity:1"
         d="M 16.59375,1.0625 C 15.243065,0.94715819 13.868565,1.2448345 12.625,1.9375 9.263687,3.8097514 8.0342553,8.1078977 9.90625,11.46875 c 0.062795,0.110898 0.136044,0.21554 0.21875,0.3125 l 8.3125,10 c 0.422936,0.50477 1.067232,0.769019 1.7228,0.706584 0.655568,-0.06244 1.238399,-0.443554 1.55845,-1.019084 0.567803,-1.014737 1.622558,-1.713475 2.875,-1.8125 0.614727,-0.0457 1.174044,-0.372289 1.515974,-0.885184 0.34193,-0.512895 0.428274,-1.154799 0.234026,-1.739816 L 22.28125,5 C 22.240123,4.8807459 22.187806,4.7656499 22.125,4.65625 20.959008,2.5629068 18.840242,1.2543393 16.59375,1.0625 z m -0.3125,4 c 0.921046,0.078653 1.756763,0.5878474 2.28125,1.46875 l 3.34375,9.90625 c -0.66948,0.291892 -1.258234,0.630641 -1.8125,1.09375 l -6.6875,-8.0625 C 12.62934,8.0022867 13.104571,6.2495667 14.5625,5.4375 15.133629,5.1193809 15.714681,5.0141178 16.28125,5.0625 z"
         id="path3022" />
      <path
         inkscape:connector-curvature="0"
         style="color:#000000;fill:#000000;fill-opacity:1;fill-rule:evenodd;stroke:#ffffff;stroke-width:9.57637011999999999;marker:none;visibility:visible;display:inline;overflow:visible;stroke-miterlimit:4;stroke-dasharray:none;stroke-opacity:1"
         d="m 41,16.75 c -0.06296,0.0074 -0.125531,0.01787 -0.1875,0.03125 l -11.25,2.09375 c -0.615276,0.112746 -1.142379,0.506836 -1.424571,1.065086 -0.282192,0.558251 -0.286976,1.216371 -0.01293,1.778664 0.237525,0.49891 0.375,1.000581 0.375,1.53125 0,0.806566 -0.269204,1.514178 -0.71875,2.125 -0.410267,0.555359 -0.505095,1.283045 -0.250856,1.924999 0.254239,0.641953 0.821591,1.10739 1.500856,1.231251 l 11.78125,2.1875 c 0.12374,0.02218 0.249296,0.03264 0.375,0.03125 3.843355,0 6.999997,-3.156648 7,-7 0,-3.843354 -3.156645,-7 -7,-7 -0.06247,-0.0029 -0.125034,-0.0029 -0.1875,0 z m 0.25,4.03125 c 1.65825,0.03874 2.9375,1.298594 2.9375,2.96875 -10e-7,1.670157 -1.27925,2.930008 -2.9375,2.96875 l -9.0625,-1.6875 C 32.331453,24.450256 32.5,23.873151 32.5,23.25 c 0,-0.295899 -0.152962,-0.527986 -0.1875,-0.8125 L 41.25,20.78125 z"
         id="path3024" />
      <path
         inkscape:connector-curvature="0"
         style="color:#000000;fill:#000000;fill-opacity:1;fill-rule:evenodd;stroke:#ffffff;stroke-width:9.57637011999999999;marker:none;visibility:visible;display:inline;overflow:visible;stroke-miterlimit:4;stroke-dasharray:none;stroke-opacity:1"
         d="m 38.78125,9.34375 c -1.158897,-0.081012 -2.314991,0.2185458 -3.34375,0.8125 -0.109655,0.05286 -0.214256,0.115621 -0.3125,0.1875 L 27,17.28125 c -0.463855,0.39363 -0.723353,0.97697 -0.70511,1.58506 0.01824,0.60809 0.312242,1.174824 0.79886,1.53994 0.66781,0.519253 1.137303,1.269556 1.3125,2.125 0.119925,0.563462 0.47697,1.047859 0.979708,1.329152 C 29.888696,24.141696 30.488306,24.192571 31.03125,24 L 41,20.5 c 0.119254,-0.04113 0.23435,-0.09344 0.34375,-0.15625 C 44.134734,18.732373 45.117286,15.113716 43.5,12.3125 42.486809,10.557605 40.694896,9.477523 38.78125,9.34375 z m -0.25,4 c 0.583722,0.04081 1.193195,0.383223 1.53125,0.96875 0.532014,0.921474 0.213951,1.96944 -0.6875,2.53125 L 31.46875,19.625 c -0.109238,-0.198282 -0.186668,-0.406764 -0.3125,-0.59375 L 37.5625,13.5625 c 0.329941,-0.163601 0.66821,-0.239759 0.96875,-0.21875 z"
         id="path3026" />
      <path
         inkscape:connector-curvature="0"
         style="color:#000000;fill:#000000;fill-opacity:1;fill-rule:evenodd;stroke:#ffffff;stroke-width:9.57637011999999999;marker:none;visibility:visible;display:inline;overflow:visible;stroke-miterlimit:4;stroke-dasharray:none;stroke-opacity:1"
         d="M 24.75,2.40625 C 21.506057,2.5006917 18.905389,5.2501416 19,8.5 c -0.0014,0.1257043 0.0091,0.2512598 0.03125,0.375 l 2.0625,9.5 c 0.119925,0.563462 0.47697,1.047859 0.979708,1.329152 0.502738,0.281294 1.102348,0.332169 1.645292,0.139598 0.39354,-0.135366 0.757775,-0.21875 1.15625,-0.21875 0.542365,0 1.060515,0.123849 1.53125,0.34375 0.568333,0.262037 1.226553,0.242963 1.778758,-0.05155 0.552206,-0.294509 0.934736,-0.830501 1.033742,-1.448453 l 1.5625,-9.9375 c 0.02218,-0.1237402 0.03264,-0.2492957 0.03125,-0.375 -0.09388,-3.2246875 -2.8132,-5.8445969 -6.0625,-5.75 z m 0.125,4 c 1.047856,-0.030506 1.83868,0.7541827 1.90625,1.8125 l -1.1875,7.5625 C 25.342914,15.755704 25.132285,15.625 24.875,15.625 c -0.08857,0 -0.162459,0.02802 -0.25,0.03125 l -1.59375,-7.375 c 0.02456,-1.022615 0.801645,-1.8446609 1.84375,-1.875 z"
         id="path3028" />
      <path
         inkscape:connector-curvature="0"
         style="color:#000000;fill:#000000;fill-opacity:1;fill-rule:evenodd;stroke:#ffffff;stroke-width:9.57637011999999999;marker:none;visibility:visible;display:inline;overflow:visible;stroke-miterlimit:4;stroke-dasharray:none;stroke-opacity:1"
         d="m 19.90625,24.09375 c -0.596216,0.03335 -1.146351,0.331337 -1.5,0.8125 l -7.5625,10.40625 c -0.07188,0.09824 -0.13464,0.202845 -0.1875,0.3125 -1.6579532,3.449978 -0.213136,7.67947 3.25,9.34375 3.455853,1.660777 7.704849,0.225358 9.375,-3.25 0.05208,-0.110525 0.09392,-0.225589 0.125,-0.34375 l 3.25,-11.96875 C 26.819764,28.81333 26.7014,28.178149 26.335305,27.683918 25.969208,27.189687 25.396086,26.891365 24.78125,26.875 23.490463,26.838735 22.363429,26.136662 21.75,25.09375 c -0.376511,-0.65468 -1.089664,-1.041475 -1.84375,-1 l 0,0 z M 20.3125,29.125 c 0.609075,0.477899 1.200643,0.942139 1.9375,1.21875 L 19.625,40 c -0.74161,1.484886 -2.44686,2.075123 -3.96875,1.34375 -1.508681,-0.725027 -2.070648,-2.380319 -1.375,-3.90625 L 20.3125,29.125 z"
         id="path3030" />
      <path
         inkscape:connector-curvature="0"
         style="color:#000000;fill:#000000;fill-opacity:1;fill-rule:evenodd;stroke:#ffffff;stroke-width:9.57637011999999999;marker:none;visibility:visible;display:inline;overflow:visible;stroke-miterlimit:4;stroke-dasharray:none;stroke-opacity:1"
         d="m 19.4375,22.90625 c -0.213675,0.008 -0.424687,0.05019 -0.625,0.125 l -10.375,3.8125 C 8.3182459,26.884877 8.2031499,26.937194 8.09375,27 5.3058095,28.667098 4.3991149,32.343264 6.0625,35.125 c 1.6586086,2.773746 5.320503,3.689559 8.09375,2.03125 0.100071,-0.06441 0.194194,-0.137612 0.28125,-0.21875 l 8.59375,-7.5625 c 0.465452,-0.407174 0.716389,-1.006748 0.679716,-1.624073 -0.03667,-0.617326 -0.356831,-1.182974 -0.867216,-1.532177 -0.674494,-0.463495 -1.203102,-1.153162 -1.4375,-1.90625 -0.266237,-0.857499 -1.071255,-1.432512 -1.96875,-1.40625 l 0,0 z m -0.875,4.46875 c 0.08452,0.127191 0.127124,0.284829 0.21875,0.40625 l -6.6875,5.9375 c -0.0099,0.0059 -0.02132,-0.0057 -0.03125,0 C 11.131178,34.256167 10.054598,33.989972 9.5,33.0625 8.9524993,32.146896 9.2341422,31.02989 10.125,30.46875 L 18.5625,27.375 z"
         id="path3032" />
      <path
         inkscape:connector-curvature="0"
         style="color:#000000;fill:#000000;fill-opacity:1;fill-rule:evenodd;stroke:#ffffff;stroke-width:9.57637011999999999;marker:none;visibility:visible;display:inline;overflow:visible;stroke-miterlimit:4;stroke-dasharray:none;stroke-opacity:1"
         d="m 29.84375,23.71875 c -0.736429,0.0297 -1.396857,0.46198 -1.71875,1.125 -0.521966,1.062814 -1.554946,1.840285 -2.78125,2 -0.592051,0.08037 -1.117175,0.421193 -1.431662,0.929209 -0.314486,0.508017 -0.385402,1.130022 -0.193338,1.695791 l 4.1875,11.875 c 0.04113,0.119254 0.09344,0.23435 0.15625,0.34375 1.91997,3.326045 6.212859,4.446803 9.53125,2.53125 3.319531,-1.91621 4.48457,-6.201575 2.5625,-9.53125 -0.05286,-0.109655 -0.115621,-0.214256 -0.1875,-0.3125 L 31.4375,24.40625 c -0.398963,-0.459737 -0.985564,-0.712781 -1.59375,-0.6875 z m 0,5.03125 6.875,8.0625 c 0.755134,1.442611 0.31304,3.138637 -1.125,3.96875 -1.456823,0.840956 -3.168328,0.357038 -4.03125,-1.0625 l -3.46875,-9.8125 c 0.653447,-0.318803 1.217614,-0.672038 1.75,-1.15625 z"
         id="path3034" />
      <path
         inkscape:connector-curvature="0"
         style="color:#000000;fill:#000000;fill-opacity:1;fill-rule:evenodd;stroke:#ffffff;stroke-width:9.57637011999999999;marker:none;visibility:visible;display:inline;overflow:visible;stroke-miterlimit:4;stroke-dasharray:none;stroke-opacity:1"
         d="m 22.5,26.4375 c -0.919515,0.09262 -1.655862,0.803128 -1.78125,1.71875 l -1.375,9.78125 c -0.02218,0.12374 -0.03264,0.249296 -0.03125,0.375 0.143446,3.226545 2.928357,5.768506 6.15625,5.625 3.226544,-0.143447 5.768507,-2.928357 5.625,-6.15625 -0.01077,-0.116187 -0.03168,-0.231209 -0.0625,-0.34375 L 28.875,28.0625 C 28.749073,27.497001 28.384139,27.013883 27.874616,26.738141 27.365094,26.4624 26.761044,26.421126 26.21875,26.625 c -0.381026,0.149891 -0.848201,0.25 -1.34375,0.25 -0.512065,0 -0.982296,-0.101834 -1.40625,-0.28125 C 23.163816,26.462037 22.830881,26.408337 22.5,26.4375 l 0,0 z m 1.875,4.34375 c 0.172508,0.01153 0.325504,0.09375 0.5,0.09375 0.192541,0 0.370823,-0.08027 0.5625,-0.09375 l 1.65625,7.1875 0,0.03125 c 0.0317,1.07548 -0.730459,1.889394 -1.8125,1.9375 -1.076502,0.04786 -1.867926,-0.712593 -1.9375,-1.78125 l 1.03125,-7.375 z"
         id="path3036" />
      <path
         inkscape:connector-curvature="0"
         style="color:#000000;fill:#000000;fill-opacity:1;fill-rule:evenodd;stroke:#ffffff;stroke-width:9.57637011999999999;marker:none;visibility:visible;display:inline;overflow:visible;stroke-miterlimit:4;stroke-dasharray:none;stroke-opacity:1"
         d="m 30.375,21.5 c -1.020282,0.06295 -1.828926,0.885067 -1.875,1.90625 -0.03942,0.876615 -0.397594,1.676913 -1,2.3125 -0.383668,0.394725 -0.587705,0.930119 -0.564051,1.480073 0.02365,0.549955 0.272908,1.065852 0.689051,1.426177 l 8.03125,6.84375 c 0.09824,0.07188 0.202845,0.13464 0.3125,0.1875 C 38.769997,37.273821 42.388507,36.290717 44,33.5 45.622392,30.690405 44.64892,27.057337 41.84375,25.4375 41.73435,25.374694 41.619254,25.322377 41.5,25.28125 L 31.15625,21.625 C 30.906754,21.531731 30.641142,21.489233 30.375,21.5 z m 1.53125,4.59375 7.96875,2.84375 c 0.888521,0.556305 1.21479,1.64936 0.6875,2.5625 -0.533112,0.923221 -1.578766,1.193943 -2.5,0.71875 L 31.59375,26.6875 c 0.106344,-0.201897 0.223873,-0.381063 0.3125,-0.59375 z"
         id="path3038" />
      <path
         inkscape:connector-curvature="0"
         style="color:#000000;fill:none;stroke:#ffffff;stroke-width:9.57637011999999999;marker:none;visibility:visible;display:inline;overflow:visible;stroke-miterlimit:4;stroke-dasharray:none;stroke-opacity:1"
         d="m 24.87847,15.627659 c -4.183388,0 -7.621074,3.437686 -7.621074,7.621074 0,4.183387 3.437686,7.621073 7.621074,7.621073 4.183387,0 7.621071,-3.437687 7.621073,-7.621073 0,-4.183388 -3.437686,-7.621074 -7.621073,-7.621074 z m 0,4.013225 c 2.019136,0 3.607848,1.588712 3.607848,3.607849 -1e-6,2.019136 -1.588712,3.628117 -3.607848,3.628117 -2.019137,0 -3.628118,-1.608981 -3.628118,-3.628117 0,-2.019137 1.608981,-3.607849 3.628118,-3.607849 z"
         id="path3040" />
    </g>
    <g
       id="g2999"
       transform="matrix(0.8353896,0,0,0.8353896,3.7448477,4.857122)">
      <path
         id="path4856"
         d="m 6.96875,17.09375 c -3.8396314,0.172496 -6.82829427,3.48291 -6.65625,7.3125 0.17246502,3.838958 3.467898,6.860217 7.3125,6.6875 0.1267008,-0.0089 0.2522679,-0.02981 0.375,-0.0625 l 12.5625,-2.9375 c 0.618076,-0.148791 1.128613,-0.582539 1.375314,-1.168453 C 22.184515,26.339383 22.137996,25.671085 21.8125,25.125 21.457923,24.543696 21.25,23.91442 21.25,23.25 c 0,-0.542365 0.123849,-1.060515 0.34375,-1.53125 0.262447,-0.572914 0.23956,-1.236008 -0.06177,-1.789462 C 21.230659,19.375833 20.686135,18.996741 20.0625,18.90625 L 7.34375,17.125 C 7.2200098,17.10282 7.0944543,17.09236 6.96875,17.09375 z M 7.125,21.125 17.40625,22.5625 C 17.382746,22.80322 17.25,23.003384 17.25,23.25 c 0,0.516975 0.116955,0.986364 0.21875,1.46875 l -10.0625,2.375 C 5.732183,27.152249 4.3881459,25.902578 4.3125,24.21875 4.2366344,22.530034 5.4546818,21.223083 7.125,21.125 z"
         style="color:#000000;fill:#000000;fill-opacity:1;fill-rule:evenodd;stroke:none;stroke-width:4;marker:none;visibility:visible;display:inline;overflow:visible"
         inkscape:connector-curvature="0" />
      <path
         id="path4854"
         d="M 33.59375,0.84375 C 30.872348,0.66837794 28.193923,2.1099593 26.90625,4.6875 26.843444,4.7968999 26.791127,4.9119959 26.75,5.03125 l -3.46875,12.0625 c -0.172864,0.586909 -0.0676,1.220654 0.285713,1.720167 0.353313,0.499512 0.915814,0.809846 1.526787,0.842333 1.270531,0.07897 2.322381,0.787389 2.90625,1.8125 0.331481,0.58912 0.93809,0.970958 1.612623,1.015086 0.674533,0.04413 1.325719,-0.255424 1.731127,-0.796336 l 7.875,-10.40625 c 0.07188,-0.09824 0.13464,-0.202845 0.1875,-0.3125 C 41.121194,7.5359402 39.758817,3.2841906 36.3125,1.5625 35.406633,1.1099515 34.457841,0.89943366 33.59375,0.84375 z m -0.25,4 C 33.776005,4.871605 34.167049,4.9586663 34.5,5.125 c 1.488427,0.7435797 2.058206,2.460867 1.34375,3.96875 l -6.3125,8.34375 C 28.967575,16.986301 28.364064,16.683987 27.6875,16.40625 l 2.875,-10 c 0.587199,-1.0560781 1.657371,-1.6349248 2.78125,-1.5625 z"
         style="color:#000000;fill:#000000;fill-opacity:1;fill-rule:evenodd;stroke:none;stroke-width:4;marker:none;visibility:visible;display:inline;overflow:visible"
         inkscape:connector-curvature="0" />
      <path
         id="path4858"
         d="m 10.03125,9.9375 c -1.9021798,0.103569 -3.7192454,1.15152 -4.75,2.875 -1.6586,2.773277 -0.7422252,6.43503 2.03125,8.09375 0.1093999,0.06281 0.2244959,0.115123 0.34375,0.15625 L 18.5625,25.125 c 0.612857,0.224242 1.296571,0.135412 1.831781,-0.23799 C 20.92949,24.513609 21.248888,23.902592 21.25,23.25 c 0,-0.863063 0.315454,-1.60389 0.84375,-2.25 0.290335,-0.363243 0.445036,-0.816295 0.4375,-1.28125 l 0,-0.03125 c -0.0026,-0.575634 -0.253166,-1.122222 -0.6875,-1.5 L 13.65625,11 C 13.569194,10.918862 13.475071,10.845655 13.375,10.78125 12.345943,10.165807 11.187031,9.8745702 10.03125,9.9375 z m 0.1875,4 c 0.334854,-0.01823 0.708956,0.07715 1.0625,0.28125 0.0097,0.0056 0.02153,-0.0058 0.03125,0 L 18,20.125 c -0.06935,0.148772 -0.158724,0.283455 -0.21875,0.4375 l -8.4375,-3.125 c -0.9040078,-0.568079 -1.1774142,-1.638831 -0.625,-2.5625 0.3563632,-0.59586 0.9024208,-0.904963 1.5,-0.9375 z"
         style="color:#000000;fill:#000000;fill-opacity:1;fill-rule:evenodd;stroke:none;stroke-width:4;marker:none;visibility:visible;display:inline;overflow:visible"
         inkscape:connector-curvature="0" />
      <path
         id="path4860"
         d="M 16.59375,1.0625 C 15.243065,0.94715819 13.868565,1.2448345 12.625,1.9375 9.263687,3.8097514 8.0342553,8.1078977 9.90625,11.46875 c 0.062795,0.110898 0.136044,0.21554 0.21875,0.3125 l 8.3125,10 c 0.422936,0.50477 1.067232,0.769019 1.7228,0.706584 0.655568,-0.06244 1.238399,-0.443554 1.55845,-1.019084 0.567803,-1.014737 1.622558,-1.713475 2.875,-1.8125 0.614727,-0.0457 1.174044,-0.372289 1.515974,-0.885184 0.34193,-0.512895 0.428274,-1.154799 0.234026,-1.739816 L 22.28125,5 C 22.240123,4.8807459 22.187806,4.7656499 22.125,4.65625 20.959008,2.5629068 18.840242,1.2543393 16.59375,1.0625 z m -0.3125,4 c 0.921046,0.078653 1.756763,0.5878474 2.28125,1.46875 l 3.34375,9.90625 c -0.66948,0.291892 -1.258234,0.630641 -1.8125,1.09375 l -6.6875,-8.0625 C 12.62934,8.0022867 13.104571,6.2495667 14.5625,5.4375 15.133629,5.1193809 15.714681,5.0141178 16.28125,5.0625 z"
         style="color:#000000;fill:#000000;fill-opacity:1;fill-rule:evenodd;stroke:none;stroke-width:4;marker:none;visibility:visible;display:inline;overflow:visible"
         inkscape:connector-curvature="0" />
      <path
         id="rect4849"
         d="m 41,16.75 c -0.06296,0.0074 -0.125531,0.01787 -0.1875,0.03125 l -11.25,2.09375 c -0.615276,0.112746 -1.142379,0.506836 -1.424571,1.065086 -0.282192,0.558251 -0.286976,1.216371 -0.01293,1.778664 0.237525,0.49891 0.375,1.000581 0.375,1.53125 0,0.806566 -0.269204,1.514178 -0.71875,2.125 -0.410267,0.555359 -0.505095,1.283045 -0.250856,1.924999 0.254239,0.641953 0.821591,1.10739 1.500856,1.231251 l 11.78125,2.1875 c 0.12374,0.02218 0.249296,0.03264 0.375,0.03125 3.843355,0 6.999997,-3.156648 7,-7 0,-3.843354 -3.156645,-7 -7,-7 -0.06247,-0.0029 -0.125034,-0.0029 -0.1875,0 z m 0.25,4.03125 c 1.65825,0.03874 2.9375,1.298594 2.9375,2.96875 -10e-7,1.670157 -1.27925,2.930008 -2.9375,2.96875 l -9.0625,-1.6875 C 32.331453,24.450256 32.5,23.873151 32.5,23.25 c 0,-0.295899 -0.152962,-0.527986 -0.1875,-0.8125 L 41.25,20.78125 z"
         style="color:#000000;fill:#000000;fill-opacity:1;fill-rule:evenodd;stroke:none;stroke-width:4;marker:none;visibility:visible;display:inline;overflow:visible"
         inkscape:connector-curvature="0" />
      <path
         id="path4852"
         d="m 38.78125,9.34375 c -1.158897,-0.081012 -2.314991,0.2185458 -3.34375,0.8125 -0.109655,0.05286 -0.214256,0.115621 -0.3125,0.1875 L 27,17.28125 c -0.463855,0.39363 -0.723353,0.97697 -0.70511,1.58506 0.01824,0.60809 0.312242,1.174824 0.79886,1.53994 0.66781,0.519253 1.137303,1.269556 1.3125,2.125 0.119925,0.563462 0.47697,1.047859 0.979708,1.329152 C 29.888696,24.141696 30.488306,24.192571 31.03125,24 L 41,20.5 c 0.119254,-0.04113 0.23435,-0.09344 0.34375,-0.15625 C 44.134734,18.732373 45.117286,15.113716 43.5,12.3125 42.486809,10.557605 40.694896,9.477523 38.78125,9.34375 z m -0.25,4 c 0.583722,0.04081 1.193195,0.383223 1.53125,0.96875 0.532014,0.921474 0.213951,1.96944 -0.6875,2.53125 L 31.46875,19.625 c -0.109238,-0.198282 -0.186668,-0.406764 -0.3125,-0.59375 L 37.5625,13.5625 c 0.329941,-0.163601 0.66821,-0.239759 0.96875,-0.21875 z"
         style="color:#000000;fill:#000000;fill-opacity:1;fill-rule:evenodd;stroke:none;stroke-width:4;marker:none;visibility:visible;display:inline;overflow:visible"
         inkscape:connector-curvature="0" />
      <path
         id="path4862"
         d="M 24.75,2.40625 C 21.506057,2.5006917 18.905389,5.2501416 19,8.5 c -0.0014,0.1257043 0.0091,0.2512598 0.03125,0.375 l 2.0625,9.5 c 0.119925,0.563462 0.47697,1.047859 0.979708,1.329152 0.502738,0.281294 1.102348,0.332169 1.645292,0.139598 0.39354,-0.135366 0.757775,-0.21875 1.15625,-0.21875 0.542365,0 1.060515,0.123849 1.53125,0.34375 0.568333,0.262037 1.226553,0.242963 1.778758,-0.05155 0.552206,-0.294509 0.934736,-0.830501 1.033742,-1.448453 l 1.5625,-9.9375 c 0.02218,-0.1237402 0.03264,-0.2492957 0.03125,-0.375 -0.09388,-3.2246875 -2.8132,-5.8445969 -6.0625,-5.75 z m 0.125,4 c 1.047856,-0.030506 1.83868,0.7541827 1.90625,1.8125 l -1.1875,7.5625 C 25.342914,15.755704 25.132285,15.625 24.875,15.625 c -0.08857,0 -0.162459,0.02802 -0.25,0.03125 l -1.59375,-7.375 c 0.02456,-1.022615 0.801645,-1.8446609 1.84375,-1.875 z"
         style="color:#000000;fill:#000000;fill-opacity:1;fill-rule:evenodd;stroke:none;stroke-width:4;marker:none;visibility:visible;display:inline;overflow:visible"
         inkscape:connector-curvature="0" />
      <path
         id="path4864"
         d="m 19.90625,24.09375 c -0.596216,0.03335 -1.146351,0.331337 -1.5,0.8125 l -7.5625,10.40625 c -0.07188,0.09824 -0.13464,0.202845 -0.1875,0.3125 -1.6579532,3.449978 -0.213136,7.67947 3.25,9.34375 3.455853,1.660777 7.704849,0.225358 9.375,-3.25 0.05208,-0.110525 0.09392,-0.225589 0.125,-0.34375 l 3.25,-11.96875 C 26.819764,28.81333 26.7014,28.178149 26.335305,27.683918 25.969208,27.189687 25.396086,26.891365 24.78125,26.875 23.490463,26.838735 22.363429,26.136662 21.75,25.09375 c -0.376511,-0.65468 -1.089664,-1.041475 -1.84375,-1 l 0,0 z M 20.3125,29.125 c 0.609075,0.477899 1.200643,0.942139 1.9375,1.21875 L 19.625,40 c -0.74161,1.484886 -2.44686,2.075123 -3.96875,1.34375 -1.508681,-0.725027 -2.070648,-2.380319 -1.375,-3.90625 L 20.3125,29.125 z"
         style="color:#000000;fill:#000000;fill-opacity:1;fill-rule:evenodd;stroke:none;stroke-width:4;marker:none;visibility:visible;display:inline;overflow:visible"
         inkscape:connector-curvature="0" />
      <path
         id="path4868"
         d="m 19.4375,22.90625 c -0.213675,0.008 -0.424687,0.05019 -0.625,0.125 l -10.375,3.8125 C 8.3182459,26.884877 8.2031499,26.937194 8.09375,27 5.3058095,28.667098 4.3991149,32.343264 6.0625,35.125 c 1.6586086,2.773746 5.320503,3.689559 8.09375,2.03125 0.100071,-0.06441 0.194194,-0.137612 0.28125,-0.21875 l 8.59375,-7.5625 c 0.465452,-0.407174 0.716389,-1.006748 0.679716,-1.624073 -0.03667,-0.617326 -0.356831,-1.182974 -0.867216,-1.532177 -0.674494,-0.463495 -1.203102,-1.153162 -1.4375,-1.90625 -0.266237,-0.857499 -1.071255,-1.432512 -1.96875,-1.40625 l 0,0 z m -0.875,4.46875 c 0.08452,0.127191 0.127124,0.284829 0.21875,0.40625 l -6.6875,5.9375 c -0.0099,0.0059 -0.02132,-0.0057 -0.03125,0 C 11.131178,34.256167 10.054598,33.989972 9.5,33.0625 8.9524993,32.146896 9.2341422,31.02989 10.125,30.46875 L 18.5625,27.375 z"
         style="color:#000000;fill:#000000;fill-opacity:1;fill-rule:evenodd;stroke:none;stroke-width:4;marker:none;visibility:visible;display:inline;overflow:visible"
         inkscape:connector-curvature="0" />
      <path
         id="path4870"
         d="m 29.84375,23.71875 c -0.736429,0.0297 -1.396857,0.46198 -1.71875,1.125 -0.521966,1.062814 -1.554946,1.840285 -2.78125,2 -0.592051,0.08037 -1.117175,0.421193 -1.431662,0.929209 -0.314486,0.508017 -0.385402,1.130022 -0.193338,1.695791 l 4.1875,11.875 c 0.04113,0.119254 0.09344,0.23435 0.15625,0.34375 1.91997,3.326045 6.212859,4.446803 9.53125,2.53125 3.319531,-1.91621 4.48457,-6.201575 2.5625,-9.53125 -0.05286,-0.109655 -0.115621,-0.214256 -0.1875,-0.3125 L 31.4375,24.40625 c -0.398963,-0.459737 -0.985564,-0.712781 -1.59375,-0.6875 z m 0,5.03125 6.875,8.0625 c 0.755134,1.442611 0.31304,3.138637 -1.125,3.96875 -1.456823,0.840956 -3.168328,0.357038 -4.03125,-1.0625 l -3.46875,-9.8125 c 0.653447,-0.318803 1.217614,-0.672038 1.75,-1.15625 z"
         style="color:#000000;fill:#000000;fill-opacity:1;fill-rule:evenodd;stroke:none;stroke-width:4;marker:none;visibility:visible;display:inline;overflow:visible"
         inkscape:connector-curvature="0" />
      <path
         id="path4872"
         d="m 22.5,26.4375 c -0.919515,0.09262 -1.655862,0.803128 -1.78125,1.71875 l -1.375,9.78125 c -0.02218,0.12374 -0.03264,0.249296 -0.03125,0.375 0.143446,3.226545 2.928357,5.768506 6.15625,5.625 3.226544,-0.143447 5.768507,-2.928357 5.625,-6.15625 -0.01077,-0.116187 -0.03168,-0.231209 -0.0625,-0.34375 L 28.875,28.0625 C 28.749073,27.497001 28.384139,27.013883 27.874616,26.738141 27.365094,26.4624 26.761044,26.421126 26.21875,26.625 c -0.381026,0.149891 -0.848201,0.25 -1.34375,0.25 -0.512065,0 -0.982296,-0.101834 -1.40625,-0.28125 C 23.163816,26.462037 22.830881,26.408337 22.5,26.4375 l 0,0 z m 1.875,4.34375 c 0.172508,0.01153 0.325504,0.09375 0.5,0.09375 0.192541,0 0.370823,-0.08027 0.5625,-0.09375 l 1.65625,7.1875 0,0.03125 c 0.0317,1.07548 -0.730459,1.889394 -1.8125,1.9375 -1.076502,0.04786 -1.867926,-0.712593 -1.9375,-1.78125 l 1.03125,-7.375 z"
         style="color:#000000;fill:#000000;fill-opacity:1;fill-rule:evenodd;stroke:none;stroke-width:4;marker:none;visibility:visible;display:inline;overflow:visible"
         inkscape:connector-curvature="0" />
      <path
         id="path4866"
         d="m 30.375,21.5 c -1.020282,0.06295 -1.828926,0.885067 -1.875,1.90625 -0.03942,0.876615 -0.397594,1.676913 -1,2.3125 -0.383668,0.394725 -0.587705,0.930119 -0.564051,1.480073 0.02365,0.549955 0.272908,1.065852 0.689051,1.426177 l 8.03125,6.84375 c 0.09824,0.07188 0.202845,0.13464 0.3125,0.1875 C 38.769997,37.273821 42.388507,36.290717 44,33.5 45.622392,30.690405 44.64892,27.057337 41.84375,25.4375 41.73435,25.374694 41.619254,25.322377 41.5,25.28125 L 31.15625,21.625 C 30.906754,21.531731 30.641142,21.489233 30.375,21.5 z m 1.53125,4.59375 7.96875,2.84375 c 0.888521,0.556305 1.21479,1.64936 0.6875,2.5625 -0.533112,0.923221 -1.578766,1.193943 -2.5,0.71875 L 31.59375,26.6875 c 0.106344,-0.201897 0.223873,-0.381063 0.3125,-0.59375 z"
         style="color:#000000;fill:#000000;fill-opacity:1;fill-rule:evenodd;stroke:none;stroke-width:4;marker:none;visibility:visible;display:inline;overflow:visible"
         inkscape:connector-curvature="0" />
      <path
         id="path4838"
         d="m 24.87847,15.627659 c -4.183388,0 -7.621074,3.437686 -7.621074,7.621074 0,4.183387 3.437686,7.621073 7.621074,7.621073 4.183387,0 7.621071,-3.437687 7.621073,-7.621073 0,-4.183388 -3.437686,-7.621074 -7.621073,-7.621074 z m 0,4.013225 c 2.019136,0 3.607848,1.588712 3.607848,3.607849 -1e-6,2.019136 -1.588712,3.628117 -3.607848,3.628117 -2.019137,0 -3.628118,-1.608981 -3.628118,-3.628117 0,-2.019137 1.608981,-3.607849 3.628118,-3.607849 z"
         style="color:#000000;fill:none;stroke:none;stroke-width:6.16710997;marker:none;visibility:visible;display:inline;overflow:visible"
         inkscape:connector-curvature="0" />
    </g>
  </g>
</svg>
