<?xml version="1.0" encoding="UTF-8" standalone="no"?>
<!-- Created with Inkscape (http://www.inkscape.org/) -->

<svg
   xmlns:dc="http://purl.org/dc/elements/1.1/"
   xmlns:cc="http://creativecommons.org/ns#"
   xmlns:rdf="http://www.w3.org/1999/02/22-rdf-syntax-ns#"
   xmlns:svg="http://www.w3.org/2000/svg"
   xmlns="http://www.w3.org/2000/svg"
   xmlns:sodipodi="http://sodipodi.sourceforge.net/DTD/sodipodi-0.dtd"
   xmlns:inkscape="http://www.inkscape.org/namespaces/inkscape"
   width="48px"
   height="48px"
   id="svg1306"
   sodipodi:version="0.32"
   inkscape:version="0.48.3.1 r9886"
   sodipodi:docname="im-nov.svg"
   inkscape:output_extension="org.inkscape.output.svg.inkscape"
   version="1.1">
  <defs
     id="defs1308">
    <linearGradient
       id="linearGradient3191">
      <stop
         style="stop-color:#eeeeec;stop-opacity:1;"
         offset="0"
         id="stop3193" />
      <stop
         style="stop-color:#d6d6d1;stop-opacity:1;"
         offset="1"
         id="stop3195" />
    </linearGradient>
  </defs>
  <sodipodi:namedview
     id="base"
     pagecolor="#ffffff"
     bordercolor="#666666"
     borderopacity="0.15294118"
     inkscape:pageopacity="0.0"
     inkscape:pageshadow="2"
     inkscape:zoom="8"
     inkscape:cx="28.180622"
     inkscape:cy="32.723268"
     inkscape:current-layer="layer1"
     showgrid="false"
     inkscape:grid-bbox="true"
     inkscape:document-units="px"
     stroke="#babdb6"
     fill="#cc0000"
     inkscape:window-width="1366"
     inkscape:window-height="717"
     inkscape:window-x="0"
     inkscape:window-y="0"
     inkscape:showpageshadow="false"
     inkscape:window-maximized="1" />
  <metadata
     id="metadata1311">
    <rdf:RDF>
      <cc:Work
         rdf:about="">
        <dc:format>image/svg+xml</dc:format>
        <dc:type
           rdf:resource="http://purl.org/dc/dcmitype/StillImage" />
        <dc:title>Groupwise Instant Messanger</dc:title>
        <dc:creator>
          <cc:Agent>
            <dc:title>Andreas Nilsson</dc:title>
          </cc:Agent>
        </dc:creator>
        <dc:source>http://tango-project.org</dc:source>
        <cc:license
           rdf:resource="http://creativecommons.org/licenses/GPL/2.0/" />
        <dc:contributor>
          <cc:Agent>
            <dc:title>Jakub Steiner</dc:title>
          </cc:Agent>
        </dc:contributor>
        <dc:subject>
          <rdf:Bag>
            <rdf:li>im</rdf:li>
            <rdf:li>chat</rdf:li>
            <rdf:li>groupwise</rdf:li>
            <rdf:li>gw</rdf:li>
          </rdf:Bag>
        </dc:subject>
      </cc:Work>
      <cc:License
         rdf:about="http://creativecommons.org/licenses/GPL/2.0/">
        <cc:permits
           rdf:resource="http://web.resource.org/cc/Reproduction" />
        <cc:permits
           rdf:resource="http://web.resource.org/cc/Distribution" />
        <cc:requires
           rdf:resource="http://web.resource.org/cc/Notice" />
        <cc:permits
           rdf:resource="http://web.resource.org/cc/DerivativeWorks" />
        <cc:requires
           rdf:resource="http://web.resource.org/cc/ShareAlike" />
        <cc:requires
           rdf:resource="http://web.resource.org/cc/SourceCode" />
      </cc:License>
    </rdf:RDF>
  </metadata>
  <g
     id="layer1"
     inkscape:label="Layer 1"
     inkscape:groupmode="layer">
    <g
       id="g2991"
       style="stroke:#ffffff;stroke-opacity:1;stroke-width:8;stroke-miterlimit:4;stroke-dasharray:none;stroke-linejoin:round;stroke-linecap:round">
      <path
         style="fill:#000000;fill-opacity:1;stroke:#ffffff;stroke-opacity:1;stroke-width:8;stroke-miterlimit:4;stroke-dasharray:none;stroke-linejoin:round;stroke-linecap:round"
         d="M 23.994319,5.1430896 C 13.158707,5.1430895 3.9999998,12.331381 4,21.66057 c 1e-7,9.053346 8.743215,16.677699 20.877185,16.570167 1.406746,2.876121 4.60548,5.583288 9.399926,5.690233 L 37.756642,44 35.601411,41.181227 C 34.41038,39.632663 33.394028,38.661528 33.134579,36.175931 39.412288,33.471342 43.988638,28.130494 43.988638,21.66057 43.98864,12.33138 34.829932,5.1430898 23.994319,5.1430896 z m 0,3.3719894 c 9.400807,0 16.670589,6.103224 16.670588,13.145491 0,5.210208 -3.932706,9.841927 -9.867327,11.960026 l -1.116565,0.395154 0.02596,1.211809 c 0.01712,1.756925 0.408871,3.106509 0.908833,4.267674 -1.70228,-0.945483 -2.799718,-2.319544 -3.141964,-3.424676 l -0.363533,-1.238153 -1.298332,0.05269 C 14.489419,35.425833 7.323731,28.702037 7.323731,21.66057 7.3237308,14.618304 14.593513,8.515079 23.994319,8.515079 z"
         id="path2993"
         inkscape:connector-curvature="0" />
      <path
         style="fill:#000000;fill-opacity:1;fill-rule:evenodd;stroke:#ffffff;stroke-width:8;stroke-linecap:round;stroke-linejoin:round;stroke-miterlimit:4;stroke-opacity:1;stroke-dasharray:none"
         d="m 17.335489,29.351349 0,-16.302108 10.173202,10.603655 0,-9.719918 3.030567,0 0,16.418548 -10.307893,-10.603654 0,9.603477 -2.895876,0 z"
         id="path2995"
         sodipodi:nodetypes="ccccccccc"
         inkscape:connector-curvature="0" />
    </g>
    <path
       sodipodi:type="arc"
       style="fill:#ffffff;fill-opacity:1;stroke:#ffffff;stroke-width:8;stroke-linecap:round;stroke-linejoin:round;stroke-miterlimit:4;stroke-opacity:1;stroke-dasharray:none"
       id="path2991"
       sodipodi:cx="24"
       sodipodi:cy="21.25"
       sodipodi:rx="14.25"
       sodipodi:ry="10.5"
       d="m 38.25,21.25 a 14.25,10.5 0 1 1 -28.5,0 14.25,10.5 0 1 1 28.5,0 z" />
    <g
       id="g2987">
      <path
         inkscape:connector-curvature="0"
         id="path1314"
         d="M 23.994319,5.1430896 C 13.158707,5.1430895 3.9999998,12.331381 4,21.66057 c 1e-7,9.053346 8.743215,16.677699 20.877185,16.570167 1.406746,2.876121 4.60548,5.583288 9.399926,5.690233 L 37.756642,44 35.601411,41.181227 C 34.41038,39.632663 33.394028,38.661528 33.134579,36.175931 39.412288,33.471342 43.988638,28.130494 43.988638,21.66057 43.98864,12.33138 34.829932,5.1430898 23.994319,5.1430896 z m 0,3.3719894 c 9.400807,0 16.670589,6.103224 16.670588,13.145491 0,5.210208 -3.932706,9.841927 -9.867327,11.960026 l -1.116565,0.395154 0.02596,1.211809 c 0.01712,1.756925 0.408871,3.106509 0.908833,4.267674 -1.70228,-0.945483 -2.799718,-2.319544 -3.141964,-3.424676 l -0.363533,-1.238153 -1.298332,0.05269 C 14.489419,35.425833 7.323731,28.702037 7.323731,21.66057 7.3237308,14.618304 14.593513,8.515079 23.994319,8.515079 z"
         style="fill:#000000;fill-opacity:1;stroke:none" />
      <path
         inkscape:connector-curvature="0"
         sodipodi:nodetypes="ccccccccc"
         id="path1324"
         d="m 17.335489,29.351349 0,-16.302108 10.173202,10.603655 0,-9.719918 3.030567,0 0,16.418548 -10.307893,-10.603654 0,9.603477 -2.895876,0 z"
         style="fill:#000000;fill-opacity:1;fill-rule:evenodd;stroke:#000000;stroke-width:1.67388666;stroke-linecap:butt;stroke-linejoin:miter;stroke-miterlimit:4;stroke-opacity:1;stroke-dasharray:none" />
    </g>
  </g>
</svg>
