<?xml version="1.0" encoding="UTF-8" standalone="no"?>
<!-- Created with Inkscape (http://www.inkscape.org/) -->

<svg
   xmlns:dc="http://purl.org/dc/elements/1.1/"
   xmlns:cc="http://creativecommons.org/ns#"
   xmlns:rdf="http://www.w3.org/1999/02/22-rdf-syntax-ns#"
   xmlns:svg="http://www.w3.org/2000/svg"
   xmlns="http://www.w3.org/2000/svg"
   xmlns:xlink="http://www.w3.org/1999/xlink"
   xmlns:sodipodi="http://sodipodi.sourceforge.net/DTD/sodipodi-0.dtd"
   xmlns:inkscape="http://www.inkscape.org/namespaces/inkscape"
   width="48.000000px"
   height="48.000000px"
   id="svg4376"
   sodipodi:version="0.32"
   inkscape:version="0.48.3.1 r9886"
   sodipodi:docname="im-yahoo.svg"
   inkscape:export-filename="/home/tigert/Desktop/face-grin.png"
   inkscape:export-xdpi="90.000000"
   inkscape:export-ydpi="90.000000"
   inkscape:output_extension="org.inkscape.output.svg.inkscape"
   version="1.1">
  <defs
     id="defs3">
    <linearGradient
       id="linearGradient3337">
      <stop
         style="stop-color:#000000;stop-opacity:1;"
         offset="0"
         id="stop3339" />
      <stop
         id="stop3345"
         offset="0.5"
         style="stop-color:#000000;stop-opacity:0.51923078;" />
      <stop
         style="stop-color:#000000;stop-opacity:1;"
         offset="1"
         id="stop3341" />
    </linearGradient>
    <linearGradient
       id="linearGradient3290">
      <stop
         style="stop-color:#fffcde;stop-opacity:1.0000000;"
         offset="0.0000000"
         id="stop3292" />
      <stop
         id="stop3294"
         offset="0.64485979"
         style="stop-color:#f6e76a;stop-opacity:1.0000000;" />
      <stop
         style="stop-color:#ffb738;stop-opacity:1.0000000;"
         offset="1.0000000"
         id="stop3296" />
    </linearGradient>
    <linearGradient
       id="linearGradient3068">
      <stop
         style="stop-color:#cccccc;stop-opacity:1.0000000;"
         offset="0.0000000"
         id="stop3070" />
      <stop
         id="stop3076"
         offset="0.34579438"
         style="stop-color:#ffffff;stop-opacity:1.0000000;" />
      <stop
         style="stop-color:#ffffff;stop-opacity:1.0000000;"
         offset="0.72486681"
         id="stop3078" />
      <stop
         style="stop-color:#cecece;stop-opacity:1.0000000;"
         offset="1.0000000"
         id="stop3072" />
    </linearGradient>
    <linearGradient
       inkscape:collect="always"
       xlink:href="#linearGradient3337"
       id="linearGradient3343"
       x1="10.375"
       y1="30.71875"
       x2="37.9375"
       y2="30.71875"
       gradientUnits="userSpaceOnUse" />
  </defs>
  <sodipodi:namedview
     fill="#a40000"
     id="base"
     pagecolor="#ffffff"
     bordercolor="#ff0000"
     borderopacity="0.19607843"
     inkscape:pageopacity="0.0"
     inkscape:pageshadow="2"
     inkscape:zoom="11.313708"
     inkscape:cx="7.5524934"
     inkscape:cy="23.264922"
     inkscape:current-layer="layer1"
     showgrid="true"
     inkscape:grid-bbox="true"
     inkscape:document-units="px"
     inkscape:showpageshadow="true"
     inkscape:window-width="1366"
     inkscape:window-height="717"
     inkscape:window-x="0"
     inkscape:window-y="0"
     stroke="#8f5902"
     objecttolerance="10000"
     gridtolerance="10000"
     guidetolerance="10000"
     inkscape:window-maximized="1" />
  <metadata
     id="metadata4">
    <rdf:RDF>
      <cc:Work
         rdf:about="">
        <dc:format>image/svg+xml</dc:format>
        <dc:type
           rdf:resource="http://purl.org/dc/dcmitype/StillImage" />
        <dc:title>IM - Yahoo</dc:title>
        <dc:subject>
          <rdf:Bag />
        </dc:subject>
        <cc:license
           rdf:resource="http://creativecommons.org/licenses/GPL/2.0/" />
        <dc:creator>
          <cc:Agent>
            <dc:title>Jakub Steiner</dc:title>
          </cc:Agent>
        </dc:creator>
        <dc:source>http://jimmac.musichall.cz</dc:source>
        <dc:contributor>
          <cc:Agent>
            <dc:title />
          </cc:Agent>
        </dc:contributor>
      </cc:Work>
      <cc:License
         rdf:about="http://creativecommons.org/licenses/GPL/2.0/">
        <cc:permits
           rdf:resource="http://web.resource.org/cc/Reproduction" />
        <cc:permits
           rdf:resource="http://web.resource.org/cc/Distribution" />
        <cc:requires
           rdf:resource="http://web.resource.org/cc/Notice" />
        <cc:permits
           rdf:resource="http://web.resource.org/cc/DerivativeWorks" />
        <cc:requires
           rdf:resource="http://web.resource.org/cc/ShareAlike" />
        <cc:requires
           rdf:resource="http://web.resource.org/cc/SourceCode" />
      </cc:License>
    </rdf:RDF>
  </metadata>
  <g
     id="layer1"
     inkscape:label="Layer 1"
     inkscape:groupmode="layer">
    <g
       id="g3000"
       style="stroke:#ffffff;stroke-opacity:1;stroke-width:8;stroke-miterlimit:4;stroke-dasharray:none">
      <path
         style="color:#000000;fill:#000000;fill-opacity:1;fill-rule:evenodd;stroke:#ffffff;stroke-width:8;marker:none;visibility:visible;display:inline;overflow:visible;stroke-opacity:1;stroke-miterlimit:4;stroke-dasharray:none"
         d="M 23.986971,4 C 12.94282,4 4,12.963038 4,24 4,35.03696 12.942819,44 23.986971,44 35.031123,44 43.999996,35.036961 44,24 44.000001,12.963037 35.031122,4 23.986971,4 z m -5.159609,8.333333 c 0.434542,-0.01616 0.863996,0.03872 1.302931,0.15625 1.522507,0.407689 2.732397,1.560653 3.153095,3.072917 l -2.397395,0.703125 c -0.198276,-0.712737 -0.661428,-1.154477 -1.407166,-1.354167 -1.061383,-0.284211 -2.078113,0.305664 -2.345277,1.302084 L 14.710098,15.5625 c 0.507894,-1.894254 2.234246,-3.159153 4.117264,-3.229167 z m 10.058631,0 c 0.434543,-0.01616 0.890056,0.03872 1.328991,0.15625 1.522507,0.407689 2.706338,1.560653 3.127036,3.072917 l -2.397395,0.703125 c -0.198276,-0.712737 -0.635367,-1.154477 -1.381107,-1.354167 -1.061384,-0.284211 -2.078112,0.305664 -2.345277,1.302084 L 24.794788,15.5625 c 0.507894,-1.894254 2.208188,-3.159153 4.091205,-3.229167 z m -21.2899018,9.453125 32.1302928,0.05208 c 1.939311,9.4158 -4.869661,18.567709 -16,18.567708 -11.034341,0 -17.8018601,-10.405821 -16.1302928,-18.619792 z"
         id="path3002"
         inkscape:connector-curvature="0" />
    </g>
    <g
       id="g2997">
      <path
         inkscape:connector-curvature="0"
         id="path4320"
         d="M 23.986971,4 C 12.94282,4 4,12.963038 4,24 4,35.03696 12.942819,44 23.986971,44 35.031123,44 43.999996,35.036961 44,24 44.000001,12.963037 35.031122,4 23.986971,4 z m -5.159609,8.333333 c 0.434542,-0.01616 0.863996,0.03872 1.302931,0.15625 1.522507,0.407689 2.732397,1.560653 3.153095,3.072917 l -2.397395,0.703125 c -0.198276,-0.712737 -0.661428,-1.154477 -1.407166,-1.354167 -1.061383,-0.284211 -2.078113,0.305664 -2.345277,1.302084 L 14.710098,15.5625 c 0.507894,-1.894254 2.234246,-3.159153 4.117264,-3.229167 z m 10.058631,0 c 0.434543,-0.01616 0.890056,0.03872 1.328991,0.15625 1.522507,0.407689 2.706338,1.560653 3.127036,3.072917 l -2.397395,0.703125 c -0.198276,-0.712737 -0.635367,-1.154477 -1.381107,-1.354167 -1.061384,-0.284211 -2.078112,0.305664 -2.345277,1.302084 L 24.794788,15.5625 c 0.507894,-1.894254 2.208188,-3.159153 4.091205,-3.229167 z m -21.2899018,9.453125 32.1302928,0.05208 c 1.939311,9.4158 -4.869661,18.567709 -16,18.567708 -11.034341,0 -17.8018601,-10.405821 -16.1302928,-18.619792 z"
         style="color:#000000;fill:#000000;fill-opacity:1;fill-rule:evenodd;stroke:none;stroke-width:0.3685464;marker:none;visibility:visible;display:inline;overflow:visible" />
    </g>
  </g>
</svg>
