<?xml version="1.0" encoding="UTF-8" standalone="no"?>
<!-- Created with Inkscape (http://www.inkscape.org/) -->

<svg
   xmlns:dc="http://purl.org/dc/elements/1.1/"
   xmlns:cc="http://creativecommons.org/ns#"
   xmlns:rdf="http://www.w3.org/1999/02/22-rdf-syntax-ns#"
   xmlns:svg="http://www.w3.org/2000/svg"
   xmlns="http://www.w3.org/2000/svg"
   xmlns:sodipodi="http://sodipodi.sourceforge.net/DTD/sodipodi-0.dtd"
   xmlns:inkscape="http://www.inkscape.org/namespaces/inkscape"
   id="svg2"
   sodipodi:version="0.32"
   inkscape:version="0.48.3.1 r9886"
   width="48"
   height="48"
   version="1.0"
   sodipodi:docname="initng.svg"
   inkscape:output_extension="org.inkscape.output.svg.inkscape">
  <metadata
     id="metadata7">
    <rdf:RDF>
      <cc:Work
         rdf:about="">
        <dc:format>image/svg+xml</dc:format>
        <dc:type
           rdf:resource="http://purl.org/dc/dcmitype/StillImage" />
      </cc:Work>
    </rdf:RDF>
  </metadata>
  <defs
     id="defs5" />
  <sodipodi:namedview
     inkscape:window-height="718"
     inkscape:window-width="956"
     inkscape:pageshadow="2"
     inkscape:pageopacity="0.0"
     guidetolerance="10000"
     gridtolerance="10000"
     objecttolerance="10000"
     borderopacity="1.0"
     bordercolor="#666666"
     pagecolor="#ffffff"
     id="base"
     width="48px"
     height="48px"
     showgrid="true"
     showguides="true"
     inkscape:guide-bbox="true"
     inkscape:zoom="3.9423625"
     inkscape:cx="6.2061264"
     inkscape:cy="32.507542"
     inkscape:window-x="1"
     inkscape:window-y="0"
     inkscape:current-layer="svg2"
     inkscape:window-maximized="0" />
  <path
     sodipodi:type="arc"
     style="fill:#ffffff;fill-opacity:1;stroke:#ffffff;stroke-width:8;stroke-linecap:round;stroke-linejoin:round;stroke-miterlimit:4;stroke-opacity:1;stroke-dasharray:none"
     id="path2989"
     sodipodi:cx="23.843571"
     sodipodi:cy="28.595392"
     sodipodi:rx="10.1462"
     sodipodi:ry="9.2584076"
     d="m 33.989771,28.595392 a 10.1462,9.2584076 0 1 1 -20.2924,0 10.1462,9.2584076 0 1 1 20.2924,0 z" />
  <g
     transform="translate(0,0.5)"
     id="g2989"
     style="stroke:#ffffff;stroke-opacity:1;stroke-width:8;stroke-miterlimit:4;stroke-dasharray:none;stroke-linejoin:round;stroke-linecap:round">
    <path
       style="color:#000000;fill:#000000;fill-opacity:1;fill-rule:nonzero;stroke:#ffffff;stroke-width:8;marker:none;visibility:visible;display:inline;overflow:visible;enable-background:accumulate;stroke-opacity:1;stroke-miterlimit:4;stroke-dasharray:none;stroke-linejoin:round;stroke-linecap:round"
       d="m 18.042553,14.058511 c -5.497436,2.326967 -9.3617018,7.781401 -9.3617018,14.12234 0,8.454585 6.8645638,15.31915 15.3191488,15.319149 8.454585,0 15.319149,-6.864564 15.319149,-15.319149 0,-6.340939 -3.864266,-11.795373 -9.361702,-14.12234 l 0,5.851063 c 2.574553,1.855118 4.255319,4.859188 4.255319,8.271277 10e-7,5.635861 -4.576904,10.212766 -10.212766,10.212766 -5.635861,2e-6 -10.212766,-4.576904 -10.212766,-10.212766 0,-3.412089 1.680766,-6.416159 4.255319,-8.271277 l 0,-5.851063 z"
       id="path2991"
       inkscape:connector-curvature="0" />
    <rect
       style="color:#000000;fill:#000000;fill-opacity:1;fill-rule:nonzero;stroke:#ffffff;stroke-width:8;marker:none;visibility:visible;display:inline;overflow:visible;enable-background:accumulate;stroke-opacity:1;stroke-miterlimit:4;stroke-dasharray:none;stroke-linejoin:round;stroke-linecap:round"
       id="rect2993"
       width="6.8085108"
       height="16.170212"
       x="20.595745"
       y="12.861702" />
    <path
       sodipodi:type="arc"
       style="color:#000000;fill:#000000;fill-opacity:1;fill-rule:nonzero;stroke:#ffffff;stroke-width:2.14405775999999992;marker:none;visibility:visible;display:inline;overflow:visible;enable-background:accumulate;stroke-opacity:1;stroke-miterlimit:4;stroke-dasharray:none;stroke-linejoin:round;stroke-linecap:round"
       id="path2995"
       sodipodi:cx="23.541155"
       sodipodi:cy="3.5184276"
       sodipodi:rx="1.0313268"
       sodipodi:ry="0.80712533"
       d="m 24.572482,3.5184276 c 0,0.445763 -0.461741,0.8071253 -1.031327,0.8071253 -0.569586,0 -1.031327,-0.3613623 -1.031327,-0.8071253 0,-0.445763 0.461741,-0.8071253 1.031327,-0.8071253 0.569586,0 1.031327,0.3613623 1.031327,0.8071253 z"
       transform="matrix(3.3008507,0,0,4.2177529,-53.705837,-7.9356032)" />
  </g>
  <g
     id="g2984"
     transform="translate(0,0.5)">
    <path
       inkscape:connector-curvature="0"
       id="path4113"
       d="m 18.042553,14.058511 c -5.497436,2.326967 -9.3617018,7.781401 -9.3617018,14.12234 0,8.454585 6.8645638,15.31915 15.3191488,15.319149 8.454585,0 15.319149,-6.864564 15.319149,-15.319149 0,-6.340939 -3.864266,-11.795373 -9.361702,-14.12234 l 0,5.851063 c 2.574553,1.855118 4.255319,4.859188 4.255319,8.271277 10e-7,5.635861 -4.576904,10.212766 -10.212766,10.212766 -5.635861,2e-6 -10.212766,-4.576904 -10.212766,-10.212766 0,-3.412089 1.680766,-6.416159 4.255319,-8.271277 l 0,-5.851063 z"
       style="color:#000000;fill:#000000;fill-opacity:1;fill-rule:nonzero;stroke:none;stroke-width:1.0669589;marker:none;visibility:visible;display:inline;overflow:visible;enable-background:accumulate" />
    <rect
       y="12.861702"
       x="20.595745"
       height="16.170212"
       width="6.8085108"
       id="rect4105"
       style="color:#000000;fill:#000000;fill-opacity:1;fill-rule:nonzero;stroke:none;stroke-width:6;marker:none;visibility:visible;display:inline;overflow:visible;enable-background:accumulate" />
    <path
       transform="matrix(3.3008507,0,0,4.2177529,-53.705837,-7.9356032)"
       d="m 24.572482,3.5184276 c 0,0.445763 -0.461741,0.8071253 -1.031327,0.8071253 -0.569586,0 -1.031327,-0.3613623 -1.031327,-0.8071253 0,-0.445763 0.461741,-0.8071253 1.031327,-0.8071253 0.569586,0 1.031327,0.3613623 1.031327,0.8071253 z"
       sodipodi:ry="0.80712533"
       sodipodi:rx="1.0313268"
       sodipodi:cy="3.5184276"
       sodipodi:cx="23.541155"
       id="path5092"
       style="color:#000000;fill:#000000;fill-opacity:1;fill-rule:nonzero;stroke:none;stroke-width:6;marker:none;visibility:visible;display:inline;overflow:visible;enable-background:accumulate"
       sodipodi:type="arc" />
  </g>
</svg>
