<?xml version="1.0" encoding="UTF-8" standalone="no"?>
<!-- Created with Inkscape (http://www.inkscape.org/) -->

<svg
   xmlns:dc="http://purl.org/dc/elements/1.1/"
   xmlns:cc="http://creativecommons.org/ns#"
   xmlns:rdf="http://www.w3.org/1999/02/22-rdf-syntax-ns#"
   xmlns:svg="http://www.w3.org/2000/svg"
   xmlns="http://www.w3.org/2000/svg"
   xmlns:sodipodi="http://sodipodi.sourceforge.net/DTD/sodipodi-0.dtd"
   xmlns:inkscape="http://www.inkscape.org/namespaces/inkscape"
   id="svg2"
   sodipodi:version="0.32"
   inkscape:version="0.48.3.1 r9886"
   width="48"
   height="48"
   version="1.0"
   sodipodi:docname="internet-mail.old.svg"
   inkscape:output_extension="org.inkscape.output.svg.inkscape">
  <metadata
     id="metadata7">
    <rdf:RDF>
      <cc:Work
         rdf:about="">
        <dc:format>image/svg+xml</dc:format>
        <dc:type
           rdf:resource="http://purl.org/dc/dcmitype/StillImage" />
      </cc:Work>
    </rdf:RDF>
  </metadata>
  <defs
     id="defs5" />
  <sodipodi:namedview
     inkscape:window-height="717"
     inkscape:window-width="1366"
     inkscape:pageshadow="2"
     inkscape:pageopacity="0.0"
     guidetolerance="10.0"
     gridtolerance="10.0"
     objecttolerance="10.0"
     borderopacity="1.0"
     bordercolor="#666666"
     pagecolor="#ffffff"
     id="base"
     inkscape:zoom="5.9956762"
     inkscape:cx="-5.712647"
     inkscape:cy="20.192825"
     inkscape:window-x="0"
     inkscape:window-y="0"
     inkscape:current-layer="svg2"
     showgrid="false"
     inkscape:window-maximized="1" />
  <g
     id="g2995"
     style="stroke:#ffffff;stroke-opacity:1;stroke-width:8;stroke-miterlimit:4;stroke-dasharray:none;stroke-linejoin:round;stroke-linecap:round">
    <g
       id="g2997"
       transform="matrix(0.98841568,0,0,0.97338403,-0.26254262,1.5057034)"
       style="stroke:#ffffff;stroke-opacity:1;stroke-width:8.15601593000000058;stroke-miterlimit:4;stroke-dasharray:none;stroke-linejoin:round;stroke-linecap:round">
      <path
         id="path2999"
         d="m 40.3125,6.5625 -6.96875,1.21875 0,2.84375 0,1.15625 -1.1875,0.0625 -3.28125,0.1875 -2.34375,14 -0.15625,1.03125 -1.0625,0 -3.84375,0 -1.34375,0 0.09375,-1.3125 1.1875,-15.90625 -7.3125,1.28125 c 3.44926,3.632584 5.660195,8.66568 5.03125,14.21875 -0.0024,0.02146 0.0025,0.04102 0,0.0625 l 0,0.0625 -0.25,17.65625 25.78125,-12.53125 0.125,-19.0625 c 0.006,-0.829477 -0.490412,-2.0576045 -1.375,-3.0625 C 42.555485,7.502277 41.384225,6.7948652 40.3125,6.5625 z"
         style="fill:#000000;fill-opacity:1;fill-rule:evenodd;stroke:#ffffff;stroke-opacity:1;stroke-width:8.15601593000000058;stroke-miterlimit:4;stroke-dasharray:none;stroke-linejoin:round;stroke-linecap:round"
         inkscape:connector-curvature="0" />
      <path
         sodipodi:nodetypes="csccccsc"
         id="path3001"
         d="m 10,12.3125 c 2.459643,0.430782 5.51554,3.618322 5.875,9.5 0.0021,0.03383 -0.0019,0.05974 0,0.09375 l -0.21875,21.75 -11.34375,-7.875 0.34375,-15.9375 C 4.7903237,16.728215 5.6231706,14.730319 6.625,13.59375 7.6268294,12.457181 8.7631057,12.09587 10,12.3125 z"
         style="fill:#000000;fill-opacity:1;fill-rule:evenodd;stroke:#ffffff;stroke-opacity:1;stroke-width:8.15601593000000058;stroke-miterlimit:4;stroke-dasharray:none;stroke-linejoin:round;stroke-linecap:round"
         inkscape:connector-curvature="0" />
      <path
         sodipodi:nodetypes="ccccccccc"
         id="path3003"
         d="m 24.40625,2.5625 6.4375,0 0,6.875 -3.125,0.15625 -1,0.0625 -0.15625,0.96875 -2.3125,13.9375 -1.4375,0 1.59375,-22 z"
         style="fill:#000000;fill-opacity:1;fill-rule:evenodd;stroke:#ffffff;stroke-opacity:1;stroke-width:8.15601593000000058;stroke-miterlimit:4;stroke-dasharray:none;stroke-linejoin:round;stroke-linecap:round"
         inkscape:connector-curvature="0" />
    </g>
  </g>
  <g
     id="g2989">
    <g
       transform="matrix(0.98841568,0,0,0.97338403,-0.26254262,1.5057034)"
       id="g2984">
      <path
         inkscape:connector-curvature="0"
         style="fill:#000000;fill-opacity:1;fill-rule:evenodd;stroke:none"
         d="m 40.3125,6.5625 -6.96875,1.21875 0,2.84375 0,1.15625 -1.1875,0.0625 -3.28125,0.1875 -2.34375,14 -0.15625,1.03125 -1.0625,0 -3.84375,0 -1.34375,0 0.09375,-1.3125 1.1875,-15.90625 -7.3125,1.28125 c 3.44926,3.632584 5.660195,8.66568 5.03125,14.21875 -0.0024,0.02146 0.0025,0.04102 0,0.0625 l 0,0.0625 -0.25,17.65625 25.78125,-12.53125 0.125,-19.0625 c 0.006,-0.829477 -0.490412,-2.0576045 -1.375,-3.0625 C 42.555485,7.502277 41.384225,6.7948652 40.3125,6.5625 z"
         id="path2163" />
      <path
         inkscape:connector-curvature="0"
         style="fill:#000000;fill-opacity:1;fill-rule:evenodd;stroke:none"
         d="m 10,12.3125 c 2.459643,0.430782 5.51554,3.618322 5.875,9.5 0.0021,0.03383 -0.0019,0.05974 0,0.09375 l -0.21875,21.75 -11.34375,-7.875 0.34375,-15.9375 C 4.7903237,16.728215 5.6231706,14.730319 6.625,13.59375 7.6268294,12.457181 8.7631057,12.09587 10,12.3125 z"
         id="path2169"
         sodipodi:nodetypes="csccccsc" />
      <path
         inkscape:connector-curvature="0"
         style="fill:#000000;fill-opacity:1;fill-rule:evenodd;stroke:none"
         d="m 24.40625,2.5625 6.4375,0 0,6.875 -3.125,0.15625 -1,0.0625 -0.15625,0.96875 -2.3125,13.9375 -1.4375,0 1.59375,-22 z"
         id="path3142"
         sodipodi:nodetypes="ccccccccc" />
    </g>
  </g>
</svg>
