<?xml version="1.0" encoding="UTF-8" standalone="no"?>
<!-- Generator: Adobe Illustrator 11.0, SVG Export Plug-In  -->

<svg
   xmlns:dc="http://purl.org/dc/elements/1.1/"
   xmlns:cc="http://creativecommons.org/ns#"
   xmlns:rdf="http://www.w3.org/1999/02/22-rdf-syntax-ns#"
   xmlns:svg="http://www.w3.org/2000/svg"
   xmlns="http://www.w3.org/2000/svg"
   xmlns:sodipodi="http://sodipodi.sourceforge.net/DTD/sodipodi-0.dtd"
   xmlns:inkscape="http://www.inkscape.org/namespaces/inkscape"
   width="48"
   height="48"
   viewBox="-0.7 -0.596 512 438"
   xml:space="preserve"
   id="svg2"
   sodipodi:version="0.32"
   inkscape:version="0.48.3.1 r9886"
   sodipodi:docname="preferences-desktop-keyboard-shortcuts.svg"
   inkscape:output_extension="org.inkscape.output.svg.inkscape"
   version="1.0"><metadata
   id="metadata29"><rdf:RDF><cc:Work
       rdf:about=""><dc:format>image/svg+xml</dc:format><dc:type
         rdf:resource="http://purl.org/dc/dcmitype/StillImage" /></cc:Work></rdf:RDF></metadata><sodipodi:namedview
   inkscape:window-height="614"
   inkscape:window-width="772"
   inkscape:pageshadow="2"
   inkscape:pageopacity="0.0"
   guidetolerance="10000"
   gridtolerance="10000"
   objecttolerance="10000"
   borderopacity="1.0"
   bordercolor="#666666"
   pagecolor="#ffffff"
   id="base"
   width="48px"
   height="48px"
   showgrid="true"
   inkscape:zoom="7.4337899"
   inkscape:cx="-1.6907421"
   inkscape:cy="24.97912"
   inkscape:window-x="485"
   inkscape:window-y="42"
   inkscape:current-layer="svg2"
   inkscape:window-maximized="0" />
	<defs
   id="defs4">
	</defs>
	<g
   style="fill:#000000;fill-opacity:1;stroke:#ffffff;stroke-opacity:1;stroke-width:47.34234324999999188;stroke-miterlimit:4;stroke-dasharray:none;stroke-linejoin:round;stroke-linecap:round"
   transform="matrix(1.8024738,0,0,1.8024738,-204.67471,-174.78069)"
   id="g2983">
		 
		
		
		 
		<path
   inkscape:connector-curvature="0"
   style="fill:#000000;fill-opacity:1;stroke:#ffffff;stroke-opacity:1;stroke-width:9.61874987999999931;stroke-miterlimit:4;stroke-dasharray:none;stroke-linejoin:round;stroke-linecap:round"
   id="path2985"
   transform="matrix(4.9218811,0,0,4.9218811,137.14255,100.24171)"
   d="m 10.03125,-0.09375 c -5.5734797,0 -10.09375,4.5182782 -10.09375,10.0625 0,5.573479 4.549528,10.106385 10.09375,10.0625 l 4.71875,0 0,7.875 -4.71875,0 c -5.5734797,0 -10.09375,4.487029 -10.09375,10.03125 0,5.588111 4.5202709,10.0625 10.09375,10.0625 5.544222,4e-6 10.0625,-4.474392 10.0625,-10.0625 l 0,-4.6875 7.84375,0 0,4.6875 C 27.937496,43.525611 32.409898,48 37.96875,48 c 5.573483,4e-6 10.062501,-4.474392 10.0625,-10.0625 4e-6,-5.544222 -4.489023,-10.03125 -10.0625,-10.03125 l -4.71875,0 0,-7.875 4.71875,0 c 5.573483,0 10.062501,-4.489021 10.0625,-10.0625 4e-6,-5.5442209 -4.489023,-10.0625 -10.0625,-10.0625 -5.558846,0 -10.060507,4.5182782 -10.03125,10.0625 l 0,4.75 -7.84375,0 0,-4.75 c 4e-6,-5.5442209 -4.518278,-10.0625 -10.0625,-10.0625 z m 0,5.34375 c 2.589254,-8e-7 4.71875,2.0982459 4.71875,4.6875 l 0,4.75 -4.71875,0 c -2.63314,0 -4.7187502,-2.116861 -4.71875,-4.75 -8e-7,-2.5892528 2.0856103,-4.6874999 4.71875,-4.6875 z m 27.9375,0 c 2.633142,-5e-7 4.71875,2.098246 4.71875,4.6875 3e-6,2.633139 -2.08561,4.75 -4.71875,4.75 l -4.71875,0 0,-4.75 c 3e-6,-2.5892532 2.129496,-4.6875 4.71875,-4.6875 z m -17.875,14.78125 7.84375,0 0,7.875 -7.84375,0 0,-7.875 z M 10.03125,33.25 l 4.71875,0 0,4.6875 c 0,2.633141 -2.129496,4.750001 -4.71875,4.75 -2.6331397,10e-7 -4.7187502,-2.11686 -4.71875,-4.75 -2e-7,-2.589253 2.0856103,-4.687498 4.71875,-4.6875 z m 23.21875,0 4.71875,0 c 2.633142,0 4.71875,2.098247 4.71875,4.6875 2e-6,2.633142 -2.085611,4.750001 -4.71875,4.75 -2.589252,2e-6 -4.71875,-2.11686 -4.71875,-4.75 l 0,-4.6875 z" />
		 
		
		
		
		
	</g><g
   id="g6"
   transform="matrix(1.8024738,0,0,1.8024738,-204.67471,-174.78069)"
   style="fill:#000000;fill-opacity:1;stroke:none">
		 
		
		
		 
		<path
   d="m 10.03125,-0.09375 c -5.5734797,0 -10.09375,4.5182782 -10.09375,10.0625 0,5.573479 4.549528,10.106385 10.09375,10.0625 l 4.71875,0 0,7.875 -4.71875,0 c -5.5734797,0 -10.09375,4.487029 -10.09375,10.03125 0,5.588111 4.5202709,10.0625 10.09375,10.0625 5.544222,4e-6 10.0625,-4.474392 10.0625,-10.0625 l 0,-4.6875 7.84375,0 0,4.6875 C 27.937496,43.525611 32.409898,48 37.96875,48 c 5.573483,4e-6 10.062501,-4.474392 10.0625,-10.0625 4e-6,-5.544222 -4.489023,-10.03125 -10.0625,-10.03125 l -4.71875,0 0,-7.875 4.71875,0 c 5.573483,0 10.062501,-4.489021 10.0625,-10.0625 4e-6,-5.5442209 -4.489023,-10.0625 -10.0625,-10.0625 -5.558846,0 -10.060507,4.5182782 -10.03125,10.0625 l 0,4.75 -7.84375,0 0,-4.75 c 4e-6,-5.5442209 -4.518278,-10.0625 -10.0625,-10.0625 z m 0,5.34375 c 2.589254,-8e-7 4.71875,2.0982459 4.71875,4.6875 l 0,4.75 -4.71875,0 c -2.63314,0 -4.7187502,-2.116861 -4.71875,-4.75 -8e-7,-2.5892528 2.0856103,-4.6874999 4.71875,-4.6875 z m 27.9375,0 c 2.633142,-5e-7 4.71875,2.098246 4.71875,4.6875 3e-6,2.633139 -2.08561,4.75 -4.71875,4.75 l -4.71875,0 0,-4.75 c 3e-6,-2.5892532 2.129496,-4.6875 4.71875,-4.6875 z m -17.875,14.78125 7.84375,0 0,7.875 -7.84375,0 0,-7.875 z M 10.03125,33.25 l 4.71875,0 0,4.6875 c 0,2.633141 -2.129496,4.750001 -4.71875,4.75 -2.6331397,10e-7 -4.7187502,-2.11686 -4.71875,-4.75 -2e-7,-2.589253 2.0856103,-4.687498 4.71875,-4.6875 z m 23.21875,0 4.71875,0 c 2.633142,0 4.71875,2.098247 4.71875,4.6875 2e-6,2.633142 -2.085611,4.750001 -4.71875,4.75 -2.589252,2e-6 -4.71875,-2.11686 -4.71875,-4.75 l 0,-4.6875 z"
   transform="matrix(4.9218811,0,0,4.9218811,137.14255,100.24171)"
   id="path16"
   style="fill:#000000;fill-opacity:1;stroke:none"
   inkscape:connector-curvature="0" />
		 
		
		
		
		
	</g>
</svg>