<?xml version="1.0" encoding="UTF-8" standalone="no"?>
<!-- Created with Inkscape (http://www.inkscape.org/) -->

<svg
   xmlns:dc="http://purl.org/dc/elements/1.1/"
   xmlns:cc="http://creativecommons.org/ns#"
   xmlns:rdf="http://www.w3.org/1999/02/22-rdf-syntax-ns#"
   xmlns:svg="http://www.w3.org/2000/svg"
   xmlns="http://www.w3.org/2000/svg"
   xmlns:sodipodi="http://sodipodi.sourceforge.net/DTD/sodipodi-0.dtd"
   xmlns:inkscape="http://www.inkscape.org/namespaces/inkscape"
   version="1.0"
   width="48"
   height="48"
   id="svg2"
   inkscape:version="0.48.3.1 r9886"
   sodipodi:docname="Key.svg">
  <metadata
     id="metadata12">
    <rdf:RDF>
      <cc:Work
         rdf:about="">
        <dc:format>image/svg+xml</dc:format>
        <dc:type
           rdf:resource="http://purl.org/dc/dcmitype/StillImage" />
      </cc:Work>
    </rdf:RDF>
  </metadata>
  <sodipodi:namedview
     pagecolor="#ffffff"
     bordercolor="#666666"
     borderopacity="1"
     objecttolerance="10"
     gridtolerance="10"
     guidetolerance="10"
     inkscape:pageopacity="0"
     inkscape:pageshadow="2"
     inkscape:window-width="736"
     inkscape:window-height="480"
     id="namedview10"
     showgrid="false"
     inkscape:zoom="4.2551041"
     inkscape:cx="28.261732"
     inkscape:cy="24.28855"
     inkscape:window-x="0"
     inkscape:window-y="0"
     inkscape:window-maximized="0"
     inkscape:current-layer="g3771" />
  <defs
     id="defs5" />
  <g
     transform="matrix(0.20088808,0,0,0.20088808,-122.30515,-592.15205)"
     id="g8033">
    <g
       id="g3757"
       transform="matrix(0.29921252,0,0,0.29921252,500.20455,2946.2321)">
      <g
         id="g3764">
        <g
           id="g3771">
          <path
             d="m 646.9375,71.78125 c -91.22565,4.629986 -171.89213,85.58974 -177.36229,176.38441 -4.2894,55.75858 32.86459,113.53798 88.97575,125.0696 C 640.06803,392.75511 723.72301,338.0417 758.58401,265.90629 786.37335,211.95092 781.4498,136.40026 731.25117,97.103969 707.68864,77.95356 676.83014,70.596886 646.9375,71.78125 z m 2.53125,76.96875 c 35.48502,-6.1291 58.59684,32.57811 46.57692,63.54557 -12.77078,48.32457 -59.91592,90.62053 -111.39953,87.65963 -42.41268,-2.21192 -45.5886,-56.14194 -27.86489,-84.6427 18.11913,-34.47052 52.61321,-63.96589 92.6875,-66.5625 z m 289.375,383.21875 C 893.6875,577.125 848.53125,622.28125 803.375,667.4375 822.53125,686.59375 841.6875,705.75 860.84375,724.90625 906,679.76042 951.15625,634.61458 996.3125,589.46875 977.15625,570.30208 958,551.13542 938.84375,531.96875 z M 862.875,456.6875 c -36.33333,36.32292 -72.66667,72.64583 -109,108.96875 19.16667,19.16667 38.33333,38.33333 57.5,57.5 36.33333,-36.32292 72.66667,-72.64583 109,-108.96875 -19.16667,-19.16667 -38.33333,-38.33333 -57.5,-57.5 z m -61.5,-89.625 c -30.88542,30.89583 -61.77083,61.79167 -92.65625,92.6875 19.15625,19.15625 38.3125,38.3125 57.46875,57.46875 30.89583,-30.88542 61.79167,-61.77083 92.6875,-92.65625 -19.16667,-19.16667 -38.33333,-38.33333 -57.5,-57.5 z M 732.34375,265.25 c -23,23 -46,46 -69,69 98.07292,98.07292 196.14583,196.14583 294.21875,294.21875 23,-22.98958 46,-45.97917 69,-68.96875 C 928.48958,461.41667 830.41667,363.33333 732.34375,265.25 z"
             style="font-size:medium;font-style:normal;font-variant:normal;font-weight:normal;font-stretch:normal;text-indent:0;text-align:start;text-decoration:none;line-height:normal;letter-spacing:normal;word-spacing:normal;text-transform:none;direction:ltr;block-progression:tb;writing-mode:lr-tb;text-anchor:start;baseline-shift:baseline;color:#000000;fill:#000000;fill-opacity:1;stroke:#ffffff;stroke-width:133.09325825999999893;marker:none;visibility:visible;display:inline;overflow:visible;enable-background:accumulate;font-family:Sans;-inkscape-font-specification:Sans;stroke-miterlimit:4;stroke-dasharray:none;stroke-opacity:1;stroke-linejoin:round;stroke-linecap:round"
             id="path3860" />
          <path
             id="path3156"
             style="font-size:medium;font-style:normal;font-variant:normal;font-weight:normal;font-stretch:normal;text-indent:0;text-align:start;text-decoration:none;line-height:normal;letter-spacing:normal;word-spacing:normal;text-transform:none;direction:ltr;block-progression:tb;writing-mode:lr-tb;text-anchor:start;baseline-shift:baseline;color:#000000;fill:#000000;fill-opacity:1;stroke:none;stroke-width:77.13831329;marker:none;visibility:visible;display:inline;overflow:visible;enable-background:accumulate;font-family:Sans;-inkscape-font-specification:Sans"
             d="m 646.9375,71.78125 c -91.22565,4.629986 -171.89213,85.58974 -177.36229,176.38441 -4.2894,55.75858 32.86459,113.53798 88.97575,125.0696 C 640.06803,392.75511 723.72301,338.0417 758.58401,265.90629 786.37335,211.95092 781.4498,136.40026 731.25117,97.103969 707.68864,77.95356 676.83014,70.596886 646.9375,71.78125 z m 2.53125,76.96875 c 35.48502,-6.1291 58.59684,32.57811 46.57692,63.54557 -12.77078,48.32457 -59.91592,90.62053 -111.39953,87.65963 -42.41268,-2.21192 -45.5886,-56.14194 -27.86489,-84.6427 18.11913,-34.47052 52.61321,-63.96589 92.6875,-66.5625 z m 289.375,383.21875 C 893.6875,577.125 848.53125,622.28125 803.375,667.4375 822.53125,686.59375 841.6875,705.75 860.84375,724.90625 906,679.76042 951.15625,634.61458 996.3125,589.46875 977.15625,570.30208 958,551.13542 938.84375,531.96875 z M 862.875,456.6875 c -36.33333,36.32292 -72.66667,72.64583 -109,108.96875 19.16667,19.16667 38.33333,38.33333 57.5,57.5 36.33333,-36.32292 72.66667,-72.64583 109,-108.96875 -19.16667,-19.16667 -38.33333,-38.33333 -57.5,-57.5 z m -61.5,-89.625 c -30.88542,30.89583 -61.77083,61.79167 -92.65625,92.6875 19.15625,19.15625 38.3125,38.3125 57.46875,57.46875 30.89583,-30.88542 61.79167,-61.77083 92.6875,-92.65625 -19.16667,-19.16667 -38.33333,-38.33333 -57.5,-57.5 z M 732.34375,265.25 c -23,23 -46,46 -69,69 98.07292,98.07292 196.14583,196.14583 294.21875,294.21875 23,-22.98958 46,-45.97917 69,-68.96875 C 928.48958,461.41667 830.41667,363.33333 732.34375,265.25 z" />
        </g>
        <g
           id="g3778" />
      </g>
    </g>
  </g>
</svg>
