<?xml version="1.0" encoding="UTF-8" standalone="no"?>
<!-- Created with Inkscape (http://www.inkscape.org/) -->

<svg
   xmlns:dc="http://purl.org/dc/elements/1.1/"
   xmlns:cc="http://creativecommons.org/ns#"
   xmlns:rdf="http://www.w3.org/1999/02/22-rdf-syntax-ns#"
   xmlns:svg="http://www.w3.org/2000/svg"
   xmlns="http://www.w3.org/2000/svg"
   xmlns:sodipodi="http://sodipodi.sourceforge.net/DTD/sodipodi-0.dtd"
   xmlns:inkscape="http://www.inkscape.org/namespaces/inkscape"
   id="svg2"
   sodipodi:version="0.32"
   inkscape:version="0.48.3.1 r9886"
   width="48"
   height="48"
   version="1.0"
   sodipodi:docname="mercurylogo.svg"
   inkscape:output_extension="org.inkscape.output.svg.inkscape">
  <metadata
     id="metadata7">
    <rdf:RDF>
      <cc:Work
         rdf:about="">
        <dc:format>image/svg+xml</dc:format>
        <dc:type
           rdf:resource="http://purl.org/dc/dcmitype/StillImage" />
      </cc:Work>
    </rdf:RDF>
  </metadata>
  <defs
     id="defs5" />
  <sodipodi:namedview
     inkscape:window-height="717"
     inkscape:window-width="1366"
     inkscape:pageshadow="2"
     inkscape:pageopacity="0.0"
     guidetolerance="10000"
     gridtolerance="10000"
     objecttolerance="10000"
     borderopacity="1.0"
     bordercolor="#666666"
     pagecolor="#ffffff"
     id="base"
     width="48px"
     height="48px"
     showgrid="true"
     showguides="true"
     inkscape:guide-bbox="true"
     inkscape:zoom="4"
     inkscape:cx="-48.016523"
     inkscape:cy="16.032959"
     inkscape:window-x="0"
     inkscape:window-y="0"
     inkscape:current-layer="svg2"
     inkscape:window-maximized="1" />
  <g
     id="g2987"
     style="stroke:#ffffff;stroke-opacity:1;stroke-width:8;stroke-miterlimit:4;stroke-dasharray:none;stroke-linejoin:round;stroke-linecap:round">
    <path
       style="color:#000000;fill:#000000;fill-opacity:1;fill-rule:nonzero;stroke:#ffffff;stroke-width:8;marker:none;visibility:visible;display:inline;overflow:visible;enable-background:accumulate;stroke-opacity:1;stroke-miterlimit:4;stroke-dasharray:none;stroke-linejoin:round;stroke-linecap:round"
       d="M 20.569357,10.339049 C 11.513645,10.339049 4,17.971102 4,27.169524 4,36.367947 11.513645,44 20.569357,44 c 9.055713,0 16.569357,-7.632053 16.569357,-16.830476 0,-9.198422 -7.513644,-16.830475 -16.569357,-16.830475 z m 0,3.606531 c 7.27694,0 13.018781,5.832327 13.018781,13.223944 0,7.391618 -5.741841,13.223945 -13.018781,13.223945 -7.276939,0 -13.0187805,-5.832327 -13.0187805,-13.223945 0,-7.391617 5.7418415,-13.223944 13.0187805,-13.223944 z"
       id="path2989"
       inkscape:connector-curvature="0" />
    <path
       style="fill:#000000;fill-opacity:1;fill-rule:evenodd;stroke:#ffffff;stroke-width:8;stroke-linecap:round;stroke-linejoin:round;stroke-opacity:1;stroke-miterlimit:4;stroke-dasharray:none"
       d="m 16.459893,27.169524 c 2.054732,5.009071 5.967424,2.118044 12.328391,0 6.360968,-2.118043 14.714303,-2.788117 14.794069,-2.504534 L 28.788284,22.160455 43.582353,19.655919 28.788284,17.151384 43.582353,14.646849 28.788284,12.142314 43.582353,9.637779 c 0.05985,0.06079 -7.884654,-0.704015 -14.794069,-2.504535 -6.909414,-1.8005194 -5.136829,-5.00907 -8.218927,0 -3.082098,5.00907 -6.164195,15.027211 -4.109464,20.03628 z"
       id="path2991"
       sodipodi:nodetypes="czccccccczzz"
       inkscape:connector-curvature="0" />
  </g>
  <g
     id="g2983">
    <path
       inkscape:connector-curvature="0"
       id="path2165"
       d="M 20.569357,10.339049 C 11.513645,10.339049 4,17.971102 4,27.169524 4,36.367947 11.513645,44 20.569357,44 c 9.055713,0 16.569357,-7.632053 16.569357,-16.830476 0,-9.198422 -7.513644,-16.830475 -16.569357,-16.830475 z m 0,3.606531 c 7.27694,0 13.018781,5.832327 13.018781,13.223944 0,7.391618 -5.741841,13.223945 -13.018781,13.223945 -7.276939,0 -13.0187805,-5.832327 -13.0187805,-13.223945 0,-7.391617 5.7418415,-13.223944 13.0187805,-13.223944 z"
       style="color:#000000;fill:#000000;fill-opacity:1;fill-rule:nonzero;stroke:none;stroke-width:0.1736111;marker:none;visibility:visible;display:inline;overflow:visible;enable-background:accumulate" />
    <path
       inkscape:connector-curvature="0"
       sodipodi:nodetypes="czccccccczzz"
       id="path2162"
       d="m 16.459893,27.169524 c 2.054732,5.009071 5.967424,2.118044 12.328391,0 6.360968,-2.118043 14.714303,-2.788117 14.794069,-2.504534 L 28.788284,22.160455 43.582353,19.655919 28.788284,17.151384 43.582353,14.646849 28.788284,12.142314 43.582353,9.637779 c 0.05985,0.06079 -7.884654,-0.704015 -14.794069,-2.504535 -6.909414,-1.8005194 -5.136829,-5.00907 -8.218927,0 -3.082098,5.00907 -6.164195,15.027211 -4.109464,20.03628 z"
       style="fill:#000000;fill-opacity:1;fill-rule:evenodd;stroke:#000000;stroke-width:0.82834357px;stroke-linecap:butt;stroke-linejoin:round;stroke-opacity:1" />
  </g>
</svg>
