<?xml version="1.0" encoding="UTF-8" standalone="no"?>
<!-- Created with Inkscape (http://www.inkscape.org/) -->

<svg
   xmlns:dc="http://purl.org/dc/elements/1.1/"
   xmlns:cc="http://creativecommons.org/ns#"
   xmlns:rdf="http://www.w3.org/1999/02/22-rdf-syntax-ns#"
   xmlns:svg="http://www.w3.org/2000/svg"
   xmlns="http://www.w3.org/2000/svg"
   xmlns:sodipodi="http://sodipodi.sourceforge.net/DTD/sodipodi-0.dtd"
   xmlns:inkscape="http://www.inkscape.org/namespaces/inkscape"
   id="svg2"
   sodipodi:version="0.32"
   inkscape:version="0.48.3.1 r9886"
   width="48"
   height="48"
   version="1.0"
   sodipodi:docname="murrine-configurator.svg"
   inkscape:output_extension="org.inkscape.output.svg.inkscape">
  <metadata
     id="metadata7">
    <rdf:RDF>
      <cc:Work
         rdf:about="">
        <dc:format>image/svg+xml</dc:format>
        <dc:type
           rdf:resource="http://purl.org/dc/dcmitype/StillImage" />
      </cc:Work>
    </rdf:RDF>
  </metadata>
  <defs
     id="defs5" />
  <sodipodi:namedview
     inkscape:window-height="717"
     inkscape:window-width="1366"
     inkscape:pageshadow="2"
     inkscape:pageopacity="0.0"
     guidetolerance="10000"
     gridtolerance="10000"
     objecttolerance="10000"
     borderopacity="1.0"
     bordercolor="#666666"
     pagecolor="#ffffff"
     id="base"
     showgrid="true"
     inkscape:zoom="5.5831974"
     inkscape:cx="-21.003042"
     inkscape:cy="31.814922"
     inkscape:window-x="0"
     inkscape:window-y="0"
     inkscape:current-layer="svg2"
     inkscape:window-maximized="1" />
  <path
     inkscape:connector-curvature="0"
     id="path2983"
     d="M 24.008783,4.3273356 C 12.963936,4.3273356 4,13.214013 4,24.163668 4,35.113324 12.963935,44.000002 24.008783,44 c 11.044848,0 20.008783,-8.886676 20.008783,-19.836332 0,-10.949656 -8.963935,-19.8363324 -20.008783,-19.8363324 z m 0,4.1325694 c 8.743837,0 15.840287,7.035286 15.840287,15.703763 -10e-7,8.668477 -7.09645,15.703764 -15.840287,15.703764 -8.743837,0 -15.8402864,-7.035287 -15.8402864,-15.703764 -2e-7,-8.668476 7.0964494,-15.703763 15.8402864,-15.703763 z"
     style="color:#000000;fill:#ffffff;fill-opacity:1;fill-rule:nonzero;stroke:#ffffff;stroke-width:8;marker:none;visibility:visible;display:inline;overflow:visible;enable-background:accumulate;stroke-opacity:1;stroke-miterlimit:4;stroke-dasharray:none" />
  <path
     style="fill:#ffffff;fill-opacity:1;stroke:#ffffff;stroke-width:1.433;stroke-linecap:round;stroke-linejoin:round;stroke-miterlimit:4;stroke-opacity:1;stroke-dasharray:none"
     d="m 23.619686,12.523422 c -5.590652,0.05773 -10.768697,4.61203 -11.283857,10.214801 -0.767576,5.227406 2.585055,10.570366 7.488988,12.341718 4.193063,1.593533 9.258568,0.606966 12.425676,-2.608272 3.778587,-3.46814 4.627907,-9.522152 2.087737,-13.953698 -2.072524,-3.480436 -5.871227,-6.015625 -10.013303,-5.994549 -0.235111,-0.0062 -0.47013,-0.0061 -0.705241,0 z"
     id="path3757"
     inkscape:connector-curvature="0" />
  <g
     id="g3753">
    <path
       inkscape:connector-curvature="0"
       id="path2161"
       d="M 24.008783,4.3273356 C 12.963936,4.3273356 4,13.214013 4,24.163668 4,35.113324 12.963935,44.000002 24.008783,44 c 11.044848,0 20.008783,-8.886676 20.008783,-19.836332 0,-10.949656 -8.963935,-19.8363324 -20.008783,-19.8363324 z m 0,4.1325694 c 8.743837,0 15.840287,7.035286 15.840287,15.703763 -10e-7,8.668477 -7.09645,15.703764 -15.840287,15.703764 -8.743837,0 -15.8402864,-7.035287 -15.8402864,-15.703764 -2e-7,-8.668476 7.0964494,-15.703763 15.8402864,-15.703763 z"
       style="color:#000000;fill:#000000;fill-opacity:1;fill-rule:nonzero;stroke:none;stroke-width:0.80759192;marker:none;visibility:visible;display:inline;overflow:visible;enable-background:accumulate" />
    <path
       inkscape:connector-curvature="0"
       id="path3141"
       d="M 15.67179,39.040917 19.244787,15.89853 24.008782,39.040917 29.963776,15.89853 32.345774,39.040917"
       style="fill:none;stroke:#000000;stroke-width:3.32039475;stroke-linecap:butt;stroke-linejoin:bevel;stroke-miterlimit:4;stroke-opacity:1;stroke-dasharray:none" />
  </g>
</svg>
