<?xml version="1.0" encoding="UTF-8" standalone="no"?>
<!-- Created with Inkscape (http://www.inkscape.org/) -->

<svg
   xmlns:dc="http://purl.org/dc/elements/1.1/"
   xmlns:cc="http://creativecommons.org/ns#"
   xmlns:rdf="http://www.w3.org/1999/02/22-rdf-syntax-ns#"
   xmlns:svg="http://www.w3.org/2000/svg"
   xmlns="http://www.w3.org/2000/svg"
   xmlns:sodipodi="http://sodipodi.sourceforge.net/DTD/sodipodi-0.dtd"
   xmlns:inkscape="http://www.inkscape.org/namespaces/inkscape"
   width="48px"
   height="48px"
   id="svg2160"
   sodipodi:version="0.32"
   inkscape:version="0.48.3.1 r9886"
   sodipodi:docname="MySQLIcon_Admin_48x48.svg"
   inkscape:output_extension="org.inkscape.output.svg.inkscape"
   version="1.1">
  <defs
     id="defs2162" />
  <sodipodi:namedview
     id="base"
     pagecolor="#ffffff"
     bordercolor="#666666"
     borderopacity="1.0"
     inkscape:pageopacity="0.0"
     inkscape:pageshadow="2"
     inkscape:zoom="5.656854"
     inkscape:cx="18.999625"
     inkscape:cy="34.408853"
     inkscape:current-layer="layer1"
     showgrid="true"
     inkscape:grid-bbox="true"
     inkscape:document-units="px"
     objecttolerance="10000"
     gridtolerance="10000"
     guidetolerance="10000"
     inkscape:window-width="772"
     inkscape:window-height="616"
     inkscape:window-x="80"
     inkscape:window-y="100"
     showguides="true"
     inkscape:guide-bbox="true"
     inkscape:window-maximized="0">
    <sodipodi:guide
       orientation="horizontal"
       position="24"
       id="guide3204" />
    <sodipodi:guide
       orientation="vertical"
       position="24"
       id="guide3206" />
  </sodipodi:namedview>
  <metadata
     id="metadata2165">
    <rdf:RDF>
      <cc:Work
         rdf:about="">
        <dc:format>image/svg+xml</dc:format>
        <dc:type
           rdf:resource="http://purl.org/dc/dcmitype/StillImage" />
      </cc:Work>
    </rdf:RDF>
  </metadata>
  <g
     id="layer1"
     inkscape:label="Layer 1"
     inkscape:groupmode="layer">
    <path
       id="path2985"
       d="M 24 4.84375 C 13.436371 4.84375 4.84375 13.436371 4.84375 24 C 4.84375 34.563629 13.436371 43.15625 24 43.15625 C 34.563629 43.15625 43.15625 34.563629 43.15625 24 C 43.15625 13.436371 34.563629 4.84375 24 4.84375 z M 18.4375 10.8125 L 20.9375 12.75 L 33.9375 22.75 L 35.5625 24 L 33.9375 25.25 L 20.9375 35.25 L 18.4375 37.1875 L 18.4375 34 L 18.4375 14 L 18.4375 10.8125 z "
       style="opacity:1;color:#000000;fill:#000000;fill-opacity:1;fill-rule:nonzero;stroke:#ffffff;stroke-width:9;stroke-linecap:round;stroke-linejoin:round;marker:none;stroke-miterlimit:4;stroke-dasharray:none;stroke-dashoffset:0;stroke-opacity:1;visibility:visible;display:inline;overflow:visible;enable-background:accumulate" />
    <path
       style="opacity:1;color:#000000;fill:#000000;fill-opacity:1;fill-rule:nonzero;stroke:none;stroke-width:3.125;stroke-linecap:round;stroke-linejoin:round;marker:none;stroke-miterlimit:4;stroke-dasharray:none;stroke-dashoffset:0;stroke-opacity:1;visibility:visible;display:inline;overflow:visible;enable-background:accumulate"
       d="M 24 4.84375 C 13.436371 4.84375 4.84375 13.436371 4.84375 24 C 4.84375 34.563629 13.436371 43.15625 24 43.15625 C 34.563629 43.15625 43.15625 34.563629 43.15625 24 C 43.15625 13.436371 34.563629 4.84375 24 4.84375 z M 18.4375 10.8125 L 20.9375 12.75 L 33.9375 22.75 L 35.5625 24 L 33.9375 25.25 L 20.9375 35.25 L 18.4375 37.1875 L 18.4375 34 L 18.4375 14 L 18.4375 10.8125 z "
       id="path3210" />
    <path
       style="fill:#ffffff;fill-opacity:1;stroke:none;stroke-width:1.59099999999999997;stroke-linecap:round;stroke-linejoin:round;stroke-miterlimit:4;stroke-opacity:1;stroke-dasharray:none"
       d="m 18.398885,10.974852 c -0.114159,8.510413 -0.165221,17.029108 0.03315,25.538709 -0.120804,0.526146 0.310308,0.634552 0.601481,0.233006 C 24.532702,32.589829 30.037776,28.403091 35.43022,24.106046 35.170457,23.405895 34.13564,23.05249 33.616164,22.47378 28.616182,18.582093 23.634001,14.646651 18.542516,10.886463 l -0.143631,0.08839 z"
       id="path2986"
       inkscape:connector-curvature="0" />
  </g>
</svg>
