<?xml version="1.0" encoding="UTF-8" standalone="no"?>
<!-- Created with Inkscape (http://www.inkscape.org/) -->

<svg
   xmlns:dc="http://purl.org/dc/elements/1.1/"
   xmlns:cc="http://creativecommons.org/ns#"
   xmlns:rdf="http://www.w3.org/1999/02/22-rdf-syntax-ns#"
   xmlns:svg="http://www.w3.org/2000/svg"
   xmlns="http://www.w3.org/2000/svg"
   xmlns:sodipodi="http://sodipodi.sourceforge.net/DTD/sodipodi-0.dtd"
   xmlns:inkscape="http://www.inkscape.org/namespaces/inkscape"
   width="48"
   height="48"
   id="svg2"
   sodipodi:version="0.32"
   inkscape:version="0.48.3.1 r9886"
   sodipodi:docname="onboard.svg"
   version="1.0"
   inkscape:output_extension="org.inkscape.output.svg.inkscape">
  <defs
     id="defs4" />
  <sodipodi:namedview
     id="base"
     pagecolor="#ffffff"
     bordercolor="#666666"
     borderopacity="1.0"
     inkscape:pageopacity="0.0"
     inkscape:pageshadow="2"
     inkscape:zoom="3.959798"
     inkscape:cx="5.6232673"
     inkscape:cy="20.256605"
     inkscape:document-units="px"
     inkscape:current-layer="layer1"
     inkscape:window-width="1366"
     inkscape:window-height="717"
     inkscape:window-x="0"
     inkscape:window-y="0"
     showgrid="true"
     objecttolerance="10000"
     gridtolerance="10000"
     guidetolerance="10000"
     width="48px"
     height="48px"
     inkscape:window-maximized="1" />
  <metadata
     id="metadata7">
    <rdf:RDF>
      <cc:Work
         rdf:about="">
        <dc:format>image/svg+xml</dc:format>
        <dc:type
           rdf:resource="http://purl.org/dc/dcmitype/StillImage" />
      </cc:Work>
    </rdf:RDF>
  </metadata>
  <g
     inkscape:label="Layer 1"
     inkscape:groupmode="layer"
     id="layer1">
    <g
       transform="matrix(0.83333333,0,0,0.83333333,4,4.0000002)"
       id="g2992"
       style="stroke:#ffffff;stroke-opacity:1;stroke-width:9.60000003999999940;stroke-miterlimit:4;stroke-dasharray:none">
      <path
         inkscape:connector-curvature="0"
         style="fill:#000000;fill-opacity:1;stroke:#ffffff;stroke-opacity:1;stroke-width:9.60000003999999940;stroke-miterlimit:4;stroke-dasharray:none"
         d="M 4.4375,0 C 2.0196551,0 0,2.0196576 0,4.4375 L 0,20.125 c 0,2.417842 2.0196551,4.40625 4.4375,4.40625 l 15.6875,0 c 2.417845,0 4.40625,-1.988408 4.40625,-4.40625 l 0,-15.6875 C 24.53125,2.0196576 22.542845,0 20.125,0 L 4.4375,0 z M 12,3 c 2.726471,1.76e-5 4.930067,0.8029136 6.5625,2.4375 C 20.194898,7.0643697 20.999981,9.2575965 21,12 c -2e-5,2.734674 -0.805101,4.9279 -2.4375,6.5625 C 16.930067,20.189357 14.726471,21 12,21 9.2648253,21 7.0785947,20.189357 5.4375,18.5625 3.8050802,16.935648 2.9999985,14.742421 3,12 2.9999985,9.2575967 3.8050805,7.0643699 5.4375,5.4375 7.0785945,3.8029134 9.2648251,3.0000177 12,3 z m 0,1.90625 C 10.089716,4.9062659 8.5975421,5.5420178 7.46875,6.8125 6.3486293,8.08301 5.7812457,9.8076283 5.78125,12 c -4.3e-6,2.184642 0.5673791,3.917007 1.6875,5.1875 1.1287923,1.270499 2.620966,1.906252 4.53125,1.90625 1.910263,2e-6 3.419803,-0.63575 4.53125,-1.90625 C 17.651351,15.917007 18.218733,14.184642 18.21875,12 18.218732,9.8076285 17.65135,8.0830099 16.53125,6.8125 15.419804,5.5420179 13.910263,4.9062658 12,4.90625 z"
         id="path2994" />
      <path
         inkscape:connector-curvature="0"
         style="fill:#000000;fill-opacity:1;stroke:#ffffff;stroke-opacity:1;stroke-width:9.60000003999999940;stroke-miterlimit:4;stroke-dasharray:none"
         d="m 27.875,0 c -2.417845,0 -4.40625,2.0196576 -4.40625,4.4375 l 0,15.6875 c 0,2.417842 1.988405,4.40625 4.40625,4.40625 l 15.6875,0 C 45.980345,24.53125 48,22.542842 48,20.125 L 48,4.4375 C 48,2.0196576 45.980345,0 43.5625,0 L 27.875,0 z m 0,4 15.6875,0 C 43.833529,4 44,4.166462 44,4.4375 l 0,15.6875 c 0,0.271036 -0.166473,0.40625 -0.4375,0.40625 l -15.6875,0 c -0.271029,0 -0.40625,-0.135212 -0.40625,-0.40625 l 0,-15.6875 C 27.46875,4.166462 27.603973,4 27.875,4 z"
         id="path2996" />
      <path
         inkscape:connector-curvature="0"
         style="fill:#000000;fill-opacity:1;stroke:#ffffff;stroke-opacity:1;stroke-width:9.60000003999999940;stroke-miterlimit:4;stroke-dasharray:none"
         d="M 4.4375,23.46875 C 2.0196551,23.46875 0,25.457157 0,27.875 L 0,43.5625 C 0,45.980342 2.0196536,48.000003 4.4375,48 l 15.6875,0 c 2.417845,0 4.40625,-2.019658 4.40625,-4.4375 l 0,-15.6875 c 0,-2.417842 -1.988405,-4.40625 -4.40625,-4.40625 l -15.6875,0 z m 0,4 15.6875,0 c 0.271029,0 0.40625,0.135212 0.40625,0.40625 l 0,15.6875 C 20.53125,43.833536 20.396027,44 20.125,44 L 4.4375,44 C 4.1664745,44 4,43.833538 4,43.5625 L 4,27.875 c 0,-0.27104 0.1664729,-0.40625 0.4375,-0.40625 z"
         id="path2998" />
      <path
         inkscape:connector-curvature="0"
         style="fill:#000000;fill-opacity:1;stroke:#ffffff;stroke-opacity:1;stroke-width:9.60000003999999940;stroke-miterlimit:4;stroke-dasharray:none"
         d="m 27.875,23.46875 c -2.417845,0 -4.40625,1.988407 -4.40625,4.40625 l 0,15.6875 c 0,2.417842 1.988403,4.437503 4.40625,4.4375 l 15.6875,0 C 45.980345,48 48,45.980342 48,43.5625 L 48,27.875 c 0,-2.417842 -2.019655,-4.40625 -4.4375,-4.40625 l -15.6875,0 z M 27,27 l 8.78125,0 c 2.617551,1.8e-5 4.614802,0.384666 6.03125,1.15625 1.416412,0.771617 2.12498,1.858625 2.125,3.28125 -1.9e-5,1.101152 -0.368557,1.973973 -1.09375,2.625 -0.725231,0.651048 -1.782418,1.05801 -3.1875,1.21875 1.688369,0.25721 3.008302,0.805183 3.9375,1.625 0.940488,0.811797 1.406229,1.840804 1.40625,3.0625 -2e-5,1.607507 -0.771443,2.842663 -2.3125,3.71875 C 41.146406,44.56359 38.969179,45 36.125,45 L 27,45 27,27 z m 3.4375,2 0,5.4375 5.0625,0 c 1.677039,9e-6 2.934121,-0.245426 3.75,-0.6875 0.82718,-0.450088 1.249983,-1.114961 1.25,-2.03125 -1.7e-5,-0.908225 -0.422821,-1.581134 -1.25,-2.03125 C 38.434122,29.237416 37.177041,29.000016 35.5,29 l -5.0625,0 z m 0,7.40625 0,6.59375 5.5,0 c 1.847013,2e-6 3.209881,-0.273984 4.09375,-0.8125 0.895166,-0.546548 1.343732,-1.382782 1.34375,-2.5 -1.9e-5,-1.125246 -0.448583,-1.938267 -1.34375,-2.46875 -0.88387,-0.538504 -2.246738,-0.812491 -4.09375,-0.8125 l -5.5,0 z"
         id="path3000" />
    </g>
    <g
       id="g2986"
       transform="matrix(0.83333333,0,0,0.83333333,4,4.0000002)">
      <path
         id="rect1307"
         d="M 4.4375,0 C 2.0196551,0 0,2.0196576 0,4.4375 L 0,20.125 c 0,2.417842 2.0196551,4.40625 4.4375,4.40625 l 15.6875,0 c 2.417845,0 4.40625,-1.988408 4.40625,-4.40625 l 0,-15.6875 C 24.53125,2.0196576 22.542845,0 20.125,0 L 4.4375,0 z M 12,3 c 2.726471,1.76e-5 4.930067,0.8029136 6.5625,2.4375 C 20.194898,7.0643697 20.999981,9.2575965 21,12 c -2e-5,2.734674 -0.805101,4.9279 -2.4375,6.5625 C 16.930067,20.189357 14.726471,21 12,21 9.2648253,21 7.0785947,20.189357 5.4375,18.5625 3.8050802,16.935648 2.9999985,14.742421 3,12 2.9999985,9.2575967 3.8050805,7.0643699 5.4375,5.4375 7.0785945,3.8029134 9.2648251,3.0000177 12,3 z m 0,1.90625 C 10.089716,4.9062659 8.5975421,5.5420178 7.46875,6.8125 6.3486293,8.08301 5.7812457,9.8076283 5.78125,12 c -4.3e-6,2.184642 0.5673791,3.917007 1.6875,5.1875 1.1287923,1.270499 2.620966,1.906252 4.53125,1.90625 1.910263,2e-6 3.419803,-0.63575 4.53125,-1.90625 C 17.651351,15.917007 18.218733,14.184642 18.21875,12 18.218732,9.8076285 17.65135,8.0830099 16.53125,6.8125 15.419804,5.5420179 13.910263,4.9062658 12,4.90625 z"
         style="fill:#000000;fill-opacity:1;stroke:none"
         inkscape:connector-curvature="0" />
      <path
         id="rect2202"
         d="m 27.875,0 c -2.417845,0 -4.40625,2.0196576 -4.40625,4.4375 l 0,15.6875 c 0,2.417842 1.988405,4.40625 4.40625,4.40625 l 15.6875,0 C 45.980345,24.53125 48,22.542842 48,20.125 L 48,4.4375 C 48,2.0196576 45.980345,0 43.5625,0 L 27.875,0 z m 0,4 15.6875,0 C 43.833529,4 44,4.166462 44,4.4375 l 0,15.6875 c 0,0.271036 -0.166473,0.40625 -0.4375,0.40625 l -15.6875,0 c -0.271029,0 -0.40625,-0.135212 -0.40625,-0.40625 l 0,-15.6875 C 27.46875,4.166462 27.603973,4 27.875,4 z"
         style="fill:#000000;fill-opacity:1;stroke:none"
         inkscape:connector-curvature="0" />
      <path
         id="rect2208"
         d="M 4.4375,23.46875 C 2.0196551,23.46875 0,25.457157 0,27.875 L 0,43.5625 C 0,45.980342 2.0196536,48.000003 4.4375,48 l 15.6875,0 c 2.417845,0 4.40625,-2.019658 4.40625,-4.4375 l 0,-15.6875 c 0,-2.417842 -1.988405,-4.40625 -4.40625,-4.40625 l -15.6875,0 z m 0,4 15.6875,0 c 0.271029,0 0.40625,0.135212 0.40625,0.40625 l 0,15.6875 C 20.53125,43.833536 20.396027,44 20.125,44 L 4.4375,44 C 4.1664745,44 4,43.833538 4,43.5625 L 4,27.875 c 0,-0.27104 0.1664729,-0.40625 0.4375,-0.40625 z"
         style="fill:#000000;fill-opacity:1;stroke:none"
         inkscape:connector-curvature="0" />
      <path
         id="rect2210"
         d="m 27.875,23.46875 c -2.417845,0 -4.40625,1.988407 -4.40625,4.40625 l 0,15.6875 c 0,2.417842 1.988403,4.437503 4.40625,4.4375 l 15.6875,0 C 45.980345,48 48,45.980342 48,43.5625 L 48,27.875 c 0,-2.417842 -2.019655,-4.40625 -4.4375,-4.40625 l -15.6875,0 z M 27,27 l 8.78125,0 c 2.617551,1.8e-5 4.614802,0.384666 6.03125,1.15625 1.416412,0.771617 2.12498,1.858625 2.125,3.28125 -1.9e-5,1.101152 -0.368557,1.973973 -1.09375,2.625 -0.725231,0.651048 -1.782418,1.05801 -3.1875,1.21875 1.688369,0.25721 3.008302,0.805183 3.9375,1.625 0.940488,0.811797 1.406229,1.840804 1.40625,3.0625 -2e-5,1.607507 -0.771443,2.842663 -2.3125,3.71875 C 41.146406,44.56359 38.969179,45 36.125,45 L 27,45 27,27 z m 3.4375,2 0,5.4375 5.0625,0 c 1.677039,9e-6 2.934121,-0.245426 3.75,-0.6875 0.82718,-0.450088 1.249983,-1.114961 1.25,-2.03125 -1.7e-5,-0.908225 -0.422821,-1.581134 -1.25,-2.03125 C 38.434122,29.237416 37.177041,29.000016 35.5,29 l -5.0625,0 z m 0,7.40625 0,6.59375 5.5,0 c 1.847013,2e-6 3.209881,-0.273984 4.09375,-0.8125 0.895166,-0.546548 1.343732,-1.382782 1.34375,-2.5 -1.9e-5,-1.125246 -0.448583,-1.938267 -1.34375,-2.46875 -0.88387,-0.538504 -2.246738,-0.812491 -4.09375,-0.8125 l -5.5,0 z"
         style="fill:#000000;fill-opacity:1;stroke:none"
         inkscape:connector-curvature="0" />
    </g>
  </g>
</svg>
