<?xml version="1.0" encoding="UTF-8" standalone="no"?>
<!-- Created with Inkscape (http://www.inkscape.org/) -->

<svg
   xmlns:dc="http://purl.org/dc/elements/1.1/"
   xmlns:cc="http://creativecommons.org/ns#"
   xmlns:rdf="http://www.w3.org/1999/02/22-rdf-syntax-ns#"
   xmlns:svg="http://www.w3.org/2000/svg"
   xmlns="http://www.w3.org/2000/svg"
   xmlns:xlink="http://www.w3.org/1999/xlink"
   xmlns:sodipodi="http://sodipodi.sourceforge.net/DTD/sodipodi-0.dtd"
   xmlns:inkscape="http://www.inkscape.org/namespaces/inkscape"
   version="1.1"
   width="48"
   height="48"
   viewBox="0 0 38.4 38.4"
   id="svg2"
   inkscape:version="0.48.3.1 r9886"
   sodipodi:docname="parole.svg">
  <sodipodi:namedview
     pagecolor="#ffffff"
     bordercolor="#666666"
     borderopacity="1"
     objecttolerance="10"
     gridtolerance="10"
     guidetolerance="10"
     inkscape:pageopacity="0"
     inkscape:pageshadow="2"
     inkscape:window-width="736"
     inkscape:window-height="480"
     id="namedview39"
     showgrid="false"
     inkscape:zoom="4.9166667"
     inkscape:cx="24"
     inkscape:cy="24"
     inkscape:window-x="0"
     inkscape:window-y="0"
     inkscape:window-maximized="0"
     inkscape:current-layer="g3051" />
  <defs
     id="defs24" />
  <metadata
     id="metadata4">
    <dc:date>2010-05-04 11:58Z</dc:date>
    <!-- Produced by OmniGraffle Professional 4.2.2 -->
    <rdf:RDF>
      <cc:Work
         rdf:about="">
        <dc:format>image/svg+xml</dc:format>
        <dc:type
           rdf:resource="http://purl.org/dc/dcmitype/StillImage" />
        <dc:title />
      </cc:Work>
    </rdf:RDF>
  </metadata>
  <g
     transform="matrix(0.78650482,0,0,0.78650482,4.1225278,4.5705045)"
     id="g3051"
     style="stroke:#ffffff;stroke-width:7.12010908;stroke-miterlimit:4;stroke-opacity:1;stroke-dasharray:none">
    <rect
       width="32.110001"
       height="38.405998"
       ry="0.15818"
       x="3.2546999"
       y="-0.0010676"
       id="rect3053"
       style="stroke:#ffffff;stroke-width:7.12010908;stroke-miterlimit:4;stroke-opacity:1;stroke-dasharray:none" />
    <path
       d="m 3.2447,-1.5591 v 40.686 h 32.13 v -40.686 h -32.13 z"
       id="path3055"
       style="fill:none;stroke:#ffffff;stroke-width:8.13726736;stroke-miterlimit:4;stroke-opacity:1;stroke-dasharray:none;stroke-linejoin:round;stroke-linecap:round" />
    <path
       d="m 15.29,7.487 h 8.06 c 1.7121,0 3.1,0.97721 3.1,2.1827 v 5.8932 c 0,1.2054 -1.3879,2.1827 -3.1,2.1827 h -8.06 c -1.7121,0 -3.1,-0.97721 -3.1,-2.1827 v -1e-6 -5.8932 c 0,-1.2054 1.3879,-2.1827 3.1,-2.1827 z"
       id="path3057"
       style="fill:#ffffff;stroke:#ffffff;stroke-width:7.12010908;stroke-miterlimit:4;stroke-opacity:1;stroke-dasharray:none" />
    <path
       d="m 29.102,5.0911 h 1.9517 c 0.41458,0 0.75067,-0.35169 0.75067,-0.78551 v -2.1209 c 0,-0.43383 -0.33608,-0.78551 -0.75067,-0.78551 H 29.102 c -0.41458,0 -0.75067,0.35169 -0.75067,0.78551 v 2.1209 c 0,0.43383 0.33608,0.78551 0.75067,0.78551 z"
       id="path3059"
       style="fill:#ffffff;stroke:#ffffff;stroke-width:7.12010908;stroke-miterlimit:4;stroke-opacity:1;stroke-dasharray:none" />
    <path
       d="m 29.102,9.3781 h 1.9517 c 0.41458,0 0.75067,0.35169 0.75067,0.78551 v 2.1209 c 0,0.43383 -0.33608,0.78551 -0.75067,0.78551 H 29.102 c -0.41458,0 -0.75067,-0.35169 -0.75067,-0.78551 v -2.1209 c 0,-0.43383 0.33608,-0.78551 0.75067,-0.78551 z"
       id="path3061"
       style="fill:#ffffff;stroke:#ffffff;stroke-width:7.12010908;stroke-miterlimit:4;stroke-opacity:1;stroke-dasharray:none" />
    <path
       d="m 29.102,17.357 h 1.9517 c 0.41458,0 0.75067,0.35168 0.75067,0.78551 v 2.1209 c 0,0.43383 -0.33608,0.78551 -0.75067,0.78551 H 29.102 c -0.41458,0 -0.75067,-0.35169 -0.75067,-0.78551 v -2.1209 c 0,-0.43383 0.33608,-0.78551 0.75067,-0.78551 z"
       id="path3063"
       style="fill:#ffffff;stroke:#ffffff;stroke-width:7.12010908;stroke-miterlimit:4;stroke-opacity:1;stroke-dasharray:none" />
    <path
       d="m 29.102,25.336 h 1.9517 c 0.41458,0 0.75067,0.35168 0.75067,0.78551 v 2.1209 c 0,0.43383 -0.33608,0.78551 -0.75067,0.78551 H 29.102 c -0.41458,0 -0.75067,-0.35169 -0.75067,-0.78551 v -2.1209 c 0,-0.43383 0.33608,-0.78551 0.75067,-0.78551 z"
       id="path3065"
       style="fill:#ffffff;stroke:#ffffff;stroke-width:7.12010908;stroke-miterlimit:4;stroke-opacity:1;stroke-dasharray:none" />
    <path
       d="m 29.102,33.315 h 1.9517 c 0.41458,0 0.75067,0.35168 0.75067,0.78551 v 2.1209 c 0,0.43383 -0.33608,0.78551 -0.75067,0.78551 H 29.102 c -0.41458,0 -0.75067,-0.35169 -0.75067,-0.78551 v -2.1209 c 0,-0.43383 0.33608,-0.78551 0.75067,-0.78551 z"
       id="path3067"
       style="fill:#ffffff;stroke:#ffffff;stroke-width:7.12010908;stroke-miterlimit:4;stroke-opacity:1;stroke-dasharray:none" />
    <path
       d="m 6.9096,5.0911 h 1.9517 c 0.41458,0 0.75067,-0.35169 0.75067,-0.78551 V 2.18469 C 9.61197,1.75086 9.27589,1.39918 8.8613,1.39918 H 6.9096 c -0.41458,0 -0.75067,0.35169 -0.75067,0.78551 v 2.1209 c 0,0.43383 0.33609,0.78551 0.75067,0.78551 z"
       id="path3069"
       style="fill:#ffffff;stroke:#ffffff;stroke-width:7.12010908;stroke-miterlimit:4;stroke-opacity:1;stroke-dasharray:none" />
    <path
       d="m 6.9096,9.2962 h 1.9517 c 0.41458,0 0.75067,0.35169 0.75067,0.78551 v 2.1209 c 0,0.43383 -0.33608,0.78551 -0.75067,0.78551 H 6.9096 c -0.41458,0 -0.75067,-0.35169 -0.75067,-0.78551 v -2.1209 c 0,-0.43383 0.33608,-0.78551 0.75067,-0.78551 z"
       id="path3071"
       style="fill:#ffffff;stroke:#ffffff;stroke-width:7.12010908;stroke-miterlimit:4;stroke-opacity:1;stroke-dasharray:none" />
    <path
       d="m 6.9096,17.193 h 1.9517 c 0.41458,0 0.75067,0.35168 0.75067,0.78551 v 2.1209 c 0,0.43383 -0.33608,0.78551 -0.75067,0.78551 H 6.9096 c -0.41458,0 -0.75067,-0.35169 -0.75067,-0.78551 v -2.1209 c 0,-0.43383 0.33608,-0.78551 0.75067,-0.78551 z"
       id="path3073"
       style="fill:#ffffff;stroke:#ffffff;stroke-width:7.12010908;stroke-miterlimit:4;stroke-opacity:1;stroke-dasharray:none" />
    <path
       d="m 6.9096,25.09 h 1.9517 c 0.41458,0 0.75067,0.35168 0.75067,0.78551 v 2.1209 c 0,0.43383 -0.33608,0.78551 -0.75067,0.78551 H 6.9096 c -0.41458,0 -0.75067,-0.35169 -0.75067,-0.78551 v -2.1209 C 6.15893,25.44168 6.49501,25.09 6.9096,25.09 z"
       id="path3075"
       style="fill:#ffffff;stroke:#ffffff;stroke-width:7.12010908;stroke-miterlimit:4;stroke-opacity:1;stroke-dasharray:none" />
    <path
       d="m 6.9096,32.987 h 1.9517 c 0.41458,0 0.75067,0.35168 0.75067,0.78551 v 2.1209 c 0,0.43383 -0.33608,0.78551 -0.75067,0.78551 H 6.9096 c -0.41458,0 -0.75067,-0.35169 -0.75067,-0.78551 v -2.1209 c 0,-0.43383 0.33608,-0.78551 0.75067,-0.78551 z"
       id="path3077"
       style="fill:#ffffff;stroke:#ffffff;stroke-width:7.12010908;stroke-miterlimit:4;stroke-opacity:1;stroke-dasharray:none" />
    <use
       transform="translate(0,13.856)"
       id="use3079"
       style="stroke:#ffffff;stroke-width:7.12010908;stroke-miterlimit:4;stroke-opacity:1;stroke-dasharray:none"
       x="0"
       y="0"
       width="48"
       height="48"
       xlink:href="#path20" />
    <path
       d="m 12.183,0.014966 v 1.7974 c 0,1.1449 1.3882,2.0842 3.1002,2.0842 h 8.0727 c 1.7121,0 3.1002,-0.93925 3.1002,-2.0842 v -1.7974 h -14.273 z"
       id="path3081"
       style="fill:#ffffff;stroke:#ffffff;stroke-width:7.12010908;stroke-miterlimit:4;stroke-opacity:1;stroke-dasharray:none" />
    <path
       d="m 15.283,35.201 c -1.7121,0 -3.1002,0.75206 -3.1002,1.6879 v 1.5003 h 14.273 v -1.5003 c 0,-0.93582 -1.3882,-1.6879 -3.1002,-1.6879 h -8.0727 z"
       id="path3083"
       style="fill:#ffffff;stroke:#ffffff;stroke-width:7.12010908;stroke-miterlimit:4;stroke-opacity:1;stroke-dasharray:none" />
  </g>
  <g
     transform="matrix(0.78650482,0,0,0.78650482,4.1225278,4.5705045)"
     id="g3033">
    <rect
       width="32.110001"
       height="38.405998"
       ry="0.15818"
       x="3.2546999"
       y="-0.0010676"
       id="rect16" />
    <path
       d="m 3.2447,-1.5591 v 40.686 h 32.13 v -40.686 h -32.13 z"
       id="rect18"
       style="fill:none;stroke-width:0" />
    <path
       d="m 15.29,7.487 h 8.06 c 1.7121,0 3.1,0.97721 3.1,2.1827 v 5.8932 c 0,1.2054 -1.3879,2.1827 -3.1,2.1827 h -8.06 c -1.7121,0 -3.1,-0.97721 -3.1,-2.1827 v -1e-6 -5.8932 c 0,-1.2054 1.3879,-2.1827 3.1,-2.1827 z"
       id="path20"
       style="fill:#ffffff" />
    <path
       d="m 29.102,5.0911 h 1.9517 c 0.41458,0 0.75067,-0.35169 0.75067,-0.78551 v -2.1209 c 0,-0.43383 -0.33608,-0.78551 -0.75067,-0.78551 H 29.102 c -0.41458,0 -0.75067,0.35169 -0.75067,0.78551 v 2.1209 c 0,0.43383 0.33608,0.78551 0.75067,0.78551 z"
       id="path2846"
       style="fill:#ffffff" />
    <path
       d="m 29.102,9.3781 h 1.9517 c 0.41458,0 0.75067,0.35169 0.75067,0.78551 v 2.1209 c 0,0.43383 -0.33608,0.78551 -0.75067,0.78551 H 29.102 c -0.41458,0 -0.75067,-0.35169 -0.75067,-0.78551 v -2.1209 c 0,-0.43383 0.33608,-0.78551 0.75067,-0.78551 z"
       id="path2850"
       style="fill:#ffffff" />
    <path
       d="m 29.102,17.357 h 1.9517 c 0.41458,0 0.75067,0.35168 0.75067,0.78551 v 2.1209 c 0,0.43383 -0.33608,0.78551 -0.75067,0.78551 H 29.102 c -0.41458,0 -0.75067,-0.35169 -0.75067,-0.78551 v -2.1209 c 0,-0.43383 0.33608,-0.78551 0.75067,-0.78551 z"
       id="path2852"
       style="fill:#ffffff" />
    <path
       d="m 29.102,25.336 h 1.9517 c 0.41458,0 0.75067,0.35168 0.75067,0.78551 v 2.1209 c 0,0.43383 -0.33608,0.78551 -0.75067,0.78551 H 29.102 c -0.41458,0 -0.75067,-0.35169 -0.75067,-0.78551 v -2.1209 c 0,-0.43383 0.33608,-0.78551 0.75067,-0.78551 z"
       id="path2854"
       style="fill:#ffffff" />
    <path
       d="m 29.102,33.315 h 1.9517 c 0.41458,0 0.75067,0.35168 0.75067,0.78551 v 2.1209 c 0,0.43383 -0.33608,0.78551 -0.75067,0.78551 H 29.102 c -0.41458,0 -0.75067,-0.35169 -0.75067,-0.78551 v -2.1209 c 0,-0.43383 0.33608,-0.78551 0.75067,-0.78551 z"
       id="path2856"
       style="fill:#ffffff" />
    <path
       d="m 6.9096,5.0911 h 1.9517 c 0.41458,0 0.75067,-0.35169 0.75067,-0.78551 V 2.18469 C 9.61197,1.75086 9.27589,1.39918 8.8613,1.39918 H 6.9096 c -0.41458,0 -0.75067,0.35169 -0.75067,0.78551 v 2.1209 c 0,0.43383 0.33609,0.78551 0.75067,0.78551 z"
       id="path2969"
       style="fill:#ffffff" />
    <path
       d="m 6.9096,9.2962 h 1.9517 c 0.41458,0 0.75067,0.35169 0.75067,0.78551 v 2.1209 c 0,0.43383 -0.33608,0.78551 -0.75067,0.78551 H 6.9096 c -0.41458,0 -0.75067,-0.35169 -0.75067,-0.78551 v -2.1209 c 0,-0.43383 0.33608,-0.78551 0.75067,-0.78551 z"
       id="path3002"
       style="fill:#ffffff" />
    <path
       d="m 6.9096,17.193 h 1.9517 c 0.41458,0 0.75067,0.35168 0.75067,0.78551 v 2.1209 c 0,0.43383 -0.33608,0.78551 -0.75067,0.78551 H 6.9096 c -0.41458,0 -0.75067,-0.35169 -0.75067,-0.78551 v -2.1209 c 0,-0.43383 0.33608,-0.78551 0.75067,-0.78551 z"
       id="path3004"
       style="fill:#ffffff" />
    <path
       d="m 6.9096,25.09 h 1.9517 c 0.41458,0 0.75067,0.35168 0.75067,0.78551 v 2.1209 c 0,0.43383 -0.33608,0.78551 -0.75067,0.78551 H 6.9096 c -0.41458,0 -0.75067,-0.35169 -0.75067,-0.78551 v -2.1209 C 6.15893,25.44168 6.49501,25.09 6.9096,25.09 z"
       id="path3006"
       style="fill:#ffffff" />
    <path
       d="m 6.9096,32.987 h 1.9517 c 0.41458,0 0.75067,0.35168 0.75067,0.78551 v 2.1209 c 0,0.43383 -0.33608,0.78551 -0.75067,0.78551 H 6.9096 c -0.41458,0 -0.75067,-0.35169 -0.75067,-0.78551 v -2.1209 c 0,-0.43383 0.33608,-0.78551 0.75067,-0.78551 z"
       id="path3008"
       style="fill:#ffffff" />
    <use
       transform="translate(0,13.856)"
       id="use3014"
       x="0"
       y="0"
       width="48"
       height="48"
       xlink:href="#path20" />
    <path
       d="m 12.183,0.014966 0,1.7974 c 0,1.1449 1.3882,2.0842 3.1002,2.0842 l 8.0727,0 c 1.7121,0 3.1002,-0.93925 3.1002,-2.0842 l 0,-2.3145992 -14.273,-0.10343984 z"
       id="use3016"
       style="fill:#ffffff" />
    <path
       d="m 15.283,35.201 c -1.7121,0 -3.1002,0.75206 -3.1002,1.6879 l 0,2.069219 14.273,0.10344 0,-2.172659 c 0,-0.93582 -1.3882,-1.6879 -3.1002,-1.6879 l -8.0727,0 z"
       id="use3018"
       style="fill:#ffffff" />
  </g>
</svg>
