<?xml version="1.0" encoding="UTF-8" standalone="no"?>
<!-- Created with Inkscape (http://www.inkscape.org/) -->

<svg
   xmlns:dc="http://purl.org/dc/elements/1.1/"
   xmlns:cc="http://creativecommons.org/ns#"
   xmlns:rdf="http://www.w3.org/1999/02/22-rdf-syntax-ns#"
   xmlns:svg="http://www.w3.org/2000/svg"
   xmlns="http://www.w3.org/2000/svg"
   version="1.1"
   width="48"
   height="48"
   id="svg1306">
  <defs
     id="defs16" />
  <metadata
     id="metadata1311">
    <rdf:RDF>
      <cc:Work
         rdf:about="">
        <dc:format>image/svg+xml</dc:format>
        <dc:type
           rdf:resource="http://purl.org/dc/dcmitype/StillImage" />
        <dc:title></dc:title>
      </cc:Work>
    </rdf:RDF>
  </metadata>
  <g
     id="layer1">
    <rect
       width="48"
       height="48"
       ry="0"
       x="0"
       y="0"
       id="rect5680"
       style="fill:none" />
    <path
       d="M 18.08,21 H 41.92 C 43.072,21 44,21.956 44,23.143 V 44 H 16 V 23.143 C 16,21.956 16.928,21 18.08,21 z"
       id="path3560"
       style="fill-rule:evenodd;stroke:#ffffff;stroke-width:8;stroke-linecap:round;stroke-linejoin:round" />
    <g
       id="g3553">
      <path
         d="m 6.0797,4 h 21.84 c 1.152,0 2.08,0.9557 2.08,2.1429 v 20.857 h -26 V 6.1429 c 0,-1.1873 0.9275,-2.143 2.0797,-2.143 z"
         id="path2097"
         style="fill-rule:evenodd;stroke:#ffffff;stroke-width:8;stroke-linecap:round;stroke-linejoin:round" />
      <path
         d="m 6.0797,4 h 21.84 c 1.152,0 2.08,0.9557 2.08,2.1429 v 20.857 h -26 V 6.1429 c 0,-1.1873 0.9275,-2.143 2.0797,-2.143 z"
         id="rect1368"
         style="fill-rule:evenodd" />
      <path
         d="m 9,8 h 16 c 1,0 1,-0.1872 1,1 V 23 H 8 V 9 C 8,8 8,8 9,8 z"
         id="path2825"
         style="fill:#ffffff;fill-rule:evenodd" />
    </g>
    <path
       d="M 18.08,21 H 41.92 C 43.072,21 44,21.956 44,23.143 V 44 H 16 V 23.143 C 16,21.956 16.928,21 18.08,21 z"
       id="path3562"
       style="fill-rule:evenodd" />
    <path
       d="m 21,25 h 18 c 1,0 1,-0.187 1,1 V 40 H 20 V 26 c 0,-1 0,-1 1,-1 z"
       id="path3564"
       style="fill:#ffffff;fill-rule:evenodd" />
    <path
       d="M 12,12 H 22"
       id="path3571"
       style="fill:none;stroke:#000000;stroke-width:4;stroke-linecap:round;stroke-linejoin:round" />
    <path
       d="M 24,29 H 36.53"
       id="path4299"
       style="fill:none;stroke:#000000;stroke-width:4;stroke-linecap:round;stroke-linejoin:round" />
  </g>
</svg>
