<?xml version="1.0" encoding="UTF-8" standalone="no"?>
<!-- Created with Inkscape (http://www.inkscape.org/) -->

<svg
   xmlns:dc="http://purl.org/dc/elements/1.1/"
   xmlns:cc="http://creativecommons.org/ns#"
   xmlns:rdf="http://www.w3.org/1999/02/22-rdf-syntax-ns#"
   xmlns:svg="http://www.w3.org/2000/svg"
   xmlns="http://www.w3.org/2000/svg"
   xmlns:sodipodi="http://sodipodi.sourceforge.net/DTD/sodipodi-0.dtd"
   xmlns:inkscape="http://www.inkscape.org/namespaces/inkscape"
   version="1.0"
   width="48"
   height="48"
   viewBox="0 0 48 48"
   id="svg2"
   xml:space="preserve"
   inkscape:version="0.48.4 r9939"
   sodipodi:docname="preferences-desktop-wallpaper.svg"><sodipodi:namedview
     pagecolor="#ffffff"
     bordercolor="#666666"
     borderopacity="1"
     objecttolerance="10"
     gridtolerance="10"
     guidetolerance="10"
     inkscape:pageopacity="0"
     inkscape:pageshadow="2"
     inkscape:window-width="1366"
     inkscape:window-height="718"
     id="namedview17"
     showgrid="false"
     inkscape:zoom="9.8333333"
     inkscape:cx="2.7038633"
     inkscape:cy="26.663893"
     inkscape:window-x="0"
     inkscape:window-y="0"
     inkscape:window-maximized="1"
     inkscape:current-layer="svg2" /><metadata
     id="metadata25"><rdf:RDF><cc:Work
         rdf:about=""><dc:format>image/svg+xml</dc:format><dc:type
           rdf:resource="http://purl.org/dc/dcmitype/StillImage" /><dc:title /></cc:Work></rdf:RDF></metadata><defs
     id="defs23" /><rect
     width="48"
     height="48"
     x="0"
     y="0"
     id="rect5087"
     style="fill:none" /><rect
     width="48"
     height="48"
     x="0"
     y="0"
     id="rect4784"
     style="fill:none" /><path
     d="M 5.2972999,2.6267534 H 42.585334 c 1.981367,0 3.423873,1.5322664 3.423873,3.8919406 l 0.01174,30.502153 -44.0418942,-0.02002 0.01643,-30.6833741 c 0,-1.9042195 1.5054868,-3.6907957 3.3014311,-3.6907957 z"
     id="rect5040"
     style="fill:#ffffff;stroke:#ffffff;stroke-width:3.95810555999999991;stroke-miterlimit:4;stroke-opacity:1;stroke-dasharray:none;fill-opacity:1"
     inkscape:connector-curvature="0" /><path
     d="m 18,34 c 0,0 1,6 -7.008,6 -2.5052996,0 -1.9919999,4.035 -1.9919999,4.035 L 39,44 c 0,0 0.432,-3.922 -2.085,-3.941 C 29,40 30,34 30,34 H 18 z"
     id="path6541"
     style="fill:#ffffff;fill-rule:evenodd;stroke:#ffffff;stroke-width:8;stroke-linecap:round;stroke-linejoin:round;stroke-miterlimit:4;stroke-dasharray:none" /><path
     d="m 18,34 c 0,0 1,6 -7.008,5.965 C 8.4867004,39.954 9.0000001,44 9.0000001,44 H 39.085 c 0,0 0.432,-3.922 -2.085,-3.941 C 29,40 30,34 30,34 H 18 z"
     id="path9222"
     style="fill-rule:evenodd" /><path
     d="M 7.3758004,5.5616004 40.4988,5.3739004 c 2.025,0 3.501,1.4276 3.501,3.6261 V 34 h -40 V 9.0000004 c 0,-1.7738 1.5394004,-3.4384 3.3758004,-3.4384 z"
     id="path2175"
     style="fill-rule:evenodd" /><rect
     width="32"
     height="18"
     x="8"
     y="10"
     id="rect4355"
     style="fill:#ffffff;fill-rule:evenodd" /><rect
     style="fill:#000000;fill-rule:evenodd"
     id="rect2995"
     y="13"
     x="11"
     height="12"
     width="26" /><rect
     width="16"
     height="12"
     x="11"
     y="13"
     id="rect2997"
     style="fill:#dd4814;fill-rule:evenodd;fill-opacity:1" /><rect
     style="fill:#c90016;fill-rule:evenodd;fill-opacity:1"
     id="rect2999"
     y="13"
     x="11"
     height="12"
     width="6" /></svg>