<?xml version="1.0" encoding="UTF-8" standalone="no"?>
<!-- Created with Inkscape (http://www.inkscape.org/) -->

<svg
   xmlns:dc="http://purl.org/dc/elements/1.1/"
   xmlns:cc="http://creativecommons.org/ns#"
   xmlns:rdf="http://www.w3.org/1999/02/22-rdf-syntax-ns#"
   xmlns:svg="http://www.w3.org/2000/svg"
   xmlns="http://www.w3.org/2000/svg"
   version="1.1"
   width="48"
   height="48"
   id="svg2">
  <defs
     id="defs4" />
  <metadata
     id="metadata7">
    <rdf:RDF>
      <cc:Work
         rdf:about="">
        <dc:format>image/svg+xml</dc:format>
        <dc:type
           rdf:resource="http://purl.org/dc/dcmitype/StillImage" />
        <dc:title></dc:title>
      </cc:Work>
    </rdf:RDF>
  </metadata>
  <g
     transform="translate(0,-1004.3622)"
     id="layer1">
    <g
       id="g3868"
       style="stroke:#ffffff;stroke-width:8;stroke-miterlimit:4;stroke-opacity:1;stroke-dasharray:none">
      <path
         d="m 39.901026,15.675118 a 10.606602,10.606602 0 1 1 -21.213204,0 10.606602,10.606602 0 1 1 21.213204,0 z"
         transform="matrix(0.7856742,0,0,0.78567289,0.98412679,1027.7134)"
         id="path3870"
         style="fill:#808080;fill-opacity:1;stroke:#ffffff;stroke-width:10.18234634;stroke-miterlimit:4;stroke-opacity:1;stroke-dasharray:none" />
      <path
         d="m 39.901026,15.675118 a 10.606602,10.606602 0 1 1 -21.213204,0 10.606602,10.606602 0 1 1 21.213204,0 z"
         transform="matrix(0.7856742,0,0,0.78567289,0.98412679,1004.38)"
         id="path3872"
         style="fill:#c90016;fill-opacity:1;stroke:#ffffff;stroke-width:10.18234634;stroke-miterlimit:4;stroke-opacity:1;stroke-dasharray:none" />
      <path
         d="m 39.901026,15.675118 a 10.606602,10.606602 0 1 1 -21.213204,0 10.606602,10.606602 0 1 1 21.213204,0 z"
         transform="matrix(0.7856742,0,0,0.78567289,-10.68254,1016.0467)"
         id="path3874"
         style="fill:#dd4814;fill-opacity:1;stroke:#ffffff;stroke-width:10.18234634;stroke-miterlimit:4;stroke-opacity:1;stroke-dasharray:none" />
      <path
         d="m 39.901026,15.675118 a 10.606602,10.606602 0 1 1 -21.213204,0 10.606602,10.606602 0 1 1 21.213204,0 z"
         transform="matrix(0.7856742,0,0,0.78567289,12.650793,1016.0467)"
         id="path3876"
         style="fill:#000000;fill-opacity:1;stroke:#ffffff;stroke-width:10.18234634;stroke-miterlimit:4;stroke-opacity:1;stroke-dasharray:none" />
    </g>
    <g
       id="g3862">
      <path
         d="m 39.901026,15.675118 a 10.606602,10.606602 0 1 1 -21.213204,0 10.606602,10.606602 0 1 1 21.213204,0 z"
         transform="matrix(0.7856742,0,0,0.78567289,0.98412679,1027.7134)"
         id="path3806"
         style="fill:#808080;fill-opacity:1;stroke:none" />
      <path
         d="m 39.901026,15.675118 a 10.606602,10.606602 0 1 1 -21.213204,0 10.606602,10.606602 0 1 1 21.213204,0 z"
         transform="matrix(0.7856742,0,0,0.78567289,0.98412679,1004.38)"
         id="path3806-4"
         style="fill:#c90016;fill-opacity:1;stroke:none" />
      <path
         d="m 39.901026,15.675118 a 10.606602,10.606602 0 1 1 -21.213204,0 10.606602,10.606602 0 1 1 21.213204,0 z"
         transform="matrix(0.7856742,0,0,0.78567289,-10.68254,1016.0467)"
         id="path3806-4-5"
         style="fill:#dd4814;fill-opacity:1;stroke:none" />
      <path
         d="m 39.901026,15.675118 a 10.606602,10.606602 0 1 1 -21.213204,0 10.606602,10.606602 0 1 1 21.213204,0 z"
         transform="matrix(0.7856742,0,0,0.78567289,12.650793,1016.0467)"
         id="path3806-4-5-1"
         style="fill:#000000;fill-opacity:1;stroke:none" />
    </g>
  </g>
</svg>
