<?xml version="1.0" encoding="UTF-8" standalone="no"?>
<!-- Created with Inkscape (http://www.inkscape.org/) -->

<svg
   xmlns:dc="http://purl.org/dc/elements/1.1/"
   xmlns:cc="http://creativecommons.org/ns#"
   xmlns:rdf="http://www.w3.org/1999/02/22-rdf-syntax-ns#"
   xmlns:svg="http://www.w3.org/2000/svg"
   xmlns="http://www.w3.org/2000/svg"
   version="1.1"
   width="48"
   height="48"
   id="svg3316">
  <defs
     id="defs12" />
  <metadata
     id="metadata3321">
    <rdf:RDF>
      <cc:Work
         rdf:about="">
        <dc:format>image/svg+xml</dc:format>
        <dc:type
           rdf:resource="http://purl.org/dc/dcmitype/StillImage" />
        <dc:title></dc:title>
      </cc:Work>
    </rdf:RDF>
  </metadata>
  <g
     id="layer1">
    <rect
       width="48"
       height="48"
       x="0"
       y="0"
       id="rect5508"
       style="fill:none" />
    <path
       d="M 48,24 A 24,24 0 1 1 0,24 24,24 0 1 1 48,24 z"
       id="path3324"
       style="fill:#ffffff;fill-rule:evenodd" />
    <path
       d="M 44,24 A 20,20 0 1 1 4,24 20,20 0 1 1 44,24 z"
       id="path4052"
       style="fill-rule:evenodd" />
    <path
       d="M 40,24 A 16,16 0 1 1 8,24 16,16 0 1 1 40,24 z"
       id="path4780"
       style="fill:#ffffff;fill-rule:evenodd" />
    <path
       d="m 24,24 6,6"
       id="path6236"
       style="fill:none;stroke:#000000;stroke-width:6;stroke-linecap:round;stroke-miterlimit:4;stroke-dasharray:none" />
    <path
       d="M 24,23 V 14.177468"
       id="path6964"
       style="fill:none;stroke:#000000;stroke-width:6;stroke-linecap:round;stroke-miterlimit:4;stroke-dasharray:none" />
  </g>
</svg>
