<?xml version="1.0" encoding="UTF-8" standalone="no"?>
<!-- Created with Inkscape (http://www.inkscape.org/) -->

<svg
   xmlns:dc="http://purl.org/dc/elements/1.1/"
   xmlns:cc="http://creativecommons.org/ns#"
   xmlns:rdf="http://www.w3.org/1999/02/22-rdf-syntax-ns#"
   xmlns:svg="http://www.w3.org/2000/svg"
   xmlns="http://www.w3.org/2000/svg"
   version="1.1"
   width="48"
   height="48"
   id="svg3304">
  <defs
     id="defs13" />
  <metadata
     id="metadata3309">
    <rdf:RDF>
      <cc:Work
         rdf:about="">
        <dc:format>image/svg+xml</dc:format>
        <dc:type
           rdf:resource="http://purl.org/dc/dcmitype/StillImage" />
        <dc:title></dc:title>
        <dc:creator>
          <cc:Agent>
            <dc:title>Luca Ferretti &lt;elle.uca@libero.it&gt;</dc:title>
          </cc:Agent>
        </dc:creator>
        <cc:license
           rdf:resource="http://creativecommons.org/licenses/GPL/2.0/" />
        <dc:subject>
          <rdf:Bag>
            <rdf:li>monitor</rdf:li>
            <rdf:li>display</rdf:li>
            <rdf:li>video</rdf:li>
            <rdf:li>screen</rdf:li>
            <rdf:li>LCD</rdf:li>
            <rdf:li>CRT</rdf:li>
          </rdf:Bag>
        </dc:subject>
      </cc:Work>
      <cc:License
         rdf:about="http://creativecommons.org/licenses/GPL/2.0/">
        <cc:permits
           rdf:resource="http://web.resource.org/cc/Reproduction" />
        <cc:permits
           rdf:resource="http://web.resource.org/cc/Distribution" />
        <cc:requires
           rdf:resource="http://web.resource.org/cc/Notice" />
        <cc:permits
           rdf:resource="http://web.resource.org/cc/DerivativeWorks" />
        <cc:requires
           rdf:resource="http://web.resource.org/cc/ShareAlike" />
        <cc:requires
           rdf:resource="http://web.resource.org/cc/SourceCode" />
      </cc:License>
    </rdf:RDF>
  </metadata>
  <g
     id="layer1">
    <rect
       width="48"
       height="48"
       x="0"
       y="0"
       id="rect5087"
       style="fill:none" />
    <rect
       width="48"
       height="48"
       x="0"
       y="0"
       id="rect4784"
       style="fill:none" />
    <path
       d="m 4.8886,2.6477 h 38.128 c 2.026,0 3.501,1.5304 3.501,3.8872 l 0.012,30.465 -45.034,-0.02 0.0168,-30.646 c 0,-1.9019 1.5394,-3.6863 3.3758,-3.6863 z"
       id="rect5040"
       style="fill:#ffffff;fill-rule:evenodd;stroke:#ffffff;stroke-width:3;stroke-linecap:round;stroke-linejoin:round;stroke-miterlimit:4;stroke-opacity:1;stroke-dasharray:none" />
    <path
       d="m 18,34 c 0,0 1,6 -7.008,6 C 8.4867,40 9,44.035 9,44.035 L 39,44 c 0,0 0.432,-3.922 -2.085,-3.941 C 29,40 30,34 30,34 H 18 z"
       id="path6541"
       style="fill:#ffffff;fill-rule:evenodd;stroke:#ffffff;stroke-width:8;stroke-linecap:round;stroke-linejoin:round;stroke-miterlimit:4;stroke-dasharray:none" />
    <path
       d="m 18,34 c 0,0 1,6 -7.008,5.965 C 8.4867,39.954 9,44 9,44 h 30.085 c 0,0 0.432,-3.922 -2.085,-3.941 C 29,40 30,34 30,34 H 18 z"
       id="path9222"
       style="fill-rule:evenodd" />
    <path
       d="m 7.3758,5.5616 33.123,-0.1877 c 2.025,0 3.501,1.4276 3.501,3.6261 v 25 h -40 V 9 c 0,-1.7738 1.5394,-3.4384 3.3758,-3.4384 z"
       id="path2175"
       style="fill-rule:evenodd" />
    <rect
       width="32"
       height="18"
       x="8"
       y="10"
       id="rect4355"
       style="fill:#ffffff;fill-rule:evenodd" />
    <rect
       width="6.8071918"
       height="33.900723"
       x="34.282425"
       y="7.8168545"
       id="rect3757"
       style="fill:#000000;fill-opacity:1;stroke:#ffffff;stroke-width:2.56484604;stroke-linecap:round;stroke-linejoin:round;stroke-miterlimit:4;stroke-opacity:1;stroke-dasharray:none" />
    <path
       d="m 34,12.394 c 3.523549,0 3.523549,0 3.523549,0"
       id="path3759"
       style="fill:none;stroke:#ffffff;stroke-width:2;stroke-linecap:round;stroke-linejoin:round;stroke-miterlimit:4;stroke-opacity:1;stroke-dasharray:none" />
    <path
       d="m 34,17.18644 c 3.523549,0 3.523549,0 3.523549,0"
       id="path3759-6"
       style="fill:none;stroke:#ffffff;stroke-width:2;stroke-linecap:round;stroke-linejoin:round;stroke-miterlimit:4;stroke-opacity:1;stroke-dasharray:none" />
    <path
       d="m 34,22.071 c 3.523549,0 3.523549,0 3.523549,0"
       id="path3759-4"
       style="fill:none;stroke:#ffffff;stroke-width:2;stroke-linecap:round;stroke-linejoin:round;stroke-miterlimit:4;stroke-opacity:1;stroke-dasharray:none" />
    <path
       d="m 34,27.056 c 3.523549,0 3.523549,0 3.523549,0"
       id="path3759-8"
       style="fill:none;stroke:#ffffff;stroke-width:2;stroke-linecap:round;stroke-linejoin:round;stroke-miterlimit:4;stroke-opacity:1;stroke-dasharray:none" />
    <path
       d="m 34,32.135593 c 3.523549,0 3.523549,0 3.523549,0"
       id="path3759-7"
       style="fill:none;stroke:#ffffff;stroke-width:2;stroke-linecap:round;stroke-linejoin:round;stroke-miterlimit:4;stroke-opacity:1;stroke-dasharray:none" />
    <path
       d="m 34,37.067796 c 3.523549,0 3.523549,0 3.523549,0"
       id="path3759-67"
       style="fill:none;stroke:#ffffff;stroke-width:2;stroke-linecap:round;stroke-linejoin:round;stroke-miterlimit:4;stroke-opacity:1;stroke-dasharray:none" />
  </g>
</svg>
