<?xml version="1.0" encoding="UTF-8" standalone="no"?>
<!-- Created with Inkscape (http://www.inkscape.org/) -->

<svg
   xmlns:dc="http://purl.org/dc/elements/1.1/"
   xmlns:cc="http://creativecommons.org/ns#"
   xmlns:rdf="http://www.w3.org/1999/02/22-rdf-syntax-ns#"
   xmlns:svg="http://www.w3.org/2000/svg"
   xmlns="http://www.w3.org/2000/svg"
   xmlns:sodipodi="http://sodipodi.sourceforge.net/DTD/sodipodi-0.dtd"
   xmlns:inkscape="http://www.inkscape.org/namespaces/inkscape"
   id="svg4932"
   height="48px"
   width="48px"
   version="1.1"
   inkscape:version="0.48.3.1 r9886"
   sodipodi:docname="preferences-desktop-peripherals.svg">
  <defs
     id="defs23" />
  <sodipodi:namedview
     pagecolor="#ffffff"
     bordercolor="#666666"
     borderopacity="1"
     objecttolerance="10"
     gridtolerance="10"
     guidetolerance="10"
     inkscape:pageopacity="0"
     inkscape:pageshadow="2"
     inkscape:window-width="1366"
     inkscape:window-height="717"
     id="namedview21"
     showgrid="false"
     inkscape:zoom="4.9166667"
     inkscape:cx="3.8584332"
     inkscape:cy="20.272267"
     inkscape:window-x="0"
     inkscape:window-y="0"
     inkscape:window-maximized="1"
     inkscape:current-layer="g3012" />
  <metadata
     id="metadata4937">
    <rdf:RDF>
      <cc:Work
         rdf:about="">
        <dc:format>image/svg+xml</dc:format>
        <dc:type
           rdf:resource="http://purl.org/dc/dcmitype/StillImage" />
        <cc:license
           rdf:resource="http://creativecommons.org/licenses/LGPL/2.1/" />
        <dc:title>Preferences Desktop Peripherals</dc:title>
        <dc:creator>
          <cc:Agent>
            <dc:title>Andreas Nilsson</dc:title>
          </cc:Agent>
        </dc:creator>
        <dc:rights>
          <cc:Agent>
            <dc:title>Andreas Nilsson</dc:title>
          </cc:Agent>
        </dc:rights>
        <dc:source>http://www.gnome.org/</dc:source>
        <dc:subject>
          <rdf:Bag>
            <rdf:li>preferences</rdf:li>
            <rdf:li>desktop</rdf:li>
            <rdf:li>peripheral</rdf:li>
            <rdf:li>input devices</rdf:li>
            <rdf:li>mouse</rdf:li>
            <rdf:li>keyboard</rdf:li>
            <rdf:li>tablet</rdf:li>
          </rdf:Bag>
        </dc:subject>
      </cc:Work>
      <cc:License
         rdf:about="http://creativecommons.org/licenses/LGPL/2.1/">
        <cc:permits
           rdf:resource="http://web.resource.org/cc/Reproduction" />
        <cc:permits
           rdf:resource="http://web.resource.org/cc/Distribution" />
        <cc:requires
           rdf:resource="http://web.resource.org/cc/Notice" />
        <cc:permits
           rdf:resource="http://web.resource.org/cc/DerivativeWorks" />
        <cc:requires
           rdf:resource="http://web.resource.org/cc/ShareAlike" />
        <cc:requires
           rdf:resource="http://web.resource.org/cc/SourceCode" />
      </cc:License>
    </rdf:RDF>
  </metadata>
  <g
     id="layer1">
    <g
       id="g3012"
       transform="translate(-0.20339032,0.6101695)">
      <g
         id="g3816"
         style="stroke-width:8;stroke-miterlimit:4;stroke-dasharray:none;stroke:#ffffff;stroke-opacity:1;stroke-linejoin:round;stroke-linecap:round">
        <g
           id="g3818"
           transform="matrix(0.95046866,0,0,0.95046866,2.302453,1.2383085)"
           style="stroke-width:8.41690035000000059;stroke-miterlimit:4;stroke-dasharray:none;stroke:#ffffff;stroke-opacity:1;stroke-linejoin:round;stroke-linecap:round">
          <rect
             id="rect3820"
             style="stroke:#ffffff;stroke-width:8.41690035000000059;stroke-miterlimit:4;stroke-dasharray:none;stroke-opacity:1;stroke-linejoin:round;stroke-linecap:round"
             height="31"
             width="36"
             y="6"
             x="2" />
          <rect
             id="rect3822"
             style="fill:#ffffff;stroke-width:8.41690035000000059;stroke-miterlimit:4;stroke-dasharray:none;stroke:#ffffff;stroke-opacity:1;stroke-linejoin:round;stroke-linecap:round"
             height="21"
             width="26"
             y="11"
             x="7" />
          <g
             id="g3824"
             transform="matrix(0.55124,0,0,0.55124,23.464,19.746)"
             style="stroke-width:15.26903045999999975;stroke-miterlimit:4;stroke-dasharray:none;stroke:#ffffff;stroke-opacity:1;stroke-linejoin:round;stroke-linecap:round">
            <g
               id="g3826"
               style="display:none;stroke-width:15.26903045999999975;stroke-miterlimit:4;stroke-dasharray:none;stroke:#ffffff;stroke-opacity:1;stroke-linejoin:round;stroke-linecap:round">
              <path
                 id="path3828"
                 style="fill-rule:evenodd;stroke-width:15.26903045999999975;stroke-miterlimit:4;stroke-dasharray:none;stroke:#ffffff;stroke-opacity:1;stroke-linejoin:round;stroke-linecap:round"
                 d="m 37.174,21.717 a 13.533,11.674 0 1 1 -27.065,0 13.533,11.674 0 1 1 27.065,0 z"
                 inkscape:connector-curvature="0" />
              <path
                 id="path3830"
                 style="fill-rule:evenodd;stroke-width:15.26903045999999975;stroke-miterlimit:4;stroke-dasharray:none;stroke:#ffffff;stroke-opacity:1;stroke-linejoin:round;stroke-linecap:round"
                 d="m 37.174,21.717 a 13.533,11.674 0 1 1 -27.065,0 13.533,11.674 0 1 1 27.065,0 z"
                 transform="translate(0,11.609)"
                 inkscape:connector-curvature="0" />
              <rect
                 id="rect3832"
                 style="fill-rule:evenodd;stroke-width:15.26903045999999975;stroke-miterlimit:4;stroke-dasharray:none;stroke:#ffffff;stroke-opacity:1;stroke-linejoin:round;stroke-linecap:round"
                 rx="0"
                 ry="0"
                 height="12.043"
                 width="27.174"
                 y="22"
                 x="10" />
              <path
                 id="path3834"
                 style="fill:#ffffff;fill-rule:evenodd;stroke-width:15.26903045999999975;stroke-miterlimit:4;stroke-dasharray:none;stroke:#ffffff;stroke-opacity:1;stroke-linejoin:round;stroke-linecap:round"
                 d="m 14.348,22.043 a 8.7391,8.7391 0 0 1 8.739,-8.739 v 8.739 z"
                 transform="translate(-1.087,0)"
                 inkscape:connector-curvature="0" />
              <path
                 id="path3836"
                 style="fill:#ffffff;fill-rule:evenodd;stroke-width:15.26903045999999975;stroke-miterlimit:4;stroke-dasharray:none;stroke:#ffffff;stroke-opacity:1;stroke-linejoin:round;stroke-linecap:round"
                 d="m 14.348,22.043 a 8.7391,8.7391 0 0 1 8.739,-8.739 v 8.739 z"
                 transform="matrix(-1,0,0,1,48.348,0)"
                 inkscape:connector-curvature="0" />
              <path
                 id="path3838"
                 style="fill:#ffffff;fill-rule:evenodd;stroke-width:15.26903045999999975;stroke-miterlimit:4;stroke-dasharray:none;stroke:#ffffff;stroke-opacity:1;stroke-linejoin:round;stroke-linecap:round"
                 d="m 13,24 h 21 v 10 c 0,0 -0.136,7 -10,7 -9.945,0 -11,-7 -11,-7 V 24"
                 inkscape:connector-curvature="0" />
            </g>
            <g
               id="g3840"
               transform="matrix(1.0501,0,0,1.066,-3.5346,-3.3816)"
               style="stroke-width:14.43170124999999970;stroke-miterlimit:4;stroke-dasharray:none;stroke:#ffffff;stroke-opacity:1;stroke-linejoin:round;stroke-linecap:round">
              <path
                 id="path3842"
                 style="fill-rule:evenodd;stroke-width:14.43170124999999970;stroke-miterlimit:4;stroke-dasharray:none;stroke:#ffffff;stroke-opacity:1;stroke-linejoin:round;stroke-linecap:round"
                 d="m 21.568,-1.5002 c -17.249,0 -17.276,12.653 -17.276,12.653 l 5e-4,20.705 c 0,0 -0.1894,12.591 17.222,12.591 17.252,0 17.33,-12.591 17.33,-12.591 v -20.705 c 0,0 0.134,-12.653 -17.276,-12.653 z"
                 inkscape:connector-curvature="0" />
              <path
                 id="path3844"
                 style="fill:none;stroke:#ffffff;stroke-width:8.41669661000000069;stroke-miterlimit:4;stroke-dasharray:none;stroke-opacity:1;stroke-linejoin:round;stroke-linecap:round"
                 transform="matrix(1.7276,0,0,1.7018,-37.169,-30.431)"
                 d="M 34,16.966087 34,27"
                 inkscape:connector-curvature="0"
                 sodipodi:nodetypes="cc" />
            </g>
          </g>
        </g>
        <rect
           style="fill:#ffffff;fill-opacity:1;stroke:#ffffff;stroke-width:8;stroke-miterlimit:4;stroke-dasharray:none;stroke-opacity:1;stroke-linejoin:round;stroke-linecap:round"
           id="rect3846"
           width="19.186581"
           height="2.1748011"
           x="25.017044"
           y="26.610989" />
      </g>
      <g
         id="g3799">
        <g
           transform="matrix(0.95046866,0,0,0.95046866,2.302453,1.2383085)"
           id="g2997">
          <rect
             x="2"
             y="6"
             width="36"
             height="31"
             style="stroke:none"
             id="rect4940" />
          <rect
             x="7"
             y="11"
             width="26"
             height="21"
             style="fill:#ffffff"
             id="rect4978" />
          <g
             transform="matrix(0.55124,0,0,0.55124,23.464,19.746)"
             id="g4962">
            <g
               style="display:none"
               id="g4964">
              <path
                 inkscape:connector-curvature="0"
                 d="m 37.174,21.717 a 13.533,11.674 0 1 1 -27.065,0 13.533,11.674 0 1 1 27.065,0 z"
                 style="fill-rule:evenodd"
                 id="path5587" />
              <path
                 inkscape:connector-curvature="0"
                 transform="translate(0,11.609)"
                 d="m 37.174,21.717 a 13.533,11.674 0 1 1 -27.065,0 13.533,11.674 0 1 1 27.065,0 z"
                 style="fill-rule:evenodd"
                 id="path6474" />
              <rect
                 x="10"
                 y="22"
                 width="27.174"
                 height="12.043"
                 ry="0"
                 rx="0"
                 style="fill-rule:evenodd"
                 id="rect6476" />
              <path
                 inkscape:connector-curvature="0"
                 transform="translate(-1.087,0)"
                 d="m 14.348,22.043 a 8.7391,8.7391 0 0 1 8.739,-8.739 v 8.739 z"
                 style="fill:#ffffff;fill-rule:evenodd"
                 id="path7363" />
              <path
                 inkscape:connector-curvature="0"
                 transform="matrix(-1,0,0,1,48.348,0)"
                 d="m 14.348,22.043 a 8.7391,8.7391 0 0 1 8.739,-8.739 v 8.739 z"
                 style="fill:#ffffff;fill-rule:evenodd"
                 id="path8250" />
              <path
                 inkscape:connector-curvature="0"
                 d="m 13,24 h 21 v 10 c 0,0 -0.136,7 -10,7 -9.945,0 -11,-7 -11,-7 V 24"
                 style="fill:#ffffff;fill-rule:evenodd"
                 id="path8252" />
            </g>
            <g
               transform="matrix(1.0501,0,0,1.066,-3.5346,-3.3816)"
               id="layer2">
              <path
                 inkscape:connector-curvature="0"
                 d="m 21.568,-1.5002 c -17.249,0 -17.276,12.653 -17.276,12.653 l 5e-4,20.705 c 0,0 -0.1894,12.591 17.222,12.591 17.252,0 17.33,-12.591 17.33,-12.591 v -20.705 c 0,0 0.134,-12.653 -17.276,-12.653 z"
                 style="fill-rule:evenodd"
                 id="path1875" />
              <path
                 sodipodi:nodetypes="cc"
                 inkscape:connector-curvature="0"
                 d="M 34,16.966087 34,27"
                 transform="matrix(1.7276,0,0,1.7018,-37.169,-30.431)"
                 style="fill:none;stroke:#ffffff;stroke-width:2"
                 id="path5971" />
            </g>
          </g>
        </g>
        <rect
           y="26.610989"
           x="25.017044"
           height="2.1748011"
           width="19.186581"
           id="rect3797"
           style="fill:#ffffff;fill-opacity:1;stroke:none" />
      </g>
    </g>
  </g>
</svg>
