<?xml version="1.0" encoding="UTF-8" standalone="no"?>
<!-- Generator: Adobe Illustrator 9.0, SVG Export Plug-In  -->

<svg
   xmlns:dc="http://purl.org/dc/elements/1.1/"
   xmlns:cc="http://creativecommons.org/ns#"
   xmlns:rdf="http://www.w3.org/1999/02/22-rdf-syntax-ns#"
   xmlns:svg="http://www.w3.org/2000/svg"
   xmlns="http://www.w3.org/2000/svg"
   xmlns:sodipodi="http://sodipodi.sourceforge.net/DTD/sodipodi-0.dtd"
   xmlns:inkscape="http://www.inkscape.org/namespaces/inkscape"
   id="svg2"
   xml:space="preserve"
   height="48"
   width="48"
   version="1.0"
   viewBox="0 0 48 48"
   inkscape:version="0.48.3.1 r9886"
   sodipodi:docname="preferences-desktop-font.svg"><defs
   id="defs11" /><sodipodi:namedview
   pagecolor="#ffffff"
   bordercolor="#666666"
   borderopacity="1"
   objecttolerance="10"
   gridtolerance="10"
   guidetolerance="10"
   inkscape:pageopacity="0"
   inkscape:pageshadow="2"
   inkscape:window-width="640"
   inkscape:window-height="480"
   id="namedview9"
   showgrid="false"
   inkscape:zoom="4.9166667"
   inkscape:cx="24"
   inkscape:cy="24"
   inkscape:window-x="0"
   inkscape:window-y="0"
   inkscape:window-maximized="0"
   inkscape:current-layer="svg2" /><metadata
   id="metadata27"><rdf:RDF><cc:Work
       rdf:about=""><dc:format>image/svg+xml</dc:format><dc:type
         rdf:resource="http://purl.org/dc/dcmitype/StillImage" /></cc:Work></rdf:RDF></metadata>
	<g
   id="g17"
   style="stroke:#000">
				<path
   id="path2214"
   style="stroke-linejoin:round;stroke:#fff;stroke-width:12"
   d="m18 31l-3 7h-9l12-28h12l12 28h-10l-3-7-11-0.1v0.1zm10-5s-3.4-9.4-4-11h-1c-0.5 1.7-4 11-4 11h9z" /><path
   id="path19"
   style="stroke-linejoin:round;stroke-width:4"
   d="m18 31l-3 7h-9l12-28h12l12 28h-10l-3-7-11-0.1v0.1zm10-5s-3.4-9.4-4-11h-1c-0.5 1.7-4 11-4 11h9z" />
			</g>
	
</svg>