<?xml version="1.0" encoding="UTF-8" standalone="no"?>
<!-- Created with Inkscape (http://www.inkscape.org/) -->

<svg
   xmlns:dc="http://purl.org/dc/elements/1.1/"
   xmlns:cc="http://creativecommons.org/ns#"
   xmlns:rdf="http://www.w3.org/1999/02/22-rdf-syntax-ns#"
   xmlns:svg="http://www.w3.org/2000/svg"
   xmlns="http://www.w3.org/2000/svg"
   xmlns:sodipodi="http://sodipodi.sourceforge.net/DTD/sodipodi-0.dtd"
   xmlns:inkscape="http://www.inkscape.org/namespaces/inkscape"
   id="svg2"
   sodipodi:version="0.32"
   inkscape:version="0.48.3.1 r9886"
   width="49"
   height="46"
   version="1.0"
   sodipodi:docname="python2.4.svg"
   inkscape:output_extension="org.inkscape.output.svg.inkscape">
  <metadata
     id="metadata7">
    <rdf:RDF>
      <cc:Work
         rdf:about="">
        <dc:format>image/svg+xml</dc:format>
        <dc:type
           rdf:resource="http://purl.org/dc/dcmitype/StillImage" />
      </cc:Work>
    </rdf:RDF>
  </metadata>
  <defs
     id="defs5" />
  <sodipodi:namedview
     inkscape:window-height="717"
     inkscape:window-width="1366"
     inkscape:pageshadow="2"
     inkscape:pageopacity="0.0"
     guidetolerance="10000"
     gridtolerance="10000"
     objecttolerance="10000"
     borderopacity="1.0"
     bordercolor="#666666"
     pagecolor="#ffffff"
     id="base"
     showgrid="true"
     inkscape:zoom="5.6568543"
     inkscape:cx="33.478787"
     inkscape:cy="11.20623"
     inkscape:window-x="0"
     inkscape:window-y="0"
     inkscape:current-layer="g3758"
     inkscape:window-maximized="1" />
  <g
     id="g3758"
     style="stroke:#ffffff;stroke-width:8;stroke-linecap:round;stroke-linejoin:round;stroke-miterlimit:4;stroke-opacity:1;stroke-dasharray:none"
     transform="translate(0,0.50000034)">
    <path
       style="fill:#000000;fill-opacity:1;stroke:#ffffff;stroke-width:8;stroke-linecap:round;stroke-linejoin:round;stroke-miterlimit:4;stroke-opacity:1;stroke-dasharray:none"
       d="m 36.425155,13.989125 c -0.215059,0.0098 -0.362765,0.04291 -0.502715,0.07541 l -0.251358,0.0754 c -5.3e-5,2.1e-5 -0.175879,0.07537 -0.17595,0.07541 -1.44e-4,8.9e-5 -0.150599,0.100349 -0.150815,0.100544 0,0 -0.05494,0.03542 -0.08169,0.06284 -0.02675,0.02742 -0.03319,0.04903 -0.04399,0.06284 l -0.125677,0.226214 c -0.0071,0.01747 -0.01853,0.05864 -0.02514,0.07541 -0.02356,0.05986 -0.03472,0.118713 -0.05027,0.17595 -8.01e-4,0.0023 0,0.02514 0,0.02514 -0.01885,0.07332 -0.03373,0.131702 -0.05027,0.226222 -0.07246,0.414207 -0.100543,0.914396 -0.100543,1.60869 0,2.382433 -0.738869,4.079379 -2.387899,5.127699 -1.687972,1.073076 -4.331514,1.533282 -8.143992,1.533282 -4.311024,0 -6.695414,0.228462 -8.143993,1.583554 -0.69234,0.647658 -1.114474,1.559604 -1.357332,2.790072 -0.245293,1.242805 -0.326765,2.813133 -0.326765,4.82607 0,2.849189 0.02367,4.359804 0.427308,5.454464 0.179549,0.486941 0.495309,0.965141 0.904888,1.30706 0.409579,0.341919 0.866969,0.565832 1.508147,0.904888 1.736218,0.918115 4.792503,1.266183 7.842363,1.181382 1.520542,-0.04228 3.010678,-0.212695 4.273083,-0.47758 0.288449,-0.06053 0.529532,-0.155153 0.678666,-0.226222 0.149133,-0.07107 0.192997,-0.09901 0.276493,-0.125679 0.30367,-0.097 0.649665,-0.192317 0.980296,-0.301629 0.33063,-0.109312 0.628302,-0.158674 1.005431,-0.452444 0.542448,-0.422548 0.829419,-0.962052 1.13111,-1.709233 0.295785,-0.732554 0.477579,-1.543127 0.47758,-2.312492 0,-0.634417 0.02343,-1.033365 -0.100544,-1.508147 -0.03138,-0.120153 -0.05046,-0.276143 -0.226222,-0.527851 -0.175759,-0.251708 -0.371123,-0.34154 -0.427308,-0.377037 -0.503616,-0.318177 -0.805783,-0.317821 -1.457875,-0.427308 -0.652092,-0.109487 -1.538308,-0.216428 -2.689528,-0.301629 -0.708002,-0.05239 -1.099232,-0.08088 -1.382468,-0.125679 0.642097,-0.08808 2.168352,-0.1709 4.826069,-0.226222 4.8933,-0.101857 7.49081,-0.283759 9.124288,-1.457875 0.767086,-0.551368 1.288106,-1.384879 1.60869,-2.463307 0.328128,-1.103803 0.491654,-2.47067 0.628395,-4.273082 0.247773,-3.265943 -0.04167,-5.653578 -0.980296,-7.339648 -0.912182,-1.638558 -2.515601,-2.593247 -4.675255,-2.790071 -0.779556,-0.07105 -1.384323,-0.09593 -1.834912,-0.07541 z m 0.47758,2.035999 c 0.302109,0.0029 0.606863,2.02e-4 1.156246,0.05027 1.762239,0.160604 2.482468,0.59485 3.116837,1.734369 0.607919,1.092007 0.961063,3.17399 0.728937,6.233673 -0.133495,1.759636 -0.287024,3.060781 -0.527851,3.87091 -0.248371,0.835504 -0.453224,1.119089 -0.854617,1.407604 -0.703478,0.505648 -3.197504,0.955355 -8.018313,1.055702 -2.74942,0.05723 -4.299362,0.08301 -5.228242,0.226222 -0.03113,0.0048 -0.213037,0.03542 -0.427308,0.100544 -0.03025,0.0092 -0.239641,0.05696 -0.452444,0.17595 -0.04791,0.02679 -0.666777,0.463661 -0.879753,1.080838 -0.159242,0.461467 -0.09646,0.858313 0,1.181382 0.09646,0.323069 0.181394,0.570716 0.47758,0.854617 0.274657,0.263263 0.714674,0.42786 0.65353,0.402172 0.164003,0.0689 0.327226,0.120207 0.47758,0.150815 0.485523,0.09884 1.021647,0.140897 1.834912,0.201086 1.106639,0.0819 1.92621,0.182093 2.488442,0.276494 0.392841,0.06596 0.452616,0.085 0.527851,0.100543 0.01072,0.137773 0.02514,0.308339 0.02514,0.754073 -10e-7,0.417382 -0.129802,1.070612 -0.326765,1.558418 -0.191057,0.473179 -0.599767,0.941373 -0.527851,0.854617 0.08829,-0.106516 -0.0364,0.07361 -0.307914,0.163382 -1.062047,0.352669 -0.07266,0.0085 -1.121684,0.383321 -0.167049,0.06462 -0.359574,0.09819 -0.43045,0.131963 -0.09272,0.04419 -0.109121,0.05083 -0.226222,0.07541 -1.113631,0.233669 -2.512431,0.388138 -3.921181,0.427308 -2.808726,0.07809 -5.941974,-0.456768 -6.836932,-0.930023 -0.62211,-0.328974 -1.008746,-0.559685 -1.181382,-0.703802 -0.172636,-0.144118 -0.177278,-0.183369 -0.276494,-0.452444 -0.153897,-0.417374 -0.326765,-1.948093 -0.326765,-4.750662 0,-1.95837 0.08018,-3.429235 0.276494,-4.423898 0.198752,-1.006998 0.436523,-1.437312 0.754073,-1.734368 0.571201,-0.534337 2.589827,-1.030567 6.786661,-1.030567 3.962213,0 6.955428,-0.40819 9.199695,-1.834912 2.283209,-1.451478 3.343058,-3.993114 3.343058,-6.836932 0,-0.384908 0.0096,-0.525228 0.02514,-0.754073 z"
       id="path3760"
       sodipodi:nodetypes="cccsczccsscssssssssssssssssssssssscssssssccsssssssssssssssscsssccssssssssssssc"
       inkscape:connector-curvature="0" />
    <path
       style="fill:#000000;stroke:#ffffff;stroke-width:8;stroke-linecap:round;stroke-linejoin:round;stroke-miterlimit:4;stroke-opacity:1;stroke-dasharray:none"
       d="M 5.8713222,29.611811 C 5.1349492,28.779018 4.3400804,25.601308 4.1049472,22.550233 3.4896158,14.565726 5.3504718,13.022627 15.871452,12.792958 c 5.547215,-0.121094 6.454988,-0.278661 3.055081,-0.530286 -4.768078,-0.352881 -4.837213,-0.4054 -4.837213,-3.6746827 0,-3.9299314 2.420392,-5.1810263 10.023309,-5.1810263 7.534265,0 9.325543,1.7414806 9.325543,9.066292 0,8.005563 -1.16703,9.094442 -9.747167,9.094442 -7.584775,0 -10.620045,1.912268 -10.620045,6.690796 0,2.521762 -0.353308,2.867485 -2.930388,2.867485 -1.6117147,0 -3.5328767,-0.681376 -4.2692498,-1.514167 z M 19.96611,8.0068858 c -0.629423,-1.7723185 -2.821708,-2.066271 -2.821708,-0.3783485 0,0.8323669 0.725582,1.5133944 1.612405,1.5133944 0.886822,0 1.431008,-0.5107705 1.209303,-1.1350459 z"
       id="path3762"
       sodipodi:nodetypes="csssssssssccssc"
       inkscape:connector-curvature="0" />
    <path
       style="fill:#000000;fill-opacity:1;stroke:#ffffff;stroke-width:8;stroke-linecap:round;stroke-linejoin:round;stroke-miterlimit:4;stroke-opacity:1;stroke-dasharray:none"
       d="m 28.559376,35.402495 c -0.531772,-0.0078 -0.979017,0.469842 -0.977165,0.99422 -0.07348,0.662535 0.361978,1.306133 0.974784,1.541086 0.43373,0.17402 0.943357,0.144104 1.3668,-0.04022 0.361858,-0.173463 0.628072,-0.601628 0.481561,-1.001244 -0.251101,-0.783202 -0.977211,-1.517035 -1.84598,-1.493836 z"
       id="path3764"
       inkscape:connector-curvature="0" />
    <path
       style="fill:#ffffff;fill-opacity:1;stroke:#ffffff;stroke-width:0.06333025000000000;stroke-linecap:round;stroke-linejoin:round;stroke-miterlimit:4;stroke-opacity:1;stroke-dasharray:none"
       d="m 22.077823,29.936612 c -0.485349,0.0398 -0.971973,0.08172 -1.454264,0.146393 -0.172546,0.159387 -0.0569,0.461942 -0.114388,0.67527 -0.08322,1.598371 -0.09077,3.20212 -0.0071,4.800664 0.12921,0.19582 0.448316,0.126905 0.655866,0.206921 0.296794,0.02282 0.62513,0.179101 0.911646,0.06929 0.07909,-0.228059 -0.147356,-0.452177 -0.186444,-0.678105 -0.444074,-1.260746 -0.512025,-2.691635 -0.07043,-3.965046 0.106661,-0.397964 0.361071,-0.743311 0.476469,-1.132475 2.17e-4,-0.11263 -0.123136,-0.136323 -0.211304,-0.122915 z"
       id="path3761"
       inkscape:connector-curvature="0"
       transform="translate(0,-0.50000034)" />
  </g>
  <g
     id="g3753"
     transform="translate(0,0.50000034)">
    <path
       inkscape:connector-curvature="0"
       sodipodi:nodetypes="cccsczccsscssssssssssssssssssssssscssssssccsssssssssssssssscsssccssssssssssssc"
       id="path3136"
       d="m 36.425155,13.989125 c -0.215059,0.0098 -0.362765,0.04291 -0.502715,0.07541 l -0.251358,0.0754 c -5.3e-5,2.1e-5 -0.175879,0.07537 -0.17595,0.07541 -1.44e-4,8.9e-5 -0.150599,0.100349 -0.150815,0.100544 0,0 -0.05494,0.03542 -0.08169,0.06284 -0.02675,0.02742 -0.03319,0.04903 -0.04399,0.06284 l -0.125677,0.226214 c -0.0071,0.01747 -0.01853,0.05864 -0.02514,0.07541 -0.02356,0.05986 -0.03472,0.118713 -0.05027,0.17595 -8.01e-4,0.0023 0,0.02514 0,0.02514 -0.01885,0.07332 -0.03373,0.131702 -0.05027,0.226222 -0.07246,0.414207 -0.100543,0.914396 -0.100543,1.60869 0,2.382433 -0.738869,4.079379 -2.387899,5.127699 -1.687972,1.073076 -4.331514,1.533282 -8.143992,1.533282 -4.311024,0 -6.695414,0.228462 -8.143993,1.583554 -0.69234,0.647658 -1.114474,1.559604 -1.357332,2.790072 -0.245293,1.242805 -0.326765,2.813133 -0.326765,4.82607 0,2.849189 0.02367,4.359804 0.427308,5.454464 0.179549,0.486941 0.495309,0.965141 0.904888,1.30706 0.409579,0.341919 0.866969,0.565832 1.508147,0.904888 1.736218,0.918115 4.792503,1.266183 7.842363,1.181382 1.520542,-0.04228 3.010678,-0.212695 4.273083,-0.47758 0.288449,-0.06053 0.529532,-0.155153 0.678666,-0.226222 0.149133,-0.07107 0.192997,-0.09901 0.276493,-0.125679 0.30367,-0.097 0.649665,-0.192317 0.980296,-0.301629 0.33063,-0.109312 0.628302,-0.158674 1.005431,-0.452444 0.542448,-0.422548 0.829419,-0.962052 1.13111,-1.709233 0.295785,-0.732554 0.477579,-1.543127 0.47758,-2.312492 0,-0.634417 0.02343,-1.033365 -0.100544,-1.508147 -0.03138,-0.120153 -0.05046,-0.276143 -0.226222,-0.527851 -0.175759,-0.251708 -0.371123,-0.34154 -0.427308,-0.377037 -0.503616,-0.318177 -0.805783,-0.317821 -1.457875,-0.427308 -0.652092,-0.109487 -1.538308,-0.216428 -2.689528,-0.301629 -0.708002,-0.05239 -1.099232,-0.08088 -1.382468,-0.125679 0.642097,-0.08808 2.168352,-0.1709 4.826069,-0.226222 4.8933,-0.101857 7.49081,-0.283759 9.124288,-1.457875 0.767086,-0.551368 1.288106,-1.384879 1.60869,-2.463307 0.328128,-1.103803 0.491654,-2.47067 0.628395,-4.273082 0.247773,-3.265943 -0.04167,-5.653578 -0.980296,-7.339648 -0.912182,-1.638558 -2.515601,-2.593247 -4.675255,-2.790071 -0.779556,-0.07105 -1.384323,-0.09593 -1.834912,-0.07541 z m 0.47758,2.035999 c 0.302109,0.0029 0.606863,2.02e-4 1.156246,0.05027 1.762239,0.160604 2.482468,0.59485 3.116837,1.734369 0.607919,1.092007 0.961063,3.17399 0.728937,6.233673 -0.133495,1.759636 -0.287024,3.060781 -0.527851,3.87091 -0.248371,0.835504 -0.453224,1.119089 -0.854617,1.407604 -0.703478,0.505648 -3.197504,0.955355 -8.018313,1.055702 -2.74942,0.05723 -4.299362,0.08301 -5.228242,0.226222 -0.03113,0.0048 -0.213037,0.03542 -0.427308,0.100544 -0.03025,0.0092 -0.239641,0.05696 -0.452444,0.17595 -0.04791,0.02679 -0.666777,0.463661 -0.879753,1.080838 -0.159242,0.461467 -0.09646,0.858313 0,1.181382 0.09646,0.323069 0.181394,0.570716 0.47758,0.854617 0.274657,0.263263 0.714674,0.42786 0.65353,0.402172 0.164003,0.0689 0.327226,0.120207 0.47758,0.150815 0.485523,0.09884 1.021647,0.140897 1.834912,0.201086 1.106639,0.0819 1.92621,0.182093 2.488442,0.276494 0.392841,0.06596 0.452616,0.085 0.527851,0.100543 0.01072,0.137773 0.02514,0.308339 0.02514,0.754073 -10e-7,0.417382 -0.129802,1.070612 -0.326765,1.558418 -0.191057,0.473179 -0.599767,0.941373 -0.527851,0.854617 0.08829,-0.106516 -0.0364,0.07361 -0.307914,0.163382 -1.062047,0.352669 -0.07266,0.0085 -1.121684,0.383321 -0.167049,0.06462 -0.359574,0.09819 -0.43045,0.131963 -0.09272,0.04419 -0.109121,0.05083 -0.226222,0.07541 -1.113631,0.233669 -2.512431,0.388138 -3.921181,0.427308 -2.808726,0.07809 -5.941974,-0.456768 -6.836932,-0.930023 -0.62211,-0.328974 -1.008746,-0.559685 -1.181382,-0.703802 -0.172636,-0.144118 -0.177278,-0.183369 -0.276494,-0.452444 -0.153897,-0.417374 -0.326765,-1.948093 -0.326765,-4.750662 0,-1.95837 0.08018,-3.429235 0.276494,-4.423898 0.198752,-1.006998 0.436523,-1.437312 0.754073,-1.734368 0.571201,-0.534337 2.589827,-1.030567 6.786661,-1.030567 3.962213,0 6.955428,-0.40819 9.199695,-1.834912 2.283209,-1.451478 3.343058,-3.993114 3.343058,-6.836932 0,-0.384908 0.0096,-0.525228 0.02514,-0.754073 z"
       style="fill:#000000;fill-opacity:1;stroke:none" />
    <path
       inkscape:connector-curvature="0"
       sodipodi:nodetypes="csssssssssccssc"
       id="path2161"
       d="M 5.8713222,29.611811 C 5.1349492,28.779018 4.3400804,25.601308 4.1049472,22.550233 3.4896158,14.565726 5.3504718,13.022627 15.871452,12.792958 c 5.547215,-0.121094 6.454988,-0.278661 3.055081,-0.530286 -4.768078,-0.352881 -4.837213,-0.4054 -4.837213,-3.6746827 0,-3.9299314 2.420392,-5.1810263 10.023309,-5.1810263 7.534265,0 9.325543,1.7414806 9.325543,9.066292 0,8.005563 -1.16703,9.094442 -9.747167,9.094442 -7.584775,0 -10.620045,1.912268 -10.620045,6.690796 0,2.521762 -0.353308,2.867485 -2.930388,2.867485 -1.6117147,0 -3.5328767,-0.681376 -4.2692498,-1.514167 z M 19.96611,8.0068858 c -0.629423,-1.7723185 -2.821708,-2.066271 -2.821708,-0.3783485 0,0.8323669 0.725582,1.5133944 1.612405,1.5133944 0.886822,0 1.431008,-0.5107705 1.209303,-1.1350459 z"
       style="fill:#000000" />
    <path
       inkscape:connector-curvature="0"
       id="path2983"
       d="m 28.559376,35.402495 c -0.531772,-0.0078 -0.979017,0.469842 -0.977165,0.99422 -0.07348,0.662535 0.361978,1.306133 0.974784,1.541086 0.43373,0.17402 0.943357,0.144104 1.3668,-0.04022 0.361858,-0.173463 0.628072,-0.601628 0.481561,-1.001244 -0.251101,-0.783202 -0.977211,-1.517035 -1.84598,-1.493836 z"
       style="fill:#000000;fill-opacity:1;stroke:none" />
  </g>
</svg>
