<?xml version="1.0" encoding="UTF-8" standalone="no"?>
<!-- Created with Inkscape (http://www.inkscape.org/) -->

<svg
   xmlns:dc="http://purl.org/dc/elements/1.1/"
   xmlns:cc="http://creativecommons.org/ns#"
   xmlns:rdf="http://www.w3.org/1999/02/22-rdf-syntax-ns#"
   xmlns:svg="http://www.w3.org/2000/svg"
   xmlns="http://www.w3.org/2000/svg"
   xmlns:xlink="http://www.w3.org/1999/xlink"
   xmlns:sodipodi="http://sodipodi.sourceforge.net/DTD/sodipodi-0.dtd"
   xmlns:inkscape="http://www.inkscape.org/namespaces/inkscape"
   width="48"
   height="48"
   id="svg2"
   sodipodi:version="0.32"
   inkscape:version="0.48.3.1 r9886"
   version="1.0"
   sodipodi:docname="serviceconf.svg"
   inkscape:output_extension="org.inkscape.output.svg.inkscape"
   sodipodi:modified="true">
  <defs
     id="defs4">
    <linearGradient
       inkscape:collect="always"
       id="linearGradient3198">
      <stop
         style="stop-color:black;stop-opacity:1;"
         offset="0"
         id="stop3200" />
      <stop
         style="stop-color:black;stop-opacity:0;"
         offset="1"
         id="stop3202" />
    </linearGradient>
    <radialGradient
       inkscape:collect="always"
       xlink:href="#linearGradient3198"
       id="radialGradient3204"
       cx="15.3125"
       cy="34.65625"
       fx="15.3125"
       fy="34.65625"
       r="9.5"
       gradientTransform="matrix(1,0,0,1.003289,0,-0.114001)"
       gradientUnits="userSpaceOnUse" />
    <radialGradient
       inkscape:collect="always"
       xlink:href="#linearGradient3198"
       id="radialGradient3208"
       gradientUnits="userSpaceOnUse"
       gradientTransform="matrix(1,0,0,1.003289,0,-0.114001)"
       cx="15.3125"
       cy="34.65625"
       fx="15.3125"
       fy="34.65625"
       r="9.5" />
  </defs>
  <sodipodi:namedview
     id="base"
     pagecolor="#ffffff"
     bordercolor="#666666"
     borderopacity="1.0"
     inkscape:pageopacity="0.0"
     inkscape:pageshadow="2"
     inkscape:zoom="4"
     inkscape:cx="7.823246"
     inkscape:cy="36.741677"
     inkscape:document-units="px"
     inkscape:current-layer="layer1"
     showgrid="true"
     inkscape:window-width="1366"
     inkscape:window-height="717"
     inkscape:window-x="0"
     inkscape:window-y="0"
     inkscape:showpageshadow="false"
     width="48px"
     height="48px"
     gridtolerance="10000"
     inkscape:grid-points="false"
     inkscape:grid-bbox="true"
     showborder="true"
     borderlayer="true"
     inkscape:guide-bbox="false"
     inkscape:object-paths="false"
     objecttolerance="10000"
     guidetolerance="10000"
     inkscape:window-maximized="1">
    <inkscape:grid
       id="GridFromPre046Settings"
       type="xygrid"
       originx="0px"
       originy="0px"
       spacingx="0.5px"
       spacingy="0.5px"
       color="#3f3fff"
       empcolor="#3f3fff"
       opacity="0.15"
       empopacity="0.38"
       empspacing="2" />
  </sodipodi:namedview>
  <metadata
     id="metadata7">
    <rdf:RDF>
      <cc:Work
         rdf:about="">
        <dc:format>image/svg+xml</dc:format>
        <dc:type
           rdf:resource="http://purl.org/dc/dcmitype/StillImage" />
        <dc:creator>
          <cc:Agent>
            <dc:title>Lapo Calamandrei</dc:title>
          </cc:Agent>
        </dc:creator>
        <dc:title>System Run</dc:title>
        <cc:license
           rdf:resource="http://creativecommons.org/licenses/GPL/2.0/" />
        <dc:subject>
          <rdf:Bag>
            <rdf:li>run</rdf:li>
            <rdf:li>launch</rdf:li>
            <rdf:li>exec</rdf:li>
          </rdf:Bag>
        </dc:subject>
      </cc:Work>
      <cc:License
         rdf:about="http://creativecommons.org/licenses/GPL/2.0/">
        <cc:permits
           rdf:resource="http://web.resource.org/cc/Reproduction" />
        <cc:permits
           rdf:resource="http://web.resource.org/cc/Distribution" />
        <cc:requires
           rdf:resource="http://web.resource.org/cc/Notice" />
        <cc:permits
           rdf:resource="http://web.resource.org/cc/DerivativeWorks" />
        <cc:requires
           rdf:resource="http://web.resource.org/cc/ShareAlike" />
        <cc:requires
           rdf:resource="http://web.resource.org/cc/SourceCode" />
      </cc:License>
    </rdf:RDF>
  </metadata>
  <g
     inkscape:label="Livello 1"
     inkscape:groupmode="layer"
     id="layer1">
    <g
       id="g2999"
       style="stroke:#ffffff;stroke-opacity:1;stroke-width:8;stroke-miterlimit:4;stroke-dasharray:none;stroke-linejoin:round;stroke-linecap:round">
      <g
         id="g3001"
         transform="matrix(0.91955881,0.23845453,-0.24639495,0.88992473,7.582343,10.727071)"
         style="stroke:#ffffff;stroke-opacity:1;stroke-width:8.54215373000000078;stroke-miterlimit:4;stroke-dasharray:none;stroke-linejoin:round;stroke-linecap:round">
        <path
           id="path3003"
           d="m 31,0.5 c -0.561936,2e-8 -1.1158,0.047001 -1.65625,0.125 L 29.125,3.71875 C 28.16536,3.9344947 27.275486,4.3022815 26.46875,4.8125 L 24.125,2.78125 C 22.999999,3.5000009 22.5,4 21.78125,5.125 L 23.8125,7.46875 C 23.302281,8.2754859 22.934495,9.1653595 22.71875,10.125 L 19.625,10.34375 C 19.547,10.8842 19.5,11.438062 19.5,12 c -1e-6,0.561939 0.047,1.115801 0.125,1.65625 l 3.09375,0.21875 c 0.215745,0.959641 0.583531,1.849514 1.09375,2.65625 L 21.78125,18.875 C 22.5,19.999999 23,20.5 24.125,21.21875 l 2.34375,-2.03125 c 0.806736,0.510219 1.696609,0.878005 2.65625,1.09375 L 29.34375,23.375 C 29.8842,23.453 30.438063,23.5 31,23.5 c 0.561936,0 1.115801,-0.047 1.65625,-0.125 L 32.875,20.28125 c 0.959641,-0.215745 1.849514,-0.583531 2.65625,-1.09375 L 37.875,21.21875 C 39.000002,20.499999 39.5,20 40.21875,18.875 L 38.1875,16.53125 c 0.510219,-0.806736 0.878005,-1.696609 1.09375,-2.65625 L 42.375,13.65625 C 42.453,13.115801 42.499999,12.561939 42.5,12 c 0,-0.561937 -0.047,-1.115801 -0.125,-1.65625 L 39.28125,10.125 C 39.065505,9.1653595 38.697719,8.2754859 38.1875,7.46875 L 40.21875,5.125 C 39.569261,4.0173152 39,3.5 37.875,2.78125 L 35.53125,4.8125 C 34.724514,4.3022815 33.834641,3.9344947 32.875,3.71875 L 32.65625,0.625 C 32.1158,0.54700102 31.561938,0.5 31,0.5 z m 0,9 c 1.380001,3e-7 2.499999,1.119998 2.5,2.5 10e-7,1.380003 -1.119997,2.5 -2.5,2.5 -1.380002,0 -2.5,-1.119997 -2.5,-2.5 0,-1.380002 1.119998,-2.5 2.5,-2.5 z"
           style="fill:#000000;fill-opacity:1;stroke:#ffffff;stroke-opacity:1;stroke-width:8.54215373000000078;stroke-miterlimit:4;stroke-dasharray:none;stroke-linejoin:round;stroke-linecap:round"
           inkscape:connector-curvature="0" />
      </g>
      <g
         id="g3005"
         transform="matrix(0.91955881,0.23845453,-0.24639495,0.88992473,-8.363609,-3.553353)"
         style="stroke:#ffffff;stroke-opacity:1;stroke-width:8.54215373000000078;stroke-miterlimit:4;stroke-dasharray:none;stroke-linejoin:round;stroke-linecap:round">
        <path
           id="path3007"
           d="m 31,0.5 c -0.561936,2e-8 -1.1158,0.047001 -1.65625,0.125 L 29.125,3.71875 C 28.16536,3.9344947 27.275486,4.3022815 26.46875,4.8125 L 24.125,2.78125 C 22.999999,3.5000009 22.5,4 21.78125,5.125 L 23.8125,7.46875 C 23.302281,8.2754859 22.934495,9.1653595 22.71875,10.125 L 19.625,10.34375 C 19.547,10.8842 19.5,11.438062 19.5,12 c -1e-6,0.561939 0.047,1.115801 0.125,1.65625 l 3.09375,0.21875 c 0.215745,0.959641 0.583531,1.849514 1.09375,2.65625 L 21.78125,18.875 C 22.5,19.999999 23,20.5 24.125,21.21875 l 2.34375,-2.03125 c 0.806736,0.510219 1.696609,0.878005 2.65625,1.09375 L 29.34375,23.375 C 29.8842,23.453 30.438063,23.5 31,23.5 c 0.561936,0 1.115801,-0.047 1.65625,-0.125 L 32.875,20.28125 c 0.959641,-0.215745 1.849514,-0.583531 2.65625,-1.09375 L 37.875,21.21875 C 39.000002,20.499999 39.5,20 40.21875,18.875 L 38.1875,16.53125 c 0.510219,-0.806736 0.878005,-1.696609 1.09375,-2.65625 L 42.375,13.65625 C 42.453,13.115801 42.499999,12.561939 42.5,12 c 0,-0.561937 -0.047,-1.115801 -0.125,-1.65625 L 39.28125,10.125 C 39.065505,9.1653595 38.697719,8.2754859 38.1875,7.46875 L 40.21875,5.125 C 39.569261,4.0173152 39,3.5 37.875,2.78125 L 35.53125,4.8125 C 34.724514,4.3022815 33.834641,3.9344947 32.875,3.71875 L 32.65625,0.625 C 32.1158,0.54700102 31.561938,0.5 31,0.5 z m 0,9 c 1.380001,3e-7 2.499999,1.119998 2.5,2.5 10e-7,1.380003 -1.119997,2.5 -2.5,2.5 -1.380002,0 -2.5,-1.119997 -2.5,-2.5 0,-1.380002 1.119998,-2.5 2.5,-2.5 z"
           style="fill:#000000;fill-opacity:1;stroke:#ffffff;stroke-opacity:1;stroke-width:8.54215373000000078;stroke-miterlimit:4;stroke-dasharray:none;stroke-linejoin:round;stroke-linecap:round"
           inkscape:connector-curvature="0" />
      </g>
      <path
         style="fill:#000000;fill-opacity:1;stroke:#ffffff;stroke-opacity:1;stroke-width:8;stroke-miterlimit:4;stroke-dasharray:none;stroke-linejoin:round;stroke-linecap:round"
         d="m 14.240725,27.416281 c -0.464951,0.0173 -0.925346,0.08641 -1.368495,0.172747 l -0.02975,0 c -0.332685,0.06594 -0.664297,0.157007 -0.981747,0.259121 -0.459185,0.147706 -0.887945,0.329693 -1.308997,0.547032 l 0.624749,2.879118 c -0.453383,0.324962 -0.879713,0.704977 -1.219747,1.151647 L 7.011497,31.850123 C 6.7674074,32.296395 6.5442788,32.742287 6.3867488,33.232099 6.1679161,33.912522 6.0295087,34.648562 6,35.391438 l 2.9154913,0.950109 c 0.066294,0.545851 0.1922777,1.087791 0.4164987,1.583514 l -2.0229939,2.18813 c 0.2643592,0.406593 0.5614162,0.796614 0.8924973,1.151647 l 0.5949983,0.547032 c 0.3695853,0.327438 0.7653313,0.631199 1.1899963,0.892527 l 2.260993,-1.9578 c 0.271782,0.117259 0.536503,0.211027 0.832998,0.287912 0.280569,0.07276 0.582558,0.142068 0.862747,0.172747 L 14.895224,44 c 0.464951,-0.0173 0.925346,-0.08641 1.368495,-0.172747 l 0.02975,0 c 0.332685,-0.06594 0.664297,-0.157006 0.981747,-0.259121 0.459185,-0.147705 0.887945,-0.329693 1.308997,-0.547032 l -0.624749,-2.879118 c 0.453383,-0.324961 0.879713,-0.704977 1.219747,-1.151647 l 2.945241,0.575824 c 0.244089,-0.446273 0.467218,-0.892165 0.624748,-1.381977 0.218833,-0.680423 0.35724,-1.416462 0.386749,-2.159338 l -2.915491,-0.950109 c -0.0663,-0.545852 -0.192278,-1.087792 -0.416499,-1.583515 l 2.022994,-2.18813 c -0.264359,-0.406593 -0.561417,-0.796613 -0.892497,-1.151647 l -0.594999,-0.547032 c -0.369585,-0.327437 -0.765331,-0.631199 -1.189996,-0.892527 l -2.260993,1.9578 c -0.271783,-0.117259 -0.536503,-0.211027 -0.832998,-0.287911 -0.280569,-0.07276 -0.582558,-0.142069 -0.862747,-0.172747 l -0.951998,-2.792745 z m 0.119,6.449224 c 0.10806,-0.01167 0.216777,-0.0064 0.327249,0 0.126254,0.0073 0.25985,0.02468 0.386749,0.05758 1.015192,0.26325 1.610767,1.292024 1.338746,2.274503 -0.27202,0.982482 -1.335051,1.558855 -2.350243,1.295603 -1.015192,-0.263251 -1.610766,-1.292024 -1.338746,-2.274503 0.208266,-0.75221 0.879822,-1.27147 1.636245,-1.353186 z"
         id="path3009"
         inkscape:connector-curvature="0" />
    </g>
    <g
       id="g2992">
      <g
         transform="matrix(0.91955881,0.23845453,-0.24639495,0.88992473,7.582343,10.727071)"
         id="g2904">
        <path
           inkscape:connector-curvature="0"
           style="fill:#000000;fill-opacity:1;stroke:none"
           d="m 31,0.5 c -0.561936,2e-8 -1.1158,0.047001 -1.65625,0.125 L 29.125,3.71875 C 28.16536,3.9344947 27.275486,4.3022815 26.46875,4.8125 L 24.125,2.78125 C 22.999999,3.5000009 22.5,4 21.78125,5.125 L 23.8125,7.46875 C 23.302281,8.2754859 22.934495,9.1653595 22.71875,10.125 L 19.625,10.34375 C 19.547,10.8842 19.5,11.438062 19.5,12 c -1e-6,0.561939 0.047,1.115801 0.125,1.65625 l 3.09375,0.21875 c 0.215745,0.959641 0.583531,1.849514 1.09375,2.65625 L 21.78125,18.875 C 22.5,19.999999 23,20.5 24.125,21.21875 l 2.34375,-2.03125 c 0.806736,0.510219 1.696609,0.878005 2.65625,1.09375 L 29.34375,23.375 C 29.8842,23.453 30.438063,23.5 31,23.5 c 0.561936,0 1.115801,-0.047 1.65625,-0.125 L 32.875,20.28125 c 0.959641,-0.215745 1.849514,-0.583531 2.65625,-1.09375 L 37.875,21.21875 C 39.000002,20.499999 39.5,20 40.21875,18.875 L 38.1875,16.53125 c 0.510219,-0.806736 0.878005,-1.696609 1.09375,-2.65625 L 42.375,13.65625 C 42.453,13.115801 42.499999,12.561939 42.5,12 c 0,-0.561937 -0.047,-1.115801 -0.125,-1.65625 L 39.28125,10.125 C 39.065505,9.1653595 38.697719,8.2754859 38.1875,7.46875 L 40.21875,5.125 C 39.569261,4.0173152 39,3.5 37.875,2.78125 L 35.53125,4.8125 C 34.724514,4.3022815 33.834641,3.9344947 32.875,3.71875 L 32.65625,0.625 C 32.1158,0.54700102 31.561938,0.5 31,0.5 z m 0,9 c 1.380001,3e-7 2.499999,1.119998 2.5,2.5 10e-7,1.380003 -1.119997,2.5 -2.5,2.5 -1.380002,0 -2.5,-1.119997 -2.5,-2.5 0,-1.380002 1.119998,-2.5 2.5,-2.5 z"
           id="path2779" />
      </g>
      <g
         transform="matrix(0.91955881,0.23845453,-0.24639495,0.88992473,-8.363609,-3.553353)"
         id="g2924">
        <path
           inkscape:connector-curvature="0"
           style="fill:#000000;fill-opacity:1;stroke:none"
           d="m 31,0.5 c -0.561936,2e-8 -1.1158,0.047001 -1.65625,0.125 L 29.125,3.71875 C 28.16536,3.9344947 27.275486,4.3022815 26.46875,4.8125 L 24.125,2.78125 C 22.999999,3.5000009 22.5,4 21.78125,5.125 L 23.8125,7.46875 C 23.302281,8.2754859 22.934495,9.1653595 22.71875,10.125 L 19.625,10.34375 C 19.547,10.8842 19.5,11.438062 19.5,12 c -1e-6,0.561939 0.047,1.115801 0.125,1.65625 l 3.09375,0.21875 c 0.215745,0.959641 0.583531,1.849514 1.09375,2.65625 L 21.78125,18.875 C 22.5,19.999999 23,20.5 24.125,21.21875 l 2.34375,-2.03125 c 0.806736,0.510219 1.696609,0.878005 2.65625,1.09375 L 29.34375,23.375 C 29.8842,23.453 30.438063,23.5 31,23.5 c 0.561936,0 1.115801,-0.047 1.65625,-0.125 L 32.875,20.28125 c 0.959641,-0.215745 1.849514,-0.583531 2.65625,-1.09375 L 37.875,21.21875 C 39.000002,20.499999 39.5,20 40.21875,18.875 L 38.1875,16.53125 c 0.510219,-0.806736 0.878005,-1.696609 1.09375,-2.65625 L 42.375,13.65625 C 42.453,13.115801 42.499999,12.561939 42.5,12 c 0,-0.561937 -0.047,-1.115801 -0.125,-1.65625 L 39.28125,10.125 C 39.065505,9.1653595 38.697719,8.2754859 38.1875,7.46875 L 40.21875,5.125 C 39.569261,4.0173152 39,3.5 37.875,2.78125 L 35.53125,4.8125 C 34.724514,4.3022815 33.834641,3.9344947 32.875,3.71875 L 32.65625,0.625 C 32.1158,0.54700102 31.561938,0.5 31,0.5 z m 0,9 c 1.380001,3e-7 2.499999,1.119998 2.5,2.5 10e-7,1.380003 -1.119997,2.5 -2.5,2.5 -1.380002,0 -2.5,-1.119997 -2.5,-2.5 0,-1.380002 1.119998,-2.5 2.5,-2.5 z"
           id="path2926" />
      </g>
      <path
         inkscape:connector-curvature="0"
         id="path2978"
         d="m 14.240725,27.416281 c -0.464951,0.0173 -0.925346,0.08641 -1.368495,0.172747 l -0.02975,0 c -0.332685,0.06594 -0.664297,0.157007 -0.981747,0.259121 -0.459185,0.147706 -0.887945,0.329693 -1.308997,0.547032 l 0.624749,2.879118 c -0.453383,0.324962 -0.879713,0.704977 -1.219747,1.151647 L 7.011497,31.850123 C 6.7674074,32.296395 6.5442788,32.742287 6.3867488,33.232099 6.1679161,33.912522 6.0295087,34.648562 6,35.391438 l 2.9154913,0.950109 c 0.066294,0.545851 0.1922777,1.087791 0.4164987,1.583514 l -2.0229939,2.18813 c 0.2643592,0.406593 0.5614162,0.796614 0.8924973,1.151647 l 0.5949983,0.547032 c 0.3695853,0.327438 0.7653313,0.631199 1.1899963,0.892527 l 2.260993,-1.9578 c 0.271782,0.117259 0.536503,0.211027 0.832998,0.287912 0.280569,0.07276 0.582558,0.142068 0.862747,0.172747 L 14.895224,44 c 0.464951,-0.0173 0.925346,-0.08641 1.368495,-0.172747 l 0.02975,0 c 0.332685,-0.06594 0.664297,-0.157006 0.981747,-0.259121 0.459185,-0.147705 0.887945,-0.329693 1.308997,-0.547032 l -0.624749,-2.879118 c 0.453383,-0.324961 0.879713,-0.704977 1.219747,-1.151647 l 2.945241,0.575824 c 0.244089,-0.446273 0.467218,-0.892165 0.624748,-1.381977 0.218833,-0.680423 0.35724,-1.416462 0.386749,-2.159338 l -2.915491,-0.950109 c -0.0663,-0.545852 -0.192278,-1.087792 -0.416499,-1.583515 l 2.022994,-2.18813 c -0.264359,-0.406593 -0.561417,-0.796613 -0.892497,-1.151647 l -0.594999,-0.547032 c -0.369585,-0.327437 -0.765331,-0.631199 -1.189996,-0.892527 l -2.260993,1.9578 c -0.271783,-0.117259 -0.536503,-0.211027 -0.832998,-0.287911 -0.280569,-0.07276 -0.582558,-0.142069 -0.862747,-0.172747 l -0.951998,-2.792745 z m 0.119,6.449224 c 0.10806,-0.01167 0.216777,-0.0064 0.327249,0 0.126254,0.0073 0.25985,0.02468 0.386749,0.05758 1.015192,0.26325 1.610767,1.292024 1.338746,2.274503 -0.27202,0.982482 -1.335051,1.558855 -2.350243,1.295603 -1.015192,-0.263251 -1.610766,-1.292024 -1.338746,-2.274503 0.208266,-0.75221 0.879822,-1.27147 1.636245,-1.353186 z"
         style="fill:#000000;fill-opacity:1;stroke:none" />
    </g>
  </g>
</svg>
