<?xml version="1.0" encoding="UTF-8" standalone="no"?>
<!-- Created with Inkscape (http://www.inkscape.org/) -->

<svg
   xmlns:dc="http://purl.org/dc/elements/1.1/"
   xmlns:cc="http://creativecommons.org/ns#"
   xmlns:rdf="http://www.w3.org/1999/02/22-rdf-syntax-ns#"
   xmlns:svg="http://www.w3.org/2000/svg"
   xmlns="http://www.w3.org/2000/svg"
   xmlns:xlink="http://www.w3.org/1999/xlink"
   xmlns:sodipodi="http://sodipodi.sourceforge.net/DTD/sodipodi-0.dtd"
   xmlns:inkscape="http://www.inkscape.org/namespaces/inkscape"
   version="1.1"
   width="48"
   height="48"
   id="svg3304"
   inkscape:version="0.91 r13725"
   sodipodi:docname="system-software-update.svg">
  <sodipodi:namedview
     pagecolor="#ffffff"
     bordercolor="#666666"
     borderopacity="1"
     objecttolerance="10"
     gridtolerance="10"
     guidetolerance="10"
     inkscape:pageopacity="0"
     inkscape:pageshadow="2"
     inkscape:window-width="1920"
     inkscape:window-height="1029"
     id="namedview13"
     showgrid="false"
     inkscape:zoom="4.9166667"
     inkscape:cx="15.206799"
     inkscape:cy="45.844452"
     inkscape:window-x="0"
     inkscape:window-y="0"
     inkscape:window-maximized="1"
     inkscape:current-layer="layer1" />
  <defs
     id="defs3306">
    <radialGradient
       cx="11.25"
       cy="19.03125"
       r="8.0625"
       fx="11.25"
       fy="19.03125"
       id="radialGradient4354"
       xlink:href="#linearGradient5105"
       gradientUnits="userSpaceOnUse"
       gradientTransform="matrix(1,0,0,0.282946,0,13.64644)" />
    <linearGradient
       id="linearGradient5105">
      <stop
         id="stop5107"
         style="stop-color:#000000;stop-opacity:1"
         offset="0" />
      <stop
         id="stop5109"
         style="stop-color:#000000;stop-opacity:0"
         offset="1" />
    </linearGradient>
  </defs>
  <metadata
     id="metadata3309">
    <rdf:RDF>
      <cc:Work
         rdf:about="">
        <dc:format>image/svg+xml</dc:format>
        <dc:type
           rdf:resource="http://purl.org/dc/dcmitype/StillImage" />
        <dc:title />
      </cc:Work>
    </rdf:RDF>
  </metadata>
  <g
     id="layer1">
    <path
       d="M 19.281051,44.619 C 9.7788504,42.444835 2.6814544,33.842838 2.6814544,23.567463 2.6814544,11.652237 12.232163,1.9819068 24,1.9819078 c 11.767837,0 21.318548,9.6703282 21.318546,21.5855552 0,10.244455 -7.057154,18.817259 -16.516322,21.023431 l 0,-6.211469 5.396,3.434519 -10.170465,-11.950694 -10.326998,12.354755 5.58029,-3.83858 z M 24,28.064453 c 2.451633,0 4.441364,-2.01465 4.441364,-4.49699 0,-2.48234 -1.989731,-4.496991 -4.441364,-4.496991 -2.451633,0 -4.441364,2.014651 -4.441364,4.496991 0,2.48234 1.989731,4.49699 4.441364,4.49699 z"
       id="path3810"
       style="fill:#000000;fill-opacity:1;fill-rule:evenodd;stroke:#ffffff;stroke-width:4;stroke-linecap:butt;stroke-linejoin:miter;stroke-miterlimit:4;stroke-opacity:1;stroke-dasharray:none" />
    <path
       d="M 19.281051,2.6814538 C 9.7788504,4.8556192 2.6814544,13.457616 2.6814544,23.732991 c 0,11.915226 9.5507086,21.585556 21.3185456,21.585555 11.767837,0 21.318548,-9.670328 21.318546,-21.585555 0,-10.244455 -7.057154,-18.8172587 -16.516322,-21.023431 l 0,6.2114686 5.396,-3.4345187 L 24.027759,17.437204 13.700761,5.0824489 19.281051,8.9210286 z M 24,19.236001 c 2.451633,0 4.441364,2.01465 4.441364,4.49699 0,2.48234 -1.989731,4.496991 -4.441364,4.496991 -2.451633,0 -4.441364,-2.014651 -4.441364,-4.496991 0,-2.48234 1.989731,-4.49699 4.441364,-4.49699 z"
       id="path3312"
       style="fill:#000000;fill-opacity:1;fill-rule:evenodd;stroke:#ffffff;stroke-width:4;stroke-linecap:butt;stroke-linejoin:miter;stroke-miterlimit:4;stroke-opacity:1;stroke-dasharray:none" />
    <g
       transform="matrix(0.6275801,0,0,0.5000002,-22.239437,3.8928549)"
       id="g2174"
       style="fill:#ffffff" />
    <path
       style="opacity:1;fill:#c90016;fill-opacity:1;stroke:none;stroke-width:0.40677965;stroke-linecap:round;stroke-linejoin:round;stroke-miterlimit:4;stroke-dasharray:none;stroke-opacity:1"
       d="m 23.863005,3.4965114 c -0.92231,0.02421 -1.869894,0.012642 -2.765146,0.2431337 -0.486597,0.193142 -0.279491,0.8085278 -0.323197,1.2129706 0.009,2.0396807 -0.01736,4.0840285 0.01365,6.1208093 0.111564,0.443763 0.540516,0.720099 0.789345,1.090466 0.71225,0.810612 1.348963,1.694237 2.121191,2.448748 0.325352,0.285412 0.784942,0.07176 0.977261,-0.261163 0.849112,-0.997114 1.71736,-1.983945 2.541883,-2.998198 0.203432,-0.411502 0.04986,-0.901222 0.09773,-1.345809 -0.0084,-1.9525598 0.01851,-3.9097609 -0.01183,-5.8594265 C 27.243484,3.6313263 26.635508,3.6779959 26.246519,3.6143092 25.455717,3.5229686 24.658637,3.4951337 23.863005,3.4965114 Z"
       id="path4151"
       inkscape:connector-curvature="0" />
  </g>
</svg>
