<?xml version="1.0" encoding="UTF-8" standalone="no"?>
<!-- Generator: Adobe Illustrator 9.0, SVG Export Plug-In  -->

<svg
   xmlns:dc="http://purl.org/dc/elements/1.1/"
   xmlns:cc="http://creativecommons.org/ns#"
   xmlns:rdf="http://www.w3.org/1999/02/22-rdf-syntax-ns#"
   xmlns:svg="http://www.w3.org/2000/svg"
   xmlns="http://www.w3.org/2000/svg"
   xmlns:sodipodi="http://sodipodi.sourceforge.net/DTD/sodipodi-0.dtd"
   xmlns:inkscape="http://www.inkscape.org/namespaces/inkscape"
   id="svg2"
   xml:space="preserve"
   height="48"
   width="48"
   version="1.0"
   viewBox="0 0 48 48"
   inkscape:version="0.48.3.1 r9886"
   sodipodi:docname="accessories-text-editor.svg"><defs
   id="defs20" /><sodipodi:namedview
   pagecolor="#ffffff"
   bordercolor="#666666"
   borderopacity="1"
   objecttolerance="10"
   gridtolerance="10"
   guidetolerance="10"
   inkscape:pageopacity="0"
   inkscape:pageshadow="2"
   inkscape:window-width="1366"
   inkscape:window-height="717"
   id="namedview18"
   showgrid="false"
   inkscape:zoom="5.6568543"
   inkscape:cx="-6.6419816"
   inkscape:cy="29.324524"
   inkscape:window-x="0"
   inkscape:window-y="0"
   inkscape:window-maximized="1"
   inkscape:current-layer="svg2" /><metadata
   id="metadata32"><rdf:RDF><cc:Work
       rdf:about=""><dc:format>image/svg+xml</dc:format><dc:type
         rdf:resource="http://purl.org/dc/dcmitype/StillImage" /><dc:title>Text Editor</dc:title><dc:date>May 2009</dc:date><dc:creator><cc:Agent><dc:title>Jakub Steiner</dc:title></cc:Agent></dc:creator><dc:coverage /><dc:description>A paper with a pencil on it</dc:description><dc:subject><rdf:Bag><rdf:li>text</rdf:li><rdf:li>editor</rdf:li></rdf:Bag></dc:subject></cc:Work></rdf:RDF></metadata>
	<rect
   id="rect2400"
   style="fill:none"
   height="48"
   width="48"
   y="0"
   x="0" /><rect
   id="rect3174"
   style="stroke-linejoin:round;stroke:#fff;stroke-width:7;fill:#fff;stroke-miterlimit:4;stroke-dasharray:none"
   ry="3.4532"
   height="40"
   width="32"
   y="4"
   x="7" /><rect
   id="rect3172"
   ry="3.4532"
   height="40"
   width="32"
   y="4"
   x="7" /><path
   id="path13"
   style="fill:#fff"
   d="m36 7h-26v34h26v-34z" />
	<g
   id="g3176"
   transform="matrix(.99465 0 0 .97382 .14108 .90381)"><path
     id="path7"
     style="stroke-linejoin:round;stroke:#fff;stroke-width:8.12859524;fill:none;stroke-miterlimit:4;stroke-dasharray:none"
     d="m38.7 30.4l-13.7-13.7-7.7-3 2.7 8.7 13.3 13.4 5.4-5.4z" /><g
     id="Layer_x0020_4"
     style="stroke:#000">
		<path
   id="path16"
   style="stroke-linejoin:round;stroke-width:4.9715;fill:none"
   d="m38.7 30.4l-13.7-13.7-7.7-3 2.7 8.7 13.3 13.4 5.4-5.4z" />
		<path
   id="path18"
   d="m38.7 30.4l-13.7-13.7-7.7-3 2.7 8.7 13.3 13.4 5.4-5.4z" />
		<path
   id="path20"
   d="m20.6 14.7l-2.5 2.5-1.1-3.8 3.6 1.3z" />
		<path
   id="path22"
   style="stroke-width:1.2429;fill:none"
   d="m19.6 22.2l3-0.3 2.4-2.4 0.4-2.8" />
		<path
   id="path24"
   style="fill:#ffffff;stroke:#ffffff;stroke-width:1.52411161;stroke-miterlimit:4;stroke-opacity:1;stroke-dasharray:none"
   d="m 20.4,14.9 -2.1,2.1 1.6,5.2 2.7,-0.3 2.4,-2.4 0.3,-2.4 c -1.495163,-0.64772 -3.765793,-1.650025 -4.9,-2.2 z"
   inkscape:connector-curvature="0"
   sodipodi:nodetypes="ccccccc" />
	</g></g>
	
</svg>