<?xml version="1.0" encoding="UTF-8" standalone="no"?>
<!-- Created with Inkscape (http://www.inkscape.org/) -->

<svg
   xmlns:dc="http://purl.org/dc/elements/1.1/"
   xmlns:cc="http://creativecommons.org/ns#"
   xmlns:rdf="http://www.w3.org/1999/02/22-rdf-syntax-ns#"
   xmlns:svg="http://www.w3.org/2000/svg"
   xmlns="http://www.w3.org/2000/svg"
   version="1.0"
   width="48"
   height="48"
   id="svg2">
  <defs
     id="defs13" />
  <metadata
     id="metadata7">
    <rdf:RDF>
      <cc:Work
         rdf:about="">
        <dc:format>image/svg+xml</dc:format>
        <dc:type
           rdf:resource="http://purl.org/dc/dcmitype/StillImage" />
        <cc:license
           rdf:resource="http://creativecommons.org/licenses/GPL/2.0/" />
        <dc:title></dc:title>
        <dc:date>May 2009</dc:date>
        <dc:creator>
          <cc:Agent>
            <dc:title>Luca Ferretti</dc:title>
          </cc:Agent>
        </dc:creator>
        <dc:publisher>
          <cc:Agent>
            <dc:title>gnome.org</dc:title>
          </cc:Agent>
        </dc:publisher>
        <dc:subject>
          <rdf:Bag>
            <rdf:li>system</rdf:li>
            <rdf:li>monitor</rdf:li>
            <rdf:li>status</rdf:li>
          </rdf:Bag>
        </dc:subject>
      </cc:Work>
      <cc:License
         rdf:about="http://creativecommons.org/licenses/GPL/2.0/">
        <cc:permits
           rdf:resource="http://web.resource.org/cc/Reproduction" />
        <cc:permits
           rdf:resource="http://web.resource.org/cc/Distribution" />
        <cc:requires
           rdf:resource="http://web.resource.org/cc/Notice" />
        <cc:permits
           rdf:resource="http://web.resource.org/cc/DerivativeWorks" />
        <cc:requires
           rdf:resource="http://web.resource.org/cc/ShareAlike" />
        <cc:requires
           rdf:resource="http://web.resource.org/cc/SourceCode" />
      </cc:License>
    </rdf:RDF>
  </metadata>
  <g
     id="layer1">
    <rect
       width="60"
       height="60"
       x="0"
       y="0"
       id="rect1306"
       style="fill:none;display:none" />
    <rect
       width="48"
       height="48"
       rx="0"
       ry="0.16787"
       x="0"
       y="0"
       id="rect2386"
       style="fill:none" />
    <rect
       width="40"
       height="40"
       ry="4.6679001"
       x="4"
       y="4"
       id="rect3160"
       style="fill:#ffffff;stroke:#ffffff;stroke-width:8;stroke-linejoin:round" />
    <rect
       width="40"
       height="40"
       ry="3.9179001"
       x="4"
       y="4"
       id="rect3158" />
    <rect
       width="32"
       height="32"
       ry="2.9179001"
       x="8"
       y="8"
       id="rect3162"
       style="fill:#ffffff" />
    <g
       transform="matrix(0.5326236,0.14042608,-0.14271601,0.52407747,14.724958,16.793733)"
       id="g2904">
      <path
         d="m 31,0.5 c -0.561936,2e-8 -1.1158,0.047001 -1.65625,0.125 L 29.125,3.71875 C 28.16536,3.9344947 27.275486,4.3022815 26.46875,4.8125 L 24.125,2.78125 C 22.999999,3.5000009 22.5,4 21.78125,5.125 L 23.8125,7.46875 C 23.302281,8.2754859 22.934495,9.1653595 22.71875,10.125 L 19.625,10.34375 C 19.547,10.8842 19.5,11.438062 19.5,12 c -1e-6,0.561939 0.047,1.115801 0.125,1.65625 l 3.09375,0.21875 c 0.215745,0.959641 0.583531,1.849514 1.09375,2.65625 L 21.78125,18.875 C 22.5,19.999999 23,20.5 24.125,21.21875 l 2.34375,-2.03125 c 0.806736,0.510219 1.696609,0.878005 2.65625,1.09375 L 29.34375,23.375 C 29.8842,23.453 30.438063,23.5 31,23.5 c 0.561936,0 1.115801,-0.047 1.65625,-0.125 L 32.875,20.28125 c 0.959641,-0.215745 1.849514,-0.583531 2.65625,-1.09375 L 37.875,21.21875 C 39.000002,20.499999 39.5,20 40.21875,18.875 L 38.1875,16.53125 c 0.510219,-0.806736 0.878005,-1.696609 1.09375,-2.65625 L 42.375,13.65625 C 42.453,13.115801 42.499999,12.561939 42.5,12 c 0,-0.561937 -0.047,-1.115801 -0.125,-1.65625 L 39.28125,10.125 C 39.065505,9.1653595 38.697719,8.2754859 38.1875,7.46875 L 40.21875,5.125 C 39.569261,4.0173152 39,3.5 37.875,2.78125 L 35.53125,4.8125 C 34.724514,4.3022815 33.834641,3.9344947 32.875,3.71875 L 32.65625,0.625 C 32.1158,0.54700102 31.561938,0.5 31,0.5 z m 0,9 c 1.380001,3e-7 2.499999,1.119998 2.5,2.5 10e-7,1.380003 -1.119997,2.5 -2.5,2.5 -1.380002,0 -2.5,-1.119997 -2.5,-2.5 0,-1.380002 1.119998,-2.5 2.5,-2.5 z"
         id="path2779"
         style="fill:#000000;fill-opacity:1;stroke:none" />
    </g>
    <g
       transform="matrix(0.5326236,0.14042608,-0.14271601,0.52407747,5.4887951,8.3839776)"
       id="g2924">
      <path
         d="m 31,0.5 c -0.561936,2e-8 -1.1158,0.047001 -1.65625,0.125 L 29.125,3.71875 C 28.16536,3.9344947 27.275486,4.3022815 26.46875,4.8125 L 24.125,2.78125 C 22.999999,3.5000009 22.5,4 21.78125,5.125 L 23.8125,7.46875 C 23.302281,8.2754859 22.934495,9.1653595 22.71875,10.125 L 19.625,10.34375 C 19.547,10.8842 19.5,11.438062 19.5,12 c -1e-6,0.561939 0.047,1.115801 0.125,1.65625 l 3.09375,0.21875 c 0.215745,0.959641 0.583531,1.849514 1.09375,2.65625 L 21.78125,18.875 C 22.5,19.999999 23,20.5 24.125,21.21875 l 2.34375,-2.03125 c 0.806736,0.510219 1.696609,0.878005 2.65625,1.09375 L 29.34375,23.375 C 29.8842,23.453 30.438063,23.5 31,23.5 c 0.561936,0 1.115801,-0.047 1.65625,-0.125 L 32.875,20.28125 c 0.959641,-0.215745 1.849514,-0.583531 2.65625,-1.09375 L 37.875,21.21875 C 39.000002,20.499999 39.5,20 40.21875,18.875 L 38.1875,16.53125 c 0.510219,-0.806736 0.878005,-1.696609 1.09375,-2.65625 L 42.375,13.65625 C 42.453,13.115801 42.499999,12.561939 42.5,12 c 0,-0.561937 -0.047,-1.115801 -0.125,-1.65625 L 39.28125,10.125 C 39.065505,9.1653595 38.697719,8.2754859 38.1875,7.46875 L 40.21875,5.125 C 39.569261,4.0173152 39,3.5 37.875,2.78125 L 35.53125,4.8125 C 34.724514,4.3022815 33.834641,3.9344947 32.875,3.71875 L 32.65625,0.625 C 32.1158,0.54700102 31.561938,0.5 31,0.5 z m 0,9 c 1.380001,3e-7 2.499999,1.119998 2.5,2.5 10e-7,1.380003 -1.119997,2.5 -2.5,2.5 -1.380002,0 -2.5,-1.119997 -2.5,-2.5 0,-1.380002 1.119998,-2.5 2.5,-2.5 z"
         id="path2926"
         style="fill:#000000;fill-opacity:1;stroke:none" />
    </g>
    <path
       d="m 18.581602,26.622023 c -0.269311,0.01017 -0.535981,0.05089 -0.792654,0.101726 l -0.01721,0 c -0.192701,0.03884 -0.384775,0.09246 -0.568649,0.152598 -0.26597,0.08697 -0.514313,0.194156 -0.758192,0.322147 l 0.361865,1.695515 c -0.262601,0.19137 -0.509545,0.415161 -0.706498,0.678206 l -1.705928,-0.3391 c -0.141384,0.262811 -0.270627,0.525397 -0.361864,0.813848 -0.126758,0.400701 -0.206922,0.834156 -0.224015,1.271637 l 1.688696,0.559519 c 0.03838,0.321452 0.111368,0.640601 0.241246,0.932533 l -1.17175,1.288593 c 0.15312,0.239442 0.325184,0.469125 0.516946,0.678204 l 0.344633,0.322149 c 0.214074,0.192827 0.443299,0.371714 0.689267,0.525609 l 1.30961,-1.152949 c 0.157418,0.06906 0.310751,0.124273 0.482483,0.169551 0.162509,0.04285 0.337426,0.08367 0.499714,0.101726 l 0.551418,1.644651 c 0.269302,-0.01017 0.535972,-0.05089 0.792654,-0.101727 l 0.01721,0 c 0.192691,-0.03884 0.384766,-0.09247 0.568639,-0.152596 0.26597,-0.08699 0.514314,-0.194156 0.758192,-0.322147 L 20.73555,34.1162 c 0.262611,-0.191369 0.509546,-0.415162 0.706499,-0.678206 l 1.705936,0.339103 c 0.141375,-0.26281 0.270619,-0.525396 0.361865,-0.813846 0.126749,-0.400703 0.206922,-0.834157 0.224006,-1.271637 L 22.04516,31.132093 C 22.00678,30.810642 21.933792,30.491492 21.803914,30.19956 l 1.17175,-1.288592 c -0.15312,-0.239444 -0.325175,-0.469127 -0.516946,-0.678206 L 22.114085,27.910614 C 21.90002,27.717785 21.670795,27.5389 21.424818,27.385005 l -1.309601,1.152949 c -0.157418,-0.06906 -0.310751,-0.124274 -0.482492,-0.169551 -0.162509,-0.04285 -0.337426,-0.08367 -0.499715,-0.101726 l -0.551408,-1.64465 z m 0.06894,3.797953 c 0.06259,-0.0069 0.125562,-0.0038 0.189544,0 0.07308,0.0043 0.150515,0.01453 0.224015,0.03391 0.588015,0.155029 0.93298,0.760874 0.775423,1.339456 -0.157557,0.578586 -0.773288,0.918012 -1.361303,0.762983 -0.588015,-0.155029 -0.93298,-0.760874 -0.775423,-1.339457 0.120628,-0.442977 0.50961,-0.748769 0.947745,-0.796893 z"
       id="path2978"
       style="fill:#000000;fill-opacity:1;stroke:none" />
  </g>
</svg>
