<?xml version="1.0" encoding="UTF-8" standalone="no"?>
<!-- Created with Inkscape (http://www.inkscape.org/) -->

<svg
   xmlns:dc="http://purl.org/dc/elements/1.1/"
   xmlns:cc="http://creativecommons.org/ns#"
   xmlns:rdf="http://www.w3.org/1999/02/22-rdf-syntax-ns#"
   xmlns:svg="http://www.w3.org/2000/svg"
   xmlns="http://www.w3.org/2000/svg"
   version="1.1"
   width="48"
   height="48"
   id="svg2">
  <defs
     id="defs11" />
  <metadata
     id="metadata7">
    <rdf:RDF>
      <cc:Work
         rdf:about="">
        <dc:format>image/svg+xml</dc:format>
        <dc:type
           rdf:resource="http://purl.org/dc/dcmitype/StillImage" />
        <cc:license
           rdf:resource="http://creativecommons.org/licenses/GPL/2.0/" />
        <dc:title></dc:title>
        <dc:creator>
          <cc:Agent>
            <dc:title>Luca Ferretti &lt;elle.uca@libero.it&gt;</dc:title>
          </cc:Agent>
        </dc:creator>
        <dc:contributor>
          <cc:Agent>
            <dc:title>Shape based on exising PNG icon in gnome-icon-theme</dc:title>
          </cc:Agent>
        </dc:contributor>
        <dc:subject>
          <rdf:Bag>
            <rdf:li>hard disk</rdf:li>
          </rdf:Bag>
        </dc:subject>
      </cc:Work>
      <cc:License
         rdf:about="http://creativecommons.org/licenses/GPL/2.0/">
        <cc:permits
           rdf:resource="http://web.resource.org/cc/Reproduction" />
        <cc:permits
           rdf:resource="http://web.resource.org/cc/Distribution" />
        <cc:requires
           rdf:resource="http://web.resource.org/cc/Notice" />
        <cc:permits
           rdf:resource="http://web.resource.org/cc/DerivativeWorks" />
        <cc:requires
           rdf:resource="http://web.resource.org/cc/ShareAlike" />
        <cc:requires
           rdf:resource="http://web.resource.org/cc/SourceCode" />
      </cc:License>
    </rdf:RDF>
  </metadata>
  <g
     id="layer1">
    <rect
       width="48"
       height="48"
       rx="0"
       ry="0"
       x="0"
       y="0"
       id="rect6226"
       style="fill:none" />
    <g
       transform="translate(0,5)"
       id="g2988">
      <path
         d="m 9,10 h 30 c 2.743,0 5,2.257 5,5 v 18 c 0,2.743 -2.257,5 -5,5 H 9 C 6.2571,38 4,35.743 4,33 V 15 c 0,-2.743 2.2571,-5 5,-5 z"
         id="path4040"
         style="fill:#ffffff;fill-rule:evenodd;stroke:#ffffff;stroke-width:8" />
      <path
         d="m 9,10 h 30 c 2.743,0 5,2.257 5,5 v 18 c 0,2.743 -2.257,5 -5,5 H 9 C 6.2571,38 4,35.743 4,33 V 15 c 0,-2.743 2.2571,-5 5,-5 z"
         id="rect3311"
         style="fill-rule:evenodd" />
      <path
         d="m 11,14 h 26 c 2,0 3,1 3,3 v 14 c 0,2 -1,3 -3,3 H 11 C 9,34 8,33 8,31 V 17 c 0,-2 1,-3 3,-3 z"
         id="path4768"
         style="fill:#ffffff;fill-rule:evenodd" />
      <rect
         width="9"
         height="6"
         rx="2"
         ry="2"
         x="27"
         y="25"
         id="rect5498"
         style="fill-rule:evenodd" />
    </g>
    <g
       transform="matrix(0.65086201,0,0,0.65086201,-0.19196264,-0.16484578)"
       id="g3799"
       style="stroke:#ffffff;stroke-width:7;stroke-miterlimit:4;stroke-opacity:1;stroke-dasharray:none">
      <g
         transform="matrix(0.31902905,0,0,0.31902905,3.4783085,3.516009)"
         id="g3801"
         style="stroke:#ffffff;stroke-width:21.941576;stroke-miterlimit:4;stroke-opacity:1;stroke-dasharray:none">
        <g
           transform="matrix(0.37037732,0,0,0.37625636,-67.601549,-58.497577)"
           id="g3803"
           style="fill:#000000;stroke:#ffffff;stroke-width:58.77649689;stroke-miterlimit:4;stroke-opacity:1;stroke-dasharray:none">
          <g
             transform="matrix(2.5029871,0,0,2.5029871,148.31101,90.072285)"
             id="g3805"
             style="fill:#000000;fill-opacity:1;stroke:#ffffff;stroke-width:23.48254013;stroke-miterlimit:4;stroke-opacity:1;stroke-dasharray:none">
            <path
               d="m 28.006495,81.295387 0.221083,0 c 6.35941,0 10.692345,3.400405 13.011047,10.189742 l 0.214964,3.036265 c 0,5.641846 -3.108177,9.759816 -9.323767,12.359266 l -3.251232,0.43605 -1.087824,0 c -5.498789,0 -9.544851,-3.17932 -12.144307,-9.53873 l -0.214964,-2.168762 0,-2.169525 c 0,-5.055856 2.886329,-8.886955 8.671991,-11.49253 1.589662,-0.430693 2.886329,-0.651776 3.903009,-0.651776 z M 59.233619,49.852534 c 1.876534,2.749395 5.635723,9.257978 11.277566,19.51963 -8.098244,6.938511 -12.144306,14.815671 -12.144306,23.631481 l 0,2.605573 c 0,8.678112 4.046062,16.626412 12.144306,23.852572 -6.364764,11.27756 -10.123953,17.70812 -11.277566,19.29854 -2.025709,-1.00979 -5.713753,-4.41096 -11.056483,-10.19586 -5.211916,-6.78934 -8.463147,-13.00492 -9.759815,-18.64677 5.635723,-4.47676 8.457027,-9.68179 8.457027,-15.610505 0,-5.922593 -2.821304,-11.128389 -8.457027,-15.610499 0.286874,-3.179322 2.964358,-8.671991 8.020215,-16.483362 3.903008,-5.055856 8.098244,-9.173828 12.580354,-12.35927 l 0.215729,0 0,-0.0015 z m 28.836512,-9.537966 4.124092,0 c 3.179322,0 6.646284,0.436048 10.405477,1.302788 0,5.785662 3.03627,10.841518 9.10804,15.174454 3.17932,1.589661 6.14368,2.384491 8.89307,2.384491 l 0.86674,0 c 2.30723,0 5.05586,-0.645656 8.23594,-1.948444 6.79546,8.098245 10.99069,15.616622 12.58036,22.549778 1.1536,4.339056 1.73347,7.739461 1.73347,10.189743 l -22.33404,0 c -0.43605,-4.625929 -2.46252,-9.610641 -6.07253,-14.959491 -7.08845,-8.378998 -15.688539,-12.574999 -25.801019,-12.574999 -3.616135,0 -7.518378,0.794831 -11.714379,2.384492 l 0,-0.214964 L 67.03887,45.298515 c 7.518377,-3.323141 14.528798,-4.983947 21.031261,-4.983947 z m 33.612379,58.330918 22.33404,0 0,0.214963 c 0,6.359411 -2.38449,14.020841 -7.15423,22.985831 -2.0257,3.32314 -4.48211,6.50246 -7.37532,9.53873 l -0.21496,0 c -2.60558,-1.29667 -5.27694,-1.94844 -8.02634,-1.94844 l -0.43069,0 c -5.64184,0 -10.41082,2.38449 -14.31383,7.15424 -2.60558,3.61613 -3.90301,7.08233 -3.90301,10.40547 -4.482114,1.01591 -8.678117,1.51775 -12.575005,1.51775 -7.662197,0 -15.323629,-1.73348 -22.985825,-5.19968 l 0,-0.22108 11.056482,-19.29855 c 3.759189,1.58966 7.877161,2.3845 12.35927,2.3845 9.394915,0 17.565068,-3.97416 24.503588,-11.92323 3.46619,-4.48211 5.70763,-9.46682 6.72354,-14.959493 l 0,-0.651011 0.002,0 z M 121.2457,27.739569 c 5.92872,0 10.04669,3.179322 12.35927,9.538731 l 0.43605,3.036268 0,1.081704 c 0,5.785662 -3.32927,9.837079 -9.97478,12.144306 l -1.94844,0.214964 -2.16953,0 c -4.62593,0 -8.31321,-2.671365 -11.0626,-8.020215 -0.57987,-1.73348 -0.86674,-3.251231 -0.86674,-4.554019 l 0,-0.86674 c 0,-5.635723 3.17932,-9.681785 9.54485,-12.144306 l 3.68192,-0.430693 z m -0.86597,107.116991 1.30278,0 c 5.49267,0 9.46682,3.10818 11.92322,9.32377 l 0.43604,3.03627 0,1.0817 c 0,5.49879 -2.96435,9.47294 -8.89306,11.92934 -1.30279,0.4307 -2.74327,0.64566 -4.33294,0.64566 -4.91891,0 -8.75001,-2.4564 -11.49252,-7.3692 -0.87286,-1.58967 -1.30279,-3.32315 -1.30279,-5.2058 l 0,-0.86674 c 0,-5.49267 3.03627,-9.53873 9.10804,-12.14431 l 3.25123,-0.43069 z"
               id="path3807"
               style="fill:#000000;fill-opacity:1;stroke:#ffffff;stroke-width:23.48254013;stroke-miterlimit:4;stroke-opacity:1;stroke-dasharray:none" />
          </g>
        </g>
        <path
           d="M 70.84375,43.40625 C 59.058285,43.40625 49.5,52.964535 49.5,64.75 c 0,11.785465 9.558285,21.34375 21.34375,21.34375 11.785465,0 21.34375,-9.558285 21.34375,-21.34375 0,-11.785465 -9.558285,-21.34375 -21.34375,-21.34375 z m 0,12.25 c 5.021026,0 9.09375,4.072724 9.09375,9.09375 0,5.021026 -4.072724,9.09375 -9.09375,9.09375 -5.021026,0 -9.09375,-4.072724 -9.09375,-9.09375 0,-5.021026 4.072724,-9.09375 9.09375,-9.09375 z"
           id="path3809"
           style="fill:#000000;fill-opacity:1;stroke:#ffffff;stroke-width:21.941576;stroke-miterlimit:4;stroke-opacity:1;stroke-dasharray:none" />
      </g>
    </g>
    <g
       transform="matrix(0.65086201,0,0,0.65086201,-0.19196264,-0.16484578)"
       id="g3792">
      <g
         transform="matrix(0.31902905,0,0,0.31902905,3.4783085,3.516009)"
         id="layer1-3"
         style="stroke:none">
        <g
           transform="matrix(0.37037732,0,0,0.37625636,-67.601549,-58.497577)"
           id="g3632"
           style="fill:#000000;stroke:none">
          <g
             transform="matrix(2.5029871,0,0,2.5029871,148.31101,90.072285)"
             id="g3"
             style="fill:#000000;fill-opacity:1;stroke:none">
            <path
               d="m 28.006495,81.295387 0.221083,0 c 6.35941,0 10.692345,3.400405 13.011047,10.189742 l 0.214964,3.036265 c 0,5.641846 -3.108177,9.759816 -9.323767,12.359266 l -3.251232,0.43605 -1.087824,0 c -5.498789,0 -9.544851,-3.17932 -12.144307,-9.53873 l -0.214964,-2.168762 0,-2.169525 c 0,-5.055856 2.886329,-8.886955 8.671991,-11.49253 1.589662,-0.430693 2.886329,-0.651776 3.903009,-0.651776 z M 59.233619,49.852534 c 1.876534,2.749395 5.635723,9.257978 11.277566,19.51963 -8.098244,6.938511 -12.144306,14.815671 -12.144306,23.631481 l 0,2.605573 c 0,8.678112 4.046062,16.626412 12.144306,23.852572 -6.364764,11.27756 -10.123953,17.70812 -11.277566,19.29854 -2.025709,-1.00979 -5.713753,-4.41096 -11.056483,-10.19586 -5.211916,-6.78934 -8.463147,-13.00492 -9.759815,-18.64677 5.635723,-4.47676 8.457027,-9.68179 8.457027,-15.610505 0,-5.922593 -2.821304,-11.128389 -8.457027,-15.610499 0.286874,-3.179322 2.964358,-8.671991 8.020215,-16.483362 3.903008,-5.055856 8.098244,-9.173828 12.580354,-12.35927 l 0.215729,0 0,-0.0015 z m 28.836512,-9.537966 4.124092,0 c 3.179322,0 6.646284,0.436048 10.405477,1.302788 0,5.785662 3.03627,10.841518 9.10804,15.174454 3.17932,1.589661 6.14368,2.384491 8.89307,2.384491 l 0.86674,0 c 2.30723,0 5.05586,-0.645656 8.23594,-1.948444 6.79546,8.098245 10.99069,15.616622 12.58036,22.549778 1.1536,4.339056 1.73347,7.739461 1.73347,10.189743 l -22.33404,0 c -0.43605,-4.625929 -2.46252,-9.610641 -6.07253,-14.959491 -7.08845,-8.378998 -15.688539,-12.574999 -25.801019,-12.574999 -3.616135,0 -7.518378,0.794831 -11.714379,2.384492 l 0,-0.214964 L 67.03887,45.298515 c 7.518377,-3.323141 14.528798,-4.983947 21.031261,-4.983947 z m 33.612379,58.330918 22.33404,0 0,0.214963 c 0,6.359411 -2.38449,14.020841 -7.15423,22.985831 -2.0257,3.32314 -4.48211,6.50246 -7.37532,9.53873 l -0.21496,0 c -2.60558,-1.29667 -5.27694,-1.94844 -8.02634,-1.94844 l -0.43069,0 c -5.64184,0 -10.41082,2.38449 -14.31383,7.15424 -2.60558,3.61613 -3.90301,7.08233 -3.90301,10.40547 -4.482114,1.01591 -8.678117,1.51775 -12.575005,1.51775 -7.662197,0 -15.323629,-1.73348 -22.985825,-5.19968 l 0,-0.22108 11.056482,-19.29855 c 3.759189,1.58966 7.877161,2.3845 12.35927,2.3845 9.394915,0 17.565068,-3.97416 24.503588,-11.92323 3.46619,-4.48211 5.70763,-9.46682 6.72354,-14.959493 l 0,-0.651011 0.002,0 z M 121.2457,27.739569 c 5.92872,0 10.04669,3.179322 12.35927,9.538731 l 0.43605,3.036268 0,1.081704 c 0,5.785662 -3.32927,9.837079 -9.97478,12.144306 l -1.94844,0.214964 -2.16953,0 c -4.62593,0 -8.31321,-2.671365 -11.0626,-8.020215 -0.57987,-1.73348 -0.86674,-3.251231 -0.86674,-4.554019 l 0,-0.86674 c 0,-5.635723 3.17932,-9.681785 9.54485,-12.144306 l 3.68192,-0.430693 z m -0.86597,107.116991 1.30278,0 c 5.49267,0 9.46682,3.10818 11.92322,9.32377 l 0.43604,3.03627 0,1.0817 c 0,5.49879 -2.96435,9.47294 -8.89306,11.92934 -1.30279,0.4307 -2.74327,0.64566 -4.33294,0.64566 -4.91891,0 -8.75001,-2.4564 -11.49252,-7.3692 -0.87286,-1.58967 -1.30279,-3.32315 -1.30279,-5.2058 l 0,-0.86674 c 0,-5.49267 3.03627,-9.53873 9.10804,-12.14431 l 3.25123,-0.43069 z"
               id="path5"
               style="fill:#000000;fill-opacity:1;stroke:none" />
          </g>
        </g>
        <path
           d="M 70.84375,43.40625 C 59.058285,43.40625 49.5,52.964535 49.5,64.75 c 0,11.785465 9.558285,21.34375 21.34375,21.34375 11.785465,0 21.34375,-9.558285 21.34375,-21.34375 0,-11.785465 -9.558285,-21.34375 -21.34375,-21.34375 z m 0,12.25 c 5.021026,0 9.09375,4.072724 9.09375,9.09375 0,5.021026 -4.072724,9.09375 -9.09375,9.09375 -5.021026,0 -9.09375,-4.072724 -9.09375,-9.09375 0,-5.021026 4.072724,-9.09375 9.09375,-9.09375 z"
           id="path4263"
           style="fill:#000000;fill-opacity:1;stroke:none" />
      </g>
    </g>
    <g
       transform="matrix(0.51597023,-0.13825381,0.13825381,0.51597023,29.757138,-20.300514)"
       id="g3039">
      <path
         d="m -16,46.508475 c 17.543,0.6814 29,17 14,33 l 8,7 -23,0 0,-23 7,8 c 13,-13 3.601,-22.228 -6,-25 z"
         id="path6666"
         style="color:#000000;fill:#ffffff;stroke:#ffffff;stroke-width:8;stroke-linecap:round;stroke-linejoin:round;stroke-miterlimit:10;display:block" />
      <path
         d="m -16,46.508475 c 17.543,0.6814 29,17 14,33 l 8,7 -23,0 0,-23 7,8 c 13,-13 3.601,-22.228 -6,-25 z"
         id="path2177"
         style="color:#000000;display:block" />
    </g>
  </g>
</svg>
