<?xml version="1.0" encoding="UTF-8" standalone="no"?>
<!-- Created with Inkscape (http://www.inkscape.org/) -->

<svg
   xmlns:dc="http://purl.org/dc/elements/1.1/"
   xmlns:cc="http://creativecommons.org/ns#"
   xmlns:rdf="http://www.w3.org/1999/02/22-rdf-syntax-ns#"
   xmlns:svg="http://www.w3.org/2000/svg"
   xmlns="http://www.w3.org/2000/svg"
   version="1.0"
   width="48"
   height="48"
   viewBox="0 0 48 48"
   id="svg2"
   xml:space="preserve"><defs
   id="defs17" /><metadata
   id="metadata27"><rdf:RDF><cc:Work
       rdf:about=""><dc:format>image/svg+xml</dc:format><dc:type
         rdf:resource="http://purl.org/dc/dcmitype/StillImage" /><dc:title></dc:title></cc:Work></rdf:RDF></metadata>
	<g
   id="Layer_x0020_3"
   style="fill:#ffffff;stroke:#000000">
		<g
   id="g5">
			<path
   d="M 37.9,38.8 30.1,31 c -0.7,-0.7 -1.8,-0.9 -2.7,-0.6 1.8,-2.2 2.9,-5 2.9,-8 0,-6.9 -5.6,-12.5 -12.5,-12.5 -6.9,0 -12.6,5.5 -12.6,12.4 0,6.9 5.6,12.5 12.5,12.5 3,0 5.8,-1.1 8,-2.9 -0.3,0.9 -0.1,2 0.6,2.7 l 7.8,7.8 c 1,1 2.7,1 3.7,0 1,-1 1,-2.7 0,-3.7 l 0.1,0.1 z M 17.8,31.5 c -5.1,0 -9.2,-4.1 -9.2,-9.2 0,-5.1 4.1,-9.2 9.2,-9.2 5.1,0 9.2,4.1 9.2,9.2 0,5.1 -4.1,9.2 -9.2,9.2 z"
   id="path7"
   style="fill:none;stroke:#ffffff;stroke-width:6.96120024" />
			<path
   d="M 38.3,17.1 V 37.7 H 13 V 8.5 h 16.9 l 8.3,8.5 0.1,0.1 z"
   id="path9"
   style="fill:none;stroke:#ffffff;stroke-width:16;stroke-linecap:round;stroke-linejoin:round;stroke-miterlimit:4;stroke-dasharray:none" />
			<path
   d="M 38.3,17.1 V 37.7 H 13 V 8.5 h 16.9 l 8.3,8.5 0.1,0.1 z"
   id="path11"
   style="fill:none;stroke:#000000;stroke-width:6.62249994;stroke-linejoin:round" />
			<path
   d="M 38.3,17.1 V 37.7 H 13 V 8.5 h 16.9 l 8.3,8.5 0.1,0.1 z"
   id="path13" />
			<g
   id="g15">
				<path
   d="m 38,38.9 -7.8,-7.8 c -0.7,-0.7 -1.8,-0.9 -2.7,-0.6 1.8,-2.2 2.9,-5 2.9,-8 C 30.4,15.6 24.8,10 17.9,10 11,10 5.4,15.6 5.4,22.5 5.4,29.4 11,35 17.9,35 c 3,0 5.8,-1.1 8,-2.9 -0.3,0.9 -0.1,2 0.6,2.7 l 7.8,7.8 c 1,1 2.7,1 3.7,0 1,-1 1,-2.7 0,-3.7 z M 17.9,31.6 c -5.1,0 -9.2,-4.1 -9.2,-9.2 0,-5.1 4.1,-9.2 9.2,-9.2 5.1,0 9.2,4.1 9.2,9.2 0,5.1 -4.1,9.2 -9.2,9.2 z"
   id="path17"
   style="fill:#000000" />
				<path
   d="m 27.1,22.4 c 0,5.1 -4.1,9.2 -9.2,9.2 -5.1,0 -9.2,-4.1 -9.2,-9.2 0,-5.1 4.1,-9.2 9.2,-9.2 5.1,0 9.2,4.1 9.2,9.2 z"
   id="path19" />
			</g>
		</g>
	</g>
	
</svg>