<?xml version="1.0" encoding="UTF-8" standalone="no"?>
<!-- Created with Inkscape (http://www.inkscape.org/) -->

<svg
   xmlns:dc="http://purl.org/dc/elements/1.1/"
   xmlns:cc="http://creativecommons.org/ns#"
   xmlns:rdf="http://www.w3.org/1999/02/22-rdf-syntax-ns#"
   xmlns:svg="http://www.w3.org/2000/svg"
   xmlns="http://www.w3.org/2000/svg"
   xmlns:sodipodi="http://sodipodi.sourceforge.net/DTD/sodipodi-0.dtd"
   xmlns:inkscape="http://www.inkscape.org/namespaces/inkscape"
   version="1.0"
   width="48"
   height="48"
   viewBox="0 0 800 202.049"
   id="Layer_1"
   xml:space="preserve"
   sodipodi:version="0.32"
   inkscape:version="0.48.3.1 r9886"
   sodipodi:docname="vmware-workstation.svg"
   inkscape:output_extension="org.inkscape.output.svg.inkscape"><metadata
   id="metadata21"><rdf:RDF><cc:Work
       rdf:about=""><dc:format>image/svg+xml</dc:format><dc:type
         rdf:resource="http://purl.org/dc/dcmitype/StillImage" /></cc:Work></rdf:RDF></metadata><sodipodi:namedview
   inkscape:window-height="614"
   inkscape:window-width="772"
   inkscape:pageshadow="2"
   inkscape:pageopacity="0.0"
   guidetolerance="10000"
   gridtolerance="10000"
   objecttolerance="10000"
   borderopacity="1.0"
   bordercolor="#666666"
   pagecolor="#ffffff"
   id="base"
   width="48px"
   height="48px"
   showgrid="true"
   inkscape:zoom="4.8224682"
   inkscape:cx="19.968333"
   inkscape:cy="36.029657"
   inkscape:window-x="1"
   inkscape:window-y="42"
   inkscape:current-layer="Layer_1"
   inkscape:window-maximized="0" /><defs
   id="defs34" />

<g
   transform="matrix(0.83635533,0,0,0.83917733,64.417479,16.217203)"
   id="g2989"
   style="stroke-width:159.15359411000000023;stroke-miterlimit:4;stroke-dasharray:none;stroke:#ffffff;stroke-opacity:1"><path
     inkscape:connector-curvature="0"
     d="m 172.4593,181.9969 0,-409.06542 c 0,-13.39517 10.88465,-24.19516 24.33066,-24.19516 l 409.04462,0 c 13.36557,0 24.30949,10.79999 24.30949,24.19516 l 0,409.06542 c 0,13.32745 -10.94392,24.24173 -24.30949,24.24173 l -409.04886,0 c -13.44177,0 -24.32642,-10.91428 -24.32642,-24.24173 m 24.32642,-464.30574 c -30.51599,0 -55.28694,24.75399 -55.28694,55.24032 l 0,409.06542 c 0,30.44822 24.77095,55.27842 55.28694,55.27842 l 409.04462,0 c 30.43978,0 55.19381,-24.8302 55.19381,-55.27842 l 0,-409.06542 c 0,-30.48633 -24.75403,-55.24032 -55.19381,-55.24032 l -409.04462,0 z"
     style="fill:#000000;stroke:#ffffff;stroke-width:159.15359411000000023;stroke-miterlimit:4;stroke-opacity:1;stroke-dasharray:none"
     id="path2991" /><path
     inkscape:connector-curvature="0"
     d="m 294.65873,304.21738 0,-409.10352 c 0,-13.40789 10.86349,-24.22055 24.23327,-24.22055 l 409.07426,0 c 13.3952,0 24.20366,10.8169 24.20366,24.22055 l 0,409.10352 c 0,13.39519 -10.80846,24.25442 -24.20366,24.25442 l -409.07426,0 c -13.36555,-0.004 -24.23327,-10.85923 -24.23327,-24.25442 m 24.23327,-464.3015 c -30.45671,0 -55.18109,24.80056 -55.18109,55.20221 l 0,409.10352 c 0,30.41013 24.72438,55.21915 55.18109,55.21915 l 409.07426,0 c 30.48636,0 55.19381,-24.80902 55.19381,-55.21915 l 0,-409.10775 c 0,-30.40164 -24.70322,-55.20222 -55.19381,-55.20222 l -409.07426,0 0,0.004 z"
     style="fill:#000000;stroke:#ffffff;stroke-width:159.15359411000000023;stroke-miterlimit:4;stroke-opacity:1;stroke-dasharray:none"
     id="path2993" /><path
     inkscape:connector-curvature="0"
     d="m 50.353018,426.37858 0,-409.090809 c 0,-13.3486157 10.787285,-24.182459 24.292563,-24.182459 l 408.959939,0 c 13.4714,0 24.34759,10.8380768 24.34759,24.182459 l 0,409.090809 c 0,13.36555 -10.87619,24.25444 -24.34759,24.25444 l -408.959939,0 c -13.505278,0 -24.292563,-10.88465 -24.292563,-24.25444 M 74.645581,-37.952551 c -30.507531,0 -55.261548,24.847137 -55.261548,55.240322 l 0,409.090809 c 0,30.51597 24.754017,55.25726 55.261548,55.25726 l 408.959939,0 c 30.52446,0 55.33351,-24.74129 55.33351,-55.25726 l 0,-409.090809 c 0,-30.393185 -24.80905,-55.240322 -55.33351,-55.240322 l -408.959939,0 z"
     style="fill:#000000;stroke:#ffffff;stroke-width:159.15359411000000023;stroke-miterlimit:4;stroke-opacity:1;stroke-dasharray:none"
     id="path2995" /></g><g
   id="g2984"
   transform="matrix(0.83635533,0,0,0.83917733,64.417479,16.217203)"><path
     id="path25"
     style="fill:#000000;stroke:#000000;stroke-width:33.33333206;stroke-miterlimit:4;stroke-opacity:1;stroke-dasharray:none"
     d="m 172.4593,181.9969 0,-409.06542 c 0,-13.39517 10.88465,-24.19516 24.33066,-24.19516 l 409.04462,0 c 13.36557,0 24.30949,10.79999 24.30949,24.19516 l 0,409.06542 c 0,13.32745 -10.94392,24.24173 -24.30949,24.24173 l -409.04886,0 c -13.44177,0 -24.32642,-10.91428 -24.32642,-24.24173 m 24.32642,-464.30574 c -30.51599,0 -55.28694,24.75399 -55.28694,55.24032 l 0,409.06542 c 0,30.44822 24.77095,55.27842 55.28694,55.27842 l 409.04462,0 c 30.43978,0 55.19381,-24.8302 55.19381,-55.27842 l 0,-409.06542 c 0,-30.48633 -24.75403,-55.24032 -55.19381,-55.24032 l -409.04462,0 z"
     inkscape:connector-curvature="0" /><path
     id="path27"
     style="fill:#000000;stroke:#000000;stroke-width:33.33333206;stroke-miterlimit:4;stroke-opacity:1;stroke-dasharray:none"
     d="m 294.65873,304.21738 0,-409.10352 c 0,-13.40789 10.86349,-24.22055 24.23327,-24.22055 l 409.07426,0 c 13.3952,0 24.20366,10.8169 24.20366,24.22055 l 0,409.10352 c 0,13.39519 -10.80846,24.25442 -24.20366,24.25442 l -409.07426,0 c -13.36555,-0.004 -24.23327,-10.85923 -24.23327,-24.25442 m 24.23327,-464.3015 c -30.45671,0 -55.18109,24.80056 -55.18109,55.20221 l 0,409.10352 c 0,30.41013 24.72438,55.21915 55.18109,55.21915 l 409.07426,0 c 30.48636,0 55.19381,-24.80902 55.19381,-55.21915 l 0,-409.10775 c 0,-30.40164 -24.70322,-55.20222 -55.19381,-55.20222 l -409.07426,0 0,0.004 z"
     inkscape:connector-curvature="0" /><path
     id="path29"
     style="fill:#000000;stroke:#000000;stroke-width:33.33333206;stroke-miterlimit:4;stroke-opacity:1;stroke-dasharray:none"
     d="m 50.353018,426.37858 0,-409.090809 c 0,-13.3486157 10.787285,-24.182459 24.292563,-24.182459 l 408.959939,0 c 13.4714,0 24.34759,10.8380768 24.34759,24.182459 l 0,409.090809 c 0,13.36555 -10.87619,24.25444 -24.34759,24.25444 l -408.959939,0 c -13.505278,0 -24.292563,-10.88465 -24.292563,-24.25444 M 74.645581,-37.952551 c -30.507531,0 -55.261548,24.847137 -55.261548,55.240322 l 0,409.090809 c 0,30.51597 24.754017,55.25726 55.261548,55.25726 l 408.959939,0 c 30.52446,0 55.33351,-24.74129 55.33351,-55.25726 l 0,-409.090809 c 0,-30.393185 -24.80905,-55.240322 -55.33351,-55.240322 l -408.959939,0 z"
     inkscape:connector-curvature="0" /></g></svg>