<?xml version="1.0" encoding="UTF-8" standalone="no"?>
<!-- Created with Inkscape (http://www.inkscape.org/) -->

<svg
   xmlns:dc="http://purl.org/dc/elements/1.1/"
   xmlns:cc="http://creativecommons.org/ns#"
   xmlns:rdf="http://www.w3.org/1999/02/22-rdf-syntax-ns#"
   xmlns:svg="http://www.w3.org/2000/svg"
   xmlns="http://www.w3.org/2000/svg"
   xmlns:sodipodi="http://sodipodi.sourceforge.net/DTD/sodipodi-0.dtd"
   xmlns:inkscape="http://www.inkscape.org/namespaces/inkscape"
   version="1.2"
   width="48"
   height="48"
   id="svg2"
   inkscape:version="0.48.3.1 r9886"
   sodipodi:docname="xfce4-notifyd.svg">
  <sodipodi:namedview
     pagecolor="#ffffff"
     bordercolor="#666666"
     borderopacity="1"
     objecttolerance="10"
     gridtolerance="10"
     guidetolerance="10"
     inkscape:pageopacity="0"
     inkscape:pageshadow="2"
     inkscape:window-width="1366"
     inkscape:window-height="717"
     id="namedview13"
     showgrid="false"
     inkscape:zoom="3.6875"
     inkscape:cx="-14.237288"
     inkscape:cy="21.152542"
     inkscape:window-x="0"
     inkscape:window-y="0"
     inkscape:window-maximized="1"
     inkscape:current-layer="svg2" />
  <metadata
     id="metadata8">
    <rdf:RDF>
      <cc:Work
         rdf:about="">
        <dc:format>image/svg+xml</dc:format>
        <dc:type
           rdf:resource="http://purl.org/dc/dcmitype/StillImage" />
        <dc:title />
      </cc:Work>
    </rdf:RDF>
  </metadata>
  <defs
     id="defs6" />
  <g
     transform="matrix(0.6555479,0,0,0.6555479,2.9333458,4.3152304)"
     id="g3000"
     style="stroke:#ffffff;stroke-width:12.20353222;stroke-miterlimit:4;stroke-opacity:1;stroke-dasharray:none">
    <rect
       width="61.016949"
       height="38.23164"
       rx="4.7457628"
       ry="4.3729005"
       x="1.6271186"
       y="16.20339"
       id="rect3002"
       style="fill:#000000;fill-opacity:1;stroke:#ffffff;stroke-width:12.20353222;stroke-miterlimit:4;stroke-opacity:1;stroke-dasharray:none" />
    <path
       inkscape:connector-curvature="0"
       d="m 13.204883,8.961407 -6.8320015,-10e-8 -6.83200137,0 L 2.9568807,3.0447204 6.3728814,-2.8719664 9.788882,3.0447202 z"
       transform="translate(38.915254,9.6949153)"
       id="path3004"
       style="fill:#000000;fill-opacity:1;stroke:#ffffff;stroke-width:12.20353222;stroke-miterlimit:4;stroke-opacity:1;stroke-dasharray:none" />
    <rect
       width="25.120268"
       height="2.1093357"
       rx="0"
       ry="2.1093357"
       x="32"
       y="26.772079"
       id="rect3006"
       style="fill:#ffffff;fill-opacity:1;stroke:#ffffff;stroke-width:12.20353222;stroke-miterlimit:4;stroke-opacity:1;stroke-dasharray:none" />
    <rect
       width="25.120268"
       height="2.1093357"
       rx="0"
       ry="2.1093357"
       x="32"
       y="33.887665"
       id="rect3008"
       style="fill:#ffffff;fill-opacity:1;stroke:#ffffff;stroke-width:12.20353222;stroke-miterlimit:4;stroke-opacity:1;stroke-dasharray:none" />
    <rect
       width="25.120268"
       height="2.1093357"
       rx="0"
       ry="2.1093357"
       x="32"
       y="40.674515"
       id="rect3010"
       style="fill:#ffffff;fill-opacity:1;stroke:#ffffff;stroke-width:12.20353222;stroke-miterlimit:4;stroke-opacity:1;stroke-dasharray:none" />
    <path
       inkscape:connector-curvature="0"
       d="m 28.763665,32.935242 a 10.546678,10.546678 0 1 1 -21.093355,0 10.546678,10.546678 0 1 1 21.093355,0 z"
       transform="translate(-1.3423044,1.6989067)"
       id="path3012"
       style="fill:#ffffff;fill-opacity:1;stroke:#ffffff;stroke-width:12.20353222;stroke-miterlimit:4;stroke-opacity:1;stroke-dasharray:none" />
    <g
       transform="translate(1.9175777,-3.4785531)"
       id="g3014"
       style="font-size:20px;font-style:normal;font-weight:normal;line-height:125%;letter-spacing:0px;word-spacing:0px;fill:#000000;fill-opacity:1;stroke:#ffffff;stroke-width:12.20353222;stroke-miterlimit:4;stroke-opacity:1;stroke-dasharray:none;font-family:Sans">
      <path
         inkscape:connector-curvature="0"
         d="m 14.77,33.513503 c -0.480004,1.2e-5 -0.933336,0.06001 -1.36,0.18 -0.426669,0.120011 -0.900002,0.313345 -1.42,0.58 l -0.84,-2.26 c 0.519999,-0.33332 1.133332,-0.586653 1.84,-0.76 0.706664,-0.186653 1.399996,-0.279986 2.08,-0.28 0.853328,1.4e-5 1.553327,0.113347 2.1,0.34 0.559993,0.22668 0.999993,0.513347 1.32,0.86 0.319992,0.346679 0.539992,0.726679 0.66,1.14 0.133325,0.413345 0.199991,0.806678 0.2,1.18 -9e-6,0.373344 -0.06001,0.72001 -0.18,1.04 -0.106675,0.306676 -0.246675,0.593342 -0.42,0.86 -0.173341,0.266675 -0.373341,0.520008 -0.6,0.76 -0.226674,0.240008 -0.446674,0.466674 -0.66,0.68 -0.160007,0.160007 -0.326673,0.33334 -0.5,0.52 -0.173339,0.17334 -0.333339,0.360006 -0.48,0.56 -0.133339,0.200006 -0.246672,0.413339 -0.34,0.64 -0.09334,0.213339 -0.140005,0.433339 -0.14,0.66 -5e-6,0.05334 -5e-6,0.133338 0,0.24 -5e-6,0.106671 0.0067,0.200005 0.02,0.28 l -2.64,0 c -0.02667,-0.133329 -0.04667,-0.279995 -0.06,-0.44 -3e-6,-0.173328 -3e-6,-0.319995 0,-0.44 -3e-6,-0.373328 0.04666,-0.706661 0.14,-1 0.09333,-0.30666 0.21333,-0.58666 0.36,-0.84 0.159997,-0.266659 0.339997,-0.513326 0.54,-0.74 0.199996,-0.226659 0.406663,-0.446658 0.62,-0.66 0.306662,-0.306658 0.586662,-0.606657 0.84,-0.9 0.253328,-0.306657 0.379995,-0.653323 0.38,-1.04 -5e-6,-0.319989 -0.126672,-0.593322 -0.38,-0.82 -0.240005,-0.226655 -0.600004,-0.339988 -1.08,-0.34 m 1.86,10.06 c -6e-6,0.586668 -0.193339,1.040001 -0.58,1.36 -0.373338,0.32 -0.800004,0.48 -1.28,0.48 -0.480004,0 -0.913336,-0.16 -1.3,-0.48 -0.373336,-0.319999 -0.560002,-0.773332 -0.56,-1.36 -2e-6,-0.586664 0.186664,-1.039997 0.56,-1.36 0.386664,-0.319997 0.819996,-0.479997 1.3,-0.48 0.479996,3e-6 0.906662,0.160003 1.28,0.48 0.386661,0.320003 0.579994,0.773336 0.58,1.36"
         id="path3016"
         style="font-variant:normal;font-weight:bold;font-stretch:normal;stroke:#ffffff;stroke-width:12.20353222;stroke-miterlimit:4;stroke-opacity:1;stroke-dasharray:none;font-family:Ubuntu;-inkscape-font-specification:Ubuntu Bold" />
    </g>
  </g>
  <g
     id="g2990"
     transform="matrix(0.6555479,0,0,0.6555479,2.9333458,4.3152304)">
    <rect
       style="fill:#000000;fill-opacity:1;stroke:none"
       id="rect2989"
       y="16.20339"
       x="1.6271186"
       ry="4.3729005"
       rx="4.7457628"
       height="38.23164"
       width="61.016949" />
    <path
       style="fill:#000000;fill-opacity:1;stroke:none"
       id="path2995"
       transform="translate(38.915254,9.6949153)"
       d="m 13.204883,8.961407 -6.8320015,-10e-8 -6.83200137,0 L 2.9568807,3.0447204 6.3728814,-2.8719664 9.788882,3.0447202 z"
       inkscape:connector-curvature="0" />
    <rect
       style="fill:#ffffff;fill-opacity:1;stroke:none"
       id="rect2997"
       y="26.772079"
       x="32"
       ry="2.1093357"
       rx="0"
       height="2.1093357"
       width="25.120268" />
    <rect
       style="fill:#ffffff;fill-opacity:1;stroke:none"
       id="rect2997-5"
       y="33.887665"
       x="32"
       ry="2.1093357"
       rx="0"
       height="2.1093357"
       width="25.120268" />
    <rect
       style="fill:#ffffff;fill-opacity:1;stroke:none"
       id="rect2997-1"
       y="40.674515"
       x="32"
       ry="2.1093357"
       rx="0"
       height="2.1093357"
       width="25.120268" />
    <path
       style="fill:#ffffff;fill-opacity:1;stroke:none"
       id="path3792"
       transform="translate(-1.3423044,1.6989067)"
       d="m 28.763665,32.935242 a 10.546678,10.546678 0 1 1 -21.093355,0 10.546678,10.546678 0 1 1 21.093355,0 z"
       inkscape:connector-curvature="0" />
    <g
       style="font-size:20px;font-style:normal;font-weight:normal;line-height:125%;letter-spacing:0px;word-spacing:0px;fill:#000000;fill-opacity:1;stroke:none;font-family:Sans"
       id="flowRoot3794"
       transform="translate(1.9175777,-3.4785531)">
      <path
         style="font-variant:normal;font-weight:bold;font-stretch:normal;font-family:Ubuntu;-inkscape-font-specification:Ubuntu Bold"
         id="path3803"
         d="m 14.77,33.513503 c -0.480004,1.2e-5 -0.933336,0.06001 -1.36,0.18 -0.426669,0.120011 -0.900002,0.313345 -1.42,0.58 l -0.84,-2.26 c 0.519999,-0.33332 1.133332,-0.586653 1.84,-0.76 0.706664,-0.186653 1.399996,-0.279986 2.08,-0.28 0.853328,1.4e-5 1.553327,0.113347 2.1,0.34 0.559993,0.22668 0.999993,0.513347 1.32,0.86 0.319992,0.346679 0.539992,0.726679 0.66,1.14 0.133325,0.413345 0.199991,0.806678 0.2,1.18 -9e-6,0.373344 -0.06001,0.72001 -0.18,1.04 -0.106675,0.306676 -0.246675,0.593342 -0.42,0.86 -0.173341,0.266675 -0.373341,0.520008 -0.6,0.76 -0.226674,0.240008 -0.446674,0.466674 -0.66,0.68 -0.160007,0.160007 -0.326673,0.33334 -0.5,0.52 -0.173339,0.17334 -0.333339,0.360006 -0.48,0.56 -0.133339,0.200006 -0.246672,0.413339 -0.34,0.64 -0.09334,0.213339 -0.140005,0.433339 -0.14,0.66 -5e-6,0.05334 -5e-6,0.133338 0,0.24 -5e-6,0.106671 0.0067,0.200005 0.02,0.28 l -2.64,0 c -0.02667,-0.133329 -0.04667,-0.279995 -0.06,-0.44 -3e-6,-0.173328 -3e-6,-0.319995 0,-0.44 -3e-6,-0.373328 0.04666,-0.706661 0.14,-1 0.09333,-0.30666 0.21333,-0.58666 0.36,-0.84 0.159997,-0.266659 0.339997,-0.513326 0.54,-0.74 0.199996,-0.226659 0.406663,-0.446658 0.62,-0.66 0.306662,-0.306658 0.586662,-0.606657 0.84,-0.9 0.253328,-0.306657 0.379995,-0.653323 0.38,-1.04 -5e-6,-0.319989 -0.126672,-0.593322 -0.38,-0.82 -0.240005,-0.226655 -0.600004,-0.339988 -1.08,-0.34 m 1.86,10.06 c -6e-6,0.586668 -0.193339,1.040001 -0.58,1.36 -0.373338,0.32 -0.800004,0.48 -1.28,0.48 -0.480004,0 -0.913336,-0.16 -1.3,-0.48 -0.373336,-0.319999 -0.560002,-0.773332 -0.56,-1.36 -2e-6,-0.586664 0.186664,-1.039997 0.56,-1.36 0.386664,-0.319997 0.819996,-0.479997 1.3,-0.48 0.479996,3e-6 0.906662,0.160003 1.28,0.48 0.386661,0.320003 0.579994,0.773336 0.58,1.36"
         inkscape:connector-curvature="0" />
    </g>
  </g>
</svg>
