<?xml version="1.0" encoding="UTF-8" standalone="no"?>
<!-- Created with Inkscape (http://www.inkscape.org/) -->

<svg
   xmlns:dc="http://purl.org/dc/elements/1.1/"
   xmlns:cc="http://creativecommons.org/ns#"
   xmlns:rdf="http://www.w3.org/1999/02/22-rdf-syntax-ns#"
   xmlns:svg="http://www.w3.org/2000/svg"
   xmlns="http://www.w3.org/2000/svg"
   xmlns:xlink="http://www.w3.org/1999/xlink"
   xmlns:sodipodi="http://sodipodi.sourceforge.net/DTD/sodipodi-0.dtd"
   xmlns:inkscape="http://www.inkscape.org/namespaces/inkscape"
   width="48px"
   height="48px"
   id="svg1325"
   sodipodi:version="0.32"
   inkscape:version="0.91 r13725"
   sodipodi:docname="xfce4-panel.svg"
   inkscape:output_extension="org.inkscape.output.svg.inkscape"
   version="1.1">
  <sodipodi:namedview
     inkscape:window-height="1029"
     inkscape:window-width="1920"
     inkscape:pageshadow="2"
     inkscape:pageopacity="0.0"
     guidetolerance="10000"
     gridtolerance="10000"
     objecttolerance="10000"
     borderopacity="1.0"
     bordercolor="#666666"
     pagecolor="#ffffff"
     id="base"
     inkscape:showpageshadow="false"
     showgrid="true"
     inkscape:zoom="11.313709"
     inkscape:cx="32.067917"
     inkscape:cy="15.109664"
     inkscape:window-x="0"
     inkscape:window-y="0"
     inkscape:current-layer="g4266"
     inkscape:grid-points="false"
     inkscape:grid-bbox="true"
     showborder="true"
     inkscape:window-maximized="1" />
  <defs
     id="defs1327">
    <linearGradient
       id="linearGradient2783">
      <stop
         style="stop-color:#729fcf;stop-opacity:1"
         offset="0"
         id="stop2785" />
      <stop
         style="stop-color:#3465a4;stop-opacity:1;"
         offset="1"
         id="stop2787" />
    </linearGradient>
    <linearGradient
       inkscape:collect="always"
       id="linearGradient2270">
      <stop
         style="stop-color:#ffffff;stop-opacity:1;"
         offset="0"
         id="stop2272" />
      <stop
         style="stop-color:#ffffff;stop-opacity:0;"
         offset="1"
         id="stop2274" />
    </linearGradient>
    <linearGradient
       inkscape:collect="always"
       xlink:href="#linearGradient2270"
       id="linearGradient1341"
       gradientUnits="userSpaceOnUse"
       x1="23.99696"
       y1="18.375"
       x2="45.753761"
       y2="18.375"
       gradientTransform="translate(0,-8)" />
    <radialGradient
       inkscape:collect="always"
       xlink:href="#linearGradient2270"
       id="radialGradient2218"
       cx="3.6239223"
       cy="2.0049825"
       fx="3.6239223"
       fy="2.0049825"
       r="23"
       gradientTransform="matrix(1.246687e-8,1.125998,-1.627297,3.116107e-17,6.886624,6.5312)"
       gradientUnits="userSpaceOnUse" />
  </defs>
  <sodipodi:namedview
     id="namedview22"
     pagecolor="#ffffff"
     bordercolor="#666666"
     borderopacity="1.0"
     inkscape:pageopacity="0"
     inkscape:pageshadow="2"
     inkscape:zoom="1"
     inkscape:cx="29.202731"
     inkscape:cy="14.650528"
     inkscape:current-layer="layer1"
     showgrid="false"
     inkscape:grid-bbox="true"
     inkscape:document-units="px"
     stroke="#eeeeec"
     fill="#2e3436"
     inkscape:window-width="1270"
     inkscape:window-height="943"
     inkscape:window-x="0"
     inkscape:window-y="25"
     showborder="false"
     inkscape:grid-points="true"
     showguides="false"
     inkscape:guide-bbox="true"
     inkscape:showpageshadow="false">
    <sodipodi:guide
       orientation="vertical"
       position="31.875"
       id="guide2260" />
    <inkscape:grid
       id="GridFromPre046Settings"
       type="xygrid"
       originx="0px"
       originy="0px"
       spacingx="0.5px"
       spacingy="0.5px"
       color="#3f3fff"
       empcolor="#3f3fff"
       opacity="0.15"
       empopacity="0.38"
       empspacing="2" />
  </sodipodi:namedview>
  <metadata
     id="metadata1330">
    <rdf:RDF>
      <cc:Work
         rdf:about="">
        <dc:format>image/svg+xml</dc:format>
        <dc:type
           rdf:resource="http://purl.org/dc/dcmitype/StillImage" />
        <dc:title></dc:title>
        <dc:creator>
          <cc:Agent>
            <dc:title>Lapo Calamandrei</dc:title>
          </cc:Agent>
        </dc:creator>
        <dc:subject>
          <rdf:Bag>
            <rdf:li>panel</rdf:li>
            <rdf:li>applet</rdf:li>
            <rdf:li>info</rdf:li>
          </rdf:Bag>
        </dc:subject>
        <dc:contributor>
          <cc:Agent>
            <dc:title>Andreas Nilsson</dc:title>
          </cc:Agent>
        </dc:contributor>
        <cc:license
           rdf:resource="http://creativecommons.org/licenses/GPL/2.0/" />
      </cc:Work>
      <cc:License
         rdf:about="http://creativecommons.org/licenses/GPL/2.0/">
        <cc:permits
           rdf:resource="http://web.resource.org/cc/Reproduction" />
        <cc:permits
           rdf:resource="http://web.resource.org/cc/Distribution" />
        <cc:requires
           rdf:resource="http://web.resource.org/cc/Notice" />
        <cc:permits
           rdf:resource="http://web.resource.org/cc/DerivativeWorks" />
        <cc:requires
           rdf:resource="http://web.resource.org/cc/ShareAlike" />
        <cc:requires
           rdf:resource="http://web.resource.org/cc/SourceCode" />
      </cc:License>
    </rdf:RDF>
  </metadata>
  <g
     id="layer1"
     inkscape:label="Layer 1"
     inkscape:groupmode="layer">
    <g
       id="g4188">
      <path
         inkscape:connector-curvature="0"
         id="path4173"
         d="M 6.6477432,8.863648 C 5.7107337,8.951959 4.9959586,9.740676 5.0000168,10.681829 l 0,26.363628 c 1.004e-4,1.004112 0.8140691,1.818081 1.8181814,1.818181 l 46.3636188,0 c 1.004113,-1e-4 1.818082,-0.814069 1.818182,-1.818181 l 0,-26.363628 c -1e-4,-1.004112 -0.814069,-1.8180806 -1.818182,-1.818181 l -46.3636188,0 c -0.05679,-0.00266 -0.113668,-0.00266 -0.170455,0 l 0,0 z m 1.988636,3.636362 42.7272568,0 0,22.727265 -42.7272568,0 0,-22.727265 z"
         style="stroke-width:9;stroke-miterlimit:4;stroke-dasharray:none;stroke:#ffffff;stroke-opacity:1;fill:#000000;fill-opacity:1;stroke-linejoin:round;stroke-linecap:round" />
      <rect
         style="fill:#ffffff;fill-opacity:1;stroke:#ffffff;stroke-width:9;stroke-miterlimit:4;stroke-dasharray:none;stroke-opacity:1;stroke-linejoin:round;stroke-linecap:round"
         id="rect4171"
         width="46.138718"
         height="25.809397"
         x="5.833631"
         y="11.230448" />
    </g>
    <rect
       style="fill:#ffffff;fill-opacity:1;stroke:none"
       id="rect2999"
       width="46.138718"
       height="25.809397"
       x="5.833631"
       y="11.230448" />
    <g
       id="g2994"
       style="stroke-width:2;stroke-miterlimit:4;stroke-dasharray:none;stroke:#000000;stroke-opacity:1">
      <path
         inkscape:connector-curvature="0"
         id="rect1333"
         d="M 6.6477432,8.863648 C 5.7107337,8.951959 4.9959586,9.740676 5.0000168,10.681829 l 0,26.363628 c 1.004e-4,1.004112 0.8140691,1.818081 1.8181814,1.818181 l 46.3636188,0 c 1.004113,-1e-4 1.818082,-0.814069 1.818182,-1.818181 l 0,-26.363628 c -1e-4,-1.004112 -0.814069,-1.8180806 -1.818182,-1.818181 l -46.3636188,0 c -0.05679,-0.00266 -0.113668,-0.00266 -0.170455,0 l 0,0 z m 1.988636,3.636362 42.7272568,0 0,22.727265 -42.7272568,0 0,-22.727265 z"
         style="fill:#000000;fill-opacity:1;stroke:#000000;stroke-width:2;stroke-miterlimit:4;stroke-dasharray:none;stroke-opacity:1" />
    </g>
    <g
       transform="matrix(0.51802162,0,0,0.51802162,-204.81484,-241.56624)"
       id="layer1-3">
      <g
         transform="matrix(1.0631936,0,0,1.0631936,116.28057,369.03392)"
         id="g3411">
        <path
           inkscape:connector-curvature="0"
           d="m 317.375,43.625 a 8.5,8.5 0 1 1 -17,0 8.5,8.5 0 1 1 17,0 z"
           transform="matrix(2.6557059,0,0,2.6557059,-498.88457,32.96933)"
           id="path3394"
           style="fill:#000000;fill-opacity:1;stroke:none" />
        <path
           inkscape:connector-curvature="0"
           d="m 327.875,134.46875 c -0.0423,0.006 -0.0906,0.0246 -0.15625,0.0625 -0.13134,0.0759 -0.1966,0.1638 -0.25,0.25 -0.88876,1.49705 -0.87935,3.31535 -1.21875,4.75 a 0.46686966,0.4668906 0 0 0 0,0.0625 c -0.16213,1.59267 -0.81704,3.41886 -0.28125,5.25 a 0.46686966,0.4668906 0 0 0 0.0625,0.0625 0.46686966,0.4668906 0 0 0 0,0.0625 c 0.14776,0.25836 0.37698,0.47375 0.65625,0.53125 0.27929,0.0566 0.4987,-0.0874 0.6875,-0.21875 0.33755,-0.23497 0.52915,-0.59675 0.59375,-1 l 0.0625,0 0,-0.125 c 0.70119,-2.76466 1.22026,-5.68852 1.03125,-8.59375 a 0.46686966,0.4668906 0 0 0 0,-0.0625 c -0.0431,-0.25816 -0.15611,-0.46746 -0.3125,-0.65625 -0.15596,-0.18778 -0.33562,-0.3976 -0.71875,-0.375 a 0.46686966,0.4668906 0 0 0 -0.0625,0 c -0.0215,0.002 -0.0514,-0.006 -0.0937,0 z m 6.75,1.65625 c -1.5253,0.68255 -2.13598,2.36499 -2.9375,3.40625 a 0.40558247,0.40560067 0 0 0 0,0.0625 c -1.00346,1.77839 -2.42049,3.66582 -2.5625,5.96875 0,0.56455 0.38922,0.99525 0.84375,1.09375 0.42785,0.0923 0.9526,-0.10605 1.21875,-0.53125 0.0205,-0.0226 -0.0164,-0.0379 0,-0.0625 1.90001,-2.61075 3.30708,-5.69397 4.46875,-8.65625 0.11697,-0.2832 0.13954,-0.55768 0,-0.84375 -0.13955,-0.28689 -0.54346,-0.4826 -0.90625,-0.4375 a 0.40558247,0.40560067 0 0 0 -0.0625,0 l -0.0625,0 z m -17.84375,1 c -0.0984,-0.002 -0.18593,0.0138 -0.28125,0.0312 -0.18879,0.0351 -0.45574,0.172 -0.65625,0.25 -0.70917,0.26904 -1.11195,0.8835 -1.28125,1.59375 -0.17239,0.72667 -0.11493,1.54778 0,2.375 0.11491,0.82558 0.25835,1.66237 0.4375,2.3125 0.15401,0.56249 0.29055,0.84451 0.34375,1.03125 l 0,0.125 c 0,0.0615 -0.0214,0.0757 -0.0625,0.125 -0.0226,0.0123 0.0226,0.0625 0,0.0625 -0.0511,0.039 -0.15515,0.0625 -0.21875,0.0625 -0.12529,0.008 -0.18301,-0.0297 -0.3125,-0.0625 -0.0883,-0.0205 -0.2142,-0.083 -0.1875,-0.0625 -0.0411,-0.0246 -0.0983,-0.0194 -0.125,-0.0625 0,0.0164 0.0247,-0.0112 0,-0.0625 -0.0288,-0.0534 -0.0799,-0.1556 -0.125,-0.25 -0.10056,-0.21384 -0.1746,-0.46686 -0.3125,-0.78125 -0.27518,-0.62611 -0.63767,-1.40388 -1.03125,-2.125 -0.39503,-0.724 -0.82848,-1.39063 -1.34375,-1.84375 -0.25753,-0.22635 -0.59989,-0.4241 -0.90625,-0.5 -0.2957,-0.0739 -0.66301,-0.0269 -0.96875,0.125 -0.79005,0.43834 -1.23264,1.15762 -1.40625,1.90625 -0.17446,0.76012 -0.0647,1.612 0.0625,2.375 0.12928,0.76135 0.30842,1.422 0.4375,1.9375 0.0554,0.21732 0.13785,0.39123 0.15625,0.5 0,0.10774 -0.067,0.42659 -0.0937,0.53125 -0.13338,0.46194 -0.43675,1.21875 -0.4375,1.21875 0,0 -6.14642,16.33219 7.0625,15.1875 0.10876,-0.008 0.3349,-0.0625 0.4375,-0.0625 2.59402,-0.52227 5.06806,-1.30733 7.25,-2.1875 0.42867,-0.20542 0.96231,-0.39158 1.59375,-0.6875 1.26283,-0.59164 2.85072,-1.35043 4.375,-2.1875 1.52489,-0.83769 2.95002,-1.73715 4.03125,-2.6875 1.08309,-0.95179 1.89529,-1.99265 1.75,-3.03125 -0.22984,-1.67435 -1.3638,-2.94503 -2.84375,-3.90625 -1.48549,-0.96472 -3.34044,-1.63926 -5.1875,-2.125 -1.84625,-0.48554 -3.63045,-0.88073 -5,-1.09375 -0.68456,-0.1067 -1.31654,-0.1136 -1.71875,-0.1875 -0.11901,-0.0205 -0.21695,-0.042 -0.28125,-0.0625 -0.0347,-0.004 -0.0297,-0.042 -0.0625,-0.0625 -0.0411,-0.0246 -0.1003,-0.0194 -0.125,-0.0625 -0.0226,-0.041 0,-0.0778 0,-0.125 0,-0.0184 -1.9e-4,-0.0379 0,-0.0625 l 0,-1.03125 c -0.0226,-0.84426 -0.0754,-1.96079 -0.25,-3 -0.17649,-1.04352 -0.45708,-2.04441 -1.03125,-2.71875 -0.34126,-0.4012 -0.81976,-0.6465 -1.40625,-0.6875 -0.0882,-0.0102 -0.18285,-0.0294 -0.28125,-0.0312 z"
           id="path3396"
           style="fill:#ffffff;fill-opacity:1;stroke:none" />
      </g>
    </g>
    <g
       id="g4266">
      <rect
         style="opacity:1;fill:#ffffff;fill-opacity:1;stroke:#ffffff;stroke-width:6;stroke-linecap:round;stroke-linejoin:round;stroke-miterlimit:4;stroke-dasharray:none;stroke-opacity:1"
         id="rect4313"
         width="42.24963"
         height="22.008698"
         x="8.0433397"
         y="12.379497" />
      <g
         id="g4286"
         style="stroke:#ffffff;stroke-opacity:1;stroke-width:8;stroke-miterlimit:4;stroke-dasharray:none;stroke-linejoin:round;stroke-linecap:round;fill:#ffffff">
        <g
           id="g4274"
           style="stroke-width:8;stroke-miterlimit:4;stroke-dasharray:none;stroke:#ffffff;stroke-opacity:1;stroke-linejoin:round;stroke-linecap:round;fill:#ffffff">
          <path
             inkscape:connector-curvature="0"
             id="path4276"
             d="M 6.6477432,8.863648 C 5.7107337,8.951959 4.9959586,9.740676 5.0000168,10.681829 l 0,26.363628 c 1.004e-4,1.004112 0.8140691,1.818081 1.8181814,1.818181 l 46.3636188,0 c 1.004113,-1e-4 1.818082,-0.814069 1.818182,-1.818181 l 0,-26.363628 c -1e-4,-1.004112 -0.814069,-1.8180806 -1.818182,-1.818181 l -46.3636188,0 c -0.05679,-0.00266 -0.113668,-0.00266 -0.170455,0 l 0,0 z m 1.988636,3.636362 42.7272568,0 0,22.727265 -42.7272568,0 0,-22.727265 z"
             style="fill:#ffffff;fill-opacity:1;stroke:#ffffff;stroke-width:8;stroke-miterlimit:4;stroke-dasharray:none;stroke-opacity:1;stroke-linejoin:round;stroke-linecap:round" />
        </g>
        <g
           transform="matrix(0.51802162,0,0,0.51802162,-204.81484,-241.56624)"
           id="g4278"
           style="stroke:#ffffff;stroke-opacity:1;stroke-width:11.58252816;stroke-miterlimit:4;stroke-dasharray:none;stroke-linejoin:round;stroke-linecap:round;fill:#ffffff">
          <g
             transform="matrix(1.0631936,0,0,1.0631936,116.28057,369.03392)"
             id="g4280"
             style="stroke:#ffffff;stroke-opacity:1;stroke-width:10.89409131;stroke-miterlimit:4;stroke-dasharray:none;stroke-linejoin:round;stroke-linecap:round;fill:#ffffff">
            <path
               inkscape:connector-curvature="0"
               d="m 317.375,43.625 a 8.5,8.5 0 1 1 -17,0 8.5,8.5 0 1 1 17,0 z"
               transform="matrix(2.6557059,0,0,2.6557059,-498.88457,32.96933)"
               id="path4282"
               style="fill:#ffffff;fill-opacity:1;stroke:#ffffff;stroke-opacity:1;stroke-width:4.10214524;stroke-miterlimit:4;stroke-dasharray:none;stroke-linejoin:round;stroke-linecap:round" />
            <path
               inkscape:connector-curvature="0"
               d="m 327.875,134.46875 c -0.0423,0.006 -0.0906,0.0246 -0.15625,0.0625 -0.13134,0.0759 -0.1966,0.1638 -0.25,0.25 -0.88876,1.49705 -0.87935,3.31535 -1.21875,4.75 a 0.46686966,0.4668906 0 0 0 0,0.0625 c -0.16213,1.59267 -0.81704,3.41886 -0.28125,5.25 a 0.46686966,0.4668906 0 0 0 0.0625,0.0625 0.46686966,0.4668906 0 0 0 0,0.0625 c 0.14776,0.25836 0.37698,0.47375 0.65625,0.53125 0.27929,0.0566 0.4987,-0.0874 0.6875,-0.21875 0.33755,-0.23497 0.52915,-0.59675 0.59375,-1 l 0.0625,0 0,-0.125 c 0.70119,-2.76466 1.22026,-5.68852 1.03125,-8.59375 a 0.46686966,0.4668906 0 0 0 0,-0.0625 c -0.0431,-0.25816 -0.15611,-0.46746 -0.3125,-0.65625 -0.15596,-0.18778 -0.33562,-0.3976 -0.71875,-0.375 a 0.46686966,0.4668906 0 0 0 -0.0625,0 c -0.0215,0.002 -0.0514,-0.006 -0.0937,0 z m 6.75,1.65625 c -1.5253,0.68255 -2.13598,2.36499 -2.9375,3.40625 a 0.40558247,0.40560067 0 0 0 0,0.0625 c -1.00346,1.77839 -2.42049,3.66582 -2.5625,5.96875 0,0.56455 0.38922,0.99525 0.84375,1.09375 0.42785,0.0923 0.9526,-0.10605 1.21875,-0.53125 0.0205,-0.0226 -0.0164,-0.0379 0,-0.0625 1.90001,-2.61075 3.30708,-5.69397 4.46875,-8.65625 0.11697,-0.2832 0.13954,-0.55768 0,-0.84375 -0.13955,-0.28689 -0.54346,-0.4826 -0.90625,-0.4375 a 0.40558247,0.40560067 0 0 0 -0.0625,0 l -0.0625,0 z m -17.84375,1 c -0.0984,-0.002 -0.18593,0.0138 -0.28125,0.0312 -0.18879,0.0351 -0.45574,0.172 -0.65625,0.25 -0.70917,0.26904 -1.11195,0.8835 -1.28125,1.59375 -0.17239,0.72667 -0.11493,1.54778 0,2.375 0.11491,0.82558 0.25835,1.66237 0.4375,2.3125 0.15401,0.56249 0.29055,0.84451 0.34375,1.03125 l 0,0.125 c 0,0.0615 -0.0214,0.0757 -0.0625,0.125 -0.0226,0.0123 0.0226,0.0625 0,0.0625 -0.0511,0.039 -0.15515,0.0625 -0.21875,0.0625 -0.12529,0.008 -0.18301,-0.0297 -0.3125,-0.0625 -0.0883,-0.0205 -0.2142,-0.083 -0.1875,-0.0625 -0.0411,-0.0246 -0.0983,-0.0194 -0.125,-0.0625 0,0.0164 0.0247,-0.0112 0,-0.0625 -0.0288,-0.0534 -0.0799,-0.1556 -0.125,-0.25 -0.10056,-0.21384 -0.1746,-0.46686 -0.3125,-0.78125 -0.27518,-0.62611 -0.63767,-1.40388 -1.03125,-2.125 -0.39503,-0.724 -0.82848,-1.39063 -1.34375,-1.84375 -0.25753,-0.22635 -0.59989,-0.4241 -0.90625,-0.5 -0.2957,-0.0739 -0.66301,-0.0269 -0.96875,0.125 -0.79005,0.43834 -1.23264,1.15762 -1.40625,1.90625 -0.17446,0.76012 -0.0647,1.612 0.0625,2.375 0.12928,0.76135 0.30842,1.422 0.4375,1.9375 0.0554,0.21732 0.13785,0.39123 0.15625,0.5 0,0.10774 -0.067,0.42659 -0.0937,0.53125 -0.13338,0.46194 -0.43675,1.21875 -0.4375,1.21875 0,0 -6.14642,16.33219 7.0625,15.1875 0.10876,-0.008 0.3349,-0.0625 0.4375,-0.0625 2.59402,-0.52227 5.06806,-1.30733 7.25,-2.1875 0.42867,-0.20542 0.96231,-0.39158 1.59375,-0.6875 1.26283,-0.59164 2.85072,-1.35043 4.375,-2.1875 1.52489,-0.83769 2.95002,-1.73715 4.03125,-2.6875 1.08309,-0.95179 1.89529,-1.99265 1.75,-3.03125 -0.22984,-1.67435 -1.3638,-2.94503 -2.84375,-3.90625 -1.48549,-0.96472 -3.34044,-1.63926 -5.1875,-2.125 -1.84625,-0.48554 -3.63045,-0.88073 -5,-1.09375 -0.68456,-0.1067 -1.31654,-0.1136 -1.71875,-0.1875 -0.11901,-0.0205 -0.21695,-0.042 -0.28125,-0.0625 -0.0347,-0.004 -0.0297,-0.042 -0.0625,-0.0625 -0.0411,-0.0246 -0.1003,-0.0194 -0.125,-0.0625 -0.0226,-0.041 0,-0.0778 0,-0.125 0,-0.0184 -1.9e-4,-0.0379 0,-0.0625 l 0,-1.03125 c -0.0226,-0.84426 -0.0754,-1.96079 -0.25,-3 -0.17649,-1.04352 -0.45708,-2.04441 -1.03125,-2.71875 -0.34126,-0.4012 -0.81976,-0.6465 -1.40625,-0.6875 -0.0882,-0.0102 -0.18285,-0.0294 -0.28125,-0.0312 z"
               id="path4284"
               style="fill:#ffffff;fill-opacity:1;stroke:#ffffff;stroke-opacity:1;stroke-width:10.89409131;stroke-miterlimit:4;stroke-dasharray:none;stroke-linejoin:round;stroke-linecap:round" />
          </g>
        </g>
      </g>
      <g
         id="g4254"
         style="stroke-width:2;stroke-miterlimit:4;stroke-dasharray:none;stroke:#000000;stroke-opacity:1">
        <path
           inkscape:connector-curvature="0"
           id="path4256"
           d="M 6.6477432,8.863648 C 5.7107337,8.951959 4.9959586,9.740676 5.0000168,10.681829 l 0,26.363628 c 1.004e-4,1.004112 0.8140691,1.818081 1.8181814,1.818181 l 46.3636188,0 c 1.004113,-1e-4 1.818082,-0.814069 1.818182,-1.818181 l 0,-26.363628 c -1e-4,-1.004112 -0.814069,-1.8180806 -1.818182,-1.818181 l -46.3636188,0 c -0.05679,-0.00266 -0.113668,-0.00266 -0.170455,0 l 0,0 z m 1.988636,3.636362 42.7272568,0 0,22.727265 -42.7272568,0 0,-22.727265 z"
           style="fill:#000000;fill-opacity:1;stroke:#000000;stroke-width:2;stroke-miterlimit:4;stroke-dasharray:none;stroke-opacity:1" />
      </g>
      <g
         transform="matrix(0.51802162,0,0,0.51802162,-204.81484,-241.56624)"
         id="g4258"
         style="stroke:none">
        <g
           transform="matrix(1.0631936,0,0,1.0631936,116.28057,369.03392)"
           id="g4260"
           style="stroke:none">
          <path
             inkscape:connector-curvature="0"
             d="m 317.375,43.625 a 8.5,8.5 0 1 1 -17,0 8.5,8.5 0 1 1 17,0 z"
             transform="matrix(2.6557059,0,0,2.6557059,-498.88457,32.96933)"
             id="path4262"
             style="fill:#000000;fill-opacity:1;stroke:none" />
          <path
             inkscape:connector-curvature="0"
             d="m 327.875,134.46875 c -0.0423,0.006 -0.0906,0.0246 -0.15625,0.0625 -0.13134,0.0759 -0.1966,0.1638 -0.25,0.25 -0.88876,1.49705 -0.87935,3.31535 -1.21875,4.75 a 0.46686966,0.4668906 0 0 0 0,0.0625 c -0.16213,1.59267 -0.81704,3.41886 -0.28125,5.25 a 0.46686966,0.4668906 0 0 0 0.0625,0.0625 0.46686966,0.4668906 0 0 0 0,0.0625 c 0.14776,0.25836 0.37698,0.47375 0.65625,0.53125 0.27929,0.0566 0.4987,-0.0874 0.6875,-0.21875 0.33755,-0.23497 0.52915,-0.59675 0.59375,-1 l 0.0625,0 0,-0.125 c 0.70119,-2.76466 1.22026,-5.68852 1.03125,-8.59375 a 0.46686966,0.4668906 0 0 0 0,-0.0625 c -0.0431,-0.25816 -0.15611,-0.46746 -0.3125,-0.65625 -0.15596,-0.18778 -0.33562,-0.3976 -0.71875,-0.375 a 0.46686966,0.4668906 0 0 0 -0.0625,0 c -0.0215,0.002 -0.0514,-0.006 -0.0937,0 z m 6.75,1.65625 c -1.5253,0.68255 -2.13598,2.36499 -2.9375,3.40625 a 0.40558247,0.40560067 0 0 0 0,0.0625 c -1.00346,1.77839 -2.42049,3.66582 -2.5625,5.96875 0,0.56455 0.38922,0.99525 0.84375,1.09375 0.42785,0.0923 0.9526,-0.10605 1.21875,-0.53125 0.0205,-0.0226 -0.0164,-0.0379 0,-0.0625 1.90001,-2.61075 3.30708,-5.69397 4.46875,-8.65625 0.11697,-0.2832 0.13954,-0.55768 0,-0.84375 -0.13955,-0.28689 -0.54346,-0.4826 -0.90625,-0.4375 a 0.40558247,0.40560067 0 0 0 -0.0625,0 l -0.0625,0 z m -17.84375,1 c -0.0984,-0.002 -0.18593,0.0138 -0.28125,0.0312 -0.18879,0.0351 -0.45574,0.172 -0.65625,0.25 -0.70917,0.26904 -1.11195,0.8835 -1.28125,1.59375 -0.17239,0.72667 -0.11493,1.54778 0,2.375 0.11491,0.82558 0.25835,1.66237 0.4375,2.3125 0.15401,0.56249 0.29055,0.84451 0.34375,1.03125 l 0,0.125 c 0,0.0615 -0.0214,0.0757 -0.0625,0.125 -0.0226,0.0123 0.0226,0.0625 0,0.0625 -0.0511,0.039 -0.15515,0.0625 -0.21875,0.0625 -0.12529,0.008 -0.18301,-0.0297 -0.3125,-0.0625 -0.0883,-0.0205 -0.2142,-0.083 -0.1875,-0.0625 -0.0411,-0.0246 -0.0983,-0.0194 -0.125,-0.0625 0,0.0164 0.0247,-0.0112 0,-0.0625 -0.0288,-0.0534 -0.0799,-0.1556 -0.125,-0.25 -0.10056,-0.21384 -0.1746,-0.46686 -0.3125,-0.78125 -0.27518,-0.62611 -0.63767,-1.40388 -1.03125,-2.125 -0.39503,-0.724 -0.82848,-1.39063 -1.34375,-1.84375 -0.25753,-0.22635 -0.59989,-0.4241 -0.90625,-0.5 -0.2957,-0.0739 -0.66301,-0.0269 -0.96875,0.125 -0.79005,0.43834 -1.23264,1.15762 -1.40625,1.90625 -0.17446,0.76012 -0.0647,1.612 0.0625,2.375 0.12928,0.76135 0.30842,1.422 0.4375,1.9375 0.0554,0.21732 0.13785,0.39123 0.15625,0.5 0,0.10774 -0.067,0.42659 -0.0937,0.53125 -0.13338,0.46194 -0.43675,1.21875 -0.4375,1.21875 0,0 -6.14642,16.33219 7.0625,15.1875 0.10876,-0.008 0.3349,-0.0625 0.4375,-0.0625 2.59402,-0.52227 5.06806,-1.30733 7.25,-2.1875 0.42867,-0.20542 0.96231,-0.39158 1.59375,-0.6875 1.26283,-0.59164 2.85072,-1.35043 4.375,-2.1875 1.52489,-0.83769 2.95002,-1.73715 4.03125,-2.6875 1.08309,-0.95179 1.89529,-1.99265 1.75,-3.03125 -0.22984,-1.67435 -1.3638,-2.94503 -2.84375,-3.90625 -1.48549,-0.96472 -3.34044,-1.63926 -5.1875,-2.125 -1.84625,-0.48554 -3.63045,-0.88073 -5,-1.09375 -0.68456,-0.1067 -1.31654,-0.1136 -1.71875,-0.1875 -0.11901,-0.0205 -0.21695,-0.042 -0.28125,-0.0625 -0.0347,-0.004 -0.0297,-0.042 -0.0625,-0.0625 -0.0411,-0.0246 -0.1003,-0.0194 -0.125,-0.0625 -0.0226,-0.041 0,-0.0778 0,-0.125 0,-0.0184 -1.9e-4,-0.0379 0,-0.0625 l 0,-1.03125 c -0.0226,-0.84426 -0.0754,-1.96079 -0.25,-3 -0.17649,-1.04352 -0.45708,-2.04441 -1.03125,-2.71875 -0.34126,-0.4012 -0.81976,-0.6465 -1.40625,-0.6875 -0.0882,-0.0102 -0.18285,-0.0294 -0.28125,-0.0312 z"
             id="path4264"
             style="fill:#ffffff;fill-opacity:1;stroke:none" />
        </g>
      </g>
    </g>
  </g>
</svg>
