<?xml version="1.0" encoding="UTF-8" standalone="no"?>
<!-- Generator: Adobe Illustrator 9.0, SVG Export Plug-In  -->

<svg
   xmlns:dc="http://purl.org/dc/elements/1.1/"
   xmlns:cc="http://creativecommons.org/ns#"
   xmlns:rdf="http://www.w3.org/1999/02/22-rdf-syntax-ns#"
   xmlns:svg="http://www.w3.org/2000/svg"
   xmlns="http://www.w3.org/2000/svg"
   xmlns:sodipodi="http://sodipodi.sourceforge.net/DTD/sodipodi-0.dtd"
   xmlns:inkscape="http://www.inkscape.org/namespaces/inkscape"
   width="48"
   height="48"
   viewBox="0 0 48 48"
   xml:space="preserve"
   id="svg2"
   sodipodi:version="0.32"
   inkscape:version="0.48.3.1 r9886"
   sodipodi:docname="help-contents.svg"
   inkscape:output_extension="org.inkscape.output.svg.inkscape"
   version="1.0"><metadata
   id="metadata35"><rdf:RDF><cc:Work
       rdf:about=""><dc:format>image/svg+xml</dc:format><dc:type
         rdf:resource="http://purl.org/dc/dcmitype/StillImage" /></cc:Work></rdf:RDF></metadata><defs
   id="defs33" /><sodipodi:namedview
   inkscape:window-height="717"
   inkscape:window-width="1366"
   inkscape:pageshadow="2"
   inkscape:pageopacity="0.0"
   guidetolerance="10.0"
   gridtolerance="10.0"
   objecttolerance="10.0"
   borderopacity="1.0"
   bordercolor="#666666"
   pagecolor="#ffffff"
   id="base"
   width="48px"
   height="48px"
   inkscape:zoom="6.7833333"
   inkscape:cx="-10.026413"
   inkscape:cy="24.103194"
   inkscape:window-x="0"
   inkscape:window-y="0"
   inkscape:current-layer="g2993"
   showgrid="false"
   inkscape:window-maximized="1" />
	<g
   id="Layer_x0020_4"
   style="fill-rule:nonzero;stroke:#000000;stroke-width:0.81389493;stroke-miterlimit:4;fill:#000000;fill-opacity:1"
   transform="matrix(1.2287002,0,0,1.2286195,-5.5002387,-5.4868675)">
		<g
   style="stroke:none;fill:#000000;fill-opacity:1"
   id="g5">
			
			
			
			
			
			
			
			
			
			
			
		<g
   id="g2993"
   transform="matrix(0.93967926,0,0,0.90101347,1.4457379,2.3673629)"><path
     sodipodi:type="arc"
     style="fill:none;stroke:#ffffff;stroke-width:5.61189938;stroke-miterlimit:4;stroke-opacity:1;stroke-dasharray:none"
     id="path3868"
     sodipodi:cx="24.692875"
     sodipodi:cy="26.771498"
     sodipodi:rx="8.6240788"
     sodipodi:ry="8.2555285"
     d="m 33.316954,26.771498 a 8.6240788,8.2555285 0 1 1 -17.248158,0 8.6240788,8.2555285 0 1 1 17.248158,0 z"
     transform="matrix(1.8089669,0,0,1.9708803,-20.654794,-28.755514)" /><path
     style="fill:#000000;fill-opacity:1;stroke:none"
     id="path21"
     d="m 9.3345927,31.217319 9.4431943,-5.24574 c 0.994021,1.781573 1.789237,2.573383 3.37967,3.365193 l -4.572496,9.60069 C 14.503498,37.749747 10.527416,33.889676 9.3345927,31.217319 z"
     inkscape:connector-curvature="0" /><path
     style="fill:#000000;fill-opacity:1;stroke:none"
     id="path23"
     d="m 31.501249,38.937462 -5.467113,-9.501715 c 1.88864,-0.989762 2.683857,-1.781571 3.479072,-3.464168 l 10.039607,4.651883 c -1.292227,3.06826 -5.268308,7.225262 -7.952164,8.412976 l -0.09941,-0.09898 z"
     inkscape:connector-curvature="0" /><path
     style="fill:#000000;fill-opacity:1;stroke:none"
     id="path25"
     d="M 38.857,16.964744 29.513208,22.30946 C 28.61859,20.428913 27.723972,19.736079 26.133538,18.94427 L 30.706033,9.1456256 C 33.688094,10.33334 37.664176,14.292389 38.857,16.964744 l 0,0 z"
     inkscape:connector-curvature="0" /><path
     style="fill:#000000;fill-opacity:1;stroke:none"
     id="path27"
     d="m 16.690344,9.2446018 5.467113,9.3037622 c -1.888639,0.989763 -2.683856,1.781573 -3.479072,3.365191 l -9.9402047,-4.45393 c 1.2922257,-3.06826 5.2683077,-7.027309 7.9521637,-8.2150232 z"
     inkscape:connector-curvature="0" /><path
     transform="matrix(0.62695754,0,0,0.68307397,8.5265799,6.0994304)"
     d="m 33.316954,26.771498 a 8.6240788,8.2555285 0 1 1 -17.248158,0 8.6240788,8.2555285 0 1 1 17.248158,0 z"
     sodipodi:ry="8.2555285"
     sodipodi:rx="8.6240788"
     sodipodi:cy="26.771498"
     sodipodi:cx="24.692875"
     id="path2988"
     style="fill:none;stroke:#000000;stroke-width:4;stroke-miterlimit:4;stroke-opacity:1;stroke-dasharray:none"
     sodipodi:type="arc" /><path
     transform="matrix(1.8089669,0,0,1.9708803,-20.654794,-28.755514)"
     d="m 33.316954,26.771498 a 8.6240788,8.2555285 0 1 1 -17.248158,0 8.6240788,8.2555285 0 1 1 17.248158,0 z"
     sodipodi:ry="8.2555285"
     sodipodi:rx="8.6240788"
     sodipodi:cy="26.771498"
     sodipodi:cx="24.692875"
     id="path2988-8"
     style="fill:none;stroke:#000000;stroke-width:1.71019626;stroke-miterlimit:4;stroke-opacity:1;stroke-dasharray:none"
     sodipodi:type="arc" /><path
     inkscape:connector-curvature="0"
     id="path2989"
     d="m 23.609599,9.2438038 c -2.038319,0.064516 -4.096623,0.5562163 -5.87371,1.5475922 -0.07544,0.683089 0.566802,1.268511 0.807573,1.883857 1.056427,1.768719 2.035007,3.63102 3.184017,5.323391 1.517916,-0.51869 3.202109,-0.423156 4.710893,0.0371 0.540087,-0.252294 0.645753,-1.006068 0.967891,-1.476778 0.87915,-1.890351 1.821684,-3.764362 2.583915,-5.697068 -0.304905,-0.611606 -1.175819,-0.68865 -1.749469,-0.9573819 -1.486185,-0.4954895 -3.064363,-0.7042014 -4.63111,-0.6607153 z"
     style="fill:#ffffff;fill-opacity:1;stroke:none" /><path
     inkscape:connector-curvature="0"
     id="path2991"
     d="m 10.967706,18.533064 c -0.63053,1.209058 -0.853717,2.630009 -0.9727392,3.989593 -0.1878093,2.55149 0.087149,5.170138 1.1180912,7.526416 0.478691,0.39318 1.031447,-0.35202 1.493712,-0.474479 1.663311,-1.001232 3.495609,-1.765274 5.0434,-2.928738 0.247546,-0.438301 -0.177646,-0.94782 -0.126717,-1.428832 -0.176962,-1.271201 0.147958,-2.540712 0.468947,-3.736214 -2.204039,-1.051031 -4.481229,-2.104281 -6.786168,-2.977437 -0.08098,-0.01364 -0.165826,-0.03631 -0.238526,0.02968 z"
     style="fill:#ffffff;fill-opacity:1;stroke:none" /><path
     inkscape:connector-curvature="0"
     id="path2993"
     d="m 26.721622,30.583493 c -1.600059,0.69117 -3.448542,0.672077 -5.102228,0.159584 -0.526605,0.222671 -0.622378,0.977956 -0.942922,1.406564 -0.844709,1.740853 -1.72245,3.476703 -2.459802,5.25884 0.598676,0.51054 1.502467,0.662966 2.258545,0.91668 3.27594,0.857395 6.937851,0.553172 9.876479,-1.176467 0.278342,-0.439934 -0.410257,-0.909139 -0.501429,-1.343371 -1.014424,-1.73931 -1.940038,-3.571422 -3.050377,-5.229253 l -0.07826,0.0074 z"
     style="fill:#ffffff;fill-opacity:1;stroke:none" /><path
     inkscape:connector-curvature="0"
     id="path2995"
     d="m 36.750908,17.991221 c -2.175268,1.239949 -4.349313,2.482022 -6.522204,3.726094 -0.213151,0.502141 0.288085,1.048806 0.223617,1.584704 0.119064,1.05998 0.07742,2.158532 -0.152805,3.180543 2.206767,1.031896 4.404453,2.135444 6.678736,3.006113 0.489951,-0.329731 0.448845,-1.108519 0.655947,-1.625529 0.824278,-3.239008 0.554534,-6.813561 -0.745395,-9.88306 l -0.118872,0.0096 -0.01902,0.0015 z"
     style="fill:#ffffff;fill-opacity:1;stroke:none" /></g></g>
	</g>
	
</svg>