<?xml version="1.0" encoding="UTF-8" standalone="no"?>
<!-- Created with Inkscape (http://www.inkscape.org/) -->

<svg
   xmlns:dc="http://purl.org/dc/elements/1.1/"
   xmlns:cc="http://creativecommons.org/ns#"
   xmlns:rdf="http://www.w3.org/1999/02/22-rdf-syntax-ns#"
   xmlns:svg="http://www.w3.org/2000/svg"
   xmlns="http://www.w3.org/2000/svg"
   xmlns:sodipodi="http://sodipodi.sourceforge.net/DTD/sodipodi-0.dtd"
   xmlns:inkscape="http://www.inkscape.org/namespaces/inkscape"
   version="1.1"
   width="48"
   height="48"
   id="svg2"
   inkscape:version="0.48.4 r9939"
   sodipodi:docname="xfce4-fsguard-plugin-warning.svg">
  <sodipodi:namedview
     pagecolor="#ffffff"
     bordercolor="#666666"
     borderopacity="1"
     objecttolerance="10"
     gridtolerance="10"
     guidetolerance="10"
     inkscape:pageopacity="0"
     inkscape:pageshadow="2"
     inkscape:window-width="1366"
     inkscape:window-height="718"
     id="namedview22"
     showgrid="false"
     inkscape:zoom="9.8333333"
     inkscape:cx="28.441558"
     inkscape:cy="16.759946"
     inkscape:window-x="0"
     inkscape:window-y="0"
     inkscape:window-maximized="1"
     inkscape:current-layer="g3782" />
  <defs
     id="defs11" />
  <metadata
     id="metadata7">
    <rdf:RDF>
      <cc:Work
         rdf:about="">
        <dc:format>image/svg+xml</dc:format>
        <dc:type
           rdf:resource="http://purl.org/dc/dcmitype/StillImage" />
        <cc:license
           rdf:resource="http://creativecommons.org/licenses/GPL/2.0/" />
        <dc:title />
        <dc:creator>
          <cc:Agent>
            <dc:title>Luca Ferretti &lt;elle.uca@libero.it&gt;</dc:title>
          </cc:Agent>
        </dc:creator>
        <dc:contributor>
          <cc:Agent>
            <dc:title>Shape based on exising PNG icon in gnome-icon-theme</dc:title>
          </cc:Agent>
        </dc:contributor>
        <dc:subject>
          <rdf:Bag>
            <rdf:li>hard disk</rdf:li>
          </rdf:Bag>
        </dc:subject>
      </cc:Work>
      <cc:License
         rdf:about="http://creativecommons.org/licenses/GPL/2.0/">
        <cc:permits
           rdf:resource="http://web.resource.org/cc/Reproduction" />
        <cc:permits
           rdf:resource="http://web.resource.org/cc/Distribution" />
        <cc:requires
           rdf:resource="http://web.resource.org/cc/Notice" />
        <cc:permits
           rdf:resource="http://web.resource.org/cc/DerivativeWorks" />
        <cc:requires
           rdf:resource="http://web.resource.org/cc/ShareAlike" />
        <cc:requires
           rdf:resource="http://web.resource.org/cc/SourceCode" />
      </cc:License>
    </rdf:RDF>
  </metadata>
  <g
     id="layer1">
    <rect
       width="48"
       height="48"
       rx="0"
       ry="0"
       x="0"
       y="0"
       id="rect6226"
       style="fill:none" />
    <path
       d="m 9,10 h 30 c 2.743,0 5,2.257 5,5 v 18 c 0,2.743 -2.257,5 -5,5 H 9 C 6.2571,38 4,35.743 4,33 V 15 c 0,-2.743 2.2571,-5 5,-5 z"
       id="path4040"
       style="fill:#ffffff;fill-rule:evenodd;stroke:#ffffff;stroke-width:8;stroke-miterlimit:4;stroke-dasharray:none" />
    <path
       d="m 9,10 h 30 c 2.743,0 5,2.257 5,5 v 18 c 0,2.743 -2.257,5 -5,5 H 9 C 6.2571,38 4,35.743 4,33 V 15 c 0,-2.743 2.2571,-5 5,-5 z"
       id="rect3311"
       style="fill-rule:evenodd" />
    <path
       d="m 11,14 h 26 c 2,0 3,1 3,3 v 14 c 0,2 -1,3 -3,3 H 11 C 9,34 8,33 8,31 V 17 c 0,-2 1,-3 3,-3 z"
       id="path4768"
       style="fill:#ffffff;fill-rule:evenodd" />
    <rect
       width="9"
       height="6"
       rx="2"
       ry="2"
       x="12"
       y="25"
       id="rect5498"
       style="fill-rule:evenodd" />
    <g
       transform="translate(-29.288136,6.5084746)"
       id="g3013">
      <g
         transform="matrix(0.98333342,0,0,0.98333342,37.766663,-3.9084774)"
         id="g3782"
         style="stroke:#ffffff;stroke-width:8.1355925;stroke-linecap:round;stroke-linejoin:round;stroke-miterlimit:1;stroke-opacity:1;stroke-dasharray:none">
        <path
           d="M 24.101695,20.949153 14.881357,37.220339 H 33.322035 L 24.101695,20.949153 z"
           id="path3784"
           style="fill:none;stroke:#ffffff;stroke-width:8.1355925;stroke-linecap:round;stroke-linejoin:round;stroke-miterlimit:1;stroke-opacity:1;stroke-dasharray:none" />
        <path
           d="M 24.101695,21.491526 15.42373,36.677966 H 32.779662 L 24.101695,21.491526 z"
           id="path3786"
           style="fill:#ffffff;stroke:#ffffff;stroke-width:10.16949063;stroke-linecap:round;stroke-linejoin:round;stroke-miterlimit:1;stroke-opacity:1;stroke-dasharray:none" />
        <path
           d="m 23.016949,31.79661 -0.542373,-5.966101 h 3.254238 l -0.542373,5.966101 h -2.169492 z"
           id="path3788"
           style="fill:#d30000;fill-opacity:1;stroke:#ffffff;stroke-width:8.1355925;stroke-linecap:round;stroke-linejoin:round;stroke-miterlimit:1;stroke-opacity:1;stroke-dasharray:none" />
        <path
           d="m 26.96875,32 a 2.96875,3.015625 0 1 1 -5.9375,0 2.96875,3.015625 0 1 1 5.9375,0 z"
           transform="matrix(0.54237288,0,0,0.54237288,11.067797,17.144082)"
           id="path3790"
           style="fill:#d30000;fill-opacity:1;fill-rule:evenodd;stroke:#ffffff;stroke-width:14.99999872;stroke-linecap:round;stroke-linejoin:round;stroke-miterlimit:1;stroke-opacity:1;stroke-dasharray:none" />
      </g>
      <g
         transform="matrix(0.98333342,0,0,0.98333342,37.766663,-3.9084774)"
         id="g2998">
        <path
           d="M 24.101695,20.949153 14.881357,37.220339 H 33.322035 L 24.101695,20.949153 z"
           id="path9"
           style="fill:none;stroke:#d30000;stroke-width:5.08474531;stroke-linecap:round;stroke-linejoin:round;stroke-opacity:1;stroke-miterlimit:4;stroke-dasharray:none" />
        <path
           d="M 24.101695,21.491526 15.42373,36.677966 H 32.779662 L 24.101695,21.491526 z"
           id="path11"
           style="fill:#ffffff" />
        <path
           d="m 23.125424,31.715255 -0.488136,-5.369491 h 2.928814 l -0.488136,5.369491 h -1.952542 z"
           id="path15"
           style="fill:#d30000;fill-opacity:1;stroke:none"
           inkscape:connector-curvature="0" />
        <path
           d="m 25.535594,34.148319 a 1.4491525,1.4720339 0 0 1 -2.898306,0 1.4491525,1.4720339 0 1 1 2.898306,0 z"
           id="path6965"
           style="fill:#d30000;fill-opacity:1;fill-rule:evenodd"
           inkscape:connector-curvature="0" />
      </g>
    </g>
  </g>
</svg>
