<?xml version="1.0" encoding="UTF-8" standalone="no"?>
<!-- Created with Sodipodi ("http://www.sodipodi.com/") -->

<svg
   xmlns:dc="http://purl.org/dc/elements/1.1/"
   xmlns:cc="http://creativecommons.org/ns#"
   xmlns:rdf="http://www.w3.org/1999/02/22-rdf-syntax-ns#"
   xmlns:svg="http://www.w3.org/2000/svg"
   xmlns="http://www.w3.org/2000/svg"
   xmlns:xlink="http://www.w3.org/1999/xlink"
   xmlns:sodipodi="http://sodipodi.sourceforge.net/DTD/sodipodi-0.dtd"
   xmlns:inkscape="http://www.inkscape.org/namespaces/inkscape"
   version="1.0"
   x="0"
   y="0"
   width="48"
   height="48"
   id="svg1"
   sodipodi:version="0.32"
   inkscape:version="0.48.3.1 r9886"
   sodipodi:docname="xmms.svg"
   inkscape:output_extension="org.inkscape.output.svg.inkscape">
  <metadata
     id="metadata11">
    <rdf:RDF>
      <cc:Work
         rdf:about="">
        <dc:format>image/svg+xml</dc:format>
        <dc:type
           rdf:resource="http://purl.org/dc/dcmitype/StillImage" />
      </cc:Work>
    </rdf:RDF>
  </metadata>
  <sodipodi:namedview
     id="base"
     pagecolor="#ffffff"
     bordercolor="#666666"
     borderopacity="1.0"
     inkscape:pageopacity="0.0"
     inkscape:pageshadow="2"
     inkscape:zoom="3.78125"
     inkscape:cx="-0.37529609"
     inkscape:cy="15.043258"
     inkscape:window-width="1366"
     inkscape:window-height="717"
     inkscape:window-x="0"
     inkscape:window-y="0"
     inkscape:current-layer="svg1"
     width="48px"
     height="48px"
     objecttolerance="10000"
     gridtolerance="10000"
     guidetolerance="10000"
     showgrid="true"
     inkscape:window-maximized="1" />
  <defs
     id="defs3">
    <linearGradient
       id="linearGradient575">
      <stop
         style="stop-color:#000000;stop-opacity:1;"
         offset="0"
         id="stop576" />
      <stop
         style="stop-color:#ffffff;stop-opacity:1;"
         offset="1"
         id="stop577" />
    </linearGradient>
    <linearGradient
       id="linearGradient578"
       xlink:href="#linearGradient575" />
  </defs>
  <path
     inkscape:connector-curvature="0"
     id="path2986"
     d="m 24.147943,5.0717534 c -8.417512,0 -15.2583476,7.2599556 -15.3796286,16.2549676 C 6.6010477,22.009391 5,24.10542 5,26.711382 l 0,10.500096 c 0,3.155682 2.3048625,5.721207 5.177602,5.721207 2.872746,0 5.208246,-2.565526 5.208246,-5.721207 l 0,-10.500096 c 0,-2.263103 -1.239324,-4.161586 -2.971762,-5.081775 -0.01593,-0.0543 -0.03064,-0.108767 -0.03064,-0.16827 0,-6.962548 5.287596,-12.6203195 11.825768,-12.6203195 6.538175,1e-6 11.856404,5.6577735 11.856404,12.6203195 0,0.01137 8.61e-4,0.02256 0,0.03366 -2.028815,0.772145 -3.52322,2.819488 -3.52322,5.317356 l 0,10.500094 c 0,3.155682 2.3355,5.687555 5.20824,5.687553 2.872739,0 5.1776,-2.531872 5.177603,-5.687553 l 0,-10.500094 c 0,-2.463348 -1.415864,-4.519528 -3.400674,-5.317356 C 39.493261,12.419798 32.619607,5.0717534 24.147943,5.0717534 z"
     style="fill:#000000;fill-opacity:1;fill-rule:nonzero;stroke:#ffffff;stroke-width:10;stroke-linecap:round;stroke-linejoin:round;stroke-miterlimit:4;stroke-opacity:1;stroke-dasharray:none;stroke-dashoffset:7.3625" />
  <path
     style="fill:#000000;fill-opacity:1;fill-rule:nonzero;stroke:#000000;stroke-width:2.07175708;stroke-linecap:round;stroke-linejoin:round;stroke-miterlimit:4;stroke-opacity:1;stroke-dasharray:none;stroke-dashoffset:7.3625"
     d="m 24.147943,5.0717534 c -8.417512,0 -15.2583476,7.2599556 -15.3796286,16.2549676 C 6.6010477,22.009391 5,24.10542 5,26.711382 l 0,10.500096 c 0,3.155682 2.3048625,5.721207 5.177602,5.721207 2.872746,0 5.208246,-2.565526 5.208246,-5.721207 l 0,-10.500096 c 0,-2.263103 -1.239324,-4.161586 -2.971762,-5.081775 -0.01593,-0.0543 -0.03064,-0.108767 -0.03064,-0.16827 0,-6.962548 5.287596,-12.6203195 11.825768,-12.6203195 6.538175,1e-6 11.856404,5.6577735 11.856404,12.6203195 0,0.01137 8.61e-4,0.02256 0,0.03366 -2.028815,0.772145 -3.52322,2.819488 -3.52322,5.317356 l 0,10.500094 c 0,3.155682 2.3355,5.687555 5.20824,5.687553 2.872739,0 5.1776,-2.531872 5.177603,-5.687553 l 0,-10.500094 c 0,-2.463348 -1.415864,-4.519528 -3.400674,-5.317356 C 39.493261,12.419798 32.619607,5.0717534 24.147943,5.0717534 z"
     id="rect1065"
     inkscape:connector-curvature="0" />
</svg>
