<?xml version="1.0" encoding="UTF-8" standalone="no"?>
<!-- Created with Inkscape (http://www.inkscape.org/) -->

<svg
   xmlns:dc="http://purl.org/dc/elements/1.1/"
   xmlns:cc="http://creativecommons.org/ns#"
   xmlns:rdf="http://www.w3.org/1999/02/22-rdf-syntax-ns#"
   xmlns:svg="http://www.w3.org/2000/svg"
   xmlns="http://www.w3.org/2000/svg"
   xmlns:sodipodi="http://sodipodi.sourceforge.net/DTD/sodipodi-0.dtd"
   xmlns:inkscape="http://www.inkscape.org/namespaces/inkscape"
   width="48"
   height="48"
   id="svg2"
   sodipodi:version="0.32"
   inkscape:version="0.48.3.1 r9886"
   sodipodi:docname="xmoto.svg"
   inkscape:output_extension="org.inkscape.output.svg.inkscape"
   version="1.0">
  <defs
     id="defs4" />
  <sodipodi:namedview
     id="base"
     pagecolor="#ffffff"
     bordercolor="#666666"
     borderopacity="1.0"
     inkscape:pageopacity="0.0"
     inkscape:pageshadow="2"
     inkscape:zoom="5.6568545"
     inkscape:cx="24.016935"
     inkscape:cy="15.795327"
     inkscape:document-units="px"
     inkscape:current-layer="layer1"
     showgrid="true"
     inkscape:grid-bbox="true"
     inkscape:grid-points="true"
     gridtolerance="10000"
     guidetolerance="10000"
     inkscape:guide-points="true"
     inkscape:window-width="1366"
     inkscape:window-height="717"
     inkscape:window-x="0"
     inkscape:window-y="0"
     showguides="true"
     inkscape:guide-bbox="true"
     objecttolerance="10000"
     width="48px"
     height="48px"
     gridanglex="37.5px"
     gridanglez="37.5px"
     grid_units="px"
     inkscape:window-maximized="1">
    <inkscape:grid
       id="GridFromPre046Settings"
       type="xygrid"
       originx="0.0000000pt"
       originy="0.0000000pt"
       spacingx="1px"
       spacingy="1px"
       color="#3f3fff"
       empcolor="#3f3fff"
       opacity="0.15"
       empopacity="0.38"
       empspacing="5" />
  </sodipodi:namedview>
  <metadata
     id="metadata7">
    <rdf:RDF>
      <cc:Work
         rdf:about="">
        <dc:format>image/svg+xml</dc:format>
        <dc:type
           rdf:resource="http://purl.org/dc/dcmitype/StillImage" />
        <cc:license
           rdf:resource="http://creativecommons.org/licenses/GPL/2.0/" />
        <dc:title>Calculator</dc:title>
        <dc:contributor>
          <cc:Agent>
            <dc:title>Design based on existing icon in HighContast GNOME icon theme.</dc:title>
          </cc:Agent>
        </dc:contributor>
        <dc:creator>
          <cc:Agent>
            <dc:title>Luca Ferretti &lt;elle.uca@infinito.it&gt;</dc:title>
          </cc:Agent>
        </dc:creator>
        <dc:description>A calculator.</dc:description>
      </cc:Work>
      <cc:License
         rdf:about="http://creativecommons.org/licenses/GPL/2.0/">
        <cc:permits
           rdf:resource="http://web.resource.org/cc/Reproduction" />
        <cc:permits
           rdf:resource="http://web.resource.org/cc/Distribution" />
        <cc:requires
           rdf:resource="http://web.resource.org/cc/Notice" />
        <cc:permits
           rdf:resource="http://web.resource.org/cc/DerivativeWorks" />
        <cc:requires
           rdf:resource="http://web.resource.org/cc/ShareAlike" />
        <cc:requires
           rdf:resource="http://web.resource.org/cc/SourceCode" />
      </cc:License>
    </rdf:RDF>
  </metadata>
  <g
     inkscape:label="Livello 1"
     inkscape:groupmode="layer"
     id="layer1">
    <g
       id="g2987"
       style="stroke:#ffffff;stroke-opacity:1;stroke-width:8;stroke-miterlimit:4;stroke-dasharray:none;stroke-linejoin:round;stroke-linecap:round">
      <path
         style="fill:#000000;fill-opacity:1;fill-rule:evenodd;stroke:#ffffff;stroke-opacity:1;stroke-width:8;stroke-miterlimit:4;stroke-dasharray:none;stroke-linejoin:round;stroke-linecap:round"
         d="m 10.312834,5.1108072 -5.2036347,5.2036348 7.2070337,7.207033 c -0.112776,0 -0.225246,0 -0.338236,0 -0.526804,0.0028 -0.995187,0.335909 -1.170818,0.832582 C 10.392362,19.50985 9.973123,20.65868 9.5583067,21.814474 9.1461343,20.660018 8.747625,19.508512 8.3354526,18.354057 8.1566798,17.848323 7.6749549,17.513209 7.1386167,17.521475 c -0.6344818,0 -1.264844,-10e-7 -1.8993266,0 -0.6897045,6.9e-5 -1.2488033,0.559168 -1.2488722,1.248872 0,3.252418 -1e-7,6.504397 0,9.756815 -7.326e-4,0.123321 0.016803,0.246071 0.052036,0.364254 0.1615839,0.512935 0.7184922,0.924105 1.0667451,1.014709 0.3482528,0.0906 0.5789144,0.06511 0.7545269,0.05204 0.1756126,-0.01308 0.3199511,-0.02156 0.3902726,-0.02602 -0.024816,-0.0092 -0.044328,-0.03554 -0.1040727,-0.05204 0.3754738,0.10559 0.7813465,0.02669 1.0927633,-0.208146 0.3114169,-0.234838 0.4926206,-0.598656 0.4943452,-0.98869 0,-0.502537 0,-1.006517 0,-1.509054 0.043048,0.08369 0.095417,0.162239 0.1561091,0.234164 0.2728875,0.349685 0.6655358,0.533991 0.9626723,0.598417 0.2971365,0.06443 0.5291556,0.03662 0.7024907,0.02602 0.3466701,-0.02121 0.5594063,0.0094 0.3902725,-0.02602 0.6115698,0.126751 1.2227548,-0.217735 1.4309998,-0.806563 0,0.44171 0,0.885217 0,1.326927 0.005,0.133427 0.03134,0.26519 0.07805,0.390272 0.166903,0.511242 0.720857,0.899157 1.066745,0.988691 0.130373,0.03375 0.215578,0.04399 0.312218,0.05204 L 5.1091993,37.685558 10.312834,42.889193 23.998392,29.203634 37.683951,42.889193 42.887585,37.685558 31.205426,26.003399 c 0,-1.335979 0,-2.6716 0,-4.006798 l 0.858599,-0.8586 c 0.312014,0 0.624025,0 0.936655,0 l 0,-0.02602 c 0.0827,0.007 0.165373,0.0088 0.260181,0 -0.119873,0.335425 -0.322402,0.6444 -0.390272,0.98869 -0.310362,1.57439 -0.1372,3.225772 0.41629,4.657253 1.136652,3.024379 4.656849,4.113586 7.363143,2.914035 1.497541,-0.647252 2.43995,-1.95238 2.914035,-3.330326 0.465339,-1.352525 0.531952,-2.800327 0.2862,-4.136889 -0.0046,-0.02512 0.0048,-0.05302 0,-0.07805 l -0.02602,0 c -0.398682,-2.699175 -2.693473,-4.918785 -5.463816,-4.787344 -0.02556,-7.4e-5 -0.05241,-2.26e-4 -0.07805,0 -0.90901,0.008 -1.860443,0.213745 -2.731908,0.728509 -0.426116,0.256091 -0.692441,0.645502 -1.014708,0.98869 -0.0013,-0.01178 8.83e-4,-0.04212 0,-0.05204 -0.0018,-0.02042 -0.028,0.03628 -0.02602,0.02602 0.02546,-0.1196 0.03688,-0.245812 0.02602,-0.364254 L 42.887585,10.314442 37.683951,5.1108072 25.299301,17.521475 c -0.689705,6.9e-5 -1.248803,0.559168 -1.248873,1.248872 l -0.05204,0.02602 L 10.312834,5.1108072 z M 34.405661,18.223966 c 0.03094,0.05918 0.05731,0.11931 0.07805,0.182127 -0.02002,-0.06165 -0.04861,-0.123818 -0.07805,-0.182127 z M 20.251775,18.58822 c 2.088951,-0.132727 3.956736,1.630938 4.240962,3.772635 0.443195,2.293901 -0.202598,5.196812 -2.445708,6.166307 -2.068651,0.916918 -4.834916,0.05886 -5.697979,-2.237563 -0.927134,-2.39783 -0.597508,-5.763884 1.717199,-7.154997 0.66073,-0.390285 1.432609,-0.548559 2.185526,-0.546382 z m 18.108648,0 c 2.088954,-0.132727 3.982753,1.630938 4.26698,3.772635 0.443193,2.293901 -0.228616,5.196812 -2.471726,6.166307 -2.06865,0.916918 -4.834917,0.05886 -5.69798,-2.237563 -0.927133,-2.39783 -0.571489,-5.763884 1.743218,-7.154997 0.660731,-0.390285 1.406591,-0.548559 2.159508,-0.546382 z M 5.2392901,18.770347 c 0.6344817,0 1.2648448,0 1.8993266,0 0.8031146,2.249447 1.6165752,4.489258 2.41969,6.738707 0.8073303,-2.249449 1.6123593,-4.48926 2.4196903,-6.738707 0.634482,0 1.264845,0 1.899326,0 0,3.305536 0,6.607386 0,9.912924 -0.37037,-0.100269 -1.129925,0.208238 -1.248872,-0.156109 0,-2.849466 0,-5.710513 0,-8.559979 -0.811547,2.267161 -1.608144,4.5496 -2.41969,6.816761 -0.4205013,-0.08796 -1.0935635,0.17627 -1.352945,-0.156109 -0.7937483,-2.217439 -1.5739055,-4.443212 -2.3676536,-6.660652 -1e-7,2.902584 0,5.813503 0,8.716088 -0.3671911,-0.101393 -1.1335833,0.209866 -1.2488723,-0.156109 -1e-7,-3.252418 0,-6.504397 0,-9.756815 z m 20.0600109,0 c 2.662295,0 5.325285,0 7.987578,0 -0.115205,0.361618 0.29881,1.250617 -0.286199,1.118782 -1.016046,-1e-6 -2.02808,0 -3.044127,0 0,2.929152 0,5.864988 0,8.794142 -0.389016,-0.09397 -1.160503,0.198985 -1.300908,-0.156109 0,-2.876035 0,-5.761999 0,-8.638033 -1.117194,-1e-6 -2.23915,0 -3.356344,0 1e-6,-0.376385 0,-0.742398 0,-1.118782 z m -5.047526,0.910636 c -1.65932,-0.101637 -2.868062,1.550671 -2.966071,3.174217 -0.23871,1.779082 0.17857,4.129013 2.003399,4.787344 1.455452,0.551844 3.200192,-0.306219 3.668562,-1.873308 0.573801,-1.837113 0.493382,-4.279335 -1.066745,-5.567889 -0.471272,-0.362058 -1.061134,-0.52385 -1.639145,-0.520364 z m 18.108648,0 c -1.659318,-0.101637 -2.868063,1.550671 -2.966072,3.174217 -0.238707,1.779082 0.178572,4.129013 2.0034,4.787344 1.455453,0.551844 3.200191,-0.306219 3.668562,-1.873308 0.573802,-1.837113 0.493383,-4.279335 -1.066745,-5.567889 -0.471271,-0.362058 -1.061133,-0.52385 -1.639145,-0.520364 z m -23.234228,0.650455 0.234164,0.234163 c -0.08732,0.199333 -0.162933,0.393639 -0.234164,0.598418 0,-0.27763 0,-0.555091 0,-0.832581 z m 23.156173,0.598418 c 0.03468,0.0014 0.0694,0.0014 0.104073,0 0.347773,-0.0021 0.648051,0.09843 0.8586,0.260181 0.487485,0.402629 0.74834,0.987848 0.8586,1.769236 0.110259,0.781389 0.0011,1.69262 -0.234164,2.445708 -0.261127,0.873686 -1.278618,1.351416 -2.029417,1.066745 -0.495275,-0.178677 -0.818008,-0.571962 -1.040727,-1.222854 -0.222719,-0.650892 -0.278737,-1.517536 -0.182128,-2.237563 0.0095,-0.02573 0.01821,-0.05176 0.02602,-0.07805 0.03174,-0.525803 0.271529,-1.13429 0.598418,-1.509054 0.326888,-0.374764 0.640346,-0.51887 1.040726,-0.494345 z M 18.456521,23.661764 18.794758,24 l -0.2862,0.2862 c 0.01724,0.170638 0.04916,0.332355 0.07805,0.494345 -0.03263,-0.159826 -0.06098,-0.325389 -0.07805,-0.494345 -0.02128,-0.210673 -0.05443,-0.412895 -0.05204,-0.624436 z m -3.330326,2.861999 c 0.02624,0.0742 0.02376,0.161043 0.05204,0.234163 0.07826,0.20824 0.160362,0.408643 0.260182,0.598418 l -0.312219,0.312218 c 0,-0.381529 0,-0.763057 0,-1.144799 z m 0.910636,1.717199 c 0.11988,0.142891 0.257237,0.289122 0.390273,0.416291 -0.137516,-0.13136 -0.266871,-0.268156 -0.390273,-0.416291 z m 2.263581,1.56109 c 0.162519,0.05896 0.326988,0.112253 0.494346,0.156109 -0.168816,-0.04385 -0.330416,-0.09695 -0.494346,-0.156109 z m 3.56449,0.104073 c -0.120387,0.03525 -0.242083,0.07702 -0.364254,0.104073 0.126167,-0.02792 0.239973,-0.06738 0.364254,-0.104073 z m -2.549781,0.156109 c 0.144549,0.02356 0.296213,0.03948 0.442309,0.05204 -0.147205,-0.01263 -0.296666,-0.02826 -0.442309,-0.05204 z"
         id="path2989"
         inkscape:connector-curvature="0" />
    </g>
    <rect
       style="fill:none;fill-opacity:1;fill-rule:nonzero;stroke:none;stroke-width:9.375;stroke-linecap:round;stroke-linejoin:round;stroke-miterlimit:4;stroke-dasharray:none;stroke-dashoffset:0;stroke-opacity:1;display:none"
       id="rect1306"
       width="60"
       height="60"
       x="0"
       y="0"
       sodipodi:insensitive="true" />
    <g
       id="g2984">
      <path
         inkscape:connector-curvature="0"
         id="path4138"
         d="m 10.312834,5.1108072 -5.2036347,5.2036348 7.2070337,7.207033 c -0.112776,0 -0.225246,0 -0.338236,0 -0.526804,0.0028 -0.995187,0.335909 -1.170818,0.832582 C 10.392362,19.50985 9.973123,20.65868 9.5583067,21.814474 9.1461343,20.660018 8.747625,19.508512 8.3354526,18.354057 8.1566798,17.848323 7.6749549,17.513209 7.1386167,17.521475 c -0.6344818,0 -1.264844,-10e-7 -1.8993266,0 -0.6897045,6.9e-5 -1.2488033,0.559168 -1.2488722,1.248872 0,3.252418 -1e-7,6.504397 0,9.756815 -7.326e-4,0.123321 0.016803,0.246071 0.052036,0.364254 0.1615839,0.512935 0.7184922,0.924105 1.0667451,1.014709 0.3482528,0.0906 0.5789144,0.06511 0.7545269,0.05204 0.1756126,-0.01308 0.3199511,-0.02156 0.3902726,-0.02602 -0.024816,-0.0092 -0.044328,-0.03554 -0.1040727,-0.05204 0.3754738,0.10559 0.7813465,0.02669 1.0927633,-0.208146 0.3114169,-0.234838 0.4926206,-0.598656 0.4943452,-0.98869 0,-0.502537 0,-1.006517 0,-1.509054 0.043048,0.08369 0.095417,0.162239 0.1561091,0.234164 0.2728875,0.349685 0.6655358,0.533991 0.9626723,0.598417 0.2971365,0.06443 0.5291556,0.03662 0.7024907,0.02602 0.3466701,-0.02121 0.5594063,0.0094 0.3902725,-0.02602 0.6115698,0.126751 1.2227548,-0.217735 1.4309998,-0.806563 0,0.44171 0,0.885217 0,1.326927 0.005,0.133427 0.03134,0.26519 0.07805,0.390272 0.166903,0.511242 0.720857,0.899157 1.066745,0.988691 0.130373,0.03375 0.215578,0.04399 0.312218,0.05204 L 5.1091993,37.685558 10.312834,42.889193 23.998392,29.203634 37.683951,42.889193 42.887585,37.685558 31.205426,26.003399 c 0,-1.335979 0,-2.6716 0,-4.006798 l 0.858599,-0.8586 c 0.312014,0 0.624025,0 0.936655,0 l 0,-0.02602 c 0.0827,0.007 0.165373,0.0088 0.260181,0 -0.119873,0.335425 -0.322402,0.6444 -0.390272,0.98869 -0.310362,1.57439 -0.1372,3.225772 0.41629,4.657253 1.136652,3.024379 4.656849,4.113586 7.363143,2.914035 1.497541,-0.647252 2.43995,-1.95238 2.914035,-3.330326 0.465339,-1.352525 0.531952,-2.800327 0.2862,-4.136889 -0.0046,-0.02512 0.0048,-0.05302 0,-0.07805 l -0.02602,0 c -0.398682,-2.699175 -2.693473,-4.918785 -5.463816,-4.787344 -0.02556,-7.4e-5 -0.05241,-2.26e-4 -0.07805,0 -0.90901,0.008 -1.860443,0.213745 -2.731908,0.728509 -0.426116,0.256091 -0.692441,0.645502 -1.014708,0.98869 -0.0013,-0.01178 8.83e-4,-0.04212 0,-0.05204 -0.0018,-0.02042 -0.028,0.03628 -0.02602,0.02602 0.02546,-0.1196 0.03688,-0.245812 0.02602,-0.364254 L 42.887585,10.314442 37.683951,5.1108072 25.299301,17.521475 c -0.689705,6.9e-5 -1.248803,0.559168 -1.248873,1.248872 l -0.05204,0.02602 L 10.312834,5.1108072 z M 34.405661,18.223966 c 0.03094,0.05918 0.05731,0.11931 0.07805,0.182127 -0.02002,-0.06165 -0.04861,-0.123818 -0.07805,-0.182127 z M 20.251775,18.58822 c 2.088951,-0.132727 3.956736,1.630938 4.240962,3.772635 0.443195,2.293901 -0.202598,5.196812 -2.445708,6.166307 -2.068651,0.916918 -4.834916,0.05886 -5.697979,-2.237563 -0.927134,-2.39783 -0.597508,-5.763884 1.717199,-7.154997 0.66073,-0.390285 1.432609,-0.548559 2.185526,-0.546382 z m 18.108648,0 c 2.088954,-0.132727 3.982753,1.630938 4.26698,3.772635 0.443193,2.293901 -0.228616,5.196812 -2.471726,6.166307 -2.06865,0.916918 -4.834917,0.05886 -5.69798,-2.237563 -0.927133,-2.39783 -0.571489,-5.763884 1.743218,-7.154997 0.660731,-0.390285 1.406591,-0.548559 2.159508,-0.546382 z M 5.2392901,18.770347 c 0.6344817,0 1.2648448,0 1.8993266,0 0.8031146,2.249447 1.6165752,4.489258 2.41969,6.738707 0.8073303,-2.249449 1.6123593,-4.48926 2.4196903,-6.738707 0.634482,0 1.264845,0 1.899326,0 0,3.305536 0,6.607386 0,9.912924 -0.37037,-0.100269 -1.129925,0.208238 -1.248872,-0.156109 0,-2.849466 0,-5.710513 0,-8.559979 -0.811547,2.267161 -1.608144,4.5496 -2.41969,6.816761 -0.4205013,-0.08796 -1.0935635,0.17627 -1.352945,-0.156109 -0.7937483,-2.217439 -1.5739055,-4.443212 -2.3676536,-6.660652 -1e-7,2.902584 0,5.813503 0,8.716088 -0.3671911,-0.101393 -1.1335833,0.209866 -1.2488723,-0.156109 -1e-7,-3.252418 0,-6.504397 0,-9.756815 z m 20.0600109,0 c 2.662295,0 5.325285,0 7.987578,0 -0.115205,0.361618 0.29881,1.250617 -0.286199,1.118782 -1.016046,-1e-6 -2.02808,0 -3.044127,0 0,2.929152 0,5.864988 0,8.794142 -0.389016,-0.09397 -1.160503,0.198985 -1.300908,-0.156109 0,-2.876035 0,-5.761999 0,-8.638033 -1.117194,-1e-6 -2.23915,0 -3.356344,0 1e-6,-0.376385 0,-0.742398 0,-1.118782 z m -5.047526,0.910636 c -1.65932,-0.101637 -2.868062,1.550671 -2.966071,3.174217 -0.23871,1.779082 0.17857,4.129013 2.003399,4.787344 1.455452,0.551844 3.200192,-0.306219 3.668562,-1.873308 0.573801,-1.837113 0.493382,-4.279335 -1.066745,-5.567889 -0.471272,-0.362058 -1.061134,-0.52385 -1.639145,-0.520364 z m 18.108648,0 c -1.659318,-0.101637 -2.868063,1.550671 -2.966072,3.174217 -0.238707,1.779082 0.178572,4.129013 2.0034,4.787344 1.455453,0.551844 3.200191,-0.306219 3.668562,-1.873308 0.573802,-1.837113 0.493383,-4.279335 -1.066745,-5.567889 -0.471271,-0.362058 -1.061133,-0.52385 -1.639145,-0.520364 z m -23.234228,0.650455 0.234164,0.234163 c -0.08732,0.199333 -0.162933,0.393639 -0.234164,0.598418 0,-0.27763 0,-0.555091 0,-0.832581 z m 23.156173,0.598418 c 0.03468,0.0014 0.0694,0.0014 0.104073,0 0.347773,-0.0021 0.648051,0.09843 0.8586,0.260181 0.487485,0.402629 0.74834,0.987848 0.8586,1.769236 0.110259,0.781389 0.0011,1.69262 -0.234164,2.445708 -0.261127,0.873686 -1.278618,1.351416 -2.029417,1.066745 -0.495275,-0.178677 -0.818008,-0.571962 -1.040727,-1.222854 -0.222719,-0.650892 -0.278737,-1.517536 -0.182128,-2.237563 0.0095,-0.02573 0.01821,-0.05176 0.02602,-0.07805 0.03174,-0.525803 0.271529,-1.13429 0.598418,-1.509054 0.326888,-0.374764 0.640346,-0.51887 1.040726,-0.494345 z M 18.456521,23.661764 18.794758,24 l -0.2862,0.2862 c 0.01724,0.170638 0.04916,0.332355 0.07805,0.494345 -0.03263,-0.159826 -0.06098,-0.325389 -0.07805,-0.494345 -0.02128,-0.210673 -0.05443,-0.412895 -0.05204,-0.624436 z m -3.330326,2.861999 c 0.02624,0.0742 0.02376,0.161043 0.05204,0.234163 0.07826,0.20824 0.160362,0.408643 0.260182,0.598418 l -0.312219,0.312218 c 0,-0.381529 0,-0.763057 0,-1.144799 z m 0.910636,1.717199 c 0.11988,0.142891 0.257237,0.289122 0.390273,0.416291 -0.137516,-0.13136 -0.266871,-0.268156 -0.390273,-0.416291 z m 2.263581,1.56109 c 0.162519,0.05896 0.326988,0.112253 0.494346,0.156109 -0.168816,-0.04385 -0.330416,-0.09695 -0.494346,-0.156109 z m 3.56449,0.104073 c -0.120387,0.03525 -0.242083,0.07702 -0.364254,0.104073 0.126167,-0.02792 0.239973,-0.06738 0.364254,-0.104073 z m -2.549781,0.156109 c 0.144549,0.02356 0.296213,0.03948 0.442309,0.05204 -0.147205,-0.01263 -0.296666,-0.02826 -0.442309,-0.05204 z"
         style="fill:#000000;fill-opacity:1;fill-rule:evenodd;stroke:none" />
    </g>
  </g>
</svg>
