<?xml version="1.0" encoding="UTF-8" standalone="no"?>
<!-- Created with Inkscape (http://www.inkscape.org/) -->

<svg
   xmlns:dc="http://purl.org/dc/elements/1.1/"
   xmlns:cc="http://creativecommons.org/ns#"
   xmlns:rdf="http://www.w3.org/1999/02/22-rdf-syntax-ns#"
   xmlns:svg="http://www.w3.org/2000/svg"
   xmlns="http://www.w3.org/2000/svg"
   xmlns:sodipodi="http://sodipodi.sourceforge.net/DTD/sodipodi-0.dtd"
   xmlns:inkscape="http://www.inkscape.org/namespaces/inkscape"
   version="1.2"
   width="48"
   height="48"
   id="svg3304"
   inkscape:version="0.48.3.1 r9886"
   sodipodi:docname="xterm-color_48x48.svg">
  <sodipodi:namedview
     pagecolor="#ffffff"
     bordercolor="#666666"
     borderopacity="1"
     objecttolerance="10"
     gridtolerance="10"
     guidetolerance="10"
     inkscape:pageopacity="0"
     inkscape:pageshadow="2"
     inkscape:window-width="736"
     inkscape:window-height="480"
     id="namedview19"
     showgrid="false"
     inkscape:zoom="4.9166667"
     inkscape:cx="24"
     inkscape:cy="24"
     inkscape:window-x="0"
     inkscape:window-y="0"
     inkscape:window-maximized="0"
     inkscape:current-layer="layer1" />
  <defs
     id="defs14" />
  <metadata
     id="metadata3309">
    <rdf:RDF>
      <cc:Work
         rdf:about="">
        <dc:format>image/svg+xml</dc:format>
        <dc:type
           rdf:resource="http://purl.org/dc/dcmitype/StillImage" />
        <dc:title />
        <dc:creator>
          <cc:Agent>
            <dc:title>Luca Ferretti &lt;elle.uca@libero.it&gt;</dc:title>
          </cc:Agent>
        </dc:creator>
        <cc:license
           rdf:resource="http://creativecommons.org/licenses/GPL/2.0/" />
        <dc:subject>
          <rdf:Bag>
            <rdf:li>computer</rdf:li>
          </rdf:Bag>
        </dc:subject>
        <dc:date>June 2009</dc:date>
      </cc:Work>
      <cc:License
         rdf:about="http://creativecommons.org/licenses/GPL/2.0/">
        <cc:permits
           rdf:resource="http://web.resource.org/cc/Reproduction" />
        <cc:permits
           rdf:resource="http://web.resource.org/cc/Distribution" />
        <cc:requires
           rdf:resource="http://web.resource.org/cc/Notice" />
        <cc:permits
           rdf:resource="http://web.resource.org/cc/DerivativeWorks" />
        <cc:requires
           rdf:resource="http://web.resource.org/cc/ShareAlike" />
        <cc:requires
           rdf:resource="http://web.resource.org/cc/SourceCode" />
      </cc:License>
    </rdf:RDF>
  </metadata>
  <g
     id="layer1">
    <path
       style="fill:none"
       d="M 0,0 48,0 48,48 0,48 z"
       id="rect5087" />
    <path
       d="M 9,42 H 39 C 39,42 37.02,31 24,31 10.98,31 9,42 9,42 z"
       id="path3219"
       style="fill:#ffffff;fill-rule:evenodd;stroke:#ffffff;stroke-width:12;stroke-linecap:round;stroke-linejoin:round;stroke-miterlimit:4;stroke-dasharray:none" />
    <path
       style="fill:none"
       d="M 0,0 48,0 48,48 0,48 z"
       id="rect4784" />
    <path
       d="m 8,4 h 32 c 2.025,0 4,1.8015 4,4 V 30 H 4 V 8 C 4,6.2262 6.1636,4 8,4 z"
       id="path3180"
       style="fill:#ffffff;fill-rule:evenodd;stroke:#ffffff;stroke-width:6;stroke-linecap:round;stroke-linejoin:round;stroke-miterlimit:4;stroke-dasharray:none" />
    <path
       d="m 8,4 h 32 c 2.025,0 4,1.8015 4,4 V 30 H 4 V 8 C 4,6.2262 6.1636,4 8,4 z"
       id="path2175"
       style="fill-rule:evenodd" />
    <path
       style="fill:#ffffff;fill-rule:evenodd"
       d="M 8,8 40,8 40,26 8,26 z"
       id="rect4355" />
    <path
       d="M 9,42 H 39 C 39,42 37.02,31 24,31 10.98,31 9,42 9,42 z"
       id="path3217"
       style="fill:none;stroke:#000000;stroke-width:4;stroke-linecap:round;stroke-linejoin:round" />
    <g
       style="font-size:4px;font-style:normal;font-weight:normal;line-height:125%;letter-spacing:0px;word-spacing:0px;fill:#000000;fill-opacity:1;stroke:none;font-family:Sans"
       id="flowRoot2989" />
    <g
       transform="scale(1.1275198,0.88690239)"
       style="font-size:4.51007938px;font-style:normal;font-weight:normal;line-height:125%;letter-spacing:0px;word-spacing:0px;fill:#000000;fill-opacity:1;stroke:none;font-family:Sans"
       id="text2997">
      <path
         d="m 18.695665,24.876221 c -0.30519,-0.610364 -0.641942,-1.225989 -1.010258,-1.846878 -0.357806,-0.631408 -0.773485,-1.273342 -1.247037,-1.925804 -0.147335,0.189427 -0.336758,0.452515 -0.56827,0.789264 -0.220999,0.336756 -0.447254,0.694555 -0.678767,1.073399 -0.220998,0.378848 -0.431468,0.741909 -0.631411,1.089184 -0.19995,0.347277 -0.347279,0.620888 -0.441988,0.820835 l -2.809779,0 c 0.463034,-0.852404 0.999733,-1.746903 1.610098,-2.683497 0.620885,-0.93659 1.310175,-1.931061 2.067871,-2.983418 l -3.520117,-5.272283 2.983418,0 2.131012,3.40962 2.083657,-3.40962 2.809779,0 -3.472761,5.303854 c 0.883968,1.147068 1.625875,2.209942 2.225724,3.188626 0.599831,0.968165 1.073389,1.783737 1.420675,2.446718 l -2.951846,0"
         style="font-size:15.78527737px;font-variant:normal;font-weight:bold;font-stretch:normal;font-family:Ubuntu;-inkscape-font-specification:Ubuntu Bold"
         id="path3001" />
      <path
         d="m 31.594949,13.937023 0,2.099442 -3.299123,0 0,8.839756 -2.462503,0 0,-8.839756 -3.299123,0 0,-2.099442 9.060749,0"
         style="font-size:15.78527737px;font-variant:normal;font-weight:bold;font-stretch:normal;font-family:Ubuntu;-inkscape-font-specification:Ubuntu Bold"
         id="path3003" />
    </g>
  </g>
</svg>
