<?xml version="1.0" encoding="UTF-8" standalone="no"?>
<!-- Created with Inkscape (http://www.inkscape.org/) -->

<svg
   xmlns:dc="http://purl.org/dc/elements/1.1/"
   xmlns:cc="http://creativecommons.org/ns#"
   xmlns:rdf="http://www.w3.org/1999/02/22-rdf-syntax-ns#"
   xmlns:svg="http://www.w3.org/2000/svg"
   xmlns="http://www.w3.org/2000/svg"
   xmlns:sodipodi="http://sodipodi.sourceforge.net/DTD/sodipodi-0.dtd"
   xmlns:inkscape="http://www.inkscape.org/namespaces/inkscape"
   id="svg2"
   version="1.1"
   inkscape:version="0.91 r13725"
   width="48"
   height="48"
   viewBox="0 0 48 48"
   sodipodi:docname="applications-graphics.svg">
  <metadata
     id="metadata8">
    <rdf:RDF>
      <cc:Work
         rdf:about="">
        <dc:format>image/svg+xml</dc:format>
        <dc:type
           rdf:resource="http://purl.org/dc/dcmitype/StillImage" />
        <dc:title></dc:title>
      </cc:Work>
    </rdf:RDF>
  </metadata>
  <defs
     id="defs6" />
  <sodipodi:namedview
     pagecolor="#ffffff"
     bordercolor="#666666"
     borderopacity="1"
     objecttolerance="10"
     gridtolerance="10"
     guidetolerance="10"
     inkscape:pageopacity="0"
     inkscape:pageshadow="2"
     inkscape:window-width="1920"
     inkscape:window-height="1029"
     id="namedview4"
     showgrid="false"
     inkscape:zoom="10.429825"
     inkscape:cx="44.191733"
     inkscape:cy="34.427451"
     inkscape:window-x="0"
     inkscape:window-y="0"
     inkscape:window-maximized="1"
     inkscape:current-layer="svg2" />
  <path
     inkscape:connector-curvature="0"
     id="path4140"
     d="M 25.00522,43.708319 C 21.660136,43.103556 18.967547,41.59618 17.615399,39.571325 16.803414,38.355371 16.519803,37.573648 16.350597,36.085103 l -0.109938,-0.967139 4.849293,-4.847033 C 29.095331,22.269284 31.60463,19.35889 35.514036,13.541266 c 1.279903,-1.904631 2.401991,-3.462964 2.493532,-3.462964 0.603798,0 3.93787,4.674473 5.048323,7.077922 3.024618,6.546377 2.912843,13.713727 -0.299188,19.185379 -0.868814,1.480014 -3.781918,4.355704 -5.309881,5.241692 -3.662598,2.123741 -8.180493,2.895397 -12.441602,2.125024 z m 0.415493,-5.565615 c 0.271193,-0.201947 0.659068,-0.765818 0.861952,-1.253048 0.36476,-0.875961 0.36476,-0.895778 0,-1.77174 -0.440877,-1.058777 -1.090292,-1.587812 -2.101037,-1.711559 -0.946722,-0.115909 -1.920071,0.367188 -2.505527,1.243562 -1.535347,2.298285 1.520724,5.148835 3.744612,3.492785 z m 7.579458,0.215444 c 1.646069,-0.781112 1.960088,-3.021968 0.60134,-4.291228 -1.554023,-1.451676 -4.101124,-0.450924 -4.300523,1.689669 -0.103148,1.107372 0.443425,2.0625 1.477628,2.582102 0.828203,0.416102 1.375586,0.420896 2.221555,0.01946 z m 5.345828,-5.341504 c 0.882114,-0.418592 1.386933,-1.274119 1.386933,-2.350457 0,-0.503793 -0.147767,-1.100149 -0.358034,-1.444973 -0.376683,-0.617708 -1.419701,-1.223828 -2.105981,-1.223828 -0.63002,0 -1.584648,0.470268 -2.109646,1.039249 -0.394953,0.428044 -0.476571,0.707109 -0.476571,1.629552 0,0.92251 0.08158,1.20143 0.476571,1.629288 0.930342,1.00777 2.049188,1.260968 3.186728,0.721169 z m 1.540795,-7.955888 c 1.081918,-0.562917 1.467911,-1.194267 1.467911,-2.400969 0,-0.922442 -0.08158,-1.201507 -0.476571,-1.629552 -0.524998,-0.56898 -1.479626,-1.039247 -2.109637,-1.039247 -0.686289,0 -1.729307,0.606118 -2.10599,1.223827 -0.465702,0.763705 -0.466639,2.124702 -0.0018,2.886669 0.64838,1.063246 2.161666,1.513192 3.226277,0.959272 z M 4.1916882,41.126671 C 3.4751701,40.958792 2.7524207,40.48878 2.7524207,40.1907 c 0,-0.07615 0.3645803,-0.230816 0.8101755,-0.343707 1.2983802,-0.328939 1.9581152,-1.05319 3.1535282,-3.46195 0.998165,-2.011302 1.158754,-2.228709 1.945779,-2.634266 0.667722,-0.344075 1.056354,-0.42025 1.7536196,-0.343729 l 0.895792,0.09831 2.13819,-2.947857 C 19.928055,21.6257 27.216042,14.034409 36.112413,6.9514157 c 2.920713,-2.3253686 3.240693,-2.5375236 3.240693,-2.1486694 0,0.2724655 -3.718741,5.6843597 -5.786371,8.4209307 -5.464365,7.232232 -11.087986,13.273275 -17.913836,19.24351 -2.310792,2.021139 -2.801951,2.53906 -2.711643,2.859428 0.632486,2.243914 -0.0964,4.275366 -1.861487,5.188132 -1.3090506,0.676936 -5.1530826,1.018433 -6.8880808,0.611927 z M 18.52179,19.311999 C 18.237495,19.067462 17.511153,18.722855 16.907688,18.546204 13.306286,17.491969 12.80099,17.277477 11.976479,16.452962 9.7592644,14.235749 10.209406,9.7296634 12.888768,7.3206924 c 3.185701,-2.8642221 10.311344,-4.132123 15.598506,-2.775519 1.890815,0.4851517 4.765847,1.7744981 4.765406,2.1371064 -1.62e-4,0.1378567 -0.962715,0.9798056 -2.138983,1.8709946 -3.719011,2.8176486 -5.306622,4.2519046 -8.508388,7.6865206 -1.714819,1.839527 -3.218821,3.383346 -3.342238,3.430705 -0.123418,0.04736 -0.456995,-0.113966 -0.741281,-0.358501 z m 1.746443,-3.694239 c 1.675775,-0.854916 2.593952,-2.822215 2.126827,-4.556971 -0.275975,-1.024909 -1.515465,-2.4092706 -2.426268,-2.7098636 -1.125158,-0.371338 -2.798529,-0.145787 -3.71341,0.500526 -1.677468,1.1850406 -2.126044,3.5344646 -1.016787,5.3255136 1.042891,1.683902 3.290858,2.327857 5.029638,1.440795 z"
     style="fill:#0a0a0a;stroke:#ffffff;stroke-opacity:1;stroke-width:5;stroke-miterlimit:4;stroke-dasharray:none;stroke-linejoin:round;stroke-linecap:round" />
  <path
     style="fill:#0a0a0a"
     d="M 25.00522,43.708319 C 21.660136,43.103556 18.967547,41.59618 17.615399,39.571325 16.803414,38.355371 16.519803,37.573648 16.350597,36.085103 l -0.109938,-0.967139 4.849293,-4.847033 C 29.095331,22.269284 31.60463,19.35889 35.514036,13.541266 c 1.279903,-1.904631 2.401991,-3.462964 2.493532,-3.462964 0.603798,0 3.93787,4.674473 5.048323,7.077922 3.024618,6.546377 2.912843,13.713727 -0.299188,19.185379 -0.868814,1.480014 -3.781918,4.355704 -5.309881,5.241692 -3.662598,2.123741 -8.180493,2.895397 -12.441602,2.125024 z m 0.415493,-5.565615 c 0.271193,-0.201947 0.659068,-0.765818 0.861952,-1.253048 0.36476,-0.875961 0.36476,-0.895778 0,-1.77174 -0.440877,-1.058777 -1.090292,-1.587812 -2.101037,-1.711559 -0.946722,-0.115909 -1.920071,0.367188 -2.505527,1.243562 -1.535347,2.298285 1.520724,5.148835 3.744612,3.492785 z m 7.579458,0.215444 c 1.646069,-0.781112 1.960088,-3.021968 0.60134,-4.291228 -1.554023,-1.451676 -4.101124,-0.450924 -4.300523,1.689669 -0.103148,1.107372 0.443425,2.0625 1.477628,2.582102 0.828203,0.416102 1.375586,0.420896 2.221555,0.01946 z m 5.345828,-5.341504 c 0.882114,-0.418592 1.386933,-1.274119 1.386933,-2.350457 0,-0.503793 -0.147767,-1.100149 -0.358034,-1.444973 -0.376683,-0.617708 -1.419701,-1.223828 -2.105981,-1.223828 -0.63002,0 -1.584648,0.470268 -2.109646,1.039249 -0.394953,0.428044 -0.476571,0.707109 -0.476571,1.629552 0,0.92251 0.08158,1.20143 0.476571,1.629288 0.930342,1.00777 2.049188,1.260968 3.186728,0.721169 z m 1.540795,-7.955888 c 1.081918,-0.562917 1.467911,-1.194267 1.467911,-2.400969 0,-0.922442 -0.08158,-1.201507 -0.476571,-1.629552 -0.524998,-0.56898 -1.479626,-1.039247 -2.109637,-1.039247 -0.686289,0 -1.729307,0.606118 -2.10599,1.223827 -0.465702,0.763705 -0.466639,2.124702 -0.0018,2.886669 0.64838,1.063246 2.161666,1.513192 3.226277,0.959272 z M 4.1916882,41.126671 C 3.4751701,40.958792 2.7524207,40.48878 2.7524207,40.1907 c 0,-0.07615 0.3645803,-0.230816 0.8101755,-0.343707 1.2983802,-0.328939 1.9581152,-1.05319 3.1535282,-3.46195 0.998165,-2.011302 1.158754,-2.228709 1.945779,-2.634266 0.667722,-0.344075 1.056354,-0.42025 1.7536196,-0.343729 l 0.895792,0.09831 2.13819,-2.947857 C 19.928055,21.6257 27.216042,14.034409 36.112413,6.9514157 c 2.920713,-2.3253686 3.240693,-2.5375236 3.240693,-2.1486694 0,0.2724655 -3.718741,5.6843597 -5.786371,8.4209307 -5.464365,7.232232 -11.087986,13.273275 -17.913836,19.24351 -2.310792,2.021139 -2.801951,2.53906 -2.711643,2.859428 0.632486,2.243914 -0.0964,4.275366 -1.861487,5.188132 -1.3090506,0.676936 -5.1530826,1.018433 -6.8880808,0.611927 z M 18.52179,19.311999 C 18.237495,19.067462 17.511153,18.722855 16.907688,18.546204 13.306286,17.491969 12.80099,17.277477 11.976479,16.452962 9.7592644,14.235749 10.209406,9.7296634 12.888768,7.3206924 c 3.185701,-2.8642221 10.311344,-4.132123 15.598506,-2.775519 1.890815,0.4851517 4.765847,1.7744981 4.765406,2.1371064 -1.62e-4,0.1378567 -0.962715,0.9798056 -2.138983,1.8709946 -3.719011,2.8176486 -5.306622,4.2519046 -8.508388,7.6865206 -1.714819,1.839527 -3.218821,3.383346 -3.342238,3.430705 -0.123418,0.04736 -0.456995,-0.113966 -0.741281,-0.358501 z m 1.746443,-3.694239 c 1.675775,-0.854916 2.593952,-2.822215 2.126827,-4.556971 -0.275975,-1.024909 -1.515465,-2.4092706 -2.426268,-2.7098636 -1.125158,-0.371338 -2.798529,-0.145787 -3.71341,0.500526 -1.677468,1.1850406 -2.126044,3.5344646 -1.016787,5.3255136 1.042891,1.683902 3.290858,2.327857 5.029638,1.440795 z"
     id="path4138"
     inkscape:connector-curvature="0" />
</svg>
