<?xml version="1.0" encoding="UTF-8" standalone="no"?>
<!-- Created with Inkscape (http://www.inkscape.org/) -->

<svg
   xmlns:dc="http://purl.org/dc/elements/1.1/"
   xmlns:cc="http://creativecommons.org/ns#"
   xmlns:rdf="http://www.w3.org/1999/02/22-rdf-syntax-ns#"
   xmlns:svg="http://www.w3.org/2000/svg"
   xmlns="http://www.w3.org/2000/svg"
   xmlns:sodipodi="http://sodipodi.sourceforge.net/DTD/sodipodi-0.dtd"
   xmlns:inkscape="http://www.inkscape.org/namespaces/inkscape"
   id="svg2"
   version="1.1"
   inkscape:version="0.91 r13725"
   width="48"
   height="48"
   viewBox="0 0 48 48"
   sodipodi:docname="applications-utilities.svg">
  <metadata
     id="metadata8">
    <rdf:RDF>
      <cc:Work
         rdf:about="">
        <dc:format>image/svg+xml</dc:format>
        <dc:type
           rdf:resource="http://purl.org/dc/dcmitype/StillImage" />
        <dc:title></dc:title>
      </cc:Work>
    </rdf:RDF>
  </metadata>
  <defs
     id="defs6" />
  <sodipodi:namedview
     pagecolor="#ffffff"
     bordercolor="#666666"
     borderopacity="1"
     objecttolerance="10"
     gridtolerance="10"
     guidetolerance="10"
     inkscape:pageopacity="0"
     inkscape:pageshadow="2"
     inkscape:window-width="1920"
     inkscape:window-height="1029"
     id="namedview4"
     showgrid="false"
     inkscape:zoom="10.429825"
     inkscape:cx="38.40721"
     inkscape:cy="33.134958"
     inkscape:window-x="0"
     inkscape:window-y="0"
     inkscape:window-maximized="1"
     inkscape:current-layer="svg2" />
  <path
     inkscape:connector-curvature="0"
     id="path4140"
     d="M 10.922155,43.879897 C 8.3116307,43.220644 6.2181717,41.106429 5.5193687,38.423546 5.1326797,36.938944 5.1105127,11.05537 5.4946947,9.6124871 6.0788397,7.4185958 7.5578047,5.6686881 9.6758897,4.6653082 10.789806,4.1376226 11.016191,4.0957601 12.75582,4.0957601 c 1.73963,0 1.966015,0.041862 3.079929,0.5695481 2.186448,1.0357649 3.766458,2.9793522 4.23238,5.206299 0.134843,0.6445068 0.198261,5.1941908 0.198261,14.2235728 0,14.454633 0.0057,14.362904 -1.020175,16.247884 -0.64528,1.185593 -1.976316,2.382652 -3.379377,3.039224 -0.965811,0.451957 -1.443201,0.558511 -2.722284,0.607605 -0.853094,0.03275 -1.853175,-0.01675 -2.222399,-0.109996 z m 23.38185,-10.806814 c -4.018852,-0.754478 -7.121024,-2.13941 -10.089167,-4.504205 -0.700446,-0.558063 -1.314545,-1.182942 -1.364663,-1.388621 -0.05012,-0.205679 -0.06856,-2.667368 -0.04098,-5.470421 l 0.05014,-5.096458 2.262307,-0.04992 2.262309,-0.04992 3.444464,3.894614 c 1.894455,2.142038 3.832773,4.417671 4.30737,5.056964 1.701589,2.292076 3.121813,5.72456 2.979326,7.200623 l -0.05581,0.578182 -1.251762,0.03208 c -0.68847,0.01765 -1.815055,-0.07367 -2.503524,-0.202921 z m -0.29983,-6.061717 c -0.0318,-0.133093 -0.839226,-1.06833 -1.794281,-2.078307 -1.869311,-1.976811 -2.178929,-2.103791 -2.389738,-0.980083 -0.262008,1.396615 0.491199,2.588767 1.916517,3.033405 1.06085,0.330941 2.343983,0.34508 2.267502,0.02498 z M 22.536183,13.905926 c -0.06815,-0.06815 -0.123915,-0.8983 -0.123915,-1.844771 0,-2.8010942 -0.651058,-4.6958253 -2.318817,-6.7483052 -0.494999,-0.6091859 -0.9,-1.1523611 -0.9,-1.2070559 0,-0.1896741 15.373524,-0.1033759 16.685708,0.093664 3.11432,0.4676511 5.534327,1.3318138 6.472813,2.3113818 0.438271,0.4574563 0.484265,0.6119577 0.38902,1.3068339 -0.281245,2.0519097 -1.570593,4.1838974 -3.322526,5.4939294 l -0.965524,0.721985 -1.538001,-0.05128 -1.537998,-0.05128 -0.09344,-1.877643 C 35.232111,11.020685 35.086395,9.9908357 34.959689,9.7648337 34.278681,8.5501312 31.653093,8.8423693 29.672074,10.353367 28.840762,10.98744 28.145785,12.04297 27.88446,13.068394 l -0.219838,0.862637 -2.502262,0.0494 c -1.376245,0.02717 -2.558024,-0.0064 -2.626177,-0.07451 z"
     style="fill:#050505;stroke:#ffffff;stroke-opacity:1;stroke-width:8;stroke-miterlimit:4;stroke-dasharray:none;stroke-linecap:round;stroke-linejoin:round" />
  <path
     style="fill:#050505"
     d="M 10.922155,43.879897 C 8.3116307,43.220644 6.2181717,41.106429 5.5193687,38.423546 5.1326797,36.938944 5.1105127,11.05537 5.4946947,9.6124871 6.0788397,7.4185958 7.5578047,5.6686881 9.6758897,4.6653082 10.789806,4.1376226 11.016191,4.0957601 12.75582,4.0957601 c 1.73963,0 1.966015,0.041862 3.079929,0.5695481 2.186448,1.0357649 3.766458,2.9793522 4.23238,5.206299 0.134843,0.6445068 0.198261,5.1941908 0.198261,14.2235728 0,14.454633 0.0057,14.362904 -1.020175,16.247884 -0.64528,1.185593 -1.976316,2.382652 -3.379377,3.039224 -0.965811,0.451957 -1.443201,0.558511 -2.722284,0.607605 -0.853094,0.03275 -1.853175,-0.01675 -2.222399,-0.109996 z m 23.38185,-10.806814 c -4.018852,-0.754478 -7.121024,-2.13941 -10.089167,-4.504205 -0.700446,-0.558063 -1.314545,-1.182942 -1.364663,-1.388621 -0.05012,-0.205679 -0.06856,-2.667368 -0.04098,-5.470421 l 0.05014,-5.096458 2.262307,-0.04992 2.262309,-0.04992 3.444464,3.894614 c 1.894455,2.142038 3.832773,4.417671 4.30737,5.056964 1.701589,2.292076 3.121813,5.72456 2.979326,7.200623 l -0.05581,0.578182 -1.251762,0.03208 c -0.68847,0.01765 -1.815055,-0.07367 -2.503524,-0.202921 z m -0.29983,-6.061717 c -0.0318,-0.133093 -0.839226,-1.06833 -1.794281,-2.078307 -1.869311,-1.976811 -2.178929,-2.103791 -2.389738,-0.980083 -0.262008,1.396615 0.491199,2.588767 1.916517,3.033405 1.06085,0.330941 2.343983,0.34508 2.267502,0.02498 z M 22.536183,13.905926 c -0.06815,-0.06815 -0.123915,-0.8983 -0.123915,-1.844771 0,-2.8010942 -0.651058,-4.6958253 -2.318817,-6.7483052 -0.494999,-0.6091859 -0.9,-1.1523611 -0.9,-1.2070559 0,-0.1896741 15.373524,-0.1033759 16.685708,0.093664 3.11432,0.4676511 5.534327,1.3318138 6.472813,2.3113818 0.438271,0.4574563 0.484265,0.6119577 0.38902,1.3068339 -0.281245,2.0519097 -1.570593,4.1838974 -3.322526,5.4939294 l -0.965524,0.721985 -1.538001,-0.05128 -1.537998,-0.05128 -0.09344,-1.877643 C 35.232111,11.020685 35.086395,9.9908357 34.959689,9.7648337 34.278681,8.5501312 31.653093,8.8423693 29.672074,10.353367 28.840762,10.98744 28.145785,12.04297 27.88446,13.068394 l -0.219838,0.862637 -2.502262,0.0494 c -1.376245,0.02717 -2.558024,-0.0064 -2.626177,-0.07451 z"
     id="path4138"
     inkscape:connector-curvature="0" />
</svg>
