<?xml version="1.0" encoding="UTF-8" standalone="no"?>
<!-- Created with Inkscape (http://www.inkscape.org/) -->

<svg
   xmlns:dc="http://purl.org/dc/elements/1.1/"
   xmlns:cc="http://creativecommons.org/ns#"
   xmlns:rdf="http://www.w3.org/1999/02/22-rdf-syntax-ns#"
   xmlns:svg="http://www.w3.org/2000/svg"
   xmlns="http://www.w3.org/2000/svg"
   xmlns:sodipodi="http://sodipodi.sourceforge.net/DTD/sodipodi-0.dtd"
   xmlns:inkscape="http://www.inkscape.org/namespaces/inkscape"
   id="svg2"
   version="1.1"
   inkscape:version="0.91 r13725"
   width="48"
   height="48"
   viewBox="0 0 48 48"
   sodipodi:docname="applications-games.svg">
  <metadata
     id="metadata8">
    <rdf:RDF>
      <cc:Work
         rdf:about="">
        <dc:format>image/svg+xml</dc:format>
        <dc:type
           rdf:resource="http://purl.org/dc/dcmitype/StillImage" />
        <dc:title></dc:title>
      </cc:Work>
    </rdf:RDF>
  </metadata>
  <defs
     id="defs6" />
  <sodipodi:namedview
     pagecolor="#ffffff"
     bordercolor="#666666"
     borderopacity="1"
     objecttolerance="10"
     gridtolerance="10"
     guidetolerance="10"
     inkscape:pageopacity="0"
     inkscape:pageshadow="2"
     inkscape:window-width="1920"
     inkscape:window-height="1029"
     id="namedview4"
     showgrid="false"
     inkscape:zoom="8"
     inkscape:cx="48.013095"
     inkscape:cy="21.628148"
     inkscape:window-x="0"
     inkscape:window-y="0"
     inkscape:window-maximized="1"
     inkscape:current-layer="svg2" />
  <path
     sodipodi:nodetypes="sssssssssssssssssssscscccccccscccccccccccssssssssssssssss"
     style="fill:#050505;stroke:#ffffff;stroke-width:8;stroke-miterlimit:4;stroke-dasharray:none;stroke-opacity:1"
     d="m 6.6871562,38.805771 c -1.184966,-0.37436 -2.066841,-1.811601 -2.410245,-3.928115 -0.526149,-3.242831 0.101947,-10.278038 1.349283,-15.113275 1.396118,-5.411954 4.153691,-9.666334 6.7557558,-10.4227745 1.180223,-0.3431 1.466234,-0.2846248 3.539551,0.7236615 2.380112,1.157489 3.905523,1.425441 8.096292,1.422181 4.293249,-0.0033 5.709528,-0.263214 8.297053,-1.5224431 0.991225,-0.4823801 1.957588,-0.8770558 2.147474,-0.8770558 0.989037,0 2.220919,0.5819213 3.251279,1.5358569 2.534034,2.346067 4.476372,6.950882 5.506784,13.055266 0.786947,4.662037 0.92271,10.340092 0.296065,12.382592 -0.329186,1.072962 -0.891565,1.945889 -1.58425,2.459079 -0.80413,0.595759 -2.394368,0.495716 -3.857104,-0.242648 -1.490433,-0.752346 -4.070786,-3.331734 -5.069512,-5.067616 -0.875001,-1.520838 -1.654697,-2.297007 -2.982293,-2.968805 -1.675893,-0.848048 -3.104882,-1.112844 -6.005496,-1.112844 -2.900614,0 -4.329602,0.264796 -6.005494,1.112844 -1.327597,0.671798 -2.107292,1.447967 -2.982296,2.968805 -0.977186,1.698448 -3.582453,4.31817 -5.001672,5.029431 -1.1855878,0.594171 -2.5305568,0.821954 -3.3411748,0.56586 z m 9.7639778,-17.24419 c 0,0 0.986774,-0.0213 1.522078,-0.05161 l 0.973277,-0.05515 0,-1.156615 0,-1.156613 c -0.850023,-0.09459 -1.703307,-0.09865 -2.557171,-0.113748 l 0.154967,-1.220808 -0.08896,-1.156613 -0.973268,-0.05515 c -1.197819,-0.06786 -1.428929,0.175421 -1.428929,1.504182 l 0,0.936171 -1.112128,0.05298 -1.112129,0.05297 -0.05242,1.192402 -0.05242,1.192401 1.120062,0.05317 1.120058,0.05318 0.04692,0.800734 c 0.09422,1.60759 -0.167851,1.614305 1.123206,1.614305 l 1.410005,-0.01288 c 0.03433,-0.827599 -0.0327,-1.649586 -0.09314,-2.47336 z m 16.957913,2.196373 c 0.580596,-0.406665 0.54061,-1.362412 -0.07734,-1.848487 -1.133608,-0.891697 -2.507784,0.746358 -1.484534,1.769606 0.426611,0.426613 1.02245,0.456706 1.561875,0.07889 z m -2.607778,-2.403738 c 0.785663,-0.420477 0.713011,-1.715969 -0.11746,-2.094355 -1.184328,-0.539614 -2.249204,1.006647 -1.327806,1.928045 0.394736,0.394734 0.908068,0.453805 1.445266,0.16631 z m 5.138538,-0.16631 c 1.02325,-1.023249 -0.350927,-2.661302 -1.484534,-1.769608 -0.86841,0.683094 -0.404368,2.125489 0.683802,2.125489 0.244669,0 0.604997,-0.160147 0.800732,-0.355881 z m -2.53076,-2.412288 c 0.580596,-0.406664 0.54061,-1.362411 -0.07734,-1.848487 -1.133608,-0.891696 -2.507784,0.74636 -1.484534,1.769608 0.426611,0.426613 1.02245,0.456706 1.561875,0.07888 z"
     id="path4146"
     inkscape:connector-curvature="0" />
  <path
     style="fill:#050505"
     d="m 6.6871562,38.805771 c -1.184966,-0.37436 -2.066841,-1.811601 -2.410245,-3.928115 -0.526149,-3.242831 0.101947,-10.278038 1.349283,-15.113275 1.396118,-5.411954 4.153691,-9.666334 6.7557558,-10.4227745 1.180223,-0.3431 1.466234,-0.2846248 3.539551,0.7236615 2.380112,1.157489 3.905523,1.425441 8.096292,1.422181 4.293249,-0.0033 5.709528,-0.263214 8.297053,-1.5224431 0.991225,-0.4823801 1.957588,-0.8770558 2.147474,-0.8770558 0.989037,0 2.220919,0.5819213 3.251279,1.5358569 2.534034,2.346067 4.476372,6.950882 5.506784,13.055266 0.786947,4.662037 0.92271,10.340092 0.296065,12.382592 -0.329186,1.072962 -0.891565,1.945889 -1.58425,2.459079 -0.80413,0.595759 -2.394368,0.495716 -3.857104,-0.242648 -1.490433,-0.752346 -4.070786,-3.331734 -5.069512,-5.067616 -0.875001,-1.520838 -1.654697,-2.297007 -2.982293,-2.968805 -1.675893,-0.848048 -3.104882,-1.112844 -6.005496,-1.112844 -2.900614,0 -4.329602,0.264796 -6.005494,1.112844 -1.327597,0.671798 -2.107292,1.447967 -2.982296,2.968805 -0.977186,1.698448 -3.582453,4.31817 -5.001672,5.029431 -1.1855878,0.594171 -2.5305568,0.821954 -3.3411748,0.56586 z M 16.544291,22.989098 c 0,-0.63281 0.08997,-1.120525 0.227821,-1.234929 0.125306,-0.103991 0.665796,-0.213885 1.2011,-0.244212 l 0.973277,-0.05515 0,-1.156614 0,-1.156612 c 0.173716,-0.771096 -2.022769,-0.465119 -2.402204,-1.33455 l -0.08896,-1.156613 -0.973268,-0.05515 c -1.197819,-0.06786 -1.428929,0.175421 -1.428929,1.504182 l 0,0.936172 -1.112128,0.05298 -1.112129,0.05298 -0.05242,1.192402 -0.05242,1.1924 1.120062,0.05318 1.120058,0.05317 0.04692,0.800732 c 0.553653,2.657945 0.342795,2.89613 2.533211,1.601466 z m 16.864756,0.768856 c 0.580596,-0.406665 0.54061,-1.362412 -0.07734,-1.848487 -1.133608,-0.891697 -2.507784,0.746358 -1.484534,1.769606 0.426611,0.426613 1.02245,0.456706 1.561875,0.07889 z m -2.607778,-2.403738 c 0.785663,-0.420477 0.713011,-1.715969 -0.11746,-2.094355 -1.184328,-0.539614 -2.249204,1.006647 -1.327806,1.928045 0.394736,0.394734 0.908068,0.453805 1.445266,0.16631 z m 5.138538,-0.16631 c 1.02325,-1.023249 -0.350927,-2.661302 -1.484534,-1.769608 -0.86841,0.683094 -0.404368,2.125489 0.683802,2.125489 0.244669,0 0.604997,-0.160147 0.800732,-0.355881 z m -2.53076,-2.412288 c 0.580596,-0.406664 0.54061,-1.362411 -0.07734,-1.848487 -1.133608,-0.891696 -2.507784,0.74636 -1.484534,1.769608 0.426611,0.426613 1.02245,0.456706 1.561875,0.07888 z"
     id="path4138"
     inkscape:connector-curvature="0"
     sodipodi:nodetypes="ssssssssssssssssssssscsccccccscccccccccsssssssssssssssss" />
  <path
     inkscape:connector-curvature="0"
     id="path4140"
     d="m 6.6871562,38.805771 c -1.184966,-0.37436 -2.066841,-1.811601 -2.410245,-3.928115 -0.526149,-3.242831 0.101947,-10.278038 1.349283,-15.113275 1.396118,-5.411954 4.153691,-9.666334 6.7557558,-10.4227745 1.180223,-0.3431 1.466234,-0.2846248 3.539551,0.7236615 2.380112,1.157489 3.905523,1.425441 8.096292,1.422181 4.293249,-0.0033 5.709528,-0.263214 8.297053,-1.5224431 0.991225,-0.4823801 1.957588,-0.8770558 2.147474,-0.8770558 0.989037,0 2.220919,0.5819213 3.251279,1.5358569 2.534034,2.346067 4.476372,6.950882 5.506784,13.055266 0.786947,4.662037 0.92271,10.340092 0.296065,12.382592 -0.329186,1.072962 -0.891565,1.945889 -1.58425,2.459079 -0.80413,0.595759 -2.394368,0.495716 -3.857104,-0.242648 -1.490433,-0.752346 -4.070786,-3.331734 -5.069512,-5.067616 -0.875001,-1.520838 -1.654697,-2.297007 -2.982293,-2.968805 -1.675893,-0.848048 -3.104882,-1.112844 -6.005496,-1.112844 -2.900614,0 -4.329602,0.264796 -6.005494,1.112844 -1.327597,0.671798 -2.107292,1.447967 -2.982296,2.968805 -0.977186,1.698448 -3.582453,4.31817 -5.001672,5.029431 -1.1855878,0.594171 -2.5305568,0.821954 -3.3411748,0.56586 z m 9.7639778,-17.24419 c 0,0 0.986774,-0.0213 1.522078,-0.05161 l 0.973277,-0.05515 0,-1.156615 0,-1.156613 c -0.850023,-0.09459 -1.703307,-0.09865 -2.557171,-0.113748 l 0.154967,-1.220808 -0.08896,-1.156613 -0.973268,-0.05515 c -1.197819,-0.06786 -1.428929,0.175421 -1.428929,1.504182 l 0,0.936171 -1.112128,0.05298 -1.112129,0.05297 -0.05242,1.192402 -0.05242,1.192401 1.120062,0.05317 1.120058,0.05318 0.04692,0.800734 c 0.09422,1.60759 -0.167851,1.614305 1.123206,1.614305 l 1.410005,-0.01288 c 0.03433,-0.827599 -0.0327,-1.649586 -0.09314,-2.47336 z m 16.957913,2.196373 c 0.580596,-0.406665 0.54061,-1.362412 -0.07734,-1.848487 -1.133608,-0.891697 -2.507784,0.746358 -1.484534,1.769606 0.426611,0.426613 1.02245,0.456706 1.561875,0.07889 z m -2.607778,-2.403738 c 0.785663,-0.420477 0.713011,-1.715969 -0.11746,-2.094355 -1.184328,-0.539614 -2.249204,1.006647 -1.327806,1.928045 0.394736,0.394734 0.908068,0.453805 1.445266,0.16631 z m 5.138538,-0.16631 c 1.02325,-1.023249 -0.350927,-2.661302 -1.484534,-1.769608 -0.86841,0.683094 -0.404368,2.125489 0.683802,2.125489 0.244669,0 0.604997,-0.160147 0.800732,-0.355881 z m -2.53076,-2.412288 c 0.580596,-0.406664 0.54061,-1.362411 -0.07734,-1.848487 -1.133608,-0.891696 -2.507784,0.74636 -1.484534,1.769608 0.426611,0.426613 1.02245,0.456706 1.561875,0.07888 z"
     style="fill:#050505;stroke:#000000;stroke-width:0.1779405;stroke-miterlimit:4;stroke-dasharray:none;stroke-opacity:1"
     sodipodi:nodetypes="sssssssssssssssssssscscccccccscccccccccccssssssssssssssss" />
  <rect
     style="opacity:1;fill:#ffffff;fill-opacity:1;stroke:none;stroke-width:1;stroke-linecap:round;stroke-linejoin:round;stroke-miterlimit:4;stroke-dasharray:none;stroke-opacity:1"
     id="rect4142"
     width="2.7696414"
     height="7.8118095"
     x="13.967936"
     y="16.45977" />
  <rect
     y="11.446854"
     x="-21.750496"
     height="7.8118095"
     width="2.7696414"
     id="rect4144"
     style="opacity:1;fill:#ffffff;fill-opacity:1;stroke:none;stroke-width:1;stroke-linecap:round;stroke-linejoin:round;stroke-miterlimit:4;stroke-dasharray:none;stroke-opacity:1"
     transform="matrix(0,-1,1,0,0,0)" />
</svg>
