<?xml version="1.0" encoding="UTF-8" standalone="no"?>
<!-- Created with Inkscape (http://www.inkscape.org/) -->

<svg
   xmlns:dc="http://purl.org/dc/elements/1.1/"
   xmlns:cc="http://creativecommons.org/ns#"
   xmlns:rdf="http://www.w3.org/1999/02/22-rdf-syntax-ns#"
   xmlns:svg="http://www.w3.org/2000/svg"
   xmlns="http://www.w3.org/2000/svg"
   xmlns:sodipodi="http://sodipodi.sourceforge.net/DTD/sodipodi-0.dtd"
   xmlns:inkscape="http://www.inkscape.org/namespaces/inkscape"
   id="svg2"
   version="1.1"
   inkscape:version="0.91 r13725"
   width="48"
   height="48"
   viewBox="0 0 48 48"
   sodipodi:docname="preferences-other.svg">
  <metadata
     id="metadata8">
    <rdf:RDF>
      <cc:Work
         rdf:about="">
        <dc:format>image/svg+xml</dc:format>
        <dc:type
           rdf:resource="http://purl.org/dc/dcmitype/StillImage" />
        <dc:title></dc:title>
      </cc:Work>
    </rdf:RDF>
  </metadata>
  <defs
     id="defs6" />
  <sodipodi:namedview
     pagecolor="#ffffff"
     bordercolor="#666666"
     borderopacity="1"
     objecttolerance="10"
     gridtolerance="10"
     guidetolerance="10"
     inkscape:pageopacity="0"
     inkscape:pageshadow="2"
     inkscape:window-width="1920"
     inkscape:window-height="1029"
     id="namedview4"
     showgrid="false"
     inkscape:zoom="10.429825"
     inkscape:cx="15.841143"
     inkscape:cy="37.247169"
     inkscape:window-x="0"
     inkscape:window-y="0"
     inkscape:window-maximized="1"
     inkscape:current-layer="svg2" />
  <path
     inkscape:connector-curvature="0"
     id="path4140"
     d="m 12.965993,43.687544 c -0.33693,-0.171805 -0.779105,-0.539153 -0.98261,-0.816331 -0.34768,-0.47354 -0.372944,-0.775485 -0.418569,-5.00238 -0.02671,-2.47413 -0.09029,-4.614062 -0.141303,-4.755403 -0.06412,-0.177658 -0.573031,0.214386 -1.6486814,1.27007 -1.966783,1.930279 -2.249818,2.1134 -3.2665,2.1134 -1.6203224,0 -2.7106731,-1.337454 -2.4100891,-2.956277 0.1120087,-0.603228 0.5391422,-1.117961 2.9298451,-3.530726 1.539295,-1.5535 3.0524774,-2.982424 3.3626274,-3.175386 0.54667,-0.340113 0.963415,-0.351122 13.633292,-0.360114 11.19977,-0.0079 13.125352,0.02821 13.460621,0.252783 0.76749,0.514082 5.858767,5.535504 6.1151,6.031199 0.687948,1.330345 0.06063,3.077484 -1.271725,3.541878 -1.283137,0.447239 -1.875515,0.192893 -3.730701,-1.60183 -0.907371,-0.8778 -1.738568,-1.595999 -1.847104,-1.595999 -0.137574,0 -0.213427,1.402939 -0.250462,4.632391 -0.04998,4.358561 -0.075,4.662182 -0.423135,5.136372 -0.852038,1.160529 -0.512582,1.128723 -12.046609,1.128723 -9.597494,0 -10.501451,-0.02552 -11.063997,-0.31237 z M 12.865408,23.834316 c -0.481301,-0.10297 -0.548024,-0.203155 -0.670089,-1.006135 -0.297497,-1.957013 -0.491585,-2.81914 -0.687929,-3.055718 -0.267254,-0.322021 -1.5521884,-0.310253 -2.9311804,0.02684 l -1.071938,0.262037 -0.475401,-0.555252 c -0.82219,-0.960285 -0.782137,-1.133199 0.578239,-2.496276 1.753679,-1.757161 1.697675,-2.133042 -0.594143,-3.987792 -0.46674,-0.377728 -0.848618,-0.80089 -0.848618,-0.94036 0,-0.139468 0.16426,-0.575557 0.365025,-0.969087 l 0.365024,-0.715507 1.108892,0.141991 c 3.0295414,0.387926 3.3420954,0.165829 3.3420954,-2.3748725 0,-1.58363 0.02372,-1.6888694 0.442567,-1.9633088 0.243412,-0.1594866 0.696982,-0.302033 1.00793,-0.316765 0.51718,-0.024504 0.630635,0.079649 1.331253,1.2220706 0.421239,0.6868714 0.980489,1.4334443 1.242776,1.659057 0.690933,0.5943149 0.836123,0.5319495 3.296183,-1.4158556 l 0.710422,-0.5624926 0.718829,0.4756977 c 0.843308,0.5580762 0.870966,0.7696483 0.300381,2.2977787 -0.947101,2.5364995 -0.77359,2.8935835 1.669043,3.4349055 0.835219,0.185097 1.619074,0.413223 1.7419,0.506948 0.12392,0.09456 0.223321,0.551745 0.223321,1.027146 l 0,0.856732 -1.384587,0.461909 c -0.761523,0.254052 -1.655622,0.627179 -1.986885,0.829175 -0.548661,0.334559 -0.593016,0.424459 -0.498072,1.009532 0.05732,0.353249 0.387886,1.239574 0.73458,1.969612 0.695382,1.464279 0.671839,1.706224 -0.228406,2.347256 -0.571068,0.406636 -0.603581,0.396597 -2.353635,-0.726714 -1.878958,-1.20605 -2.136831,-1.128704 -3.221083,0.966126 -0.96399,1.862484 -0.962852,1.861669 -2.226494,1.591319 z m 3.677578,-5.439985 c 2.478902,-1.308369 2.966968,-4.649821 0.970747,-6.646042 -1.978102,-1.9781036 -5.133442,-1.565063 -6.520502,0.853549 -1.1374714,1.983404 -0.509111,4.466678 1.423949,5.627444 0.832037,0.499624 1.132382,0.580634 2.152681,0.580634 0.896389,0 1.377875,-0.101411 1.973125,-0.415585 z m 7.66566,5.420183 c 0,-0.172611 2.745481,-4.78056 3.441461,-5.776063 l 0.351996,-0.503481 -0.568669,-1.233742 c -1.169598,-2.537477 -1.143482,-4.9657 0.08003,-7.4413167 0.882728,-1.7860763 2.196325,-3.1008267 3.912314,-3.9157465 1.493282,-0.7091552 3.89667,-1.1757416 4.247765,-0.8246456 0.140621,0.1406202 -0.29618,1.0301433 -1.57062,3.1984908 -1.529134,2.601693 -1.765413,3.111437 -1.765413,3.808667 0,1.141523 0.496699,1.729837 2.328588,2.758091 1.784787,1.001814 2.770661,1.143192 3.618578,0.518921 0.266456,-0.196179 1.223854,-1.596398 2.12755,-3.111599 2.1932,-3.6772781 1.93988,-3.3679917 2.360155,-2.8815853 1.190507,1.3778483 1.561023,4.9606583 0.733651,7.0942693 -0.764896,1.972501 -1.758471,3.25165 -3.342271,4.302916 -1.391156,0.923397 -2.577751,1.335071 -4.248292,1.473892 l -1.430219,0.118852 -0.960297,1.295259 -0.960297,1.295259 -4.178006,0 c -2.631196,0 -4.178007,-0.06532 -4.178007,-0.176438 z"
     style="fill:#070707;stroke:#ffffff;stroke-opacity:1;stroke-width:8;stroke-miterlimit:4;stroke-dasharray:none;stroke-linejoin:round;stroke-linecap:round" />
  <path
     style="fill:#070707"
     d="m 12.965993,43.687544 c -0.33693,-0.171805 -0.779105,-0.539153 -0.98261,-0.816331 -0.34768,-0.47354 -0.372944,-0.775485 -0.418569,-5.00238 -0.02671,-2.47413 -0.09029,-4.614062 -0.141303,-4.755403 -0.06412,-0.177658 -0.573031,0.214386 -1.6486814,1.27007 -1.966783,1.930279 -2.249818,2.1134 -3.2665,2.1134 -1.6203224,0 -2.7106731,-1.337454 -2.4100891,-2.956277 0.1120087,-0.603228 0.5391422,-1.117961 2.9298451,-3.530726 1.539295,-1.5535 3.0524774,-2.982424 3.3626274,-3.175386 0.54667,-0.340113 0.963415,-0.351122 13.633292,-0.360114 11.19977,-0.0079 13.125352,0.02821 13.460621,0.252783 0.76749,0.514082 5.858767,5.535504 6.1151,6.031199 0.687948,1.330345 0.06063,3.077484 -1.271725,3.541878 -1.283137,0.447239 -1.875515,0.192893 -3.730701,-1.60183 -0.907371,-0.8778 -1.738568,-1.595999 -1.847104,-1.595999 -0.137574,0 -0.213427,1.402939 -0.250462,4.632391 -0.04998,4.358561 -0.075,4.662182 -0.423135,5.136372 -0.852038,1.160529 -0.512582,1.128723 -12.046609,1.128723 -9.597494,0 -10.501451,-0.02552 -11.063997,-0.31237 z M 12.865408,23.834316 c -0.481301,-0.10297 -0.548024,-0.203155 -0.670089,-1.006135 -0.297497,-1.957013 -0.491585,-2.81914 -0.687929,-3.055718 -0.267254,-0.322021 -1.5521884,-0.310253 -2.9311804,0.02684 l -1.071938,0.262037 -0.475401,-0.555252 c -0.82219,-0.960285 -0.782137,-1.133199 0.578239,-2.496276 1.753679,-1.757161 1.697675,-2.133042 -0.594143,-3.987792 -0.46674,-0.377728 -0.848618,-0.80089 -0.848618,-0.94036 0,-0.139468 0.16426,-0.575557 0.365025,-0.969087 l 0.365024,-0.715507 1.108892,0.141991 c 3.0295414,0.387926 3.3420954,0.165829 3.3420954,-2.3748725 0,-1.58363 0.02372,-1.6888694 0.442567,-1.9633088 0.243412,-0.1594866 0.696982,-0.302033 1.00793,-0.316765 0.51718,-0.024504 0.630635,0.079649 1.331253,1.2220706 0.421239,0.6868714 0.980489,1.4334443 1.242776,1.659057 0.690933,0.5943149 0.836123,0.5319495 3.296183,-1.4158556 l 0.710422,-0.5624926 0.718829,0.4756977 c 0.843308,0.5580762 0.870966,0.7696483 0.300381,2.2977787 -0.947101,2.5364995 -0.77359,2.8935835 1.669043,3.4349055 0.835219,0.185097 1.619074,0.413223 1.7419,0.506948 0.12392,0.09456 0.223321,0.551745 0.223321,1.027146 l 0,0.856732 -1.384587,0.461909 c -0.761523,0.254052 -1.655622,0.627179 -1.986885,0.829175 -0.548661,0.334559 -0.593016,0.424459 -0.498072,1.009532 0.05732,0.353249 0.387886,1.239574 0.73458,1.969612 0.695382,1.464279 0.671839,1.706224 -0.228406,2.347256 -0.571068,0.406636 -0.603581,0.396597 -2.353635,-0.726714 -1.878958,-1.20605 -2.136831,-1.128704 -3.221083,0.966126 -0.96399,1.862484 -0.962852,1.861669 -2.226494,1.591319 z m 3.677578,-5.439985 c 2.478902,-1.308369 2.966968,-4.649821 0.970747,-6.646042 -1.978102,-1.9781036 -5.133442,-1.565063 -6.520502,0.853549 -1.1374714,1.983404 -0.509111,4.466678 1.423949,5.627444 0.832037,0.499624 1.132382,0.580634 2.152681,0.580634 0.896389,0 1.377875,-0.101411 1.973125,-0.415585 z m 7.66566,5.420183 c 0,-0.172611 2.745481,-4.78056 3.441461,-5.776063 l 0.351996,-0.503481 -0.568669,-1.233742 c -1.169598,-2.537477 -1.143482,-4.9657 0.08003,-7.4413167 0.882728,-1.7860763 2.196325,-3.1008267 3.912314,-3.9157465 1.493282,-0.7091552 3.89667,-1.1757416 4.247765,-0.8246456 0.140621,0.1406202 -0.29618,1.0301433 -1.57062,3.1984908 -1.529134,2.601693 -1.765413,3.111437 -1.765413,3.808667 0,1.141523 0.496699,1.729837 2.328588,2.758091 1.784787,1.001814 2.770661,1.143192 3.618578,0.518921 0.266456,-0.196179 1.223854,-1.596398 2.12755,-3.111599 2.1932,-3.6772781 1.93988,-3.3679917 2.360155,-2.8815853 1.190507,1.3778483 1.561023,4.9606583 0.733651,7.0942693 -0.764896,1.972501 -1.758471,3.25165 -3.342271,4.302916 -1.391156,0.923397 -2.577751,1.335071 -4.248292,1.473892 l -1.430219,0.118852 -0.960297,1.295259 -0.960297,1.295259 -4.178006,0 c -2.631196,0 -4.178007,-0.06532 -4.178007,-0.176438 z"
     id="path4138"
     inkscape:connector-curvature="0" />
</svg>
