<?xml version="1.0" encoding="UTF-8" standalone="no"?>
<!-- Created with Inkscape (http://www.inkscape.org/) -->

<svg
   xmlns:dc="http://purl.org/dc/elements/1.1/"
   xmlns:cc="http://creativecommons.org/ns#"
   xmlns:rdf="http://www.w3.org/1999/02/22-rdf-syntax-ns#"
   xmlns:svg="http://www.w3.org/2000/svg"
   xmlns="http://www.w3.org/2000/svg"
   xmlns:sodipodi="http://sodipodi.sourceforge.net/DTD/sodipodi-0.dtd"
   xmlns:inkscape="http://www.inkscape.org/namespaces/inkscape"
   id="svg2"
   version="1.1"
   inkscape:version="0.91 r13725"
   width="48"
   height="48"
   viewBox="0 0 48 48"
   sodipodi:docname="system-help.svg">
  <metadata
     id="metadata8">
    <rdf:RDF>
      <cc:Work
         rdf:about="">
        <dc:format>image/svg+xml</dc:format>
        <dc:type
           rdf:resource="http://purl.org/dc/dcmitype/StillImage" />
        <dc:title></dc:title>
      </cc:Work>
    </rdf:RDF>
  </metadata>
  <defs
     id="defs6" />
  <sodipodi:namedview
     pagecolor="#ffffff"
     bordercolor="#666666"
     borderopacity="1"
     objecttolerance="10"
     gridtolerance="10"
     guidetolerance="10"
     inkscape:pageopacity="0"
     inkscape:pageshadow="2"
     inkscape:window-width="1920"
     inkscape:window-height="1029"
     id="namedview4"
     showgrid="false"
     inkscape:zoom="7.375"
     inkscape:cx="-17.931696"
     inkscape:cy="5.1331321"
     inkscape:window-x="0"
     inkscape:window-y="0"
     inkscape:window-maximized="1"
     inkscape:current-layer="svg2" />
  <path
     style="fill:#080808"
     d="m 8.4991733,43.656262 c -0.71866,-0.24685 -1.20554,-0.57897 -1.81162,-1.23577 -1.48629,-1.61067 -1.40477,-0.53983 -1.40477,-18.45323 0,-15.5099051 0.008,-15.8864431 0.36305,-16.8350861 0.24615,-0.657888 0.64285,-1.232066 1.23197,-1.783116 1.53722,-1.437886 0.81679,-1.382575 17.3000297,-1.328224 14.32465,0.04723 14.49951,0.05209 14.99805,0.416698 0.56279,0.411588 1.21703,1.579053 1.04285,1.860892 -0.0753,0.121873 -5.13985,0.182586 -15.24609,0.182772 -14.05448,1.79e-4 -15.1769797,0.02255 -15.7460097,0.312705 -0.9214,0.469833 -1.35287,1.167858 -1.35287,2.188659 0,1.0208001 0.43147,1.7188201 1.35287,2.1886501 0.56931,0.2903 1.7073597,0.31247 16.0692597,0.31299 14.36189,5.3e-4 15.49994,0.0227 16.06926,0.31298 0.33699,0.17183 0.77924,0.53945 0.98279,0.81692 0.36718,0.50056 0.37007,0.61868 0.37007,15.13075 0,14.51206 -0.003,14.63018 -0.37007,15.13074 -0.20355,0.27747 -0.6458,0.64509 -0.98279,0.81693 -0.56976,0.29052 -1.70877,0.31203 -16.24795,0.30687 -14.85541,-0.005 -15.6842597,-0.0224 -16.6180297,-0.34313 z m 19.3876997,-5.09993 c 3.48723,-0.72764 6.77741,-3.29198 8.37427,-6.52684 1.81809,-3.68302 1.83115,-7.36088 0.039,-10.99226 -3.7919,-7.6836 -14.19042,-9.23748 -19.96377,-2.98324 -4.74653,5.1419 -4.44078,12.84845 0.69651,17.55584 1.39507,1.27833 3.83664,2.56263 5.58263,2.93655 1.53449,0.32862 3.72426,0.33276 5.27131,0.01 z"
     id="path4138"
     inkscape:connector-curvature="0"
     sodipodi:nodetypes="ssscssscsssssccscccscssssscc" />
  <g
     transform="matrix(1.2307019,0,0,1.2107028,-4.7457859,-3.1356572)"
     id="text3797"
     style="font-style:normal;font-weight:normal;font-size:3.25557971px;line-height:125%;font-family:Sans;letter-spacing:0px;word-spacing:0px;fill:#000000;fill-opacity:1;fill-rule:nonzero;stroke:none;stroke-width:0.81389493;stroke-miterlimit:4">
    <path
       d="m 24.063811,20.393221 c -0.42974,10e-6 -0.835602,0.05373 -1.217587,0.161151 -0.38199,0.107444 -0.805758,0.280533 -1.271304,0.519265 l -0.752039,-2.023343 c 0.465547,-0.298416 1.014654,-0.525221 1.647323,-0.680416 0.632665,-0.167107 1.253395,-0.250667 1.862192,-0.250679 0.763971,1.2e-5 1.39067,0.101478 1.880097,0.304396 0.501353,0.202944 0.895278,0.459592 1.181775,0.769945 0.286484,0.310377 0.483447,0.650584 0.590888,1.020624 0.119364,0.370061 0.179049,0.722206 0.179057,1.056436 -8e-6,0.334248 -0.05373,0.644613 -0.161151,0.931095 -0.0955,0.274563 -0.220844,0.531211 -0.37602,0.769945 -0.155189,0.23875 -0.334246,0.465555 -0.53717,0.680416 -0.202938,0.214875 -0.3999,0.417806 -0.590888,0.608793 -0.143251,0.143252 -0.292465,0.298435 -0.447642,0.465548 -0.155188,0.155189 -0.298434,0.322308 -0.429737,0.50136 -0.119376,0.179062 -0.220841,0.370056 -0.304396,0.572982 -0.08356,0.190998 -0.125345,0.387961 -0.12534,0.590887 -5e-6,0.04775 -5e-6,0.119376 0,0.214869 -5e-6,0.0955 0.006,0.17906 0.01791,0.250679 l -2.363551,0 c -0.02388,-0.119367 -0.04178,-0.250675 -0.05372,-0.393925 -3e-6,-0.155178 -3e-6,-0.286486 0,-0.393925 -3e-6,-0.334235 0.04178,-0.632662 0.12534,-0.895284 0.08356,-0.274548 0.190991,-0.525228 0.322302,-0.752039 0.143243,-0.238736 0.304394,-0.459573 0.483454,-0.662511 0.179053,-0.202924 0.364078,-0.399886 0.555076,-0.590887 0.27455,-0.274546 0.525229,-0.543131 0.752039,-0.805756 0.2268,-0.274546 0.340203,-0.58491 0.340208,-0.931096 -5e-6,-0.286481 -0.113408,-0.531192 -0.340208,-0.734133 -0.214873,-0.202921 -0.537175,-0.304387 -0.966907,-0.304397 m 1.665229,9.006561 c -6e-6,0.525234 -0.173094,0.931096 -0.519265,1.217586 -0.334244,0.286491 -0.716232,0.429737 -1.145964,0.429737 -0.42974,0 -0.817696,-0.143246 -1.16387,-0.429737 -0.334242,-0.28649 -0.501361,-0.692352 -0.501359,-1.217586 -2e-6,-0.525232 0.167117,-0.931094 0.501359,-1.217587 0.346174,-0.286488 0.73413,-0.429733 1.16387,-0.429736 0.429732,3e-6 0.81172,0.143248 1.145964,0.429736 0.346171,0.286493 0.519259,0.692355 0.519265,1.217587"
       id="path2997"
       style="font-variant:normal;font-weight:bold;font-stretch:normal;font-size:17.90568733px;font-family:Ubuntu;-inkscape-font-specification:'Ubuntu Bold'"
       inkscape:connector-curvature="0" />
  </g>
</svg>
