<?xml version="1.0" encoding="UTF-8" standalone="no"?>
<!-- Created with Inkscape (http://www.inkscape.org/) -->

<svg
   xmlns:dc="http://purl.org/dc/elements/1.1/"
   xmlns:cc="http://creativecommons.org/ns#"
   xmlns:rdf="http://www.w3.org/1999/02/22-rdf-syntax-ns#"
   xmlns:svg="http://www.w3.org/2000/svg"
   xmlns="http://www.w3.org/2000/svg"
   version="1.0"
   width="48"
   height="48"
   viewBox="0 0 48 48"
   id="svg2"
   xml:space="preserve"><defs
   id="defs14" /><metadata
   id="metadata25"><rdf:RDF><cc:Work
       rdf:about=""><dc:format>image/svg+xml</dc:format><dc:type
         rdf:resource="http://purl.org/dc/dcmitype/StillImage" /><dc:title></dc:title></cc:Work></rdf:RDF></metadata>
	<g
   transform="matrix(1,0,0,-1,0,47)"
   id="g1311"><path
     d="M 40,39 H 12 L 8,35 V 8 h 32 v 31 z"
     id="path4837"
     style="fill:none;stroke:#ffffff;stroke-width:14;stroke-linecap:round;stroke-linejoin:round" /><path
     d="M 40,39 H 12 L 8,35 V 8 h 32 v 31 z"
     id="path9"
     style="fill:none;stroke:#000000;stroke-width:6;stroke-linecap:round;stroke-linejoin:round" /><path
     d="M 39.8,38.7 H 12 L 8.2,34.9 V 8.8 h 31.6 v 29.9 z"
     id="path11" /><path
     d="m 33,37 c 0,1.1 -0.9,2 -2,2 H 14 c -1.1,0 -2,-0.9 -2,-2 v -9 c 0,-1.1 0.9,-2 2,-2 h 17 c 1.1,0 2,0.9 2,2 v 9 z"
     id="path13"
     style="fill:#ffffff" /><path
     d="m 21,37 h -6 v -9 h 6 v 9 z"
     id="path15" /><path
     d="M 38,22 H 10 V 9 h 28 v 13 z"
     id="path17"
     style="fill:#ffffff" /></g>
	
</svg>