<?xml version="1.0" encoding="UTF-8" standalone="no"?>
<!-- Created with Inkscape (http://www.inkscape.org/) -->

<svg
   xmlns:dc="http://purl.org/dc/elements/1.1/"
   xmlns:cc="http://creativecommons.org/ns#"
   xmlns:rdf="http://www.w3.org/1999/02/22-rdf-syntax-ns#"
   xmlns:svg="http://www.w3.org/2000/svg"
   xmlns="http://www.w3.org/2000/svg"
   version="1.1"
   width="48"
   height="48"
   id="svg3304">
  <defs
     id="defs12" />
  <metadata
     id="metadata3309">
    <rdf:RDF>
      <cc:Work
         rdf:about="">
        <dc:format>image/svg+xml</dc:format>
        <dc:type
           rdf:resource="http://purl.org/dc/dcmitype/StillImage" />
        <dc:subject>
          <rdf:Bag>
            <rdf:li>battery</rdf:li>
            <rdf:li>recharge</rdf:li>
            <rdf:li>power</rdf:li>
            <rdf:li>acpi</rdf:li>
            <rdf:li>apm</rdf:li>
          </rdf:Bag>
        </dc:subject>
        <dc:title></dc:title>
        <dc:date>September 2006</dc:date>
        <dc:creator>
          <cc:Agent>
            <dc:title>Andreas Nilsson</dc:title>
          </cc:Agent>
        </dc:creator>
        <cc:license
           rdf:resource="http://creativecommons.org/licenses/LGPL/2.1/" />
      </cc:Work>
      <cc:License
         rdf:about="http://creativecommons.org/licenses/LGPL/2.1/">
        <cc:permits
           rdf:resource="http://web.resource.org/cc/Reproduction" />
        <cc:permits
           rdf:resource="http://web.resource.org/cc/Distribution" />
        <cc:requires
           rdf:resource="http://web.resource.org/cc/Notice" />
        <cc:permits
           rdf:resource="http://web.resource.org/cc/DerivativeWorks" />
        <cc:requires
           rdf:resource="http://web.resource.org/cc/ShareAlike" />
        <cc:requires
           rdf:resource="http://web.resource.org/cc/SourceCode" />
      </cc:License>
    </rdf:RDF>
  </metadata>
  <g
     id="layer1">
    <path
       d="M 20.281,2 C 17.353,2 15,4.3527 15,7.2813 V 8 H 13.156 C 9.7508,8 7,10.751 7,14.156 V 39.844 C 7,43.249 9.7508,46 13.156,46 H 33.844 C 37.249,46 40,43.249 40,39.844 V 14.156 C 40,10.751 37.249,8 33.844,8 H 32 V 7.2813 C 32,4.3527 29.647,2 26.719,2 h -6.438 z"
       id="rect7943"
       style="fill:none;stroke:#ffffff;stroke-width:4;stroke-linecap:round;stroke-opacity:1" />
    <rect
       width="26"
       height="31"
       rx="1.5003999"
       ry="1.5003999"
       x="10.5"
       y="11.5"
       id="rect5744"
       style="stroke:#000000;stroke-width:3;stroke-linecap:round" />
    <rect
       width="10"
       height="6"
       rx="1.5003999"
       ry="1.5003999"
       x="18.5"
       y="5.5"
       id="rect6634"
       style="fill:#ffffff;stroke:#000000;stroke-width:3;stroke-linecap:round" />
    <rect
       width="21.267"
       height="26.209"
       rx="1.5003999"
       ry="1.5003999"
       x="13"
       y="14"
       id="rect2758"
       style="fill:#ffffff;fill-rule:evenodd" />
    <path
       d="m 30,18.032 -4.42,5.389 3.791,3.344 L 20.097,37 21.157,28.014 17,24.903 20.881,18 30,18.032 z"
       id="path4046"
       style="fill-rule:evenodd" />
  </g>
</svg>
