<?xml version="1.0" encoding="UTF-8" standalone="no"?>
<!-- Created with Inkscape (http://www.inkscape.org/) -->

<svg
   xmlns:dc="http://purl.org/dc/elements/1.1/"
   xmlns:cc="http://creativecommons.org/ns#"
   xmlns:rdf="http://www.w3.org/1999/02/22-rdf-syntax-ns#"
   xmlns:svg="http://www.w3.org/2000/svg"
   xmlns="http://www.w3.org/2000/svg"
   xmlns:sodipodi="http://sodipodi.sourceforge.net/DTD/sodipodi-0.dtd"
   xmlns:inkscape="http://www.inkscape.org/namespaces/inkscape"
   id="svg2"
   sodipodi:docname="camera-web.svg"
   height="48px"
   sodipodi:version="0.32"
   width="48px"
   version="1.1"
   inkscape:version="0.48.3.1 r9886">
  <defs
     id="defs9" />
  <sodipodi:namedview
     id="base"
     borderopacity="1.0"
     showgrid="true"
     bordercolor="#666666"
     guidetolerance="1.0000000px"
     pagecolor="#ffffff"
     gridtolerance="1.0000000px"
     showguides="true"
     inkscape:zoom="9.8333333"
     inkscape:cx="28.076542"
     inkscape:cy="15.344067"
     inkscape:window-width="1680"
     inkscape:window-height="999"
     inkscape:window-x="0"
     inkscape:window-y="0"
     inkscape:window-maximized="1"
     inkscape:current-layer="g3817">
    <inkscape:grid
       id="GridFromPre046Settings"
       type="xygrid"
       originx="0.0000000px"
       originy="0.0000000px"
       spacingx="1.0000000px"
       spacingy="1.0000000px"
       color="#3f3fff"
       empcolor="#3f3fff"
       opacity="0.15"
       empopacity="0.38"
       empspacing="5" />
  </sodipodi:namedview>
  <metadata
     id="metadata7">
    <rdf:RDF>
      <cc:Work
         rdf:about="">
        <dc:format>image/svg+xml</dc:format>
        <dc:type
           rdf:resource="http://purl.org/dc/dcmitype/StillImage" />
        <cc:license
           rdf:resource="http://creativecommons.org/licenses/GPL/2.0/" />
        <dc:title></dc:title>
        <dc:description>A photo camera.</dc:description>
        <dc:contributor>
          <cc:Agent>
            <dc:title>Design based on existing icon in HighContast GNOME icon theme.</dc:title>
          </cc:Agent>
        </dc:contributor>
        <dc:creator>
          <cc:Agent>
            <dc:title>Luca Ferretti &lt;elle.uca@libero.it&gt;</dc:title>
          </cc:Agent>
        </dc:creator>
      </cc:Work>
      <cc:License
         rdf:about="http://creativecommons.org/licenses/GPL/2.0/">
        <cc:permits
           rdf:resource="http://web.resource.org/cc/Reproduction" />
        <cc:permits
           rdf:resource="http://web.resource.org/cc/Distribution" />
        <cc:requires
           rdf:resource="http://web.resource.org/cc/Notice" />
        <cc:permits
           rdf:resource="http://web.resource.org/cc/DerivativeWorks" />
        <cc:requires
           rdf:resource="http://web.resource.org/cc/ShareAlike" />
        <cc:requires
           rdf:resource="http://web.resource.org/cc/SourceCode" />
      </cc:License>
    </rdf:RDF>
  </metadata>
  <g
     id="g3817"
     style="stroke:#00ffff;stroke-opacity:1;stroke-width:8;stroke-miterlimit:4;stroke-dasharray:none">
    <rect
       y="-24.952736"
       x="15.047264"
       height="1.9052361"
       width="25.905235"
       id="rect3819"
       style="fill:#000000;fill-opacity:1;stroke:#00ffff;stroke-width:8;stroke-linecap:round;stroke-linejoin:round;stroke-miterlimit:4;stroke-opacity:1;stroke-dasharray:none"
       transform="matrix(0,1,-1,0,0,0)" />
    <path
       d="m 24.001372,5.3264298 c -8.265198,0 -15.0007537,6.7943892 -15.0007537,15.0852322 0,8.290843 6.7355557,15.085232 15.0007537,15.085232 8.26369,0 14.999246,-6.794389 14.999246,-15.085232 0,-8.290843 -6.735556,-15.0852322 -14.999246,-15.0852322 z m 0,7.4053412 c 4.21934,0 7.6105,3.406245 7.6105,7.679891 0,4.275155 -3.39116,7.679891 -7.6105,7.679891 -4.220848,0 -7.612008,-3.404736 -7.612008,-7.679891 0,-4.273646 3.39116,-7.679891 7.612008,-7.679891 z"
       style="fill:#000000;fill-opacity:1;fill-rule:evenodd;stroke:#ffffff;stroke-opacity:1;stroke-width:8;stroke-miterlimit:4;stroke-dasharray:none"
       sodipodi:nodetypes="cszzscsssc"
       id="path3821"
       inkscape:connector-curvature="0" />
    <path
       sodipodi:type="arc"
       style="fill:#000000;fill-opacity:1;stroke:#00ffff;stroke-width:8;stroke-linecap:round;stroke-linejoin:round;stroke-miterlimit:4;stroke-opacity:1;stroke-dasharray:none"
       id="path3823"
       sodipodi:cx="24"
       sodipodi:cy="21.67683"
       sodipodi:rx="6"
       sodipodi:ry="6"
       d="m 30,21.67683 a 6,6 0 1 1 -12,0 6,6 0 1 1 12,0 z"
       transform="translate(-0.05688167,-1.5933382)" />
    <path
       id="path3825"
       sodipodi:nodetypes="cszzscsssc"
       style="fill:#ffffff;fill-opacity:1;fill-rule:evenodd;stroke:#00ffff;stroke-opacity:1;stroke-width:8;stroke-miterlimit:4;stroke-dasharray:none"
       d="m 24.001118,10.411662 c -5.479,0 -9.944,4.504 -9.944,10 0,5.496 4.465,10 9.944,10 5.478,0 9.943,-4.504 9.943,-10 0,-5.496 -4.465,-10 -9.943,-10 z m 0,4.909 c 2.797,0 5.045,2.258 5.045,5.091 0,2.834 -2.248,5.091 -5.045,5.091 -2.798,0 -5.046,-2.257 -5.046,-5.091 0,-2.833 2.248,-5.091 5.046,-5.091 z"
       inkscape:connector-curvature="0" />
    <rect
       style="fill:#000000;fill-opacity:1;stroke:#ffffff;stroke-width:12;stroke-linecap:round;stroke-linejoin:round;stroke-miterlimit:4;stroke-opacity:1;stroke-dasharray:none"
       id="rect3827"
       width="25.905235"
       height="1.9052361"
       x="11.0475"
       y="39.047264" />
  </g>
  <g
     id="g3810">
    <rect
       transform="matrix(0,1,-1,0,0,0)"
       style="fill:#000000;fill-opacity:1;stroke:#000000;stroke-width:4.09499979;stroke-linecap:round;stroke-linejoin:round;stroke-miterlimit:4;stroke-opacity:1;stroke-dasharray:none"
       id="rect3779"
       width="25.905235"
       height="1.9052361"
       x="15.047264"
       y="-24.952736" />
    <path
       inkscape:connector-curvature="0"
       id="path3775"
       sodipodi:nodetypes="cszzscsssc"
       style="fill:#000000;fill-opacity:1;fill-rule:evenodd"
       d="m 24.001372,5.3264298 c -8.265198,0 -15.0007537,6.7943892 -15.0007537,15.0852322 0,8.290843 6.7355557,15.085232 15.0007537,15.085232 8.26369,0 14.999246,-6.794389 14.999246,-15.085232 0,-8.290843 -6.735556,-15.0852322 -14.999246,-15.0852322 z m 0,7.4053412 c 4.21934,0 7.6105,3.406245 7.6105,7.679891 0,4.275155 -3.39116,7.679891 -7.6105,7.679891 -4.220848,0 -7.612008,-3.404736 -7.612008,-7.679891 0,-4.273646 3.39116,-7.679891 7.612008,-7.679891 z" />
    <path
       transform="translate(-0.05688167,-1.5933382)"
       d="m 30,21.67683 a 6,6 0 1 1 -12,0 6,6 0 1 1 12,0 z"
       sodipodi:ry="6"
       sodipodi:rx="6"
       sodipodi:cy="21.67683"
       sodipodi:cx="24"
       id="path3781"
       style="fill:#000000;fill-opacity:1;stroke:#000000;stroke-width:4.09499979;stroke-linecap:round;stroke-linejoin:round;stroke-miterlimit:4;stroke-opacity:1;stroke-dasharray:none"
       sodipodi:type="arc" />
    <path
       inkscape:connector-curvature="0"
       d="m 24.001118,10.411662 c -5.479,0 -9.944,4.504 -9.944,10 0,5.496 4.465,10 9.944,10 5.478,0 9.943,-4.504 9.943,-10 0,-5.496 -4.465,-10 -9.943,-10 z m 0,4.909 c 2.797,0 5.045,2.258 5.045,5.091 0,2.834 -2.248,5.091 -5.045,5.091 -2.798,0 -5.046,-2.257 -5.046,-5.091 0,-2.833 2.248,-5.091 5.046,-5.091 z"
       style="fill:#ffffff;fill-opacity:1;fill-rule:evenodd"
       sodipodi:nodetypes="cszzscsssc"
       id="path12070" />
    <rect
       y="39.047264"
       x="11.0475"
       height="1.9052361"
       width="25.905235"
       id="rect3777"
       style="fill:#000000;fill-opacity:1;stroke:#000000;stroke-width:4.09499979;stroke-linecap:round;stroke-linejoin:round;stroke-miterlimit:4;stroke-opacity:1;stroke-dasharray:none" />
  </g>
</svg>
