<?xml version="1.0" encoding="UTF-8" standalone="no"?>
<!-- Created with Inkscape (http://www.inkscape.org/) -->

<svg
   xmlns:dc="http://purl.org/dc/elements/1.1/"
   xmlns:cc="http://creativecommons.org/ns#"
   xmlns:rdf="http://www.w3.org/1999/02/22-rdf-syntax-ns#"
   xmlns:svg="http://www.w3.org/2000/svg"
   xmlns="http://www.w3.org/2000/svg"
   version="1.0"
   width="48"
   height="48"
   viewBox="0 0 48 48"
   id="svg2"
   xml:space="preserve"><defs
   id="defs16" /><metadata
   id="metadata31"><rdf:RDF><cc:Work
       rdf:about=""><dc:format>image/svg+xml</dc:format><dc:type
         rdf:resource="http://purl.org/dc/dcmitype/StillImage" /><dc:title></dc:title></cc:Work></rdf:RDF></metadata>
	<rect
   width="48"
   height="48"
   rx="0"
   ry="0"
   x="0"
   y="0"
   id="rect3981"
   style="fill:none" /><g
   id="g3100"
   style="fill:#ffffff;stroke:#ffffff;stroke-width:8"><path
     d="m 41,42 c 0,0.4 -0.6,1 -1,1 H 8 C 7.6,43 7,42.4 7,42 v -2 c 0,-0.4 0.5,-0.7 0.9,-0.7 h 31.9 c 0.4,0 1.2,0.3 1.2,0.7 v 2 z"
     id="path3102"
     style="fill:#ffffff;stroke:#ffffff;stroke-width:8;stroke-linejoin:round" /><path
     d="m 44,39 c 0,0.4 -0.6,1 -1,1 H 5 C 4.6,40 4,39.4 4,39 V 25 c 0,-0.4 0.6,-1 1,-1 h 38 c 0.4,0 1,0.6 1,1 v 14 z"
     id="path3104"
     style="fill:#ffffff;stroke:#ffffff;stroke-width:8;stroke-linejoin:round" /><path
     d="M 12,4 C 9,4 8,6 8,8 V 26 H 40 V 8 C 40,6 39,4 36,4 H 12 z"
     id="path3106"
     style="fill:#ffffff;stroke:#ffffff;stroke-width:8;stroke-linejoin:round" /></g><g
   id="g3095"><path
     d="m 41,42 c 0,0.4 -0.6,1 -1,1 H 8 C 7.6,43 7,42.4 7,42 v -2 c 0,-0.4 0.5,-0.7 0.9,-0.7 h 31.9 c 0.4,0 1.2,0.3 1.2,0.7 v 2 z"
     id="path13" /><path
     d="m 44,39 c 0,0.4 -0.6,1 -1,1 H 5 C 4.6,40 4,39.4 4,39 V 25 c 0,-0.4 0.6,-1 1,-1 h 38 c 0.4,0 1,0.6 1,1 v 14 z"
     id="path15" /><path
     d="M 12,4 C 9,4 8,6 8,8 V 26 H 40 V 8 C 40,6 39,4 36,4 H 12 z"
     id="path17" /></g><path
   d="M 36,24 H 12 V 9 c 0,0 0,-1 1,-1 h 22 c 1,0 1,1 1,1 v 15 z"
   id="path19"
   style="fill:#ffffff" />
<path
   d="M 11,37 H 37"
   id="path1315"
   style="fill:#ffffff;fill-rule:evenodd;stroke:#ffffff;stroke-width:4" /></svg>