<?xml version="1.0" encoding="UTF-8" standalone="no"?>
<!-- Created with Inkscape (http://www.inkscape.org/) -->

<svg
   xmlns:dc="http://purl.org/dc/elements/1.1/"
   xmlns:cc="http://creativecommons.org/ns#"
   xmlns:rdf="http://www.w3.org/1999/02/22-rdf-syntax-ns#"
   xmlns:svg="http://www.w3.org/2000/svg"
   xmlns="http://www.w3.org/2000/svg"
   xmlns:sodipodi="http://sodipodi.sourceforge.net/DTD/sodipodi-0.dtd"
   xmlns:inkscape="http://www.inkscape.org/namespaces/inkscape"
   version="1.1"
   width="48"
   height="48"
   id="svg2"
   inkscape:version="0.48.3.1 r9886"
   sodipodi:docname="drive-harddisk-root.svg">
  <sodipodi:namedview
     pagecolor="#ffffff"
     bordercolor="#666666"
     borderopacity="1"
     objecttolerance="10"
     gridtolerance="10"
     guidetolerance="10"
     inkscape:pageopacity="0"
     inkscape:pageshadow="2"
     inkscape:window-width="736"
     inkscape:window-height="480"
     id="namedview11"
     showgrid="false"
     inkscape:zoom="4.9166667"
     inkscape:cx="24"
     inkscape:cy="24"
     inkscape:window-x="0"
     inkscape:window-y="0"
     inkscape:window-maximized="0"
     inkscape:current-layer="layer1" />
  <defs
     id="defs11" />
  <metadata
     id="metadata7">
    <rdf:RDF>
      <cc:Work
         rdf:about="">
        <dc:format>image/svg+xml</dc:format>
        <dc:type
           rdf:resource="http://purl.org/dc/dcmitype/StillImage" />
        <cc:license
           rdf:resource="http://creativecommons.org/licenses/GPL/2.0/" />
        <dc:title />
        <dc:creator>
          <cc:Agent>
            <dc:title>Luca Ferretti &lt;elle.uca@libero.it&gt;</dc:title>
          </cc:Agent>
        </dc:creator>
        <dc:contributor>
          <cc:Agent>
            <dc:title>Shape based on exising PNG icon in gnome-icon-theme</dc:title>
          </cc:Agent>
        </dc:contributor>
        <dc:subject>
          <rdf:Bag>
            <rdf:li>hard disk</rdf:li>
          </rdf:Bag>
        </dc:subject>
      </cc:Work>
      <cc:License
         rdf:about="http://creativecommons.org/licenses/GPL/2.0/">
        <cc:permits
           rdf:resource="http://web.resource.org/cc/Reproduction" />
        <cc:permits
           rdf:resource="http://web.resource.org/cc/Distribution" />
        <cc:requires
           rdf:resource="http://web.resource.org/cc/Notice" />
        <cc:permits
           rdf:resource="http://web.resource.org/cc/DerivativeWorks" />
        <cc:requires
           rdf:resource="http://web.resource.org/cc/ShareAlike" />
        <cc:requires
           rdf:resource="http://web.resource.org/cc/SourceCode" />
      </cc:License>
    </rdf:RDF>
  </metadata>
  <g
     id="layer1">
    <rect
       width="48"
       height="48"
       rx="0"
       ry="0"
       x="0"
       y="0"
       id="rect6226"
       style="fill:none" />
    <path
       d="m 9,10 h 30 c 2.743,0 5,2.257 5,5 v 18 c 0,2.743 -2.257,5 -5,5 H 9 C 6.2571,38 4,35.743 4,33 V 15 c 0,-2.743 2.2571,-5 5,-5 z"
       id="path4040"
       style="fill:#ffffff;fill-rule:evenodd;stroke:#ffffff;stroke-width:8;stroke-miterlimit:4;stroke-dasharray:none" />
    <path
       d="m 9,10 h 30 c 2.743,0 5,2.257 5,5 v 18 c 0,2.743 -2.257,5 -5,5 H 9 C 6.2571,38 4,35.743 4,33 V 15 c 0,-2.743 2.2571,-5 5,-5 z"
       id="rect3311"
       style="fill-rule:evenodd" />
    <path
       d="m 11,14 h 26 c 2,0 3,1 3,3 v 14 c 0,2 -1,3 -3,3 H 11 C 9,34 8,33 8,31 V 17 c 0,-2 1,-3 3,-3 z"
       id="path4768"
       style="fill:#ffffff;fill-rule:evenodd" />
    <rect
       width="9"
       height="6"
       rx="2"
       ry="2"
       x="27"
       y="25"
       id="rect5498"
       style="fill:#d30000;fill-opacity:1;fill-rule:evenodd" />
  </g>
</svg>
