<?xml version="1.0" encoding="UTF-8" standalone="no"?>
<!-- Generator: Adobe Illustrator 9.0, SVG Export Plug-In  -->

<svg
   xmlns:dc="http://purl.org/dc/elements/1.1/"
   xmlns:cc="http://creativecommons.org/ns#"
   xmlns:rdf="http://www.w3.org/1999/02/22-rdf-syntax-ns#"
   xmlns:svg="http://www.w3.org/2000/svg"
   xmlns="http://www.w3.org/2000/svg"
   xmlns:sodipodi="http://sodipodi.sourceforge.net/DTD/sodipodi-0.dtd"
   xmlns:inkscape="http://www.inkscape.org/namespaces/inkscape"
   width="48"
   height="48"
   viewBox="0 0 48 48"
   xml:space="preserve"
   id="svg2"
   sodipodi:version="0.32"
   inkscape:version="0.48.3.1 r9886"
   sodipodi:docname="input-tablet.svg"
   inkscape:output_extension="org.inkscape.output.svg.inkscape"
   version="1.0"><metadata
   id="metadata32"><rdf:RDF><cc:Work
       rdf:about=""><dc:format>image/svg+xml</dc:format><dc:type
         rdf:resource="http://purl.org/dc/dcmitype/StillImage" /></cc:Work></rdf:RDF></metadata><defs
   id="defs30" /><sodipodi:namedview
   inkscape:window-height="614"
   inkscape:window-width="772"
   inkscape:pageshadow="2"
   inkscape:pageopacity="0.0"
   guidetolerance="10000"
   gridtolerance="10000"
   objecttolerance="10000"
   borderopacity="1.0"
   bordercolor="#666666"
   pagecolor="#ffffff"
   id="base"
   showgrid="true"
   inkscape:zoom="3.3916667"
   inkscape:cx="18.468262"
   inkscape:cy="1.0997145"
   inkscape:window-x="1"
   inkscape:window-y="42"
   inkscape:current-layer="svg2"
   width="48px"
   height="48px"
   inkscape:window-maximized="0" />
	
	
	
<g
   id="g3765"
   style="stroke:#ffffff;stroke-opacity:1;stroke-width:8;stroke-miterlimit:4;stroke-dasharray:none"><path
     style="fill:#000000;fill-opacity:1;fill-rule:nonzero;stroke:#ffffff;stroke-opacity:1;stroke-width:9.09016266000000073;stroke-miterlimit:4;stroke-dasharray:none"
     d="m 33.163528,3.2651389 c -0.558666,0 -1.112402,0.2085832 -1.538538,0.6228265 L 8.5739153,26.472198 c -0.2269803,0.240421 -0.3922225,0.52617 -0.485854,0.839461 L 3.3644804,41.988702 c -0.1926943,0.595839 -0.1015519,1.232837 0.2429271,1.760163 0.3444789,0.527328 0.9015271,0.89054 1.5385378,0.974858 0.3689872,0.0377 0.7383142,-0.02127 1.0796755,-0.162476 L 19.613598,39.524475 c 0.264568,-0.111114 0.501605,-0.28597 0.701789,-0.487429 L 44.095243,15.992464 c 0.852822,-0.827955 0.852823,-2.17786 0,-3.005815 L 34.729057,3.8879654 C 34.30292,3.4737221 33.722193,3.2651389 33.163528,3.2651389 z M 9.9505018,28.286518 l 4.6965882,0.514509 4.156752,4.034833 0.512846,4.034833 -8.664397,3.709879 -3.4549621,-3.547402 2.7531729,-8.746652 z"
     id="path3767"
     inkscape:connector-curvature="0"
     transform="matrix(0.88007226,0,0,0.88007226,2.8782657,2.8782656)" /><g
     id="g3769"
     style="fill:#ffffff;fill-opacity:1;fill-rule:nonzero;stroke:#ffffff;stroke-opacity:1;stroke-width:4.60406224000000019;stroke-miterlimit:4;stroke-dasharray:none"
     transform="matrix(1.7657864,0,0,-1.7098556,-25.430756,66.305928)">
		
		
		
		<path
   style="fill:#ffffff;fill-opacity:1;stroke:#ffffff;stroke-opacity:1;stroke-width:4.60406224000000019;stroke-miterlimit:4;stroke-dasharray:none"
   d="M 22.6,21.9 25,19.5"
   id="path3771"
   sodipodi:nodetypes="cc"
   inkscape:connector-curvature="0" />
		
	</g></g><g
   id="g3760"><path
     transform="matrix(0.88007226,0,0,0.88007226,2.8782657,2.8782656)"
     inkscape:connector-curvature="0"
     id="path16"
     d="m 33.163528,3.2651389 c -0.558666,0 -1.112402,0.2085832 -1.538538,0.6228265 L 8.5739153,26.472198 c -0.2269803,0.240421 -0.3922225,0.52617 -0.485854,0.839461 L 3.3644804,41.988702 c -0.1926943,0.595839 -0.1015519,1.232837 0.2429271,1.760163 0.3444789,0.527328 0.9015271,0.89054 1.5385378,0.974858 0.3689872,0.0377 0.7383142,-0.02127 1.0796755,-0.162476 L 19.613598,39.524475 c 0.264568,-0.111114 0.501605,-0.28597 0.701789,-0.487429 L 44.095243,15.992464 c 0.852822,-0.827955 0.852823,-2.17786 0,-3.005815 L 34.729057,3.8879654 C 34.30292,3.4737221 33.722193,3.2651389 33.163528,3.2651389 z M 9.9505018,28.286518 l 4.6965882,0.514509 4.156752,4.034833 0.512846,4.034833 -8.664397,3.709879 -3.4549621,-3.547402 2.7531729,-8.746652 z"
     style="fill:#000000;fill-opacity:1;fill-rule:nonzero;stroke:none;" /><g
     transform="matrix(1.7657864,0,0,-1.7098556,-25.430756,66.305928)"
     style="fill:#ffffff;fill-opacity:1;fill-rule:nonzero;stroke:none;"
     id="Layer_x0020_4">
		
		
		
		<path
   inkscape:connector-curvature="0"
   sodipodi:nodetypes="cc"
   id="path22"
   d="M 22.6,21.9 25,19.5"
   style="fill:#ffffff;fill-opacity:1;stroke:none" />
		
	</g></g></svg>