<?xml version="1.0" encoding="UTF-8" standalone="no"?>
<!-- Created with Inkscape (http://www.inkscape.org/) -->

<svg
   xmlns:dc="http://purl.org/dc/elements/1.1/"
   xmlns:cc="http://creativecommons.org/ns#"
   xmlns:rdf="http://www.w3.org/1999/02/22-rdf-syntax-ns#"
   xmlns:svg="http://www.w3.org/2000/svg"
   xmlns="http://www.w3.org/2000/svg"
   xmlns:sodipodi="http://sodipodi.sourceforge.net/DTD/sodipodi-0.dtd"
   xmlns:inkscape="http://www.inkscape.org/namespaces/inkscape"
   version="1.1"
   width="48"
   height="48"
   id="svg1872"
   inkscape:version="0.48.3.1 r9886"
   sodipodi:docname="irda.svg">
  <sodipodi:namedview
     pagecolor="#ffffff"
     bordercolor="#666666"
     borderopacity="1"
     objecttolerance="10"
     gridtolerance="10"
     guidetolerance="10"
     inkscape:pageopacity="0"
     inkscape:pageshadow="2"
     inkscape:window-width="1366"
     inkscape:window-height="739"
     id="namedview14"
     showgrid="false"
     inkscape:zoom="4.9166667"
     inkscape:cx="-13.268525"
     inkscape:cy="49.050156"
     inkscape:window-x="1680"
     inkscape:window-y="0"
     inkscape:window-maximized="1"
     inkscape:current-layer="layer1" />
  <defs
     id="defs15" />
  <metadata
     id="metadata1877">
    <rdf:RDF>
      <cc:Work
         rdf:about="">
        <dc:format>image/svg+xml</dc:format>
        <dc:type
           rdf:resource="http://purl.org/dc/dcmitype/StillImage" />
        <dc:title />
        <dc:creator>
          <cc:Agent>
            <dc:title>Luca Ferretti &lt;elle.uca@libero.it&gt;</dc:title>
          </cc:Agent>
        </dc:creator>
        <dc:subject>
          <rdf:Bag>
            <rdf:li>audio volume high</rdf:li>
          </rdf:Bag>
        </dc:subject>
        <dc:description>A speaker with ))) in front</dc:description>
        <cc:license
           rdf:resource="http://creativecommons.org/licenses/LGPL/2.1/" />
      </cc:Work>
      <cc:License
         rdf:about="http://creativecommons.org/licenses/LGPL/2.1/">
        <cc:permits
           rdf:resource="http://web.resource.org/cc/Reproduction" />
        <cc:permits
           rdf:resource="http://web.resource.org/cc/Distribution" />
        <cc:requires
           rdf:resource="http://web.resource.org/cc/Notice" />
        <cc:permits
           rdf:resource="http://web.resource.org/cc/DerivativeWorks" />
        <cc:requires
           rdf:resource="http://web.resource.org/cc/ShareAlike" />
        <cc:requires
           rdf:resource="http://web.resource.org/cc/SourceCode" />
      </cc:License>
    </rdf:RDF>
  </metadata>
  <g
     id="layer1">
    <path
       inkscape:connector-curvature="0"
       style="fill:none;stroke:#ffffff;stroke-width:12;stroke-linecap:round;stroke-linejoin:round;stroke-opacity:1;stroke-miterlimit:4;stroke-dasharray:none"
       id="path2997"
       d="m 23.293041,19.143324 c 3.535534,0.707107 4.949748,2.121321 5.656855,5.656855" />
    <rect
       width="48"
       height="48"
       rx="0"
       ry="0"
       x="0"
       y="0"
       id="rect6346"
       style="fill:none" />
    <path
       d="M 41.501041,27.805382 C 44.329468,15.07746 33.01576,3.7637523 20.287838,6.5921793"
       id="path9896"
       style="fill:none;stroke:#ffffff;stroke-width:12;stroke-linecap:round;stroke-linejoin:round;stroke-miterlimit:4;stroke-dasharray:none"
       inkscape:connector-curvature="0" />
    <path
       d="m 23.293041,13.48647 c 6.363961,-0.707107 12.020816,4.949748 11.313709,11.313709"
       id="path8122"
       style="fill:none;stroke:#ffffff;stroke-width:12;stroke-linecap:round;stroke-linejoin:round;stroke-miterlimit:4;stroke-dasharray:none"
       inkscape:connector-curvature="0" />
    <path
       d="M 23.646595,13.132917 C 30.010556,12.42581 35.66741,18.082664 34.960303,24.446625"
       id="path7235"
       style="fill:none;stroke:#c90016;stroke-width:4;stroke-linecap:round;stroke-linejoin:round;stroke-opacity:1"
       inkscape:connector-curvature="0" />
    <path
       d="M 41.501041,27.805382 C 44.329468,15.07746 33.01576,3.7637523 20.287838,6.5921793"
       id="path9009"
       style="fill:none;stroke:#c90016;stroke-width:4;stroke-linecap:round;stroke-linejoin:round;stroke-opacity:1"
       inkscape:connector-curvature="0" />
    <path
       d="m 23.293041,19.143324 c 3.535534,0.707107 4.949748,2.121321 5.656855,5.656855"
       id="path10785"
       style="fill:none;stroke:#c90016;stroke-width:4;stroke-linecap:round;stroke-linejoin:round;stroke-opacity:1"
       inkscape:connector-curvature="0" />
    <rect
       y="27.330709"
       x="10.242409"
       height="15.265488"
       width="11.117345"
       id="rect3761"
       style="fill:#000000;fill-opacity:1;stroke:#ffffff;stroke-width:10;stroke-linecap:round;stroke-linejoin:round;stroke-miterlimit:4;stroke-opacity:1;stroke-dasharray:none" />
    <rect
       style="fill:#000000;fill-opacity:1;stroke:#000000;stroke-width:2.8076067;stroke-linecap:round;stroke-linejoin:round;stroke-miterlimit:4;stroke-opacity:1;stroke-dasharray:none"
       id="rect3759"
       width="11.117345"
       height="15.265488"
       x="10.242409"
       y="27.330709" />
    <path
       sodipodi:type="arc"
       style="fill:#ffffff;fill-opacity:1;stroke:none"
       id="path3763"
       sodipodi:cx="10.830508"
       sodipodi:cy="27.915255"
       sodipodi:rx="0.61016947"
       sodipodi:ry="0.71186441"
       d="m 11.440678,27.915255 a 0.61016947,0.71186441 0 1 1 -1.220339,0 0.61016947,0.71186441 0 1 1 1.220339,0 z"
       transform="matrix(2.4583334,0,0,2.1071428,-14.82,-29.826428)" />
    <path
       transform="matrix(2.4583334,0,0,2.1071428,-10.82,-29.826428)"
       d="m 11.440678,27.915255 a 0.61016947,0.71186441 0 1 1 -1.220339,0 0.61016947,0.71186441 0 1 1 1.220339,0 z"
       sodipodi:ry="0.71186441"
       sodipodi:rx="0.61016947"
       sodipodi:cy="27.915255"
       sodipodi:cx="10.830508"
       id="path3765"
       style="fill:#ffffff;fill-opacity:1;stroke:none"
       sodipodi:type="arc" />
    <path
       transform="matrix(1.6388889,0,0,1.4047619,-5.9450001,-6.2192857)"
       d="m 11.440678,27.915255 a 0.61016947,0.71186441 0 1 1 -1.220339,0 0.61016947,0.71186441 0 1 1 1.220339,0 z"
       sodipodi:ry="0.71186441"
       sodipodi:rx="0.61016947"
       sodipodi:cy="27.915255"
       sodipodi:cx="10.830508"
       id="path3769"
       style="fill:#ffffff;fill-opacity:1;stroke:none"
       sodipodi:type="arc" />
    <path
       transform="matrix(1.6388889,0,0,1.4047619,2.0549994,-6.2192857)"
       d="m 11.440678,27.915255 a 0.61016947,0.71186441 0 1 1 -1.220339,0 0.61016947,0.71186441 0 1 1 1.220339,0 z"
       sodipodi:ry="0.71186441"
       sodipodi:rx="0.61016947"
       sodipodi:cy="27.915255"
       sodipodi:cx="10.830508"
       id="path3773"
       style="fill:#ffffff;fill-opacity:1;stroke:none"
       sodipodi:type="arc" />
    <path
       sodipodi:type="star"
       style="fill:#ffffff;fill-opacity:1;stroke:none"
       id="path3775"
       sodipodi:sides="4"
       sodipodi:cx="11.389831"
       sodipodi:cy="36.35593"
       sodipodi:r1="4.883739"
       sodipodi:r2="2.7593124"
       sodipodi:arg1="1.5707963"
       sodipodi:arg2="2.3561945"
       inkscape:flatsided="false"
       inkscape:rounded="0.5"
       inkscape:randomized="0"
       d="m 11.389831,41.239669 c -1.7611865,0 -0.705782,-1.687264 -1.9511289,-2.93261 -1.2453467,-1.245347 -2.9326105,-0.189942 -2.9326105,-1.951129 0,-1.761186 1.6872638,-0.705781 2.9326105,-1.951128 1.2453469,-1.245347 0.1899423,-2.932611 1.9511279,-2.932611 1.761187,0 0.705782,1.687264 1.951129,2.932611 1.245347,1.245346 2.932611,0.189942 2.932611,1.951128 0,1.761186 -1.687264,0.705782 -2.932611,1.951129 -1.245347,1.245347 -0.189942,2.93261 -1.951128,2.93261 z"
       transform="translate(4.2699084,0.76233068)" />
    <path
       sodipodi:type="arc"
       style="fill:#ffffff;fill-opacity:1;stroke:none"
       id="path3777"
       sodipodi:cx="10.830508"
       sodipodi:cy="27.915255"
       sodipodi:rx="0.61016947"
       sodipodi:ry="0.71186441"
       d="m 11.440678,27.915255 a 0.61016947,0.71186441 0 1 1 -1.220339,0 0.61016947,0.71186441 0 1 1 1.220339,0 z"
       transform="matrix(1.6388889,0,0,1.4047619,-5.9450001,1.7807143)" />
    <path
       sodipodi:type="arc"
       style="fill:#ffffff;fill-opacity:1;stroke:none"
       id="path3779"
       sodipodi:cx="10.830508"
       sodipodi:cy="27.915255"
       sodipodi:rx="0.61016947"
       sodipodi:ry="0.71186441"
       d="m 11.440678,27.915255 a 0.61016947,0.71186441 0 1 1 -1.220339,0 0.61016947,0.71186441 0 1 1 1.220339,0 z"
       transform="matrix(1.6388889,0,0,1.4047619,2.0549994,1.7807143)" />
  </g>
</svg>
