<?xml version="1.0" encoding="UTF-8" standalone="no"?>
<!-- Created with Inkscape (http://www.inkscape.org/) -->

<svg
   xmlns:dc="http://purl.org/dc/elements/1.1/"
   xmlns:cc="http://creativecommons.org/ns#"
   xmlns:rdf="http://www.w3.org/1999/02/22-rdf-syntax-ns#"
   xmlns:svg="http://www.w3.org/2000/svg"
   xmlns="http://www.w3.org/2000/svg"
   xmlns:sodipodi="http://sodipodi.sourceforge.net/DTD/sodipodi-0.dtd"
   xmlns:inkscape="http://www.inkscape.org/namespaces/inkscape"
   width="48"
   height="48"
   id="svg2"
   version="1.1"
   inkscape:version="0.48.4 r9939"
   sodipodi:docname="media-removable.svg">
  <defs
     id="defs4" />
  <sodipodi:namedview
     id="base"
     pagecolor="#ffffff"
     bordercolor="#666666"
     borderopacity="1.0"
     inkscape:pageopacity="0.0"
     inkscape:pageshadow="2"
     inkscape:zoom="7.9195959"
     inkscape:cx="-13.014006"
     inkscape:cy="28.85823"
     inkscape:document-units="px"
     inkscape:current-layer="g3804"
     showgrid="false"
     borderlayer="true"
     inkscape:showpageshadow="false"
     inkscape:window-width="1366"
     inkscape:window-height="718"
     inkscape:window-x="0"
     inkscape:window-y="0"
     inkscape:window-maximized="1" />
  <metadata
     id="metadata7">
    <rdf:RDF>
      <cc:Work
         rdf:about="">
        <dc:format>image/svg+xml</dc:format>
        <dc:type
           rdf:resource="http://purl.org/dc/dcmitype/StillImage" />
        <dc:title />
      </cc:Work>
    </rdf:RDF>
  </metadata>
  <g
     inkscape:label="Layer 1"
     inkscape:groupmode="layer"
     id="layer1"
     transform="translate(0,-1004.3622)">
    <g
       id="g3804"
       style="stroke:#ffffff;stroke-width:8;stroke-miterlimit:4;stroke-opacity:1;stroke-dasharray:none"
       transform="translate(-0.7996441,0.79964812)">
      <rect
         style="fill:#000000;fill-opacity:1;stroke:#ffffff;stroke-width:8;stroke-miterlimit:4;stroke-opacity:1;stroke-dasharray:none"
         id="rect3800"
         width="22"
         height="30"
         x="733.13245"
         y="697.29712"
         rx="2.1332829"
         ry="2.151526"
         transform="matrix(0.70710678,0.70710678,-0.70710678,0.70710678,0,0)" />
      <rect
         style="fill:#000000;fill-opacity:1;stroke:#ffffff;stroke-width:8;stroke-miterlimit:4;stroke-opacity:1;stroke-dasharray:none;stroke-linejoin:round;stroke-linecap:round"
         id="rect3802"
         width="12"
         height="7"
         x="738.13245"
         y="689.33771"
         rx="0"
         ry="0"
         transform="matrix(0.70710678,0.70710678,-0.70710678,0.70710678,0,0)" />
    </g>
    <rect
       style="fill:#000000;fill-opacity:1;stroke:none"
       id="rect3017"
       width="22"
       height="30"
       x="733.13245"
       y="698.42834"
       rx="2.1332829"
       ry="2.151526"
       transform="matrix(0.70710678,0.70710678,-0.70710678,0.70710678,0,0)" />
    <rect
       style="fill:#000000;fill-opacity:1;stroke:none"
       id="rect3787"
       width="12"
       height="7"
       x="738.13245"
       y="690.46893"
       rx="0"
       ry="0"
       transform="matrix(0.70710678,0.70710678,-0.70710678,0.70710678,0,0)" />
    <rect
       style="fill:#ffffff;fill-opacity:1;stroke:none"
       id="rect3789"
       width="2"
       height="1.5"
       x="741.13245"
       y="693.39954"
       transform="matrix(0.70710678,0.70710678,-0.70710678,0.70710678,0,0)" />
    <rect
       y="693.39954"
       x="745.13245"
       height="1.5"
       width="2"
       id="rect3791"
       style="fill:#ffffff;fill-opacity:1;stroke:none"
       transform="matrix(0.70710678,0.70710678,-0.70710678,0.70710678,0,0)" />
    <path
       inkscape:connector-curvature="0"
       d="m 28.233029,1031.1405 c -0.04079,0.017 -0.142222,-0.054 -0.299027,-0.2113 -0.137468,-0.1375 -0.272813,-0.2375 -0.321425,-0.238 -0.05996,-6e-4 -0.289638,0.2045 -0.795997,0.7109 -1.274206,1.2742 -1.215771,1.2578 -4.166693,1.1633 -0.715534,-0.023 -1.463238,-0.042 -1.66157,-0.043 -0.603507,0 -0.567006,-0.03 -2.460697,1.8852 -1.412955,1.4283 -1.633127,1.6659 -1.611574,1.736 0.01368,0.045 0.07656,0.2123 0.140227,0.3723 0.155839,0.3941 0.164951,0.9413 0.02285,1.3799 -0.111109,0.3428 -0.129016,0.3691 -0.520824,0.7609 -0.380989,0.381 -0.425183,0.4119 -0.720854,0.5088 -1.657764,0.5423 -3.21876,-1.0256 -2.634047,-2.6482 0.2291,-0.6367 0.818901,-1.1589 1.470294,-1.3019 0.486329,-0.1066 0.988586,-0.04 1.440793,0.1926 l 0.174919,0.09 0.585266,-0.586 c 0.855317,-0.8553 0.804233,-0.5855 0.700028,-3.738 -0.07035,-2.1291 -0.06284,-2.1512 1.150856,-3.3983 l 0.840199,-0.8638 -0.0454,-0.1444 c -0.02529,-0.079 -0.04657,-0.249 -0.0478,-0.3773 -0.0072,-0.7185 0.501098,-1.2376 1.208559,-1.2342 0.473489,0 0.866533,0.2466 1.104239,0.6859 0.282257,0.5219 0.04842,1.2907 -0.478011,1.5712 -0.302493,0.1612 -0.558698,0.1998 -0.897211,0.1349 l -0.285939,-0.055 -0.778595,0.7786 c -0.952261,0.9523 -1.005654,1.0416 -1.003162,1.6689 0.0042,0.9896 0.08663,3.282 0.119148,3.3146 0.02308,0.023 1.544674,-1.4801 4.495855,-4.4436 l 4.460904,-4.4783 -0.290221,-0.31 c -0.157993,-0.1722 -0.290185,-0.3383 -0.289639,-0.3731 -2.76e-4,-0.036 0.498056,-0.1949 1.182698,-0.3772 1.387549,-0.3695 1.376921,-0.3669 1.402363,-0.3415 0.01744,0.017 -0.191152,0.8514 -0.531731,2.1232 -0.07438,0.2776 -0.148545,0.4593 -0.187482,0.4592 -0.03563,-3e-4 -0.204142,-0.1306 -0.374913,-0.29 l -0.31002,-0.2903 -3.344233,3.3258 c -2.115522,2.1042 -3.342211,3.3525 -3.343668,3.3939 1.63e-4,0.074 1.012437,0.1252 2.763877,0.1397 0.829227,0.01 1.062777,-0.012 1.212349,-0.095 0.11366,-0.063 0.478153,-0.3971 0.941237,-0.8602 0.861822,-0.8618 0.82542,-0.7721 0.463953,-1.1335 -0.170757,-0.1708 -0.215273,-0.2407 -0.188554,-0.3003 0.04419,-0.1006 1.50932,-1.5657 1.609941,-1.6099 0.06725,-0.03 0.183942,0.072 0.917751,0.806 0.73381,0.7338 0.836097,0.8502 0.806029,0.9177 -0.04082,0.092 -1.534726,1.582 -1.621679,1.6217 z"
       id="path2998"
       style="fill:#ffffff;fill-opacity:1;stroke:#ffffff;stroke-width:0.702968;stroke-opacity:1" />
  </g>
</svg>
