<?xml version="1.0" encoding="UTF-8" standalone="no"?>
<!-- Generator: Adobe Illustrator 9.0, SVG Export Plug-In  -->

<svg
   xmlns:dc="http://purl.org/dc/elements/1.1/"
   xmlns:cc="http://creativecommons.org/ns#"
   xmlns:rdf="http://www.w3.org/1999/02/22-rdf-syntax-ns#"
   xmlns:svg="http://www.w3.org/2000/svg"
   xmlns="http://www.w3.org/2000/svg"
   xmlns:sodipodi="http://sodipodi.sourceforge.net/DTD/sodipodi-0.dtd"
   xmlns:inkscape="http://www.inkscape.org/namespaces/inkscape"
   id="svg2"
   xml:space="preserve"
   height="48"
   width="48"
   version="1.0"
   viewBox="0 0 48 48"
   inkscape:version="0.48.3.1 r9886"
   sodipodi:docname="gnome-dev-media-cf.svg"><defs
   id="defs13" /><sodipodi:namedview
   pagecolor="#ffffff"
   bordercolor="#666666"
   borderopacity="1"
   objecttolerance="10"
   gridtolerance="10"
   guidetolerance="10"
   inkscape:pageopacity="0"
   inkscape:pageshadow="2"
   inkscape:window-width="1366"
   inkscape:window-height="717"
   id="namedview11"
   showgrid="false"
   inkscape:zoom="6.9532167"
   inkscape:cx="15.65007"
   inkscape:cy="17.149277"
   inkscape:window-x="0"
   inkscape:window-y="0"
   inkscape:window-maximized="1"
   inkscape:current-layer="svg2" /><metadata
   id="metadata25"><rdf:RDF><cc:Work
       rdf:about=""><dc:format>image/svg+xml</dc:format><dc:type
         rdf:resource="http://purl.org/dc/dcmitype/StillImage" /><dc:title /><dc:creator><cc:Agent><dc:title>Luca Ferretti &lt;elle.uca@libero.it&gt;</dc:title></cc:Agent></dc:creator><dc:subject><rdf:Bag><rdf:li>media flash removable</rdf:li></rdf:Bag></dc:subject><dc:description>A flash removable media, such as SD</dc:description><cc:license
         rdf:resource="http://creativecommons.org/licenses/LGPL/2.1/" /></cc:Work><cc:License
       rdf:about="http://creativecommons.org/licenses/LGPL/2.1/"><cc:permits
         rdf:resource="http://web.resource.org/cc/Reproduction" /><cc:permits
         rdf:resource="http://web.resource.org/cc/Distribution" /><cc:requires
         rdf:resource="http://web.resource.org/cc/Notice" /><cc:permits
         rdf:resource="http://web.resource.org/cc/DerivativeWorks" /><cc:requires
         rdf:resource="http://web.resource.org/cc/ShareAlike" /><cc:requires
         rdf:resource="http://web.resource.org/cc/SourceCode" /></cc:License></rdf:RDF></metadata>
	<path
   id="path4837"
   style="fill:none;stroke:#ffffff;stroke-width:12;stroke-linecap:round;stroke-linejoin:round;stroke-miterlimit:4;stroke-dasharray:none"
   d="M 6.2353306,35.89516 V 16.069892 L 10.659371,12.10484 H 41.627654 V 35.89516 H 6.2353306 z"
   inkscape:connector-curvature="0" /><path
   id="path9"
   style="stroke:#000000;stroke-width:5.72843838;stroke-linecap:round;stroke-linejoin:round"
   d="M 7.7957116,34.846289 V 16.769139 L 11.829656,13.153711 H 40.067273 V 34.846289 H 7.7957116 z"
   inkscape:connector-curvature="0" />
<path
   id="path2776"
   style="fill:#ffffff;fill-rule:evenodd"
   d="m 38.678588,21.288428 v -7.23086 l -7.059405,3.615429 7.059405,3.615431 z"
   inkscape:connector-curvature="0" /><path
   id="path4548"
   style="fill:none;stroke:#ffffff;stroke-width:3.81895876"
   d="m 10.82117,15.865282 h 6.050919"
   inkscape:connector-curvature="0" /><path
   id="path5435"
   style="fill:none;stroke:#ffffff;stroke-width:3.81895876"
   d="m 10.82117,21.288428 h 6.050919"
   inkscape:connector-curvature="0" /><path
   id="path5437"
   style="fill:none;stroke:#ffffff;stroke-width:3.81895876"
   d="m 10.82117,26.711573 h 6.050919"
   inkscape:connector-curvature="0" /><path
   id="path5439"
   style="fill:none;stroke:#ffffff;stroke-width:3.81895876"
   d="m 10.82117,32.134718 h 6.050919"
   inkscape:connector-curvature="0" /><g
   transform="matrix(0.91182376,0,0,0.91182376,3.0192773,-3.3831637)"
   style="font-size:4px;font-style:normal;font-weight:normal;line-height:125%;letter-spacing:0px;word-spacing:0px;fill:#ffffff;fill-opacity:1;stroke:none;font-family:Sans"
   id="flowRoot3756"><path
     d="m 27.919,41.047202 c -1.577337,0 -2.781336,-0.438666 -3.612,-1.316 -0.821334,-0.877331 -1.232001,-2.12333 -1.232,-3.738 -1e-6,-0.802661 0.125999,-1.51666 0.378,-2.142 0.251999,-0.634659 0.597332,-1.166658 1.036,-1.596 0.438664,-0.438657 0.96133,-0.769991 1.568,-0.994 0.606662,-0.22399 1.264662,-0.33599 1.974,-0.336 0.410661,10e-6 0.783994,0.03268 1.12,0.098 0.335993,0.05601 0.629993,0.12601 0.882,0.21 0.251992,0.07468 0.461992,0.15401 0.63,0.238 0.167992,0.08401 0.289325,0.149343 0.364,0.196 l -0.63,1.764 c -0.298674,-0.158659 -0.648674,-0.293992 -1.05,-0.406 -0.392007,-0.111992 -0.840006,-0.167992 -1.344,-0.168 -0.336005,8e-6 -0.667338,0.05601 -0.994,0.168 -0.317338,0.112008 -0.602004,0.294008 -0.854,0.546 -0.24267,0.242674 -0.43867,0.560007 -0.588,0.952 -0.149336,0.392006 -0.224003,0.868006 -0.224,1.428 -3e-6,0.448005 0.04666,0.868004 0.14,1.26 0.102663,0.38267 0.26133,0.714003 0.476,0.994 0.223996,0.280002 0.513329,0.504002 0.868,0.672 0.354662,0.158669 0.783995,0.238002 1.288,0.238 0.317327,2e-6 0.601994,-0.01866 0.854,-0.056 0.251993,-0.03733 0.475993,-0.07933 0.672,-0.126 0.195993,-0.056 0.368659,-0.116664 0.518,-0.182 0.149325,-0.06533 0.284659,-0.125998 0.406,-0.182 l 0.602,1.75 c -0.308008,0.186667 -0.742008,0.354667 -1.302,0.504 -0.560007,0.149333 -1.208673,0.224 -1.946,0.224"
     style="font-size:14px;font-variant:normal;font-weight:bold;font-stretch:normal;fill:#ffffff;font-family:Ubuntu;-inkscape-font-specification:Ubuntu Bold"
     id="path4072"
     inkscape:connector-curvature="0" /><path
     d="m 32.573125,40.851202 0,-9.702 6.496,0 0,1.834 -4.312,0 0,2.03 3.836,0 0,1.834 -3.836,0 0,4.004 -2.184,0"
     style="font-size:14px;font-variant:normal;font-weight:bold;font-stretch:normal;fill:#ffffff;font-family:Ubuntu;-inkscape-font-specification:Ubuntu Bold"
     id="path4074"
     inkscape:connector-curvature="0" /></g></svg>