<?xml version="1.0" encoding="UTF-8" standalone="no"?>
<!-- Created with Inkscape (http://www.inkscape.org/) -->

<svg
   xmlns:dc="http://purl.org/dc/elements/1.1/"
   xmlns:cc="http://creativecommons.org/ns#"
   xmlns:rdf="http://www.w3.org/1999/02/22-rdf-syntax-ns#"
   xmlns:svg="http://www.w3.org/2000/svg"
   xmlns="http://www.w3.org/2000/svg"
   version="1.1"
   width="48"
   height="48"
   viewBox="0 0 48 48"
   id="svg2"
   xml:space="preserve"><defs
     id="defs14" /><metadata
     id="metadata19"><rdf:RDF><cc:Work
         rdf:about=""><dc:format>image/svg+xml</dc:format><dc:type
           rdf:resource="http://purl.org/dc/dcmitype/StillImage" /><dc:title></dc:title><dc:creator><cc:Agent><dc:title>Luca Ferretti &lt;elle.uca@libero.it&gt;</dc:title></cc:Agent></dc:creator><cc:license
           rdf:resource="" /><dc:date>December 2008</dc:date><dc:contributor><cc:Agent><dc:title>Based on text-x-generic</dc:title></cc:Agent></dc:contributor></cc:Work></rdf:RDF></metadata><rect
     width="40"
     height="18.711864"
     rx="4.3648567"
     ry="3.5954583"
     x="4"
     y="13.288136"
     id="rect3802"
     style="fill:#000000;fill-opacity:1;stroke:#ffffff;stroke-width:8;stroke-miterlimit:4;stroke-opacity:1;stroke-dasharray:none" /><rect
     width="40"
     height="18.711864"
     rx="4.3648567"
     ry="3.5954583"
     x="4"
     y="13.288136"
     id="rect3786"
     style="fill:#000000;fill-opacity:1;stroke:none" /><rect
     width="40"
     height="11.37713"
     rx="0"
     ry="0"
     x="4"
     y="21.288136"
     id="rect3788"
     style="fill:#000000;fill-opacity:1;stroke:none" /><path
     d="m 8.067283,23.982339 0,9.348192"
     id="path3790"
     style="fill:none;stroke:#ffffff;stroke-width:2;stroke-linecap:butt;stroke-linejoin:miter;stroke-miterlimit:4;stroke-opacity:1;stroke-dasharray:none" /><path
     d="m 12.067283,23.982339 0,9.348192"
     id="path3792"
     style="fill:none;stroke:#ffffff;stroke-width:2;stroke-linecap:butt;stroke-linejoin:miter;stroke-miterlimit:4;stroke-opacity:1;stroke-dasharray:none" /><path
     d="m 16.067283,23.982339 0,9.348192"
     id="path3794"
     style="fill:none;stroke:#ffffff;stroke-width:2;stroke-linecap:butt;stroke-linejoin:miter;stroke-miterlimit:4;stroke-opacity:1;stroke-dasharray:none" /><path
     d="m 30.058031,19.811607 a 2.0134566,2.0134566 0 1 1 -4.026913,0 2.0134566,2.0134566 0 1 1 4.026913,0 z"
     transform="matrix(0.99331668,0,0,0.99331668,0.1739744,0.14586398)"
     id="path3796"
     style="fill:#ffffff;fill-opacity:1;stroke:none" /><path
     d="m 30.058031,19.811607 a 2.0134566,2.0134566 0 1 1 -4.026913,0 2.0134566,2.0134566 0 1 1 4.026913,0 z"
     transform="matrix(0.99331668,0,0,0.99331668,5.1738561,0.14586398)"
     id="path3798"
     style="fill:#ffffff;fill-opacity:1;stroke:none" /><rect
     width="4"
     height="4"
     x="36.393002"
     y="17.825064"
     id="rect3800"
     style="fill:#ffffff;fill-opacity:1;stroke:none" /></svg>