<?xml version="1.0" encoding="UTF-8" standalone="no"?>
<!-- Created with Inkscape (http://www.inkscape.org/) -->

<svg
   xmlns:dc="http://purl.org/dc/elements/1.1/"
   xmlns:cc="http://creativecommons.org/ns#"
   xmlns:rdf="http://www.w3.org/1999/02/22-rdf-syntax-ns#"
   xmlns:svg="http://www.w3.org/2000/svg"
   xmlns="http://www.w3.org/2000/svg"
   version="1.1"
   width="48"
   height="48"
   id="svg4932">
  <defs
     id="defs23" />
  <metadata
     id="metadata4937">
    <rdf:RDF>
      <cc:Work
         rdf:about="">
        <dc:format>image/svg+xml</dc:format>
        <dc:type
           rdf:resource="http://purl.org/dc/dcmitype/StillImage" />
        <cc:license
           rdf:resource="http://creativecommons.org/licenses/LGPL/2.1/" />
        <dc:title></dc:title>
        <dc:creator>
          <cc:Agent>
            <dc:title>Andreas Nilsson</dc:title>
          </cc:Agent>
        </dc:creator>
        <dc:rights>
          <cc:Agent>
            <dc:title>Andreas Nilsson</dc:title>
          </cc:Agent>
        </dc:rights>
        <dc:source>http://www.gnome.org/</dc:source>
        <dc:subject>
          <rdf:Bag>
            <rdf:li>preferences</rdf:li>
            <rdf:li>desktop</rdf:li>
            <rdf:li>peripheral</rdf:li>
            <rdf:li>input devices</rdf:li>
            <rdf:li>mouse</rdf:li>
            <rdf:li>keyboard</rdf:li>
            <rdf:li>tablet</rdf:li>
          </rdf:Bag>
        </dc:subject>
      </cc:Work>
      <cc:License
         rdf:about="http://creativecommons.org/licenses/LGPL/2.1/">
        <cc:permits
           rdf:resource="http://web.resource.org/cc/Reproduction" />
        <cc:permits
           rdf:resource="http://web.resource.org/cc/Distribution" />
        <cc:requires
           rdf:resource="http://web.resource.org/cc/Notice" />
        <cc:permits
           rdf:resource="http://web.resource.org/cc/DerivativeWorks" />
        <cc:requires
           rdf:resource="http://web.resource.org/cc/ShareAlike" />
        <cc:requires
           rdf:resource="http://web.resource.org/cc/SourceCode" />
      </cc:License>
    </rdf:RDF>
  </metadata>
  <g
     id="layer1">
    <g
       transform="translate(-0.20339032,0.6101695)"
       id="g3012">
      <g
         id="g3816"
         style="stroke:#ffffff;stroke-width:8;stroke-linecap:round;stroke-linejoin:round;stroke-miterlimit:4;stroke-opacity:1;stroke-dasharray:none">
        <g
           transform="matrix(0.95046866,0,0,0.95046866,2.302453,1.2383085)"
           id="g3818"
           style="stroke:#ffffff;stroke-width:8.41690063;stroke-linecap:round;stroke-linejoin:round;stroke-miterlimit:4;stroke-opacity:1;stroke-dasharray:none">
          <rect
             width="36"
             height="31"
             x="2"
             y="6"
             id="rect3820"
             style="stroke:#ffffff;stroke-width:8.41690063;stroke-linecap:round;stroke-linejoin:round;stroke-miterlimit:4;stroke-opacity:1;stroke-dasharray:none" />
          <rect
             width="26"
             height="21"
             x="7"
             y="11"
             id="rect3822"
             style="fill:#ffffff;stroke:#ffffff;stroke-width:8.41690063;stroke-linecap:round;stroke-linejoin:round;stroke-miterlimit:4;stroke-opacity:1;stroke-dasharray:none" />
          <g
             transform="matrix(0.55124,0,0,0.55124,23.464,19.746)"
             id="g3824"
             style="stroke:#ffffff;stroke-width:15.26903057;stroke-linecap:round;stroke-linejoin:round;stroke-miterlimit:4;stroke-opacity:1;stroke-dasharray:none">
            <g
               id="g3826"
               style="stroke:#ffffff;stroke-width:15.26903057;stroke-linecap:round;stroke-linejoin:round;stroke-miterlimit:4;stroke-opacity:1;stroke-dasharray:none;display:none">
              <path
                 d="m 37.174,21.717 a 13.533,11.674 0 1 1 -27.065,0 13.533,11.674 0 1 1 27.065,0 z"
                 id="path3828"
                 style="fill-rule:evenodd;stroke:#ffffff;stroke-width:15.26903057;stroke-linecap:round;stroke-linejoin:round;stroke-miterlimit:4;stroke-opacity:1;stroke-dasharray:none" />
              <path
                 d="m 37.174,21.717 a 13.533,11.674 0 1 1 -27.065,0 13.533,11.674 0 1 1 27.065,0 z"
                 transform="translate(0,11.609)"
                 id="path3830"
                 style="fill-rule:evenodd;stroke:#ffffff;stroke-width:15.26903057;stroke-linecap:round;stroke-linejoin:round;stroke-miterlimit:4;stroke-opacity:1;stroke-dasharray:none" />
              <rect
                 width="27.174"
                 height="12.043"
                 rx="0"
                 ry="0"
                 x="10"
                 y="22"
                 id="rect3832"
                 style="fill-rule:evenodd;stroke:#ffffff;stroke-width:15.26903057;stroke-linecap:round;stroke-linejoin:round;stroke-miterlimit:4;stroke-opacity:1;stroke-dasharray:none" />
              <path
                 d="m 14.348,22.043 a 8.7391,8.7391 0 0 1 8.739,-8.739 v 8.739 z"
                 transform="translate(-1.087,0)"
                 id="path3834"
                 style="fill:#ffffff;fill-rule:evenodd;stroke:#ffffff;stroke-width:15.26903057;stroke-linecap:round;stroke-linejoin:round;stroke-miterlimit:4;stroke-opacity:1;stroke-dasharray:none" />
              <path
                 d="m 14.348,22.043 a 8.7391,8.7391 0 0 1 8.739,-8.739 v 8.739 z"
                 transform="matrix(-1,0,0,1,48.348,0)"
                 id="path3836"
                 style="fill:#ffffff;fill-rule:evenodd;stroke:#ffffff;stroke-width:15.26903057;stroke-linecap:round;stroke-linejoin:round;stroke-miterlimit:4;stroke-opacity:1;stroke-dasharray:none" />
              <path
                 d="m 13,24 h 21 v 10 c 0,0 -0.136,7 -10,7 -9.945,0 -11,-7 -11,-7 V 24"
                 id="path3838"
                 style="fill:#ffffff;fill-rule:evenodd;stroke:#ffffff;stroke-width:15.26903057;stroke-linecap:round;stroke-linejoin:round;stroke-miterlimit:4;stroke-opacity:1;stroke-dasharray:none" />
            </g>
            <g
               transform="matrix(1.0501,0,0,1.066,-3.5346,-3.3816)"
               id="g3840"
               style="stroke:#ffffff;stroke-width:14.43170166;stroke-linecap:round;stroke-linejoin:round;stroke-miterlimit:4;stroke-opacity:1;stroke-dasharray:none">
              <path
                 d="m 21.568,-1.5002 c -17.249,0 -17.276,12.653 -17.276,12.653 l 5e-4,20.705 c 0,0 -0.1894,12.591 17.222,12.591 17.252,0 17.33,-12.591 17.33,-12.591 v -20.705 c 0,0 0.134,-12.653 -17.276,-12.653 z"
                 id="path3842"
                 style="fill-rule:evenodd;stroke:#ffffff;stroke-width:14.43170166;stroke-linecap:round;stroke-linejoin:round;stroke-miterlimit:4;stroke-opacity:1;stroke-dasharray:none" />
              <path
                 d="M 34,16.966087 34,27"
                 transform="matrix(1.7276,0,0,1.7018,-37.169,-30.431)"
                 id="path3844"
                 style="fill:none;stroke:#ffffff;stroke-width:8.41669655;stroke-linecap:round;stroke-linejoin:round;stroke-miterlimit:4;stroke-opacity:1;stroke-dasharray:none" />
            </g>
          </g>
        </g>
        <rect
           width="19.186581"
           height="2.1748011"
           x="25.017044"
           y="26.610989"
           id="rect3846"
           style="fill:#ffffff;fill-opacity:1;stroke:#ffffff;stroke-width:8;stroke-linecap:round;stroke-linejoin:round;stroke-miterlimit:4;stroke-opacity:1;stroke-dasharray:none" />
      </g>
      <g
         id="g3799">
        <g
           transform="matrix(0.95046866,0,0,0.95046866,2.302453,1.2383085)"
           id="g2997">
          <rect
             width="36"
             height="31"
             x="2"
             y="6"
             id="rect4940"
             style="stroke:none" />
          <rect
             width="26"
             height="21"
             x="7"
             y="11"
             id="rect4978"
             style="fill:#ffffff" />
          <g
             transform="matrix(0.55124,0,0,0.55124,23.464,19.746)"
             id="g4962">
            <g
               id="g4964"
               style="display:none">
              <path
                 d="m 37.174,21.717 a 13.533,11.674 0 1 1 -27.065,0 13.533,11.674 0 1 1 27.065,0 z"
                 id="path5587"
                 style="fill-rule:evenodd" />
              <path
                 d="m 37.174,21.717 a 13.533,11.674 0 1 1 -27.065,0 13.533,11.674 0 1 1 27.065,0 z"
                 transform="translate(0,11.609)"
                 id="path6474"
                 style="fill-rule:evenodd" />
              <rect
                 width="27.174"
                 height="12.043"
                 rx="0"
                 ry="0"
                 x="10"
                 y="22"
                 id="rect6476"
                 style="fill-rule:evenodd" />
              <path
                 d="m 14.348,22.043 a 8.7391,8.7391 0 0 1 8.739,-8.739 v 8.739 z"
                 transform="translate(-1.087,0)"
                 id="path7363"
                 style="fill:#ffffff;fill-rule:evenodd" />
              <path
                 d="m 14.348,22.043 a 8.7391,8.7391 0 0 1 8.739,-8.739 v 8.739 z"
                 transform="matrix(-1,0,0,1,48.348,0)"
                 id="path8250"
                 style="fill:#ffffff;fill-rule:evenodd" />
              <path
                 d="m 13,24 h 21 v 10 c 0,0 -0.136,7 -10,7 -9.945,0 -11,-7 -11,-7 V 24"
                 id="path8252"
                 style="fill:#ffffff;fill-rule:evenodd" />
            </g>
            <g
               transform="matrix(1.0501,0,0,1.066,-3.5346,-3.3816)"
               id="layer2">
              <path
                 d="m 21.568,-1.5002 c -17.249,0 -17.276,12.653 -17.276,12.653 l 5e-4,20.705 c 0,0 -0.1894,12.591 17.222,12.591 17.252,0 17.33,-12.591 17.33,-12.591 v -20.705 c 0,0 0.134,-12.653 -17.276,-12.653 z"
                 id="path1875"
                 style="fill-rule:evenodd" />
              <path
                 d="M 34,16.966087 34,27"
                 transform="matrix(1.7276,0,0,1.7018,-37.169,-30.431)"
                 id="path5971"
                 style="fill:none;stroke:#ffffff;stroke-width:2" />
            </g>
          </g>
        </g>
        <rect
           width="19.186581"
           height="2.1748011"
           x="25.017044"
           y="26.610989"
           id="rect3797"
           style="fill:#ffffff;fill-opacity:1;stroke:none" />
      </g>
    </g>
  </g>
</svg>
