<?xml version="1.0" encoding="UTF-8" standalone="no"?>
<!-- Created with Inkscape (http://www.inkscape.org/) -->

<svg
   xmlns:dc="http://purl.org/dc/elements/1.1/"
   xmlns:cc="http://creativecommons.org/ns#"
   xmlns:rdf="http://www.w3.org/1999/02/22-rdf-syntax-ns#"
   xmlns:svg="http://www.w3.org/2000/svg"
   xmlns="http://www.w3.org/2000/svg"
   version="1.0"
   width="48"
   height="48"
   id="svg2">
  <metadata
     id="metadata7">
    <rdf:RDF>
      <cc:Work
         rdf:about="">
        <dc:format>image/svg+xml</dc:format>
        <dc:type
           rdf:resource="http://purl.org/dc/dcmitype/StillImage" />
        <dc:title></dc:title>
      </cc:Work>
    </rdf:RDF>
  </metadata>
  <defs
     id="defs5" />
  <g
     transform="matrix(0.93333333,0,0,0.8884487,1.6,2.3042649)"
     id="g3803">
    <rect
       width="31.150753"
       height="42.854515"
       x="8.9603376"
       y="2.9925382"
       id="rect3829"
       style="fill:#000000;fill-opacity:1;stroke:#ffffff;stroke-width:10.98159504;stroke-linecap:round;stroke-linejoin:round;stroke-miterlimit:4;stroke-opacity:1;stroke-dasharray:none" />
    <rect
       width="31.150753"
       height="42.854515"
       x="8.9603376"
       y="2.9925382"
       id="rect3827"
       style="fill:#000000;fill-opacity:1;stroke:#000000;stroke-width:2.11501479;stroke-linecap:round;stroke-linejoin:round;stroke-miterlimit:4;stroke-opacity:1;stroke-dasharray:none" />
    <g
       transform="matrix(0.9984045,0,0,1,0.04973557,0)"
       id="g3007"
       style="fill:#ffffff">
      <path
         d="m 12.72056,37.926483 c 1.430855,0 2.86171,0 4.292563,0 0,1.31315 0,2.626301 0,3.939451 -1.430853,0 -2.861708,0 -4.292563,0 0,-1.31315 0,-2.626301 0,-3.939451 z"
         id="rect3770"
         style="fill:#ffffff;fill-opacity:1;stroke:none" />
      <path
         d="m 19.159405,37.926483 c 1.430853,0 2.861708,0 4.292563,0 0,1.31315 0,2.626301 0,3.939451 -1.430855,0 -2.86171,0 -4.292563,0 0,-1.31315 0,-2.626301 0,-3.939451 z"
         id="rect3001"
         style="fill:#ffffff;fill-opacity:1;stroke:none" />
      <path
         d="m 25.598249,37.926483 c 1.430855,0 2.861708,0 4.292563,0 0,1.31315 0,2.626301 0,3.939451 -1.430855,0 -2.861708,0 -4.292563,0 0,-1.31315 0,-2.626301 0,-3.939451 z"
         id="rect3003"
         style="fill:#ffffff;fill-opacity:1;stroke:none" />
      <path
         d="m 32.037094,37.926483 c 1.430854,0 2.861709,0 4.292563,0 0,1.31315 0,2.626301 0,3.939451 -1.430854,0 -2.861709,0 -4.292563,0 0,-1.31315 0,-2.626301 0,-3.939451 z"
         id="rect3005"
         style="fill:#ffffff;fill-opacity:1;stroke:none" />
    </g>
    <path
       d="m 13.804522,7.2853742 21.462385,0 0,26.1566408 -21.462385,0 z"
       id="rect3808"
       style="fill:#ffffff;fill-opacity:1;stroke:#ffffff;stroke-width:2.16166234;stroke-linecap:round;stroke-linejoin:round;stroke-miterlimit:4;stroke-opacity:1" />
  </g>
</svg>
