<?xml version="1.0" encoding="UTF-8" standalone="no"?>
<!-- Generator: Adobe Illustrator 9.0, SVG Export Plug-In  -->

<svg
   xmlns:dc="http://purl.org/dc/elements/1.1/"
   xmlns:cc="http://creativecommons.org/ns#"
   xmlns:rdf="http://www.w3.org/1999/02/22-rdf-syntax-ns#"
   xmlns:svg="http://www.w3.org/2000/svg"
   xmlns="http://www.w3.org/2000/svg"
   xmlns:sodipodi="http://sodipodi.sourceforge.net/DTD/sodipodi-0.dtd"
   xmlns:inkscape="http://www.inkscape.org/namespaces/inkscape"
   id="svg2"
   sodipodi:docname="printer-network.svg"
   xml:space="preserve"
   height="48"
   sodipodi:version="0.32"
   width="48"
   version="1.0"
   viewBox="0 0 48 48"
   inkscape:version="0.91 r13725"><defs
     id="defs16" /><metadata
     id="metadata31"><rdf:RDF><cc:Work
         rdf:about=""><dc:format>image/svg+xml</dc:format><dc:type
           rdf:resource="http://purl.org/dc/dcmitype/StillImage" /><dc:title></dc:title></cc:Work></rdf:RDF></metadata><sodipodi:namedview
     id="base"
     bordercolor="#666666"
     pagecolor="#ffffff"
     borderopacity="1.0"
     showgrid="true"
     inkscape:zoom="13.906433"
     inkscape:cx="26.867262"
     inkscape:cy="25.682563"
     inkscape:window-width="1920"
     inkscape:window-height="1029"
     inkscape:window-x="0"
     inkscape:window-y="0"
     inkscape:window-maximized="1"
     inkscape:current-layer="svg2" /><path
     d="m 22,32.047235 0,7 -9,0 c -2,2 -2,3 0,5 l 22,0 c 2,-2 2,-3 0,-5 l -9,0 0,-7 c -4,0 -4,0 -4,0 z"
     sodipodi:nodetypes="ccccccccc"
     id="path4150"
     inkscape:connector-curvature="0"
     style="stroke:#ffffff;stroke-opacity:1;stroke-width:8;stroke-miterlimit:4;stroke-dasharray:none;stroke-linejoin:round;stroke-linecap:round" /><rect
     id="rect3981"
     style="fill:none"
     rx="0"
     ry="0"
     height="48"
     width="48"
     y="-6"
     x="0" /><g
     id="g3100"
     style="fill:#ffffff;stroke:#ffffff;stroke-width:8"
     transform="translate(0,-6)"><path
       id="path3102"
       sodipodi:nodetypes="ccccccccc"
       style="fill:#ffffff;stroke:#ffffff;stroke-width:8;stroke-linejoin:round"
       d="m 41,42 c 0,0.4 -0.6,1 -1,1 L 8,43 C 7.6,43 7,42.4 7,42 l 0,-2 c 0,-0.4 0.5,-0.7 0.9,-0.7 l 31.9,0 c 0.4,0 1.2,0.3 1.2,0.7 l 0,2 z"
       inkscape:connector-curvature="0" /><path
       id="path3104"
       sodipodi:nodetypes="ccccccccc"
       style="fill:#ffffff;stroke:#ffffff;stroke-width:8;stroke-linejoin:round"
       d="m 44,36.770816 c 0,0.4 -0.6,1 -1,1 l -38,0 c -0.4,0 -1,-0.6 -1,-1 l 0,-14 c 0,-0.4 0.6,-1 1,-1 l 38,0 c 0.4,0 1,0.6 1,1 l 0,14 z"
       inkscape:connector-curvature="0" /><path
       id="path3106"
       sodipodi:nodetypes="ccccccc"
       style="fill:#ffffff;stroke:#ffffff;stroke-width:6.56322479;stroke-linejoin:round"
       d="m 11.461209,10.318127 c -3.1346974,0 -4.1795966,1.28828 -4.1795966,2.576559 l 0,11.594517 33.4367746,0 0,-11.594517 c 0,-1.288279 -1.044899,-2.576559 -4.179596,-2.576559 l -25.077582,0 z"
       inkscape:connector-curvature="0" /></g><path
     inkscape:connector-curvature="0"
     id="path1365"
     sodipodi:nodetypes="ccccccccc"
     d="m 22,32.047235 0,7 -9,0 c -2,2 -2,3 0,5 l 22,0 c 2,-2 2,-3 0,-5 l -9,0 0,-7 c -4,0 -4,0 -4,0 z" /><g
     id="g3095"
     transform="translate(0,-8.2291841)"><path
       id="path13"
       sodipodi:nodetypes="ccccccccc"
       d="m 41,42 c 0,0.4 -0.6,1 -1,1 L 8,43 C 7.6,43 7,42.4 7,42 l 0,-2 c 0,-0.4 0.5,-0.7 0.9,-0.7 l 31.9,0 c 0.4,0 1.2,0.3 1.2,0.7 l 0,2 z"
       inkscape:connector-curvature="0" /><path
       id="path15"
       sodipodi:nodetypes="ccccccccc"
       d="m 44,39 c 0,0.4 -0.6,1 -1,1 L 5,40 C 4.6,40 4,39.4 4,39 L 4,25 c 0,-0.4 0.6,-1 1,-1 l 38,0 c 0.4,0 1,0.6 1,1 l 0,14 z"
       inkscape:connector-curvature="0" /><path
       id="path17"
       sodipodi:nodetypes="ccccccc"
       d="m 12,13.216347 c -3,0 -4,1.162151 -4,2.324301 L 8,26 40,26 40,15.540648 c 0,-1.16215 -1,-2.324301 -4,-2.324301 l -24,0 z"
       inkscape:connector-curvature="0" /></g><path
     id="path19"
     sodipodi:nodetypes="ccccccc"
     style="fill:#ffffff"
     d="m 36,15.770816 -24,0 0,-6.6293341 c 0,0 0,-0.441955 1,-0.441955 l 22,0 c 1,0 1,0.441955 1,0.441955 l 0,6.6293341 z"
     inkscape:connector-curvature="0" /><path
     id="path1315"
     sodipodi:nodetypes="cc"
     style="fill:#ffffff;fill-rule:evenodd;stroke:#ffffff;stroke-width:4"
     d="m 11,28.770816 26,0"
     inkscape:connector-curvature="0" /></svg>