<?xml version="1.0" encoding="UTF-8" standalone="no"?>
<!-- Created with Inkscape (http://www.inkscape.org/) -->

<svg
   xmlns:dc="http://purl.org/dc/elements/1.1/"
   xmlns:cc="http://creativecommons.org/ns#"
   xmlns:rdf="http://www.w3.org/1999/02/22-rdf-syntax-ns#"
   xmlns:svg="http://www.w3.org/2000/svg"
   xmlns="http://www.w3.org/2000/svg"
   xmlns:sodipodi="http://sodipodi.sourceforge.net/DTD/sodipodi-0.dtd"
   xmlns:inkscape="http://www.inkscape.org/namespaces/inkscape"
   version="1.1"
   width="48"
   height="48"
   id="svg2"
   inkscape:version="0.91 r13725"
   sodipodi:docname="blueman-send-file.svg">
  <sodipodi:namedview
     pagecolor="#ffffff"
     bordercolor="#666666"
     borderopacity="1"
     objecttolerance="10"
     gridtolerance="10"
     guidetolerance="10"
     inkscape:pageopacity="0"
     inkscape:pageshadow="2"
     inkscape:window-width="1920"
     inkscape:window-height="1029"
     id="namedview10"
     showgrid="false"
     inkscape:zoom="9.8333333"
     inkscape:cx="-9.957434"
     inkscape:cy="38.833574"
     inkscape:window-x="0"
     inkscape:window-y="0"
     inkscape:window-maximized="1"
     inkscape:current-layer="layer1" />
  <defs
     id="defs4" />
  <metadata
     id="metadata7">
    <rdf:RDF>
      <cc:Work
         rdf:about="">
        <dc:format>image/svg+xml</dc:format>
        <dc:type
           rdf:resource="http://purl.org/dc/dcmitype/StillImage" />
        <dc:title></dc:title>
      </cc:Work>
    </rdf:RDF>
  </metadata>
  <g
     transform="translate(0,-1004.3622)"
     id="layer1">
    <g
       transform="matrix(0.21410264,-0.17791591,0.17791591,0.21410264,-159.82139,907.54169)"
       id="g3782"
       style="stroke:#ffffff;stroke-width:28.73795865;stroke-miterlimit:4;stroke-dasharray:none;stroke-opacity:1">
      <path
         d="m 217.03686,817.55797 c -16.61637,-3.79406 -27.03511,-14.67427 -32.1634,-33.58801 -3.02224,-11.14636 -4.41266,-31.16997 -3.16343,-45.55692 3.55811,-40.97749 19.09413,-56.88322 53.87282,-55.15483 25.53138,1.26882 37.90287,12.80107 43.87774,40.90123 2.50986,11.80399 2.49926,41.93537 -0.0189,53.78468 -4.49187,21.13651 -13.21405,32.86662 -28.38383,38.17225 -7.67336,2.68376 -25.30815,3.43101 -34.021,1.4416 z"
         id="path3784"
         style="fill:#3f3f3f;stroke:#ffffff;stroke-width:28.73795891;stroke-miterlimit:4;stroke-dasharray:none;stroke-opacity:1"
         inkscape:connector-curvature="0"
         sodipodi:nodetypes="ssssssss" />
    </g>
    <rect
       transform="matrix(0.76215505,-0.64739453,0.64739453,0.76215505,0,0)"
       rx="1.0911263"
       ry="0.9573437"
       y="815.0509"
       x="-652.19348"
       height="6.0791326"
       width="10.209825"
       id="rect4141"
       style="opacity:1;fill:#000000;fill-opacity:1;stroke:#ffffff;stroke-width:8;stroke-linecap:round;stroke-linejoin:round;stroke-miterlimit:4;stroke-dasharray:none;stroke-opacity:1" />
    <g
       transform="matrix(0.21410264,-0.17791591,0.17791591,0.21410264,-159.82139,907.54169)"
       id="g2996"
       style="fill:#000000;fill-opacity:1;stroke:#000000;stroke-opacity:1">
      <path
         d="m 217.03686,817.55797 c -16.61637,-3.79406 -27.03511,-14.67427 -32.1634,-33.58801 -3.02224,-11.14636 -4.41266,-31.16997 -3.16343,-45.55692 3.55811,-40.97749 19.09413,-56.88322 53.87282,-55.15483 25.53138,1.26882 37.90287,12.80107 43.87774,40.90123 2.50986,11.80399 2.49926,41.93537 -0.0189,53.78468 -4.49187,21.13651 -13.21405,32.86662 -28.38383,38.17225 -7.67336,2.68376 -25.30815,3.43101 -34.021,1.4416 z"
         id="path2998"
         style="fill:#000000;fill-opacity:1;stroke:#000000;stroke-opacity:1"
         inkscape:connector-curvature="0"
         sodipodi:nodetypes="ssssssss" />
    </g>
    <rect
       style="opacity:1;fill:#000000;fill-opacity:1;stroke:none;stroke-width:8;stroke-linecap:round;stroke-linejoin:round;stroke-miterlimit:4;stroke-dasharray:none;stroke-opacity:1"
       id="rect4137"
       width="10.209825"
       height="6.0791326"
       x="-652.19348"
       y="815.0509"
       ry="0.9573437"
       rx="1.0911263"
       transform="matrix(0.76215505,-0.64739453,0.64739453,0.76215505,0,0)" />
    <rect
       transform="matrix(0.76215505,-0.64739453,0.64739453,0.76215505,0,0)"
       rx="0.76016974"
       ry="0.6669656"
       y="817.14343"
       x="-651.07104"
       height="2.7976027"
       width="7.9339027"
       id="rect4139"
       style="opacity:1;fill:#19b6ee;fill-opacity:1;stroke:none;stroke-width:8;stroke-linecap:round;stroke-linejoin:round;stroke-miterlimit:4;stroke-dasharray:none;stroke-opacity:1" />
    <path
       inkscape:connector-curvature="0"
       id="path9"
       sodipodi:nodetypes="cccccccccccccc"
       d="m 17.117816,1033.4688 c -0.130047,0.1003 -0.07695,0.4274 0.334539,0.4335 l 12.28891,1.5836 c 0.768051,0.099 0.768051,0.099 0.867024,-0.6691 l 1.583546,-12.2889 c 0.11724,-0.3845 -0.247836,-0.5005 -0.33454,-0.4336 l -4.33514,3.3455 -7.158723,-8.942 c 0,0 -0.334539,-0.4335 -0.768051,-0.099 l -5.202167,4.0144 c -0.433516,0.3345 -0.09898,0.7682 -0.09898,0.7682 l 7.158737,8.9417 -4.335151,3.3456 z"
       style="fill:#19b6ee;fill-opacity:1" />
  </g>
</svg>
