<?xml version="1.0" encoding="UTF-8" standalone="no"?>
<!-- Created with Inkscape (http://www.inkscape.org/) -->

<svg
   xmlns:dc="http://purl.org/dc/elements/1.1/"
   xmlns:cc="http://creativecommons.org/ns#"
   xmlns:rdf="http://www.w3.org/1999/02/22-rdf-syntax-ns#"
   xmlns:svg="http://www.w3.org/2000/svg"
   xmlns="http://www.w3.org/2000/svg"
   xmlns:sodipodi="http://sodipodi.sourceforge.net/DTD/sodipodi-0.dtd"
   xmlns:inkscape="http://www.inkscape.org/namespaces/inkscape"
   version="1.1"
   width="48"
   height="48"
   id="svg2"
   inkscape:version="0.91 r13725"
   sodipodi:docname="blueman-disabled.svg">
  <sodipodi:namedview
     pagecolor="#ffffff"
     bordercolor="#666666"
     borderopacity="1"
     objecttolerance="10"
     gridtolerance="10"
     guidetolerance="10"
     inkscape:pageopacity="0"
     inkscape:pageshadow="2"
     inkscape:window-width="1920"
     inkscape:window-height="1029"
     id="namedview10"
     showgrid="false"
     inkscape:zoom="9.8333333"
     inkscape:cx="15.505014"
     inkscape:cy="18.894636"
     inkscape:window-x="0"
     inkscape:window-y="0"
     inkscape:window-maximized="1"
     inkscape:current-layer="layer1" />
  <defs
     id="defs4" />
  <metadata
     id="metadata7">
    <rdf:RDF>
      <cc:Work
         rdf:about="">
        <dc:format>image/svg+xml</dc:format>
        <dc:type
           rdf:resource="http://purl.org/dc/dcmitype/StillImage" />
        <dc:title></dc:title>
      </cc:Work>
    </rdf:RDF>
  </metadata>
  <g
     transform="translate(0,-1004.3622)"
     id="layer1">
    <g
       transform="matrix(0.21410264,-0.17791591,0.17791591,0.21410264,-159.82139,907.54169)"
       id="g3782"
       style="stroke:#ffffff;stroke-width:28.73795865;stroke-miterlimit:4;stroke-dasharray:none;stroke-opacity:1">
      <path
         d="m 217.03686,817.55797 c -16.61637,-3.79406 -27.03511,-14.67427 -32.1634,-33.58801 -3.02224,-11.14636 -4.41266,-31.16997 -3.16343,-45.55692 3.55811,-40.97749 19.09413,-56.88322 53.87282,-55.15483 25.53138,1.26882 37.90287,12.80107 43.87774,40.90123 2.50986,11.80399 2.49926,41.93537 -0.0189,53.78468 -4.49187,21.13651 -13.21405,32.86662 -28.38383,38.17225 -7.67336,2.68376 -25.30815,3.43101 -34.02096,1.4416 z m 27.98748,-26.29118 c 8.66875,-8.65605 15.76137,-16.43346 15.76137,-17.28313 0,-0.84966 -4.725,-6.21872 -10.5,-11.93123 -5.775,-5.71251 -10.5,-10.88064 -10.5,-11.48474 0,-0.60409 4.725,-5.80727 10.5,-11.56262 5.775,-5.75535 10.5,-10.92758 10.5,-11.49385 0,-1.84992 -31.72803,-32.79227 -32.88911,-32.07468 -0.7559,0.46717 -1.11089,7.21862 -1.11089,21.12755 0,11.24254 -0.34806,20.44098 -0.77346,20.44098 -0.4254,0 -4.35235,-3.6 -8.72654,-8 -4.37419,-4.4 -8.60963,-8 -9.41209,-8 -1.73849,0 -6.08791,3.88751 -6.08791,5.44137 0,0.60101 4.95,6.02739 11,12.05863 6.05,6.03124 11,11.64152 11,12.4673 0,0.82577 -5.02293,6.53863 -11.16207,12.69523 -11.16207,11.19383 -11.16207,11.19383 -9.44173,13.81939 3.08171,4.70329 4.27103,4.30497 12.96241,-4.34127 4.50074,-4.47736 8.73627,-8.14065 9.41228,-8.14065 0.93185,0 1.22911,4.91762 1.22911,20.33333 0,18.67744 0.26286,21.66667 1.90529,21.66667 0.31458,0 7.66458,-7.08223 16.33334,-15.73828 z m -8.23863,-17.26172 c 0,-10.63992 0.59729,-11.02389 7,-4.5 4.41642,4.5 4.41642,4.5 0,9 -6.40271,6.52389 -7,6.13992 -7,-4.5 z m 0,-46.5 c 0,-11.55414 0.31793,-11.71777 7.3884,-3.80247 3.74952,4.19753 3.74952,4.19753 -0.4468,8.75 -6.24893,6.77929 -6.9416,6.28559 -6.9416,-4.94753 z"
         id="path3784"
         style="fill:#3f3f3f;stroke:#ffffff;stroke-width:28.73795865;stroke-miterlimit:4;stroke-dasharray:none;stroke-opacity:1"
         inkscape:connector-curvature="0" />
    </g>
    <rect
       transform="matrix(0.76215505,-0.64739453,0.64739453,0.76215505,0,0)"
       rx="1.0911263"
       ry="0.9573437"
       y="815.0509"
       x="-652.19348"
       height="6.0791326"
       width="10.209825"
       id="rect4141"
       style="opacity:1;fill:#000000;fill-opacity:1;stroke:#ffffff;stroke-width:8;stroke-linecap:round;stroke-linejoin:round;stroke-miterlimit:4;stroke-dasharray:none;stroke-opacity:1" />
    <g
       transform="matrix(0.21410264,-0.17791591,0.17791591,0.21410264,-159.82139,907.54169)"
       id="g2996"
       style="fill:#000000;fill-opacity:1;stroke:#000000;stroke-opacity:1">
      <path
         d="m 217.03686,817.55797 c -16.61637,-3.79406 -27.03511,-14.67427 -32.1634,-33.58801 -3.02224,-11.14636 -4.41266,-31.16997 -3.16343,-45.55692 3.55811,-40.97749 19.09413,-56.88322 53.87282,-55.15483 25.53138,1.26882 37.90287,12.80107 43.87774,40.90123 2.50986,11.80399 2.49926,41.93537 -0.0189,53.78468 -4.49187,21.13651 -13.21405,32.86662 -28.38383,38.17225 -7.67336,2.68376 -25.30815,3.43101 -34.02096,1.4416 z m 27.98748,-26.29118 c 8.66875,-8.65605 15.76137,-16.43346 15.76137,-17.28313 0,-0.84966 -4.725,-6.21872 -10.5,-11.93123 -5.775,-5.71251 -10.5,-10.88064 -10.5,-11.48474 0,-0.60409 4.725,-5.80727 10.5,-11.56262 5.775,-5.75535 10.5,-10.92758 10.5,-11.49385 0,-1.84992 -31.72803,-32.79227 -32.88911,-32.07468 -0.7559,0.46717 -1.11089,7.21862 -1.11089,21.12755 0,11.24254 -0.34806,20.44098 -0.77346,20.44098 -0.4254,0 -4.35235,-3.6 -8.72654,-8 -4.37419,-4.4 -8.60963,-8 -9.41209,-8 -1.73849,0 -6.08791,3.88751 -6.08791,5.44137 0,0.60101 4.95,6.02739 11,12.05863 6.05,6.03124 11,11.64152 11,12.4673 0,0.82577 -5.02293,6.53863 -11.16207,12.69523 -11.16207,11.19383 -11.16207,11.19383 -9.44173,13.81939 3.08171,4.70329 4.27103,4.30497 12.96241,-4.34127 4.50074,-4.47736 8.73627,-8.14065 9.41228,-8.14065 0.93185,0 1.22911,4.91762 1.22911,20.33333 0,18.67744 0.26286,21.66667 1.90529,21.66667 0.31458,0 7.66458,-7.08223 16.33334,-15.73828 z m -8.23863,-17.26172 c 0,-10.63992 0.59729,-11.02389 7,-4.5 4.41642,4.5 4.41642,4.5 0,9 -6.40271,6.52389 -7,6.13992 -7,-4.5 z m 0,-46.5 c 0,-11.55414 0.31793,-11.71777 7.3884,-3.80247 3.74952,4.19753 3.74952,4.19753 -0.4468,8.75 -6.24893,6.77929 -6.9416,6.28559 -6.9416,-4.94753 z"
         id="path2998"
         style="fill:#000000;fill-opacity:1;stroke:#000000;stroke-opacity:1"
         inkscape:connector-curvature="0" />
    </g>
    <rect
       style="opacity:1;fill:#000000;fill-opacity:1;stroke:none;stroke-width:8;stroke-linecap:round;stroke-linejoin:round;stroke-miterlimit:4;stroke-dasharray:none;stroke-opacity:1"
       id="rect4137"
       width="10.209825"
       height="6.0791326"
       x="-652.19348"
       y="815.0509"
       ry="0.9573437"
       rx="1.0911263"
       transform="matrix(0.76215505,-0.64739453,0.64739453,0.76215505,0,0)" />
    <rect
       transform="matrix(0.76215505,-0.64739453,0.64739453,0.76215505,0,0)"
       rx="0.76016974"
       ry="0.6669656"
       y="817.14343"
       x="-651.07104"
       height="2.7976027"
       width="7.9339027"
       id="rect4139"
       style="opacity:1;fill:#c90016;fill-opacity:1;stroke:none;stroke-width:8;stroke-linecap:round;stroke-linejoin:round;stroke-miterlimit:4;stroke-dasharray:none;stroke-opacity:1" />
    <path
       style="opacity:1;fill:#c90016;fill-opacity:1;stroke:#c90016;stroke-width:0.4;stroke-linecap:round;stroke-linejoin:round;stroke-miterlimit:4;stroke-dasharray:none;stroke-opacity:1"
       d="m 31.601558,34.315949 c -0.412929,-0.434178 -1.709345,-1.932907 -2.880924,-3.330508 -1.171579,-1.397602 -2.51842,-2.941518 -2.99298,-3.430924 -0.999607,-1.030882 -1.264277,-1.125138 -1.427776,-0.508475 -0.149287,0.563063 -0.283834,1.487005 -0.514503,3.533112 -0.289659,2.569384 -0.443164,2.962692 -1.120476,2.870876 -0.196072,-0.02658 -0.534979,-0.123168 -0.753127,-0.214639 l -0.396632,-0.166313 0.06423,-1.549654 c 0.03533,-0.852309 0.13307,-2.350501 0.217208,-3.329314 0.08414,-0.978814 0.153633,-2.293437 0.154435,-2.921385 0.0014,-1.073739 -0.01217,-1.15042 -0.227356,-1.287766 -0.31293,-0.199732 -1.716213,-0.422466 -4.550847,-0.722328 -2.755809,-0.291523 -3.916716,-0.44873 -4.260191,-0.576907 -0.231528,-0.0864 -0.240296,-0.122324 -0.18206,-0.745953 0.03365,-0.36035 0.132843,-0.79376 0.220429,-0.963133 l 0.159248,-0.307952 0.938067,0.0013 c 0.515936,7.38e-4 1.716032,0.06844 2.66688,0.150457 0.950847,0.08201 2.037712,0.150053 2.415254,0.1512 0.646401,0.002 0.686441,-0.01138 0.686441,-0.228681 0,-0.283754 -1.00078,-1.619791 -3.536178,-4.720786 -1.856724,-2.270922 -2.828506,-3.515754 -3.231874,-4.139962 l -0.190569,-0.294904 1.572531,0.07012 c 3.208753,0.143081 8.406209,0.594722 10.206047,0.886871 l 0.701315,0.113838 -0.06845,1.284913 c -0.03765,0.706702 -0.133221,2.039998 -0.212391,2.962879 -0.274428,3.199014 -0.302397,4.211646 -0.121325,4.392718 0.212997,0.212997 1.045136,0.350073 3.92821,0.647083 2.645435,0.27253 3.71946,0.414006 4.31567,0.568485 l 0.396888,0.102833 -0.06231,2.000373 c -0.07106,2.280998 -0.753318,9.84467 -0.934929,10.364779 -0.08026,0.229843 -0.21855,0.136186 -0.977955,-0.662296 z M 30.74145,28.306564 c 0.172411,-0.333406 0.363564,-1.704687 0.363564,-2.608108 0,-1.091491 -0.261648,-1.237329 -2.402997,-1.33938 l -1.335199,-0.06363 -0.167107,0.255037 c -0.09965,0.152084 -0.138738,0.332664 -0.09683,0.447334 0.119447,0.326842 0.651413,1.069108 1.414302,1.97341 1.374594,1.629397 1.906938,1.948989 2.224269,1.335339 z m -8.113456,-9.949042 c 0.10067,-0.240938 0.176882,-0.857059 0.213219,-1.723742 0.08115,-1.935456 0.101628,-1.915421 -2.271998,-2.222871 -2.362082,-0.305955 -2.427801,0.09684 -0.409243,2.508278 1.216135,1.452837 1.616149,1.810543 2.026503,1.812168 0.23262,9.25e-4 0.313577,-0.06762 0.441519,-0.373833 z"
       id="path4140"
       inkscape:connector-curvature="0"
       transform="translate(0,1004.3622)" />
  </g>
</svg>
