<?xml version="1.0" encoding="UTF-8" standalone="no"?>
<!-- Created with Inkscape (http://www.inkscape.org/) -->

<svg
   xmlns:dc="http://purl.org/dc/elements/1.1/"
   xmlns:cc="http://creativecommons.org/ns#"
   xmlns:rdf="http://www.w3.org/1999/02/22-rdf-syntax-ns#"
   xmlns:svg="http://www.w3.org/2000/svg"
   xmlns="http://www.w3.org/2000/svg"
   xmlns:sodipodi="http://sodipodi.sourceforge.net/DTD/sodipodi-0.dtd"
   xmlns:inkscape="http://www.inkscape.org/namespaces/inkscape"
   version="1.1"
   width="48"
   height="48"
   id="svg2"
   inkscape:version="0.91 r13725"
   sodipodi:docname="blueman-plugin.svg">
  <sodipodi:namedview
     pagecolor="#ffffff"
     bordercolor="#666666"
     borderopacity="1"
     objecttolerance="10"
     gridtolerance="10"
     guidetolerance="10"
     inkscape:pageopacity="0"
     inkscape:pageshadow="2"
     inkscape:window-width="1920"
     inkscape:window-height="1029"
     id="namedview10"
     showgrid="false"
     inkscape:zoom="9.8333333"
     inkscape:cx="41.392096"
     inkscape:cy="20.851422"
     inkscape:window-x="0"
     inkscape:window-y="0"
     inkscape:window-maximized="1"
     inkscape:current-layer="layer1" />
  <defs
     id="defs4" />
  <metadata
     id="metadata7">
    <rdf:RDF>
      <cc:Work
         rdf:about="">
        <dc:format>image/svg+xml</dc:format>
        <dc:type
           rdf:resource="http://purl.org/dc/dcmitype/StillImage" />
        <dc:title></dc:title>
      </cc:Work>
    </rdf:RDF>
  </metadata>
  <g
     transform="translate(0,-1004.3622)"
     id="layer1">
    <g
       transform="matrix(0.21410264,-0.17791591,0.17791591,0.21410264,-159.82139,907.54169)"
       id="g3782"
       style="stroke:#ffffff;stroke-width:28.73795865;stroke-miterlimit:4;stroke-dasharray:none;stroke-opacity:1">
      <path
         d="m 217.03686,817.55797 c -16.61637,-3.79406 -27.03511,-14.67427 -32.1634,-33.58801 -3.02224,-11.14636 -4.41266,-31.16997 -3.16343,-45.55692 3.55811,-40.97749 19.09413,-56.88322 53.87282,-55.15483 25.53138,1.26882 37.90287,12.80107 43.87774,40.90123 2.50986,11.80399 2.49926,41.93537 -0.0189,53.78468 -4.49187,21.13651 -13.21405,32.86662 -28.38383,38.17225 -7.67336,2.68376 -25.30815,3.43101 -34.021,1.4416 z"
         id="path3784"
         style="fill:#3f3f3f;stroke:#ffffff;stroke-width:28.73795891;stroke-miterlimit:4;stroke-dasharray:none;stroke-opacity:1"
         inkscape:connector-curvature="0"
         sodipodi:nodetypes="ssssssss" />
    </g>
    <rect
       transform="matrix(0.76215505,-0.64739453,0.64739453,0.76215505,0,0)"
       rx="1.0911263"
       ry="0.9573437"
       y="815.0509"
       x="-652.19348"
       height="6.0791326"
       width="10.209825"
       id="rect4141"
       style="opacity:1;fill:#000000;fill-opacity:1;stroke:#ffffff;stroke-width:8;stroke-linecap:round;stroke-linejoin:round;stroke-miterlimit:4;stroke-dasharray:none;stroke-opacity:1" />
    <g
       transform="matrix(0.21410264,-0.17791591,0.17791591,0.21410264,-159.82139,907.54169)"
       id="g2996"
       style="fill:#000000;fill-opacity:1;stroke:#000000;stroke-opacity:1">
      <path
         d="m 217.03686,817.55797 c -16.61637,-3.79406 -27.03511,-14.67427 -32.1634,-33.58801 -3.02224,-11.14636 -4.41266,-31.16997 -3.16343,-45.55692 3.55811,-40.97749 19.09413,-56.88322 53.87282,-55.15483 25.53138,1.26882 37.90287,12.80107 43.87774,40.90123 2.50986,11.80399 2.49926,41.93537 -0.0189,53.78468 -4.49187,21.13651 -13.21405,32.86662 -28.38383,38.17225 -7.67336,2.68376 -25.30815,3.43101 -34.021,1.4416 z"
         id="path2998"
         style="fill:#000000;fill-opacity:1;stroke:#000000;stroke-opacity:1"
         inkscape:connector-curvature="0"
         sodipodi:nodetypes="ssssssss" />
    </g>
    <rect
       style="opacity:1;fill:#000000;fill-opacity:1;stroke:none;stroke-width:8;stroke-linecap:round;stroke-linejoin:round;stroke-miterlimit:4;stroke-dasharray:none;stroke-opacity:1"
       id="rect4137"
       width="10.209825"
       height="6.0791326"
       x="-652.19348"
       y="815.0509"
       ry="0.9573437"
       rx="1.0911263"
       transform="matrix(0.76215505,-0.64739453,0.64739453,0.76215505,0,0)" />
    <rect
       transform="matrix(0.76215505,-0.64739453,0.64739453,0.76215505,0,0)"
       rx="0.76016974"
       ry="0.6669656"
       y="817.14343"
       x="-651.07104"
       height="2.7976027"
       width="7.9339027"
       id="rect4139"
       style="opacity:1;fill:#19b6ee;fill-opacity:1;stroke:none;stroke-width:8;stroke-linecap:round;stroke-linejoin:round;stroke-miterlimit:4;stroke-dasharray:none;stroke-opacity:1" />
    <g
       id="g3839"
       transform="matrix(0.36940533,-0.30825383,0.30825383,0.36940533,6.2553536,1023.5558)"
       style="fill:#19b6ee;fill-opacity:1;stroke:#19b6ee;stroke-width:0.66001213;stroke-miterlimit:4;stroke-dasharray:none;stroke-opacity:1">
      <g
         id="g3819"
         style="fill:#19b6ee;fill-opacity:1;stroke:#19b6ee;stroke-width:0.66001213;stroke-miterlimit:4;stroke-dasharray:none;stroke-opacity:1">
        <path
           d="m 21,5.5999999 c -2.484,0 -4.5,2.0160002 -4.5,4.5000001 0,1.5525 0.80293,2.909805 2,3.71875 l 0,0.78125 -9.9999999,0 c -1.108,0 -2,0.892 -2,2 l 0,9.71875 C 7.3247011,25.283869 8.5748331,24.6 10,24.6 c 2.484,0 4.5,2.016 4.5,4.5 0,2.484 -2.016,4.5 -4.5,4.5 -1.4251669,0 -2.6752989,-0.683869 -3.4999999,-1.71875 l 0,9.71875 c 0,1.108 0.892,2 2,2 l 9.7187499,0 C 17.183869,42.775299 16.5,41.525167 16.5,40.1 c 0,-2.484 2.016,-4.5 4.5,-4.5 2.484,0 4.5,2.016 4.5,4.5 0,1.425167 -0.683869,2.675299 -1.71875,3.5 l 9.71875,0 c 1.108,0 2,-0.892 2,-2 l 0,-10 0.78125,0 c 0.808945,1.19707 2.16625,2 3.71875,2 2.484,0 4.5,-2.016 4.5,-4.5 0,-2.484 -2.016,-4.5 -4.5,-4.5 -1.5525,0 -2.909805,0.80293 -3.71875,2 l -0.78125,0 0,-10 c 0,-1.108 -0.892,-2 -2,-2 l -10,0 0,-0.78125 c 1.19707,-0.808945 2,-2.16625 2,-3.71875 0,-2.4840001 -2.016,-4.5000001 -4.5,-4.5000001 z"
           id="rect3558"
           style="fill:#19b6ee;fill-opacity:1;stroke:#19b6ee;stroke-width:0.66001213;stroke-miterlimit:4;stroke-dasharray:none;stroke-opacity:1"
           inkscape:connector-curvature="0" />
        <path
           d="m 21,6.6937499 c -1.887159,0 -3.40625,1.5190916 -3.40625,3.4062501 0,1.172165 0.618863,2.195935 1.53125,2.8125 0.294947,0.20734 0.469971,0.54572 0.46875,0.90625 l 0,0.78125 c -0.0051,0.601922 -0.491828,1.088615 -1.09375,1.09375 l -9.9999999,0 c -0.515968,0 -0.90625,0.390282 -0.90625,0.90625 l 0,7.5 C 8.3218831,23.742157 9.132253,23.50625 10,23.50625 c 3.080841,0 5.59375,2.512909 5.59375,5.59375 0,3.080841 -2.512909,5.59375 -5.59375,5.59375 -0.867747,0 -1.6781169,-0.235907 -2.4062499,-0.59375 l 0,7.5 c 0,0.515968 0.390282,0.90625 0.90625,0.90625 L 16,42.50625 C 15.642157,41.778117 15.40625,40.967747 15.40625,40.1 c 0,-3.080841 2.512909,-5.59375 5.59375,-5.59375 3.080841,0 5.59375,2.512909 5.59375,5.59375 0,0.867747 -0.235907,1.678117 -0.59375,2.40625 l 7.5,0 c 0.515968,0 0.90625,-0.390282 0.90625,-0.90625 l 0,-10 c 0.0051,-0.601922 0.491828,-1.088615 1.09375,-1.09375 l 0.78125,0 c 0.36053,-0.0012 0.69891,0.173803 0.90625,0.46875 0.616564,0.912386 1.640335,1.53125 2.8125,1.53125 1.887159,0 3.40625,-1.519091 3.40625,-3.40625 0,-1.887159 -1.519091,-3.40625 -3.40625,-3.40625 -1.172165,0 -2.195936,0.618864 -2.8125,1.53125 -0.20734,0.294947 -0.54572,0.469971 -0.90625,0.46875 l -0.78125,0 C 34.898078,27.688615 34.411385,27.201922 34.40625,26.6 l 0,-10 c 0,-0.515968 -0.390282,-0.90625 -0.90625,-0.90625 l -10,0 C 22.898078,15.688615 22.411385,15.201922 22.40625,14.6 l 0,-0.78125 C 22.405029,13.45822 22.580053,13.11984 22.875,12.9125 23.787387,12.295935 24.40625,11.272165 24.40625,10.1 24.40625,8.2128412 22.887159,6.6937499 21,6.6937499 Z"
           id="path3741"
           style="fill:#19b6ee;fill-opacity:1;stroke:#19b6ee;stroke-width:0.66001213;stroke-linecap:round;stroke-linejoin:round;stroke-miterlimit:4;stroke-dasharray:none;stroke-dashoffset:0;stroke-opacity:1"
           inkscape:connector-curvature="0" />
      </g>
      <path
         d="m 21,5.6 c -2.484,0 -4.5,2.016 -4.5,4.5 0,1.5525 0.80293,2.909805 2,3.71875 l 0,0.78125 -10,0 c -1.108,0 -2,0.892 -2,2 l 0,9.71875 C 7.324701,25.283869 8.574833,24.6 10,24.6 c 2.484,0 4.5,2.016 4.5,4.5 0,2.484 -2.016,4.5 -4.5,4.5 -1.425167,0 -2.675299,-0.683869 -3.5,-1.71875 L 6.5,41.6 c 0,1.108 0.892,2 2,2 l 9.71875,0 C 17.183869,42.775299 16.5,41.525167 16.5,40.1 c 0,-2.484 2.016,-4.5 4.5,-4.5 2.484,0 4.5,2.016 4.5,4.5 0,1.425167 -0.683869,2.675299 -1.71875,3.5 l 9.71875,0 c 1.108,0 2,-0.892 2,-2 l 0,-10 0.78125,0 c 0.808945,1.19707 2.16625,2 3.71875,2 2.484,0 4.5,-2.016 4.5,-4.5 0,-2.484 -2.016,-4.5 -4.5,-4.5 -1.5525,0 -2.909805,0.80293 -3.71875,2 l -0.78125,0 0,-10 c 0,-1.108 -0.892,-2 -2,-2 l -10,0 0,-0.78125 c 1.19707,-0.808945 2,-2.16625 2,-3.71875 0,-2.484 -2.016,-4.5 -4.5,-4.5 z"
         id="rect3558-9"
         style="fill:#19b6ee;fill-opacity:1;stroke:#19b6ee;stroke-width:0.66001213;stroke-miterlimit:4;stroke-dasharray:none;stroke-opacity:1"
         inkscape:connector-curvature="0" />
      <path
         d="m 21,6.69375 c -1.887159,0 -3.40625,1.519092 -3.40625,3.40625 0,1.172165 0.618863,2.195935 1.53125,2.8125 0.294947,0.20734 0.469971,0.54572 0.46875,0.90625 l 0,0.78125 c -0.0051,0.601922 -0.491828,1.088615 -1.09375,1.09375 l -10,0 c -0.515968,0 -0.90625,0.390282 -0.90625,0.90625 l 0,7.5 C 8.321883,23.742157 9.132253,23.50625 10,23.50625 c 3.080841,0 5.59375,2.512909 5.59375,5.59375 0,3.080841 -2.512909,5.59375 -5.59375,5.59375 -0.867747,0 -1.678117,-0.235907 -2.40625,-0.59375 l 0,7.5 c 0,0.515968 0.390282,0.90625 0.90625,0.90625 l 7.5,0 C 15.642157,41.778117 15.40625,40.967747 15.40625,40.1 c 0,-3.080841 2.512909,-5.59375 5.59375,-5.59375 3.080841,0 5.59375,2.512909 5.59375,5.59375 0,0.867747 -0.235907,1.678117 -0.59375,2.40625 l 7.5,0 c 0.515968,0 0.90625,-0.390282 0.90625,-0.90625 l 0,-10 c 0.0051,-0.601922 0.491828,-1.088615 1.09375,-1.09375 l 0.78125,0 c 0.36053,-0.0012 0.69891,0.173803 0.90625,0.46875 0.616564,0.912386 1.640335,1.53125 2.8125,1.53125 1.887159,0 3.40625,-1.519091 3.40625,-3.40625 0,-1.887159 -1.519091,-3.40625 -3.40625,-3.40625 -1.172165,0 -2.195936,0.618864 -2.8125,1.53125 -0.20734,0.294947 -0.54572,0.469971 -0.90625,0.46875 l -0.78125,0 C 34.898078,27.68865 34.411385,27.201922 34.40625,26.6 l 0,-10 c 0,-0.515968 -0.390282,-0.90625 -0.90625,-0.90625 l -10,0 C 22.898078,15.68865 22.411385,15.201922 22.40625,14.6 l 0,-0.78125 C 22.40505,13.45822 22.580053,13.11984 22.875,12.9125 23.787387,12.295935 24.40625,11.272165 24.40625,10.1 24.40625,8.212841 22.887159,6.69375 21,6.69375 Z"
         id="path3741-3"
         style="fill:#19b6ee;fill-opacity:1;stroke:#19b6ee;stroke-width:0.66001213;stroke-linecap:round;stroke-linejoin:round;stroke-miterlimit:4;stroke-dasharray:none;stroke-dashoffset:0;stroke-opacity:1"
         inkscape:connector-curvature="0" />
    </g>
  </g>
</svg>
