<?xml version="1.0" encoding="UTF-8" standalone="no"?>
<!-- Created with Inkscape (http://www.inkscape.org/) -->

<svg
   xmlns:dc="http://purl.org/dc/elements/1.1/"
   xmlns:cc="http://creativecommons.org/ns#"
   xmlns:rdf="http://www.w3.org/1999/02/22-rdf-syntax-ns#"
   xmlns:svg="http://www.w3.org/2000/svg"
   xmlns="http://www.w3.org/2000/svg"
   version="1.1"
   width="48"
   height="48"
   id="svg11300">
  <defs
     id="defs11" />
  <metadata
     id="metadata4">
    <rdf:RDF>
      <cc:Work
         rdf:about="">
        <dc:format>image/svg+xml</dc:format>
        <dc:type
           rdf:resource="http://purl.org/dc/dcmitype/StillImage" />
        <dc:creator>
          <cc:Agent>
            <dc:title>Luca Ferretti</dc:title>
          </cc:Agent>
        </dc:creator>
        <dc:source />
        <cc:license
           rdf:resource="http://creativecommons.org/licenses/LGPL/2.1/" />
        <dc:title></dc:title>
        <dc:subject>
          <rdf:Bag>
            <rdf:li>object rotate right</rdf:li>
          </rdf:Bag>
        </dc:subject>
      </cc:Work>
      <cc:License
         rdf:about="http://creativecommons.org/licenses/LGPL/2.1/">
        <cc:permits
           rdf:resource="http://web.resource.org/cc/Reproduction" />
        <cc:permits
           rdf:resource="http://web.resource.org/cc/Distribution" />
        <cc:requires
           rdf:resource="http://web.resource.org/cc/Notice" />
        <cc:permits
           rdf:resource="http://web.resource.org/cc/DerivativeWorks" />
        <cc:requires
           rdf:resource="http://web.resource.org/cc/ShareAlike" />
        <cc:requires
           rdf:resource="http://web.resource.org/cc/SourceCode" />
      </cc:License>
    </rdf:RDF>
  </metadata>
  <g
     id="g3859"
     style="stroke:#ffffff;stroke-width:8;stroke-linecap:round;stroke-linejoin:round;stroke-miterlimit:4;stroke-opacity:1;stroke-dasharray:none">
    <rect
       width="8"
       height="24"
       x="20"
       y="12"
       id="rect3847"
       style="fill:#000000;fill-opacity:1;stroke:#ffffff;stroke-width:8;stroke-linecap:round;stroke-linejoin:round;stroke-miterlimit:4;stroke-opacity:1;stroke-dasharray:none" />
    <rect
       width="8"
       height="24"
       x="-28"
       y="12"
       transform="matrix(0,-1,1,0,0,0)"
       id="rect3849"
       style="fill:#000000;fill-opacity:1;stroke:#ffffff;stroke-width:8;stroke-linecap:round;stroke-linejoin:round;stroke-miterlimit:4;stroke-opacity:1;stroke-dasharray:none" />
    <path
       d="m -44.053153,6.5060907 -22.53776,-10e-8 11.26888,-19.5182716 z"
       transform="matrix(0.88739967,0,0,0.51234044,73.092754,10.666667)"
       id="path3851"
       style="fill:#000000;fill-opacity:1;stroke:#ffffff;stroke-width:11.86454391;stroke-linecap:round;stroke-linejoin:round;stroke-miterlimit:4;stroke-opacity:1;stroke-dasharray:none" />
    <path
       d="m -44.053153,6.5060907 -22.53776,-10e-8 11.26888,-19.5182716 z"
       transform="matrix(0.88739967,0,0,-0.51234044,73.092754,37.333333)"
       id="path3853"
       style="fill:#000000;fill-opacity:1;stroke:#ffffff;stroke-width:11.86454391;stroke-linecap:round;stroke-linejoin:round;stroke-miterlimit:4;stroke-opacity:1;stroke-dasharray:none" />
    <path
       d="m -44.053153,6.5060907 -22.53776,-10e-8 11.26888,-19.5182716 z"
       transform="matrix(0,0.88739967,0.51234044,0,10.666667,73.092754)"
       id="path3855"
       style="fill:#000000;fill-opacity:1;stroke:#ffffff;stroke-width:11.86454391;stroke-linecap:round;stroke-linejoin:round;stroke-miterlimit:4;stroke-opacity:1;stroke-dasharray:none" />
    <path
       d="m -44.053153,6.5060907 -22.53776,-10e-8 11.26888,-19.5182716 z"
       transform="matrix(0,0.88739967,-0.51234044,0,37.333333,73.092754)"
       id="path3857"
       style="fill:#000000;fill-opacity:1;stroke:#ffffff;stroke-width:11.86454391;stroke-linecap:round;stroke-linejoin:round;stroke-miterlimit:4;stroke-opacity:1;stroke-dasharray:none" />
  </g>
  <rect
     width="8"
     height="24"
     x="20"
     y="12"
     id="rect3831"
     style="fill:#000000;fill-opacity:1;stroke:none" />
  <rect
     width="8"
     height="24"
     x="-28"
     y="12"
     transform="matrix(0,-1,1,0,0,0)"
     id="rect3833"
     style="fill:#000000;fill-opacity:1;stroke:none" />
  <path
     d="m -43.322033,-23.186442 -14.355018,-5.135855 11.62529,-9.863882 z"
     id="path3837"
     style="fill:#000000;fill-opacity:1;stroke:none" />
  <path
     d="m -44.053153,6.5060907 -22.53776,-10e-8 11.26888,-19.5182716 z"
     transform="matrix(0.88739967,0,0,0.51234044,73.092754,10.666667)"
     id="path3839"
     style="fill:#000000;fill-opacity:1;stroke:none" />
  <path
     d="m -44.053153,6.5060907 -22.53776,-10e-8 11.26888,-19.5182716 z"
     transform="matrix(0.88739967,0,0,-0.51234044,73.092754,37.333333)"
     id="path3841"
     style="fill:#000000;fill-opacity:1;stroke:none" />
  <path
     d="m -44.053153,6.5060907 -22.53776,-10e-8 11.26888,-19.5182716 z"
     transform="matrix(0,0.88739967,0.51234044,0,10.666667,73.092754)"
     id="path3843"
     style="fill:#000000;fill-opacity:1;stroke:none" />
  <path
     d="m -44.053153,6.5060907 -22.53776,-10e-8 11.26888,-19.5182716 z"
     transform="matrix(0,0.88739967,-0.51234044,0,37.333333,73.092754)"
     id="path3845"
     style="fill:#000000;fill-opacity:1;stroke:none" />
</svg>
