<?xml version="1.0" encoding="UTF-8" standalone="no"?>
<!-- Created with Inkscape (http://www.inkscape.org/) -->

<svg
   xmlns:dc="http://purl.org/dc/elements/1.1/"
   xmlns:cc="http://creativecommons.org/ns#"
   xmlns:rdf="http://www.w3.org/1999/02/22-rdf-syntax-ns#"
   xmlns:svg="http://www.w3.org/2000/svg"
   xmlns="http://www.w3.org/2000/svg"
   xmlns:sodipodi="http://sodipodi.sourceforge.net/DTD/sodipodi-0.dtd"
   xmlns:inkscape="http://www.inkscape.org/namespaces/inkscape"
   version="1.1"
   width="48"
   height="48"
   id="svg1872"
   inkscape:version="0.48.3.1 r9886"
   sodipodi:docname="jockey-free.svg">
  <sodipodi:namedview
     pagecolor="#ffffff"
     bordercolor="#666666"
     borderopacity="1"
     objecttolerance="10"
     gridtolerance="10"
     guidetolerance="10"
     inkscape:pageopacity="0"
     inkscape:pageshadow="2"
     inkscape:window-width="640"
     inkscape:window-height="480"
     id="namedview15"
     showgrid="false"
     inkscape:zoom="9.8333333"
     inkscape:cx="31.50314"
     inkscape:cy="22.909964"
     inkscape:window-x="0"
     inkscape:window-y="0"
     inkscape:window-maximized="0"
     inkscape:current-layer="g3024" />
  <defs
     id="defs12" />
  <metadata
     id="metadata1877">
    <rdf:RDF>
      <cc:Work
         rdf:about="">
        <dc:format>image/svg+xml</dc:format>
        <dc:type
           rdf:resource="http://purl.org/dc/dcmitype/StillImage" />
        <dc:title></dc:title>
        <dc:creator>
          <cc:Agent>
            <dc:title>Luca Ferretti &lt;elle.uca@libero.it&gt;</dc:title>
          </cc:Agent>
        </dc:creator>
        <dc:subject>
          <rdf:Bag>
            <rdf:li>archive</rdf:li>
            <rdf:li>package</rdf:li>
            <rdf:li>zip</rdf:li>
            <rdf:li>tar</rdf:li>
            <rdf:li>compress</rdf:li>
          </rdf:Bag>
        </dc:subject>
        <dc:coverage />
        <dc:description>a box in prespective</dc:description>
        <cc:license
           rdf:resource="http://creativecommons.org/licenses/LGPL/2.1/" />
      </cc:Work>
      <cc:License
         rdf:about="http://creativecommons.org/licenses/LGPL/2.1/">
        <cc:permits
           rdf:resource="http://web.resource.org/cc/Reproduction" />
        <cc:permits
           rdf:resource="http://web.resource.org/cc/Distribution" />
        <cc:requires
           rdf:resource="http://web.resource.org/cc/Notice" />
        <cc:permits
           rdf:resource="http://web.resource.org/cc/DerivativeWorks" />
        <cc:requires
           rdf:resource="http://web.resource.org/cc/ShareAlike" />
        <cc:requires
           rdf:resource="http://web.resource.org/cc/SourceCode" />
      </cc:License>
    </rdf:RDF>
  </metadata>
  <g
     id="layer1">
    <path
       d="M 24,6 8,16 V 36 L 24,42 40,32 V 12 L 24,6 z"
       id="path7202"
       style="fill:#ffffff;fill-rule:evenodd;stroke:#ffffff;stroke-width:12;stroke-linecap:round;stroke-linejoin:round;stroke-miterlimit:4;stroke-dasharray:none" />
    <path
       d="M 24,6 8,16 V 36 L 24,42 40,32 V 12 L 24,6 z"
       id="path1882"
       style="fill:#ffffff;fill-rule:evenodd;stroke:#000000;stroke-width:4;stroke-linecap:round;stroke-linejoin:round" />
    <path
       d="M 40,12 24,22"
       id="path2770"
       style="fill:none;stroke:#000000;stroke-width:3;stroke-linecap:round;stroke-linejoin:round" />
    <path
       d="m 8,16 16,6"
       id="path3658"
       style="fill:none;stroke:#000000;stroke-width:3;stroke-linecap:round;stroke-linejoin:round" />
    <path
       d="M 24,41.512 V 22"
       id="path3660"
       style="fill:none;stroke:#000000;stroke-width:3;stroke-linecap:round;stroke-linejoin:round" />
    <g
       id="g3024"
       transform="matrix(0.59763651,0,0,0.59763651,10.705747,6.5077291)">
      <path
         style="color:#000000;fill:#000000;fill-opacity:1;fill-rule:nonzero;stroke:#ffffff;stroke-width:6;stroke-miterlimit:4;stroke-opacity:1;stroke-dasharray:none;marker:none;visibility:visible;display:block;overflow:visible"
         d="m 29.451907,43.552559 -1.666,0 c -1.666,0 -2.499,0.833 -2.499,2.499 l 0,14.161 c 0,0.816612 0.833,2.499 2.499,2.499 l 24.476885,0 c 1.346115,-0.0079 2.179115,-1.68239 2.179115,-2.499 l 0,-14.161 c 0,-1.666 -0.833,-2.506875 -2.499,-2.506875 l -1.666,0.0079 -20.825,0 z m 16.66,0 -12.495,0 12.495,0 z"
         id="path2984"
         inkscape:r_cx="true"
         inkscape:r_cy="true"
         sodipodi:nodetypes="cccccccccccccc"
         inkscape:connector-curvature="0" />
      <path
         style="color:#000000;fill:#000000;fill-opacity:1;fill-rule:nonzero;stroke:#ffffff;stroke-width:6;stroke-miterlimit:4;stroke-opacity:1;stroke-dasharray:none;marker:none;visibility:visible;display:block;overflow:visible"
         d="m 39.482291,24.384773 c -5.831,0 -9.996,3.476862 -9.996,9.163 l 0,4.998 20.825,0 0,-4.998 c 0,-5.831 -4.165,-9.163 -9.996,-9.163 l -0.833,0 z m 0,4.165 0.833,0 c 5.831,0 5.831,4.998 5.831,6.664 l 0,3.332 -12.495,0 0,-3.332 c 0,-1.666 0,-6.664 5.831,-6.664 z"
         id="path2986"
         inkscape:r_cx="true"
         inkscape:r_cy="true"
         sodipodi:nodetypes="cccccsccsccccc"
         inkscape:connector-curvature="0" />
      <path
         inkscape:connector-curvature="0"
         sodipodi:nodetypes="cccccccccccccc"
         inkscape:r_cy="true"
         inkscape:r_cx="true"
         id="path2086"
         d="m 29.451907,43.552559 -1.666,0 c -1.666,0 -2.499,0.833 -2.499,2.499 l 0,14.161 c 0,0.816612 0.833,2.499 2.499,2.499 l 24.476885,0 c 1.346115,-0.0079 2.179115,-1.68239 2.179115,-2.499 l 0,-14.161 c 0,-1.666 -0.833,-2.506875 -2.499,-2.506875 l -1.666,0.0079 -20.825,0 z m 16.66,0 -12.495,0 12.495,0 z"
         style="color:#000000;fill:#000000;fill-opacity:1;fill-rule:nonzero;stroke:none;stroke-width:0.9999997;marker:none;visibility:visible;display:block;overflow:visible" />
      <path
         inkscape:connector-curvature="0"
         sodipodi:nodetypes="cccccsccsccccc"
         inkscape:r_cy="true"
         inkscape:r_cx="true"
         id="path2161"
         d="m 39.482291,24.384773 c -5.831,0 -9.996,3.476862 -9.996,9.163 l 0,4.998 20.825,0 0,-4.998 c 0,-5.831 -4.165,-9.163 -9.996,-9.163 l -0.833,0 z m 0,4.165 0.833,0 c 5.831,0 5.831,4.998 5.831,6.664 l 0,3.332 -12.495,0 0,-3.332 c 0,-1.666 0,-6.664 5.831,-6.664 z"
         style="color:#000000;fill:#000000;fill-opacity:1;fill-rule:nonzero;stroke:none;stroke-width:0.9999997;marker:none;visibility:visible;display:block;overflow:visible" />
    </g>
  </g>
</svg>
