<?xml version="1.0" encoding="UTF-8" standalone="no"?>
<!-- Created with Inkscape (http://www.inkscape.org/) -->

<svg
   xmlns:dc="http://purl.org/dc/elements/1.1/"
   xmlns:cc="http://creativecommons.org/ns#"
   xmlns:rdf="http://www.w3.org/1999/02/22-rdf-syntax-ns#"
   xmlns:svg="http://www.w3.org/2000/svg"
   xmlns="http://www.w3.org/2000/svg"
   version="1.1"
   width="48"
   height="48"
   id="svg1872">
  <defs
     id="defs12" />
  <metadata
     id="metadata1877">
    <rdf:RDF>
      <cc:Work
         rdf:about="">
        <dc:format>image/svg+xml</dc:format>
        <dc:type
           rdf:resource="http://purl.org/dc/dcmitype/StillImage" />
        <dc:title></dc:title>
        <dc:creator>
          <cc:Agent>
            <dc:title>Luca Ferretti &lt;elle.uca@libero.it&gt;</dc:title>
          </cc:Agent>
        </dc:creator>
        <dc:subject>
          <rdf:Bag>
            <rdf:li>archive</rdf:li>
            <rdf:li>package</rdf:li>
            <rdf:li>zip</rdf:li>
            <rdf:li>tar</rdf:li>
            <rdf:li>compress</rdf:li>
          </rdf:Bag>
        </dc:subject>
        <dc:coverage />
        <dc:description>a box in prespective</dc:description>
        <cc:license
           rdf:resource="http://creativecommons.org/licenses/LGPL/2.1/" />
      </cc:Work>
      <cc:License
         rdf:about="http://creativecommons.org/licenses/LGPL/2.1/">
        <cc:permits
           rdf:resource="http://web.resource.org/cc/Reproduction" />
        <cc:permits
           rdf:resource="http://web.resource.org/cc/Distribution" />
        <cc:requires
           rdf:resource="http://web.resource.org/cc/Notice" />
        <cc:permits
           rdf:resource="http://web.resource.org/cc/DerivativeWorks" />
        <cc:requires
           rdf:resource="http://web.resource.org/cc/ShareAlike" />
        <cc:requires
           rdf:resource="http://web.resource.org/cc/SourceCode" />
      </cc:License>
    </rdf:RDF>
  </metadata>
  <g
     id="layer1">
    <path
       d="M 24,6 8,16 V 36 L 24,42 40,32 V 12 L 24,6 z"
       id="path7202"
       style="fill:#ffffff;fill-rule:evenodd;stroke:#ffffff;stroke-width:12;stroke-linecap:round;stroke-linejoin:round;stroke-miterlimit:4;stroke-dasharray:none" />
    <path
       d="M 24,6 8,16 V 36 L 24,42 40,32 V 12 L 24,6 z"
       id="path1882"
       style="fill:#ffffff;fill-rule:evenodd;stroke:#000000;stroke-width:4;stroke-linecap:round;stroke-linejoin:round" />
    <path
       d="M 40,12 24,22"
       id="path2770"
       style="fill:none;stroke:#000000;stroke-width:3;stroke-linecap:round;stroke-linejoin:round" />
    <path
       d="m 8,16 16,6"
       id="path3658"
       style="fill:none;stroke:#000000;stroke-width:3;stroke-linecap:round;stroke-linejoin:round" />
    <path
       d="M 24,41.512 V 22"
       id="path3660"
       style="fill:none;stroke:#000000;stroke-width:3;stroke-linecap:round;stroke-linejoin:round" />
    <g
       transform="matrix(0.59322034,0,0,0.59322034,18.305084,18.508475)"
       id="layer1-5">
      <rect
         width="48"
         height="48"
         x="0"
         y="0"
         id="rect4928"
         style="fill:none" />
      <path
         d="M 24,4 C 17,4 12,8.1739 12,15 v 6 h -2 c -2,0 -3,1 -3,3 v 17 c 0,0.98 1,3 3,3 H 39.384 C 41,43.991 42,41.98 42,41 V 24 c 0,-2 -1,-3.009 -3,-3.009 L 37,21 V 15 C 37,8 32,4 25,4 h -1 z m 0,5 h 1 c 7,0 7,6 7,8 v 4 H 17 v -4 c 0,-2 0,-8 7,-8 z"
         id="path4200"
         style="color:#000000;fill:#ffffff;stroke:#ffffff;stroke-width:8;stroke-miterlimit:10;display:block" />
      <path
         d="M 24,4 C 17,4 12,8.1739 12,15 v 6 h -2 c -2,0 -3,1 -3,3 v 17 c 0,0.98 1,3 3,3 H 39.384 C 41,43.991 42,41.98 42,41 V 24 c 0,-2 -1,-3.009 -3,-3.009 L 37,21 V 15 C 37,8 32,4 25,4 h -1 z m 0,5 h 1 c 7,0 7,6 7,8 v 4 H 17 v -4 c 0,-2 0,-8 7,-8 z"
         id="path2086"
         style="color:#000000;display:block" />
    </g>
  </g>
</svg>
