<?xml version="1.0" encoding="UTF-8" standalone="no"?>
<!-- Created with Inkscape (http://www.inkscape.org/) -->

<svg
   xmlns:dc="http://purl.org/dc/elements/1.1/"
   xmlns:cc="http://creativecommons.org/ns#"
   xmlns:rdf="http://www.w3.org/1999/02/22-rdf-syntax-ns#"
   xmlns:svg="http://www.w3.org/2000/svg"
   xmlns="http://www.w3.org/2000/svg"
   version="1.1"
   width="48"
   height="48"
   id="svg1872">
  <defs
     id="defs12" />
  <metadata
     id="metadata1877">
    <rdf:RDF>
      <cc:Work
         rdf:about="">
        <dc:format>image/svg+xml</dc:format>
        <dc:type
           rdf:resource="http://purl.org/dc/dcmitype/StillImage" />
        <dc:title></dc:title>
        <dc:creator>
          <cc:Agent>
            <dc:title>Luca Ferretti &lt;elle.uca@libero.it&gt;</dc:title>
          </cc:Agent>
        </dc:creator>
        <dc:subject>
          <rdf:Bag>
            <rdf:li>archive</rdf:li>
            <rdf:li>package</rdf:li>
            <rdf:li>zip</rdf:li>
            <rdf:li>tar</rdf:li>
            <rdf:li>compress</rdf:li>
          </rdf:Bag>
        </dc:subject>
        <dc:coverage />
        <dc:description>a box in prespective</dc:description>
        <cc:license
           rdf:resource="http://creativecommons.org/licenses/LGPL/2.1/" />
      </cc:Work>
      <cc:License
         rdf:about="http://creativecommons.org/licenses/LGPL/2.1/">
        <cc:permits
           rdf:resource="http://web.resource.org/cc/Reproduction" />
        <cc:permits
           rdf:resource="http://web.resource.org/cc/Distribution" />
        <cc:requires
           rdf:resource="http://web.resource.org/cc/Notice" />
        <cc:permits
           rdf:resource="http://web.resource.org/cc/DerivativeWorks" />
        <cc:requires
           rdf:resource="http://web.resource.org/cc/ShareAlike" />
        <cc:requires
           rdf:resource="http://web.resource.org/cc/SourceCode" />
      </cc:License>
    </rdf:RDF>
  </metadata>
  <g
     id="layer1">
    <path
       d="M 24,6 8,16 V 36 L 24,42 40,32 V 12 L 24,6 z"
       id="path7202"
       style="fill:#ffffff;fill-rule:evenodd;stroke:#ffffff;stroke-width:12;stroke-linecap:round;stroke-linejoin:round;stroke-miterlimit:4;stroke-dasharray:none" />
    <path
       d="M 24,6 8,16 V 36 L 24,42 40,32 V 12 L 24,6 z"
       id="path1882"
       style="fill:#ffffff;fill-rule:evenodd;stroke:#000000;stroke-width:4;stroke-linecap:round;stroke-linejoin:round" />
    <path
       d="M 40,12 24,22"
       id="path2770"
       style="fill:none;stroke:#000000;stroke-width:3;stroke-linecap:round;stroke-linejoin:round" />
    <path
       d="m 8,16 16,6"
       id="path3658"
       style="fill:none;stroke:#000000;stroke-width:3;stroke-linecap:round;stroke-linejoin:round" />
    <path
       d="M 24,41.512 V 22"
       id="path3660"
       style="fill:none;stroke:#000000;stroke-width:3;stroke-linecap:round;stroke-linejoin:round" />
    <path
       d="m 33.152132,31.687029 -4.482526,-0.72594 -4.148524,2.054104 -2.227246,-3.957196 -4.192525,-1.962733 1.705194,-4.208602 -1.07947,-4.501594 4.35359,-1.290845 2.846448,-3.650661 3.723642,2.598944 4.628934,-0.05071 0.289716,4.531676 2.925737,3.587431 -3.362371,3.051963 z"
       transform="matrix(0.70710678,-0.70710678,0.70710678,0.70710678,-1.8694018,35.883114)"
       id="path3765"
       style="fill:#d30000;fill-opacity:1;stroke:#ffffff;stroke-width:7;stroke-linecap:round;stroke-linejoin:round;stroke-miterlimit:4;stroke-opacity:1;stroke-dasharray:none" />
    <path
       d="m 33.152132,31.687029 -4.482526,-0.72594 -4.148524,2.054104 -2.227246,-3.957196 -4.192525,-1.962733 1.705194,-4.208602 -1.07947,-4.501594 4.35359,-1.290845 2.846448,-3.650661 3.723642,2.598944 4.628934,-0.05071 0.289716,4.531676 2.925737,3.587431 -3.362371,3.051963 z"
       transform="matrix(0.70710678,-0.70710678,0.70710678,0.70710678,-1.8694018,35.883114)"
       id="path2995"
       style="fill:#d30000;fill-opacity:1;stroke:#000000;stroke-width:3;stroke-linecap:round;stroke-linejoin:round;stroke-miterlimit:4;stroke-opacity:1;stroke-dasharray:none" />
  </g>
</svg>
