<?xml version="1.0" encoding="UTF-8" standalone="no"?>
<!-- Created with Inkscape (http://www.inkscape.org/) -->

<svg
   xmlns:dc="http://purl.org/dc/elements/1.1/"
   xmlns:cc="http://creativecommons.org/ns#"
   xmlns:rdf="http://www.w3.org/1999/02/22-rdf-syntax-ns#"
   xmlns:svg="http://www.w3.org/2000/svg"
   xmlns="http://www.w3.org/2000/svg"
   version="1.1"
   width="48"
   height="48"
   id="svg1872">
  <defs
     id="defs12" />
  <metadata
     id="metadata1877">
    <rdf:RDF>
      <cc:Work
         rdf:about="">
        <dc:format>image/svg+xml</dc:format>
        <dc:type
           rdf:resource="http://purl.org/dc/dcmitype/StillImage" />
        <dc:title></dc:title>
        <dc:creator>
          <cc:Agent>
            <dc:title>Luca Ferretti &lt;elle.uca@libero.it&gt;</dc:title>
          </cc:Agent>
        </dc:creator>
        <dc:subject>
          <rdf:Bag>
            <rdf:li>archive</rdf:li>
            <rdf:li>package</rdf:li>
            <rdf:li>zip</rdf:li>
            <rdf:li>tar</rdf:li>
            <rdf:li>compress</rdf:li>
          </rdf:Bag>
        </dc:subject>
        <dc:coverage />
        <dc:description>a box in prespective</dc:description>
        <cc:license
           rdf:resource="http://creativecommons.org/licenses/LGPL/2.1/" />
      </cc:Work>
      <cc:License
         rdf:about="http://creativecommons.org/licenses/LGPL/2.1/">
        <cc:permits
           rdf:resource="http://web.resource.org/cc/Reproduction" />
        <cc:permits
           rdf:resource="http://web.resource.org/cc/Distribution" />
        <cc:requires
           rdf:resource="http://web.resource.org/cc/Notice" />
        <cc:permits
           rdf:resource="http://web.resource.org/cc/DerivativeWorks" />
        <cc:requires
           rdf:resource="http://web.resource.org/cc/ShareAlike" />
        <cc:requires
           rdf:resource="http://web.resource.org/cc/SourceCode" />
      </cc:License>
    </rdf:RDF>
  </metadata>
  <g
     id="layer1">
    <path
       d="M 24,6 8,16 V 36 L 24,42 40,32 V 12 L 24,6 z"
       id="path7202"
       style="fill:#ffffff;fill-rule:evenodd;stroke:#ffffff;stroke-width:12;stroke-linecap:round;stroke-linejoin:round;stroke-miterlimit:4;stroke-dasharray:none" />
    <path
       d="M 24,6 8,16 V 36 L 24,42 40,32 V 12 L 24,6 z"
       id="path1882"
       style="fill:#ffffff;fill-rule:evenodd;stroke:#000000;stroke-width:4;stroke-linecap:round;stroke-linejoin:round" />
    <path
       d="M 40,12 24,22"
       id="path2770"
       style="fill:none;stroke:#000000;stroke-width:3;stroke-linecap:round;stroke-linejoin:round" />
    <path
       d="m 8,16 16,6"
       id="path3658"
       style="fill:none;stroke:#000000;stroke-width:3;stroke-linecap:round;stroke-linejoin:round" />
    <path
       d="M 24,41.512 V 22"
       id="path3660"
       style="fill:none;stroke:#000000;stroke-width:3;stroke-linecap:round;stroke-linejoin:round" />
    <g
       transform="matrix(0.59763651,0,0,0.59763651,10.705747,6.5077291)"
       id="g3024">
      <g
         transform="matrix(0.87148848,0,0,0.87148848,18.004849,25.709862)"
         id="layer1-1">
        <rect
           width="48"
           height="48"
           rx="0"
           x="0"
           y="0"
           id="rect3312"
           style="fill:none" />
        <path
           d="m 43.988319,24.006371 a 19.99469,19.99469 0 1 1 -39.9893795,0 19.99469,19.99469 0 1 1 39.9893795,0 z"
           id="path7705"
           style="fill:#ffffff;fill-rule:evenodd;stroke:#ffffff;stroke-width:6" />
        <path
           d="m 42.985708,24.006371 a 18.992079,19.117405 0 1 1 -37.9841573,0 18.992079,19.117405 0 1 1 37.9841573,0 z"
           id="path4768"
           style="fill-rule:evenodd" />
        <path
           d="m 36.748488,24 a 12.748488,12.748488 0 1 1 -25.496976,0 12.748488,12.748488 0 1 1 25.496976,0 z"
           transform="matrix(0.95071,0,0,0.95071,1.183,1.183)"
           id="path6249"
           style="fill:#ffffff;fill-rule:evenodd" />
        <rect
           width="31.867001"
           height="7.3354001"
           ry="0"
           x="-15.934"
           y="30.273001"
           transform="matrix(-0.70711,0.70711,0.70711,0.70711,0,0)"
           id="rect6977"
           style="fill-rule:evenodd" />
      </g>
    </g>
  </g>
</svg>
