<?xml version="1.0" encoding="UTF-8" standalone="no"?>
<!-- Created with Inkscape (http://www.inkscape.org/) -->

<svg
   xmlns:dc="http://purl.org/dc/elements/1.1/"
   xmlns:cc="http://creativecommons.org/ns#"
   xmlns:rdf="http://www.w3.org/1999/02/22-rdf-syntax-ns#"
   xmlns:svg="http://www.w3.org/2000/svg"
   xmlns="http://www.w3.org/2000/svg"
   xmlns:sodipodi="http://sodipodi.sourceforge.net/DTD/sodipodi-0.dtd"
   xmlns:inkscape="http://www.inkscape.org/namespaces/inkscape"
   version="1.1"
   width="48"
   height="48"
   id="svg1306"
   inkscape:version="0.48.3.1 r9886"
   sodipodi:docname="remmina-scale.svg">
  <sodipodi:namedview
     pagecolor="#ffffff"
     bordercolor="#666666"
     borderopacity="1"
     objecttolerance="10"
     gridtolerance="10"
     guidetolerance="10"
     inkscape:pageopacity="0"
     inkscape:pageshadow="2"
     inkscape:window-width="1366"
     inkscape:window-height="717"
     id="namedview10"
     showgrid="false"
     inkscape:zoom="9.8333333"
     inkscape:cx="16.227847"
     inkscape:cy="19.728302"
     inkscape:window-x="0"
     inkscape:window-y="0"
     inkscape:window-maximized="1"
     inkscape:current-layer="g3965" />
  <defs
     id="defs14" />
  <metadata
     id="metadata1311">
    <rdf:RDF>
      <cc:Work
         rdf:about="">
        <dc:format>image/svg+xml</dc:format>
        <dc:type
           rdf:resource="http://purl.org/dc/dcmitype/StillImage" />
        <dc:title />
      </cc:Work>
    </rdf:RDF>
  </metadata>
  <g
     id="layer1">
    <g
       transform="matrix(0.65789474,0,0,0.57142857,-27.315789,9.6428572)"
       id="g3759">
      <g
         id="g3893">
        <g
           transform="matrix(1.52,0,0,1.75,-85.860728,37.130965)"
           id="g4034"
           style="stroke:#ffffff;stroke-opacity:1;stroke-width:4;stroke-miterlimit:4;stroke-dasharray:none">
          <g
             transform="matrix(-0.52068821,0,0,0.52068821,126.80291,-12.910552)"
             id="g4036"
             style="stroke:#ffffff;stroke-opacity:1;stroke-width:7.68214052;stroke-miterlimit:4;stroke-dasharray:none">
            <path
               id="path4038"
               sodipodi:rx="20"
               sodipodi:ry="20"
               style="fill:#ffffff;stroke:#ffffff;stroke-opacity:1;stroke-width:7.68214052;stroke-miterlimit:4;stroke-dasharray:none"
               sodipodi:type="arc"
               d="M 40,20 C 40,31.045695 31.045695,40 20,40 8.954305,40 0,31.045695 0,20 0,8.954305 8.954305,0 20,0 31.045695,0 40,8.954305 40,20 z"
               transform="matrix(-1,0,0,1,48.013,0)"
               sodipodi:cy="20"
               sodipodi:cx="20" />
            <path
               inkscape:connector-curvature="0"
               id="path4040"
               sodipodi:nodetypes="cczzzcc"
               style="color:#000000;fill:#ffffff;stroke:#ffffff;stroke-width:7.68214052;stroke-linecap:round;stroke-linejoin:round;stroke-opacity:1;stroke-miterlimit:4;stroke-dasharray:none"
               d="m 18.513,29.5 -2,6.5 -7.0004,7.5 c -0.4825,0.517 -2.7323,1.268 -4.5,-0.5 -1.5,-1.5 -1.0334,-4.002 -0.5,-4.5 l 7.5004,-7 6.5,-2 z" />
            <path
               id="path4042"
               sodipodi:rx="16"
               sodipodi:ry="16"
               sodipodi:type="arc"
               d="M 36,20 C 36,28.836556 28.836556,36 20,36 11.163444,36 4,28.836556 4,20 4,11.163444 11.163444,4 20,4 c 8.836556,0 16,7.163444 16,16 z"
               transform="matrix(-1,0,0,1,48.013,0)"
               sodipodi:cy="20"
               sodipodi:cx="20"
               style="stroke:#ffffff;stroke-opacity:1;stroke-width:7.68214052;stroke-miterlimit:4;stroke-dasharray:none" />
            <path
               id="path4044"
               sodipodi:rx="12"
               sodipodi:ry="12"
               style="fill:#ffffff;stroke:#ffffff;stroke-opacity:1;stroke-width:7.68214052;stroke-miterlimit:4;stroke-dasharray:none"
               sodipodi:type="arc"
               d="M 32,20 C 32,26.627417 26.627417,32 20,32 13.372583,32 8,26.627417 8,20 8,13.372583 13.372583,8 20,8 c 6.627417,0 12,5.372583 12,12 z"
               transform="matrix(-1,0,0,1,48.013,0)"
               sodipodi:cy="20"
               sodipodi:cx="20" />
            <path
               inkscape:connector-curvature="0"
               id="path4046"
               sodipodi:nodetypes="cczzzcc"
               style="color:#000000;stroke:#ffffff;stroke-opacity:1;stroke-width:7.68214052;stroke-miterlimit:4;stroke-dasharray:none"
               d="m 18.513,29.5 -2,6.5 -7.0004,7.5 c -0.4825,0.517 -2.7323,1.268 -4.5,-0.5 -1.5,-1.5 -1.0334,-4.002 -0.5,-4.5 l 7.5004,-7 6.5,-2 z" />
          </g>
        </g>
        <g
           id="g3805">
          <path
             inkscape:connector-curvature="0"
             style="fill-rule:evenodd;stroke-width:16.30950641000000090;stroke-miterlimit:4;stroke-dasharray:none;stroke:#ffffff;stroke-opacity:1"
             id="path4048"
             d="m 62,7.1875005 h 32 c 2,0 3,1 3,3.0000005 v 32 H 59 v -32 c 0,-2.0000005 1,-3.0000005 3,-3.0000005 z" />
          <g
             transform="translate(0,2.1875005)"
             id="g2987">
            <path
               inkscape:connector-curvature="0"
               style="fill-rule:evenodd"
               id="rect1314"
               d="m 62,5 h 32 c 2,0 3,1 3,3 V 40 H 59 V 8 c 0,-2 1,-3 3,-3 z" />
            <path
               inkscape:connector-curvature="0"
               style="fill:#ffffff;fill-rule:evenodd"
               id="rect2044"
               d="m 64,9 h 28 c 0.592,0 1,0.4075 1,1 v 25 c 0,0.592 -0.408,1 -1,1 H 64 c -0.5925,0 -1,-0.408 -1,-1 V 10 c 0,-0.5925 0.4075,-1 1,-1 z" />
          </g>
          <path
             d="m 62,7.1875005 h 32 c 2,0 3,1 3,3.0000005 v 32 H 59 v -32 c 0,-2.0000005 1,-3.0000005 3,-3.0000005 z"
             id="path3761"
             style="fill-rule:evenodd"
             inkscape:connector-curvature="0" />
          <path
             d="m 66.8,13.887501 h 22.4 c 0.4736,0 0.8,0.326 0.8,0.8 v 20 c 0,0.4736 -0.3264,0.8 -0.8,0.8 H 66.8 c -0.474,0 -0.8,-0.3264 -0.8,-0.8 v -20 c 0,-0.474 0.326,-0.8 0.8,-0.8 z"
             id="path3763"
             style="fill:#ffffff;fill-rule:evenodd"
             inkscape:connector-curvature="0" />
        </g>
        <g
           id="layer5"
           transform="matrix(1.52,0,0,1.75,-85.860728,37.130965)">
          <g
             id="g3965"
             transform="matrix(-0.52068821,0,0,0.52068821,126.80291,-12.910552)">
            <path
               sodipodi:cx="20"
               sodipodi:cy="20"
               transform="matrix(-1,0,0,1,48.013,0)"
               d="M 40,20 C 40,31.045695 31.045695,40 20,40 8.954305,40 0,31.045695 0,20 0,8.954305 8.954305,0 20,0 31.045695,0 40,8.954305 40,20 z"
               sodipodi:type="arc"
               style="fill:#ffffff"
               sodipodi:ry="20"
               sodipodi:rx="20"
               id="path3244" />
            <path
               d="m 18.513,29.5 -2,6.5 -7.0004,7.5 c -0.4825,0.517 -2.7323,1.268 -4.5,-0.5 -1.5,-1.5 -1.0334,-4.002 -0.5,-4.5 l 7.5004,-7 6.5,-2 z"
               style="color:#000000;fill:#ffffff;stroke:#ffffff;stroke-width:8;stroke-linecap:round;stroke-linejoin:round"
               sodipodi:nodetypes="cczzzcc"
               id="path2682"
               inkscape:connector-curvature="0" />
            <path
               sodipodi:cx="20"
               sodipodi:cy="20"
               transform="matrix(-1,0,0,1,48.013,0)"
               d="M 36,20 C 36,28.836556 28.836556,36 20,36 11.163444,36 4,28.836556 4,20 4,11.163444 11.163444,4 20,4 c 8.836556,0 16,7.163444 16,16 z"
               sodipodi:type="arc"
               sodipodi:ry="16"
               sodipodi:rx="16"
               id="path4119" />
            <path
               sodipodi:cx="20"
               sodipodi:cy="20"
               transform="matrix(-0.8,0,0,0.8,44.013,4)"
               d="M 32,20 A 12,12 0 1 1 8,20 12,12 0 1 1 32,20 z"
               sodipodi:type="arc"
               style="fill:#ffffff"
               sodipodi:ry="12"
               sodipodi:rx="12"
               id="path4994" />
            <path
               d="m 18.513,29.5 -2,6.5 -7.0004,7.5 c -0.4825,0.517 -2.7323,1.268 -4.5,-0.5 -1.5,-1.5 -1.0334,-4.002 -0.5,-4.5 l 7.5004,-7 6.5,-2 z"
               style="color:#000000"
               sodipodi:nodetypes="cczzzcc"
               id="path15511"
               inkscape:connector-curvature="0" />
          </g>
        </g>
      </g>
    </g>
  </g>
</svg>
