<?xml version="1.0" encoding="UTF-8" standalone="no"?>
<!-- Created with Inkscape (http://www.inkscape.org/) -->

<svg
   xmlns:dc="http://purl.org/dc/elements/1.1/"
   xmlns:cc="http://creativecommons.org/ns#"
   xmlns:rdf="http://www.w3.org/1999/02/22-rdf-syntax-ns#"
   xmlns:svg="http://www.w3.org/2000/svg"
   xmlns="http://www.w3.org/2000/svg"
   xmlns:sodipodi="http://sodipodi.sourceforge.net/DTD/sodipodi-0.dtd"
   xmlns:inkscape="http://www.inkscape.org/namespaces/inkscape"
   version="1.2"
   width="48"
   height="48"
   id="svg1306"
   inkscape:version="0.48.3.1 r9886"
   sodipodi:docname="remmina-switch-page.svg">
  <sodipodi:namedview
     pagecolor="#ffffff"
     bordercolor="#666666"
     borderopacity="1"
     objecttolerance="10"
     gridtolerance="10"
     guidetolerance="10"
     inkscape:pageopacity="0"
     inkscape:pageshadow="2"
     inkscape:window-width="1366"
     inkscape:window-height="717"
     id="namedview33"
     showgrid="false"
     inkscape:zoom="4.9166667"
     inkscape:cx="-10.169492"
     inkscape:cy="24"
     inkscape:window-x="0"
     inkscape:window-y="0"
     inkscape:window-maximized="1"
     inkscape:current-layer="g4050" />
  <defs
     id="defs14" />
  <metadata
     id="metadata1311">
    <rdf:RDF>
      <cc:Work
         rdf:about="">
        <dc:format>image/svg+xml</dc:format>
        <dc:type
           rdf:resource="http://purl.org/dc/dcmitype/StillImage" />
        <dc:title />
      </cc:Work>
    </rdf:RDF>
  </metadata>
  <g
     id="layer1">
    <g
       transform="matrix(0.65789474,0,0,0.57142857,-27.315789,9.6428572)"
       id="g3759">
      <g
         id="g3893">
        <g
           id="g4086">
          <g
             transform="translate(-5.320001,-6.562501)"
             id="g4062"
             style="stroke:#ffffff;stroke-width:13.04760551;stroke-linecap:round;stroke-linejoin:round;stroke-miterlimit:4;stroke-opacity:1;stroke-dasharray:none">
            <g
               transform="translate(0,2.1875005)"
               id="g4064"
               style="stroke:#ffffff;stroke-width:13.04760551;stroke-linecap:round;stroke-linejoin:round;stroke-miterlimit:4;stroke-opacity:1;stroke-dasharray:none">
              <path
                 d="m 62,5 h 32 c 2,0 3,1 3,3 V 40 H 59 V 8 c 0,-2 1,-3 3,-3 z"
                 id="path4066"
                 style="fill-rule:evenodd;stroke:#ffffff;stroke-width:13.04760551;stroke-linecap:round;stroke-linejoin:round;stroke-miterlimit:4;stroke-opacity:1;stroke-dasharray:none" />
              <path
                 d="m 64,9 h 28 c 0.592,0 1,0.4075 1,1 v 25 c 0,0.592 -0.408,1 -1,1 H 64 c -0.5925,0 -1,-0.408 -1,-1 V 10 c 0,-0.5925 0.4075,-1 1,-1 z"
                 id="path4068"
                 style="fill:#ffffff;fill-rule:evenodd;stroke:#ffffff;stroke-width:13.04760551;stroke-linecap:round;stroke-linejoin:round;stroke-miterlimit:4;stroke-opacity:1;stroke-dasharray:none" />
            </g>
            <path
               d="m 62,7.1875005 h 32 c 2,0 3,1 3,3.0000005 v 32 H 59 v -32 c 0,-2.0000005 1,-3.0000005 3,-3.0000005 z"
               id="path4070"
               style="fill-rule:evenodd;stroke:#ffffff;stroke-width:13.04760551;stroke-linecap:round;stroke-linejoin:round;stroke-miterlimit:4;stroke-opacity:1;stroke-dasharray:none" />
            <path
               d="m 64,11.187501 h 28 c 0.592,0 1,0.4075 1,1 v 25 c 0,0.592 -0.408,1 -1,1 H 64 c -0.5925,0 -1,-0.408 -1,-1 v -25 c 0,-0.5925 0.4075,-1 1,-1 z"
               id="path4072"
               style="fill:#ffffff;fill-rule:evenodd;stroke:#ffffff;stroke-width:13.04760551;stroke-linecap:round;stroke-linejoin:round;stroke-miterlimit:4;stroke-opacity:1;stroke-dasharray:none" />
          </g>
          <g
             transform="translate(6.839999,10.937499)"
             id="g4074"
             style="stroke:#ffffff;stroke-width:13.04760551;stroke-linecap:round;stroke-linejoin:round;stroke-miterlimit:4;stroke-opacity:1;stroke-dasharray:none">
            <g
               transform="translate(0,2.1875005)"
               id="g4076"
               style="stroke:#ffffff;stroke-width:13.04760551;stroke-linecap:round;stroke-linejoin:round;stroke-miterlimit:4;stroke-opacity:1;stroke-dasharray:none">
              <path
                 d="m 62,5 h 32 c 2,0 3,1 3,3 V 40 H 59 V 8 c 0,-2 1,-3 3,-3 z"
                 id="path4078"
                 style="fill-rule:evenodd;stroke:#ffffff;stroke-width:13.04760551;stroke-linecap:round;stroke-linejoin:round;stroke-miterlimit:4;stroke-opacity:1;stroke-dasharray:none" />
              <path
                 d="m 64,9 h 28 c 0.592,0 1,0.4075 1,1 v 25 c 0,0.592 -0.408,1 -1,1 H 64 c -0.5925,0 -1,-0.408 -1,-1 V 10 c 0,-0.5925 0.4075,-1 1,-1 z"
                 id="path4080"
                 style="fill:#ffffff;fill-rule:evenodd;stroke:#ffffff;stroke-width:13.04760551;stroke-linecap:round;stroke-linejoin:round;stroke-miterlimit:4;stroke-opacity:1;stroke-dasharray:none" />
            </g>
            <path
               d="m 62,7.1875005 h 32 c 2,0 3,1 3,3.0000005 v 32 H 59 v -32 c 0,-2.0000005 1,-3.0000005 3,-3.0000005 z"
               id="path4082"
               style="fill-rule:evenodd;stroke:#ffffff;stroke-width:13.04760551;stroke-linecap:round;stroke-linejoin:round;stroke-miterlimit:4;stroke-opacity:1;stroke-dasharray:none" />
            <path
               d="m 64,11.187501 h 28 c 0.592,0 1,0.4075 1,1 v 25 c 0,0.592 -0.408,1 -1,1 H 64 c -0.5925,0 -1,-0.408 -1,-1 v -25 c 0,-0.5925 0.4075,-1 1,-1 z"
               id="path4084"
               style="fill:#ffffff;fill-rule:evenodd;stroke:#ffffff;stroke-width:13.04760551;stroke-linecap:round;stroke-linejoin:round;stroke-miterlimit:4;stroke-opacity:1;stroke-dasharray:none" />
          </g>
        </g>
        <g
           transform="translate(-5.320001,-6.562501)"
           id="g3805">
          <g
             transform="translate(0,2.1875005)"
             id="g2987">
            <path
               d="m 62,5 h 32 c 2,0 3,1 3,3 V 40 H 59 V 8 c 0,-2 1,-3 3,-3 z"
               id="rect1314"
               style="fill-rule:evenodd" />
            <path
               d="m 64,9 h 28 c 0.592,0 1,0.4075 1,1 v 25 c 0,0.592 -0.408,1 -1,1 H 64 c -0.5925,0 -1,-0.408 -1,-1 V 10 c 0,-0.5925 0.4075,-1 1,-1 z"
               id="rect2044"
               style="fill:#ffffff;fill-rule:evenodd" />
          </g>
          <path
             d="m 62,7.1875005 h 32 c 2,0 3,1 3,3.0000005 v 32 H 59 v -32 c 0,-2.0000005 1,-3.0000005 3,-3.0000005 z"
             id="path3761"
             style="fill-rule:evenodd" />
          <path
             d="m 66.8,13.887501 h 22.4 c 0.4736,0 0.8,0.326 0.8,0.8 v 20 c 0,0.4736 -0.3264,0.8 -0.8,0.8 H 66.8 c -0.474,0 -0.8,-0.3264 -0.8,-0.8 v -20 c 0,-0.474 0.326,-0.8 0.8,-0.8 z"
             id="path3763"
             style="fill:#ffffff;fill-rule:evenodd"
             inkscape:connector-curvature="0" />
        </g>
        <g
           transform="translate(6.839999,10.937499)"
           id="g4050">
          <g
             transform="translate(0,2.1875005)"
             id="g4052">
            <path
               d="m 62,5 h 32 c 2,0 3,1 3,3 V 40 H 59 V 8 c 0,-2 1,-3 3,-3 z"
               id="path4054"
               style="fill-rule:evenodd" />
            <path
               d="m 64,9 h 28 c 0.592,0 1,0.4075 1,1 v 25 c 0,0.592 -0.408,1 -1,1 H 64 c -0.5925,0 -1,-0.408 -1,-1 V 10 c 0,-0.5925 0.4075,-1 1,-1 z"
               id="path4056"
               style="fill:#ffffff;fill-rule:evenodd" />
          </g>
          <path
             d="m 62,7.1875005 h 32 c 2,0 3,1 3,3.0000005 v 32 H 59 v -32 c 0,-2.0000005 1,-3.0000005 3,-3.0000005 z"
             id="path4058"
             style="fill-rule:evenodd" />
          <path
             d="m 66.8,13.887501 h 22.4 c 0.4736,0 0.8,0.326 0.8,0.8 v 20 c 0,0.4736 -0.3264,0.8 -0.8,0.8 H 66.8 c -0.474,0 -0.8,-0.3264 -0.8,-0.8 v -20 c 0,-0.474 0.326,-0.8 0.8,-0.8 z"
             id="path4060"
             style="fill:#ffffff;fill-rule:evenodd"
             inkscape:connector-curvature="0" />
        </g>
      </g>
    </g>
  </g>
</svg>
