<?xml version="1.0" encoding="UTF-8" standalone="no"?>
<!-- Created with Inkscape (http://www.inkscape.org/) -->

<svg
   xmlns:dc="http://purl.org/dc/elements/1.1/"
   xmlns:cc="http://creativecommons.org/ns#"
   xmlns:rdf="http://www.w3.org/1999/02/22-rdf-syntax-ns#"
   xmlns:svg="http://www.w3.org/2000/svg"
   xmlns="http://www.w3.org/2000/svg"
   xmlns:sodipodi="http://sodipodi.sourceforge.net/DTD/sodipodi-0.dtd"
   xmlns:inkscape="http://www.inkscape.org/namespaces/inkscape"
   version="1.2"
   width="48"
   height="48"
   id="svg1306"
   inkscape:version="0.48.3.1 r9886"
   sodipodi:docname="remmina-fullscreen.svg">
  <sodipodi:namedview
     pagecolor="#ffffff"
     bordercolor="#666666"
     borderopacity="1"
     objecttolerance="10"
     gridtolerance="10"
     guidetolerance="10"
     inkscape:pageopacity="0"
     inkscape:pageshadow="2"
     inkscape:window-width="733"
     inkscape:window-height="480"
     id="namedview29"
     showgrid="false"
     inkscape:zoom="4.9166667"
     inkscape:cx="24"
     inkscape:cy="24"
     inkscape:window-x="0"
     inkscape:window-y="0"
     inkscape:window-maximized="0"
     inkscape:current-layer="g3805" />
  <defs
     id="defs14" />
  <metadata
     id="metadata1311">
    <rdf:RDF>
      <cc:Work
         rdf:about="">
        <dc:format>image/svg+xml</dc:format>
        <dc:type
           rdf:resource="http://purl.org/dc/dcmitype/StillImage" />
        <dc:title />
      </cc:Work>
    </rdf:RDF>
  </metadata>
  <g
     id="layer1">
    <g
       transform="matrix(0.65789474,0,0,0.57142857,-27.315789,9.6428572)"
       id="g3759">
      <g
         id="g3905"
         style="stroke:#ffffff;stroke-width:16.30950546;stroke-miterlimit:4;stroke-opacity:1;stroke-dasharray:none">
        <g
           id="g3907"
           style="stroke:#ffffff;stroke-width:16.30950546;stroke-miterlimit:4;stroke-opacity:1;stroke-dasharray:none">
          <g
             transform="translate(0,2.1875005)"
             id="g3909"
             style="stroke:#ffffff;stroke-width:16.30950546;stroke-miterlimit:4;stroke-opacity:1;stroke-dasharray:none">
            <path
               d="m 62,5 h 32 c 2,0 3,1 3,3 V 40 H 59 V 8 c 0,-2 1,-3 3,-3 z"
               id="path3911"
               style="fill-rule:evenodd;stroke:#ffffff;stroke-width:16.30950546;stroke-miterlimit:4;stroke-opacity:1;stroke-dasharray:none" />
            <path
               d="m 64,9 h 28 c 0.592,0 1,0.4075 1,1 v 25 c 0,0.592 -0.408,1 -1,1 H 64 c -0.5925,0 -1,-0.408 -1,-1 V 10 c 0,-0.5925 0.4075,-1 1,-1 z"
               id="path3913"
               style="fill:#ffffff;fill-rule:evenodd;stroke:#ffffff;stroke-width:16.30950546;stroke-miterlimit:4;stroke-opacity:1;stroke-dasharray:none" />
          </g>
          <path
             d="m 62,7.1875005 h 32 c 2,0 3,1 3,3.0000005 v 32 H 59 v -32 c 0,-2.0000005 1,-3.0000005 3,-3.0000005 z"
             id="path3915"
             style="fill-rule:evenodd;stroke:#ffffff;stroke-width:16.30950546;stroke-miterlimit:4;stroke-opacity:1;stroke-dasharray:none" />
          <path
             d="m 64,11.187501 h 28 c 0.592,0 1,0.4075 1,1 v 25 c 0,0.592 -0.408,1 -1,1 H 64 c -0.5925,0 -1,-0.408 -1,-1 v -25 c 0,-0.5925 0.4075,-1 1,-1 z"
             id="path3917"
             style="fill:#ffffff;fill-rule:evenodd;stroke:#ffffff;stroke-width:16.30950546;stroke-miterlimit:4;stroke-opacity:1;stroke-dasharray:none" />
        </g>
        <path
           d="m 19.322035,15.559322 -7.221772,0 3.610886,-6.2542372 3.610886,-6.2542377 3.610886,6.2542375 3.610885,6.2542384 z"
           transform="matrix(1.5161722,0,0,0.61658573,48.949187,-5.9873826)"
           id="path3919"
           style="fill:#000000;fill-opacity:1;stroke:#ffffff;stroke-width:16.86824226;stroke-linecap:round;stroke-linejoin:round;stroke-miterlimit:4;stroke-opacity:1;stroke-dasharray:none" />
        <path
           d="m 19.322035,15.559322 -7.221772,0 3.610886,-6.2542372 3.610886,-6.2542377 3.610886,6.2542375 3.610885,6.2542384 z"
           transform="matrix(1.5161722,0,0,-0.61658573,48.949187,55.362383)"
           id="path3921"
           style="fill:#000000;fill-opacity:1;stroke:#ffffff;stroke-width:16.86824226;stroke-linecap:round;stroke-linejoin:round;stroke-miterlimit:4;stroke-opacity:1;stroke-dasharray:none" />
        <path
           d="m 19.322035,15.559322 -7.221772,0 3.610886,-6.2542372 3.610886,-6.2542377 3.610886,6.2542375 3.610885,6.2542384 z"
           transform="matrix(0,1.745593,-0.53554874,0,108.06333,-9.013833)"
           id="path3923"
           style="fill:#000000;fill-opacity:1;stroke:#ffffff;stroke-width:16.86824226;stroke-linecap:round;stroke-linejoin:round;stroke-miterlimit:4;stroke-opacity:1;stroke-dasharray:none" />
        <path
           d="m 19.322035,15.559322 -7.221772,0 3.610886,-6.2542372 3.610886,-6.2542377 3.610886,6.2542375 3.610885,6.2542384 z"
           transform="matrix(0,1.745593,0.53554874,0,47.936673,-9.013833)"
           id="path3925"
           style="fill:#000000;fill-opacity:1;stroke:#ffffff;stroke-width:16.86824226;stroke-linecap:round;stroke-linejoin:round;stroke-miterlimit:4;stroke-opacity:1;stroke-dasharray:none" />
      </g>
      <g
         id="g3893">
        <g
           id="g3805">
          <g
             transform="translate(0,2.1875005)"
             id="g2987">
            <path
               d="m 62,5 h 32 c 2,0 3,1 3,3 V 40 H 59 V 8 c 0,-2 1,-3 3,-3 z"
               id="rect1314"
               style="fill-rule:evenodd" />
            <path
               d="m 64,9 h 28 c 0.592,0 1,0.4075 1,1 v 25 c 0,0.592 -0.408,1 -1,1 H 64 c -0.5925,0 -1,-0.408 -1,-1 V 10 c 0,-0.5925 0.4075,-1 1,-1 z"
               id="rect2044"
               style="fill:#ffffff;fill-rule:evenodd" />
          </g>
          <path
             d="m 62,7.1875005 h 32 c 2,0 3,1 3,3.0000005 v 32 H 59 v -32 c 0,-2.0000005 1,-3.0000005 3,-3.0000005 z"
             id="path3761"
             style="fill-rule:evenodd" />
          <path
             d="m 66.8,13.887501 h 22.4 c 0.4736,0 0.8,0.326 0.8,0.8 v 20 c 0,0.4736 -0.3264,0.8 -0.8,0.8 H 66.8 c -0.474,0 -0.8,-0.3264 -0.8,-0.8 v -20 c 0,-0.474 0.326,-0.8 0.8,-0.8 z"
             id="path3763"
             style="fill:#ffffff;fill-rule:evenodd"
             inkscape:connector-curvature="0" />
        </g>
        <path
           d="m 19.322035,15.559322 -7.221772,0 3.610886,-6.2542372 3.610886,-6.2542377 3.610886,6.2542375 3.610885,6.2542384 z"
           transform="matrix(1.5161722,0,0,0.61658573,48.949187,-5.9873826)"
           id="path3851"
           style="fill:#000000;fill-opacity:1;stroke:#000000;stroke-width:1;stroke-linecap:round;stroke-linejoin:round;stroke-miterlimit:4;stroke-opacity:1;stroke-dasharray:none" />
        <path
           d="m 19.322035,15.559322 -7.221772,0 3.610886,-6.2542372 3.610886,-6.2542377 3.610886,6.2542375 3.610885,6.2542384 z"
           transform="matrix(1.5161722,0,0,-0.61658573,48.949187,55.362383)"
           id="path3853"
           style="fill:#000000;fill-opacity:1;stroke:#000000;stroke-width:1;stroke-linecap:round;stroke-linejoin:round;stroke-miterlimit:4;stroke-opacity:1;stroke-dasharray:none" />
        <path
           d="m 19.322035,15.559322 -7.221772,0 3.610886,-6.2542372 3.610886,-6.2542377 3.610886,6.2542375 3.610885,6.2542384 z"
           transform="matrix(0,1.745593,-0.53554874,0,108.06333,-9.013833)"
           id="path3855"
           style="fill:#000000;fill-opacity:1;stroke:#000000;stroke-width:1;stroke-linecap:round;stroke-linejoin:round;stroke-miterlimit:4;stroke-opacity:1;stroke-dasharray:none" />
        <path
           d="m 19.322035,15.559322 -7.221772,0 3.610886,-6.2542372 3.610886,-6.2542377 3.610886,6.2542375 3.610885,6.2542384 z"
           transform="matrix(0,1.745593,0.53554874,0,47.936673,-9.013833)"
           id="path3857"
           style="fill:#000000;fill-opacity:1;stroke:#000000;stroke-width:1;stroke-linecap:round;stroke-linejoin:round;stroke-miterlimit:4;stroke-opacity:1;stroke-dasharray:none" />
      </g>
    </g>
  </g>
</svg>
