<?xml version="1.0" encoding="UTF-8" standalone="no"?>
<!-- Created with Inkscape (http://www.inkscape.org/) -->

<svg
   xmlns:dc="http://purl.org/dc/elements/1.1/"
   xmlns:cc="http://creativecommons.org/ns#"
   xmlns:rdf="http://www.w3.org/1999/02/22-rdf-syntax-ns#"
   xmlns:svg="http://www.w3.org/2000/svg"
   xmlns="http://www.w3.org/2000/svg"
   xmlns:sodipodi="http://sodipodi.sourceforge.net/DTD/sodipodi-0.dtd"
   xmlns:inkscape="http://www.inkscape.org/namespaces/inkscape"
   version="1.2"
   width="48"
   height="48"
   id="svg1306"
   inkscape:version="0.48.3.1 r9886"
   sodipodi:docname="remmina-fit-window.svg">
  <sodipodi:namedview
     pagecolor="#ffffff"
     bordercolor="#666666"
     borderopacity="1"
     objecttolerance="10"
     gridtolerance="10"
     guidetolerance="10"
     inkscape:pageopacity="0"
     inkscape:pageshadow="2"
     inkscape:window-width="1366"
     inkscape:window-height="717"
     id="namedview31"
     showgrid="false"
     inkscape:zoom="9.8333333"
     inkscape:cx="14.669638"
     inkscape:cy="23.499692"
     inkscape:window-x="0"
     inkscape:window-y="0"
     inkscape:window-maximized="1"
     inkscape:current-layer="g3805" />
  <defs
     id="defs14" />
  <metadata
     id="metadata1311">
    <rdf:RDF>
      <cc:Work
         rdf:about="">
        <dc:format>image/svg+xml</dc:format>
        <dc:type
           rdf:resource="http://purl.org/dc/dcmitype/StillImage" />
        <dc:title />
      </cc:Work>
    </rdf:RDF>
  </metadata>
  <g
     id="layer1">
    <g
       transform="matrix(0.65789474,0,0,0.57142857,-27.315789,9.6428572)"
       id="g3759">
      <g
         transform="translate(0,2.1875005)"
         id="g3820"
         style="stroke:#ffffff;stroke-width:16.30950546;stroke-linecap:round;stroke-linejoin:round;stroke-miterlimit:4;stroke-opacity:1;stroke-dasharray:none">
        <g
           id="g3822"
           style="stroke:#ffffff;stroke-width:16.30950546;stroke-linecap:round;stroke-linejoin:round;stroke-miterlimit:4;stroke-opacity:1;stroke-dasharray:none">
          <path
             d="m 62,5 h 32 c 2,0 3,1 3,3 V 40 H 59 V 8 c 0,-2 1,-3 3,-3 z"
             id="path3824"
             style="fill-rule:evenodd;stroke:#ffffff;stroke-width:16.30950546;stroke-linecap:round;stroke-linejoin:round;stroke-miterlimit:4;stroke-opacity:1;stroke-dasharray:none" />
          <path
             d="m 64,9 h 28 c 0.592,0 1,0.4075 1,1 v 25 c 0,0.592 -0.408,1 -1,1 H 64 c -0.5925,0 -1,-0.408 -1,-1 V 10 c 0,-0.5925 0.4075,-1 1,-1 z"
             id="path3826"
             style="fill:#ffffff;fill-rule:evenodd;stroke:#ffffff;stroke-width:16.30950546;stroke-linecap:round;stroke-linejoin:round;stroke-miterlimit:4;stroke-opacity:1;stroke-dasharray:none" />
        </g>
        <path
           d="m 62,5 h 32 c 2,0 3,1 3,3 V 40 H 59 V 8 c 0,-2 1,-3 3,-3 z"
           id="path3828"
           style="fill-rule:evenodd;stroke:#ffffff;stroke-width:16.30950546;stroke-linecap:round;stroke-linejoin:round;stroke-miterlimit:4;stroke-opacity:1;stroke-dasharray:none" />
        <path
           d="m 64,9 h 28 c 0.592,0 1,0.4075 1,1 v 25 c 0,0.592 -0.408,1 -1,1 H 64 c -0.5925,0 -1,-0.408 -1,-1 V 10 c 0,-0.5925 0.4075,-1 1,-1 z"
           id="path3830"
           style="fill:#ffffff;fill-rule:evenodd;stroke:#ffffff;stroke-width:16.30950546;stroke-linecap:round;stroke-linejoin:round;stroke-miterlimit:4;stroke-opacity:1;stroke-dasharray:none" />
        <path
           d="m 52.539999,12.4375 0,-14.0593223 12.868474,0"
           id="path3832"
           style="fill:none;stroke:#ffffff;stroke-width:16.30950546;stroke-linecap:round;stroke-linejoin:round;stroke-miterlimit:4;stroke-opacity:1;stroke-dasharray:none" />
        <path
           d="m 52.539999,33.378178 0,14.059322 12.868474,0"
           id="path3834"
           style="fill:none;stroke:#ffffff;stroke-width:16.30950546;stroke-linecap:round;stroke-linejoin:round;stroke-miterlimit:4;stroke-opacity:1;stroke-dasharray:none" />
        <path
           d="m 103.40847,12.4375 0,-14.0593223 -12.868471,0"
           id="path3836"
           style="fill:none;stroke:#ffffff;stroke-width:16.30950546;stroke-linecap:round;stroke-linejoin:round;stroke-miterlimit:4;stroke-opacity:1;stroke-dasharray:none" />
        <path
           d="m 103.40847,33.378178 0,14.059322 -12.868471,0"
           id="path3838"
           style="fill:none;stroke:#ffffff;stroke-width:16.30950546;stroke-linecap:round;stroke-linejoin:round;stroke-miterlimit:4;stroke-opacity:1;stroke-dasharray:none" />
        <g
           transform="matrix(1.52,0,0,1.75,41.301395,-24.425462)"
           id="flowRoot3840"
           style="font-size:4px;font-style:normal;font-weight:bold;line-height:125%;letter-spacing:0px;word-spacing:0px;fill:#000000;fill-opacity:1;stroke:#ffffff;stroke-width:10;font-family:Sans;-inkscape-font-specification:Sans Bold">
          <path
             d="m 20.6675,24.165202 c 0.270665,-0.111992 0.550665,-0.237992 0.84,-0.378 0.298665,-0.149325 0.587998,-0.307991 0.868,-0.476 0.279997,-0.177324 0.545997,-0.359324 0.798,-0.546 0.26133,-0.195991 0.494663,-0.401324 0.7,-0.616 l 1.456,0 0,9.702 -2.086,0 0,-6.986 c -0.280003,0.186674 -0.59267,0.35934 -0.938,0.518 -0.345336,0.14934 -0.681335,0.280006 -1.008,0.392 l -0.63,-1.61"
             id="path3015"
             style="font-size:14px;font-variant:normal;font-stretch:normal;stroke:#ffffff;font-family:Ubuntu;-inkscape-font-specification:Sans Bold" />
        </g>
      </g>
      <g
         id="g3805">
        <g
           transform="translate(0,2.1875005)"
           id="g2987">
          <path
             d="m 62,5 h 32 c 2,0 3,1 3,3 V 40 H 59 V 8 c 0,-2 1,-3 3,-3 z"
             id="rect1314"
             style="fill-rule:evenodd" />
          <path
             d="m 64,9 h 28 c 0.592,0 1,0.4075 1,1 v 25 c 0,0.592 -0.408,1 -1,1 H 64 c -0.5925,0 -1,-0.408 -1,-1 V 10 c 0,-0.5925 0.4075,-1 1,-1 z"
             id="rect2044"
             style="fill:#ffffff;fill-rule:evenodd" />
        </g>
        <path
           d="m 62,7.1875005 h 32 c 2,0 3,1 3,3.0000005 v 32 H 59 v -32 c 0,-2.0000005 1,-3.0000005 3,-3.0000005 z"
           id="path3761"
           style="fill-rule:evenodd" />
        <path
           d="m 66.8,13.887501 h 22.4 c 0.4736,0 0.8,0.326 0.8,0.8 v 20 c 0,0.4736 -0.3264,0.8 -0.8,0.8 H 66.8 c -0.474,0 -0.8,-0.3264 -0.8,-0.8 v -20 c 0,-0.474 0.326,-0.8 0.8,-0.8 z"
           id="path3763"
           style="fill:#ffffff;fill-rule:evenodd"
           inkscape:connector-curvature="0" />
        <path
           d="m 52.539999,14.625001 0,-14.05932277 12.868474,0"
           id="path3767"
           style="fill:none;stroke:#000000;stroke-width:6.52380256;stroke-linecap:round;stroke-linejoin:round;stroke-miterlimit:4;stroke-opacity:1;stroke-dasharray:none" />
        <path
           d="m 52.539999,35.565679 0,14.059322 12.868474,0"
           id="path3769"
           style="fill:none;stroke:#000000;stroke-width:6.52380256;stroke-linecap:round;stroke-linejoin:round;stroke-miterlimit:4;stroke-opacity:1;stroke-dasharray:none" />
        <path
           d="m 103.40847,14.625001 0,-14.05932277 -12.868471,0"
           id="path3771"
           style="fill:none;stroke:#000000;stroke-width:6.52380256;stroke-linecap:round;stroke-linejoin:round;stroke-miterlimit:4;stroke-opacity:1;stroke-dasharray:none" />
        <path
           d="m 103.40847,35.565679 0,14.059322 -12.868471,0"
           id="path3773"
           style="fill:none;stroke:#000000;stroke-width:6.52380256;stroke-linecap:round;stroke-linejoin:round;stroke-miterlimit:4;stroke-opacity:1;stroke-dasharray:none" />
        <g
           transform="matrix(1.52,0,0,1.75,41.301395,-22.237961)"
           id="flowRoot3775"
           style="font-size:4px;font-style:normal;font-weight:bold;line-height:125%;letter-spacing:0px;word-spacing:0px;fill:#000000;fill-opacity:1;stroke:none;font-family:Sans;-inkscape-font-specification:Sans Bold">
          <path
             d="m 20.6675,24.165202 c 0.270665,-0.111992 0.550665,-0.237992 0.84,-0.378 0.298665,-0.149325 0.587998,-0.307991 0.868,-0.476 0.279997,-0.177324 0.545997,-0.359324 0.798,-0.546 0.26133,-0.195991 0.494663,-0.401324 0.7,-0.616 l 1.456,0 0,9.702 -2.086,0 0,-6.986 c -0.280003,0.186674 -0.59267,0.35934 -0.938,0.518 -0.345336,0.14934 -0.681335,0.280006 -1.008,0.392 l -0.63,-1.61"
             id="path3012"
             style="font-size:14px;font-variant:normal;font-stretch:normal;font-family:Ubuntu;-inkscape-font-specification:Sans Bold" />
        </g>
      </g>
    </g>
  </g>
</svg>
