<?xml version="1.0" encoding="UTF-8" standalone="no"?>
<!-- Created with Inkscape (http://www.inkscape.org/) -->

<svg
   xmlns:dc="http://purl.org/dc/elements/1.1/"
   xmlns:cc="http://creativecommons.org/ns#"
   xmlns:rdf="http://www.w3.org/1999/02/22-rdf-syntax-ns#"
   xmlns:svg="http://www.w3.org/2000/svg"
   xmlns="http://www.w3.org/2000/svg"
   xmlns:xlink="http://www.w3.org/1999/xlink"
   version="1.1"
   width="48"
   height="48"
   id="svg1307">
  <defs
     id="defs17" />
  <metadata
     id="metadata1312">
    <rdf:RDF>
      <cc:Work
         rdf:about="">
        <dc:format>image/svg+xml</dc:format>
        <dc:type
           rdf:resource="http://purl.org/dc/dcmitype/StillImage" />
        <dc:title></dc:title>
      </cc:Work>
    </rdf:RDF>
  </metadata>
  <g
     id="layer1">
    <rect
       width="48"
       height="48"
       ry="0"
       x="0"
       y="0"
       id="rect2190"
       style="fill:none" />
    <path
       d="m 37,24 a 13,13 0 1 1 -26,0 13,13 0 1 1 26,0 z"
       id="path5706"
       style="fill:none;stroke:#ffffff;stroke-width:20" />
    <path
       d="m 37,24 a 13,13 0 1 1 -26,0 13,13 0 1 1 26,0 z"
       id="path3954"
       style="fill:none;stroke:#000000;stroke-width:12" />
    <path
       d="m 30.5,12.74167 a 13,13 0 0 1 6.302501,9.000904"
       id="path4829"
       style="fill:none;stroke:#d30000;stroke-width:6;stroke-opacity:1" />
    <path
       d="M 17.5,35.25833 A 13,13 0 0 1 11.197499,26.257427"
       id="path5704"
       style="fill:none;stroke:#d30000;stroke-width:6;stroke-opacity:1" />
  </g>
  <g
     transform="matrix(0.62499896,0,0,0.62499896,17.949178,18)"
     id="layer1-9">
    <rect
       width="48"
       height="48"
       x="0"
       y="0"
       id="rect4126"
       style="fill:none" />
    <path
       d="M 21,34 A 7.5,6 0 1 1 6,34 7.5,6 0 1 1 21,34 z"
       transform="matrix(1.0667,0,0,1,-1.4,0)"
       id="path5117"
       style="fill:#ffffff;stroke:#ffffff;stroke-width:7.74599981;stroke-linecap:round;stroke-linejoin:round" />
    <path
       d="M 21,34 V 15 l 16,4 v 19 h 5 V 11 L 16,4 v 30 h 5 z"
       id="path6090"
       style="fill:#ffffff;fill-rule:evenodd;stroke:#ffffff;stroke-width:8;stroke-linecap:round;stroke-linejoin:round" />
    <path
       d="M 21,34 A 7.5,6 0 1 1 6,34 7.5,6 0 1 1 21,34 z"
       transform="matrix(1.0667,0,0,1,-1.4,0)"
       id="path3149" />
    <path
       d="M 21,34 A 7.5,6 0 1 1 6,34 7.5,6 0 1 1 21,34 z"
       transform="matrix(1.0667,0,0,1,19.6,4)"
       id="path6088"
       style="fill:#ffffff;stroke:#ffffff;stroke-width:7.74599981;stroke-linecap:round;stroke-linejoin:round" />
    <path
       d="M 21,34 V 15 l 16,4 v 19 h 5 V 11 L 16,4 v 30 h 5 z"
       id="path3153"
       style="fill-rule:evenodd" />
    <use
       transform="translate(21,4)"
       id="use4124"
       x="0"
       y="0"
       width="48"
       height="48"
       xlink:href="#path3149" />
  </g>
</svg>
