<?xml version="1.0" encoding="UTF-8" standalone="no"?>
<!-- Created with Inkscape (http://www.inkscape.org/) -->

<svg
   xmlns:dc="http://purl.org/dc/elements/1.1/"
   xmlns:cc="http://creativecommons.org/ns#"
   xmlns:rdf="http://www.w3.org/1999/02/22-rdf-syntax-ns#"
   xmlns:svg="http://www.w3.org/2000/svg"
   xmlns="http://www.w3.org/2000/svg"
   version="1.1"
   width="48"
   height="48"
   id="svg1306">
  <defs
     id="defs14" />
  <metadata
     id="metadata1311">
    <rdf:RDF>
      <cc:Work
         rdf:about="">
        <dc:format>image/svg+xml</dc:format>
        <dc:type
           rdf:resource="http://purl.org/dc/dcmitype/StillImage" />
        <dc:title></dc:title>
      </cc:Work>
    </rdf:RDF>
  </metadata>
  <g
     id="layer1">
    <rect
       width="48"
       height="48"
       ry="0"
       x="0"
       y="0"
       id="rect5680"
       style="fill:none" />
    <rect
       width="38"
       height="34.950001"
       ry="1.3839999"
       x="5"
       y="5"
       id="rect4952"
       style="fill:#ffffff;fill-rule:evenodd;stroke:#ffffff;stroke-width:8;stroke-linecap:round;stroke-linejoin:round" />
    <path
       d="m 8,5 h 32 c 2,0 3,1 3,3 V 40 H 5 V 8 C 5,6 6,5 8,5 z"
       id="rect1314"
       style="fill-rule:evenodd" />
    <path
       d="m 10,9 h 28 c 0.592,0 1,0.4075 1,1 v 25 c 0,0.592 -0.408,1 -1,1 H 10 C 9.4075,36 9,35.592 9,35 V 10 C 9,9.4075 9.4075,9 10,9 z"
       id="rect2044"
       style="fill:#ffffff;fill-rule:evenodd" />
    <path
       d="M 11,31.5 H 37"
       id="path2772"
       style="fill:none;stroke:#000000;stroke-width:6" />
    <path
       d="M 18.343146,12.843146 29.656854,24.156854"
       id="path1874"
       style="fill:none;stroke:#d30000;stroke-width:4;stroke-opacity:1" />
    <path
       d="M 18.343146,24.156854 29.656854,12.843146"
       id="path2762"
       style="fill:none;stroke:#d30000;stroke-width:4;stroke-opacity:1" />
  </g>
</svg>
