<?xml version="1.0" encoding="UTF-8" standalone="no"?>
<!-- Created with Inkscape (http://www.inkscape.org/) -->

<svg
   xmlns:dc="http://purl.org/dc/elements/1.1/"
   xmlns:cc="http://creativecommons.org/ns#"
   xmlns:rdf="http://www.w3.org/1999/02/22-rdf-syntax-ns#"
   xmlns:svg="http://www.w3.org/2000/svg"
   xmlns="http://www.w3.org/2000/svg"
   version="1.1"
   width="48"
   height="48"
   id="svg3304">
  <defs
     id="defs9" />
  <metadata
     id="metadata3309">
    <rdf:RDF>
      <cc:Work
         rdf:about="">
        <dc:format>image/svg+xml</dc:format>
        <dc:type
           rdf:resource="http://purl.org/dc/dcmitype/StillImage" />
        <dc:title></dc:title>
        <dc:date>September 2006</dc:date>
        <dc:creator>
          <cc:Agent>
            <dc:title>Andreas Nilsson</dc:title>
          </cc:Agent>
        </dc:creator>
        <dc:subject>
          <rdf:Bag>
            <rdf:li>contact</rdf:li>
            <rdf:li>address</rdf:li>
            <rdf:li>add</rdf:li>
          </rdf:Bag>
        </dc:subject>
        <dc:source>http://www.gnome.org</dc:source>
        <cc:license
           rdf:resource="http://creativecommons.org/licenses/GPL/2.0/" />
      </cc:Work>
      <cc:License
         rdf:about="http://creativecommons.org/licenses/GPL/2.0/">
        <cc:permits
           rdf:resource="http://web.resource.org/cc/Reproduction" />
        <cc:permits
           rdf:resource="http://web.resource.org/cc/Distribution" />
        <cc:requires
           rdf:resource="http://web.resource.org/cc/Notice" />
        <cc:permits
           rdf:resource="http://web.resource.org/cc/DerivativeWorks" />
        <cc:requires
           rdf:resource="http://web.resource.org/cc/ShareAlike" />
        <cc:requires
           rdf:resource="http://web.resource.org/cc/SourceCode" />
      </cc:License>
    </rdf:RDF>
  </metadata>
  <g
     id="layer1">
    <path
       d="m 17.5,4 c -4.742182,0 -8.5909089,3.8470919 -8.5909089,8.583367 0,2.733307 1.2849539,5.169193 3.2792719,6.741091 H 9.120182 C 6.2789842,19.324458 4,21.928103 4,25.162228 V 31 h 27 v -5.837772 c 0,-3.234125 -2.279046,-5.83777 -5.120181,-5.83777 h -3.068183 c 1.994318,-1.571898 3.279273,-4.007784 3.279273,-6.740476 0,-4.7365828 -3.848728,-8.5833673 -8.590909,-8.5833673 z"
       id="path3757"
       style="stroke:#ffffff;stroke-width:8;stroke-miterlimit:4;stroke-opacity:1;stroke-dasharray:none" />
    <path
       d="m 17.5,4 c -4.742182,0 -8.5909089,3.8470919 -8.5909089,8.583367 0,2.733307 1.2849539,5.169193 3.2792719,6.741091 H 9.120182 C 6.2789842,19.324458 4,21.928103 4,25.162228 V 31 h 27 v -5.837772 c 0,-3.234125 -2.279046,-5.83777 -5.120181,-5.83777 h -3.068183 c 1.994318,-1.571898 3.279273,-4.007784 3.279273,-6.740476 0,-4.7365828 -3.848728,-8.5833673 -8.590909,-8.5833673 z"
       id="rect4337"
       style="stroke:none" />
    <path
       d="m 30.5,17 c -4.742182,0 -8.590909,3.847091 -8.590909,8.583367 0,2.733307 1.284954,5.169193 3.279272,6.741091 H 22.120182 C 19.278984,32.324458 17,34.928103 17,38.162228 V 44 h 27 v -5.837772 c 0,-3.234125 -2.279046,-5.83777 -5.120181,-5.83777 h -3.068183 c 1.994318,-1.571898 3.279273,-4.007784 3.279273,-6.740476 0,-4.736583 -3.848728,-8.583368 -8.590909,-8.583368 z"
       id="path3755"
       style="stroke:#ffffff;stroke-width:8;stroke-miterlimit:4;stroke-opacity:1;stroke-dasharray:none" />
    <path
       d="m 30.5,17 c -4.742182,0 -8.590909,3.847091 -8.590909,8.583367 0,2.733307 1.284954,5.169193 3.279272,6.741091 H 22.120182 C 19.278984,32.324458 17,34.928103 17,38.162228 V 44 h 27 v -5.837772 c 0,-3.234125 -2.279046,-5.83777 -5.120181,-5.83777 h -3.068183 c 1.994318,-1.571898 3.279273,-4.007784 3.279273,-6.740476 0,-4.736583 -3.848728,-8.583368 -8.590909,-8.583368 z"
       id="path3753"
       style="stroke:none" />
  </g>
</svg>
