<?xml version="1.0" encoding="UTF-8" standalone="no"?>
<!-- Created with Inkscape (http://www.inkscape.org/) -->

<svg
   xmlns:dc="http://purl.org/dc/elements/1.1/"
   xmlns:cc="http://creativecommons.org/ns#"
   xmlns:rdf="http://www.w3.org/1999/02/22-rdf-syntax-ns#"
   xmlns:svg="http://www.w3.org/2000/svg"
   xmlns="http://www.w3.org/2000/svg"
   version="1.1"
   width="48"
   height="48"
   id="svg1307">
  <defs
     id="defs17" />
  <metadata
     id="metadata1312">
    <rdf:RDF>
      <cc:Work
         rdf:about="">
        <dc:format>image/svg+xml</dc:format>
        <dc:type
           rdf:resource="http://purl.org/dc/dcmitype/StillImage" />
        <dc:title></dc:title>
      </cc:Work>
    </rdf:RDF>
  </metadata>
  <g
     id="layer1">
    <rect
       width="48"
       height="48"
       ry="0"
       x="0"
       y="0"
       id="rect2190"
       style="fill:none" />
    <path
       d="m 37,24 a 13,13 0 1 1 -26,0 13,13 0 1 1 26,0 z"
       id="path5706"
       style="fill:none;stroke:#ffffff;stroke-width:20" />
    <path
       d="m 37,24 a 13,13 0 1 1 -26,0 13,13 0 1 1 26,0 z"
       id="path3954"
       style="fill:none;stroke:#000000;stroke-width:12" />
    <path
       d="m 30.5,12.74167 a 13,13 0 0 1 6.302501,9.000904"
       id="path4829"
       style="fill:none;stroke:#d30000;stroke-width:6;stroke-opacity:1" />
    <path
       d="M 17.5,35.25833 A 13,13 0 0 1 11.197499,26.257427"
       id="path5704"
       style="fill:none;stroke:#d30000;stroke-width:6;stroke-opacity:1" />
  </g>
  <path
     d="m 43.641367,27.242881 -13.959138,13.666805 -7.845646,2.992731 2.751071,-8.67892 13.551571,-13.367532 5.502142,5.386916 z"
     id="path7"
     style="fill:none;stroke:#ffffff;stroke-width:8.19516563;stroke-linejoin:round;stroke-miterlimit:4;stroke-dasharray:none" />
  <g
     transform="matrix(1.0189152,0,0,-0.99757701,4.209349,57.569222)"
     id="Layer_x0020_4"
     style="stroke:#000000">
    <path
       d="M 38.7,30.4 25,16.7 l -7.7,-3 2.7,8.7 13.3,13.4 5.4,-5.4 z"
       id="path16"
       style="fill:none;stroke-width:4.97149992;stroke-linejoin:round" />
    <path
       d="M 38.7,30.4 25,16.7 l -7.7,-3 2.7,8.7 13.3,13.4 5.4,-5.4 z"
       id="path18" />
    <path
       d="m 20.6,14.7 -2.5,2.5 -1.1,-3.8 3.6,1.3 z"
       id="path20" />
    <path
       d="m 19.6,22.2 3,-0.3 2.4,-2.4 0.4,-2.8"
       id="path22"
       style="fill:none;stroke-width:1.24290001" />
    <path
       d="m 20.4,14.9 -2.1,2.1 1.6,5.2 2.7,-0.3 2.4,-2.4 0.3,-2.4 c -1.495163,-0.64772 -3.765793,-1.650025 -4.9,-2.2 z"
       id="path24"
       style="fill:#ffffff;stroke:#ffffff;stroke-width:1.52411163;stroke-miterlimit:4;stroke-opacity:1;stroke-dasharray:none" />
  </g>
</svg>
