<?xml version="1.0" encoding="UTF-8" standalone="no"?>
<!-- Created with Inkscape (http://www.inkscape.org/) -->

<svg
   xmlns:dc="http://purl.org/dc/elements/1.1/"
   xmlns:cc="http://creativecommons.org/ns#"
   xmlns:rdf="http://www.w3.org/1999/02/22-rdf-syntax-ns#"
   xmlns:svg="http://www.w3.org/2000/svg"
   xmlns="http://www.w3.org/2000/svg"
   version="1.1"
   width="48"
   height="48"
   id="svg2">
  <defs
     id="defs4" />
  <metadata
     id="metadata7">
    <rdf:RDF>
      <cc:Work
         rdf:about="">
        <dc:format>image/svg+xml</dc:format>
        <dc:type
           rdf:resource="http://purl.org/dc/dcmitype/StillImage" />
        <dc:title></dc:title>
      </cc:Work>
    </rdf:RDF>
  </metadata>
  <g
     transform="translate(0,-1004.9724)"
     id="layer1">
    <g
       id="g3862">
      <g
         id="g3933"
         style="stroke:#ffffff;stroke-width:8;stroke-miterlimit:4;stroke-opacity:1;stroke-dasharray:none">
        <path
           d="m 44,1024.1401 a 9,8.999985 0 0 1 -18,0 9,8.999985 0 1 1 18,0 z"
           id="path3927"
           style="fill:#000000;fill-opacity:1;stroke:#ffffff;stroke-width:8;stroke-miterlimit:4;stroke-opacity:1;stroke-dasharray:none" />
        <path
           d="m 33,1033.8068 a 9,8.999985 0 0 1 -18,0 9,8.999985 0 1 1 18,0 z"
           id="path3929"
           style="fill:#808080;fill-opacity:1;stroke:#ffffff;stroke-width:8;stroke-miterlimit:4;stroke-opacity:1;stroke-dasharray:none" />
        <path
           d="m 22,1024.1401 a 9.0000002,8.9999852 0 0 1 -17.9999999,0 9.0000002,8.9999852 0 1 1 17.9999999,0 z"
           id="path3931"
           style="fill:#ffffff;fill-opacity:1;stroke:#ffffff;stroke-width:8;stroke-miterlimit:4;stroke-opacity:1;stroke-dasharray:none" />
      </g>
      <path
         d="m 44,1024.1401 a 9,8.999985 0 0 1 -18,0 9,8.999985 0 1 1 18,0 z"
         id="path3806-4-5-1"
         style="fill:#000000;fill-opacity:1;stroke:none" />
      <path
         d="m 33,1033.8068 a 9,8.999985 0 0 1 -18,0 9,8.999985 0 1 1 18,0 z"
         id="path3806"
         style="fill:#808080;fill-opacity:1;stroke:none" />
      <path
         d="m 22,1024.1401 a 9.0000002,8.9999852 0 0 1 -17.9999999,0 9.0000002,8.9999852 0 1 1 17.9999999,0 z"
         id="path3806-4-5"
         style="fill:#ffffff;fill-opacity:1;stroke:none" />
    </g>
  </g>
</svg>
