<?xml version="1.0" encoding="UTF-8" standalone="no"?>
<!-- Created with Inkscape (http://www.inkscape.org/) -->

<svg
   xmlns:dc="http://purl.org/dc/elements/1.1/"
   xmlns:cc="http://creativecommons.org/ns#"
   xmlns:rdf="http://www.w3.org/1999/02/22-rdf-syntax-ns#"
   xmlns:svg="http://www.w3.org/2000/svg"
   xmlns="http://www.w3.org/2000/svg"
   version="1.1"
   width="48"
   height="48"
   id="svg2">
  <defs
     id="defs4" />
  <metadata
     id="metadata7">
    <rdf:RDF>
      <cc:Work
         rdf:about="">
        <dc:format>image/svg+xml</dc:format>
        <dc:type
           rdf:resource="http://purl.org/dc/dcmitype/StillImage" />
        <dc:title></dc:title>
      </cc:Work>
    </rdf:RDF>
  </metadata>
  <g
     transform="translate(0,-1004.9724)"
     id="layer1">
    <g
       id="g3862">
      <path
         d="m 43.322033,23.694916 a 20.644068,12.101695 0 1 1 -41.2881356,0 20.644068,12.101695 0 1 1 41.2881356,0 z"
         transform="matrix(0.87303936,0,0,0.74178784,4.2243274,1011.3958)"
         id="path4519"
         style="fill:#ffffff;fill-opacity:1;stroke:#ffffff;stroke-width:14.91160774;stroke-linecap:square;stroke-linejoin:miter;stroke-miterlimit:4;stroke-opacity:1;stroke-dasharray:none" />
      <path
         d="m 43.322033,23.694916 a 20.644068,12.101695 0 1 1 -41.2881356,0 20.644068,12.101695 0 1 1 41.2881356,0 z"
         transform="matrix(0.87303936,0,0,0.74178784,4.2243274,1011.3958)"
         id="path4511"
         style="fill:#ffffff;fill-opacity:1;stroke:#000000;stroke-width:4.97053576;stroke-linecap:square;stroke-linejoin:miter;stroke-miterlimit:4;stroke-opacity:1;stroke-dasharray:none" />
      <path
         d="m -16.677966,22.372881 a 4.2711864,4.2711864 0 1 1 -8.542372,0 4.2711864,4.2711864 0 1 1 8.542372,0 z"
         transform="matrix(1.6309523,0,0,1.6309523,58.57385,992.48323)"
         id="path4513"
         style="fill:#c90016;fill-opacity:1;stroke:none" />
      <path
         d="m -16.677966,22.372881 a 4.2711864,4.2711864 0 1 1 -8.542372,0 4.2711864,4.2711864 0 1 1 8.542372,0 z"
         transform="matrix(1.212367,0,0,1.212367,48.563223,1000.1621)"
         id="path4517"
         style="fill:#000000;fill-opacity:1;stroke:none" />
      <path
         d="m -16.677966,22.372881 a 4.2711864,4.2711864 0 1 1 -8.542372,0 4.2711864,4.2711864 0 1 1 8.542372,0 z"
         transform="matrix(0.97427174,0,0,0.97427174,42.736347,1004.3957)"
         id="path4515"
         style="fill:#ffffff;fill-opacity:1;stroke:none" />
    </g>
  </g>
</svg>
