<?xml version="1.0" encoding="UTF-8" standalone="no"?>
<!-- Created with Inkscape (http://www.inkscape.org/) -->

<svg
   xmlns:dc="http://purl.org/dc/elements/1.1/"
   xmlns:cc="http://creativecommons.org/ns#"
   xmlns:rdf="http://www.w3.org/1999/02/22-rdf-syntax-ns#"
   xmlns:svg="http://www.w3.org/2000/svg"
   xmlns="http://www.w3.org/2000/svg"
   xmlns:sodipodi="http://sodipodi.sourceforge.net/DTD/sodipodi-0.dtd"
   xmlns:inkscape="http://www.inkscape.org/namespaces/inkscape"
   version="1.2"
   width="48"
   height="48"
   id="svg1307"
   inkscape:version="0.48.3.1 r9886"
   sodipodi:docname="adobe-photoshop.svg">
  <sodipodi:namedview
     pagecolor="#ffffff"
     bordercolor="#666666"
     borderopacity="1"
     objecttolerance="10"
     gridtolerance="10"
     guidetolerance="10"
     inkscape:pageopacity="0"
     inkscape:pageshadow="2"
     inkscape:window-width="1366"
     inkscape:window-height="717"
     id="namedview17"
     showgrid="false"
     inkscape:zoom="4.9166667"
     inkscape:cx="-10.474576"
     inkscape:cy="24"
     inkscape:window-x="0"
     inkscape:window-y="0"
     inkscape:window-maximized="1"
     inkscape:current-layer="g3119" />
  <defs
     id="defs12" />
  <metadata
     id="metadata1312">
    <rdf:RDF>
      <cc:Work
         rdf:about="">
        <dc:format>image/svg+xml</dc:format>
        <dc:type
           rdf:resource="http://purl.org/dc/dcmitype/StillImage" />
        <dc:title />
      </cc:Work>
    </rdf:RDF>
  </metadata>
  <g
     style="stroke:#ffffff;stroke-width:11.08033275999999923;stroke-miterlimit:4;stroke-opacity:1;stroke-dasharray:none;stroke-linejoin:round;stroke-linecap:round"
     id="g3119"
     transform="matrix(0.9025,0,0,0.9025,1.384464,0.30829116)">
    <path
       inkscape:connector-curvature="0"
       style="fill:#ffffff;fill-opacity:1;fill-rule:evenodd;stroke:#ffffff;stroke-width:11.08033275999999923;stroke-linecap:round;stroke-linejoin:round;stroke-miterlimit:4;stroke-opacity:1;stroke-dasharray:none;display:inline"
       id="path3121"
       d="m 20.747445,34.811067 c 2.275494,2.920888 5.199824,3.370491 8.752979,3.327379 -0.243736,0.562631 -0.487471,1.12526 -0.731207,1.687891 0.680912,-0.81334 1.1885,-1.697087 2.314336,-1.583905 -0.696509,1.002243 -0.810885,1.650766 -1.074463,2.389949 1.347315,-1.21583 3.459594,-1.633216 5.163421,-2.120671 -0.453267,-0.691821 -1.142143,-1.1913 -1.595412,-1.883122 0.788459,-1.344503 1.124793,-3.166232 1.189679,-4.7797 -0.305022,0.840604 -0.752744,1.5138 -1.175688,2.106366 0.862429,-2.141877 0.207955,-3.559075 -0.524604,-5.346484 0.07996,0.846278 0.159901,1.692557 0.239851,2.538833 -0.679841,2.49267 -1.459768,2.788503 -2.961361,4.303638 -2.478205,0.615925 -6.275778,1.172207 -9.597531,-0.640174 z" />
    <path
       inkscape:connector-curvature="0"
       style="fill:#ffffff;fill-opacity:1;fill-rule:evenodd;stroke:#ffffff;stroke-width:13.29639889;stroke-linecap:round;stroke-linejoin:round;stroke-miterlimit:4;stroke-opacity:1;stroke-dasharray:none;display:inline"
       id="path3123"
       d="m 10.961177,21.61998 c 0.164764,6.623145 5.824762,10.545648 11.070662,13.595451 2.966076,1.112661 5.640076,0.808179 8.692681,0.433745 1.885895,-3.857499 1.097586,-7.04954 -0.557128,-10.861819 -1.03114,-1.487214 -1.288607,-3.033577 -1.515962,-4.775261 -1.18973,1.109693 -0.567321,2.932516 -0.595385,4.499358 -0.711448,-2.661764 -2.361772,-4.867401 -3.802783,-7.176909 -1.071054,-4.023182 -5.048688,-6.484651 -8.215162,-8.8643497 5.195827,8.1187977 6.430454,8.5334467 4.214377,18.2426227 -4.775345,1.73234 -7.822286,-0.681166 -9.2913,-5.092838 z" />
    <path
       inkscape:connector-curvature="0"
       style="fill:#ffffff;fill-opacity:1;fill-rule:evenodd;stroke:#ffffff;stroke-width:13.29639889;stroke-linecap:round;stroke-linejoin:round;stroke-miterlimit:4;stroke-opacity:1;stroke-dasharray:none;display:inline"
       id="path3125"
       d="m 6.1252749,16.321718 c 1.185679,4.514663 4.4122591,8.191317 8.7542771,9.941628 1.944096,0.411951 3.881516,0.808558 5.445689,0.347526 -0.370527,-2.87105 0.251877,-5.611987 0.499515,-8.752064 0.127967,-2.70664 0.266737,-5.107301 -1.324592,-7.326665 -2.450441,-3.3061527 -5.623968,-4.5507407 -9.31612,-4.3167347 -0.8990741,1.254942 -1.7998931,2.303419 -2.4828421,3.382496 -1.137027,1.7965407 -2.015635,4.8021747 -0.585819,6.7380257 1.406806,1.315341 3.2501871,2.705431 4.3399951,2.866854 -1.6528991,0.112518 -2.7716301,-0.728669 -4.1211281,-1.556501 -0.402992,-0.441521 -0.805982,-0.883046 -1.208975,-1.324565 z" />
    <path
       inkscape:connector-curvature="0"
       style="fill:#000000;fill-opacity:1;stroke:#ffffff;stroke-width:13.29639889;stroke-linecap:round;stroke-linejoin:round;stroke-miterlimit:4;stroke-opacity:1;stroke-dasharray:none;display:inline"
       id="path3127"
       d="m 41.367387,41.53745 c -2.409759,-0.989434 -7.977808,-3.74142 -9.529493,-4.709918 -1.159696,-0.723829 -1.858126,-0.897112 -3.008556,-0.746431 -1.052775,0.137891 -1.218748,0.104902 -0.558222,-0.110945 0.517014,-0.168948 0.926056,-0.390813 0.908986,-0.493023 -0.01717,-0.102202 -1.042603,-1.015112 -2.278959,-2.028679 C 18.892564,26.883021 12.856109,18.12046 11.165937,10.607111 10.843538,9.1739603 10.731432,8.4627033 10.916808,9.0265403 c 2.64266,8.0378547 5.519689,12.9585387 10.908422,18.6570907 3.179506,3.362312 8.175038,7.215013 8.844429,6.821089 0.318004,-0.187141 0.435892,-0.09768 0.360313,0.273453 -0.137443,0.674896 3.582586,2.934777 8.097728,4.919294 1.741666,0.765507 3.297827,1.614704 3.45813,1.887109 0.363703,0.618027 0.405442,0.619642 -1.218443,-0.04711 z" />
  </g>
  <g
     id="g3113"
     transform="matrix(0.9025,0,0,0.9025,1.384464,0.30829116)">
    <path
       inkscape:connector-curvature="0"
       style="fill:#ffffff;fill-opacity:1;fill-rule:evenodd;stroke:#000000;stroke-width:2.28959084;stroke-linecap:butt;stroke-linejoin:miter;stroke-miterlimit:4;stroke-opacity:1;stroke-dasharray:none;display:inline"
       id="path8191"
       d="m 20.747445,34.811067 c 2.275494,2.920888 5.199824,3.370491 8.752979,3.327379 -0.243736,0.562631 -0.487471,1.12526 -0.731207,1.687891 0.680912,-0.81334 1.1885,-1.697087 2.314336,-1.583905 -0.696509,1.002243 -0.810885,1.650766 -1.074463,2.389949 1.347315,-1.21583 3.459594,-1.633216 5.163421,-2.120671 -0.453267,-0.691821 -1.142143,-1.1913 -1.595412,-1.883122 0.788459,-1.344503 1.124793,-3.166232 1.189679,-4.7797 -0.305022,0.840604 -0.752744,1.5138 -1.175688,2.106366 0.862429,-2.141877 0.207955,-3.559075 -0.524604,-5.346484 0.07996,0.846278 0.159901,1.692557 0.239851,2.538833 -0.679841,2.49267 -1.459768,2.788503 -2.961361,4.303638 -2.478205,0.615925 -6.275778,1.172207 -9.597531,-0.640174 z" />
    <path
       inkscape:connector-curvature="0"
       style="fill:#ffffff;fill-opacity:1;fill-rule:evenodd;stroke:#000000;stroke-width:2.28959084;stroke-linecap:butt;stroke-linejoin:miter;stroke-miterlimit:4;stroke-opacity:1;stroke-dasharray:none;display:inline"
       id="path27337"
       d="m 10.961177,21.61998 c 0.164764,6.623145 5.824762,10.545648 11.070662,13.595451 2.966076,1.112661 5.640076,0.808179 8.692681,0.433745 1.885895,-3.857499 1.097586,-7.04954 -0.557128,-10.861819 -1.03114,-1.487214 -1.288607,-3.033577 -1.515962,-4.775261 -1.18973,1.109693 -0.567321,2.932516 -0.595385,4.499358 -0.711448,-2.661764 -2.361772,-4.867401 -3.802783,-7.176909 -1.071054,-4.023182 -5.048688,-6.484651 -8.215162,-8.8643497 5.195827,8.1187977 6.430454,8.5334467 4.214377,18.2426227 -4.775345,1.73234 -7.822286,-0.681166 -9.2913,-5.092838 z" />
    <path
       inkscape:connector-curvature="0"
       style="fill:#ffffff;fill-opacity:1;fill-rule:evenodd;stroke:#000000;stroke-width:2.28959084;stroke-linecap:butt;stroke-linejoin:miter;stroke-miterlimit:4;stroke-opacity:1;stroke-dasharray:none;display:inline"
       id="path24402"
       d="m 6.1252749,16.321718 c 1.185679,4.514663 4.4122591,8.191317 8.7542771,9.941628 1.944096,0.411951 3.881516,0.808558 5.445689,0.347526 -0.370527,-2.87105 0.251877,-5.611987 0.499515,-8.752064 0.127967,-2.70664 0.266737,-5.107301 -1.324592,-7.326665 -2.450441,-3.3061527 -5.623968,-4.5507407 -9.31612,-4.3167347 -0.8990741,1.254942 -1.7998931,2.303419 -2.4828421,3.382496 -1.137027,1.7965407 -2.015635,4.8021747 -0.585819,6.7380257 1.406806,1.315341 3.2501871,2.705431 4.3399951,2.866854 -1.6528991,0.112518 -2.7716301,-0.728669 -4.1211281,-1.556501 -0.402992,-0.441521 -0.805982,-0.883046 -1.208975,-1.324565 z" />
    <path
       inkscape:connector-curvature="0"
       style="fill:#000000;fill-opacity:1;stroke:#000000;stroke-width:0.76319689;stroke-linecap:round;stroke-linejoin:round;stroke-miterlimit:4;stroke-opacity:1;stroke-dasharray:none;display:inline"
       id="path24368"
       d="m 41.367387,41.53745 c -2.409759,-0.989434 -7.977808,-3.74142 -9.529493,-4.709918 -1.159696,-0.723829 -1.858126,-0.897112 -3.008556,-0.746431 -1.052775,0.137891 -1.218748,0.104902 -0.558222,-0.110945 0.517014,-0.168948 0.926056,-0.390813 0.908986,-0.493023 -0.01717,-0.102202 -1.042603,-1.015112 -2.278959,-2.028679 C 18.892564,26.883021 12.856109,18.12046 11.165937,10.607111 10.843538,9.1739603 10.731432,8.4627033 10.916808,9.0265403 c 2.64266,8.0378547 5.519689,12.9585387 10.908422,18.6570907 3.179506,3.362312 8.175038,7.215013 8.844429,6.821089 0.318004,-0.187141 0.435892,-0.09768 0.360313,0.273453 -0.137443,0.674896 3.582586,2.934777 8.097728,4.919294 1.741666,0.765507 3.297827,1.614704 3.45813,1.887109 0.363703,0.618027 0.405442,0.619642 -1.218443,-0.04711 z" />
  </g>
</svg>
