<?xml version="1.0" encoding="UTF-8" standalone="no"?>
<!-- Created with Inkscape (http://www.inkscape.org/) -->

<svg
   xmlns:dc="http://purl.org/dc/elements/1.1/"
   xmlns:cc="http://creativecommons.org/ns#"
   xmlns:rdf="http://www.w3.org/1999/02/22-rdf-syntax-ns#"
   xmlns:svg="http://www.w3.org/2000/svg"
   xmlns="http://www.w3.org/2000/svg"
   xmlns:xlink="http://www.w3.org/1999/xlink"
   version="1.1"
   width="48"
   height="48"
   id="svg1872">
  <defs
     id="defs10">
    <linearGradient
       x1="25.261343"
       y1="22.105263"
       x2="25.261343"
       y2="25.862095"
       id="linearGradient3049"
       xlink:href="#linearGradient5727-8"
       gradientUnits="userSpaceOnUse"
       gradientTransform="translate(1.3100005,0.28399966)" />
    <linearGradient
       id="linearGradient5727-8">
      <stop
         id="stop5729-8"
         style="stop-color:#000000;stop-opacity:1"
         offset="0" />
      <stop
         id="stop5731-4"
         style="stop-color:#000000;stop-opacity:0"
         offset="1" />
    </linearGradient>
    <linearGradient
       x1="25"
       y1="12"
       x2="25"
       y2="35"
       id="linearGradient5736"
       xlink:href="#linearGradient5727"
       gradientUnits="userSpaceOnUse"
       gradientTransform="translate(1.3100005,0.28399966)" />
    <linearGradient
       id="linearGradient5727">
      <stop
         id="stop5729"
         style="stop-color:#000000;stop-opacity:1"
         offset="0" />
      <stop
         id="stop5731"
         style="stop-color:#000000;stop-opacity:0"
         offset="1" />
    </linearGradient>
    <radialGradient
       cx="28.897007"
       cy="10.416596"
       r="19.99999"
       fx="30.345285"
       fy="10.416596"
       id="radialGradient5300-8"
       xlink:href="#linearGradient3242"
       gradientUnits="userSpaceOnUse"
       gradientTransform="matrix(1.3047329,-3.2752053e-8,0,2.1461101,-12.89286,13.928839)" />
    <linearGradient
       id="linearGradient3242">
      <stop
         id="stop3244"
         style="stop-color:#f8b17e;stop-opacity:1"
         offset="0" />
      <stop
         id="stop3246"
         style="stop-color:#e35d4f;stop-opacity:1"
         offset="0.26238" />
      <stop
         id="stop3248"
         style="stop-color:#c6262e;stop-opacity:1"
         offset="0.66093999" />
      <stop
         id="stop3250"
         style="stop-color:#690b54;stop-opacity:1"
         offset="1" />
    </linearGradient>
    <linearGradient
       x1="21.587072"
       y1="11.492184"
       x2="21.587072"
       y2="36.646912"
       id="linearGradient5302-1"
       xlink:href="#linearGradient2490"
       gradientUnits="userSpaceOnUse"
       gradientTransform="translate(0.81001352,-0.16945435)" />
    <linearGradient
       id="linearGradient2490">
      <stop
         id="stop2492"
         style="stop-color:#911313;stop-opacity:1"
         offset="0" />
      <stop
         id="stop2494"
         style="stop-color:#bc301e;stop-opacity:1"
         offset="1" />
    </linearGradient>
  </defs>
  <metadata
     id="metadata1877">
    <rdf:RDF>
      <cc:Work
         rdf:about="">
        <dc:format>image/svg+xml</dc:format>
        <dc:type
           rdf:resource="http://purl.org/dc/dcmitype/StillImage" />
        <dc:title></dc:title>
        <dc:creator>
          <cc:Agent>
            <dc:title>Luca Ferretti &lt;elle.uca@libero.it&gt;</dc:title>
          </cc:Agent>
        </dc:creator>
        <dc:subject>
          <rdf:Bag>
            <rdf:li>bookmark</rdf:li>
            <rdf:li>view</rdf:li>
            <rdf:li>edit</rdf:li>
            <rdf:li>web</rdf:li>
            <rdf:li>favorites</rdf:li>
          </rdf:Bag>
        </dc:subject>
        <dc:coverage>Manage bookmarks in web browser</dc:coverage>
        <dc:description>A book with a bookmark</dc:description>
        <cc:license
           rdf:resource="http://creativecommons.org/licenses/LGPL/2.1/" />
      </cc:Work>
      <cc:License
         rdf:about="http://creativecommons.org/licenses/LGPL/2.1/">
        <cc:permits
           rdf:resource="http://web.resource.org/cc/Reproduction" />
        <cc:permits
           rdf:resource="http://web.resource.org/cc/Distribution" />
        <cc:requires
           rdf:resource="http://web.resource.org/cc/Notice" />
        <cc:permits
           rdf:resource="http://web.resource.org/cc/DerivativeWorks" />
        <cc:requires
           rdf:resource="http://web.resource.org/cc/ShareAlike" />
        <cc:requires
           rdf:resource="http://web.resource.org/cc/SourceCode" />
      </cc:License>
    </rdf:RDF>
  </metadata>
  <g
     id="layer1">
    <rect
       width="32"
       height="36"
       rx="2.9600999"
       ry="2.9590001"
       x="9"
       y="6"
       id="rect2768"
       style="fill:#ffffff;fill-rule:evenodd;stroke:#ffffff;stroke-width:12;stroke-miterlimit:4;stroke-dasharray:none" />
    <rect
       width="32"
       height="36"
       rx="2.9600999"
       ry="2.9590001"
       x="9"
       y="6"
       id="rect1880"
       style="fill:#ffffff;fill-rule:evenodd;stroke:#000000;stroke-width:4" />
    <g
       transform="matrix(0.63454425,0,0,0.63454425,82.69651,20.195043)"
       id="g3852">
      <rect
         width="38.001999"
         height="33.994999"
         x="-24.574593"
         y="-107.51117"
         transform="matrix(0,-1,1,0,0,0)"
         id="rect4142"
         style="fill:#ffffff;stroke:none" />
      <rect
         width="38"
         height="34"
         x="-24.572594"
         y="-107.50967"
         transform="matrix(0,-1,1,0,0,0)"
         id="rect2176"
         style="stroke:#000000;stroke-width:2;stroke-miterlimit:4;stroke-opacity:1;stroke-dasharray:none" />
      <rect
         width="3.9061"
         height="2.9087999"
         ry="0.86188"
         x="-22.611595"
         y="-105.49306"
         transform="matrix(0,-1,1,0,0,0)"
         id="rect5113"
         style="fill:#ffffff" />
      <use
         transform="translate(-0.01657797,-6.0394003)"
         id="use6084"
         x="0"
         y="0"
         width="48"
         height="48"
         xlink:href="#rect5113" />
      <use
         transform="translate(-0.01657797,-12.039)"
         id="use6086"
         x="0"
         y="0"
         width="48"
         height="48"
         xlink:href="#rect5113" />
      <use
         transform="translate(-0.01657797,-18.039)"
         id="use6090"
         x="0"
         y="0"
         width="48"
         height="48"
         xlink:href="#rect5113" />
      <use
         transform="translate(-0.01657797,-24.133)"
         id="use6092"
         x="0"
         y="0"
         width="48"
         height="48"
         xlink:href="#rect5113" />
      <use
         transform="translate(-0.01657797,-30.133)"
         id="use6094"
         x="0"
         y="0"
         width="48"
         height="48"
         xlink:href="#rect5113" />
      <use
         transform="translate(27.075002,-0.03941331)"
         id="use6098"
         x="0"
         y="0"
         width="48"
         height="48"
         xlink:href="#rect5113" />
      <use
         transform="translate(26.983002,-6.0394003)"
         id="use6100"
         x="0"
         y="0"
         width="48"
         height="48"
         xlink:href="#rect5113" />
      <use
         transform="translate(26.983002,-12.039)"
         id="use6102"
         x="0"
         y="0"
         width="48"
         height="48"
         xlink:href="#rect5113" />
      <use
         transform="translate(27.075002,-18.133)"
         id="use6104"
         x="0"
         y="0"
         width="48"
         height="48"
         xlink:href="#rect5113" />
      <use
         transform="translate(27.075002,-24.133)"
         id="use6106"
         x="0"
         y="0"
         width="48"
         height="48"
         xlink:href="#rect5113" />
      <use
         transform="translate(26.983002,-30.133)"
         id="use6108"
         x="0"
         y="0"
         width="48"
         height="48"
         xlink:href="#rect5113" />
      <rect
         width="20"
         height="14.933"
         rx="1.4733"
         ry="1.5470001"
         x="-100.50967"
         y="7.5725937"
         id="rect2188"
         style="fill:#ffffff" />
      <rect
         width="20"
         height="14.933"
         rx="1.4733"
         ry="1.5470001"
         x="-100.50967"
         y="-11.360706"
         id="rect2190"
         style="fill:#ffffff" />
    </g>
    <path
       d="m 14.81,31.013562 0,4.770438 c 0,0 8.213914,1.273153 11.585146,-8.953709 0.223464,-3e-6 6.414866,0 6.414866,0 l 0,-5 -4,0 c 0,0 1.865928,-5.213577 6.000012,-5.656557 L 34.81,11.85468 c 0,0 -7.262559,-0.996704 -11.39664,9.745561 C 19.837939,32.121013 14.81,31.013562 14.81,31.013562 z"
       id="path3870"
       style="color:#000000;fill:none;stroke:#ffffff;stroke-width:4;stroke-linecap:round;stroke-linejoin:round;stroke-miterlimit:4;stroke-opacity:1;stroke-dasharray:none;stroke-dashoffset:0;marker:none;visibility:visible;display:inline;overflow:visible;enable-background:accumulate" />
    <path
       d="m 14.81,31.013562 0,4.770438 c 0,0 8.213914,1.273153 11.585146,-8.953709 0.223464,-3e-6 6.414866,0 6.414866,0 l 0,-5 -4,0 c 0,0 1.865928,-5.213577 6.000012,-5.656557 L 34.81,11.85468 c 0,0 -7.262559,-0.996704 -11.39664,9.745561 C 19.837939,32.121013 14.81,31.013562 14.81,31.013562 z"
       id="path1389"
       style="color:#000000;fill:url(#radialGradient5300-8);fill-opacity:1;fill-rule:nonzero;stroke:url(#linearGradient5302-1);stroke-width:1;stroke-linecap:round;stroke-linejoin:round;stroke-miterlimit:4;stroke-opacity:1;stroke-dasharray:none;stroke-dashoffset:0;marker:none;visibility:visible;display:inline;overflow:visible;enable-background:accumulate" />
    <path
       d="m 33.77875,15.471496 c 0,-0.864583 0,-1.729167 0,-2.59375 l -0.125,4e-6 c -3.356795,0.401611 -6.056276,2.89902 -7.686245,5.728089 -1.026478,1.635715 -1.613837,3.470808 -2.302424,5.257175 -1.240513,2.948061 -2.944666,6.015272 -5.881746,7.554725 -0.493406,0.558668 -1.945174,0.161184 -1.942085,0.941976 0,0.818512 0,1.637023 0,2.455535"
       id="path5721"
       style="opacity:0.1;color:#000000;fill:none;stroke:url(#linearGradient5736);stroke-width:1;stroke-linecap:round;stroke-linejoin:miter;stroke-miterlimit:4;stroke-opacity:1;stroke-dasharray:none;stroke-dashoffset:0;marker:none;visibility:visible;display:inline;overflow:visible;enable-background:accumulate" />
    <path
       d="m 31.77875,25.784 c 0,-0.979167 0,-1.958333 0,-2.9375 -1.089528,-0.02622 -2.189448,0.05454 -3.271989,-0.04439"
       id="path5721-3"
       style="opacity:0.1;color:#000000;fill:none;stroke:url(#linearGradient3049);stroke-width:1;stroke-linecap:round;stroke-linejoin:miter;stroke-miterlimit:4;stroke-opacity:1;stroke-dasharray:none;stroke-dashoffset:0;marker:none;visibility:visible;display:inline;overflow:visible;enable-background:accumulate" />
    <rect
       width="48"
       height="48"
       x="-114.50967"
       y="-18.427406"
       id="rect2192"
       style="fill:none" />
  </g>
</svg>
