<?xml version="1.0" encoding="UTF-8" standalone="no"?>
<!-- Created with Inkscape (http://www.inkscape.org/) -->

<svg
   xmlns:dc="http://purl.org/dc/elements/1.1/"
   xmlns:cc="http://creativecommons.org/ns#"
   xmlns:rdf="http://www.w3.org/1999/02/22-rdf-syntax-ns#"
   xmlns:svg="http://www.w3.org/2000/svg"
   xmlns="http://www.w3.org/2000/svg"
   xmlns:xlink="http://www.w3.org/1999/xlink"
   version="1.1"
   width="48"
   height="48"
   id="svg1872">
  <defs
     id="defs10">
    <linearGradient
       x1="25.261343"
       y1="22.105263"
       x2="25.261343"
       y2="25.862095"
       id="linearGradient3049"
       xlink:href="#linearGradient5727-8"
       gradientUnits="userSpaceOnUse"
       gradientTransform="translate(1.3100005,0.28399966)" />
    <linearGradient
       id="linearGradient5727-8">
      <stop
         id="stop5729-8"
         style="stop-color:#000000;stop-opacity:1"
         offset="0" />
      <stop
         id="stop5731-4"
         style="stop-color:#000000;stop-opacity:0"
         offset="1" />
    </linearGradient>
    <linearGradient
       x1="25"
       y1="12"
       x2="25"
       y2="35"
       id="linearGradient5736"
       xlink:href="#linearGradient5727"
       gradientUnits="userSpaceOnUse"
       gradientTransform="translate(1.3100005,0.28399966)" />
    <linearGradient
       id="linearGradient5727">
      <stop
         id="stop5729"
         style="stop-color:#000000;stop-opacity:1"
         offset="0" />
      <stop
         id="stop5731"
         style="stop-color:#000000;stop-opacity:0"
         offset="1" />
    </linearGradient>
    <radialGradient
       cx="28.897007"
       cy="10.416596"
       r="19.99999"
       fx="30.345285"
       fy="10.416596"
       id="radialGradient5300-8"
       xlink:href="#linearGradient3242"
       gradientUnits="userSpaceOnUse"
       gradientTransform="matrix(1.3047329,-3.2752053e-8,0,2.1461101,-12.89286,13.928839)" />
    <linearGradient
       id="linearGradient3242">
      <stop
         id="stop3244"
         style="stop-color:#f8b17e;stop-opacity:1"
         offset="0" />
      <stop
         id="stop3246"
         style="stop-color:#e35d4f;stop-opacity:1"
         offset="0.26238" />
      <stop
         id="stop3248"
         style="stop-color:#c6262e;stop-opacity:1"
         offset="0.66093999" />
      <stop
         id="stop3250"
         style="stop-color:#690b54;stop-opacity:1"
         offset="1" />
    </linearGradient>
    <linearGradient
       x1="21.587072"
       y1="11.492184"
       x2="21.587072"
       y2="36.646912"
       id="linearGradient5302-1"
       xlink:href="#linearGradient2490"
       gradientUnits="userSpaceOnUse"
       gradientTransform="translate(0.81001352,-0.16945435)" />
    <linearGradient
       id="linearGradient2490">
      <stop
         id="stop2492"
         style="stop-color:#911313;stop-opacity:1"
         offset="0" />
      <stop
         id="stop2494"
         style="stop-color:#bc301e;stop-opacity:1"
         offset="1" />
    </linearGradient>
  </defs>
  <metadata
     id="metadata1877">
    <rdf:RDF>
      <cc:Work
         rdf:about="">
        <dc:format>image/svg+xml</dc:format>
        <dc:type
           rdf:resource="http://purl.org/dc/dcmitype/StillImage" />
        <dc:title></dc:title>
        <dc:creator>
          <cc:Agent>
            <dc:title>Luca Ferretti &lt;elle.uca@libero.it&gt;</dc:title>
          </cc:Agent>
        </dc:creator>
        <dc:subject>
          <rdf:Bag>
            <rdf:li>bookmark</rdf:li>
            <rdf:li>view</rdf:li>
            <rdf:li>edit</rdf:li>
            <rdf:li>web</rdf:li>
            <rdf:li>favorites</rdf:li>
          </rdf:Bag>
        </dc:subject>
        <dc:coverage>Manage bookmarks in web browser</dc:coverage>
        <dc:description>A book with a bookmark</dc:description>
        <cc:license
           rdf:resource="http://creativecommons.org/licenses/LGPL/2.1/" />
      </cc:Work>
      <cc:License
         rdf:about="http://creativecommons.org/licenses/LGPL/2.1/">
        <cc:permits
           rdf:resource="http://web.resource.org/cc/Reproduction" />
        <cc:permits
           rdf:resource="http://web.resource.org/cc/Distribution" />
        <cc:requires
           rdf:resource="http://web.resource.org/cc/Notice" />
        <cc:permits
           rdf:resource="http://web.resource.org/cc/DerivativeWorks" />
        <cc:requires
           rdf:resource="http://web.resource.org/cc/ShareAlike" />
        <cc:requires
           rdf:resource="http://web.resource.org/cc/SourceCode" />
      </cc:License>
    </rdf:RDF>
  </metadata>
  <g
     id="layer1">
    <rect
       width="32"
       height="36"
       rx="2.9600999"
       ry="2.9590001"
       x="9"
       y="6"
       id="rect2768"
       style="fill:#ffffff;fill-rule:evenodd;stroke:#ffffff;stroke-width:12;stroke-miterlimit:4;stroke-dasharray:none" />
    <rect
       width="32"
       height="36"
       rx="2.9600999"
       ry="2.9590001"
       x="9"
       y="6"
       id="rect1880"
       style="fill:#ffffff;fill-rule:evenodd;stroke:#000000;stroke-width:4" />
    <g
       transform="matrix(0.49468085,0,0,0.49468085,48.052527,15.344415)"
       id="g3071">
      <path
         d="m -34.647561,38.902134 c -0.486052,-0.09663 -1.360019,-0.40753 -1.942149,-0.690896 -1.035694,-0.504151 -1.498052,-0.849699 -3.545785,-2.649994 -2.804055,-2.465227 -6.545264,-4.326506 -9.942384,-4.94641 -1.591349,-0.290387 -4.788703,-0.388865 -6.368112,-0.196136 -0.699054,0.0853 -1.941048,0.308634 -2.759987,0.496294 -1.697061,0.388878 -3.615043,0.459576 -4.790634,0.176585 -0.391667,-0.09428 -1.236501,-0.422272 -1.87741,-0.728865 -3.05766,-1.462702 -4.984849,-4.553877 -4.984849,-7.995602 0,-1.25597 0.297269,-2.39218 1.005424,-3.842898 0.48534,-0.99426 0.790165,-1.416057 1.640386,-2.26985 1.264499,-1.269814 2.138395,-1.751696 4.691595,-2.587029 7.133883,-2.333999 11.738499,-6.9167585 14.200046,-14.13263767 0.318121,-0.93255493 0.723643,-1.98217313 0.90116,-2.33248493 0.756171,-1.4922323 2.032405,-2.8113804 3.599888,-3.7209366 0.649364,-0.3768032 1.839135,-0.8564529 2.735622,-0.9906935 1.583804,-0.2872325 2.19547,-0.2111184 3.201429,-0.1192371 0.109659,0.059361 0.548968,0.203097 0.976241,0.3194134 1.354092,0.3686241 2.496532,1.0596027 3.625344,2.1927067 2.378967,2.3880109 2.981389,4.92386293 2.140696,9.0110895 -1.065741,5.1813457 -0.645214,9.6973152 1.283121,13.7792282 1.091349,2.310176 2.222449,3.93903 4.405606,6.344353 2.255072,2.484555 3.051595,5.331982 2.331641,8.335201 -1.127727,4.704202 -5.650977,7.518127 -10.526889,6.548799 z m -7.855938,-12.746129 c 1.365562,-0.457113 2.450255,-1.134988 3.506875,-2.191608 1.10528,-1.10528 1.762348,-2.186617 2.209607,-3.636351 0.439152,-1.423459 0.413118,-3.539366 -0.06133,-4.984848 -0.464009,-1.413672 -1.156934,-2.552362 -2.1648,-3.557435 -4.534505,-4.5219395 -12.108816,-2.7474315 -14.290499,3.347974 -0.374079,1.045142 -0.398797,1.226481 -0.390352,2.863731 0.0079,1.535237 0.04958,1.861886 0.342337,2.68439 1.017629,2.859019 3.138303,4.807853 6.109246,5.614207 1.244314,0.337724 3.511806,0.270707 4.738916,-0.14006 z"
         id="path3073"
         style="fill:#c90016;fill-opacity:1" />
    </g>
  </g>
</svg>
