<?xml version="1.0" encoding="UTF-8" standalone="no"?>
<!-- Created with Inkscape (http://www.inkscape.org/) -->

<svg
   xmlns:dc="http://purl.org/dc/elements/1.1/"
   xmlns:cc="http://creativecommons.org/ns#"
   xmlns:rdf="http://www.w3.org/1999/02/22-rdf-syntax-ns#"
   xmlns:svg="http://www.w3.org/2000/svg"
   xmlns="http://www.w3.org/2000/svg"
   xmlns:xlink="http://www.w3.org/1999/xlink"
   xmlns:sodipodi="http://sodipodi.sourceforge.net/DTD/sodipodi-0.dtd"
   xmlns:inkscape="http://www.inkscape.org/namespaces/inkscape"
   version="1.0"
   width="48"
   height="48"
   id="svg2"
   inkscape:version="0.48.3.1 r9886"
   sodipodi:docname="avidemux.svg">
  <sodipodi:namedview
     pagecolor="#ffffff"
     bordercolor="#666666"
     borderopacity="1"
     objecttolerance="10"
     gridtolerance="10"
     guidetolerance="10"
     inkscape:pageopacity="0"
     inkscape:pageshadow="2"
     inkscape:window-width="1680"
     inkscape:window-height="999"
     id="namedview103"
     showgrid="false"
     inkscape:zoom="9.8333333"
     inkscape:cx="13.802495"
     inkscape:cy="26.532578"
     inkscape:window-x="0"
     inkscape:window-y="0"
     inkscape:window-maximized="1"
     inkscape:current-layer="g3138" />
  <metadata
     id="metadata31">
    <rdf:RDF>
      <cc:Work
         rdf:about="">
        <dc:format>image/svg+xml</dc:format>
        <dc:type
           rdf:resource="http://purl.org/dc/dcmitype/StillImage" />
        <dc:title />
      </cc:Work>
    </rdf:RDF>
  </metadata>
  <defs
     id="defs4">
    <linearGradient
       id="linearGradient3655">
      <stop
         id="stop3657"
         style="stop-color:#ffffff;stop-opacity:1"
         offset="0" />
      <stop
         id="stop3659"
         style="stop-color:#ffffff;stop-opacity:0"
         offset="1" />
    </linearGradient>
    <linearGradient
       x1="108.11752"
       y1="16.246464"
       x2="108.97424"
       y2="24.144896"
       id="linearGradient1969"
       xlink:href="#linearGradient3655"
       gradientUnits="userSpaceOnUse"
       gradientTransform="matrix(0,-1,1,0,-4.523091,226.3445)" />
    <linearGradient
       x1="108.11752"
       y1="16.246464"
       x2="108.97424"
       y2="24.144896"
       id="linearGradient1971"
       xlink:href="#linearGradient3655"
       gradientUnits="userSpaceOnUse"
       gradientTransform="matrix(0,1,-1,0,220.9148,-49.35703)" />
    <linearGradient
       x1="108.11752"
       y1="16.246464"
       x2="108.97424"
       y2="24.144896"
       id="linearGradient1973"
       xlink:href="#linearGradient3655"
       gradientUnits="userSpaceOnUse" />
    <linearGradient
       x1="108.11752"
       y1="16.246464"
       x2="108.97424"
       y2="24.144896"
       id="linearGradient1975"
       xlink:href="#linearGradient3655"
       gradientUnits="userSpaceOnUse"
       gradientTransform="matrix(-1,0,0,-1,216.0238,177.6105)" />
  </defs>
  <g
     transform="translate(0,-0.22355052)"
     id="g3855">
    <g
       transform="matrix(0,-1.0177091,1.0177091,0,-0.78660411,47.538944)"
       id="g3138">
      <g
         id="g3266">
        <rect
           style="fill:#000000;fill-opacity:1;stroke:#ffffff;stroke-width:9.82599055000000021;stroke-linecap:round;stroke-linejoin:round;stroke-miterlimit:4;stroke-opacity:1;stroke-dasharray:none"
           id="rect3848"
           transform="matrix(0,-1,1,0,0,0)"
           y="9.3195877"
           x="-40.113483"
           height="28.982872"
           width="32.39262" />
        <rect
           width="32.39262"
           height="28.982872"
           x="-40.113483"
           y="9.3195877"
           transform="matrix(0,-1,1,0,0,0)"
           id="rect2176"
           style="fill:#000000;fill-opacity:1;stroke:#000000;stroke-width:1.58405697;stroke-linecap:round;stroke-linejoin:round;stroke-miterlimit:4;stroke-opacity:1;stroke-dasharray:none" />
        <rect
           width="3.3297057"
           height="2.4795699"
           ry="0.73469877"
           x="-38.441856"
           y="11.038612"
           transform="matrix(0,-1,1,0,0,0)"
           id="rect5113"
           style="fill:#ffffff;fill-opacity:1" />
        <use
           transform="translate(-0.01412914,-5.1482105)"
           id="use6084"
           style="fill:#ffffff;fill-opacity:1"
           x="0"
           y="0"
           width="48"
           height="48"
           xlink:href="#rect5113" />
        <use
           transform="translate(-0.01412914,-10.262494)"
           id="use6086"
           style="fill:#ffffff;fill-opacity:1"
           x="0"
           y="0"
           width="48"
           height="48"
           xlink:href="#rect5113" />
        <use
           transform="translate(-0.01412914,-15.377119)"
           id="use6090"
           style="fill:#ffffff;fill-opacity:1"
           x="0"
           y="0"
           width="48"
           height="48"
           xlink:href="#rect5113" />
        <use
           transform="translate(-0.01412914,-20.571872)"
           id="use6092"
           style="fill:#ffffff;fill-opacity:1"
           x="0"
           y="0"
           width="48"
           height="48"
           xlink:href="#rect5113" />
        <use
           transform="translate(-0.01412914,-25.686497)"
           id="use6094"
           style="fill:#ffffff;fill-opacity:1"
           x="0"
           y="0"
           width="48"
           height="48"
           xlink:href="#rect5113" />
        <use
           transform="translate(23.079743,-0.03359712)"
           id="use6098"
           style="fill:#ffffff;fill-opacity:1"
           x="0"
           y="0"
           width="48"
           height="48"
           xlink:href="#rect5113" />
        <use
           transform="translate(23.001319,-5.1482105)"
           id="use6100"
           style="fill:#ffffff;fill-opacity:1"
           x="0"
           y="0"
           width="48"
           height="48"
           xlink:href="#rect5113" />
        <use
           transform="translate(23.001319,-10.262494)"
           id="use6102"
           style="fill:#ffffff;fill-opacity:1"
           x="0"
           y="0"
           width="48"
           height="48"
           xlink:href="#rect5113" />
        <use
           transform="translate(23.079743,-15.457248)"
           id="use6104"
           style="fill:#ffffff;fill-opacity:1"
           x="0"
           y="0"
           width="48"
           height="48"
           xlink:href="#rect5113" />
        <use
           transform="translate(23.079743,-20.571872)"
           id="use6106"
           style="fill:#ffffff;fill-opacity:1"
           x="0"
           y="0"
           width="48"
           height="48"
           xlink:href="#rect5113" />
        <use
           transform="translate(23.001319,-25.686497)"
           id="use6108"
           style="fill:#ffffff;fill-opacity:1"
           x="0"
           y="0"
           width="48"
           height="48"
           xlink:href="#rect5113" />
        <rect
           width="17.048748"
           height="28.473364"
           rx="2.7074623"
           ry="2.9497285"
           x="15.286649"
           y="9.4825935"
           id="rect2190"
           style="fill:#ffffff;fill-opacity:1" />
      </g>
      <g
         id="g3917"
         transform="matrix(0,0.02408687,-0.02408687,0,40.406087,59.456813)"
         style="fill:#000000;fill-opacity:1;display:inline">
        <path
           style="fill:#000000;fill-opacity:1;stroke:none"
           d="m -1491.695,395.42074 c -34.2699,0.4235 -68.2737,11.23419 -96.1722,31.18423 -36.7411,24.93329 -64.597,63.55623 -73.9791,107.15974 -3.785,19.86427 -2.8635,40.33619 -6.7812,60.13036 -3.0543,26.19566 -12.8349,51.88521 -30.2177,71.95041 -26.0201,30.90229 -63.2465,50.73204 -86.5255,84.21324 -3.6271,5.19893 -7.1729,10.73551 -8.1044,17.07196 -1.0416,1.37698 -2.0191,3.19469 -0.4211,4.37851 0.7567,5.06551 2.5778,11.31248 8.3992,12.48295 7.0018,1.48184 13.0244,-3.93051 19.1346,-6.45518 18.3942,-9.46714 35.8362,-21.40614 55.7,-27.43614 2.1311,-0.7926 5.2836,-0.45711 4.9047,2.48396 2.908,23.76949 4.6513,48.04635 13.1282,70.64921 7.7064,21.39876 18.5293,41.67179 31.8933,60.09955 1.7752,2.34114 3.8088,4.46439 5.8366,6.58478 -11.778,4.27595 -22.8679,10.48588 -33.4544,17.16268 -14.4966,9.5731 -26.4221,24.7601 -27.7541,42.5742 -0.9983,10.5047 -0.4636,23.303 8.8769,30.0857 10.6753,8.8024 25.3914,6.1389 38.2273,6.8559 46.5125,0.18 93.0411,0.5461 139.5443,-0.3724 11.4282,-0.3412 21.5007,-9.0324 25.2606,-19.4085 1.275,-9.6649 0.4959,-19.7889 -2.1893,-29.176 -6.2598,-18.3042 -22.7818,-30.7848 -39.179,-39.6411 -16.2443,-8.65194 -34.4419,-13.48011 -52.9169,-13.49043 -9.9375,-0.39218 -19.8857,-0.35072 -29.8286,-0.48424 -7.8144,-25.88377 -14.1903,-52.4232 -14.3569,-79.61203 -0.6951,-26.20618 -1.9869,-52.92377 4.5731,-78.52783 2.9194,-11.97162 4.571,-24.75636 11.829,-35.0293 12.2471,-20.86238 28.3337,-39.95694 48.897,-52.95343 12.9066,5.28761 25.3586,12.48073 39.5416,13.49193 5.3367,-0.15685 7.3716,5.87632 11.0007,8.86372 10.4376,11.21563 19.9135,23.60198 31.5547,33.49136 7.4541,4.18616 15.9346,-0.91179 21.0418,-6.47562 14.9081,-14.17887 26.9348,-31.07957 40.0468,-46.71903 2.251,-1.35381 2.5687,-5.09405 3.7049,-6.58881 6.8183,-0.13413 13.8255,-2.3275 20.7137,-0.7368 10.7552,2.82354 19.0227,10.88933 27.4246,17.67307 18.5401,16.56302 33.2047,37.57226 42.7145,60.45412 4.6762,17.09389 8.8933,34.51941 8.3138,52.38589 -0.2073,20.71953 0.8244,41.5219 -1.0081,62.18331 -2.4642,19.72375 -7.3975,39.00884 -12.904,58.0994 -21.867,-0.4059 -44.2937,-1.47956 -65.3618,5.49419 -25.5616,7.62605 -50.3521,24.39453 -60.3806,50.01423 -4.112,11.3517 -5.7009,25.8882 3.1653,35.493 4.796,5.2971 10.5523,10.8562 18.2297,10.6936 33.1126,1.6645 66.2984,0.901 99.4426,1.132 22.7061,-0.397 45.4893,0.5667 68.1405,-1.2582 9.1376,-1.6166 16.6171,-8.9129 20.6085,-17.0088 4.1971,-13.8082 0.7213,-28.9917 -6.8477,-40.9967 -11.702,-18.3572 -31.9544,-28.79596 -51.5493,-36.67471 -0.8732,-2.38658 4.11,-6.72995 5.4637,-9.86061 14.7823,-22.2139 28.061,-45.80201 34.4138,-71.9026 4.9965,-17.93411 6.8155,-36.50481 8.331,-55.00696 -0.01,-2.27886 1.3051,-5.05125 4.0207,-4.14695 12.0501,2.31281 22.5978,9.1163 33.4282,14.54589 12.5856,6.48553 24.4462,14.86238 37.8929,19.35729 6.1439,1.87811 13.6684,-2.71679 13.1263,-9.54541 1.4462,-13.56312 -8.269,-24.71716 -16.3074,-34.48571 -23.0795,-27.10893 -54.1979,-46.17618 -77.3601,-73.02159 -15.8125,-17.9276 -26.0381,-40.38994 -29.9623,-64.01076 -4.963,-23.06392 -3.963,-47.07547 -8.8338,-70.20731 -5.2264,-27.59714 -18.8582,-53.31474 -37.6383,-74.182 -16.8273,-20.86525 -39.294,-37.06463 -63.6449,-47.85933 -23.4781,-10.37356 -49.1759,-15.57124 -74.8464,-15.1659 z m -55.9102,83.67578 c 7.6013,0.0168 15.3643,0.0144 22.103,3.93645 9.1054,4.73189 17.9014,10.97408 24.0187,19.24016 -8.7495,-2.63749 -17.358,-6.94994 -26.5237,-8.98856 -14.85,-4.34402 -30.9698,-6.18524 -45.9259,-1.17823 -8.6276,2.19833 -16.8899,6.94795 -25.33,8.8827 8.4827,-11.36513 21.0771,-19.82647 35.423,-21.13206 5.3801,-0.70023 10.8157,-0.82155 16.2349,-0.76043 z m -0.7158,16.62991 c 14.1988,-0.14785 27.718,6.61624 36.9647,17.24037 10.6667,10.66376 16.9402,25.34372 19.3244,40.14332 0.099,1.14317 0.5376,5.4582 -0.842,2.27347 -3.2029,-6.76765 -11.4667,-12.19814 -18.8613,-8.60967 -10.3854,5.14056 -13.7722,17.94175 -13.1619,28.75482 0.093,10.49845 4.0871,23.06703 14.9302,26.83958 6.6424,1.97743 13.239,-2.53685 16.4825,-8.12549 -1.8281,3.3766 -1.9256,8.02073 -4.5048,10.86206 -14.6471,2.78239 -28.633,8.62838 -41.3853,16.27205 -5.1341,3.418 -5.6621,10.89671 -4.4206,16.44045 0.125,1.66849 2.5307,4.63378 2.3998,5.13632 -10.41,-1.98524 -21.6892,-1.79264 -30.6285,-8.27286 -13.9151,-9.69623 -24.7482,-23.71386 -29.0396,-40.33828 -5.5352,-18.01142 -5.5028,-37.92315 1.6108,-55.4626 6.671,-18.05511 19.3879,-36.21674 38.7961,-41.42739 3.9956,-1.11848 8.1566,-1.68562 12.3356,-1.72615 z m 125.0611,6.39936 c 15.6906,0.18016 33.0304,2.91161 44.5008,14.52485 -14.0544,0.0564 -27.7911,-4.0363 -41.8905,-3.74699 -15.2845,-0.63179 -30.5329,1.58199 -45.4902,4.2101 2.6608,-3.99232 8.0545,-5.52064 12.1462,-7.76764 9.7006,-4.39363 20.0095,-7.24893 30.7337,-7.22032 z m -6.3362,20.4611 c 17.665,-0.83177 35.7484,5.53049 47.4268,19.0928 9.4787,9.76644 13.0083,23.93473 10.8627,37.29632 -1.676,11.86174 -7.4727,23.6118 -17.0936,30.99155 -11.607,9.39159 -26.6482,14.1014 -41.5116,14.7143 -1.3848,0.19708 -1.6394,2.27803 -2.484,0.23153 -8.0677,-7.53089 -19.0247,-10.99866 -29.0473,-15.17124 -3.5046,-1.4298 -7.3761,-2.33508 -10.9276,-3.20582 -2.073,-3.50659 -4.6724,-7.0575 -5.831,-11.00943 4.0376,5.29162 12.1618,7.03087 17.472,2.61028 9.5448,-7.20287 10.3318,-20.5988 8.1676,-31.47053 -1.8017,-8.09068 -8.8963,-17.31984 -18.1456,-15.19846 -3.0839,0.72461 -5.5859,2.9037 -7.7676,5.11526 4.7206,-14.92556 18.8701,-24.89973 32.9651,-30.52323 5.1051,-1.92371 10.3998,-3.53651 15.9142,-3.47333 z"
           id="path4009"
           inkscape:connector-curvature="0" />
      </g>
    </g>
  </g>
</svg>
