<?xml version="1.0" encoding="UTF-8" standalone="no"?>
<!-- Created with Inkscape (http://www.inkscape.org/) -->

<svg
   xmlns:dc="http://purl.org/dc/elements/1.1/"
   xmlns:cc="http://creativecommons.org/ns#"
   xmlns:rdf="http://www.w3.org/1999/02/22-rdf-syntax-ns#"
   xmlns:svg="http://www.w3.org/2000/svg"
   xmlns="http://www.w3.org/2000/svg"
   version="1.0"
   width="48"
   height="48"
   id="svg2">
  <defs
     id="defs4" />
  <metadata
     id="metadata7">
    <rdf:RDF>
      <cc:Work
         rdf:about="">
        <dc:format>image/svg+xml</dc:format>
        <dc:type
           rdf:resource="http://purl.org/dc/dcmitype/StillImage" />
        <dc:title></dc:title>
        <dc:creator>
          <cc:Agent>
            <dc:title />
          </cc:Agent>
        </dc:creator>
        <dc:subject>
          <rdf:Bag />
        </dc:subject>
        <cc:license
           rdf:resource="http://creativecommons.org/licenses/publicdomain/" />
        <dc:description />
        <dc:contributor>
          <cc:Agent>
            <dc:title />
          </cc:Agent>
        </dc:contributor>
      </cc:Work>
      <cc:License
         rdf:about="http://creativecommons.org/licenses/publicdomain/">
        <cc:permits
           rdf:resource="http://creativecommons.org/ns#Reproduction" />
        <cc:permits
           rdf:resource="http://creativecommons.org/ns#Distribution" />
        <cc:permits
           rdf:resource="http://creativecommons.org/ns#DerivativeWorks" />
      </cc:License>
    </rdf:RDF>
  </metadata>
  <g
     transform="translate(-373.642,-526.344)"
     id="layer1">
    <g
       id="g3770"
       style="fill:#000000;fill-opacity:1;stroke:#ffffff;stroke-width:8;stroke-miterlimit:4;stroke-opacity:1;stroke-dasharray:none">
      <rect
         width="39.040203"
         height="38.917049"
         rx="5.8952894"
         ry="5.8771505"
         x="-416.68219"
         y="531.42694"
         transform="scale(-1,1)"
         id="rect3772"
         style="fill:#000000;fill-opacity:1;fill-rule:evenodd;stroke:#ffffff;stroke-width:8;stroke-miterlimit:4;stroke-opacity:1;stroke-dasharray:none" />
      <path
         d="m 406.36775,533.09064 -18.41134,0 c -4.87353,0 -8.79697,3.94319 -8.79697,8.84121 l 0,17.90717 c 0.15774,3.82333 0.76455,1.4063 1.91955,-2.82777 1.34237,-4.92086 5.71405,-9.22174 11.03797,-12.44501 4.06359,-2.46023 8.612,-4.03121 16.89131,-4.18066 4.69544,-0.0847 4.28092,-6.07513 -2.64052,-7.29494 z"
         id="path3774"
         style="fill:#000000;fill-opacity:1;fill-rule:evenodd;stroke:#ffffff;stroke-width:8;stroke-miterlimit:4;stroke-opacity:1;stroke-dasharray:none" />
      <path
         d="m 392.61803,542.04103 5.66521,-0.0868 c 2.59421,0.0715 4.03599,1.90471 4.00922,3.99625 0.25146,2.47144 -0.44661,5.26999 -4.35785,5.21248 l -5.57806,0 c -2.45941,0.0237 -4.42321,-1.41713 -4.27068,-4.25686 -0.12184,-2.35268 0.65742,-4.89892 4.53216,-4.86499 z"
         id="path3776"
         style="fill:#000000;fill-opacity:1;fill-rule:evenodd;stroke:#ffffff;stroke-width:8;stroke-linecap:butt;stroke-linejoin:miter;stroke-miterlimit:4;stroke-opacity:1;stroke-dasharray:none" />
      <path
         d="m 401.7695,561.1535 -8.71569,0 c -3.63174,0.0465 -5.38111,-1.60415 -5.14224,-5.38626 0.0171,-3.39976 1.99528,-4.37049 4.96794,-4.4306 l 8.62853,0 c 5.86698,-0.15614 5.2262,-0.21276 5.31656,4.51748 -0.0369,3.43894 -1.93401,5.27306 -5.0551,5.29938 z"
         id="path3779"
         style="fill:#000000;fill-opacity:1;fill-rule:evenodd;stroke:#ffffff;stroke-width:8;stroke-linecap:butt;stroke-linejoin:miter;stroke-miterlimit:4;stroke-opacity:1;stroke-dasharray:none" />
      <path
         d="m 387.91157,556.46225 0.1743,-10.42499"
         id="path3781"
         style="fill:#000000;fill-opacity:1;stroke:#ffffff;stroke-width:8;stroke-linecap:butt;stroke-linejoin:miter;stroke-miterlimit:4;stroke-opacity:1;stroke-dasharray:none" />
      <path
         d="m 393.03237,546.5069 4.86586,0.077"
         id="path3783"
         style="fill:#000000;fill-opacity:1;stroke:#ffffff;stroke-width:8;stroke-linecap:round;stroke-linejoin:miter;stroke-miterlimit:4;stroke-opacity:1;stroke-dasharray:none" />
      <path
         d="m 392.4796,555.99337 9.73173,0"
         id="path3785"
         style="fill:#000000;fill-opacity:1;stroke:#ffffff;stroke-width:8;stroke-linecap:round;stroke-linejoin:miter;stroke-miterlimit:4;stroke-opacity:1;stroke-dasharray:none" />
    </g>
    <g
       id="g3761">
      <rect
         width="39.040203"
         height="38.917049"
         rx="5.8952894"
         ry="5.8771505"
         x="-416.68219"
         y="531.42694"
         transform="scale(-1,1)"
         id="rect1942"
         style="fill:#000000;fill-opacity:1;fill-rule:evenodd;stroke:none" />
      <path
         d="m 406.36775,533.09064 -18.41134,0 c -4.87353,0 -8.79697,3.94319 -8.79697,8.84121 l 0,17.90717 c 0.15774,3.82333 0.76455,1.4063 1.91955,-2.82777 1.34237,-4.92086 5.71405,-9.22174 11.03797,-12.44501 4.06359,-2.46023 8.612,-4.03121 16.89131,-4.18066 4.69544,-0.0847 4.28092,-6.07513 -2.64052,-7.29494 z"
         id="path1950"
         style="fill:#000000;fill-opacity:1;fill-rule:evenodd;stroke:none" />
      <path
         d="m 392.61803,542.04103 5.66521,-0.0868 c 2.59421,0.0715 4.03599,1.90471 4.00922,3.99625 0.25146,2.47144 -0.44661,5.26999 -4.35785,5.21248 l -5.57806,0 c -2.45941,0.0237 -4.42321,-1.41713 -4.27068,-4.25686 -0.12184,-2.35268 0.65742,-4.89892 4.53216,-4.86499 z"
         id="path3778"
         style="fill:#ffffff;fill-opacity:1;fill-rule:evenodd;stroke:#ffffff;stroke-width:4.97601604;stroke-linecap:butt;stroke-linejoin:miter;stroke-miterlimit:4;stroke-opacity:1;stroke-dasharray:none" />
      <path
         d="m 401.7695,561.1535 -8.71569,0 c -3.63174,0.0465 -5.38111,-1.60415 -5.14224,-5.38626 0.0171,-3.39976 1.99528,-4.37049 4.96794,-4.4306 l 8.62853,0 c 5.86698,-0.15614 5.2262,-0.21276 5.31656,4.51748 -0.0369,3.43894 -1.93401,5.27306 -5.0551,5.29938 z"
         id="path3780"
         style="fill:#ffffff;fill-opacity:1;fill-rule:evenodd;stroke:#ffffff;stroke-width:4.97601604;stroke-linecap:butt;stroke-linejoin:miter;stroke-miterlimit:4;stroke-opacity:1;stroke-dasharray:none" />
      <path
         d="m 387.91157,556.46225 0.1743,-10.42499"
         id="path3782"
         style="fill:none;stroke:#ffffff;stroke-width:4.97601604;stroke-linecap:butt;stroke-linejoin:miter;stroke-miterlimit:4;stroke-opacity:1;stroke-dasharray:none" />
      <path
         d="m 393.03237,546.5069 4.86586,0.077"
         id="path3786"
         style="fill:#000000;fill-opacity:1;stroke:#000000;stroke-width:4.14668036;stroke-linecap:round;stroke-linejoin:miter;stroke-miterlimit:4;stroke-opacity:1;stroke-dasharray:none" />
      <path
         d="m 392.4796,555.99337 9.73173,0"
         id="path3788"
         style="fill:none;stroke:#000000;stroke-width:4.14668036;stroke-linecap:round;stroke-linejoin:miter;stroke-miterlimit:4;stroke-opacity:1;stroke-dasharray:none" />
    </g>
  </g>
</svg>
