<?xml version="1.0" encoding="UTF-8" standalone="no"?>
<!-- Created with Inkscape (http://www.inkscape.org/) -->

<svg
   xmlns:dc="http://purl.org/dc/elements/1.1/"
   xmlns:cc="http://creativecommons.org/ns#"
   xmlns:rdf="http://www.w3.org/1999/02/22-rdf-syntax-ns#"
   xmlns:svg="http://www.w3.org/2000/svg"
   xmlns="http://www.w3.org/2000/svg"
   xmlns:sodipodi="http://sodipodi.sourceforge.net/DTD/sodipodi-0.dtd"
   xmlns:inkscape="http://www.inkscape.org/namespaces/inkscape"
   version="1.1"
   width="48"
   height="48"
   id="svg2"
   inkscape:version="0.91 r13725"
   sodipodi:docname="x-boot-repair.svg">
  <sodipodi:namedview
     pagecolor="#ffffff"
     bordercolor="#666666"
     borderopacity="1"
     objecttolerance="10"
     gridtolerance="10"
     guidetolerance="10"
     inkscape:pageopacity="0"
     inkscape:pageshadow="2"
     inkscape:window-width="1920"
     inkscape:window-height="1029"
     id="namedview11"
     showgrid="false"
     inkscape:zoom="6.9532167"
     inkscape:cx="23.682234"
     inkscape:cy="39.900926"
     inkscape:window-x="0"
     inkscape:window-y="0"
     inkscape:window-maximized="1"
     inkscape:current-layer="layer1" />
  <defs
     id="defs11" />
  <metadata
     id="metadata7">
    <rdf:RDF>
      <cc:Work
         rdf:about="">
        <dc:format>image/svg+xml</dc:format>
        <dc:type
           rdf:resource="http://purl.org/dc/dcmitype/StillImage" />
        <cc:license
           rdf:resource="http://creativecommons.org/licenses/GPL/2.0/" />
        <dc:title></dc:title>
        <dc:creator>
          <cc:Agent>
            <dc:title>Luca Ferretti &lt;elle.uca@libero.it&gt;</dc:title>
          </cc:Agent>
        </dc:creator>
        <dc:contributor>
          <cc:Agent>
            <dc:title>Shape based on exising PNG icon in gnome-icon-theme</dc:title>
          </cc:Agent>
        </dc:contributor>
        <dc:subject>
          <rdf:Bag>
            <rdf:li>hard disk</rdf:li>
          </rdf:Bag>
        </dc:subject>
      </cc:Work>
      <cc:License
         rdf:about="http://creativecommons.org/licenses/GPL/2.0/">
        <cc:permits
           rdf:resource="http://web.resource.org/cc/Reproduction" />
        <cc:permits
           rdf:resource="http://web.resource.org/cc/Distribution" />
        <cc:requires
           rdf:resource="http://web.resource.org/cc/Notice" />
        <cc:permits
           rdf:resource="http://web.resource.org/cc/DerivativeWorks" />
        <cc:requires
           rdf:resource="http://web.resource.org/cc/ShareAlike" />
        <cc:requires
           rdf:resource="http://web.resource.org/cc/SourceCode" />
      </cc:License>
    </rdf:RDF>
  </metadata>
  <g
     id="layer1">
    <rect
       width="48"
       height="48"
       rx="0"
       ry="0"
       x="0"
       y="0"
       id="rect6226"
       style="fill:none" />
    <path
       d="m 9,16 30,0 c 2.743,0 5,2.257 5,5 l 0,18 c 0,2.743 -2.257,5 -5,5 L 9,44 C 6.2571,44 4,41.743 4,39 L 4,21 c 0,-2.743 2.2571,-5 5,-5 z"
       id="path4040"
       style="fill:#ffffff;fill-rule:evenodd;stroke:#ffffff;stroke-width:8;stroke-miterlimit:4;stroke-dasharray:none"
       inkscape:connector-curvature="0" />
    <path
       d="m 9,16 30,0 c 2.743,0 5,2.257 5,5 l 0,18 c 0,2.743 -2.257,5 -5,5 L 9,44 C 6.2571,44 4,41.743 4,39 L 4,21 c 0,-2.743 2.2571,-5 5,-5 z"
       id="rect3311"
       style="fill-rule:evenodd"
       inkscape:connector-curvature="0" />
    <path
       d="m 11,20 26,0 c 2,0 3,1 3,3 l 0,14 c 0,2 -1,3 -3,3 L 11,40 C 9,40 8,39 8,37 L 8,23 c 0,-2 1,-3 3,-3 z"
       id="path4768"
       style="fill:#ffffff;fill-rule:evenodd"
       inkscape:connector-curvature="0" />
    <path
       inkscape:connector-curvature="0"
       id="path6743"
       style="stroke:#ffffff;stroke-width:4;stroke-linecap:round;stroke-linejoin:round"
       d="M 37.812083,33.63933 41.876887,26.392546 34.189929,18.705589 28.261898,21.318702 9.0434428,2.1002446 c 0,0 -3.2749963,1.2512219 -4.484471,2.450833 -1.2442633,1.234116 -2.55902,4.5926591 -2.55902,4.5926591 L 21.218408,28.362192 18.662217,34.2333 l 7.686957,7.686958 7.1608,-3.978961 -5.699917,-5.699917 4.302038,-4.302038 5.699918,5.699918 z"
       sodipodi:nodetypes="cccccsccccccccc" />
    <rect
       width="9"
       height="6"
       rx="2"
       ry="2"
       x="42.534584"
       y="-2.9580529"
       id="rect5498"
       style="fill:#dd4814;fill-opacity:1;fill-rule:evenodd"
       transform="matrix(0.70710678,0.70710678,-0.70710678,0.70710678,0,0)" />
  </g>
</svg>
