<?xml version="1.0" encoding="UTF-8" standalone="no"?>
<!-- Created with Inkscape (http://www.inkscape.org/) -->

<svg
   xmlns:dc="http://purl.org/dc/elements/1.1/"
   xmlns:cc="http://creativecommons.org/ns#"
   xmlns:rdf="http://www.w3.org/1999/02/22-rdf-syntax-ns#"
   xmlns:svg="http://www.w3.org/2000/svg"
   xmlns="http://www.w3.org/2000/svg"
   version="1.1"
   width="48"
   height="48"
   id="svg2">
  <metadata
     id="metadata12">
    <rdf:RDF>
      <cc:Work
         rdf:about="">
        <dc:format>image/svg+xml</dc:format>
        <dc:type
           rdf:resource="http://purl.org/dc/dcmitype/StillImage" />
        <dc:title></dc:title>
      </cc:Work>
    </rdf:RDF>
  </metadata>
  <defs
     id="defs10" />
  <g
     transform="matrix(0.48780476,0,0,0.48780482,4.3227409,2.4617994)"
     id="imagebot_2">
    <title
       id="title6">imagebot_2</title>
    <path
       d="m 40.338401,3.1533116 c -2.807649,0 -5.550539,0.2943698 -8.2,0.8328125 l 0,6.3421869 c -3.561721,0.859842 -6.887815,2.239236 -9.929687,4.1 L 17.724339,9.9439366 C 15.425623,11.467209 13.324762,13.25444 11.382151,15.197061 9.43951,17.139672 7.6522892,19.240542 6.1290264,21.539248 l 4.4843746,4.484375 C 8.752616,29.065506 7.3732432,32.39159 6.5134014,35.953311 l -6.34220791,0 c -0.5384223,2.649471 -0.8328125,5.392351 -0.8328125,8.2 0,2.807649 0.2943902,5.550528 0.8328125,8.2 l 6.34220791,0 c 0.8598418,3.561721 2.2392146,6.887795 4.0999996,9.929687 l -4.4843746,4.484375 c 1.5232628,2.298706 3.3104836,4.399577 5.2531246,6.342188 1.942611,1.942621 4.043472,3.729852 6.342188,5.253135 l 4.484375,-4.484385 c 3.041872,1.860764 6.367966,3.240158 9.929687,4.10001 l 0,6.342187 c 2.649461,0.538433 5.39232,0.832813 8.2,0.832813 2.807619,0 5.550508,-0.29438 8.2,-0.832813 l 0,-6.342187 c 3.561691,-0.859852 6.887785,-2.239246 9.929688,-4.10001 l 4.484374,4.484385 c 2.298706,-1.523283 4.399546,-3.310514 6.342188,-5.253135 1.942611,-1.942611 3.729862,-4.043482 5.253125,-6.342188 l -4.484375,-4.484375 c 1.860754,-3.041892 3.240127,-6.367966 4.1,-9.929687 l 6.342187,0 c 0.538433,-2.649472 0.832813,-5.392351 0.832813,-8.2 0,-2.807649 -0.29438,-5.550529 -0.832813,-8.2 l -6.342187,0 c -0.859873,-3.561721 -2.239246,-6.887805 -4.1,-9.929688 l 4.484375,-4.484375 C 73.024513,19.240542 71.237262,17.139672 69.294651,15.197061 67.352009,13.25444 65.251169,11.467209 62.952463,9.9439366 l -4.484374,4.4843744 c -3.041903,-1.860764 -6.367997,-3.240158 -9.929688,-4.1 l 0,-6.3421869 c -2.649492,-0.5384427 -5.392381,-0.8328125 -8.2,-0.8328125 z m 0,20.4999994 c 11.31598,0 20.5,9.184 20.5,20.5 0,11.316 -9.18402,20.5 -20.5,20.5 -11.31601,0 -20.5,-9.184 -20.5,-20.5 0,-11.316 9.18399,-20.5 20.5,-20.5 z"
       id="path3774"
       style="fill:#000000;fill-opacity:1;stroke:#ffffff;stroke-width:16.40000343;stroke-linecap:round;stroke-linejoin:round;stroke-miterlimit:4;stroke-opacity:1;stroke-dasharray:none" />
    <path
       d="m 40.338401,3.1533116 c -2.807649,0 -5.550539,0.2943698 -8.2,0.8328125 l 0,6.3421869 c -3.561721,0.859842 -6.887815,2.239236 -9.929687,4.1 L 17.724339,9.9439366 C 15.425623,11.467209 13.324762,13.25444 11.382151,15.197061 9.43951,17.139672 7.6522892,19.240542 6.1290264,21.539248 l 4.4843746,4.484375 C 8.752616,29.065506 7.3732432,32.39159 6.5134014,35.953311 l -6.34220791,0 c -0.5384223,2.649471 -0.8328125,5.392351 -0.8328125,8.2 0,2.807649 0.2943902,5.550528 0.8328125,8.2 l 6.34220791,0 c 0.8598418,3.561721 2.2392146,6.887795 4.0999996,9.929687 l -4.4843746,4.484375 c 1.5232628,2.298706 3.3104836,4.399577 5.2531246,6.342188 1.942611,1.942621 4.043472,3.729852 6.342188,5.253135 l 4.484375,-4.484385 c 3.041872,1.860764 6.367966,3.240158 9.929687,4.10001 l 0,6.342187 c 2.649461,0.538433 5.39232,0.832813 8.2,0.832813 2.807619,0 5.550508,-0.29438 8.2,-0.832813 l 0,-6.342187 c 3.561691,-0.859852 6.887785,-2.239246 9.929688,-4.10001 l 4.484374,4.484385 c 2.298706,-1.523283 4.399546,-3.310514 6.342188,-5.253135 1.942611,-1.942611 3.729862,-4.043482 5.253125,-6.342188 l -4.484375,-4.484375 c 1.860754,-3.041892 3.240127,-6.367966 4.1,-9.929687 l 6.342187,0 c 0.538433,-2.649472 0.832813,-5.392351 0.832813,-8.2 0,-2.807649 -0.29438,-5.550529 -0.832813,-8.2 l -6.342187,0 c -0.859873,-3.561721 -2.239246,-6.887805 -4.1,-9.929688 l 4.484375,-4.484375 C 73.024513,19.240542 71.237262,17.139672 69.294651,15.197061 67.352009,13.25444 65.251169,11.467209 62.952463,9.9439366 l -4.484374,4.4843744 c -3.041903,-1.860764 -6.367997,-3.240158 -9.929688,-4.1 l 0,-6.3421869 c -2.649492,-0.5384427 -5.392381,-0.8328125 -8.2,-0.8328125 z m 0,20.4999994 c 11.31598,0 20.5,9.184 20.5,20.5 0,11.316 -9.18402,20.5 -20.5,20.5 -11.31601,0 -20.5,-9.184 -20.5,-20.5 0,-11.316 9.18399,-20.5 20.5,-20.5 z"
       id="imagebot_3"
       style="fill:#000000;fill-opacity:1;stroke:none" />
    <path
       d="m 34.25,24.53125 a 8.40625,8.40625 0 1 1 -16.8125,0 8.40625,8.40625 0 1 1 16.8125,0 z"
       transform="matrix(1.9769868,0,0,1.9769865,-10.754362,-4.3446333)"
       id="path3772"
       style="fill:#ffffff;fill-opacity:1;stroke:#000000;stroke-width:4.14772749;stroke-linecap:round;stroke-linejoin:round;stroke-miterlimit:4;stroke-opacity:1;stroke-dasharray:none" />
    <g
       transform="matrix(1.0268558,0,0,0.83779662,-0.47509619,7.6174845)"
       id="text3765"
       style="font-size:8.20000172px;font-style:normal;font-weight:normal;line-height:125%;letter-spacing:0px;word-spacing:0px;fill:#ffffff;fill-opacity:1;stroke:#ffffff;stroke-width:4.08536673;stroke-miterlimit:4;stroke-opacity:1;stroke-dasharray:none;font-family:Sans">
      <path
         d="m 61.112415,12.918957 -3.116001,0 -3.28,4.838001 c -5.821996,-4.263997 -9.020008,-5.494001 -14.514003,-5.494001 -7.953994,0 -14.514008,3.198007 -20.090004,9.840002 -5.247996,6.231995 -7.708001,13.120011 -7.708001,21.566004 0,17.629985 11.562018,30.258005 27.716005,30.258005 13.119989,0 21.484006,-7.708015 23.370004,-21.484004 l -3.854,-0.656 c -0.82,4.345997 -1.804002,7.298004 -3.280001,9.758002 -3.361997,5.657995 -8.610008,8.528002 -15.252003,8.528002 -6.067995,0 -11.951289,-2.573485 -16.203446,-7.628152 -3.844653,-4.570255 -6.670445,-9.63286 -6.670445,-18.447853 0,-9.265993 3.185141,-14.619365 7.184105,-19.640632 3.85055,-4.834911 9.45779,-8.239373 14.705786,-8.239373 5.739995,0 10.824005,3.034005 13.940002,8.282001 1.557999,2.705998 2.788003,5.904008 4.674001,12.218002 l 3.608001,0 -1.23,-23.698004"
         id="path3770"
         style="font-size:82.00001526px;font-variant:normal;font-weight:500;font-stretch:normal;fill:#ffffff;stroke:#ffffff;stroke-width:4.08536673;stroke-miterlimit:4;stroke-opacity:1;stroke-dasharray:none;font-family:Century Schoolbook L;-inkscape-font-specification:Century Schoolbook L Medium" />
    </g>
  </g>
</svg>
