<?xml version="1.0" encoding="UTF-8" standalone="no"?>
<!-- Created with Inkscape (http://www.inkscape.org/) -->

<svg
   xmlns:dc="http://purl.org/dc/elements/1.1/"
   xmlns:cc="http://creativecommons.org/ns#"
   xmlns:rdf="http://www.w3.org/1999/02/22-rdf-syntax-ns#"
   xmlns:svg="http://www.w3.org/2000/svg"
   xmlns="http://www.w3.org/2000/svg"
   xmlns:xlink="http://www.w3.org/1999/xlink"
   version="1.0"
   width="48"
   height="48"
   id="svg6826">
  <defs
     id="defs6828">
    <linearGradient
       id="linearGradient4008">
      <stop
         id="stop4010"
         style="stop-color:#fff9e8;stop-opacity:1"
         offset="0" />
      <stop
         id="stop4012"
         style="stop-color:#a7cc5c;stop-opacity:1"
         offset="1" />
    </linearGradient>
    <linearGradient
       id="linearGradient6591">
      <stop
         id="stop6593"
         style="stop-color:#fff9e8;stop-opacity:1"
         offset="0" />
      <stop
         id="stop6595"
         style="stop-color:#fed163;stop-opacity:0"
         offset="1" />
    </linearGradient>
    <radialGradient
       cx="182.12123"
       cy="58.899124"
       r="2.3375301"
       fx="182.12123"
       fy="58.899124"
       id="radialGradient6481"
       xlink:href="#linearGradient6591"
       gradientUnits="userSpaceOnUse"
       gradientTransform="matrix(5.5457,0,0,5.2229,-825.952,-246.098)" />
    <linearGradient
       id="linearGradient6597">
      <stop
         id="stop6599"
         style="stop-color:#eeeeec;stop-opacity:0"
         offset="0" />
      <stop
         id="stop6605"
         style="stop-color:#ffffff;stop-opacity:1"
         offset="0.52820206" />
      <stop
         id="stop6601"
         style="stop-color:#eeeeec;stop-opacity:0"
         offset="1" />
    </linearGradient>
    <linearGradient
       x1="169.5137"
       y1="55.164879"
       x2="180.91669"
       y2="57.766956"
       id="linearGradient6479"
       xlink:href="#linearGradient6597"
       gradientUnits="userSpaceOnUse" />
    <linearGradient
       id="linearGradient6808">
      <stop
         id="stop6810"
         style="stop-color:#244206;stop-opacity:1"
         offset="0" />
      <stop
         id="stop6812"
         style="stop-color:#000000;stop-opacity:1"
         offset="1" />
    </linearGradient>
    <radialGradient
       cx="318.60828"
       cy="170.59293"
       r="0.82419753"
       fx="318.60828"
       fy="170.59293"
       id="radialGradient6477"
       xlink:href="#linearGradient6808"
       gradientUnits="userSpaceOnUse"
       gradientTransform="matrix(0.947477,0.319825,-1.24836,3.69825,229.696,-561.607)" />
    <radialGradient
       cx="177.5556"
       cy="69.5896"
       r="9.4960012"
       fx="177.5556"
       fy="69.5896"
       id="radialGradient6475"
       xlink:href="#linearGradient6537"
       gradientUnits="userSpaceOnUse"
       gradientTransform="matrix(1,0,0,0.654798,0,24.0225)" />
    <linearGradient
       id="linearGradient6537">
      <stop
         id="stop6539"
         style="stop-color:#000000;stop-opacity:1"
         offset="0" />
      <stop
         id="stop6541"
         style="stop-color:#000000;stop-opacity:0"
         offset="1" />
    </linearGradient>
    <radialGradient
       cx="177.5556"
       cy="69.5896"
       r="9.4960012"
       fx="177.5556"
       fy="69.5896"
       id="radialGradient6473"
       xlink:href="#linearGradient6537"
       gradientUnits="userSpaceOnUse"
       gradientTransform="matrix(1,0,0,0.654798,0,24.0225)" />
    <linearGradient
       id="linearGradient11579">
      <stop
         id="stop11581"
         style="stop-color:#000000;stop-opacity:1"
         offset="0" />
      <stop
         id="stop11583"
         style="stop-color:#000000;stop-opacity:0"
         offset="1" />
    </linearGradient>
    <clipPath
       id="clipPath11530">
      <path
         d="m 118.625,209.5 c 2.58333,-0.38773 5.16667,-0.51062 7.75,0.75 0,0 0.28209,5.48132 -1.625,5.625 -2.37827,0.17918 -6.125,-6.375 -6.125,-6.375 z"
         id="path11532"
         style="fill:none;stroke:#000000;stroke-width:0.0875215;stroke-linecap:butt;stroke-linejoin:miter;stroke-miterlimit:4;stroke-opacity:1;stroke-dasharray:none;stroke-dashoffset:0;marker:none;visibility:visible;display:inline;overflow:visible" />
    </clipPath>
    <radialGradient
       cx="175.625"
       cy="129.77148"
       r="5.625"
       fx="175.625"
       fy="129.77148"
       id="radialGradient5965"
       xlink:href="#linearGradient12495"
       gradientUnits="userSpaceOnUse"
       gradientTransform="matrix(1,0,0,2.64453,0,-212.81)" />
    <radialGradient
       cx="172.5"
       cy="104.07143"
       r="8.5"
       fx="172.5"
       fy="104.07143"
       id="radialGradient5963"
       xlink:href="#linearGradient12477"
       gradientUnits="userSpaceOnUse"
       gradientTransform="matrix(0.529412,-2.51372e-7,4.60027e-7,0.7,81.1764,34.5)" />
    <radialGradient
       cx="142.75"
       cy="172.86737"
       r="16.25"
       fx="142.75"
       fy="172.86737"
       id="radialGradient5961"
       xlink:href="#linearGradient12297"
       gradientUnits="userSpaceOnUse"
       gradientTransform="matrix(1,0,0,0.492308,0,89.6458)" />
    <linearGradient
       id="linearGradient12495">
      <stop
         id="stop12497"
         style="stop-color:#616161;stop-opacity:1"
         offset="0" />
      <stop
         id="stop12499"
         style="stop-color:#616161;stop-opacity:0"
         offset="1" />
    </linearGradient>
    <radialGradient
       cx="175.625"
       cy="129.77148"
       r="5.625"
       fx="175.625"
       fy="129.77148"
       id="radialGradient5959"
       xlink:href="#linearGradient12495"
       gradientUnits="userSpaceOnUse"
       gradientTransform="matrix(1,0,0,2.64453,0,-212.81)" />
    <linearGradient
       id="linearGradient12477">
      <stop
         id="stop12479"
         style="stop-color:#616161;stop-opacity:1"
         offset="0" />
      <stop
         id="stop12481"
         style="stop-color:#000000;stop-opacity:1"
         offset="1" />
    </linearGradient>
    <radialGradient
       cx="172.5"
       cy="104.07143"
       r="8.5"
       fx="172.5"
       fy="104.07143"
       id="radialGradient5957"
       xlink:href="#linearGradient12477"
       gradientUnits="userSpaceOnUse"
       gradientTransform="matrix(0.529412,-2.51372e-7,4.60027e-7,0.7,81.1764,34.5)" />
    <linearGradient
       id="linearGradient12297">
      <stop
         id="stop12299"
         style="stop-color:#fdfcbc;stop-opacity:1"
         offset="0" />
      <stop
         id="stop12301"
         style="stop-color:#fdfcbc;stop-opacity:0"
         offset="1" />
    </linearGradient>
    <radialGradient
       cx="142.75"
       cy="172.86737"
       r="16.25"
       fx="142.75"
       fy="172.86737"
       id="radialGradient5955"
       xlink:href="#linearGradient12297"
       gradientUnits="userSpaceOnUse"
       gradientTransform="matrix(1,0,0,0.492308,0,89.6458)" />
    <linearGradient
       id="linearGradient6499">
      <stop
         id="stop6501"
         style="stop-color:#ffffff;stop-opacity:1"
         offset="0" />
      <stop
         id="stop6503"
         style="stop-color:#a7cc5c;stop-opacity:1"
         offset="1" />
    </linearGradient>
    <radialGradient
       cx="315.07254"
       cy="169.69044"
       r="8.6255913"
       fx="315.07254"
       fy="169.69044"
       id="radialGradient6505"
       xlink:href="#linearGradient6499"
       gradientUnits="userSpaceOnUse"
       gradientTransform="matrix(1.411,0,-5.12856e-5,1.52318,-129.589,-88.5081)" />
    <linearGradient
       id="linearGradient6005">
      <stop
         id="stop6007"
         style="stop-color:#ffffff;stop-opacity:1"
         offset="0" />
      <stop
         id="stop6009"
         style="stop-color:#ffffff;stop-opacity:0"
         offset="1" />
    </linearGradient>
    <radialGradient
       cx="140.19348"
       cy="273.69705"
       r="81.986084"
       fx="140.19348"
       fy="273.69705"
       id="radialGradient8581"
       xlink:href="#linearGradient6005"
       gradientUnits="userSpaceOnUse"
       gradientTransform="matrix(1,0,0,0.579653,0,80.5851)" />
    <filter
       x="-0.43764707"
       y="-0.43764707"
       width="1.8752941"
       height="1.8752941"
       color-interpolation-filters="sRGB"
       id="filter5832">
      <feGaussianBlur
         id="feGaussianBlur5834"
         stdDeviation="0.79779412" />
    </filter>
    <clipPath
       id="clipPath5690">
      <path
         d="m 24,6.71875 c -9.741159,0 -17.625,7.876405 -17.625,17.59375 0,9.717345 7.883589,17.5625 17.625,17.5625 9.741411,0 17.625,-7.845155 17.625,-17.5625 C 41.625,14.595155 33.741159,6.71875 24,6.71875 z"
         transform="matrix(0.70852,0,0,0.709344,91.3497,52.813614)"
         id="path5692"
         style="fill:#e9b96e;fill-opacity:1;fill-rule:nonzero;stroke:url(#radialGradient5694) #000000;stroke-width:0.61879402;stroke-linecap:round;stroke-linejoin:round;stroke-miterlimit:4;stroke-opacity:1;stroke-dasharray:none;stroke-dashoffset:0;marker:none;visibility:visible;display:inline;overflow:visible" />
    </clipPath>
    <radialGradient
       cx="315.07254"
       cy="169.69044"
       r="8.6255913"
       fx="315.07254"
       fy="169.69044"
       id="radialGradient2610"
       xlink:href="#linearGradient6499"
       gradientUnits="userSpaceOnUse"
       gradientTransform="matrix(1.411,0,-5.12856e-5,1.52318,-129.589,-88.5081)" />
    <radialGradient
       cx="142.75"
       cy="172.86737"
       r="16.25"
       fx="142.75"
       fy="172.86737"
       id="radialGradient2615"
       xlink:href="#linearGradient12297"
       gradientUnits="userSpaceOnUse"
       gradientTransform="matrix(1,0,0,0.492308,0,89.6458)" />
    <radialGradient
       cx="172.5"
       cy="104.07143"
       r="8.5"
       fx="172.5"
       fy="104.07143"
       id="radialGradient2617"
       xlink:href="#linearGradient12477"
       gradientUnits="userSpaceOnUse"
       gradientTransform="matrix(0.529412,-2.51372e-7,4.60027e-7,0.7,81.1764,34.5)" />
    <radialGradient
       cx="175.625"
       cy="129.77148"
       r="5.625"
       fx="175.625"
       fy="129.77148"
       id="radialGradient2619"
       xlink:href="#linearGradient12495"
       gradientUnits="userSpaceOnUse"
       gradientTransform="matrix(1,0,0,2.64453,0,-212.81)" />
    <radialGradient
       cx="142.75"
       cy="172.86737"
       r="16.25"
       fx="142.75"
       fy="172.86737"
       id="radialGradient2621"
       xlink:href="#linearGradient12297"
       gradientUnits="userSpaceOnUse"
       gradientTransform="matrix(1,0,0,0.492308,0,89.6458)" />
    <radialGradient
       cx="172.5"
       cy="104.07143"
       r="8.5"
       fx="172.5"
       fy="104.07143"
       id="radialGradient2623"
       xlink:href="#linearGradient12477"
       gradientUnits="userSpaceOnUse"
       gradientTransform="matrix(0.529412,-2.51372e-7,4.60027e-7,0.7,81.1764,34.5)" />
    <radialGradient
       cx="175.625"
       cy="129.77148"
       r="5.625"
       fx="175.625"
       fy="129.77148"
       id="radialGradient2625"
       xlink:href="#linearGradient12495"
       gradientUnits="userSpaceOnUse"
       gradientTransform="matrix(1,0,0,2.64453,0,-212.81)" />
    <radialGradient
       cx="142.75"
       cy="172.86737"
       r="16.25"
       fx="142.75"
       fy="172.86737"
       id="radialGradient2650"
       xlink:href="#linearGradient12297"
       gradientUnits="userSpaceOnUse"
       gradientTransform="matrix(1,0,0,0.492308,0,89.6458)" />
    <radialGradient
       cx="172.5"
       cy="104.07143"
       r="8.5"
       fx="172.5"
       fy="104.07143"
       id="radialGradient2652"
       xlink:href="#linearGradient12477"
       gradientUnits="userSpaceOnUse"
       gradientTransform="matrix(0.529412,-2.51372e-7,4.60027e-7,0.7,81.1764,34.5)" />
    <radialGradient
       cx="175.625"
       cy="129.77148"
       r="5.625"
       fx="175.625"
       fy="129.77148"
       id="radialGradient2654"
       xlink:href="#linearGradient12495"
       gradientUnits="userSpaceOnUse"
       gradientTransform="matrix(1,0,0,2.64453,0,-212.81)" />
    <radialGradient
       cx="142.75"
       cy="172.86737"
       r="16.25"
       fx="142.75"
       fy="172.86737"
       id="radialGradient2656"
       xlink:href="#linearGradient12297"
       gradientUnits="userSpaceOnUse"
       gradientTransform="matrix(1,0,0,0.492308,0,89.6458)" />
    <radialGradient
       cx="172.5"
       cy="104.07143"
       r="8.5"
       fx="172.5"
       fy="104.07143"
       id="radialGradient2658"
       xlink:href="#linearGradient12477"
       gradientUnits="userSpaceOnUse"
       gradientTransform="matrix(0.529412,-2.51372e-7,4.60027e-7,0.7,81.1764,34.5)" />
    <radialGradient
       cx="175.625"
       cy="129.77148"
       r="5.625"
       fx="175.625"
       fy="129.77148"
       id="radialGradient2660"
       xlink:href="#linearGradient12495"
       gradientUnits="userSpaceOnUse"
       gradientTransform="matrix(1,0,0,2.64453,0,-212.81)" />
    <linearGradient
       x1="182.1021"
       y1="187.81308"
       x2="183.49422"
       y2="191.96733"
       id="linearGradient2748"
       xlink:href="#linearGradient11579"
       gradientUnits="userSpaceOnUse"
       gradientTransform="matrix(0.0875215,0,0,0.0875215,302.93664,165.20034)" />
    <linearGradient
       x1="182.1021"
       y1="187.81308"
       x2="183.49422"
       y2="191.96733"
       id="linearGradient2750"
       xlink:href="#linearGradient11579"
       gradientUnits="userSpaceOnUse"
       gradientTransform="matrix(0.0875215,0,0,0.0875215,302.92809,165.21598)" />
    <radialGradient
       cx="172.5"
       cy="104.07143"
       r="8.5"
       fx="172.5"
       fy="104.07143"
       id="radialGradient2776"
       xlink:href="#linearGradient12477"
       gradientUnits="userSpaceOnUse"
       gradientTransform="matrix(0.529412,-2.51372e-7,4.60027e-7,0.7,81.1764,34.5)" />
    <radialGradient
       cx="175.625"
       cy="129.77148"
       r="5.625"
       fx="175.625"
       fy="129.77148"
       id="radialGradient2778"
       xlink:href="#linearGradient12495"
       gradientUnits="userSpaceOnUse"
       gradientTransform="matrix(1,0,0,2.64453,0,-212.81)" />
    <radialGradient
       cx="172.5"
       cy="104.07143"
       r="8.5"
       fx="172.5"
       fy="104.07143"
       id="radialGradient2788"
       xlink:href="#linearGradient12477"
       gradientUnits="userSpaceOnUse"
       gradientTransform="matrix(0.529412,-2.51372e-7,4.60027e-7,0.7,81.1764,34.5)" />
    <radialGradient
       cx="175.625"
       cy="129.77148"
       r="5.625"
       fx="175.625"
       fy="129.77148"
       id="radialGradient2790"
       xlink:href="#linearGradient12495"
       gradientUnits="userSpaceOnUse"
       gradientTransform="matrix(1,0,0,2.64453,0,-212.81)" />
    <radialGradient
       cx="142.75"
       cy="172.86737"
       r="16.25"
       fx="142.75"
       fy="172.86737"
       id="radialGradient2798"
       xlink:href="#linearGradient12297"
       gradientUnits="userSpaceOnUse"
       gradientTransform="matrix(1,0,0,0.492308,0,89.6458)" />
    <radialGradient
       cx="315.07254"
       cy="169.69044"
       r="8.6255913"
       fx="315.07254"
       fy="169.69044"
       id="radialGradient2587"
       xlink:href="#linearGradient6499"
       gradientUnits="userSpaceOnUse"
       gradientTransform="matrix(1.411,0,-5.12856e-5,1.52318,-129.589,-88.5081)" />
  </defs>
  <metadata
     id="metadata6831">
    <rdf:RDF>
      <cc:Work
         rdf:about="">
        <dc:format>image/svg+xml</dc:format>
        <dc:type
           rdf:resource="http://purl.org/dc/dcmitype/StillImage" />
        <dc:title></dc:title>
      </cc:Work>
    </rdf:RDF>
  </metadata>
  <g
     id="layer1">
    <g
       transform="matrix(1.9639212,0,0,1.9424365,-702.14609,-323.64491)"
       id="g6024" />
    <g
       transform="matrix(4.2390651,1.7549976,-1.7592313,4.2288636,-1011.6286,-1267.3225)"
       id="g3944"
       style="stroke:#ffffff;stroke-width:1.74335504;stroke-miterlimit:4;stroke-opacity:1;stroke-dasharray:none;display:inline">
      <path
         d="m 317.45948,170.57723 c -0.5499,0.62574 0.98217,1.41858 1.41991,0.63253 0.48978,-0.87949 -0.0158,-2.05871 -0.55861,-2.5736 -0.11928,-0.11337 -0.38617,0.0197 -0.35403,0.16407 0.13528,0.60793 -0.14716,1.36724 -0.50727,1.777 z"
         id="path3946"
         style="fill:#000000;fill-opacity:1;fill-rule:nonzero;stroke:#ffffff;stroke-width:1.74335504;stroke-miterlimit:4;stroke-opacity:1;stroke-dasharray:none;marker:none;visibility:visible;display:inline;overflow:visible" />
    </g>
    <g
       transform="matrix(-4.2106889,2.1252183,2.1303451,4.2005557,987.51977,-1380.8636)"
       id="g3948"
       style="stroke:#ffffff;stroke-width:1.69558227;stroke-miterlimit:4;stroke-opacity:1;stroke-dasharray:none;display:inline">
      <path
         d="m 317.56868,170.64923 c -0.50716,0.60775 0.94601,1.4143 1.34518,0.64672 0.44663,-0.85884 -0.0474,-2.02942 -0.56597,-2.54579 -0.11396,-0.11371 -0.36282,0.013 -0.33031,0.15591 0.1368,0.60141 -0.11676,1.34518 -0.4489,1.74316 z"
         id="path3950"
         style="fill:#000000;fill-opacity:1;fill-rule:nonzero;stroke:#ffffff;stroke-width:1.69558227;stroke-miterlimit:4;stroke-opacity:1;stroke-dasharray:none;marker:none;visibility:visible;display:inline;overflow:visible" />
    </g>
    <path
       d="m 323.5,177.84375 a 8.53125,8.53125 0 1 1 -17.0625,0 8.53125,8.53125 0 1 1 17.0625,0 z"
       transform="matrix(2.0810497,0,0,2.0760416,-631.46562,-344.91275)"
       id="path3942"
       style="fill:#ffffff;fill-opacity:1;fill-rule:nonzero;stroke:#ffffff;stroke-width:5.76727867;stroke-linecap:round;stroke-linejoin:round;stroke-miterlimit:4;stroke-opacity:1;stroke-dasharray:none;stroke-dashoffset:0;marker:none;visibility:visible;display:inline;overflow:visible" />
    <path
       d="m 323.5,177.84375 a 8.53125,8.53125 0 1 1 -17.0625,0 8.53125,8.53125 0 1 1 17.0625,0 z"
       transform="matrix(2.0810497,0,0,2.0760416,-631.46562,-344.91275)"
       id="path6824"
       style="fill:#ffffff;fill-opacity:1;fill-rule:nonzero;stroke:#000000;stroke-width:1.83112442;stroke-linecap:round;stroke-linejoin:round;stroke-miterlimit:4;stroke-opacity:1;stroke-dasharray:none;stroke-dashoffset:0;marker:none;visibility:visible;display:inline;overflow:visible" />
    <g
       transform="matrix(0.86605886,0,0,0.86397464,2.5274834,3.66886)"
       id="g2734">
      <g
         transform="matrix(-6.3250506,5.4648949,5.4648949,6.3250506,1042.2937,-2858.9753)"
         id="g5835"
         style="fill:#000000;fill-opacity:1">
        <g
           transform="matrix(-0.820668,0.571405,0.571405,0.820668,471.332,-148.098)"
           id="g5837"
           style="fill:#000000;fill-opacity:1">
          <path
             d="m 313.21176,183.47929 c 0.22609,-0.0339 0.45219,-0.0447 0.67829,0.0657 0,0 0.0247,0.47973 -0.14223,0.4923 -0.20815,0.0157 -0.53606,-0.55795 -0.53606,-0.55795 z"
             id="path5839"
             style="fill:#000000;fill-opacity:1;fill-rule:nonzero;stroke:none;stroke-width:5;marker:none;visibility:visible;display:inline;overflow:visible" />
          <path
             d="m 118.625,209.5 c 2.58333,-0.38773 5.16667,-0.51062 7.75,0.75 0,0 0.28209,5.48132 -1.625,5.625 -2.37827,0.17918 -6.125,-6.375 -6.125,-6.375 z"
             transform="matrix(0.0875215,0,0,0.0875215,302.82958,165.14354)"
             clip-path="url(#clipPath11530)"
             id="path5841"
             style="opacity:0.6;fill:#000000;fill-opacity:1;stroke:#000000;stroke-width:1.86672997;stroke-linecap:butt;stroke-linejoin:miter;stroke-miterlimit:4;stroke-opacity:1;stroke-dasharray:none;stroke-dashoffset:0;marker:none;visibility:visible;display:inline;overflow:visible" />
          <path
             d="m 313.70406,183.94972 c -0.15838,-0.088 -0.27148,-0.2666 -0.37196,-0.47043 l 0.22974,-0.0109 c 2.9e-4,0.17617 0.0545,0.33435 0.14222,0.48137 z"
             id="path5843"
             style="fill:#000000;fill-opacity:1;fill-rule:nonzero;stroke:none;stroke-width:1;marker:none;visibility:visible;display:inline;overflow:visible" />
        </g>
        <path
           d="m 318.6134,181.89137 0.13151,0.18179 c 0.11446,-0.37326 0.24526,-0.49053 0.39066,-0.37905 l -0.004,-0.25142 c -0.18429,0.10922 -0.37372,0.20049 -0.5183,0.44868 z"
           id="path5845"
           style="opacity:0.75247504;fill:#000000;fill-opacity:1;fill-rule:nonzero;stroke:none;stroke-width:1;marker:none;visibility:visible;display:inline;overflow:visible" />
      </g>
      <g
         transform="matrix(6.2400607,5.0819736,-5.0819736,6.2400607,-1035.1704,-2721.3999)"
         id="g5823"
         style="fill:#000000;fill-opacity:1">
        <g
           transform="matrix(-0.820668,0.571405,0.571405,0.820668,471.332,-148.098)"
           id="g5825"
           style="fill:#000000;fill-opacity:1">
          <path
             d="m 313.2277,183.48724 c 0.22609,-0.0339 0.45219,-0.0447 0.67829,0.0656 0,0 0.0247,0.47973 -0.14223,0.4923 -0.20815,0.0157 -0.53606,-0.55795 -0.53606,-0.55795 z"
             id="path5827"
             style="fill:#000000;fill-opacity:1;fill-rule:nonzero;stroke:none;stroke-width:5;marker:none;visibility:visible;display:inline;overflow:visible" />
          <path
             d="m 118.625,209.5 c 2.58333,-0.38773 5.16667,-0.51062 7.75,0.75 0,0 0.28209,5.48132 -1.625,5.625 -2.37827,0.17918 -6.125,-6.375 -6.125,-6.375 z"
             transform="matrix(0.0875215,0,0,0.0875215,302.84552,165.15149)"
             clip-path="url(#clipPath11530)"
             id="path5829"
             style="opacity:0.6;fill:#000000;fill-opacity:1;stroke:#000000;stroke-width:2.09051991;stroke-linecap:butt;stroke-linejoin:miter;stroke-miterlimit:4;stroke-opacity:1;stroke-dasharray:none;stroke-dashoffset:0;marker:none;visibility:visible;display:inline;overflow:visible" />
          <path
             d="m 313.72,183.95767 c -0.15838,-0.088 -0.27148,-0.2666 -0.37196,-0.47043 l 0.22974,-0.0109 c 2.9e-4,0.17617 0.0545,0.33435 0.14222,0.48137 z"
             id="path5831"
             style="fill:#000000;fill-opacity:1;fill-rule:nonzero;stroke:none;stroke-width:1;marker:none;visibility:visible;display:inline;overflow:visible" />
        </g>
        <path
           d="m 318.60485,181.90701 0.13151,0.1818 c 0.11446,-0.37327 0.24526,-0.49054 0.39067,-0.37906 l -0.004,-0.25142 c -0.18429,0.10923 -0.37372,0.20049 -0.51831,0.44868 z"
           id="path5833"
           style="opacity:0.38118801;fill:#000000;fill-opacity:1;fill-rule:nonzero;stroke:none;stroke-width:1;marker:none;visibility:visible;display:inline;overflow:visible" />
      </g>
    </g>
    <path
       d="m 12.455718,31.641835 22.976265,0"
       id="path2591"
       style="fill:none;stroke:#000000;stroke-width:0.95151818;stroke-linecap:round;stroke-linejoin:round;stroke-miterlimit:4;stroke-opacity:1;stroke-dasharray:none" />
    <path
       d="m 316.6875,175.375 a 2.1875,2.1875 0 1 1 -4.375,0 2.1875,2.1875 0 1 1 4.375,0 z"
       transform="matrix(3.2,0,0,3.2,-982.4,-550.2)"
       clip-path="url(#clipPath5690)"
       id="path6826"
       style="fill:#f7ff83;fill-opacity:1;fill-rule:nonzero;stroke:none;stroke-width:0.46252999;marker:none;visibility:visible;display:inline;overflow:visible;filter:url(#filter5832)" />
    <g
       transform="matrix(4.5089271,0,0,5.5666383,-1387.9247,-979.83207)"
       id="g6872"
       style="opacity:0.24630498" />
    <path
       d="m 24,6.71875 c -9.741159,0 -17.625,7.876405 -17.625,17.59375 0,9.717345 7.883589,17.5625 17.625,17.5625 9.741411,0 17.625,-7.845155 17.625,-17.5625 C 41.625,14.595155 33.741159,6.71875 24,6.71875 z"
       transform="matrix(2.3197017,0,0,2.3197017,-706.63354,-388.95122)"
       id="path7025"
       style="fill:none;stroke:url(#radialGradient2587);stroke-width:0.43109655;stroke-linecap:round;stroke-linejoin:round;stroke-miterlimit:4;stroke-opacity:1;stroke-dasharray:none;stroke-dashoffset:0;marker:none;visibility:visible;display:inline;overflow:visible" />
    <g
       transform="matrix(-4.2106889,2.1252183,2.1303451,4.2005557,987.51977,-1380.8636)"
       id="g5880"
       style="display:inline">
      <path
         d="m 317.56868,170.64923 c -0.50716,0.60775 0.94601,1.4143 1.34518,0.64672 0.44663,-0.85884 -0.0474,-2.02942 -0.56597,-2.54579 -0.11396,-0.11371 -0.36282,0.013 -0.33031,0.15591 0.1368,0.60141 -0.11676,1.34518 -0.4489,1.74316 z"
         id="path5888"
         style="fill:#000000;fill-opacity:1;fill-rule:nonzero;stroke:none;stroke-width:0.43760699;marker:none;visibility:visible;display:inline;overflow:visible" />
    </g>
    <g
       transform="matrix(4.2390651,1.7549976,-1.7592313,4.2288636,-1011.6286,-1267.3225)"
       id="g5865"
       style="display:inline">
      <path
         d="m 317.45948,170.57723 c -0.5499,0.62574 0.98217,1.41858 1.41991,0.63253 0.48978,-0.87949 -0.0158,-2.05871 -0.55861,-2.5736 -0.11928,-0.11337 -0.38617,0.0197 -0.35403,0.16407 0.13528,0.60793 -0.14716,1.36724 -0.50727,1.777 z"
         id="path5873"
         style="fill:#000000;fill-opacity:1;fill-rule:nonzero;stroke:none;stroke-width:0.43760699;marker:none;visibility:visible;display:inline;overflow:visible" />
    </g>
    <g
       transform="matrix(1.2990883,0,0,1.2959619,-0.36630403,9.6037484)"
       id="g2665">
      <g
         transform="matrix(0.300126,0,0,0.1287939,-28.672113,-2.6773104)"
         id="use12709">
        <path
           d="m 181,115 a 8.5,17 0 1 1 -17,0 8.5,17 0 1 1 17,0 z"
           transform="matrix(0.9799806,0,0,1.1418151,4.7533844,-19.895539)"
           id="path13214"
           style="fill:#000000;fill-opacity:1;fill-rule:nonzero;stroke:none;stroke-width:1;marker:none;visibility:visible;display:inline;overflow:visible" />
      </g>
      <path
         d="m 326.9375,57.59375 a 0.40625,0.40625 0 1 1 -0.8125,0 0.40625,0.40625 0 1 1 0.8125,0 z"
         transform="matrix(1.7102515,0,0,1.6937819,-534.96077,-87.265216)"
         id="path2658"
         style="fill:#eeeeec;fill-opacity:1;fill-rule:nonzero;stroke:none;stroke-width:1;marker:none;visibility:visible;display:inline;overflow:visible" />
    </g>
    <g
       transform="matrix(1.2990883,0,0,1.2959619,-13.974304,9.6037484)"
       id="g2764">
      <g
         transform="matrix(0.300126,0,0,0.1287939,-28.672113,-2.6773104)"
         id="g2766"
         style="fill:#000000;fill-opacity:1">
        <path
           d="m 181,115 a 8.5,17 0 1 1 -17,0 8.5,17 0 1 1 17,0 z"
           transform="matrix(0.9799806,0,0,1.1418151,8.1132233,-19.895539)"
           id="path2768"
           style="fill:#000000;fill-opacity:1;fill-rule:nonzero;stroke:none;stroke-width:1;marker:none;visibility:visible;display:inline;overflow:visible" />
      </g>
      <path
         d="m 326.9375,57.59375 a 0.40625,0.40625 0 1 1 -0.8125,0 0.40625,0.40625 0 1 1 0.8125,0 z"
         transform="matrix(1.7102515,0,0,1.6937819,-533.9524,-87.265216)"
         id="path2772"
         style="fill:#eeeeec;fill-opacity:1;fill-rule:nonzero;stroke:none;stroke-width:1;marker:none;visibility:visible;display:inline;overflow:visible" />
    </g>
  </g>
</svg>
