<?xml version="1.0" encoding="UTF-8" standalone="no"?>
<!-- Created with Inkscape (http://www.inkscape.org/) -->

<svg
   xmlns:dc="http://purl.org/dc/elements/1.1/"
   xmlns:cc="http://creativecommons.org/ns#"
   xmlns:rdf="http://www.w3.org/1999/02/22-rdf-syntax-ns#"
   xmlns:svg="http://www.w3.org/2000/svg"
   xmlns="http://www.w3.org/2000/svg"
   xmlns:sodipodi="http://sodipodi.sourceforge.net/DTD/sodipodi-0.dtd"
   xmlns:inkscape="http://www.inkscape.org/namespaces/inkscape"
   version="1.1"
   width="48"
   height="48"
   id="svg2"
   inkscape:version="0.48.3.1 r9886"
   sodipodi:docname="desura.svg">
  <sodipodi:namedview
     pagecolor="#ffffff"
     bordercolor="#666666"
     borderopacity="1"
     objecttolerance="10"
     gridtolerance="10"
     guidetolerance="10"
     inkscape:pageopacity="0"
     inkscape:pageshadow="2"
     inkscape:window-width="1366"
     inkscape:window-height="717"
     id="namedview9"
     showgrid="false"
     inkscape:zoom="4.9166667"
     inkscape:cx="24"
     inkscape:cy="24"
     inkscape:window-x="0"
     inkscape:window-y="0"
     inkscape:window-maximized="1"
     inkscape:current-layer="g3050" />
  <defs
     id="defs4" />
  <metadata
     id="metadata7">
    <rdf:RDF>
      <cc:Work
         rdf:about="">
        <dc:format>image/svg+xml</dc:format>
        <dc:type
           rdf:resource="http://purl.org/dc/dcmitype/StillImage" />
        <dc:title />
      </cc:Work>
    </rdf:RDF>
  </metadata>
  <g
     transform="translate(0,-1004.3622)"
     id="layer1">
    <g
       transform="translate(84.999997,3.5714282)"
       id="g3050">
      <path
         d="m -65.845577,1037.3951 -4.82578,-2.3813 -5.195125,-4.3073 c -2.857318,-2.369 -5.167232,-4.3837 -5.133142,-4.477 0.03409,-0.093 0.965685,-2.8912 2.070212,-6.2176 1.104526,-3.3263 2.029767,-6.0732 2.05609,-6.1041 0.02632,-0.031 2.031178,0.1038 4.455232,0.2995 3.941563,0.3181 4.436452,0.3306 4.682537,0.1181 0.151342,-0.1307 1.741971,-1.4515 3.534733,-2.9351 l 3.259566,-2.6974 3.259567,2.6974 c 1.792761,1.4836 3.38339,2.8044 3.534733,2.9351 0.246084,0.2125 0.740974,0.2 4.682536,-0.1181 2.424054,-0.1957 4.428835,-0.3305 4.455067,-0.2995 0.02623,0.031 0.975942,2.8464 2.110466,6.2566 1.636279,4.9184 2.022386,6.2395 1.867444,6.3894 -0.10743,0.104 -2.422043,2.0381 -5.143584,4.2979 l -4.948258,4.1089 -4.933951,2.4222 c -2.713673,1.3322 -4.940389,2.4157 -4.948257,2.4079 -0.0079,-0.01 -2.185908,-1.0859 -4.840086,-2.3956 z m 9.253845,-1.9493 4.135808,-2.0029 -4.242664,-0.042 c -2.333466,-0.023 -6.151531,-0.023 -8.484587,0 l -4.241922,0.042 4.124107,2.0008 c 2.268257,1.1005 4.225207,2.0018 4.348776,2.0029 0.12357,0 2.085787,-0.8992 4.360482,-2.0008 z m -3.922251,-3.3774 c 0.647105,-0.7039 1.615384,-2.3775 2.099888,-3.6296 0.67509,-1.7446 1.069064,-3.7441 1.180667,-5.992 l 0.09359,-1.8851 -1.904452,-1.885 -1.904451,-1.8851 -1.90305,1.9198 -1.903048,1.9197 0.112246,1.6933 c 0.201301,3.0367 0.735813,5.2471 1.776938,7.3484 0.534957,1.0797 1.698521,2.749 1.916127,2.749 0.06083,0 0.256827,-0.159 0.435549,-0.3534 z m -7.182035,-0.6644 c 0,-0.041 -1.762043,-1.4879 -3.915651,-3.2143 l -3.915651,-3.1389 0.995563,-2.8729 c 1.364578,-3.9377 1.273981,-3.7372 1.687234,-3.7347 0.196535,0 1.559055,0.1416 3.027824,0.312 1.468768,0.1704 2.894544,0.3108 3.168391,0.312 0.414643,0 0.926884,-0.3655 3.063207,-2.1966 1.410918,-1.2094 2.600648,-2.1989 2.643847,-2.1989 0.0432,0 1.23293,0.9895 2.643848,2.1989 2.136323,1.8311 2.648564,2.1984 3.063207,2.1966 0.273846,0 1.699622,-0.1416 3.168391,-0.312 1.468768,-0.1704 2.831289,-0.3107 3.027823,-0.312 0.413253,0 0.322656,-0.203 1.687235,3.7347 l 0.995562,2.8729 -3.91565,3.1389 c -2.153609,1.7264 -3.915652,3.1729 -3.915652,3.2143 0,0.041 0.795256,0.073 1.767235,0.07 l 1.767235,0 3.377382,-2.7567 c 1.85756,-1.5162 3.530875,-2.8806 3.718477,-3.032 l 0.341095,-0.2753 -1.476902,-4.7621 c -0.812297,-2.6192 -1.508044,-4.7933 -1.546106,-4.8313 -0.06798,-0.068 -6.772968,0.513 -7.730482,0.6698 -0.44641,0.073 -0.766605,-0.1526 -3.679382,-2.5935 -1.754733,-1.4704 -3.236725,-2.6735 -3.293316,-2.6735 -0.05659,0 -1.538582,1.2031 -3.293315,2.6735 -2.912777,2.4409 -3.232974,2.6666 -3.679382,2.5935 -0.957515,-0.1568 -7.662505,-0.7378 -7.730482,-0.6698 -0.03806,0.038 -0.73381,2.2121 -1.546106,4.8313 l -1.476903,4.7621 0.341095,0.2753 c 0.187603,0.1514 1.860917,1.5158 3.718478,3.032 l 3.377382,2.7567 1.767234,0 c 0.97198,0 1.767235,-0.029 1.767235,-0.07 z m 2.668027,-1.3777 c -1.320576,-2.5113 -2.196764,-5.7206 -2.196764,-8.0465 l 0,-0.9756 -2.317041,-0.244 c -1.274373,-0.1341 -2.362911,-0.1983 -2.418974,-0.1426 -0.16411,0.163 -1.102153,3.6245 -1.04749,3.8653 0.04638,0.2044 8.405376,6.9649 8.638463,6.9866 0.05826,0.01 -0.237928,-0.6441 -0.658194,-1.4432 z m 11.829684,-1.9353 c 2.350837,-1.8636 4.296664,-3.4872 4.324059,-3.6079 0.05466,-0.241 -0.883358,-3.7025 -1.04749,-3.8655 -0.05606,-0.056 -1.144601,0.01 -2.418973,0.1426 l -2.317042,0.244 0,0.9756 c 0,2.3259 -0.876188,5.5352 -2.196763,8.0465 -0.420266,0.7991 -0.73125,1.453 -0.69108,1.453 0.04017,0 1.996452,-1.5247 4.347289,-3.3883 z"
         id="path3824"
         style="fill:#000000;fill-opacity:1;stroke:#ffffff;stroke-width:8;stroke-linejoin:round;stroke-miterlimit:4;stroke-opacity:1;stroke-dasharray:none" />
      <path
         d="m -65.727392,1037.0743 -4.708078,-2.3232 -5.068415,-4.2023 c -2.787627,-2.3112 -5.041202,-4.2768 -5.007943,-4.3678 0.03326,-0.091 0.942131,-2.8207 2.019719,-6.0659 1.077586,-3.2452 1.98026,-5.9251 2.005941,-5.9553 0.02568,-0.03 1.981637,0.1013 4.346568,0.2922 3.845427,0.3104 4.328246,0.3226 4.568329,0.1153 0.147651,-0.1275 1.699484,-1.4161 3.44852,-2.8635 l 3.180064,-2.6317 3.180066,2.6317 c 1.749035,1.4474 3.300868,2.736 3.44852,2.8635 0.240082,0.2073 0.722901,0.1951 4.568327,-0.1153 2.364931,-0.1909 4.320815,-0.3224 4.346407,-0.2922 0.02559,0.03 0.952139,2.777 2.058991,6.104 1.59637,4.7985 1.97306,6.0874 1.821897,6.2336 -0.10481,0.1015 -2.362969,1.9884 -5.018131,4.1931 l -4.827568,4.0087 -4.813611,2.3631 c -2.647486,1.2997 -4.819892,2.3568 -4.827568,2.3492 -0.0077,-0.01 -2.132593,-1.0595 -4.722035,-2.3372 z m 9.028141,-1.9018 4.034935,-1.954 -4.139184,-0.041 c -2.276553,-0.022 -6.001494,-0.022 -8.277646,0 l -4.138461,0.041 4.023519,1.952 c 2.212934,1.0736 4.122153,1.953 4.242709,1.954 0.120556,0 2.034914,-0.8772 4.254128,-1.952 z m -3.826586,-3.295 c 0.631322,-0.6867 1.575984,-2.3195 2.048671,-3.5411 0.658625,-1.702 1.04299,-3.6527 1.15187,-5.8458 l 0.09131,-1.8391 -1.858002,-1.8391 -1.858001,-1.8391 -1.856634,1.873 -1.856632,1.8729 0.109508,1.652 c 0.196391,2.9626 0.717866,5.1191 1.733598,7.1691 0.521909,1.0534 1.657094,2.682 1.869392,2.682 0.05935,0 0.250563,-0.1551 0.424926,-0.3448 z m -7.006863,-0.6482 c 0,-0.04 -1.719067,-1.4516 -3.820148,-3.1359 l -3.820147,-3.0623 0.971281,-2.8029 c 1.331296,-3.8416 1.242908,-3.646 1.646082,-3.6436 0.191741,0 1.521029,0.1382 2.953975,0.3044 1.432944,0.1663 2.823945,0.3032 3.091113,0.3044 0.404529,0 0.904277,-0.3566 2.988494,-2.143 1.376506,-1.1799 2.537218,-2.1453 2.579363,-2.1453 0.04215,0 1.202859,0.9654 2.579364,2.1453 2.084218,1.7864 2.583965,2.1448 2.988495,2.143 0.267167,0 1.658168,-0.1381 3.091113,-0.3044 1.432944,-0.1662 2.762233,-0.3031 2.953974,-0.3044 0.403173,0 0.314786,-0.198 1.646083,3.6436 l 0.97128,2.8029 -3.820147,3.0623 c -2.101082,1.6843 -3.820148,3.0955 -3.820148,3.1359 0,0.04 0.775859,0.071 1.724132,0.068 l 1.724131,0 3.295007,-2.6895 c 1.812254,-1.4792 3.444756,-2.8103 3.627783,-2.958 l 0.332775,-0.2686 -1.44088,-4.6459 c -0.792485,-2.5554 -1.471262,-4.6764 -1.508396,-4.7135 -0.06632,-0.066 -6.607774,0.5005 -7.541934,0.6535 -0.435521,0.071 -0.747907,-0.1489 -3.589641,-2.5303 -1.711934,-1.4345 -3.15778,-2.6083 -3.212991,-2.6083 -0.05521,0 -1.501055,1.1738 -3.21299,2.6083 -2.841734,2.3814 -3.154121,2.6016 -3.589641,2.5303 -0.934161,-0.153 -7.475615,-0.7198 -7.541934,-0.6535 -0.03713,0.037 -0.715912,2.1581 -1.508396,4.7135 l -1.440881,4.6459 0.332776,0.2686 c 0.183027,0.1477 1.815529,1.4788 3.627783,2.958 l 3.295007,2.6895 1.724131,0 c 0.948273,0 1.724132,-0.028 1.724132,-0.068 z m 2.602953,-1.3441 c -1.288367,-2.45 -2.143185,-5.5811 -2.143185,-7.8502 l 0,-0.9518 -2.260527,-0.2381 c -1.243291,-0.1308 -2.305279,-0.1934 -2.359975,-0.1391 -0.160107,0.159 -1.075271,3.5361 -1.021942,3.771 0.04525,0.1994 8.200367,6.795 8.427769,6.8162 0.05684,0.01 -0.232125,-0.6284 -0.64214,-1.408 z m 11.541155,-1.8881 c 2.293499,-1.8181 4.191867,-3.4021 4.218594,-3.5199 0.05333,-0.2351 -0.861813,-3.6122 -1.021941,-3.7712 -0.05469,-0.055 -1.116684,0.01 -2.359974,0.1391 l -2.260529,0.2381 0,0.9518 c 0,2.2691 -0.854817,5.4002 -2.143183,7.8502 -0.410016,0.7796 -0.713415,1.4176 -0.674225,1.4176 0.03919,0 1.947758,-1.4875 4.241258,-3.3057 z"
         id="path3052"
         style="fill:#000000;fill-opacity:1;stroke:#000000;stroke-width:0.97560978;stroke-opacity:1"
         inkscape:connector-curvature="0" />
    </g>
  </g>
</svg>
