<?xml version="1.0" encoding="UTF-8" standalone="no"?>
<!-- Created with Inkscape (http://www.inkscape.org/) -->

<svg
   xmlns:dc="http://purl.org/dc/elements/1.1/"
   xmlns:cc="http://creativecommons.org/ns#"
   xmlns:rdf="http://www.w3.org/1999/02/22-rdf-syntax-ns#"
   xmlns:svg="http://www.w3.org/2000/svg"
   xmlns="http://www.w3.org/2000/svg"
   version="1.1"
   width="48"
   height="48"
   viewBox="281.111 125.333 48.000002 48"
   id="Layer_1"
   xml:space="preserve"><metadata
   id="metadata129"><rdf:RDF><cc:Work
       rdf:about=""><dc:format>image/svg+xml</dc:format><dc:type
         rdf:resource="http://purl.org/dc/dcmitype/StillImage" /><dc:title></dc:title></cc:Work></rdf:RDF></metadata><defs
   id="defs127" />
<g
   transform="translate(0,-29.972001)"
   id="g3">
	<g
   id="g5">
		
			<linearGradient
   x1="324.4678"
   y1="148.24409"
   x2="299.69821"
   y2="148.24409"
   id="SVGID_1_"
   gradientUnits="userSpaceOnUse"
   gradientTransform="matrix(1,0,0,-1,0,327.7158)">
			<stop
   id="stop8"
   style="stop-color:#c1e0f6;stop-opacity:1"
   offset="0" />
			<stop
   id="stop10"
   style="stop-color:#64b3e3;stop-opacity:1"
   offset="1" />
		</linearGradient>
		
		
			<linearGradient
   x1="340.66751"
   y1="128.20261"
   x2="333.59991"
   y2="168.285"
   id="SVGID_2_"
   gradientUnits="userSpaceOnUse"
   gradientTransform="matrix(1,0,0,-1,0,327.7158)">
			<stop
   id="stop15"
   style="stop-color:#c1e0f6;stop-opacity:1"
   offset="0" />
			<stop
   id="stop17"
   style="stop-color:#64b3e3;stop-opacity:1"
   offset="1" />
		</linearGradient>
		
		
			<linearGradient
   x1="282.00491"
   y1="172.17039"
   x2="367.0488"
   y2="172.17039"
   id="SVGID_3_"
   gradientUnits="userSpaceOnUse"
   gradientTransform="matrix(1,0,0,-1,0,327.7158)">
			<stop
   id="stop22"
   style="stop-color:#c1e0f6;stop-opacity:1"
   offset="0" />
			<stop
   id="stop24"
   style="stop-color:#64b3e3;stop-opacity:1"
   offset="1" />
		</linearGradient>
		
		
			<linearGradient
   x1="328.94089"
   y1="160.09129"
   x2="310.80499"
   y2="180.9543"
   id="SVGID_4_"
   gradientUnits="userSpaceOnUse"
   gradientTransform="matrix(1,0,0,-1,0,327.7158)">
			<stop
   id="stop29"
   style="stop-color:#ecf8fe;stop-opacity:1"
   offset="0" />
			<stop
   id="stop31"
   style="stop-color:#c7eafa;stop-opacity:1"
   offset="1" />
		</linearGradient>
		
		
			<linearGradient
   x1="324.52731"
   y1="171.3989"
   x2="349.1084"
   y2="171.3989"
   id="SVGID_5_"
   gradientUnits="userSpaceOnUse"
   gradientTransform="matrix(1,0,0,-1,0,327.7158)">
			<stop
   id="stop36"
   style="stop-color:#ecf8fe;stop-opacity:1"
   offset="0" />
			<stop
   id="stop38"
   style="stop-color:#c7eafa;stop-opacity:1"
   offset="1" />
		</linearGradient>
		<g
   transform="matrix(0.4543211,0,0,0.4543211,157.99018,106.36404)"
   id="g3881"
   style="stroke:#ffffff;stroke-width:17.60869217;stroke-linecap:round;stroke-linejoin:round;stroke-miterlimit:4;stroke-opacity:1;stroke-dasharray:none"><polygon
     points="324.468,202.37 299.699,185.827 299.699,156.575 324.468,171.37 "
     id="polygon3883"
     style="fill:#000000;fill-opacity:1;stroke:#ffffff;stroke-width:17.60869217;stroke-linecap:round;stroke-linejoin:round;stroke-miterlimit:4;stroke-opacity:1;stroke-dasharray:none" /><polygon
     points="324.527,171.715 324.468,202.37 349.799,185.94 349.799,156.575 "
     id="polygon3885"
     style="fill:#000000;fill-opacity:1;stroke:#ffffff;stroke-width:17.60869217;stroke-linecap:round;stroke-linejoin:round;stroke-miterlimit:4;stroke-opacity:1;stroke-dasharray:none" /><polygon
     points="282.005,142.778 307.83,125.957 324.694,140.425 341.95,125.957 367.049,141.994 350.578,155.72 367.049,169.838 341.557,185.132 324.694,172.191 307.83,185.132 282.005,169.838 299.789,156.308 "
     id="polygon3887"
     style="fill:#000000;fill-opacity:1;stroke:#ffffff;stroke-width:17.60869217;stroke-linecap:round;stroke-linejoin:round;stroke-miterlimit:4;stroke-opacity:1;stroke-dasharray:none" /><polygon
     points="300.096,156.07 324.749,141.175 324.527,171.46 "
     transform="matrix(0.81,0,0,0.81,61.160241,29.700325)"
     id="polygon3889"
     style="fill:#ffffff;fill-opacity:1;stroke:#ffffff;stroke-width:21.73912621;stroke-linecap:round;stroke-linejoin:round;stroke-miterlimit:4;stroke-opacity:1;stroke-dasharray:none" /><polygon
     points="324.527,171.46 324.749,141.175 349.108,155.172 "
     transform="matrix(0.81,0,0,0.81,63.195131,29.700325)"
     id="polygon3891"
     style="fill:#ffffff;fill-opacity:1;stroke:#ffffff;stroke-width:21.73912621;stroke-linecap:round;stroke-linejoin:round;stroke-miterlimit:4;stroke-opacity:1;stroke-dasharray:none" /></g><g
   transform="matrix(0.4543211,0,0,0.4543211,157.99018,106.36404)"
   id="g3874"><polygon
     points="324.468,202.37 299.699,185.827 299.699,156.575 324.468,171.37 "
     id="polygon12"
     style="fill:#000000;fill-opacity:1;stroke:#ffffff;stroke-width:3;stroke-miterlimit:10;stroke-opacity:1;stroke-dasharray:none" /><polygon
     points="324.527,171.715 324.468,202.37 349.799,185.94 349.799,156.575 "
     id="polygon19"
     style="fill:#000000;fill-opacity:1;stroke:#ffffff;stroke-width:3;stroke-miterlimit:10;stroke-opacity:1;stroke-dasharray:none" /><polygon
     points="282.005,142.778 307.83,125.957 324.694,140.425 341.95,125.957 367.049,141.994 350.578,155.72 367.049,169.838 341.557,185.132 324.694,172.191 307.83,185.132 282.005,169.838 299.789,156.308 "
     id="polygon26"
     style="fill:#000000;fill-opacity:1;stroke:#ffffff;stroke-width:3;stroke-miterlimit:10;stroke-opacity:1;stroke-dasharray:none" /><polygon
     points="300.096,156.07 324.749,141.175 324.527,171.46 "
     transform="matrix(0.81,0,0,0.81,61.160241,29.700325)"
     id="polygon33"
     style="fill:#ffffff;fill-opacity:1;stroke:#000000;stroke-width:3;stroke-miterlimit:4;stroke-opacity:1;stroke-dasharray:none" /><polygon
     points="324.527,171.46 324.749,141.175 349.108,155.172 "
     transform="matrix(0.81,0,0,0.81,63.195131,29.700325)"
     id="polygon40"
     style="fill:#ffffff;fill-opacity:1;stroke:#000000;stroke-width:3;stroke-miterlimit:4;stroke-opacity:1;stroke-dasharray:none" /></g>
	</g>
	
</g>
</svg>