<?xml version="1.0" encoding="UTF-8" standalone="no"?>
<svg
   xmlns:dc="http://purl.org/dc/elements/1.1/"
   xmlns:cc="http://creativecommons.org/ns#"
   xmlns:rdf="http://www.w3.org/1999/02/22-rdf-syntax-ns#"
   xmlns:svg="http://www.w3.org/2000/svg"
   xmlns="http://www.w3.org/2000/svg"
   xmlns:sodipodi="http://sodipodi.sourceforge.net/DTD/sodipodi-0.dtd"
   xmlns:inkscape="http://www.inkscape.org/namespaces/inkscape"
   width="48"
   height="48"
   id="svg2"
   version="1.1"
   inkscape:version="0.48.3.1 r9886"
   sodipodi:docname="ekiga.svg">
  <metadata
     id="metadata20">
    <rdf:RDF>
      <cc:Work
         rdf:about="">
        <dc:format>image/svg+xml</dc:format>
        <dc:type
           rdf:resource="http://purl.org/dc/dcmitype/StillImage" />
      </cc:Work>
    </rdf:RDF>
  </metadata>
  <defs
     id="defs18" />
  <sodipodi:namedview
     pagecolor="#ffffff"
     bordercolor="#666666"
     borderopacity="1"
     objecttolerance="10"
     gridtolerance="10"
     guidetolerance="10"
     inkscape:pageopacity="0"
     inkscape:pageshadow="2"
     inkscape:window-width="1366"
     inkscape:window-height="717"
     id="namedview16"
     showgrid="false"
     inkscape:zoom="7.75"
     inkscape:cx="20.416394"
     inkscape:cy="27.926826"
     inkscape:window-x="0"
     inkscape:window-y="0"
     inkscape:window-maximized="1"
     inkscape:current-layer="Layer_x0020_1" />
  <g
     id="g4"
     transform="matrix(0.68631879,0,0,0.68631598,-56.137999,-44.147026)">
    <title
       id="title6">Layer 1</title>
    <g
       id="Layer_x0020_1">
      <metadata
         id="CorelCorpID_0Corel-Layer" />
      <path
         style="fill:#000000;fill-opacity:1;stroke:#ffffff;stroke-width:14.57051827000000088;stroke-miterlimit:4;stroke-opacity:1;stroke-dasharray:none;stroke-linecap:round;stroke-linejoin:round"
         inkscape:connector-curvature="0"
         id="path3767"
         class="fil1"
         d="m 116.76486,71.540154 4e-4,0 0,0.0065 c 7.66661,1.16e-4 14.6047,3.104794 19.62325,8.123448 5.01835,5.018422 8.1229,11.956102 8.12314,19.622488 l 0.007,0 0,8.7e-4 0,4.1e-4 -0.007,0 c -1.3e-4,7.6667 -3.10479,14.60477 -8.12344,19.62335 -5.01846,5.01836 -11.95613,8.12292 -19.62248,8.12316 l 0,0.007 -8.7e-4,0 -4.2e-4,0 0,-0.007 c -7.66661,-1.3e-4 -14.60461,-3.1048 -19.62316,-8.12347 -5.018341,-5.01849 -8.122889,-11.95618 -8.123115,-19.62257 l -0.0065,0 0,-8.8e-4 0,-4e-4 0.0065,0 c 1.24e-4,-7.666648 3.104773,-14.604676 8.123411,-19.62325 5.018394,-5.018364 11.956044,-8.122933 19.622394,-8.123158 l 0,-0.0065 8.9e-4,0 z m 4e-4,3.310279 0,0.0065 -4e-4,0 -8.9e-4,0 0,-0.0065 c -6.74205,1.67e-4 -12.85128,2.738351 -17.27735,7.164405 -4.426323,4.426285 -7.164611,10.535813 -7.164669,17.278192 l 0.0065,0 0,4.1e-4 0,8.9e-4 -0.0065,0 c 1.82e-4,6.74213 2.738346,12.85133 7.164371,17.27752 4.426258,4.42634 10.535758,7.16464 17.278118,7.1647 l 0,-0.007 4.1e-4,0 8.8e-4,0 0,0.007 c 6.74211,-1.6e-4 12.85127,-2.73836 17.27745,-7.1644 4.42633,-4.4263 7.16461,-10.53582 7.16467,-17.2783 l -0.007,0 0,-4.1e-4 0,-8.7e-4 0.007,0 c -1.7e-4,-6.742087 -2.73834,-12.851346 -7.16436,-17.277442 -4.42629,-4.426345 -10.53578,-7.164637 -17.27823,-7.164695 z" />
      <path
         sodipodi:type="arc"
         style="fill:#ffffff;fill-opacity:1;stroke:#000000;stroke-width:2;stroke-linecap:round;stroke-linejoin:round;stroke-miterlimit:4;stroke-opacity:1;stroke-dasharray:none"
         id="path3765"
         sodipodi:cx="22.838709"
         sodipodi:cy="24.709677"
         sodipodi:rx="15.870968"
         sodipodi:ry="17.612904"
         d="m 38.709677,24.709677 a 15.870968,17.612904 0 1 1 -31.741936,0 15.870968,17.612904 0 1 1 31.741936,0 z"
         transform="matrix(1.5917962,0,0,1.4570548,80.998015,63.396101)" />
      <g
         id="_152222920"
         transform="matrix(0.95237701,0,0,0.95238133,5.2025601,4.873459)">
        <path
           d="m 112.1857,92.499496 c -5.4466,3.144501 2.8637,18.723994 8.8237,15.283004 1.05839,1.8332 4.4675,7.7381 5.5259,9.5712 -2.5146,1.4519 -4.6431,2.3672 -7.5585,0.7006 -8.0946,-4.6273 -17.0046,-20.054299 -16.7511,-29.255799 0.088,-3.195999 1.971,-4.448303 4.434,-5.8703 1.0584,1.833199 4.4676,7.738098 5.5259,9.571297 l 1e-4,0 z"
           class="fil0"
           id="_152222248"
           inkscape:connector-curvature="0" />
        <path
           d="m 114.4704,92.239899 c -0.58849,0.339783 -1.3458,0.136971 -1.68564,-0.451576 l -5.2095,-9.023163 c -0.33984,-0.588615 -0.13703,-1.345863 0.45152,-1.685699 l 2.73799,-1.58075 c 0.58855,-0.339844 1.34598,-0.136848 1.68576,0.451698 l 5.2095,9.023102 c 0.33978,0.588501 0.13691,1.345795 -0.45158,1.685577 l -2.73805,1.580811 z"
           class="fil0"
           id="_150519168"
           inkscape:connector-curvature="0" />
        <path
           d="m 128.7023,116.8904 c -0.58848,0.33978 -1.3458,0.13697 -1.68564,-0.45164 l -5.2095,-9.02316 c -0.33984,-0.58856 -0.13702,-1.34586 0.45152,-1.68563 l 2.73799,-1.58082 c 0.58855,-0.33978 1.34598,-0.13679 1.68576,0.4517 l 5.20951,9.0231 c 0.33976,0.58856 0.1369,1.34586 -0.45159,1.68564 l -2.73805,1.58081 z"
           class="fil0"
           id="_226148072"
           inkscape:connector-curvature="0" />
      </g>
      <path
         d="m 116.76486,71.540154 4e-4,0 0,0.0065 c 7.66661,1.16e-4 14.6047,3.104794 19.62325,8.123448 5.01835,5.018422 8.1229,11.956102 8.12314,19.622488 l 0.007,0 0,8.7e-4 0,4.1e-4 -0.007,0 c -1.3e-4,7.6667 -3.10479,14.60477 -8.12344,19.62335 -5.01846,5.01836 -11.95613,8.12292 -19.62248,8.12316 l 0,0.007 -8.7e-4,0 -4.2e-4,0 0,-0.007 c -7.66661,-1.3e-4 -14.60461,-3.1048 -19.62316,-8.12347 -5.018341,-5.01849 -8.122889,-11.95618 -8.123115,-19.62257 l -0.0065,0 0,-8.8e-4 0,-4e-4 0.0065,0 c 1.24e-4,-7.666648 3.104773,-14.604676 8.123411,-19.62325 5.018394,-5.018364 11.956044,-8.122933 19.622394,-8.123158 l 0,-0.0065 8.9e-4,0 z m 4e-4,3.310279 0,0.0065 -4e-4,0 -8.9e-4,0 0,-0.0065 c -6.74205,1.67e-4 -12.85128,2.738351 -17.27735,7.164405 -4.426323,4.426285 -7.164611,10.535813 -7.164669,17.278192 l 0.0065,0 0,4.1e-4 0,8.9e-4 -0.0065,0 c 1.82e-4,6.74213 2.738346,12.85133 7.164371,17.27752 4.426258,4.42634 10.535758,7.16464 17.278118,7.1647 l 0,-0.007 4.1e-4,0 8.8e-4,0 0,0.007 c 6.74211,-1.6e-4 12.85127,-2.73836 17.27745,-7.1644 4.42633,-4.4263 7.16461,-10.53582 7.16467,-17.2783 l -0.007,0 0,-4.1e-4 0,-8.7e-4 0.007,0 c -1.7e-4,-6.742087 -2.73834,-12.851346 -7.16436,-17.277442 -4.42629,-4.426345 -10.53578,-7.164637 -17.27823,-7.164695 z"
         class="fil1"
         id="path14"
         inkscape:connector-curvature="0"
         style="fill:#000000;fill-opacity:1;stroke:#000000;stroke-width:2.77533174;stroke-miterlimit:4;stroke-opacity:1;stroke-dasharray:none" />
    </g>
  </g>
</svg>
