<?xml version="1.0" encoding="UTF-8" standalone="no"?>
<!-- Created with Inkscape (http://www.inkscape.org/) -->

<svg
   xmlns:dc="http://purl.org/dc/elements/1.1/"
   xmlns:cc="http://creativecommons.org/ns#"
   xmlns:rdf="http://www.w3.org/1999/02/22-rdf-syntax-ns#"
   xmlns:svg="http://www.w3.org/2000/svg"
   xmlns="http://www.w3.org/2000/svg"
   version="1.1"
   width="48"
   height="48"
   id="svg2">
  <metadata
     id="metadata8">
    <rdf:RDF>
      <cc:Work
         rdf:about="">
        <dc:format>image/svg+xml</dc:format>
        <dc:type
           rdf:resource="http://purl.org/dc/dcmitype/StillImage" />
        <dc:title></dc:title>
      </cc:Work>
    </rdf:RDF>
  </metadata>
  <defs
     id="defs6" />
  <path
     d="M 17.208194,37.58341 C 15.396627,35.704286 12.225704,32.216582 10.161699,29.832959 8.0976945,27.449334 5.7042905,25.322234 4.8430247,25.10607 3.3450837,24.730111 3.4913483,24.470471 8.2114397,19.126677 10.925334,16.054175 14.436407,12.142456 16.013825,10.433968 l 2.868032,-3.106341 2.065001,2.388854 c 1.902417,2.200771 2.176555,2.319188 3.481842,1.504023 0.779263,-0.486657 2.075464,-2.126348 2.880448,-3.643758 0.804982,-1.5174095 1.60948,-2.7514293 1.787774,-2.7422661 0.178287,0.00916 1.294359,1.4471728 2.480152,3.1955781 1.1858,1.748404 4.466057,5.647963 7.289463,8.665685 L 44,22.182511 l -2.287018,1.08526 c -1.25786,0.596893 -5.393587,4.416149 -9.190506,8.487236 C 26.120286,38.619488 23.225044,41 21.278469,41 20.851385,41 19.019761,39.462534 17.208194,37.58341 z m 10.276773,-9.594233 c 2.097268,-1.841425 5.986245,-7.506625 5.406697,-7.876104 -1.998937,-1.274379 -6.598753,-3.019157 -7.959501,-3.019157 -0.997376,0 -3.536448,1.185599 -5.846971,2.730195 -4.025656,2.69117 -4.071289,2.754837 -3.19251,4.454208 0.490337,0.948207 1.794625,2.627116 2.898418,3.730909 2.729464,2.729464 5.569803,2.722914 8.693867,-0.02005 z"
     id="path3759"
     style="fill:#000000;fill-opacity:1;stroke:#ffffff;stroke-width:8;stroke-linecap:round;stroke-linejoin:round;stroke-miterlimit:4;stroke-opacity:1;stroke-dasharray:none" />
  <path
     d="M 17.208194,37.58341 C 15.396627,35.704286 12.225704,32.216582 10.161699,29.832959 8.0976945,27.449334 5.7042905,25.322234 4.8430247,25.10607 3.3450837,24.730111 3.4913483,24.470471 8.2114397,19.126677 10.925334,16.054175 14.436407,12.142456 16.013825,10.433968 l 2.868032,-3.106341 2.065001,2.388854 c 1.902417,2.200771 2.176555,2.319188 3.481842,1.504023 0.779263,-0.486657 2.075464,-2.126348 2.880448,-3.643758 0.804982,-1.5174095 1.60948,-2.7514293 1.787774,-2.7422661 0.178287,0.00916 1.294359,1.4471728 2.480152,3.1955781 1.1858,1.748404 4.466057,5.647963 7.289463,8.665685 L 44,22.182511 l -2.287018,1.08526 c -1.25786,0.596893 -5.393587,4.416149 -9.190506,8.487236 C 26.120286,38.619488 23.225044,41 21.278469,41 20.851385,41 19.019761,39.462534 17.208194,37.58341 z m 10.276773,-9.594233 c 2.097268,-1.841425 5.986245,-7.506625 5.406697,-7.876104 -1.998937,-1.274379 -6.598753,-3.019157 -7.959501,-3.019157 -0.997376,0 -3.536448,1.185599 -5.846971,2.730195 -4.025656,2.69117 -4.071289,2.754837 -3.19251,4.454208 0.490337,0.948207 1.794625,2.627116 2.898418,3.730909 2.729464,2.729464 5.569803,2.722914 8.693867,-0.02005 z"
     id="path2989"
     style="fill:#000000;fill-opacity:1" />
</svg>
