<?xml version="1.0" encoding="UTF-8" standalone="no"?>
<!-- Generator: Adobe Illustrator 12.0.1, SVG Export Plug-In . SVG Version: 6.00 Build 51448)  -->

<svg
   xmlns:dc="http://purl.org/dc/elements/1.1/"
   xmlns:cc="http://creativecommons.org/ns#"
   xmlns:rdf="http://www.w3.org/1999/02/22-rdf-syntax-ns#"
   xmlns:svg="http://www.w3.org/2000/svg"
   xmlns="http://www.w3.org/2000/svg"
   xmlns:sodipodi="http://sodipodi.sourceforge.net/DTD/sodipodi-0.dtd"
   xmlns:inkscape="http://www.inkscape.org/namespaces/inkscape"
   version="1.1"
   id="Layer_1"
   width="48"
   height="48"
   viewBox="0 0 48.000002 47.999999"
   overflow="visible"
   enable-background="new 0 0 379.955 380.251"
   xml:space="preserve"
   sodipodi:version="0.32"
   inkscape:version="0.48.3.1 r9886"
   sodipodi:docname="fileZilla.svg"
   inkscape:output_extension="org.inkscape.output.svg.inkscape"
   style="overflow:visible"><metadata
   id="metadata2383"><rdf:RDF><cc:Work
       rdf:about=""><dc:format>image/svg+xml</dc:format><dc:type
         rdf:resource="http://purl.org/dc/dcmitype/StillImage" /></cc:Work></rdf:RDF></metadata><defs
   id="defs2381"><inkscape:perspective
   sodipodi:type="inkscape:persp3d"
   inkscape:vp_x="0 : 190.1255 : 1"
   inkscape:vp_y="0 : 1000 : 0"
   inkscape:vp_z="379.95499 : 190.1255 : 1"
   inkscape:persp3d-origin="189.97749 : 126.75034 : 1"
   id="perspective12" />
	
	
</defs><sodipodi:namedview
   inkscape:window-height="719"
   inkscape:window-width="1280"
   inkscape:pageshadow="2"
   inkscape:pageopacity="0.0"
   guidetolerance="10.0"
   gridtolerance="10.0"
   objecttolerance="10.0"
   borderopacity="1.0"
   bordercolor="#666666"
   pagecolor="#ffffff"
   id="base"
   inkscape:zoom="8.0157577"
   inkscape:cx="16.182891"
   inkscape:cy="19.400998"
   inkscape:window-x="110"
   inkscape:window-y="110"
   inkscape:current-layer="g2305"
   showgrid="false"
   inkscape:window-maximized="0" />
<g
   id="g2305"
   transform="matrix(0.22888796,0,0,0.22888141,-19.01972,-19.518253)">
		<linearGradient
   y2="258.86539"
   x2="187.94679"
   y1="123.8594"
   x1="187.94679"
   gradientUnits="userSpaceOnUse"
   id="XMLID_2_">
			<stop
   id="stop2308"
   style="stop-color: rgb(191, 0, 0);"
   offset="0" />
			<stop
   id="stop2310"
   style="stop-color: rgb(143, 0, 0);"
   offset="1" />
		</linearGradient>
		<path
   inkscape:connector-curvature="0"
   d="m 104.94095,112.68147 0,7.32925 c 3.0647,0 5.55845,2.49375 5.55845,5.5575 0,3.06565 -2.49375,5.5594 -5.55845,5.5594 l 0,7.32925 c 3.0647,0 5.55845,2.49375 5.55845,5.5575 0,3.06565 -2.49375,5.5594 -5.55845,5.5594 l 0,7.32925 c 3.0647,0 5.55845,2.49375 5.55845,5.5613 0,3.06755 -2.49375,5.5613 -5.55845,5.5613 l 0,7.32925 c 3.0647,0 5.55845,2.49185 5.55845,5.5575 0,3.06565 -2.49375,5.5594 -5.55845,5.5594 l 0,7.32925 c 3.0647,0 5.55845,2.49185 5.55845,5.5575 0,3.06565 -2.49375,5.5594 -5.55845,5.5594 l 0,7.32925 c 3.0647,0 5.55845,2.49185 5.55845,5.5575 0,3.06565 -2.49375,5.5594 -5.55845,5.5594 l 0,7.32925 c 3.0647,0 5.55845,2.49185 5.55845,5.5575 0,3.06565 -2.49375,5.5594 -5.55845,5.5594 l 0,7.32925 c 3.0647,0 5.55845,2.49185 5.55845,5.5575 0,3.06565 -2.49375,5.5594 -5.55845,5.5594 l 0,7.33305 c 1.463,0 2.8956,0.59185 3.9311,1.62735 1.0336,1.0336 1.62735,2.4662 1.62735,3.93015 l 7.32925,0 c 0,-3.06565 2.49375,-5.5575 5.55845,-5.5575 3.0647,0 5.55845,2.49185 5.55845,5.5575 l 7.32925,0 c 0,-3.06565 2.49375,-5.5575 5.55845,-5.5575 3.0647,0 5.55845,2.49185 5.55845,5.5575 l 7.32925,0 c 0,-3.06565 2.49375,-5.5575 5.55845,-5.5575 3.0647,0 5.55845,2.49185 5.55845,5.5575 l 7.32925,0 c 0,-3.06565 2.49375,-5.5575 5.55845,-5.5575 3.0647,0 5.55845,2.49185 5.55845,5.5575 l 7.32925,0 c 0,-3.06565 2.49375,-5.5575 5.55845,-5.5575 3.0647,0 5.55845,2.49185 5.55845,5.5575 l 7.32925,0 c 0,-3.06565 2.49375,-5.5575 5.55845,-5.5575 3.0647,0 5.55845,2.49185 5.55845,5.5575 l 7.32925,0 c 0,-3.06565 2.49375,-5.5575 5.55845,-5.5575 3.0647,0 5.55845,2.49185 5.55845,5.5575 l 7.32925,0 c 0,-3.06565 2.49375,-5.5575 5.55845,-5.5575 3.0647,0 5.55845,2.49185 5.55845,5.5575 l 7.33305,0 c 0,-1.46395 0.59375,-2.89655 1.62925,-3.93015 1.0336,-1.0355 2.4662,-1.62735 3.93015,-1.62735 l 0,-7.32925 c -3.06565,0 -5.5594,-2.49375 -5.5594,-5.5594 0,-3.06565 2.49375,-5.5575 5.5594,-5.5575 l 0,-7.32925 c -3.06565,0 -5.5594,-2.49375 -5.5594,-5.5594 0,-3.06565 2.49375,-5.5575 5.5594,-5.5575 l 0,-7.32925 c -3.06565,0 -5.5594,-2.49375 -5.5594,-5.5594 0,-3.06565 2.49375,-5.5575 5.5594,-5.5575 l 0,-7.32925 c -3.06565,0 -5.5594,-2.49375 -5.5594,-5.5594 0,-3.06565 2.49375,-5.5575 5.5594,-5.5575 l 0,-7.32925 c -3.06565,0 -5.5594,-2.49375 -5.5594,-5.5594 0,-3.06565 2.49375,-5.5575 5.5594,-5.5575 l 0,-7.32925 c -3.06565,0 -5.5594,-2.49375 -5.5594,-5.5613 0,-3.06755 2.49375,-5.5613 5.5594,-5.5613 l 0,-7.32925 c -3.06565,0 -5.5594,-2.49375 -5.5594,-5.5594 0,-3.06375 2.49375,-5.5575 5.5594,-5.5575 l 0,-7.32925 c -3.06565,0 -5.5594,-2.49375 -5.5594,-5.5594 0,-3.06375 2.49375,-5.5575 5.5594,-5.5575 l 0,-7.33305 c -1.46395,0 -2.89655,-0.59375 -3.93015,-1.62735 -1.0355,-1.0355 -1.62925,-2.4681 -1.62925,-3.93205 l -7.32925,0 c 0,3.06565 -2.49375,5.5594 -5.55845,5.5594 -3.0647,0 -5.55845,-2.49375 -5.55845,-5.5594 l -7.32925,0 c 0,3.06565 -2.49375,5.5594 -5.55845,5.5594 -3.0647,0 -5.55845,-2.49375 -5.55845,-5.5594 l -7.32925,0 c 0,3.06565 -2.49375,5.5594 -5.55845,5.5594 -3.0647,0 -5.55845,-2.49375 -5.55845,-5.5594 l -7.32925,0 c 0,3.06565 -2.49375,5.5594 -5.55845,5.5594 -3.0647,0 -5.55845,-2.49375 -5.55845,-5.5594 l -7.32925,0 c 0,3.06565 -2.49375,5.5594 -5.55845,5.5594 -3.0647,0 -5.55845,-2.49375 -5.55845,-5.5594 l -7.32925,0 c 0,3.06565 -2.49375,5.5594 -5.55845,5.5594 -3.0647,0 -5.55845,-2.49375 -5.55845,-5.5594 l -7.32925,0 c 0,3.06565 -2.49375,5.5594 -5.55845,5.5594 -3.0647,0 -5.55845,-2.49375 -5.55845,-5.5594 l -7.32925,0 c 0,3.06565 -2.49375,5.5594 -5.55845,5.5594 -3.0647,0 -5.55845,-2.49375 -5.55845,-5.5594 l -7.33305,0 c 0,1.46395 -0.59375,2.89655 -1.62735,3.93205 -1.0355,1.0336 -2.4681,1.62735 -3.9311,1.62735 z"
   id="path3756"
   style="fill:#ffffff;fill-opacity:1;stroke:#ffffff;stroke-opacity:1;stroke-width:34.95209971999999965;stroke-miterlimit:4;stroke-dasharray:none;stroke-linejoin:round;stroke-linecap:round" /><path
   style="fill:#000000;fill-opacity:1"
   id="path2312"
   d="m 104.94095,112.68147 0,7.32925 c 3.0647,0 5.55845,2.49375 5.55845,5.5575 0,3.06565 -2.49375,5.5594 -5.55845,5.5594 l 0,7.32925 c 3.0647,0 5.55845,2.49375 5.55845,5.5575 0,3.06565 -2.49375,5.5594 -5.55845,5.5594 l 0,7.32925 c 3.0647,0 5.55845,2.49375 5.55845,5.5613 0,3.06755 -2.49375,5.5613 -5.55845,5.5613 l 0,7.32925 c 3.0647,0 5.55845,2.49185 5.55845,5.5575 0,3.06565 -2.49375,5.5594 -5.55845,5.5594 l 0,7.32925 c 3.0647,0 5.55845,2.49185 5.55845,5.5575 0,3.06565 -2.49375,5.5594 -5.55845,5.5594 l 0,7.32925 c 3.0647,0 5.55845,2.49185 5.55845,5.5575 0,3.06565 -2.49375,5.5594 -5.55845,5.5594 l 0,7.32925 c 3.0647,0 5.55845,2.49185 5.55845,5.5575 0,3.06565 -2.49375,5.5594 -5.55845,5.5594 l 0,7.32925 c 3.0647,0 5.55845,2.49185 5.55845,5.5575 0,3.06565 -2.49375,5.5594 -5.55845,5.5594 l 0,7.33305 c 1.463,0 2.8956,0.59185 3.9311,1.62735 1.0336,1.0336 1.62735,2.4662 1.62735,3.93015 l 7.32925,0 c 0,-3.06565 2.49375,-5.5575 5.55845,-5.5575 3.0647,0 5.55845,2.49185 5.55845,5.5575 l 7.32925,0 c 0,-3.06565 2.49375,-5.5575 5.55845,-5.5575 3.0647,0 5.55845,2.49185 5.55845,5.5575 l 7.32925,0 c 0,-3.06565 2.49375,-5.5575 5.55845,-5.5575 3.0647,0 5.55845,2.49185 5.55845,5.5575 l 7.32925,0 c 0,-3.06565 2.49375,-5.5575 5.55845,-5.5575 3.0647,0 5.55845,2.49185 5.55845,5.5575 l 7.32925,0 c 0,-3.06565 2.49375,-5.5575 5.55845,-5.5575 3.0647,0 5.55845,2.49185 5.55845,5.5575 l 7.32925,0 c 0,-3.06565 2.49375,-5.5575 5.55845,-5.5575 3.0647,0 5.55845,2.49185 5.55845,5.5575 l 7.32925,0 c 0,-3.06565 2.49375,-5.5575 5.55845,-5.5575 3.0647,0 5.55845,2.49185 5.55845,5.5575 l 7.32925,0 c 0,-3.06565 2.49375,-5.5575 5.55845,-5.5575 3.0647,0 5.55845,2.49185 5.55845,5.5575 l 7.33305,0 c 0,-1.46395 0.59375,-2.89655 1.62925,-3.93015 1.0336,-1.0355 2.4662,-1.62735 3.93015,-1.62735 l 0,-7.32925 c -3.06565,0 -5.5594,-2.49375 -5.5594,-5.5594 0,-3.06565 2.49375,-5.5575 5.5594,-5.5575 l 0,-7.32925 c -3.06565,0 -5.5594,-2.49375 -5.5594,-5.5594 0,-3.06565 2.49375,-5.5575 5.5594,-5.5575 l 0,-7.32925 c -3.06565,0 -5.5594,-2.49375 -5.5594,-5.5594 0,-3.06565 2.49375,-5.5575 5.5594,-5.5575 l 0,-7.32925 c -3.06565,0 -5.5594,-2.49375 -5.5594,-5.5594 0,-3.06565 2.49375,-5.5575 5.5594,-5.5575 l 0,-7.32925 c -3.06565,0 -5.5594,-2.49375 -5.5594,-5.5594 0,-3.06565 2.49375,-5.5575 5.5594,-5.5575 l 0,-7.32925 c -3.06565,0 -5.5594,-2.49375 -5.5594,-5.5613 0,-3.06755 2.49375,-5.5613 5.5594,-5.5613 l 0,-7.32925 c -3.06565,0 -5.5594,-2.49375 -5.5594,-5.5594 0,-3.06375 2.49375,-5.5575 5.5594,-5.5575 l 0,-7.32925 c -3.06565,0 -5.5594,-2.49375 -5.5594,-5.5594 0,-3.06375 2.49375,-5.5575 5.5594,-5.5575 l 0,-7.33305 c -1.46395,0 -2.89655,-0.59375 -3.93015,-1.62735 -1.0355,-1.0355 -1.62925,-2.4681 -1.62925,-3.93205 l -7.32925,0 c 0,3.06565 -2.49375,5.5594 -5.55845,5.5594 -3.0647,0 -5.55845,-2.49375 -5.55845,-5.5594 l -7.32925,0 c 0,3.06565 -2.49375,5.5594 -5.55845,5.5594 -3.0647,0 -5.55845,-2.49375 -5.55845,-5.5594 l -7.32925,0 c 0,3.06565 -2.49375,5.5594 -5.55845,5.5594 -3.0647,0 -5.55845,-2.49375 -5.55845,-5.5594 l -7.32925,0 c 0,3.06565 -2.49375,5.5594 -5.55845,5.5594 -3.0647,0 -5.55845,-2.49375 -5.55845,-5.5594 l -7.32925,0 c 0,3.06565 -2.49375,5.5594 -5.55845,5.5594 -3.0647,0 -5.55845,-2.49375 -5.55845,-5.5594 l -7.32925,0 c 0,3.06565 -2.49375,5.5594 -5.55845,5.5594 -3.0647,0 -5.55845,-2.49375 -5.55845,-5.5594 l -7.32925,0 c 0,3.06565 -2.49375,5.5594 -5.55845,5.5594 -3.0647,0 -5.55845,-2.49375 -5.55845,-5.5594 l -7.32925,0 c 0,3.06565 -2.49375,5.5594 -5.55845,5.5594 -3.0647,0 -5.55845,-2.49375 -5.55845,-5.5594 l -7.33305,0 c 0,1.46395 -0.59375,2.89655 -1.62735,3.93205 -1.0355,1.0336 -2.4681,1.62735 -3.9311,1.62735 z"
   inkscape:connector-curvature="0" />
		<path
   style="fill:#ffffff"
   id="path2314"
   d="m 246.36935,173.55367 -82.84475,0 4.32345,-20.22835 50.4925,0 4.6322,-21.7721 -72.5743,0 -22.8532,107.7813 21.92695,0 10.03485,-47.0972 52.59295,0 -45.69975,45.24375 8.0294,14.20535 c 3.705,-2.47 9.72705,-2.7797 13.8966,-2.7797 7.41285,0 14.6699,2.4719 22.2338,2.4719 6.93595,0 14.03625,-0.4636 25.61865,-6.023 l 4.047,-18.9924 c -7.87645,3.2414 -19.5301,6.3308 -29.66565,6.3308 -4.1667,0 -8.0275,-0.92625 -12.0422,-1.54375 l 44.29945,-43.0806 3.55205,-14.516 z"
   inkscape:connector-curvature="0" />
	</g>




















</svg>