<?xml version="1.0" encoding="UTF-8" standalone="no"?>
<!-- Created with Inkscape (http://www.inkscape.org/) -->

<svg
   xmlns:dc="http://purl.org/dc/elements/1.1/"
   xmlns:cc="http://creativecommons.org/ns#"
   xmlns:rdf="http://www.w3.org/1999/02/22-rdf-syntax-ns#"
   xmlns:svg="http://www.w3.org/2000/svg"
   xmlns="http://www.w3.org/2000/svg"
   version="1.0"
   width="48"
   height="48"
   viewBox="0 0 48 48"
   id="svg2"
   xml:space="preserve"><defs
   id="defs15" /><metadata
   id="metadata27"><rdf:RDF><cc:Work
       rdf:about=""><dc:format>image/svg+xml</dc:format><dc:type
         rdf:resource="http://purl.org/dc/dcmitype/StillImage" /><dc:title></dc:title><dc:date>November 2007</dc:date><dc:creator><cc:Agent><dc:title>Jakub Steiner</dc:title></cc:Agent></dc:creator><dc:source>http://www.gnome.org</dc:source><dc:subject><rdf:Bag><rdf:li>format</rdf:li><rdf:li>text</rdf:li><rdf:li>bold</rdf:li></rdf:Bag></dc:subject><dc:contributor><cc:Agent><dc:title>Canvas resize and pixel perfect by Luca Ferretti</dc:title></cc:Agent></dc:contributor><cc:license
         rdf:resource="http://creativecommons.org/licenses/LGPL/2.1/" /></cc:Work><cc:License
       rdf:about="http://creativecommons.org/licenses/LGPL/2.1/"><cc:permits
         rdf:resource="http://web.resource.org/cc/Reproduction" /><cc:permits
         rdf:resource="http://web.resource.org/cc/Distribution" /><cc:requires
         rdf:resource="http://web.resource.org/cc/Notice" /><cc:permits
         rdf:resource="http://web.resource.org/cc/DerivativeWorks" /><cc:requires
         rdf:resource="http://web.resource.org/cc/ShareAlike" /><cc:requires
         rdf:resource="http://web.resource.org/cc/SourceCode" /></cc:License></rdf:RDF></metadata>
	<rect
   width="48"
   height="48"
   x="0"
   y="0"
   id="rect6077"
   style="fill:none" /><g
   id="Layer_x0020_4"
   style="stroke:#000000;stroke-width:2;stroke-linecap:round;stroke-linejoin:round">
		<g
   id="g5"
   style="stroke-width:2;stroke-linecap:round;stroke-linejoin:round">
			<g
   id="g7"
   style="stroke-width:2;stroke-linecap:round;stroke-linejoin:round">
				<g
   id="g9"
   style="stroke-width:2;stroke-linecap:round;stroke-linejoin:round">
					<path
   d="m 18,30.9 -2.8,7.2 H 6 L 18.1,9.9 H 29.7 L 42,38.1 h -9.6 l -3,-7.2 H 18 z m 10,-4.8 c 0,0 -3.8,-9.8 -4.4,-11.4 h -0.2 c -0.5,1.7 -4.2,11.4 -4.2,11.4 H 28 z"
   id="path11" />
				</g>
			</g>
			<g
   id="g17"
   style="stroke-width:2;stroke-linecap:round;stroke-linejoin:round">
				<path
   d="m 19,32 -3,9 H 5 L 17,7 H 31 L 43,41 H 32 L 29,32.1 19,32 z m 9,-6 -3,-11 h -2 l -3,11 h 8 z"
   id="path11026"
   style="fill:none;stroke:#ffffff;stroke-width:10;stroke-linecap:round;stroke-linejoin:round" /><path
   d="m 19,32 -3,9 H 5 L 17,7 H 31 L 43,41 H 32 L 29,32.1 19,32 z m 9,-6 -3,-11 h -2 l -3,11 h 8 z"
   id="path19"
   style="stroke-width:2;stroke-linecap:round;stroke-linejoin:round" />
			</g>
		</g>
	</g>
<g
   transform="matrix(0.6358119,0,0,0.6358119,-5.6967705,-0.57776442)"
   id="g3005"><path
     d="m 58.447517,28.628456 6,4 c 5.646,-3.287 12.487,-10.359 15.427,-20 l -10.427,-7.0000001 c -6.034,4.5653001 -9.118,12.6470001 -11,23.0000001 z"
     id="path3750"
     style="fill:#ffffff;fill-rule:evenodd;stroke:#ffffff;stroke-width:8;stroke-linecap:round;stroke-linejoin:round" /><path
     d="m 47.447517,44.628456 c 11,1 16.461,-2 15,-11 l -4,-2 c -8,2 -3,9 -11,13 z"
     id="path5221"
     style="fill:#ffffff;fill-rule:evenodd;stroke:#ffffff;stroke-width:8;stroke-linejoin:round" /><path
     d="m 59.447517,29.628456 4,2 c 5.646,-3.287 13.487,-9.359 16.427,-19 l -10.427,-7.0000001 c -6.034,4.5653001 -8.118,13.6470001 -10,24.0000001 z"
     id="path3020"
     style="fill-rule:evenodd" /><path
     d="m 47.447517,44.628456 c 11,1 16.461,-2 15,-11 l -4,-2 c -8,2 -3,9 -11,13 z"
     id="path3748"
     style="fill-rule:evenodd" /></g></svg>