<?xml version="1.0" encoding="UTF-8" standalone="no"?>
<!-- Created with Inkscape (http://www.inkscape.org/) -->

<svg
   xmlns:dc="http://purl.org/dc/elements/1.1/"
   xmlns:cc="http://creativecommons.org/ns#"
   xmlns:rdf="http://www.w3.org/1999/02/22-rdf-syntax-ns#"
   xmlns:svg="http://www.w3.org/2000/svg"
   xmlns="http://www.w3.org/2000/svg"
   xmlns:sodipodi="http://sodipodi.sourceforge.net/DTD/sodipodi-0.dtd"
   xmlns:inkscape="http://www.inkscape.org/namespaces/inkscape"
   version="1.0"
   width="48"
   height="48"
   viewBox="0 0 48 48"
   id="svg2"
   xml:space="preserve"
   inkscape:version="0.48.3.1 r9886"
   sodipodi:docname="gedit.svg"><sodipodi:namedview
   pagecolor="#ffffff"
   bordercolor="#666666"
   borderopacity="1"
   objecttolerance="10"
   gridtolerance="10"
   guidetolerance="10"
   inkscape:pageopacity="0"
   inkscape:pageshadow="2"
   inkscape:window-width="736"
   inkscape:window-height="480"
   id="namedview17"
   showgrid="false"
   inkscape:zoom="4.9166667"
   inkscape:cx="24"
   inkscape:cy="24"
   inkscape:window-x="0"
   inkscape:window-y="0"
   inkscape:window-maximized="0"
   inkscape:current-layer="svg2" /><defs
   id="defs20" /><metadata
   id="metadata32"><rdf:RDF><cc:Work
       rdf:about=""><dc:format>image/svg+xml</dc:format><dc:type
         rdf:resource="http://purl.org/dc/dcmitype/StillImage" /><dc:title /><dc:date>May 2009</dc:date><dc:creator><cc:Agent><dc:title>Jakub Steiner</dc:title></cc:Agent></dc:creator><dc:coverage /><dc:description>A paper with a pencil on it</dc:description><dc:subject><rdf:Bag><rdf:li>text</rdf:li><rdf:li>editor</rdf:li></rdf:Bag></dc:subject></cc:Work></rdf:RDF></metadata>
	<rect
   width="48"
   height="48"
   x="0"
   y="0"
   id="rect2400"
   style="fill:none" /><rect
   width="32"
   height="40"
   ry="3.4532001"
   x="7"
   y="4"
   id="rect3174"
   style="fill:#ffffff;stroke:#ffffff;stroke-width:8;stroke-linejoin:round;stroke-miterlimit:4;stroke-dasharray:none" /><rect
   width="32"
   height="40"
   ry="3.4532001"
   x="7"
   y="4"
   id="rect3172" /><path
   d="M 36,7 H 10 V 41 H 36 V 7 z"
   id="path13"
   style="fill:#ffffff" />
	<g
   transform="matrix(0.99465,0,0,0.97382,0.14108,0.90381)"
   id="g3176"><path
     d="m 44.381873,38.85478 -13.7,-13.7 -7.7,-3 2.7,8.7 13.3,13.4 5.4,-5.4 z"
     id="path7"
     style="fill:none;stroke:#ffffff;stroke-width:8.12859535;stroke-linejoin:round;stroke-miterlimit:4;stroke-dasharray:none" /><g
     transform="translate(5.6818719,8.4547785)"
     id="Layer_x0020_4"
     style="stroke:#000000">
		<path
   d="M 38.7,30.4 25,16.7 l -7.7,-3 2.7,8.7 13.3,13.4 5.4,-5.4 z"
   id="path16"
   style="fill:none;stroke-width:4.97149992;stroke-linejoin:round" />
		<path
   d="M 38.7,30.4 25,16.7 l -7.7,-3 2.7,8.7 13.3,13.4 5.4,-5.4 z"
   id="path18" />
		<path
   d="m 20.6,14.7 -2.5,2.5 -1.1,-3.8 3.6,1.3 z"
   id="path20" />
		<path
   d="m 19.6,22.2 3,-0.3 2.4,-2.4 0.4,-2.8"
   id="path22"
   style="fill:none;stroke-width:1.24290001" />
		<path
   d="m 20.4,14.9 -2.1,2.1 1.6,5.2 2.7,-0.3 2.4,-2.4 0.3,-2.4 c -1.495163,-0.64772 -3.765793,-1.650025 -4.9,-2.2 z"
   id="path24"
   style="fill:#ffffff;stroke:#ffffff;stroke-width:1.52411163;stroke-miterlimit:4;stroke-opacity:1;stroke-dasharray:none" />
	</g></g>
	
</svg>