<?xml version="1.0" encoding="UTF-8" standalone="no"?>
<!-- Created with Inkscape (http://www.inkscape.org/) -->

<svg
   xmlns:dc="http://purl.org/dc/elements/1.1/"
   xmlns:cc="http://creativecommons.org/ns#"
   xmlns:rdf="http://www.w3.org/1999/02/22-rdf-syntax-ns#"
   xmlns:svg="http://www.w3.org/2000/svg"
   xmlns="http://www.w3.org/2000/svg"
   xmlns:xlink="http://www.w3.org/1999/xlink"
   xmlns:sodipodi="http://sodipodi.sourceforge.net/DTD/sodipodi-0.dtd"
   xmlns:inkscape="http://www.inkscape.org/namespaces/inkscape"
   version="1.0"
   width="48"
   height="48"
   id="svg2"
   sodipodi:version="0.32"
   inkscape:version="0.48.3.1 r9886"
   sodipodi:docname="gnome-mplayer.svg"
   inkscape:output_extension="org.inkscape.output.svg.inkscape">
  <metadata
     id="metadata31">
    <rdf:RDF>
      <cc:Work
         rdf:about="">
        <dc:format>image/svg+xml</dc:format>
        <dc:type
           rdf:resource="http://purl.org/dc/dcmitype/StillImage" />
        <dc:title></dc:title>
      </cc:Work>
    </rdf:RDF>
  </metadata>
  <sodipodi:namedview
     inkscape:window-height="717"
     inkscape:window-width="1366"
     inkscape:pageshadow="2"
     inkscape:pageopacity="0.0"
     guidetolerance="10000"
     gridtolerance="10000"
     objecttolerance="10000"
     borderopacity="1.0"
     bordercolor="#666666"
     pagecolor="#ffffff"
     id="base"
     width="48px"
     height="48px"
     showgrid="true"
     inkscape:zoom="8.8000002"
     inkscape:cx="10.289048"
     inkscape:cy="6.4140177"
     inkscape:window-x="0"
     inkscape:window-y="0"
     inkscape:current-layer="svg2"
     inkscape:window-maximized="1" />
  <defs
     id="defs4">
    <linearGradient
       id="linearGradient3655">
      <stop
         style="stop-color:white;stop-opacity:1"
         offset="0"
         id="stop3657" />
      <stop
         style="stop-color:white;stop-opacity:0"
         offset="1"
         id="stop3659" />
    </linearGradient>
    <linearGradient
       x1="108.11752"
       y1="16.246464"
       x2="108.97424"
       y2="24.144896"
       id="linearGradient1969"
       xlink:href="#linearGradient3655"
       gradientUnits="userSpaceOnUse"
       gradientTransform="matrix(0,-1,1,0,-4.523091,226.3445)" />
    <linearGradient
       x1="108.11752"
       y1="16.246464"
       x2="108.97424"
       y2="24.144896"
       id="linearGradient1971"
       xlink:href="#linearGradient3655"
       gradientUnits="userSpaceOnUse"
       gradientTransform="matrix(0,1,-1,0,220.9148,-49.35703)" />
    <linearGradient
       x1="108.11752"
       y1="16.246464"
       x2="108.97424"
       y2="24.144896"
       id="linearGradient1973"
       xlink:href="#linearGradient3655"
       gradientUnits="userSpaceOnUse" />
    <linearGradient
       x1="108.11752"
       y1="16.246464"
       x2="108.97424"
       y2="24.144896"
       id="linearGradient1975"
       xlink:href="#linearGradient3655"
       gradientUnits="userSpaceOnUse"
       gradientTransform="matrix(-1,0,0,-1,216.0238,177.6105)" />
  </defs>
  <g
     id="g3884"
     style="stroke:#ffffff;stroke-width:8;stroke-miterlimit:4;stroke-opacity:1;stroke-dasharray:none;stroke-linejoin:round;stroke-linecap:round"
     transform="translate(0,-0.22355052)">
    <g
       transform="matrix(1.0177091,0,0,1.0177091,-0.67857462,-1.0344766)"
       id="g3886"
       style="stroke:#ffffff;stroke-width:9.82599055000000021;stroke-miterlimit:4;stroke-opacity:1;stroke-dasharray:none;stroke-linejoin:round;stroke-linecap:round">
      <rect
         style="fill:#000000;fill-opacity:1;stroke:#ffffff;stroke-width:9.82599055000000021;stroke-linecap:round;stroke-linejoin:round;stroke-miterlimit:4;stroke-opacity:1;stroke-dasharray:none"
         x="-40.113483"
         y="9.3195877"
         width="32.39262"
         height="28.982872"
         transform="matrix(0,-1,1,0,0,0)"
         id="rect3888" />
      <rect
         x="-38.441856"
         y="11.038612"
         width="3.3297057"
         height="2.4795699"
         ry="0.73469877"
         transform="matrix(0,-1,1,0,0,0)"
         style="fill:#ffffff;fill-opacity:1;stroke:#ffffff;stroke-width:9.82599055000000021;stroke-miterlimit:4;stroke-opacity:1;stroke-dasharray:none;stroke-linejoin:round;stroke-linecap:round"
         id="rect3890" />
      <use
         style="fill:#ffffff;fill-opacity:1;stroke:#ffffff;stroke-width:9.82599055000000021;stroke-miterlimit:4;stroke-opacity:1;stroke-dasharray:none;stroke-linejoin:round;stroke-linecap:round"
         x="0"
         y="0"
         width="48"
         height="48"
         transform="translate(-0.01412914,-5.1482105)"
         xlink:href="#rect5113"
         id="use3892" />
      <use
         style="fill:#ffffff;fill-opacity:1;stroke:#ffffff;stroke-width:9.82599055000000021;stroke-miterlimit:4;stroke-opacity:1;stroke-dasharray:none;stroke-linejoin:round;stroke-linecap:round"
         x="0"
         y="0"
         width="48"
         height="48"
         transform="translate(-0.01412914,-10.262494)"
         xlink:href="#rect5113"
         id="use3894" />
      <use
         style="fill:#ffffff;fill-opacity:1;stroke:#ffffff;stroke-width:9.82599055000000021;stroke-miterlimit:4;stroke-opacity:1;stroke-dasharray:none;stroke-linejoin:round;stroke-linecap:round"
         x="0"
         y="0"
         width="48"
         height="48"
         transform="translate(-0.01412914,-15.377119)"
         xlink:href="#rect5113"
         id="use3896" />
      <use
         style="fill:#ffffff;fill-opacity:1;stroke:#ffffff;stroke-width:9.82599055000000021;stroke-miterlimit:4;stroke-opacity:1;stroke-dasharray:none;stroke-linejoin:round;stroke-linecap:round"
         x="0"
         y="0"
         width="48"
         height="48"
         transform="translate(-0.01412914,-20.571872)"
         xlink:href="#rect5113"
         id="use3898" />
      <use
         style="fill:#ffffff;fill-opacity:1;stroke:#ffffff;stroke-width:9.82599055000000021;stroke-miterlimit:4;stroke-opacity:1;stroke-dasharray:none;stroke-linejoin:round;stroke-linecap:round"
         x="0"
         y="0"
         width="48"
         height="48"
         transform="translate(-0.01412914,-25.686497)"
         xlink:href="#rect5113"
         id="use3900" />
      <use
         x="0"
         y="0"
         width="48"
         height="48"
         transform="translate(23.079743,-0.03359712)"
         xlink:href="#rect5113"
         id="use3902"
         style="fill:#ffffff;fill-opacity:1;stroke:#ffffff;stroke-width:9.82599055000000021;stroke-miterlimit:4;stroke-opacity:1;stroke-dasharray:none;stroke-linejoin:round;stroke-linecap:round" />
      <use
         x="0"
         y="0"
         width="48"
         height="48"
         transform="translate(23.001319,-5.1482105)"
         xlink:href="#rect5113"
         id="use3904"
         style="fill:#ffffff;fill-opacity:1;stroke:#ffffff;stroke-width:9.82599055000000021;stroke-miterlimit:4;stroke-opacity:1;stroke-dasharray:none;stroke-linejoin:round;stroke-linecap:round" />
      <use
         x="0"
         y="0"
         width="48"
         height="48"
         transform="translate(23.001319,-10.262494)"
         xlink:href="#rect5113"
         id="use3906"
         style="fill:#ffffff;fill-opacity:1;stroke:#ffffff;stroke-width:9.82599055000000021;stroke-miterlimit:4;stroke-opacity:1;stroke-dasharray:none;stroke-linejoin:round;stroke-linecap:round" />
      <use
         x="0"
         y="0"
         width="48"
         height="48"
         transform="translate(23.079743,-15.457248)"
         xlink:href="#rect5113"
         id="use3908"
         style="fill:#ffffff;fill-opacity:1;stroke:#ffffff;stroke-width:9.82599055000000021;stroke-miterlimit:4;stroke-opacity:1;stroke-dasharray:none;stroke-linejoin:round;stroke-linecap:round" />
      <use
         x="0"
         y="0"
         width="48"
         height="48"
         transform="translate(23.079743,-20.571872)"
         xlink:href="#rect5113"
         id="use3910"
         style="fill:#ffffff;fill-opacity:1;stroke:#ffffff;stroke-width:9.82599055000000021;stroke-miterlimit:4;stroke-opacity:1;stroke-dasharray:none;stroke-linejoin:round;stroke-linecap:round" />
      <use
         x="0"
         y="0"
         width="48"
         height="48"
         transform="translate(23.001319,-25.686497)"
         xlink:href="#rect5113"
         id="use3912"
         style="fill:#ffffff;fill-opacity:1;stroke:#ffffff;stroke-width:9.82599055000000021;stroke-miterlimit:4;stroke-opacity:1;stroke-dasharray:none;stroke-linejoin:round;stroke-linecap:round" />
      <rect
         x="15.286649"
         y="25.622047"
         width="17.048748"
         height="12.729447"
         ry="1.3187207"
         rx="1.255896"
         style="fill:#ffffff;fill-opacity:1;stroke:#ffffff;stroke-width:9.82599055000000021;stroke-miterlimit:4;stroke-opacity:1;stroke-dasharray:none;stroke-linejoin:round;stroke-linecap:round"
         id="rect3914" />
      <rect
         x="15.286649"
         y="9.4825935"
         width="17.048748"
         height="12.729447"
         ry="1.3187207"
         rx="1.255896"
         style="fill:#ffffff;fill-opacity:1;stroke:#ffffff;stroke-width:9.82599055000000021;stroke-miterlimit:4;stroke-opacity:1;stroke-dasharray:none;stroke-linejoin:round;stroke-linecap:round"
         id="rect3916" />
    </g>
    <path
       sodipodi:type="arc"
       style="fill:#ffffff;fill-opacity:1;stroke:#ffffff;stroke-width:5.25190830000000020;stroke-miterlimit:4;stroke-opacity:1;stroke-dasharray:none;stroke-linejoin:round;stroke-linecap:round"
       id="path3918"
       sodipodi:cx="29.090908"
       sodipodi:cy="32.090908"
       sodipodi:rx="4.8863635"
       sodipodi:ry="4.8863635"
       d="m 33.977272,32.090908 c 0,2.698664 -2.1877,4.886364 -4.886364,4.886364 -2.698664,0 -4.886363,-2.1877 -4.886363,-4.886364 0,-2.698664 2.187699,-4.886363 4.886363,-4.886363 2.698664,0 4.886364,2.187699 4.886364,4.886363 z"
       transform="matrix(1.5232558,0,0,1.5232558,-11.187896,-13.439482)" />
    <g
       id="g3920"
       transform="matrix(0.17918475,0,0,0.18115615,4.7519029,9.0962967)"
       style="stroke:#ffffff;stroke-width:44.40306091000000066;stroke-miterlimit:4;stroke-opacity:1;stroke-dasharray:none;stroke-linejoin:round;stroke-linecap:round">
      <g
         id="g3922"
         style="stroke:#ffffff;stroke-width:44.40306091000000066;stroke-miterlimit:4;stroke-opacity:1;stroke-dasharray:none;stroke-linejoin:round;stroke-linecap:round">
        <g
           transform="matrix(1,0,0,0.930282,0,0.766728)"
           id="g3924"
           style="stroke:#ffffff;stroke-width:46.03684997999999950;stroke-miterlimit:4;stroke-opacity:1;stroke-dasharray:none;stroke-linejoin:round;stroke-linecap:round">
          <g
             id="g3926"
             style="stroke:#ffffff;stroke-width:46.03684997999999950;stroke-miterlimit:4;stroke-opacity:1;stroke-dasharray:none;stroke-linejoin:round;stroke-linecap:round" />
          <g
             id="g3928"
             style="stroke:#ffffff;stroke-width:46.03684997999999950;stroke-miterlimit:4;stroke-opacity:1;stroke-dasharray:none;stroke-linejoin:round;stroke-linecap:round" />
        </g>
        <g
           id="g3930"
           style="stroke:#ffffff;stroke-width:44.40306091000000066;stroke-miterlimit:4;stroke-opacity:1;stroke-dasharray:none;stroke-linejoin:round;stroke-linecap:round">
          <g
             id="g3932"
             style="stroke:#ffffff;stroke-width:44.40306091000000066;stroke-miterlimit:4;stroke-opacity:1;stroke-dasharray:none;stroke-linejoin:round;stroke-linecap:round" />
        </g>
        <g
           transform="translate(0,-10)"
           id="g3934"
           style="stroke:#ffffff;stroke-width:44.40306091000000066;stroke-miterlimit:4;stroke-opacity:1;stroke-dasharray:none;stroke-linejoin:round;stroke-linecap:round">
          <path
             d="m 140.95734,128.20425 49.17835,28.5036 -49.26786,26.98876 0.0895,-55.49236 z"
             style="fill:#000000;fill-opacity:1;fill-rule:evenodd;stroke:#ffffff;stroke-width:44.40306091000000066;stroke-miterlimit:4;stroke-opacity:1;stroke-dasharray:none;stroke-linejoin:round;stroke-linecap:round"
             id="path3936"
             inkscape:connector-curvature="0" />
        </g>
      </g>
    </g>
    <path
       style="color:#000000;fill:#000000;fill-opacity:1;fill-rule:nonzero;stroke:#ffffff;stroke-width:6;stroke-miterlimit:4;stroke-opacity:1;stroke-dasharray:none;marker:none;visibility:visible;display:inline;overflow:visible;stroke-linejoin:round;stroke-linecap:round"
       d="m 32.90531,26.594848 c -4.761623,0.0021 -8.641959,3.929946 -8.679261,8.746444 -1.78e-4,0.02287 -0.0056,0.04503 -0.0056,0.06793 -1.7e-5,0.0038 -1.7e-5,0.0075 0,0.01132 -4e-6,0.0019 -4e-6,0.0038 0,0.0056 1.7e-4,0.03781 0.0021,0.07559 0.0056,0.113223 0.07098,4.795565 3.949435,8.691916 8.696059,8.684174 4.784223,-0.0078 8.678544,-3.977898 8.673662,-8.825701 -0.0048,-4.847805 -3.906232,-8.80518 -8.69046,-8.803056 z m 0,2.496558 c 3.444524,-0.0015 6.217541,2.808319 6.221069,6.312159 0.0035,3.503839 -2.759749,6.317862 -6.204271,6.323482 -3.444523,0.0056 -6.2247,-2.802668 -6.23227,-6.306498 1.8e-5,-0.0038 1.8e-5,-0.0075 0,-0.01132 5.11e-4,-3.50384 2.770948,-6.316292 6.215472,-6.31782 z"
       id="path3938"
       inkscape:connector-curvature="0" />
  </g>
  <g
     id="g3855"
     transform="translate(0,-0.22355052)">
    <g
       id="g3138"
       transform="matrix(1.0177091,0,0,1.0177091,-0.67857462,-1.0344766)">
      <rect
         id="rect2176"
         transform="matrix(0,-1,1,0,0,0)"
         height="28.982872"
         width="32.39262"
         y="9.3195877"
         x="-40.113483"
         style="fill:#000000;fill-opacity:1;stroke:#000000;stroke-width:1.58405697;stroke-linecap:round;stroke-linejoin:round;stroke-miterlimit:4;stroke-opacity:1;stroke-dasharray:none" />
      <rect
         id="rect5113"
         style="fill:#ffffff;fill-opacity:1"
         transform="matrix(0,-1,1,0,0,0)"
         ry="0.73469877"
         height="2.4795699"
         width="3.3297057"
         y="11.038612"
         x="-38.441856" />
      <use
         id="use6084"
         xlink:href="#rect5113"
         transform="translate(-0.01412914,-5.1482105)"
         height="48"
         width="48"
         y="0"
         x="0"
         style="fill:#ffffff;fill-opacity:1" />
      <use
         id="use6086"
         xlink:href="#rect5113"
         transform="translate(-0.01412914,-10.262494)"
         height="48"
         width="48"
         y="0"
         x="0"
         style="fill:#ffffff;fill-opacity:1" />
      <use
         id="use6090"
         xlink:href="#rect5113"
         transform="translate(-0.01412914,-15.377119)"
         height="48"
         width="48"
         y="0"
         x="0"
         style="fill:#ffffff;fill-opacity:1" />
      <use
         id="use6092"
         xlink:href="#rect5113"
         transform="translate(-0.01412914,-20.571872)"
         height="48"
         width="48"
         y="0"
         x="0"
         style="fill:#ffffff;fill-opacity:1" />
      <use
         id="use6094"
         xlink:href="#rect5113"
         transform="translate(-0.01412914,-25.686497)"
         height="48"
         width="48"
         y="0"
         x="0"
         style="fill:#ffffff;fill-opacity:1" />
      <use
         style="fill:#ffffff;fill-opacity:1"
         id="use6098"
         xlink:href="#rect5113"
         transform="translate(23.079743,-0.03359712)"
         height="48"
         width="48"
         y="0"
         x="0" />
      <use
         style="fill:#ffffff;fill-opacity:1"
         id="use6100"
         xlink:href="#rect5113"
         transform="translate(23.001319,-5.1482105)"
         height="48"
         width="48"
         y="0"
         x="0" />
      <use
         style="fill:#ffffff;fill-opacity:1"
         id="use6102"
         xlink:href="#rect5113"
         transform="translate(23.001319,-10.262494)"
         height="48"
         width="48"
         y="0"
         x="0" />
      <use
         style="fill:#ffffff;fill-opacity:1"
         id="use6104"
         xlink:href="#rect5113"
         transform="translate(23.079743,-15.457248)"
         height="48"
         width="48"
         y="0"
         x="0" />
      <use
         style="fill:#ffffff;fill-opacity:1"
         id="use6106"
         xlink:href="#rect5113"
         transform="translate(23.079743,-20.571872)"
         height="48"
         width="48"
         y="0"
         x="0" />
      <use
         style="fill:#ffffff;fill-opacity:1"
         id="use6108"
         xlink:href="#rect5113"
         transform="translate(23.001319,-25.686497)"
         height="48"
         width="48"
         y="0"
         x="0" />
      <rect
         id="rect2188"
         style="fill:#ffffff;fill-opacity:1"
         rx="1.255896"
         ry="1.3187207"
         height="12.729447"
         width="17.048748"
         y="25.622047"
         x="15.286649" />
      <rect
         id="rect2190"
         style="fill:#ffffff;fill-opacity:1"
         rx="1.255896"
         ry="1.3187207"
         height="12.729447"
         width="17.048748"
         y="9.4825935"
         x="15.286649" />
    </g>
    <path
       transform="matrix(1.5232558,0,0,1.5232558,-11.187896,-13.439482)"
       d="m 33.977272,32.090908 c 0,2.698664 -2.1877,4.886364 -4.886364,4.886364 -2.698664,0 -4.886363,-2.1877 -4.886363,-4.886364 0,-2.698664 2.187699,-4.886363 4.886363,-4.886363 2.698664,0 4.886364,2.187699 4.886364,4.886363 z"
       sodipodi:ry="4.8863635"
       sodipodi:rx="4.8863635"
       sodipodi:cy="32.090908"
       sodipodi:cx="29.090908"
       id="path3853"
       style="fill:#ffffff;fill-opacity:1;stroke:none"
       sodipodi:type="arc" />
    <g
       transform="matrix(0.17918475,0,0,0.18115615,4.7519029,9.0962967)"
       id="layer1">
      <g
         id="g2020">
        <g
           id="g3763"
           transform="matrix(1,0,0,0.930282,0,0.766728)">
          <g
             id="g3758" />
          <g
             id="g3753" />
        </g>
        <g
           id="g2012">
          <g
             id="g2006" />
        </g>
        <g
           id="g3675"
           transform="translate(0,-10)">
          <path
             inkscape:connector-curvature="0"
             id="path6330"
             style="fill:#000000;fill-opacity:1;fill-rule:evenodd;stroke:none"
             d="m 140.95734,128.20425 49.17835,28.5036 -49.26786,26.98876 0.0895,-55.49236 z" />
        </g>
      </g>
    </g>
    <path
       inkscape:connector-curvature="0"
       id="path5443"
       d="m 32.90531,26.594848 c -4.761623,0.0021 -8.641959,3.929946 -8.679261,8.746444 -1.78e-4,0.02287 -0.0056,0.04503 -0.0056,0.06793 -1.7e-5,0.0038 -1.7e-5,0.0075 0,0.01132 -4e-6,0.0019 -4e-6,0.0038 0,0.0056 1.7e-4,0.03781 0.0021,0.07559 0.0056,0.113223 0.07098,4.795565 3.949435,8.691916 8.696059,8.684174 4.784223,-0.0078 8.678544,-3.977898 8.673662,-8.825701 -0.0048,-4.847805 -3.906232,-8.80518 -8.69046,-8.803056 z m 0,2.496558 c 3.444524,-0.0015 6.217541,2.808319 6.221069,6.312159 0.0035,3.503839 -2.759749,6.317862 -6.204271,6.323482 -3.444523,0.0056 -6.2247,-2.802668 -6.23227,-6.306498 1.8e-5,-0.0038 1.8e-5,-0.0075 0,-0.01132 5.11e-4,-3.50384 2.770948,-6.316292 6.215472,-6.31782 z"
       style="color:#000000;fill:#000000;fill-opacity:1;fill-rule:nonzero;stroke:none;stroke-width:13.78605175;marker:none;visibility:visible;display:inline;overflow:visible" />
  </g>
</svg>
