<?xml version="1.0" encoding="UTF-8" standalone="no"?>
<!-- Created with Inkscape (http://www.inkscape.org/) -->

<svg
   xmlns:dc="http://purl.org/dc/elements/1.1/"
   xmlns:cc="http://creativecommons.org/ns#"
   xmlns:rdf="http://www.w3.org/1999/02/22-rdf-syntax-ns#"
   xmlns:svg="http://www.w3.org/2000/svg"
   xmlns="http://www.w3.org/2000/svg"
   xmlns:xlink="http://www.w3.org/1999/xlink"
   xmlns:sodipodi="http://sodipodi.sourceforge.net/DTD/sodipodi-0.dtd"
   xmlns:inkscape="http://www.inkscape.org/namespaces/inkscape"
   id="svg2"
   sodipodi:version="0.32"
   inkscape:version="0.48.3.1 r9886"
   width="48"
   height="48"
   version="1.0"
   sodipodi:docname="Gnumeric.svg"
   inkscape:export-filename="/home/vinicius/tango-icon-theme/gnumeric-more-changes2.png"
   inkscape:export-xdpi="90"
   inkscape:export-ydpi="90">
  <metadata
     id="metadata7">
    <rdf:RDF>
      <cc:Work
         rdf:about="">
        <dc:format>image/svg+xml</dc:format>
        <dc:type
           rdf:resource="http://purl.org/dc/dcmitype/StillImage" />
      </cc:Work>
    </rdf:RDF>
  </metadata>
  <defs
     id="defs5">
    <linearGradient
       id="linearGradient3390">
      <stop
         style="stop-color:#000000;stop-opacity:0.06837607;"
         offset="0"
         id="stop3392" />
      <stop
         style="stop-color:#000000;stop-opacity:0.21367522;"
         offset="1"
         id="stop3394" />
    </linearGradient>
    <linearGradient
       id="linearGradient49060">
      <stop
         style="stop-color:#d3d7cf;stop-opacity:1;"
         offset="0"
         id="stop49062" />
      <stop
         style="stop-color:#ffffff;stop-opacity:1;"
         offset="1"
         id="stop49064" />
    </linearGradient>
    <linearGradient
       id="linearGradient27602">
      <stop
         style="stop-color:#dbdbd5;stop-opacity:1;"
         offset="0"
         id="stop27604" />
      <stop
         style="stop-color:#f1f1f0;stop-opacity:1;"
         offset="1"
         id="stop27606" />
    </linearGradient>
    <linearGradient
       inkscape:collect="always"
       id="linearGradient25805">
      <stop
         style="stop-color:#000000;stop-opacity:1;"
         offset="0"
         id="stop25807" />
      <stop
         style="stop-color:#000000;stop-opacity:0;"
         offset="1"
         id="stop25809" />
    </linearGradient>
    <linearGradient
       id="linearGradient24047">
      <stop
         style="stop-color:#c4f197;stop-opacity:1;"
         offset="0"
         id="stop24049" />
      <stop
         style="stop-color:#74d218;stop-opacity:1;"
         offset="1"
         id="stop24051" />
    </linearGradient>
    <linearGradient
       id="linearGradient18786">
      <stop
         style="stop-color:#3465a4;stop-opacity:1;"
         offset="0"
         id="stop18788" />
      <stop
         style="stop-color:#729fcf;stop-opacity:1;"
         offset="1"
         id="stop18790" />
    </linearGradient>
    <linearGradient
       inkscape:collect="always"
       id="linearGradient16147">
      <stop
         style="stop-color:#ffffff;stop-opacity:1;"
         offset="0"
         id="stop16149" />
      <stop
         style="stop-color:#ffffff;stop-opacity:0;"
         offset="1"
         id="stop16151" />
    </linearGradient>
    <linearGradient
       id="linearGradient9948">
      <stop
         style="stop-color:#ff7171;stop-opacity:1;"
         offset="0"
         id="stop9950" />
      <stop
         style="stop-color:#dc2525;stop-opacity:1;"
         offset="1"
         id="stop9952" />
    </linearGradient>
    <linearGradient
       id="linearGradient15662">
      <stop
         style="stop-color:#ffffff;stop-opacity:1.0000000;"
         offset="0.0000000"
         id="stop15664" />
      <stop
         style="stop-color:#f8f8f8;stop-opacity:1.0000000;"
         offset="1.0000000"
         id="stop15666" />
    </linearGradient>
    <linearGradient
       id="linearGradient259">
      <stop
         style="stop-color:#fafafa;stop-opacity:1.0000000;"
         offset="0.0000000"
         id="stop260" />
      <stop
         style="stop-color:#bbbbbb;stop-opacity:1.0000000;"
         offset="1.0000000"
         id="stop261" />
    </linearGradient>
    <linearGradient
       id="linearGradient269">
      <stop
         style="stop-color:#a3a3a3;stop-opacity:1.0000000;"
         offset="0.0000000"
         id="stop270" />
      <stop
         style="stop-color:#4c4c4c;stop-opacity:1.0000000;"
         offset="1.0000000"
         id="stop271" />
    </linearGradient>
    <linearGradient
       id="linearGradient6699">
      <stop
         id="stop6701"
         offset="0.0000000"
         style="stop-color:#ff7171;stop-opacity:1.0000000;" />
      <stop
         id="stop6703"
         offset="1.0000000"
         style="stop-color:#cc0000;stop-opacity:1.0000000;" />
    </linearGradient>
    <linearGradient
       id="linearGradient6711">
      <stop
         id="stop6713"
         offset="0.0000000"
         style="stop-color:#5b8ccb;stop-opacity:1.0000000;" />
      <stop
         id="stop6715"
         offset="1.0000000"
         style="stop-color:#3465a4;stop-opacity:1.0000000;" />
    </linearGradient>
    <linearGradient
       id="linearGradient6719">
      <stop
         id="stop6721"
         offset="0"
         style="stop-color:#73d216;stop-opacity:1;" />
      <stop
         id="stop6723"
         offset="1.0000000"
         style="stop-color:#d5f7b3;stop-opacity:1.0000000;" />
    </linearGradient>
    <linearGradient
       id="linearGradient5048">
      <stop
         id="stop5050"
         offset="0"
         style="stop-color:black;stop-opacity:0;" />
      <stop
         style="stop-color:black;stop-opacity:1;"
         offset="0.5"
         id="stop5056" />
      <stop
         id="stop5052"
         offset="1"
         style="stop-color:black;stop-opacity:0;" />
    </linearGradient>
    <linearGradient
       inkscape:collect="always"
       xlink:href="#linearGradient27602"
       id="linearGradient27608"
       x1="11.91892"
       y1="42.020477"
       x2="11.91892"
       y2="6.9827476"
       gradientUnits="userSpaceOnUse"
       gradientTransform="matrix(1.165816,0,0,1.171702,-81.74455,-4.189481)" />
    <linearGradient
       inkscape:collect="always"
       xlink:href="#linearGradient27602"
       id="linearGradient32966"
       gradientUnits="userSpaceOnUse"
       x1="11.91892"
       y1="42.020477"
       x2="11.91892"
       y2="6.9827476"
       gradientTransform="translate(0,80)" />
    <radialGradient
       inkscape:collect="always"
       xlink:href="#linearGradient25805"
       id="radialGradient32968"
       gradientUnits="userSpaceOnUse"
       cx="-74.011093"
       cy="38.890942"
       fx="-74.011093"
       fy="38.890942"
       r="13.663586" />
    <linearGradient
       inkscape:collect="always"
       xlink:href="#linearGradient16147"
       id="linearGradient32970"
       gradientUnits="userSpaceOnUse"
       x1="-49.994148"
       y1="37.036499"
       x2="-49.994148"
       y2="17.857203" />
    <linearGradient
       inkscape:collect="always"
       xlink:href="#linearGradient9948"
       id="linearGradient32972"
       gradientUnits="userSpaceOnUse"
       x1="-54.102783"
       y1="20.457878"
       x2="-49.994148"
       y2="33.543365" />
    <linearGradient
       inkscape:collect="always"
       xlink:href="#linearGradient18786"
       id="linearGradient32974"
       gradientUnits="userSpaceOnUse"
       x1="-9.2566376"
       y1="55.832943"
       x2="-16.605392"
       y2="48.589474" />
    <linearGradient
       inkscape:collect="always"
       xlink:href="#linearGradient24047"
       id="linearGradient32976"
       gradientUnits="userSpaceOnUse"
       x1="-18.079882"
       y1="48.66568"
       x2="-18.5"
       y2="56.827778" />
    <linearGradient
       inkscape:collect="always"
       xlink:href="#linearGradient16147"
       id="linearGradient32978"
       gradientUnits="userSpaceOnUse"
       x1="-49.994148"
       y1="37.036499"
       x2="-49.994148"
       y2="17.857203" />
    <radialGradient
       inkscape:collect="always"
       xlink:href="#linearGradient25805"
       id="radialGradient35704"
       gradientUnits="userSpaceOnUse"
       cx="-74.011093"
       cy="38.890942"
       fx="-74.011093"
       fy="38.890942"
       r="13.663586" />
    <linearGradient
       inkscape:collect="always"
       xlink:href="#linearGradient16147"
       id="linearGradient35706"
       gradientUnits="userSpaceOnUse"
       gradientTransform="matrix(1.539443,0,0,1.510871,100.9656,-15.18319)"
       x1="-49.994148"
       y1="37.036499"
       x2="-49.994148"
       y2="17.857203" />
    <linearGradient
       inkscape:collect="always"
       xlink:href="#linearGradient9948"
       id="linearGradient35708"
       gradientUnits="userSpaceOnUse"
       x1="-54.102783"
       y1="20.457878"
       x2="-49.994148"
       y2="33.543365" />
    <linearGradient
       inkscape:collect="always"
       xlink:href="#linearGradient18786"
       id="linearGradient35710"
       gradientUnits="userSpaceOnUse"
       gradientTransform="matrix(1.389365,0,0,1.389365,48.99029,-46.20405)"
       x1="-9.2566376"
       y1="55.832943"
       x2="-16.605392"
       y2="48.589474" />
    <linearGradient
       inkscape:collect="always"
       xlink:href="#linearGradient24047"
       id="linearGradient35712"
       gradientUnits="userSpaceOnUse"
       gradientTransform="matrix(1.389365,0,0,1.389365,48.99029,-46.20405)"
       x1="-18.079882"
       y1="48.66568"
       x2="-18.5"
       y2="56.827778" />
    <linearGradient
       inkscape:collect="always"
       xlink:href="#linearGradient16147"
       id="linearGradient35714"
       gradientUnits="userSpaceOnUse"
       x1="-49.994148"
       y1="37.036499"
       x2="-49.994148"
       y2="17.857203" />
    <radialGradient
       inkscape:collect="always"
       xlink:href="#linearGradient25805"
       id="radialGradient41049"
       gradientUnits="userSpaceOnUse"
       cx="-74.011093"
       cy="38.890942"
       fx="-74.011093"
       fy="38.890942"
       r="13.663586" />
    <linearGradient
       inkscape:collect="always"
       xlink:href="#linearGradient16147"
       id="linearGradient41051"
       gradientUnits="userSpaceOnUse"
       x1="-49.994148"
       y1="37.036499"
       x2="-49.994148"
       y2="17.857203" />
    <linearGradient
       inkscape:collect="always"
       xlink:href="#linearGradient9948"
       id="linearGradient41053"
       gradientUnits="userSpaceOnUse"
       x1="-54.102783"
       y1="20.457878"
       x2="-49.994148"
       y2="33.543365" />
    <linearGradient
       inkscape:collect="always"
       xlink:href="#linearGradient18786"
       id="linearGradient41055"
       gradientUnits="userSpaceOnUse"
       x1="-9.2566376"
       y1="55.832943"
       x2="-16.605392"
       y2="48.589474" />
    <linearGradient
       inkscape:collect="always"
       xlink:href="#linearGradient24047"
       id="linearGradient41057"
       gradientUnits="userSpaceOnUse"
       x1="-18.079882"
       y1="48.66568"
       x2="-18.5"
       y2="56.827778" />
    <linearGradient
       inkscape:collect="always"
       xlink:href="#linearGradient16147"
       id="linearGradient41059"
       gradientUnits="userSpaceOnUse"
       x1="-49.994148"
       y1="37.036499"
       x2="-49.994148"
       y2="17.857203" />
    <radialGradient
       inkscape:collect="always"
       xlink:href="#linearGradient25805"
       id="radialGradient41143"
       gradientUnits="userSpaceOnUse"
       cx="-74.011093"
       cy="38.890942"
       fx="-74.011093"
       fy="38.890942"
       r="13.663586" />
    <linearGradient
       inkscape:collect="always"
       xlink:href="#linearGradient16147"
       id="linearGradient41145"
       gradientUnits="userSpaceOnUse"
       x1="-49.994148"
       y1="37.036499"
       x2="-49.994148"
       y2="17.857203" />
    <linearGradient
       inkscape:collect="always"
       xlink:href="#linearGradient9948"
       id="linearGradient41147"
       gradientUnits="userSpaceOnUse"
       x1="-54.102783"
       y1="20.457878"
       x2="-49.994148"
       y2="33.543365" />
    <linearGradient
       inkscape:collect="always"
       xlink:href="#linearGradient18786"
       id="linearGradient41149"
       gradientUnits="userSpaceOnUse"
       x1="-9.2566376"
       y1="55.832943"
       x2="-16.605392"
       y2="48.589474" />
    <linearGradient
       inkscape:collect="always"
       xlink:href="#linearGradient24047"
       id="linearGradient41151"
       gradientUnits="userSpaceOnUse"
       x1="-18.079882"
       y1="48.66568"
       x2="-18.5"
       y2="56.827778" />
    <linearGradient
       inkscape:collect="always"
       xlink:href="#linearGradient16147"
       id="linearGradient41153"
       gradientUnits="userSpaceOnUse"
       x1="-49.994148"
       y1="37.036499"
       x2="-49.994148"
       y2="17.857203" />
    <linearGradient
       inkscape:collect="always"
       xlink:href="#linearGradient27602"
       id="linearGradient49066"
       x1="24.497015"
       y1="43.012909"
       x2="24.497015"
       y2="5.9870172"
       gradientUnits="userSpaceOnUse"
       gradientTransform="matrix(1.047006,0,0,1.053696,-1.154366,-1.30885)" />
    <radialGradient
       r="17.576654"
       fy="35.373093"
       fx="22.930462"
       cy="35.373093"
       cx="22.930462"
       gradientTransform="matrix(1.000000,0.000000,0.000000,0.333333,2.658463e-16,23.58206)"
       gradientUnits="userSpaceOnUse"
       id="radialGradient2252"
       xlink:href="#linearGradient4946"
       inkscape:collect="always" />
    <linearGradient
       id="linearGradient4182">
      <stop
         style="stop-color:#a36d18;stop-opacity:1.0000000;"
         offset="0.0000000"
         id="stop4184" />
      <stop
         style="stop-color:#d79020;stop-opacity:1.0000000;"
         offset="1.0000000"
         id="stop4186" />
    </linearGradient>
    <linearGradient
       id="linearGradient4192">
      <stop
         style="stop-color:#e9b96e;stop-opacity:1;"
         offset="0"
         id="stop4194" />
      <stop
         style="stop-color:#f1d19e;stop-opacity:1.0000000;"
         offset="1.0000000"
         id="stop4196" />
    </linearGradient>
    <linearGradient
       id="linearGradient4210">
      <stop
         style="stop-color:#eaba6f;stop-opacity:1.0000000;"
         offset="0.0000000"
         id="stop4212" />
      <stop
         style="stop-color:#b97a1b;stop-opacity:1.0000000;"
         offset="1.0000000"
         id="stop4214" />
    </linearGradient>
    <linearGradient
       id="linearGradient4222">
      <stop
         style="stop-color:#ffffff;stop-opacity:1;"
         offset="0"
         id="stop4224" />
      <stop
         style="stop-color:#ffffff;stop-opacity:0.68639052;"
         offset="1.0000000"
         id="stop4226" />
    </linearGradient>
    <linearGradient
       inkscape:collect="always"
       id="linearGradient4946">
      <stop
         style="stop-color:#000000;stop-opacity:1;"
         offset="0"
         id="stop4948" />
      <stop
         style="stop-color:#000000;stop-opacity:0;"
         offset="1"
         id="stop4950" />
    </linearGradient>
    <linearGradient
       id="linearGradient4979">
      <stop
         style="stop-color:#fbf0e0;stop-opacity:1.0000000;"
         offset="0.0000000"
         id="stop4981" />
      <stop
         style="stop-color:#f0ce99;stop-opacity:1.0000000;"
         offset="1.0000000"
         id="stop4983" />
    </linearGradient>
    <linearGradient
       id="linearGradient4995">
      <stop
         style="stop-color:#de9523;stop-opacity:1;"
         offset="0"
         id="stop4997" />
      <stop
         style="stop-color:#a36d18;stop-opacity:1.0000000;"
         offset="1.0000000"
         id="stop4999" />
    </linearGradient>
    <linearGradient
       id="linearGradient2869">
      <stop
         id="stop2871"
         offset="0"
         style="stop-color:#ffffff;stop-opacity:1;" />
      <stop
         id="stop2873"
         offset="1.0000000"
         style="stop-color:#cccccc;stop-opacity:1.0000000;" />
    </linearGradient>
    <linearGradient
       id="linearGradient51142">
      <stop
         id="stop51144"
         offset="0"
         style="stop-color:black;stop-opacity:0;" />
      <stop
         style="stop-color:black;stop-opacity:1;"
         offset="0.5"
         id="stop51146" />
      <stop
         id="stop51148"
         offset="1"
         style="stop-color:black;stop-opacity:0;" />
    </linearGradient>
    <linearGradient
       inkscape:collect="always"
       xlink:href="#linearGradient16147"
       id="linearGradient4018"
       gradientUnits="userSpaceOnUse"
       x1="-49.994148"
       y1="37.036499"
       x2="-49.994148"
       y2="17.857203" />
  </defs>
  <sodipodi:namedview
     inkscape:window-height="720"
     inkscape:window-width="1024"
     inkscape:pageshadow="2"
     inkscape:pageopacity="0.0"
     borderopacity="1.0"
     bordercolor="#666666"
     pagecolor="#ffffff"
     id="base"
     showgrid="false"
     showguides="true"
     inkscape:guide-bbox="true"
     fill="#888a85"
     inkscape:zoom="5.6568542"
     inkscape:cx="7.5455437"
     inkscape:cy="10.984075"
     inkscape:window-x="0"
     inkscape:window-y="0"
     inkscape:current-layer="g4047"
     showborder="false"
     inkscape:showpageshadow="false"
     inkscape:window-maximized="0" />
  <g
     transform="translate(50.0786,-18.09148)"
     id="g6010">
    <g
       id="g3988"
       transform="matrix(0.83082498,0,0,0.83082498,-4.7996599,7.0758219)">
      <g
         id="g4047"
         style="stroke:#ffffff;stroke-width:14.44347477;stroke-miterlimit:4;stroke-opacity:1;stroke-dasharray:none"
         transform="matrix(0.98305867,0,0,1.0026689,-0.85972078,-0.11491902)">
        <rect
           transform="translate(-50.0786,18.09148)"
           style="fill:#ffffff;fill-opacity:1;fill-rule:nonzero;stroke:#ffffff;stroke-width:14.44347477;stroke-linecap:round;stroke-linejoin:round;stroke-miterlimit:4;stroke-opacity:1;stroke-dasharray:none;stroke-dashoffset:0"
           id="rect4049"
           width="34.106079"
           height="37.960339"
           x="2.394321"
           y="5.526494"
           ry="2.891494"
           rx="2.891494" />
        <g
           transform="translate(-49.7786,18.09148)"
           id="g4051"
           style="stroke:#ffffff;stroke-width:14.44347477;stroke-miterlimit:4;stroke-opacity:1;stroke-dasharray:none">
          <path
             inkscape:connector-curvature="0"
             d="m 8.5424299,11.027281 c 0,27.621289 0,27.621289 0,27.621289"
             id="path4053"
             style="fill:none;stroke:#ffffff;stroke-width:14.44347477;stroke-linecap:butt;stroke-linejoin:miter;stroke-miterlimit:4;stroke-opacity:1;stroke-dasharray:none" />
          <path
             inkscape:connector-curvature="0"
             d="m 15.64643,11.027281 c 0,27.621289 0,27.621289 0,27.621289"
             id="path4055"
             style="fill:none;stroke:#ffffff;stroke-width:14.44347477;stroke-linecap:butt;stroke-linejoin:miter;stroke-miterlimit:4;stroke-opacity:1;stroke-dasharray:none" />
          <path
             inkscape:connector-curvature="0"
             d="m 22.91143,11.027281 c 0,27.621289 0,27.621289 0,27.621289"
             id="path4057"
             style="fill:none;stroke:#ffffff;stroke-width:14.44347477;stroke-linecap:butt;stroke-linejoin:miter;stroke-miterlimit:4;stroke-opacity:1;stroke-dasharray:none" />
          <path
             inkscape:connector-curvature="0"
             d="m 29.563267,11.027281 c 0,27.621289 0,27.621289 0,27.621289"
             id="path4059"
             style="fill:none;stroke:#ffffff;stroke-width:14.44347477;stroke-linecap:butt;stroke-linejoin:miter;stroke-miterlimit:4;stroke-opacity:1;stroke-dasharray:none" />
          <path
             inkscape:connector-curvature="0"
             d="m 7.3514299,33.75657 c 21.6370811,0 21.6370811,0 21.6370811,0"
             id="path4061"
             style="fill:none;stroke:#ffffff;stroke-width:14.44347477;stroke-linecap:butt;stroke-linejoin:miter;stroke-miterlimit:4;stroke-opacity:1;stroke-dasharray:none" />
          <path
             inkscape:connector-curvature="0"
             d="m 7.4151987,28.25457 c 21.6370803,0 21.6370803,0 21.6370803,0"
             id="path4063"
             style="fill:none;stroke:#ffffff;stroke-width:14.44347477;stroke-linecap:butt;stroke-linejoin:miter;stroke-miterlimit:4;stroke-opacity:1;stroke-dasharray:none" />
          <path
             inkscape:connector-curvature="0"
             d="m 7.4151987,22.979611 c 21.6370803,0 21.6370803,0 21.6370803,0"
             id="path4065"
             style="fill:none;stroke:#ffffff;stroke-width:14.44347477;stroke-linecap:butt;stroke-linejoin:miter;stroke-miterlimit:4;stroke-opacity:1;stroke-dasharray:none" />
          <path
             inkscape:connector-curvature="0"
             d="m 8.0114902,17.73157 c 21.6370798,0 21.6370798,0 21.6370798,0"
             id="path4067"
             style="fill:none;stroke:#ffffff;stroke-width:14.44347477;stroke-linecap:butt;stroke-linejoin:miter;stroke-miterlimit:4;stroke-opacity:1;stroke-dasharray:none" />
          <path
             style="fill:none;stroke:#ffffff;stroke-width:14.44347477;stroke-linecap:butt;stroke-linejoin:miter;stroke-miterlimit:4;stroke-opacity:1;stroke-dasharray:none"
             id="path4069"
             d="m 8.0114902,12.38857 c 21.6370798,0 21.6370798,0 21.6370798,0"
             inkscape:connector-curvature="0" />
          <path
             style="fill:#000000;fill-opacity:0.35294118;stroke:#ffffff;stroke-width:14.44347477;stroke-linecap:round;stroke-linejoin:round;stroke-miterlimit:4;stroke-opacity:1;stroke-dasharray:none"
             d="m 24.193737,13.683596 c -0.0698,0.272017 -0.0088,0.570532 -0.0293,0.852539 0.0078,0.623495 -0.01554,1.253013 0.01168,1.872737 0.100781,0.14615 0.338018,0.03692 0.494184,0.07062 1.177083,0 2.354167,0 3.53125,0 0.186793,-0.06659 0.06472,-0.32367 0.09961,-0.47461 -0.0078,-0.75891 0.01555,-1.523848 -0.01167,-2.278987 -0.100781,-0.146149 -0.338018,-0.03691 -0.494184,-0.07062 -1.177083,0 -2.354167,0 -3.53125,0 -0.02344,0.0094 -0.04687,0.01888 -0.07031,0.02832 z"
             id="path4071"
             inkscape:connector-curvature="0" />
          <path
             style="fill:#000000;fill-opacity:0.35294118;stroke:#ffffff;stroke-width:14.44347477;stroke-linecap:round;stroke-linejoin:round;stroke-miterlimit:4;stroke-opacity:1;stroke-dasharray:none"
             d="m 16.929041,13.681927 c -0.0698,0.272016 -0.0088,0.570531 -0.0293,0.852539 0.0078,0.623494 -0.01554,1.253013 0.01168,1.872737 0.100781,0.146149 0.338018,0.03691 0.494184,0.07062 1.385416,0 2.770833,0 4.15625,0 0.186793,-0.06659 0.06472,-0.323669 0.09961,-0.474609 -0.0078,-0.75891 0.01555,-1.523848 -0.01168,-2.278987 -0.100782,-0.14615 -0.338018,-0.03691 -0.494184,-0.07062 -1.385417,0 -2.770834,0 -4.15625,0 -0.02344,0.0094 -0.04687,0.01888 -0.07031,0.02832 z"
             id="path4073"
             inkscape:connector-curvature="0" />
          <path
             style="fill:#000000;fill-opacity:0.35294118;stroke:#ffffff;stroke-width:14.44347477;stroke-linecap:round;stroke-linejoin:round;stroke-miterlimit:4;stroke-opacity:1;stroke-dasharray:none"
             d="m 9.8352911,13.681927 c -0.069802,0.272016 -0.00881,0.570531 -0.029297,0.852539 0.00777,0.623494 -0.015545,1.253013 0.011675,1.872737 0.1007811,0.146149 0.3380179,0.03691 0.4941849,0.07062 1.322915,0 2.645832,0 3.96875,0 0.186793,-0.06659 0.06472,-0.323669 0.09961,-0.474609 -0.0078,-0.75891 0.01555,-1.523848 -0.01168,-2.278987 -0.100783,-0.14615 -0.338018,-0.03691 -0.494185,-0.07062 -1.322917,0 -2.645833,0 -3.9687499,0 -0.023437,0.0094 -0.046875,0.01888 -0.070312,0.02832 z"
             id="path4075"
             inkscape:connector-curvature="0" />
          <path
             style="fill:#000000;fill-opacity:0.35294118;stroke:#ffffff;stroke-width:14.44347477;stroke-linecap:round;stroke-linejoin:round;stroke-miterlimit:4;stroke-opacity:1;stroke-dasharray:none"
             d="m 9.8352911,19.025677 c -0.069802,0.272016 -0.00881,0.570531 -0.029297,0.852539 0.00779,0.59224 -0.015645,1.190532 0.011675,1.778987 0.1007811,0.146149 0.3380179,0.03691 0.4941849,0.07062 1.322915,0 2.645832,0 3.96875,0 0.186793,-0.06659 0.06472,-0.323669 0.09961,-0.474609 -0.0079,-0.727643 0.01565,-1.461368 -0.01168,-2.185237 -0.100783,-0.14615 -0.338018,-0.03692 -0.494185,-0.07062 -1.322917,0 -2.645833,0 -3.9687499,0 -0.023437,0.0094 -0.046875,0.01888 -0.070312,0.02832 z"
             id="path4077"
             inkscape:connector-curvature="0" />
          <path
             style="fill:#000000;fill-opacity:0.35294118;stroke:#ffffff;stroke-width:14.44347477;stroke-linecap:round;stroke-linejoin:round;stroke-miterlimit:4;stroke-opacity:1;stroke-dasharray:none"
             d="m 9.8352911,24.275677 c -0.069802,0.272016 -0.00881,0.570531 -0.029297,0.852539 0.00779,0.59224 -0.015645,1.190532 0.011675,1.778987 0.1007811,0.146149 0.3380179,0.03691 0.4941849,0.07062 1.322915,0 2.645832,0 3.96875,0 0.186793,-0.06659 0.06472,-0.323669 0.09961,-0.474609 -0.0079,-0.727643 0.01565,-1.461368 -0.01168,-2.185237 -0.100783,-0.14615 -0.338018,-0.03692 -0.494185,-0.07062 -1.322917,0 -2.645833,0 -3.9687499,0 -0.023437,0.0094 -0.046875,0.01888 -0.070312,0.02832 z"
             id="path4079"
             inkscape:connector-curvature="0" />
          <path
             style="fill:#000000;fill-opacity:0.35294118;stroke:#ffffff;stroke-width:14.44347477;stroke-linecap:round;stroke-linejoin:round;stroke-miterlimit:4;stroke-opacity:1;stroke-dasharray:none"
             d="m 9.8352911,29.556927 c -0.069802,0.272016 -0.00881,0.570531 -0.029297,0.852539 0.00777,0.665161 -0.015548,1.336347 0.011675,1.997737 0.1007811,0.146149 0.3380179,0.03691 0.4941849,0.07062 1.322915,0 2.645832,0 3.96875,0 0.186793,-0.06659 0.06472,-0.323669 0.09961,-0.474609 -0.0078,-0.800577 0.01555,-1.607182 -0.01168,-2.403987 -0.100783,-0.14615 -0.338018,-0.03692 -0.494185,-0.07062 -1.322917,0 -2.645833,0 -3.9687499,0 -0.023437,0.0094 -0.046875,0.01888 -0.070312,0.02832 z"
             id="path4081"
             inkscape:connector-curvature="0" />
        </g>
        <path
           sodipodi:nodetypes="cssssssc"
           id="path4083"
           d="m -18.548592,37.59375 c -7.745657,0.212415 -13.949844,4.834563 -13.949847,10.46875 0,0.315515 0,3.684486 0,4 0,5.769408 6.509121,10.437499 14.51411,10.4375 8.0049892,0 14.4827613,-4.668091 14.4827612,-10.4375 0,-0.315515 0,-3.691246 0,-4 0,-5.769408 -6.477771,-10.468752 -14.4827612,-10.46875 -0.187617,0 -0.378367,-0.0051 -0.564263,0 z"
           style="fill:#ffffff;fill-opacity:1;fill-rule:nonzero;stroke:#ffffff;stroke-width:14.44347476999999991;stroke-linecap:round;stroke-linejoin:round;stroke-miterlimit:4;stroke-opacity:1;stroke-dasharray:none;stroke-dashoffset:0"
           inkscape:connector-curvature="0" />
      </g>
      <g
         id="g4020"
         transform="matrix(0.98305867,0,0,1.0026689,-0.85972078,-0.11491902)">
        <rect
           rx="2.891494"
           ry="2.891494"
           y="5.526494"
           x="2.394321"
           height="37.960339"
           width="34.106079"
           id="rect5976"
           style="fill:#ffffff;fill-opacity:1;fill-rule:nonzero;stroke:#000000;stroke-width:4;stroke-linecap:round;stroke-linejoin:round;stroke-miterlimit:4;stroke-opacity:1;stroke-dasharray:none;stroke-dashoffset:0"
           transform="translate(-50.0786,18.09148)" />
        <g
           id="g3954"
           transform="translate(-49.7786,18.09148)">
          <path
             style="fill:none;stroke:#000000;stroke-width:2.70285988000000010;stroke-linecap:butt;stroke-linejoin:miter;stroke-miterlimit:4;stroke-opacity:1;stroke-dasharray:none"
             id="path2987"
             d="m 8.5424299,11.027281 c 0,27.621289 0,27.621289 0,27.621289"
             inkscape:connector-curvature="0" />
          <path
             style="fill:none;stroke:#000000;stroke-width:2.70285988000000010;stroke-linecap:butt;stroke-linejoin:miter;stroke-miterlimit:4;stroke-opacity:1;stroke-dasharray:none"
             id="path2987-2"
             d="m 15.64643,11.027281 c 0,27.621289 0,27.621289 0,27.621289"
             inkscape:connector-curvature="0" />
          <path
             style="fill:none;stroke:#000000;stroke-width:2.70285988000000010;stroke-linecap:butt;stroke-linejoin:miter;stroke-miterlimit:4;stroke-opacity:1;stroke-dasharray:none"
             id="path2987-9"
             d="m 22.91143,11.027281 c 0,27.621289 0,27.621289 0,27.621289"
             inkscape:connector-curvature="0" />
          <path
             style="fill:none;stroke:#000000;stroke-width:2.70285988000000010;stroke-linecap:butt;stroke-linejoin:miter;stroke-miterlimit:4;stroke-opacity:1;stroke-dasharray:none"
             id="path2987-3"
             d="m 29.563267,11.027281 c 0,27.621289 0,27.621289 0,27.621289"
             inkscape:connector-curvature="0" />
          <path
             style="fill:none;stroke:#000000;stroke-width:2.70285988000000010;stroke-linecap:butt;stroke-linejoin:miter;stroke-miterlimit:4;stroke-opacity:1;stroke-dasharray:none"
             id="path2987-7"
             d="m 7.3514299,33.75657 c 21.6370811,0 21.6370811,0 21.6370811,0"
             inkscape:connector-curvature="0" />
          <path
             style="fill:none;stroke:#000000;stroke-width:2.70285988000000010;stroke-linecap:butt;stroke-linejoin:miter;stroke-miterlimit:4;stroke-opacity:1;stroke-dasharray:none"
             id="path2987-7-7"
             d="m 7.4151987,28.25457 c 21.6370803,0 21.6370803,0 21.6370803,0"
             inkscape:connector-curvature="0" />
          <path
             style="fill:none;stroke:#000000;stroke-width:2.70285988000000010;stroke-linecap:butt;stroke-linejoin:miter;stroke-miterlimit:4;stroke-opacity:1;stroke-dasharray:none"
             id="path2987-7-75"
             d="m 7.4151987,22.979611 c 21.6370803,0 21.6370803,0 21.6370803,0"
             inkscape:connector-curvature="0" />
          <path
             style="fill:none;stroke:#000000;stroke-width:2.70285988000000010;stroke-linecap:butt;stroke-linejoin:miter;stroke-miterlimit:4;stroke-opacity:1;stroke-dasharray:none"
             id="path2987-7-1"
             d="m 8.0114902,17.73157 c 21.6370798,0 21.6370798,0 21.6370798,0"
             inkscape:connector-curvature="0" />
          <path
             inkscape:connector-curvature="0"
             d="m 8.0114902,12.38857 c 21.6370798,0 21.6370798,0 21.6370798,0"
             id="path3921"
             style="fill:none;stroke:#000000;stroke-width:2.70285988000000010;stroke-linecap:butt;stroke-linejoin:miter;stroke-miterlimit:4;stroke-opacity:1;stroke-dasharray:none" />
          <path
             inkscape:connector-curvature="0"
             id="path3925"
             d="m 24.193737,13.683596 c -0.0698,0.272017 -0.0088,0.570532 -0.0293,0.852539 0.0078,0.623495 -0.01554,1.253013 0.01168,1.872737 0.100781,0.14615 0.338018,0.03692 0.494184,0.07062 1.177083,0 2.354167,0 3.53125,0 0.186793,-0.06659 0.06472,-0.32367 0.09961,-0.47461 -0.0078,-0.75891 0.01555,-1.523848 -0.01167,-2.278987 -0.100781,-0.146149 -0.338018,-0.03691 -0.494184,-0.07062 -1.177083,0 -2.354167,0 -3.53125,0 -0.02344,0.0094 -0.04687,0.01888 -0.07031,0.02832 z"
             style="fill:#000000;fill-opacity:0.35294118;stroke:#000016;stroke-width:0.125;stroke-linecap:round;stroke-linejoin:round;stroke-miterlimit:4;stroke-opacity:1;stroke-dasharray:none" />
          <path
             inkscape:connector-curvature="0"
             id="path3927"
             d="m 16.929041,13.681927 c -0.0698,0.272016 -0.0088,0.570531 -0.0293,0.852539 0.0078,0.623494 -0.01554,1.253013 0.01168,1.872737 0.100781,0.146149 0.338018,0.03691 0.494184,0.07062 1.385416,0 2.770833,0 4.15625,0 0.186793,-0.06659 0.06472,-0.323669 0.09961,-0.474609 -0.0078,-0.75891 0.01555,-1.523848 -0.01168,-2.278987 -0.100782,-0.14615 -0.338018,-0.03691 -0.494184,-0.07062 -1.385417,0 -2.770834,0 -4.15625,0 -0.02344,0.0094 -0.04687,0.01888 -0.07031,0.02832 z"
             style="fill:#000000;fill-opacity:0.35294118;stroke:#000016;stroke-width:0.125;stroke-linecap:round;stroke-linejoin:round;stroke-miterlimit:4;stroke-opacity:1;stroke-dasharray:none" />
          <path
             inkscape:connector-curvature="0"
             id="path3929"
             d="m 9.8352911,13.681927 c -0.069802,0.272016 -0.00881,0.570531 -0.029297,0.852539 0.00777,0.623494 -0.015545,1.253013 0.011675,1.872737 0.1007811,0.146149 0.3380179,0.03691 0.4941849,0.07062 1.322915,0 2.645832,0 3.96875,0 0.186793,-0.06659 0.06472,-0.323669 0.09961,-0.474609 -0.0078,-0.75891 0.01555,-1.523848 -0.01168,-2.278987 -0.100783,-0.14615 -0.338018,-0.03691 -0.494185,-0.07062 -1.322917,0 -2.645833,0 -3.9687499,0 -0.023437,0.0094 -0.046875,0.01888 -0.070312,0.02832 z"
             style="fill:#000000;fill-opacity:0.35294118;stroke:#000016;stroke-width:0.125;stroke-linecap:round;stroke-linejoin:round;stroke-miterlimit:4;stroke-opacity:1;stroke-dasharray:none" />
          <path
             inkscape:connector-curvature="0"
             id="path3931"
             d="m 9.8352911,19.025677 c -0.069802,0.272016 -0.00881,0.570531 -0.029297,0.852539 0.00779,0.59224 -0.015645,1.190532 0.011675,1.778987 0.1007811,0.146149 0.3380179,0.03691 0.4941849,0.07062 1.322915,0 2.645832,0 3.96875,0 0.186793,-0.06659 0.06472,-0.323669 0.09961,-0.474609 -0.0079,-0.727643 0.01565,-1.461368 -0.01168,-2.185237 -0.100783,-0.14615 -0.338018,-0.03692 -0.494185,-0.07062 -1.322917,0 -2.645833,0 -3.9687499,0 -0.023437,0.0094 -0.046875,0.01888 -0.070312,0.02832 z"
             style="fill:#000000;fill-opacity:0.35294118;stroke:#000016;stroke-width:0.125;stroke-linecap:round;stroke-linejoin:round;stroke-miterlimit:4;stroke-opacity:1;stroke-dasharray:none" />
          <path
             inkscape:connector-curvature="0"
             id="path3933"
             d="m 9.8352911,24.275677 c -0.069802,0.272016 -0.00881,0.570531 -0.029297,0.852539 0.00779,0.59224 -0.015645,1.190532 0.011675,1.778987 0.1007811,0.146149 0.3380179,0.03691 0.4941849,0.07062 1.322915,0 2.645832,0 3.96875,0 0.186793,-0.06659 0.06472,-0.323669 0.09961,-0.474609 -0.0079,-0.727643 0.01565,-1.461368 -0.01168,-2.185237 -0.100783,-0.14615 -0.338018,-0.03692 -0.494185,-0.07062 -1.322917,0 -2.645833,0 -3.9687499,0 -0.023437,0.0094 -0.046875,0.01888 -0.070312,0.02832 z"
             style="fill:#000000;fill-opacity:0.35294118;stroke:#000016;stroke-width:0.125;stroke-linecap:round;stroke-linejoin:round;stroke-miterlimit:4;stroke-opacity:1;stroke-dasharray:none" />
          <path
             inkscape:connector-curvature="0"
             id="path3935"
             d="m 9.8352911,29.556927 c -0.069802,0.272016 -0.00881,0.570531 -0.029297,0.852539 0.00777,0.665161 -0.015548,1.336347 0.011675,1.997737 0.1007811,0.146149 0.3380179,0.03691 0.4941849,0.07062 1.322915,0 2.645832,0 3.96875,0 0.186793,-0.06659 0.06472,-0.323669 0.09961,-0.474609 -0.0078,-0.800577 0.01555,-1.607182 -0.01168,-2.403987 -0.100783,-0.14615 -0.338018,-0.03692 -0.494185,-0.07062 -1.322917,0 -2.645833,0 -3.9687499,0 -0.023437,0.0094 -0.046875,0.01888 -0.070312,0.02832 z"
             style="fill:#000000;fill-opacity:0.35294118;stroke:#000016;stroke-width:0.125;stroke-linecap:round;stroke-linejoin:round;stroke-miterlimit:4;stroke-opacity:1;stroke-dasharray:none" />
        </g>
        <path
           inkscape:connector-curvature="0"
           style="fill:#ffffff;fill-opacity:1;fill-rule:nonzero;stroke:#000000;stroke-width:3;stroke-linecap:round;stroke-linejoin:round;stroke-miterlimit:4;stroke-opacity:1;stroke-dasharray:none;stroke-dashoffset:0"
           d="m -18.548592,37.59375 c -7.745657,0.212415 -13.949844,4.834563 -13.949847,10.46875 0,0.315515 0,3.684486 0,4 0,5.769408 6.509121,10.437499 14.51411,10.4375 8.0049892,0 14.4827613,-4.668091 14.4827612,-10.4375 0,-0.315515 0,-3.691246 0,-4 0,-5.769408 -6.477771,-10.468752 -14.4827612,-10.46875 -0.187617,0 -0.378367,-0.0051 -0.564263,0 z"
           id="path6014"
           sodipodi:nodetypes="cssssssc" />
        <path
           inkscape:connector-curvature="0"
           style="fill:#dd4814;fill-opacity:1;fill-rule:evenodd;stroke:#000000;stroke-width:1px;stroke-linecap:butt;stroke-linejoin:miter;stroke-opacity:1"
           d="m -15,57 0,4.799243 C -10.912079,61.19139 -4.9803389,58.578875 -4,53 l 0,-5 -11,9 z"
           id="path6016"
           sodipodi:nodetypes="ccccc" />
        <path
           inkscape:connector-curvature="0"
           style="fill:#c90016;fill-opacity:1;fill-rule:evenodd;stroke:#000000;stroke-width:1px;stroke-linecap:butt;stroke-linejoin:miter;stroke-opacity:1"
           d="m -23,57.369822 0,3.967401 c 1.970778,0.547914 5.427186,0.964752 8,0.427435 l 0,-4 -8,-0.394836 z"
           id="path6018"
           sodipodi:nodetypes="ccccc" />
        <path
           inkscape:connector-curvature="0"
           transform="matrix(1.066595,0,0,1.042528,35.33153,23.43406)"
           style="opacity:0.257384;fill:none;stroke:url(#linearGradient4018);stroke-width:0.94832265;stroke-linecap:round;stroke-linejoin:round;stroke-miterlimit:4;stroke-opacity:1;stroke-dashoffset:0"
           d="m -37.328964,27.44685 c 0,5.028744 -5.674003,9.110044 -12.665184,9.110044 -6.991182,0 -12.665184,-4.0813 -12.665184,-9.110044 0,-0.240836 0.01301,-2.397913 0.03856,-2.634059 0.507935,-4.694661 5.970259,-6.475986 12.62662,-6.475986 6.625028,0 12.067236,1.746577 12.619119,6.409759 0.0305,0.257725 0.04606,2.436913 0.04606,2.700286 z"
           id="path6020"
           sodipodi:nodetypes="csssssc" />
        <path
           sodipodi:type="arc"
           style="fill:#ffffff;fill-opacity:1;fill-rule:nonzero;stroke:none"
           id="path6022"
           sodipodi:cx="-49.994148"
           sodipodi:cy="27.44685"
           sodipodi:rx="12.665184"
           sodipodi:ry="9.1100445"
           d="m -37.328964,27.44685 c 0,5.031338 -5.670396,9.110044 -12.665184,9.110044 -6.994788,0 -12.665184,-4.078706 -12.665184,-9.110044 0,-5.031339 5.670396,-9.110045 12.665184,-9.110045 6.994788,0 12.665184,4.078706 12.665184,9.110045 z"
           transform="matrix(1.066595,0,0,1.042528,35.33153,19.43406)" />
        <path
           inkscape:connector-curvature="0"
           style="fill:#dd4814;fill-opacity:1;fill-rule:evenodd;stroke:#000000;stroke-width:1px;stroke-linecap:round;stroke-linejoin:round;stroke-opacity:1"
           d="m -18.007843,47.525545 13.1729311,-2.882576 c 3.1746137,6.800058 -3.6560378,12.455155 -10.1531121,13.180159 l -3.019819,-10.297583 z"
           id="path6024"
           sodipodi:nodetypes="cccc" />
        <path
           inkscape:connector-curvature="0"
           style="fill:#c90016;fill-opacity:1;fill-rule:evenodd;stroke:#000000;stroke-width:1px;stroke-linecap:round;stroke-linejoin:round;stroke-opacity:1"
           d="m -17.963018,47.556213 -5.038901,9.825328 c 2.621089,0.73547 5.220863,0.78153 8.038901,0.433778 l -3,-10.259106 z"
           id="path6026"
           sodipodi:nodetypes="cccc" />
        <path
           transform="matrix(1.066595,0,0,1.042528,35.33153,19.43406)"
           d="m -37.328964,27.44685 c 0,5.031338 -5.670396,9.110044 -12.665184,9.110044 -6.994788,0 -12.665184,-4.078706 -12.665184,-9.110044 0,-5.031339 5.670396,-9.110045 12.665184,-9.110045 6.994788,0 12.665184,4.078706 12.665184,9.110045 z"
           sodipodi:ry="9.1100445"
           sodipodi:rx="12.665184"
           sodipodi:cy="27.44685"
           sodipodi:cx="-49.994148"
           id="path6028"
           style="fill:none;stroke:#000000;stroke-width:1.89664638;stroke-linecap:round;stroke-linejoin:round;stroke-miterlimit:4;stroke-opacity:1;stroke-dasharray:none;stroke-dashoffset:0"
           sodipodi:type="arc" />
      </g>
    </g>
  </g>
</svg>
