<?xml version="1.0" encoding="UTF-8" standalone="no"?>
<!-- Created with Inkscape (http://www.inkscape.org/) -->

<svg
   xmlns:dc="http://purl.org/dc/elements/1.1/"
   xmlns:cc="http://creativecommons.org/ns#"
   xmlns:rdf="http://www.w3.org/1999/02/22-rdf-syntax-ns#"
   xmlns:svg="http://www.w3.org/2000/svg"
   xmlns="http://www.w3.org/2000/svg"
   xmlns:xlink="http://www.w3.org/1999/xlink"
   version="1.1"
   width="48"
   height="48"
   id="svg4117">
  <defs
     id="defs4119">
    <linearGradient
       id="linearGradient3924">
      <stop
         id="stop3926"
         style="stop-color:#ffffff;stop-opacity:1"
         offset="0" />
      <stop
         id="stop3928"
         style="stop-color:#ffffff;stop-opacity:0.23529412"
         offset="0.06316455" />
      <stop
         id="stop3930"
         style="stop-color:#ffffff;stop-opacity:0.15686275"
         offset="0.95056331" />
      <stop
         id="stop3932"
         style="stop-color:#ffffff;stop-opacity:0.39215687"
         offset="1" />
    </linearGradient>
    <radialGradient
       cx="4.9929786"
       cy="43.5"
       r="2.5"
       fx="4.9929786"
       fy="43.5"
       id="radialGradient2873-966-168"
       xlink:href="#linearGradient3688-166-749"
       gradientUnits="userSpaceOnUse"
       gradientTransform="matrix(2.003784,0,0,1.4,27.98813,-17.4)" />
    <linearGradient
       id="linearGradient3688-166-749">
      <stop
         id="stop2883"
         style="stop-color:#181818;stop-opacity:1"
         offset="0" />
      <stop
         id="stop2885"
         style="stop-color:#181818;stop-opacity:0"
         offset="1" />
    </linearGradient>
    <radialGradient
       cx="4.9929786"
       cy="43.5"
       r="2.5"
       fx="4.9929786"
       fy="43.5"
       id="radialGradient2875-742-326"
       xlink:href="#linearGradient3688-464-309"
       gradientUnits="userSpaceOnUse"
       gradientTransform="matrix(2.003784,0,0,1.4,-20.01187,-104.4)" />
    <linearGradient
       id="linearGradient3688-464-309">
      <stop
         id="stop2889"
         style="stop-color:#181818;stop-opacity:1"
         offset="0" />
      <stop
         id="stop2891"
         style="stop-color:#181818;stop-opacity:0"
         offset="1" />
    </linearGradient>
    <linearGradient
       x1="25.058096"
       y1="47.027729"
       x2="25.058096"
       y2="39.999443"
       id="linearGradient2877-634-617"
       xlink:href="#linearGradient3702-501-757"
       gradientUnits="userSpaceOnUse" />
    <linearGradient
       id="linearGradient3702-501-757">
      <stop
         id="stop2895"
         style="stop-color:#181818;stop-opacity:0"
         offset="0" />
      <stop
         id="stop2897"
         style="stop-color:#181818;stop-opacity:1"
         offset="0.5" />
      <stop
         id="stop2899"
         style="stop-color:#181818;stop-opacity:0"
         offset="1" />
    </linearGradient>
    <filter
       color-interpolation-filters="sRGB"
       id="filter3831">
      <feGaussianBlur
         stdDeviation="0.6375"
         id="feGaussianBlur3833" />
    </filter>
    <clipPath
       id="clipPath3823">
      <path
         d="M 108.8125,58 C 107.25437,58 106,59.254375 106,60.8125 l 0,24.375 C 106,86.745625 107.25437,88 108.8125,88 l 24.375,0 C 134.74562,88 136,86.745625 136,85.1875 l 0,-24.375 C 136,59.254375 134.74562,58 133.1875,58 l -24.375,0 z m 7.1875,4.5 10,0 0,8.75 5,0 -10,13.75 -10,-13.75 5,0 0,-8.75 z"
         id="path3825"
         style="fill:#ffffff;fill-opacity:1;stroke:none" />
    </clipPath>
    <linearGradient
       x1="65.262688"
       y1="64.205269"
       x2="65.262688"
       y2="50.068527"
       id="linearGradient3812"
       xlink:href="#linearGradient5010"
       gradientUnits="userSpaceOnUse"
       gradientTransform="matrix(0.625,0,0,0.625,78.5,32.25)" />
    <filter
       color-interpolation-filters="sRGB"
       id="filter3806">
      <feGaussianBlur
         stdDeviation="1.2"
         id="feGaussianBlur3808" />
    </filter>
    <linearGradient
       x1="70"
       y1="54"
       x2="70"
       y2="75.095024"
       id="linearGradient3788"
       xlink:href="#linearGradient3737"
       gradientUnits="userSpaceOnUse"
       gradientTransform="translate(0,4)" />
    <linearGradient
       x1="56"
       y1="72"
       x2="88"
       y2="72"
       id="linearGradient3773"
       xlink:href="#linearGradient3778"
       gradientUnits="userSpaceOnUse"
       gradientTransform="matrix(0.9375,0,0,0.9375,-140.5,3.5)" />
    <linearGradient
       x1="65.262688"
       y1="64.205269"
       x2="65.262688"
       y2="50.068527"
       id="linearGradient3832"
       xlink:href="#linearGradient3737"
       gradientUnits="userSpaceOnUse"
       gradientTransform="matrix(0.625,0,0,0.625,28.5,31.25)" />
    <filter
       color-interpolation-filters="sRGB"
       id="filter3174">
      <feGaussianBlur
         stdDeviation="1.71"
         id="feGaussianBlur3176" />
    </filter>
    <linearGradient
       id="linearGradient3737">
      <stop
         id="stop3739"
         style="stop-color:#ffffff;stop-opacity:1"
         offset="0" />
      <stop
         id="stop3741"
         style="stop-color:#ffffff;stop-opacity:0"
         offset="1" />
    </linearGradient>
    <linearGradient
       x1="45.447727"
       y1="92.539597"
       x2="45.447727"
       y2="7.0165396"
       id="ButtonShadow"
       gradientUnits="userSpaceOnUse"
       gradientTransform="scale(1.0058652,0.994169)">
      <stop
         id="stop3750"
         style="stop-color:#000000;stop-opacity:1"
         offset="0" />
      <stop
         id="stop3752"
         style="stop-color:#000000;stop-opacity:0.58823532"
         offset="1" />
    </linearGradient>
    <linearGradient
       id="linearGradient5010">
      <stop
         id="stop5012"
         style="stop-color:#000000;stop-opacity:1"
         offset="0" />
      <stop
         id="stop5014"
         style="stop-color:#000000;stop-opacity:0"
         offset="1" />
    </linearGradient>
    <linearGradient
       id="linearGradient3778">
      <stop
         id="stop3780"
         style="stop-color:#499119;stop-opacity:1"
         offset="0" />
      <stop
         id="stop3782"
         style="stop-color:#8fd625;stop-opacity:1"
         offset="1" />
    </linearGradient>
    <linearGradient
       id="linearGradient3104">
      <stop
         id="stop3106"
         style="stop-color:#aaaaaa;stop-opacity:1"
         offset="0" />
      <stop
         id="stop3108"
         style="stop-color:#c8c8c8;stop-opacity:1"
         offset="1" />
    </linearGradient>
    <linearGradient
       id="linearGradient3600">
      <stop
         id="stop3602"
         style="stop-color:#f4f4f4;stop-opacity:1"
         offset="0" />
      <stop
         id="stop3604"
         style="stop-color:#dbdbdb;stop-opacity:1"
         offset="1" />
    </linearGradient>
    <linearGradient
       id="linearGradient3104-5">
      <stop
         id="stop3106-9"
         style="stop-color:#aaaaaa;stop-opacity:1"
         offset="0" />
      <stop
         id="stop3108-8"
         style="stop-color:#c8c8c8;stop-opacity:1"
         offset="1" />
    </linearGradient>
    <linearGradient
       x1="23.99999"
       y1="4.999989"
       x2="23.99999"
       y2="43"
       id="linearGradient3084"
       xlink:href="#linearGradient3924"
       gradientUnits="userSpaceOnUse"
       gradientTransform="translate(2.4e-6,0.9674489)" />
    <radialGradient
       cx="7.4956832"
       cy="8.4497671"
       r="19.99999"
       fx="7.4956832"
       fy="8.4497671"
       id="radialGradient3093"
       xlink:href="#linearGradient3600"
       gradientUnits="userSpaceOnUse"
       gradientTransform="matrix(0,1.9392804,-2.0515274,-5.2784231e-8,41.335037,-8.4862548)" />
    <linearGradient
       x1="24"
       y1="44"
       x2="24"
       y2="3.8990016"
       id="linearGradient3095"
       xlink:href="#linearGradient3104"
       gradientUnits="userSpaceOnUse"
       gradientTransform="translate(-6e-7,0.9674389)" />
    <linearGradient
       x1="20"
       y1="43"
       x2="20"
       y2="3"
       id="linearGradient3098"
       xlink:href="#linearGradient3104-5"
       gradientUnits="userSpaceOnUse" />
  </defs>
  <metadata
     id="metadata4122">
    <rdf:RDF>
      <cc:Work
         rdf:about="">
        <dc:format>image/svg+xml</dc:format>
        <dc:type
           rdf:resource="http://purl.org/dc/dcmitype/StillImage" />
        <dc:title></dc:title>
      </cc:Work>
    </rdf:RDF>
  </metadata>
  <g
     transform="translate(-135.85714,-31.05041)"
     id="layer2"
     style="display:none">
    <path
       d="M 11,7 48,5 85,7 c 3.324,0 6,2.676 6,6 l 0,73 c 0,3.324 -2.676,6 -6,6 L 11,92 C 7.676,92 5,89.324 5,86 L 5,13 C 5,9.676 7.676,7 11,7 z"
       id="rect3745"
       style="opacity:0.9;fill:url(#ButtonShadow);fill-opacity:1;fill-rule:nonzero;stroke:none;filter:url(#filter3174)" />
  </g>
  <g
     transform="translate(-135.85714,-31.05041)"
     id="layer4"
     style="display:none">
    <rect
       width="30"
       height="30"
       rx="2.8125"
       ry="2.8125"
       x="-86"
       y="56"
       transform="matrix(0,-1,1,0,0,4)"
       id="rect3790"
       style="opacity:0.6;fill:#000000;fill-opacity:1;stroke:none;filter:url(#filter3806)" />
    <rect
       width="30"
       height="30"
       rx="2.8125"
       ry="2.8125"
       x="-88"
       y="56"
       transform="matrix(0,-1,1,0,0,0)"
       id="rect2993"
       style="fill:url(#linearGradient3773);fill-opacity:1;stroke:none" />
    <path
       d="M 58.8125,58 C 57.254375,58 56,59.254375 56,60.8125 l 0,24.375 c 0,0.873066 0.410816,1.641163 1.03125,2.15625 C 57.02841,87.289908 57,87.242129 57,87.1875 l 0,-24.375 C 57,61.254375 58.17075,60 59.625,60 l 22.75,0 C 83.82925,60 85,61.254375 85,62.8125 l 0,24.375 c 0,0.05463 -0.02841,0.102408 -0.03125,0.15625 C 85.589184,86.828663 86,86.060566 86,85.1875 l 0,-24.375 C 86,59.254375 84.745625,58 83.1875,58 l -24.375,0 z"
       id="rect3775"
       style="opacity:0.5;fill:url(#linearGradient3788);fill-opacity:1;stroke:none" />
    <path
       d="m 116,63.5 0,8.75 -5,0 10,13.75 10,-13.75 -5,0 0,-8.75 -10,0 z"
       transform="translate(-50,0)"
       clip-path="url(#clipPath3823)"
       id="path3810"
       style="opacity:0.6;fill:url(#linearGradient3812);fill-opacity:1;fill-rule:nonzero;stroke:none;display:inline;filter:url(#filter3831)" />
    <path
       d="m 66,62.5 0,8.75 -5,0 10,13.75 10,-13.75 -5,0 0,-8.75 -10,0 z"
       id="path4278"
       style="fill:url(#linearGradient3832);fill-opacity:1;fill-rule:nonzero;stroke:none;display:inline" />
  </g>
  <path
     d="m 20.690321,42.286696 c -2.40054,-0.353467 -4.13076,-1.117493 -5.504607,-2.430703 -2.465568,-2.356744 -2.385764,-5.814558 0.193408,-8.379972 1.74871,-1.739372 4.688946,-2.813113 8.619955,-3.147885 0.724457,-0.06172 1.340884,-0.132759 1.369839,-0.157913 0.02896,-0.02517 -0.197695,-0.404675 -0.503664,-0.843398 -0.437249,-0.626954 -0.572131,-1.01875 -0.630239,-1.830658 -0.04066,-0.568145 0.0083,-1.271246 0.108687,-1.56244 l 0.182616,-0.529454 -1.241866,0 c -4.002449,0 -6.898169,-2.362927 -7.540539,-6.153131 -0.384403,-2.268088 0.589649,-4.95673 2.443048,-6.743461 1.837765,-1.7716579 4.921376,-2.8838881 7.995457,-2.8838881 1.190125,0 1.880551,-0.2462433 3.845064,-1.3713542 0.681444,-0.3902739 1.30336,-0.7095888 1.38204,-0.7095888 0.248889,0 1.198853,0.8881644 1.198853,1.1208623 0,0.1226355 -0.431963,0.8207879 -0.95992,1.5514502 l -0.95992,1.3284708 0.676525,0.7417908 c 2.133446,2.339243 2.663996,5.344931 1.421682,8.054133 -0.437421,0.953912 -0.857615,1.474913 -2.337693,2.898503 -1.376162,1.323647 -1.835986,1.87926 -1.93743,2.341061 -0.241278,1.098338 0.04571,1.642869 1.485688,2.818863 2.094618,1.710636 3.725465,3.362892 4.213094,4.268409 0.247294,0.459202 0.568767,1.354149 0.714389,1.988765 0.237064,1.033129 0.237666,1.271923 0.0058,2.282559 -0.142452,0.620802 -0.462905,1.535407 -0.712118,2.032458 -0.57847,1.153758 -2.278644,2.946723 -3.420109,3.606779 -2.692946,1.557212 -6.625918,2.222465 -10.108002,1.709742 z m 8.037081,-2.401679 c 1.180858,-0.462653 2.211696,-1.344248 2.731263,-2.335843 0.496532,-0.947626 0.521841,-3.02287 0.04773,-3.913596 -0.440396,-0.827366 -2.009664,-2.338195 -3.492565,-3.362492 l -1.227705,-0.84802 -1.507032,0.120712 c -4.068418,0.325899 -6.4132,1.415866 -7.472753,3.473681 -0.572222,1.111351 -0.514597,2.862597 0.133618,4.060817 1.244141,2.299751 3.675343,3.347918 7.54789,3.254105 1.825654,-0.04426 2.413678,-0.125785 3.239551,-0.449364 z m -1.39347,-18.32989 c 2.001729,-1.011622 2.609958,-3.37533 1.742607,-6.772126 -0.609052,-2.385234 -2.049076,-4.498398 -3.573813,-5.2444001 -0.824647,-0.4034703 -2.027881,-0.4589351 -3.083389,-0.1421363 -1.012503,0.3038893 -2.203132,1.5576224 -2.516548,2.6499214 -0.5189,1.808432 -0.14439,4.651524 0.883934,6.710388 1.510566,3.02438 3.997055,4.08714 6.547209,2.798353 z"
     id="path3829"
     style="fill:#000000;fill-opacity:1;stroke:#ffffff;stroke-width:9;stroke-miterlimit:4;stroke-opacity:1;stroke-dasharray:none" />
  <path
     d="m 20.690321,42.286696 c -2.40054,-0.353467 -4.13076,-1.117493 -5.504607,-2.430703 -2.465568,-2.356744 -2.385764,-5.814558 0.193408,-8.379972 1.74871,-1.739372 4.688946,-2.813113 8.619955,-3.147885 0.724457,-0.06172 1.340884,-0.132759 1.369839,-0.157913 0.02896,-0.02517 -0.197695,-0.404675 -0.503664,-0.843398 -0.437249,-0.626954 -0.572131,-1.01875 -0.630239,-1.830658 -0.04066,-0.568145 0.0083,-1.271246 0.108687,-1.56244 l 0.182616,-0.529454 -1.241866,0 c -4.002449,0 -6.898169,-2.362927 -7.540539,-6.153131 -0.384403,-2.268088 0.589649,-4.95673 2.443048,-6.743461 1.837765,-1.7716579 4.921376,-2.8838881 7.995457,-2.8838881 1.190125,0 1.880551,-0.2462433 3.845064,-1.3713542 0.681444,-0.3902739 1.30336,-0.7095888 1.38204,-0.7095888 0.248889,0 1.198853,0.8881644 1.198853,1.1208623 0,0.1226355 -0.431963,0.8207879 -0.95992,1.5514502 l -0.95992,1.3284708 0.676525,0.7417908 c 2.133446,2.339243 2.663996,5.344931 1.421682,8.054133 -0.437421,0.953912 -0.857615,1.474913 -2.337693,2.898503 -1.376162,1.323647 -1.835986,1.87926 -1.93743,2.341061 -0.241278,1.098338 0.04571,1.642869 1.485688,2.818863 2.094618,1.710636 3.725465,3.362892 4.213094,4.268409 0.247294,0.459202 0.568767,1.354149 0.714389,1.988765 0.237064,1.033129 0.237666,1.271923 0.0058,2.282559 -0.142452,0.620802 -0.462905,1.535407 -0.712118,2.032458 -0.57847,1.153758 -2.278644,2.946723 -3.420109,3.606779 -2.692946,1.557212 -6.625918,2.222465 -10.108002,1.709742 z m 8.037081,-2.401679 c 1.180858,-0.462653 2.211696,-1.344248 2.731263,-2.335843 0.496532,-0.947626 0.521841,-3.02287 0.04773,-3.913596 -0.440396,-0.827366 -2.009664,-2.338195 -3.492565,-3.362492 l -1.227705,-0.84802 -1.507032,0.120712 c -4.068418,0.325899 -6.4132,1.415866 -7.472753,3.473681 -0.572222,1.111351 -0.514597,2.862597 0.133618,4.060817 1.244141,2.299751 3.675343,3.347918 7.54789,3.254105 1.825654,-0.04426 2.413678,-0.125785 3.239551,-0.449364 z m -1.39347,-18.32989 c 2.001729,-1.011622 2.609958,-3.37533 1.742607,-6.772126 -0.609052,-2.385234 -2.049076,-4.498398 -3.573813,-5.2444001 -0.824647,-0.4034703 -2.027881,-0.4589351 -3.083389,-0.1421363 -1.012503,0.3038893 -2.203132,1.5576224 -2.516548,2.6499214 -0.5189,1.808432 -0.14439,4.651524 0.883934,6.710388 1.510566,3.02438 3.997055,4.08714 6.547209,2.798353 z"
     id="path3082"
     style="fill:#000000;fill-opacity:1;stroke:#000000;stroke-width:1.08571446;stroke-opacity:1" />
</svg>
