<?xml version="1.0" encoding="UTF-8" standalone="no"?>
<!-- Created with Inkscape (http://www.inkscape.org/) -->

<svg
   xmlns:dc="http://purl.org/dc/elements/1.1/"
   xmlns:cc="http://creativecommons.org/ns#"
   xmlns:rdf="http://www.w3.org/1999/02/22-rdf-syntax-ns#"
   xmlns:svg="http://www.w3.org/2000/svg"
   xmlns="http://www.w3.org/2000/svg"
   xmlns:sodipodi="http://sodipodi.sourceforge.net/DTD/sodipodi-0.dtd"
   xmlns:inkscape="http://www.inkscape.org/namespaces/inkscape"
   width="48"
   height="48"
   id="svg3039"
   version="1.1"
   inkscape:version="0.48.3.1 r9886"
   sodipodi:docname="google-chrome.svg">
  <defs
     id="defs3041" />
  <sodipodi:namedview
     id="base"
     pagecolor="#ffffff"
     bordercolor="#666666"
     borderopacity="1.0"
     inkscape:pageopacity="0.0"
     inkscape:pageshadow="2"
     inkscape:zoom="7.9195959"
     inkscape:cx="10.798396"
     inkscape:cy="23.540024"
     inkscape:document-units="px"
     inkscape:current-layer="layer1"
     showgrid="false"
     inkscape:window-width="1366"
     inkscape:window-height="717"
     inkscape:window-x="0"
     inkscape:window-y="0"
     inkscape:window-maximized="1"
     borderlayer="true"
     inkscape:showpageshadow="false" />
  <metadata
     id="metadata3044">
    <rdf:RDF>
      <cc:Work
         rdf:about="">
        <dc:format>image/svg+xml</dc:format>
        <dc:type
           rdf:resource="http://purl.org/dc/dcmitype/StillImage" />
        <dc:title />
      </cc:Work>
    </rdf:RDF>
  </metadata>
  <g
     inkscape:label="Layer 1"
     inkscape:groupmode="layer"
     id="layer1"
     transform="translate(0,-1004.3622)">
    <path
       sodipodi:nodetypes="ssssssssssssssscsssssssssssscssssscsssccsssssssss"
       inkscape:connector-curvature="0"
       id="path3753"
       d="m 28.192378,1047.9309 c 3.790993,-0.8019 6.820957,-2.5189 9.904773,-5.6127 3.056047,-3.0661 4.662265,-5.965 5.492122,-9.9122 2.085039,-9.9175 -3.752988,-19.9796 -13.430855,-23.1487 -3.330832,-1.0907 -8.396278,-1.2292 -11.468568,-0.3137 -8.743542,2.6055 -14.5997027,10.1819 -14.6976152,19.0149 -0.041074,3.7053 0.4313554,5.8911 1.9913758,9.2138 1.6036196,3.4156 5.5113074,7.3799 8.9379954,9.0673 4.232314,2.0844 8.713053,2.6555 13.270772,1.6913 z m -3.932083,-3.2491 c -1.792327,-0.595 -3.453755,-1.4756 -4.372803,-2.3179 -0.997362,-0.9141 -1.737252,-2.3618 -1.488193,-2.9119 0.466908,-1.0312 6.913938,-6.4622 8.154713,-6.8695 1.898316,-0.6233 3.439016,-1.7715 4.487823,-3.3451 0.771841,-1.1578 0.918786,-1.7212 0.918786,-3.5223 l 0,-2.1439 2.047955,0.1993 c 1.126375,0.1095 3.080128,0.5522 4.341669,0.9835 2.159275,0.7383 2.311837,0.8566 2.602851,2.0175 0.489021,1.9506 -0.266302,6.1853 -1.612856,9.0422 -3.001606,6.3682 -10.076829,10.529 -15.079945,8.8681 z m -10.538038,-2.4731 c -6.089651,-4.864 -8.3420539,-12.1286 -5.9868133,-19.3088 0.6204561,-1.8915 3.1363823,-6.1664 3.6291543,-6.1664 0.119044,0 0.524805,1.0229 0.901695,2.273 0.502401,1.6666 1.079235,2.7146 2.161792,3.9278 1.247465,1.398 1.476541,1.8665 1.476541,3.0199 0,2.3111 1.030274,4.0723 3.440571,5.8811 l 0.983018,0.7378 -3.084692,2.9078 c -3.047034,2.8722 -3.082223,2.923 -2.8821,4.1655 0.111429,0.6919 0.501864,1.8364 0.86764,2.5435 0.365775,0.707 0.533199,1.2855 0.372056,1.2855 -0.161147,0 -1.006632,-0.57 -1.878862,-1.2667 z m 7.578304,-12.5988 c -3.305199,-1.6483 -3.290909,-5.9837 0.02506,-7.6011 1.703317,-0.8308 3.510697,-0.8308 5.214019,0 3.327296,1.6228 3.327296,5.9846 0,7.6075 -1.70747,0.8328 -3.561136,0.8306 -5.239073,-0.01 z m -4.556724,-9.3328 c -0.677249,-1.0414 -1.405105,-3.2124 -1.667064,-4.9725 -0.259901,-1.7462 0.09028,-2.0854 3.30293,-3.1996 7.105215,-2.4641 15.164812,0.1205 19.415782,6.2265 1.482651,2.1296 1.704864,2.8407 0.800515,2.5613 -1.395769,-0.4312 -6.545174,-1.1881 -8.082269,-1.1881 -0.928797,0 -2.527781,-0.297 -3.553299,-0.6602 -3.083987,-1.0922 -5.809484,-0.7134 -8.224816,1.1428 -1.329695,1.0218 -1.384122,1.0242 -1.991779,0.09 z"
       style="fill:#000000;stroke:#ffffff;stroke-width:7.96621227;stroke-miterlimit:4;stroke-opacity:1;stroke-dasharray:none" />
    <path
       sodipodi:type="arc"
       style="fill:#ffffff;fill-opacity:1;stroke:#ffffff;stroke-width:8;stroke-linecap:round;stroke-linejoin:round;stroke-miterlimit:4;stroke-opacity:1;stroke-dasharray:none"
       id="path2984"
       sodipodi:cx="60.892857"
       sodipodi:cy="64.964287"
       sodipodi:rx="49.107143"
       sodipodi:ry="49.464287"
       d="m 110,64.964287 a 49.107143,49.464287 0 1 1 -98.214287,0 49.107143,49.464287 0 1 1 98.214287,0 z"
       transform="matrix(0.37687135,0,0,0.37444495,0.84955368,1004.3985)" />
    <path
       style="fill:#000000;stroke:#ffffff;stroke-width:4.46963787;stroke-miterlimit:4;stroke-opacity:1;stroke-dasharray:none"
       d="m 28.058158,1045.2245 c 3.367488,-0.7125 6.058963,-2.2381 8.798272,-4.9866 2.714641,-2.7239 4.141422,-5.2993 4.878573,-8.8061 1.85211,-8.811 -3.333727,-17.7502 -11.930437,-20.5659 -2.958733,-0.9689 -7.458297,-1.0921 -10.187371,-0.2786 -7.766764,2.3148 -12.9687084,9.0458 -13.0556824,16.8931 -0.036481,3.2918 0.3831668,5.2338 1.7689102,8.1858 1.4244726,3.0345 4.8956162,6.5564 7.9394972,8.0557 3.759502,1.8517 7.73968,2.3592 11.788238,1.5026 z m -3.492813,-2.8866 c -1.592097,-0.5287 -3.067924,-1.3111 -3.884299,-2.0594 -0.885942,-0.8121 -1.543177,-2.0981 -1.321943,-2.5868 0.414748,-0.9163 6.141557,-5.7413 7.243718,-6.1031 1.686248,-0.5537 3.054832,-1.5739 3.98647,-2.9718 0.685614,-1.0287 0.816146,-1.5292 0.816146,-3.1294 l 0,-1.9047 1.819169,0.1771 c 1.000542,0.097 2.736034,0.4906 3.856645,0.8738 1.91805,0.6559 2.053568,0.761 2.312073,1.7923 0.43439,1.733 -0.236554,5.4952 -1.432675,8.0332 -2.666285,5.6577 -8.951106,9.3544 -13.395304,7.8788 z m -9.360791,-2.1972 c -5.4093509,-4.3213 -7.410129,-10.7753 -5.3180024,-17.1544 0.5511424,-1.6804 2.7860054,-5.4783 3.2237274,-5.4783 0.105745,0 0.466178,0.9088 0.800962,2.0194 0.446277,1.4807 0.95867,2.4117 1.92029,3.4895 1.108104,1.242 1.311591,1.6582 1.311591,2.683 0,2.0533 0.915178,3.6179 3.05621,5.2249 l 0.873202,0.6554 -2.74009,2.5833 c -2.706637,2.5518 -2.737894,2.597 -2.560127,3.7009 0.09898,0.6145 0.445798,1.6313 0.77071,2.2595 0.324913,0.6282 0.473634,1.1421 0.330495,1.1421 -0.143145,0 -0.894178,-0.5064 -1.668968,-1.1253 z m 6.731703,-11.193 c -2.935964,-1.4644 -2.923271,-5.3162 0.02226,-6.7529 1.513032,-0.7382 3.118503,-0.7382 4.631538,0 2.955589,1.4418 2.955589,5.3167 0,6.7584 -1.516721,0.7401 -3.163307,0.738 -4.653794,-0.01 z m -4.047674,-8.2915 c -0.60159,-0.9252 -1.248137,-2.854 -1.480833,-4.4176 -0.230864,-1.5515 0.08018,-1.8528 2.93395,-2.8426 6.311461,-2.1893 13.470686,0.1071 17.246766,5.5316 1.317017,1.8921 1.514405,2.5238 0.711086,2.2756 -1.239843,-0.3829 -5.813988,-1.0555 -7.179369,-1.0555 -0.825037,0 -2.245389,-0.2639 -3.156346,-0.5866 -2.739461,-0.9702 -5.160483,-0.6338 -7.305986,1.0153 -1.181151,0.9078 -1.229496,0.9101 -1.769268,0.08 z"
       id="path2998-2-5"
       inkscape:connector-curvature="0"
       sodipodi:nodetypes="ssssssssssssssscsssssssssssscssssscsssccsssssssss" />
    <path
       style="fill:#000000;stroke:none"
       d="m 28.192378,1047.9309 c 3.790993,-0.8019 6.820957,-2.5189 9.904773,-5.6127 3.056047,-3.0661 4.662265,-5.965 5.492122,-9.9122 2.085039,-9.9175 -3.752988,-19.9796 -13.430855,-23.1487 -3.330832,-1.0907 -8.396278,-1.2292 -11.468568,-0.3137 -8.743542,2.6055 -14.5997027,10.1819 -14.6976152,19.0149 -0.041074,3.7053 0.4313554,5.8911 1.9913758,9.2138 1.6036196,3.4156 5.5113074,7.3799 8.9379954,9.0673 4.232314,2.0844 8.713053,2.6555 13.270772,1.6913 z m -3.932083,-3.2491 c -1.792327,-0.595 -3.453755,-1.4756 -4.372803,-2.3179 -0.997362,-0.9141 -1.737252,-2.3618 -1.488193,-2.9119 0.466908,-1.0312 6.913938,-6.4622 8.154713,-6.8695 1.898316,-0.6233 3.439016,-1.7715 4.487823,-3.3451 0.771841,-1.1578 0.918786,-1.7212 0.918786,-3.5223 l 0,-2.1439 2.047955,0.1993 c 1.126375,0.1095 3.080128,0.5522 4.341669,0.9835 2.159275,0.7383 2.311837,0.8566 2.602851,2.0175 0.489021,1.9506 -0.266302,6.1853 -1.612856,9.0422 -3.001606,6.3682 -10.076829,10.529 -15.079945,8.8681 z m -10.538038,-2.4731 c -6.089651,-4.864 -8.3420539,-12.1286 -5.9868133,-19.3088 0.6204561,-1.8915 3.1363823,-6.1664 3.6291543,-6.1664 0.119044,0 0.524805,1.0229 0.901695,2.273 0.502401,1.6666 1.079235,2.7146 2.161792,3.9278 1.247465,1.398 1.476541,1.8665 1.476541,3.0199 0,2.3111 1.030274,4.0723 3.440571,5.8811 l 0.983018,0.7378 -3.084692,2.9078 c -3.047034,2.8722 -3.082223,2.923 -2.8821,4.1655 0.111429,0.6919 0.501864,1.8364 0.86764,2.5435 0.365775,0.707 0.533199,1.2855 0.372056,1.2855 -0.161147,0 -1.006632,-0.57 -1.878862,-1.2667 z m 7.578304,-12.5988 c -3.305199,-1.6483 -3.290909,-5.9837 0.02506,-7.6011 1.703317,-0.8308 3.510697,-0.8308 5.214019,0 3.327296,1.6228 3.327296,5.9846 0,7.6075 -1.70747,0.8328 -3.561136,0.8306 -5.239073,-0.01 z m -4.556724,-9.3328 c -0.677249,-1.0414 -1.405105,-3.2124 -1.667064,-4.9725 -0.259901,-1.7462 0.09028,-2.0854 3.30293,-3.1996 7.105215,-2.4641 15.164812,0.1205 19.415782,6.2265 1.482651,2.1296 1.704864,2.8407 0.800515,2.5613 -1.395769,-0.4312 -6.545174,-1.1881 -8.082269,-1.1881 -0.928797,0 -2.527781,-0.297 -3.553299,-0.6602 -3.083987,-1.0922 -5.809484,-0.7134 -8.224816,1.1428 -1.329695,1.0218 -1.384122,1.0242 -1.991779,0.09 z"
       id="path2998-2"
       inkscape:connector-curvature="0"
       sodipodi:nodetypes="ssssssssssssssscsssssssssssscssssscsssccsssssssss" />
  </g>
</svg>
