<?xml version="1.0" encoding="UTF-8" standalone="no"?>
<!-- Created with Inkscape (http://www.inkscape.org/) -->

<svg
   xmlns:dc="http://purl.org/dc/elements/1.1/"
   xmlns:cc="http://creativecommons.org/ns#"
   xmlns:rdf="http://www.w3.org/1999/02/22-rdf-syntax-ns#"
   xmlns:svg="http://www.w3.org/2000/svg"
   xmlns="http://www.w3.org/2000/svg"
   version="1.1"
   width="48"
   height="48"
   id="svg2">
  <defs
     id="defs4" />
  <metadata
     id="metadata7">
    <rdf:RDF>
      <cc:Work
         rdf:about="">
        <dc:format>image/svg+xml</dc:format>
        <dc:type
           rdf:resource="http://purl.org/dc/dcmitype/StillImage" />
        <dc:title></dc:title>
      </cc:Work>
    </rdf:RDF>
  </metadata>
  <g
     transform="translate(0,-1004.3622)"
     id="layer1">
    <g
       id="g3774"
       style="stroke:#ffffff;stroke-width:8;stroke-miterlimit:4;stroke-opacity:1;stroke-dasharray:none">
      <g
         transform="matrix(0.15874,0,0,0.15874,-29.52323,961.92938)"
         id="g3776"
         style="stroke:#ffffff;stroke-width:50.39687729;stroke-miterlimit:4;stroke-opacity:1;stroke-dasharray:none">
        <path
           d="m 317.64287,543.00145 c -26.88308,-4.12601 -48.94173,-15.55747 -69.07092,-35.79465 -11.58484,-11.647 -17.78027,-20.10538 -24.36573,-33.26565 -13.58475,-27.14754 -16.73254,-60.07808 -8.54225,-89.36467 13.10899,-46.87474 48.87285,-80.05619 97.71072,-90.65531 11.45614,-2.48628 36.08022,-2.48628 47.53636,0 48.80523,10.59204 84.61049,43.81191 97.71072,90.65531 9.79985,35.04202 3.60871,72.70131 -17.15741,104.36467 -6.65632,10.14929 -24.92881,28.16675 -35.58233,35.08573 -26.25921,17.05413 -57.28397,23.72557 -88.23916,18.97457 z m -32.5,-16.98215 c 0,-0.30645 -0.49541,-2.52461 -1.1009,-4.92925 -1.32192,-5.24982 0.10257,-10.70091 3.39994,-13.01047 3.24637,-2.27385 10.23076,-1.8182 21.77753,1.42072 20.72448,5.8133 26.4647,6.5383 51.92343,6.558 19.15139,0.0148 25.0729,-0.32316 32,-1.82642 13.21309,-2.8674 23.28669,-5.70944 25.72758,-7.25847 2.88578,-1.83136 15.27242,-16.34021 15.27242,-17.88905 0,-0.80101 -4.30799,-0.0587 -13.25,2.28319 -12.03604,3.15218 -14.86413,3.51503 -30.86771,3.96045 -36.38025,1.01253 -60.17046,-4.28542 -112.38229,-25.02694 -25.56898,-10.15746 -28.57882,-11.1276 -34.66673,-11.17389 -5.76922,-0.0439 -7.02728,0.28587 -9.34501,2.44931 -1.47306,1.375 -3.32008,3.73362 -4.10449,5.24137 -1.30806,2.51427 -1.20588,3.17701 1.23345,8 6.6788,13.20523 18.49677,27.55579 30.65006,37.21836 11.94921,9.50033 23.73272,16.44305 23.73272,13.98309 z M 451.9887,453.26225 c 1.01242,-1.21989 4.10602,-12.70288 4.13939,-15.36481 0.008,-0.64847 -2.34772,-1.86987 -5.23522,-2.71422 -13.3313,-3.89828 -33.52222,-16.26463 -55.95251,-34.2693 -12.3178,-9.88742 -19.94179,-16.82195 -44.11456,-40.12517 -29.36182,-28.30561 -46.86753,-37.19445 -70.68293,-35.89056 -5.225,0.28607 -13.00134,1.30317 -17.28075,2.26022 -7.54788,1.688 -7.97252,1.94335 -14.18739,8.53145 -10.89716,11.55155 -23.28587,32.14754 -25.19527,41.88662 l -0.6862,3.5 5.92481,-5.07676 c 19.49436,-16.70404 31.59193,-19.91458 49.4248,-13.1167 10.39965,3.96434 22.76804,11.27645 44.74225,26.45132 32.96596,22.76552 53.00411,35.98719 63.28936,41.75988 10.93768,6.13888 27.73946,13.59405 39.2443,17.41322 5.2995,1.75923 21.13786,5.58229 24.85165,5.99868 0.34515,0.0387 1.11837,-0.52104 1.71827,-1.24387 z m -4.06262,-62.24647 c 1.22551,-0.85839 2.9049,-2.86929 3.73197,-4.46866 1.37611,-2.66109 1.3225,-3.44117 -0.63142,-9.18929 -3.17098,-9.32846 -10.51725,-23.11535 -16.88902,-31.69596 -18.8325,-25.36096 -45.4488,-41.94396 -76.49474,-47.65923 -11.97734,-2.20491 -37.55279,-1.49285 -48.29912,1.34473 -11.30481,2.98505 -11.34148,4.22911 -0.12465,4.22911 43.19921,0 71.62414,15.36384 98.43233,53.20326 5.96053,8.4132 12.84574,17.77174 15.30047,20.79674 10.86397,13.38785 18.88511,17.70425 24.97418,13.4393 z"
           id="path3778"
           style="fill:#000000;fill-opacity:1;stroke:#ffffff;stroke-width:50.39687729;stroke-miterlimit:4;stroke-opacity:1;stroke-dasharray:none" />
      </g>
    </g>
    <g
       id="g3770">
      <g
         transform="matrix(0.15874,0,0,0.15874,-29.52323,961.92938)"
         id="g2996">
        <path
           d="m 317.64287,543.00145 c -26.88308,-4.12601 -48.94173,-15.55747 -69.07092,-35.79465 -11.58484,-11.647 -17.78027,-20.10538 -24.36573,-33.26565 -13.58475,-27.14754 -16.73254,-60.07808 -8.54225,-89.36467 13.10899,-46.87474 48.87285,-80.05619 97.71072,-90.65531 11.45614,-2.48628 36.08022,-2.48628 47.53636,0 48.80523,10.59204 84.61049,43.81191 97.71072,90.65531 9.79985,35.04202 3.60871,72.70131 -17.15741,104.36467 -6.65632,10.14929 -24.92881,28.16675 -35.58233,35.08573 -26.25921,17.05413 -57.28397,23.72557 -88.23916,18.97457 z m -32.5,-16.98215 c 0,-0.30645 -0.49541,-2.52461 -1.1009,-4.92925 -1.32192,-5.24982 0.10257,-10.70091 3.39994,-13.01047 3.24637,-2.27385 10.23076,-1.8182 21.77753,1.42072 20.72448,5.8133 26.4647,6.5383 51.92343,6.558 19.15139,0.0148 25.0729,-0.32316 32,-1.82642 13.21309,-2.8674 23.28669,-5.70944 25.72758,-7.25847 2.88578,-1.83136 15.27242,-16.34021 15.27242,-17.88905 0,-0.80101 -4.30799,-0.0587 -13.25,2.28319 -12.03604,3.15218 -14.86413,3.51503 -30.86771,3.96045 -36.38025,1.01253 -60.17046,-4.28542 -112.38229,-25.02694 -25.56898,-10.15746 -28.57882,-11.1276 -34.66673,-11.17389 -5.76922,-0.0439 -7.02728,0.28587 -9.34501,2.44931 -1.47306,1.375 -3.32008,3.73362 -4.10449,5.24137 -1.30806,2.51427 -1.20588,3.17701 1.23345,8 6.6788,13.20523 18.49677,27.55579 30.65006,37.21836 11.94921,9.50033 23.73272,16.44305 23.73272,13.98309 z M 451.9887,453.26225 c 1.01242,-1.21989 4.10602,-12.70288 4.13939,-15.36481 0.008,-0.64847 -2.34772,-1.86987 -5.23522,-2.71422 -13.3313,-3.89828 -33.52222,-16.26463 -55.95251,-34.2693 -12.3178,-9.88742 -19.94179,-16.82195 -44.11456,-40.12517 -29.36182,-28.30561 -46.86753,-37.19445 -70.68293,-35.89056 -5.225,0.28607 -13.00134,1.30317 -17.28075,2.26022 -7.54788,1.688 -7.97252,1.94335 -14.18739,8.53145 -10.89716,11.55155 -23.28587,32.14754 -25.19527,41.88662 l -0.6862,3.5 5.92481,-5.07676 c 19.49436,-16.70404 31.59193,-19.91458 49.4248,-13.1167 10.39965,3.96434 22.76804,11.27645 44.74225,26.45132 32.96596,22.76552 53.00411,35.98719 63.28936,41.75988 10.93768,6.13888 27.73946,13.59405 39.2443,17.41322 5.2995,1.75923 21.13786,5.58229 24.85165,5.99868 0.34515,0.0387 1.11837,-0.52104 1.71827,-1.24387 z m -4.06262,-62.24647 c 1.22551,-0.85839 2.9049,-2.86929 3.73197,-4.46866 1.37611,-2.66109 1.3225,-3.44117 -0.63142,-9.18929 -3.17098,-9.32846 -10.51725,-23.11535 -16.88902,-31.69596 -18.8325,-25.36096 -45.4488,-41.94396 -76.49474,-47.65923 -11.97734,-2.20491 -37.55279,-1.49285 -48.29912,1.34473 -11.30481,2.98505 -11.34148,4.22911 -0.12465,4.22911 43.19921,0 71.62414,15.36384 98.43233,53.20326 5.96053,8.4132 12.84574,17.77174 15.30047,20.79674 10.86397,13.38785 18.88511,17.70425 24.97418,13.4393 z"
           id="path2998"
           style="fill:#000000;fill-opacity:1" />
      </g>
    </g>
  </g>
</svg>
