<?xml version="1.0" encoding="UTF-8" standalone="no"?>
<!-- Created with Inkscape (http://www.inkscape.org/) -->

<svg
   xmlns:dc="http://purl.org/dc/elements/1.1/"
   xmlns:cc="http://creativecommons.org/ns#"
   xmlns:rdf="http://www.w3.org/1999/02/22-rdf-syntax-ns#"
   xmlns:svg="http://www.w3.org/2000/svg"
   xmlns="http://www.w3.org/2000/svg"
   version="1.1"
   width="48"
   height="48"
   id="svg2">
  <defs
     id="defs4" />
  <metadata
     id="metadata7">
    <rdf:RDF>
      <cc:Work
         rdf:about="">
        <dc:format>image/svg+xml</dc:format>
        <dc:type
           rdf:resource="http://purl.org/dc/dcmitype/StillImage" />
        <dc:title></dc:title>
      </cc:Work>
    </rdf:RDF>
  </metadata>
  <g
     transform="translate(-281.15496,-582.59375)"
     id="layer1">
    <path
       d="m 286.48733,626.39235 c -0.57627,-0.25101 -1.17832,-0.98256 -1.28125,-1.55686 -0.0455,-0.25362 -0.0641,-8.65568 -0.0415,-18.67123 l 0.0412,-18.21009 0.29954,-0.40424 c 0.16475,-0.22233 0.51256,-0.54922 0.77291,-0.72641 l 0.47337,-0.32217 18.42879,0 18.4288,0 0.47336,0.32217 c 0.26036,0.17719 0.60817,0.50409 0.77291,0.72643 l 0.29954,0.40427 0,18.59333 0,18.59333 -0.29954,0.40427 c -0.16474,0.22234 -0.51255,0.54924 -0.77291,0.72643 l -0.47336,0.32217 -18.34258,-0.006 c -14.92671,-0.005 -18.4239,-0.041 -18.77924,-0.1958 z m 27.17556,-10.00068 0.0371,-7.33834 2.74142,-0.0388 2.74142,-0.0388 0.0934,-2.25216 c 0.0513,-1.23868 0.10639,-2.41324 0.12232,-2.61012 l 0.029,-0.35797 -2.89954,-0.0388 -2.89954,-0.0388 0.003,-2.10905 c 0.004,-2.52638 0.11948,-3.12167 0.70718,-3.64831 0.43905,-0.39344 0.44124,-0.39376 2.64124,-0.39376 1.62989,0 2.21941,-0.0465 2.26953,-0.17899 0.0373,-0.0984 0.0802,-1.21721 0.0955,-2.48615 l 0.0278,-2.30717 -0.45607,-0.0912 c -0.95452,-0.1909 -4.862,-0.0983 -5.76913,0.13673 -2.58457,0.66962 -4.25073,2.28449 -4.89023,4.7397 -0.1536,0.58972 -0.21358,1.59571 -0.21358,3.58208 l 0,2.76207 -1.93303,0 -1.93303,0 0,2.64896 0,2.64896 1.93303,0 1.93303,0 0,7.37414 0,7.37414 2.79085,0 2.79085,0 0.0371,-7.33834 z"
       id="path3783"
       style="fill:#000000;fill-opacity:1;stroke:#ffffff;stroke-width:8;stroke-miterlimit:4;stroke-opacity:1;stroke-dasharray:none" />
    <path
       d="m 286.48733,626.39235 c -0.57627,-0.25101 -1.17832,-0.98256 -1.28125,-1.55686 -0.0455,-0.25362 -0.0641,-8.65568 -0.0415,-18.67123 l 0.0412,-18.21009 0.29954,-0.40424 c 0.16475,-0.22233 0.51256,-0.54922 0.77291,-0.72641 l 0.47337,-0.32217 18.42879,0 18.4288,0 0.47336,0.32217 c 0.26036,0.17719 0.60817,0.50409 0.77291,0.72643 l 0.29954,0.40427 0,18.59333 0,18.59333 -0.29954,0.40427 c -0.16474,0.22234 -0.51255,0.54924 -0.77291,0.72643 l -0.47336,0.32217 -18.34258,-0.006 c -14.92671,-0.005 -18.4239,-0.041 -18.77924,-0.1958 z m 27.17556,-10.00068 0.0371,-7.33834 2.74142,-0.0388 2.74142,-0.0388 0.0934,-2.25216 c 0.0513,-1.23868 0.10639,-2.41324 0.12232,-2.61012 l 0.029,-0.35797 -2.89954,-0.0388 -2.89954,-0.0388 0.003,-2.10905 c 0.004,-2.52638 0.11948,-3.12167 0.70718,-3.64831 0.43905,-0.39344 0.44124,-0.39376 2.64124,-0.39376 1.62989,0 2.21941,-0.0465 2.26953,-0.17899 0.0373,-0.0984 0.0802,-1.21721 0.0955,-2.48615 l 0.0278,-2.30717 -0.45607,-0.0912 c -0.95452,-0.1909 -4.862,-0.0983 -5.76913,0.13673 -2.58457,0.66962 -4.25073,2.28449 -4.89023,4.7397 -0.1536,0.58972 -0.21358,1.59571 -0.21358,3.58208 l 0,2.76207 -1.93303,0 -1.93303,0 0,2.64896 0,2.64896 1.93303,0 1.93303,0 0,7.37414 0,7.37414 2.79085,0 2.79085,0 0.0371,-7.33834 z"
       id="path3781"
       style="fill:#000000;fill-opacity:1" />
  </g>
</svg>
