<?xml version="1.0" encoding="UTF-8" standalone="no"?>
<!-- Created with Inkscape (http://www.inkscape.org/) -->

<svg
   xmlns:dc="http://purl.org/dc/elements/1.1/"
   xmlns:cc="http://creativecommons.org/ns#"
   xmlns:rdf="http://www.w3.org/1999/02/22-rdf-syntax-ns#"
   xmlns:svg="http://www.w3.org/2000/svg"
   xmlns="http://www.w3.org/2000/svg"
   xmlns:sodipodi="http://sodipodi.sourceforge.net/DTD/sodipodi-0.dtd"
   xmlns:inkscape="http://www.inkscape.org/namespaces/inkscape"
   version="1.1"
   width="48"
   height="48"
   viewBox="0 0 48 48"
   id="svg1358"
   xml:space="preserve"
   inkscape:version="0.48.3.1 r9886"
   sodipodi:docname="im.svg"><sodipodi:namedview
   pagecolor="#ffffff"
   bordercolor="#666666"
   borderopacity="1"
   objecttolerance="10"
   gridtolerance="10"
   guidetolerance="10"
   inkscape:pageopacity="0"
   inkscape:pageshadow="2"
   inkscape:window-width="1366"
   inkscape:window-height="717"
   id="namedview15"
   showgrid="false"
   inkscape:zoom="6.9532167"
   inkscape:cx="23.096326"
   inkscape:cy="15.982035"
   inkscape:window-x="0"
   inkscape:window-y="0"
   inkscape:window-maximized="1"
   inkscape:current-layer="g3772" /><defs
   id="defs9"><filter
     x="0"
     y="0"
     width="1"
     height="1"
     color-interpolation-filters="sRGB"
     id="filter3017"><feColorMatrix
       id="feColorMatrix3019"
       type="saturate"
       values="1"
       result="fbSourceGraphic" /><feColorMatrix
       id="feColorMatrix3021"
       in="fbSourceGraphic"
       values="-1 0 0 0 1 0 -1 0 0 1 0 0 -1 0 1 0 0 0 1 0 " /></filter><filter
     x="0"
     y="0"
     width="1"
     height="1"
     color-interpolation-filters="sRGB"
     id="filter3017-6"><feColorMatrix
       id="feColorMatrix3019-0"
       type="saturate"
       values="1"
       result="fbSourceGraphic" /><feColorMatrix
       id="feColorMatrix3021-8"
       in="fbSourceGraphic"
       values="-1 0 0 0 1 0 -1 0 0 1 0 0 -1 0 1 0 0 0 1 0 " /></filter></defs>
<metadata
   id="metadata1375">
  <rdf:RDF>
    <cc:Work
   rdf:about="">
      <dc:format>image/svg+xml</dc:format>
      <dc:type
   rdf:resource="http://purl.org/dc/dcmitype/StillImage" />
      <dc:title></dc:title>
      <dc:description>A folder</dc:description>
      <cc:license
   rdf:resource="http://creativecommons.org/licenses/LGPL/2.1/" />
      <dc:contributor>
        <cc:Agent>
          <dc:title />
        </cc:Agent>
      </dc:contributor>
      <dc:subject>
        <rdf:Bag>
          <rdf:li>folder</rdf:li>
          <rdf:li>directory</rdf:li>
        </rdf:Bag>
      </dc:subject>
    </cc:Work>
    <cc:License
   rdf:about="http://creativecommons.org/licenses/LGPL/2.1/"><cc:permits
     rdf:resource="http://web.resource.org/cc/Reproduction" /><cc:permits
     rdf:resource="http://web.resource.org/cc/Distribution" /><cc:requires
     rdf:resource="http://web.resource.org/cc/Notice" /><cc:permits
     rdf:resource="http://web.resource.org/cc/DerivativeWorks" /><cc:requires
     rdf:resource="http://web.resource.org/cc/ShareAlike" /><cc:requires
     rdf:resource="http://web.resource.org/cc/SourceCode" /></cc:License></rdf:RDF></metadata>
	
<g
   id="g3772"
   transform="matrix(1.7581312,0,0,1.7581312,78.553097,-22.512702)"><g
     id="g3780"
     style="stroke:#ffffff;stroke-opacity:1;stroke-width:6.82542918;stroke-miterlimit:4;stroke-dasharray:none"><path
       inkscape:connector-curvature="0"
       style="fill:#ffffff;fill-opacity:1;stroke:#ffffff;stroke-width:6.82542918;stroke-miterlimit:4;stroke-opacity:1;stroke-dasharray:none"
       id="path3776"
       d="m -34.015355,17.686043 c -2.684371,0 -4.862991,2.117113 -4.862991,4.7257 0,1.377252 0.608287,2.611353 1.576673,3.475358 0.0095,0.0099 0.0189,0.01974 0.02849,0.02953 0.05354,0.04697 0.105805,0.09319 0.161467,0.137833 0.07459,0.06949 0.139555,0.142279 0.218455,0.20675 l -1.652657,0 c -1.535111,0 -2.763926,1.467055 -2.763926,3.278455 l 0,3.268609 14.588972,0 0,-3.268609 c 0,-1.8114 -1.228816,-3.278455 -2.763927,-3.278455 l -1.652657,0 c 0.0789,-0.06447 0.143862,-0.13726 0.218455,-0.20675 0.05566,-0.04465 0.107922,-0.09087 0.161466,-0.137833 0.0096,-0.0098 0.01898,-0.01965 0.02849,-0.02953 0.968389,-0.864005 1.576676,-2.098106 1.576676,-3.475358 0,-2.608587 -2.178619,-4.7257 -4.86299,-4.7257 z" /><path
       inkscape:connector-curvature="0"
       style="fill:#ffffff;fill-opacity:1;stroke:#ffffff;stroke-width:6.82542918;stroke-miterlimit:4;stroke-opacity:1;stroke-dasharray:none"
       id="path3778"
       d="m -28.042688,19.90798 c -2.684371,0 -4.86299,2.117114 -4.86299,4.725701 0,1.377252 0.608287,2.611352 1.576672,3.475358 0.0095,0.0099 0.0189,0.01974 0.02849,0.02954 0.05354,0.04697 0.105805,0.09319 0.161466,0.137833 0.07459,0.06949 0.139555,0.142278 0.218455,0.206749 l -1.652657,0 c -1.53511,0 -2.763927,1.467056 -2.763927,3.278455 l 0,3.268609 14.588972,0 0,-3.268609 c 0,-1.811399 -1.228815,-3.278455 -2.763926,-3.278455 l -1.652657,0 c 0.0789,-0.06447 0.143861,-0.13726 0.218455,-0.206749 0.05566,-0.04465 0.107923,-0.09087 0.161467,-0.137833 0.0096,-0.0098 0.01898,-0.01965 0.02849,-0.02954 0.968389,-0.864006 1.576677,-2.098106 1.576677,-3.475358 0,-2.608587 -2.17862,-4.725701 -4.862991,-4.725701 z" /></g><path
     inkscape:connector-curvature="0"
     style="fill:#ffffff;fill-opacity:1;stroke:#000000;stroke-width:2.18979192;stroke-miterlimit:4;stroke-opacity:1;stroke-dasharray:none"
     id="rect4337"
     d="m -34.015355,17.686043 c -2.684371,0 -4.862991,2.117113 -4.862991,4.7257 0,1.377252 0.608287,2.611353 1.576673,3.475358 0.0095,0.0099 0.0189,0.01974 0.02849,0.02953 0.05354,0.04697 0.105805,0.09319 0.161467,0.137833 0.07459,0.06949 0.139555,0.142279 0.218455,0.20675 l -1.652657,0 c -1.535111,0 -2.763926,1.467055 -2.763926,3.278455 l 0,3.268609 14.588972,0 0,-3.268609 c 0,-1.8114 -1.228816,-3.278455 -2.763927,-3.278455 l -1.652657,0 c 0.0789,-0.06447 0.143862,-0.13726 0.218455,-0.20675 0.05566,-0.04465 0.107922,-0.09087 0.161466,-0.137833 0.0096,-0.0098 0.01898,-0.01965 0.02849,-0.02953 0.968389,-0.864005 1.576676,-2.098106 1.576676,-3.475358 0,-2.608587 -2.178619,-4.7257 -4.86299,-4.7257 z" /><path
     inkscape:connector-curvature="0"
     style="fill:#ffffff;fill-opacity:1;stroke:#000000;stroke-width:2.18979192;stroke-miterlimit:4;stroke-opacity:1;stroke-dasharray:none"
     id="rect4337-0"
     d="m -28.042688,19.90798 c -2.684371,0 -4.86299,2.117114 -4.86299,4.725701 0,1.377252 0.608287,2.611352 1.576672,3.475358 0.0095,0.0099 0.0189,0.01974 0.02849,0.02954 0.05354,0.04697 0.105805,0.09319 0.161466,0.137833 0.07459,0.06949 0.139555,0.142278 0.218455,0.206749 l -1.652657,0 c -1.53511,0 -2.763927,1.467056 -2.763927,3.278455 l 0,3.268609 14.588972,0 0,-3.268609 c 0,-1.811399 -1.228815,-3.278455 -2.763926,-3.278455 l -1.652657,0 c 0.0789,-0.06447 0.143861,-0.13726 0.218455,-0.206749 0.05566,-0.04465 0.107923,-0.09087 0.161467,-0.137833 0.0096,-0.0098 0.01898,-0.01965 0.02849,-0.02954 0.968389,-0.864006 1.576677,-2.098106 1.576677,-3.475358 0,-2.608587 -2.17862,-4.725701 -4.862991,-4.725701 z" /></g></svg>