<?xml version="1.0" encoding="UTF-8" standalone="no"?>
<!-- Created with Inkscape (http://www.inkscape.org/) -->

<svg
   xmlns:dc="http://purl.org/dc/elements/1.1/"
   xmlns:cc="http://creativecommons.org/ns#"
   xmlns:rdf="http://www.w3.org/1999/02/22-rdf-syntax-ns#"
   xmlns:svg="http://www.w3.org/2000/svg"
   xmlns="http://www.w3.org/2000/svg"
   version="1.1"
   width="48"
   height="48"
   id="svg2">
  <metadata
     id="metadata8">
    <rdf:RDF>
      <cc:Work
         rdf:about="">
        <dc:format>image/svg+xml</dc:format>
        <dc:type
           rdf:resource="http://purl.org/dc/dcmitype/StillImage" />
        <dc:title></dc:title>
      </cc:Work>
    </rdf:RDF>
  </metadata>
  <defs
     id="defs6" />
  <g
     transform="translate(-11.822037,-281.375)"
     id="g2993">
    <path
       d="m 31.830207,325.13292 c -3.824673,-0.69102 -7.462735,-2.64653 -10.37469,-5.57654 -4.421219,-4.44864 -6.337658,-10.29005 -5.4015,-16.46405 0.628872,-4.14743 2.287037,-7.32765 5.480348,-10.51083 4.298426,-4.2848 9.011195,-6.10035 15.167374,-5.8431 2.302083,0.0962 3.8251,0.36551 5.782006,1.02242 4.245678,1.42522 8.443122,4.85273 10.776831,8.80004 3.786538,6.40465 3.338866,14.78062 -1.103664,20.64961 -3.233809,4.27216 -7.755826,7.07821 -12.789179,7.93608 -1.821018,0.31037 -5.783875,0.3032 -7.537526,-0.0136 z m 14.35413,-5.22387 c 0.603086,-0.12782 1.414829,-0.3839 1.803874,-0.56907 0.389044,-0.18517 0.522866,-0.28858 0.297381,-0.2298 -0.762566,0.19881 -3.355322,0.0973 -4.42769,-0.17329 -0.586259,-0.14794 -1.585841,-0.52309 -2.221295,-0.83366 -3.248713,-1.58775 -4.515885,-4.55799 -3.464238,-8.12015 0.225812,-0.76488 0.374812,-1.44854 0.331112,-1.51924 -0.0437,-0.0707 -0.370011,-0.27679 -0.725136,-0.45796 -0.59466,-0.30338 -0.683849,-0.30967 -1.128649,-0.0797 -0.610485,0.31569 -1.592708,0.3189 -2.190382,0.007 -0.428281,-0.22338 -0.507938,-0.21106 -1.115585,0.17253 -0.456695,0.28829 -0.629142,0.4975 -0.57085,0.69254 0.533094,1.78366 0.614747,2.49271 0.445962,3.87258 -0.28003,2.28932 -1.053259,3.54496 -2.972045,4.82627 -1.706168,1.13934 -2.815488,1.41991 -5.613933,1.41991 l -2.416215,0 0.940318,0.35624 c 1.482994,0.56182 3.02181,0.7613 5.117691,0.6634 3.07897,-0.14382 5.239104,-1.14352 6.602962,-3.05584 0.384374,-0.53894 0.735759,-0.98033 0.780856,-0.98086 0.0451,-4.9e-4 0.340276,0.40993 0.655954,0.91213 1.356576,2.15814 3.856674,3.29521 7.29749,3.31896 0.811743,0.006 1.969332,-0.0944 2.572418,-0.2222 z m -14.072981,-7.0184 c 0.149113,-0.55642 0.122845,-1.10692 -0.05282,-1.10692 -0.0859,0 -0.537098,-0.38092 -1.002666,-0.84649 -0.950373,-0.95038 -2.038768,-3.00336 -2.214894,-4.17785 -0.09553,-0.63703 -0.181368,-0.75739 -0.692494,-0.97095 -0.7054,-0.29473 -0.847194,-0.15253 -0.850912,0.85337 -0.0081,2.17955 1.876944,5.24587 3.85122,6.26478 0.828997,0.42784 0.843702,0.4276 0.962566,-0.0159 z m 8.118303,-0.0306 c 2.120941,-1.07477 4.111789,-4.65114 3.727987,-6.69698 -0.131266,-0.6997 -0.09819,-0.68447 -0.82593,-0.3804 -0.469578,0.1962 -0.569271,0.33651 -0.670009,0.94293 -0.268735,1.61776 -1.864517,4.29349 -2.871007,4.81396 -0.49257,0.25472 -0.639681,0.80722 -0.388926,1.46068 0.126107,0.32863 0.0941,0.33299 1.027885,-0.14019 z m -20.065647,-6.46209 c 2.104169,-1.99177 4.142901,-2.83542 6.223731,-2.57544 1.422995,0.17779 3.374206,1.23513 4.579105,2.48135 l 1.001885,1.03624 0.696951,-0.41865 c 0.462845,-0.27803 0.696952,-0.53339 0.696952,-0.76021 0,-0.57042 0.619719,-1.65525 1.14423,-2.00298 0.430789,-0.2856 0.494773,-0.42536 0.495183,-1.08165 l 4.72e-4,-0.75367 -1.270911,-0.36754 c -1.802743,-0.52135 -3.034513,-1.22899 -4.051701,-2.32767 -1.254935,-1.35549 -1.631082,-2.39427 -1.625423,-4.48884 0.0063,-2.339 0.702435,-4.17517 2.255188,-5.94858 0.260037,-0.29699 0.428912,-0.58386 0.375281,-0.63749 -0.05363,-0.0536 -0.784877,0.59455 -1.624993,1.4404 -2.39497,2.41134 -3.340826,4.65504 -3.211256,7.61754 0.0553,1.26445 0.144749,1.66217 0.564091,2.50822 l 0.498366,1.00549 -0.605611,0 c -1.030695,0 -2.324519,0.31309 -3.428309,0.82962 -1.582188,0.7404 -3.539581,2.78349 -4.406905,4.59986 -1.093723,2.2905 -1.428731,4.61929 -0.356268,2.47657 0.527873,-1.05466 0.934077,-1.57631 2.049942,-2.63257 z m 33.535862,2.54499 c -0.515173,-2.61858 -2.439234,-5.30922 -4.814626,-6.73287 -0.971929,-0.58251 -2.727737,-1.0856 -3.788808,-1.0856 -0.32042,0 -0.582584,-0.028 -0.582584,-0.0622 0,-0.0342 0.202936,-0.49541 0.450969,-1.02493 0.41001,-0.87531 0.450968,-1.13402 0.450968,-2.84861 0,-2.28376 -0.33412,-3.41777 -1.554869,-5.27728 -0.766631,-1.16778 -2.774943,-3.25013 -3.134565,-3.25013 -0.09226,0 0.127012,0.35053 0.487277,0.77895 1.730986,2.05845 2.4992,5.02295 1.929194,7.44466 -0.586489,2.49174 -2.303344,4.0384 -5.639799,5.08074 l -1.188602,0.37132 0,0.71623 c 0,0.59637 0.08331,0.78632 0.497856,1.13514 0.606938,0.5107 0.977246,1.19308 0.980404,1.80661 0.0019,0.3771 0.141447,0.53577 0.781035,0.88831 l 0.778672,0.42919 1.199148,-1.12328 c 0.769076,-0.72042 1.645902,-1.34407 2.444811,-1.73892 1.128104,-0.55754 1.3707,-0.61572 2.570501,-0.61645 2.213888,-10e-4 3.815971,0.7642 5.867595,2.80385 0.801576,0.7969 1.312612,1.48992 1.739846,2.35942 0.332702,0.67711 0.631681,1.16871 0.664398,1.09245 0.03272,-0.0763 -0.02975,-0.59224 -0.138821,-1.14662 z M 34.26524,299.63643 c 1.387556,-0.24163 3.018348,-0.11674 4.165025,0.31896 l 0.872882,0.33167 0.473503,-0.35008 c 0.581345,-0.42981 0.584649,-0.50514 0.04091,-0.93285 -1.619746,-1.27409 -6.138584,-1.35157 -7.932675,-0.13601 -0.725173,0.49133 -0.742899,0.63211 -0.133253,1.0583 0.464169,0.32449 0.557926,0.33749 0.954595,0.13237 0.241929,-0.12511 0.943483,-0.31517 1.559011,-0.42236 z"
       id="path2999"
       style="fill:#040404;stroke:#ffffff;stroke-width:8;stroke-miterlimit:4;stroke-opacity:1;stroke-dasharray:none" />
    <path
       d="m 31.830207,325.13292 c -3.824673,-0.69102 -7.462735,-2.64653 -10.37469,-5.57654 -4.421219,-4.44864 -6.337658,-10.29005 -5.4015,-16.46405 0.628872,-4.14743 2.287037,-7.32765 5.480348,-10.51083 4.298426,-4.2848 9.011195,-6.10035 15.167374,-5.8431 2.302083,0.0962 3.8251,0.36551 5.782006,1.02242 4.245678,1.42522 8.443122,4.85273 10.776831,8.80004 3.786538,6.40465 3.338866,14.78062 -1.103664,20.64961 -3.233809,4.27216 -7.755826,7.07821 -12.789179,7.93608 -1.821018,0.31037 -5.783875,0.3032 -7.537526,-0.0136 z m 14.35413,-5.22387 c 0.603086,-0.12782 1.414829,-0.3839 1.803874,-0.56907 0.389044,-0.18517 0.522866,-0.28858 0.297381,-0.2298 -0.762566,0.19881 -3.355322,0.0973 -4.42769,-0.17329 -0.586259,-0.14794 -1.585841,-0.52309 -2.221295,-0.83366 -3.248713,-1.58775 -4.515885,-4.55799 -3.464238,-8.12015 0.225812,-0.76488 0.374812,-1.44854 0.331112,-1.51924 -0.0437,-0.0707 -0.370011,-0.27679 -0.725136,-0.45796 -0.59466,-0.30338 -0.683849,-0.30967 -1.128649,-0.0797 -0.610485,0.31569 -1.592708,0.3189 -2.190382,0.007 -0.428281,-0.22338 -0.507938,-0.21106 -1.115585,0.17253 -0.456695,0.28829 -0.629142,0.4975 -0.57085,0.69254 0.533094,1.78366 0.614747,2.49271 0.445962,3.87258 -0.28003,2.28932 -1.053259,3.54496 -2.972045,4.82627 -1.706168,1.13934 -2.815488,1.41991 -5.613933,1.41991 l -2.416215,0 0.940318,0.35624 c 1.482994,0.56182 3.02181,0.7613 5.117691,0.6634 3.07897,-0.14382 5.239104,-1.14352 6.602962,-3.05584 0.384374,-0.53894 0.735759,-0.98033 0.780856,-0.98086 0.0451,-4.9e-4 0.340276,0.40993 0.655954,0.91213 1.356576,2.15814 3.856674,3.29521 7.29749,3.31896 0.811743,0.006 1.969332,-0.0944 2.572418,-0.2222 z m -14.072981,-7.0184 c 0.149113,-0.55642 0.122845,-1.10692 -0.05282,-1.10692 -0.0859,0 -0.537098,-0.38092 -1.002666,-0.84649 -0.950373,-0.95038 -2.038768,-3.00336 -2.214894,-4.17785 -0.09553,-0.63703 -0.181368,-0.75739 -0.692494,-0.97095 -0.7054,-0.29473 -0.847194,-0.15253 -0.850912,0.85337 -0.0081,2.17955 1.876944,5.24587 3.85122,6.26478 0.828997,0.42784 0.843702,0.4276 0.962566,-0.0159 z m 8.118303,-0.0306 c 2.120941,-1.07477 4.111789,-4.65114 3.727987,-6.69698 -0.131266,-0.6997 -0.09819,-0.68447 -0.82593,-0.3804 -0.469578,0.1962 -0.569271,0.33651 -0.670009,0.94293 -0.268735,1.61776 -1.864517,4.29349 -2.871007,4.81396 -0.49257,0.25472 -0.639681,0.80722 -0.388926,1.46068 0.126107,0.32863 0.0941,0.33299 1.027885,-0.14019 z m -20.065647,-6.46209 c 2.104169,-1.99177 4.142901,-2.83542 6.223731,-2.57544 1.422995,0.17779 3.374206,1.23513 4.579105,2.48135 l 1.001885,1.03624 0.696951,-0.41865 c 0.462845,-0.27803 0.696952,-0.53339 0.696952,-0.76021 0,-0.57042 0.619719,-1.65525 1.14423,-2.00298 0.430789,-0.2856 0.494773,-0.42536 0.495183,-1.08165 l 4.72e-4,-0.75367 -1.270911,-0.36754 c -1.802743,-0.52135 -3.034513,-1.22899 -4.051701,-2.32767 -1.254935,-1.35549 -1.631082,-2.39427 -1.625423,-4.48884 0.0063,-2.339 0.702435,-4.17517 2.255188,-5.94858 0.260037,-0.29699 0.428912,-0.58386 0.375281,-0.63749 -0.05363,-0.0536 -0.784877,0.59455 -1.624993,1.4404 -2.39497,2.41134 -3.340826,4.65504 -3.211256,7.61754 0.0553,1.26445 0.144749,1.66217 0.564091,2.50822 l 0.498366,1.00549 -0.605611,0 c -1.030695,0 -2.324519,0.31309 -3.428309,0.82962 -1.582188,0.7404 -3.539581,2.78349 -4.406905,4.59986 -1.093723,2.2905 -1.428731,4.61929 -0.356268,2.47657 0.527873,-1.05466 0.934077,-1.57631 2.049942,-2.63257 z m 33.535862,2.54499 c -0.515173,-2.61858 -2.439234,-5.30922 -4.814626,-6.73287 -0.971929,-0.58251 -2.727737,-1.0856 -3.788808,-1.0856 -0.32042,0 -0.582584,-0.028 -0.582584,-0.0622 0,-0.0342 0.202936,-0.49541 0.450969,-1.02493 0.41001,-0.87531 0.450968,-1.13402 0.450968,-2.84861 0,-2.28376 -0.33412,-3.41777 -1.554869,-5.27728 -0.766631,-1.16778 -2.774943,-3.25013 -3.134565,-3.25013 -0.09226,0 0.127012,0.35053 0.487277,0.77895 1.730986,2.05845 2.4992,5.02295 1.929194,7.44466 -0.586489,2.49174 -2.303344,4.0384 -5.639799,5.08074 l -1.188602,0.37132 0,0.71623 c 0,0.59637 0.08331,0.78632 0.497856,1.13514 0.606938,0.5107 0.977246,1.19308 0.980404,1.80661 0.0019,0.3771 0.141447,0.53577 0.781035,0.88831 l 0.778672,0.42919 1.199148,-1.12328 c 0.769076,-0.72042 1.645902,-1.34407 2.444811,-1.73892 1.128104,-0.55754 1.3707,-0.61572 2.570501,-0.61645 2.213888,-10e-4 3.815971,0.7642 5.867595,2.80385 0.801576,0.7969 1.312612,1.48992 1.739846,2.35942 0.332702,0.67711 0.631681,1.16871 0.664398,1.09245 0.03272,-0.0763 -0.02975,-0.59224 -0.138821,-1.14662 z M 34.26524,299.63643 c 1.387556,-0.24163 3.018348,-0.11674 4.165025,0.31896 l 0.872882,0.33167 0.473503,-0.35008 c 0.581345,-0.42981 0.584649,-0.50514 0.04091,-0.93285 -1.619746,-1.27409 -6.138584,-1.35157 -7.932675,-0.13601 -0.725173,0.49133 -0.742899,0.63211 -0.133253,1.0583 0.464169,0.32449 0.557926,0.33749 0.954595,0.13237 0.241929,-0.12511 0.943483,-0.31517 1.559011,-0.42236 z"
       id="path2995"
       style="fill:#040404" />
  </g>
</svg>
