<?xml version="1.0" encoding="UTF-8" standalone="no"?>
<!-- Created with Inkscape (http://www.inkscape.org/) -->

<svg
   xmlns:dc="http://purl.org/dc/elements/1.1/"
   xmlns:cc="http://creativecommons.org/ns#"
   xmlns:rdf="http://www.w3.org/1999/02/22-rdf-syntax-ns#"
   xmlns:svg="http://www.w3.org/2000/svg"
   xmlns="http://www.w3.org/2000/svg"
   xmlns:xlink="http://www.w3.org/1999/xlink"
   xmlns:sodipodi="http://sodipodi.sourceforge.net/DTD/sodipodi-0.dtd"
   xmlns:inkscape="http://www.inkscape.org/namespaces/inkscape"
   version="1.0"
   width="48"
   height="48"
   viewBox="0 0 48 48"
   id="svg2"
   xml:space="preserve"
   inkscape:version="0.48.3.1 r9886"
   sodipodi:docname="leafpad.svg"><sodipodi:namedview
   pagecolor="#ffffff"
   bordercolor="#666666"
   borderopacity="1"
   objecttolerance="10"
   gridtolerance="10"
   guidetolerance="10"
   inkscape:pageopacity="0"
   inkscape:pageshadow="2"
   inkscape:window-width="1366"
   inkscape:window-height="717"
   id="namedview54"
   showgrid="false"
   inkscape:zoom="6.9532166"
   inkscape:cx="6.265001"
   inkscape:cy="17.314786"
   inkscape:window-x="0"
   inkscape:window-y="0"
   inkscape:window-maximized="1"
   inkscape:current-layer="svg2" /><defs
   id="defs20"><linearGradient
     id="linearGradient3095"><stop
       id="stop3097"
       style="stop-color:#000000;stop-opacity:0"
       offset="0" /><stop
       id="stop3103"
       style="stop-color:#000000;stop-opacity:1"
       offset="0.53662109" /><stop
       id="stop3105"
       style="stop-color:#000000;stop-opacity:1"
       offset="0.81770831" /><stop
       id="stop3099"
       style="stop-color:#000000;stop-opacity:0"
       offset="1" /></linearGradient><radialGradient
     cx="22.924673"
     cy="31.360638"
     r="21.726608"
     fx="22.924673"
     fy="31.360638"
     id="radialGradient3083"
     xlink:href="#linearGradient3077"
     gradientUnits="userSpaceOnUse"
     gradientTransform="matrix(1.190082,0,0,1.196083,-4.357565,-6.11794)" /><linearGradient
     id="linearGradient3077"><stop
       id="stop3079"
       style="stop-color:#b3ed7b;stop-opacity:1"
       offset="0" /><stop
       id="stop3081"
       style="stop-color:#8ae234;stop-opacity:1"
       offset="1" /></linearGradient></defs><metadata
   id="metadata32"><rdf:RDF><cc:Work
       rdf:about=""><dc:format>image/svg+xml</dc:format><dc:type
         rdf:resource="http://purl.org/dc/dcmitype/StillImage" /><dc:title /><dc:date>May 2009</dc:date><dc:creator><cc:Agent><dc:title>Jakub Steiner</dc:title></cc:Agent></dc:creator><dc:coverage /><dc:description>A paper with a pencil on it</dc:description><dc:subject><rdf:Bag><rdf:li>text</rdf:li><rdf:li>editor</rdf:li></rdf:Bag></dc:subject></cc:Work></rdf:RDF></metadata>
	<rect
   width="48"
   height="48"
   x="0"
   y="0"
   id="rect2400"
   style="fill:none" /><rect
   width="32"
   height="40"
   ry="3.4532001"
   x="7"
   y="4"
   id="rect3174"
   style="fill:#ffffff;stroke:#ffffff;stroke-width:8;stroke-linejoin:round;stroke-miterlimit:4;stroke-dasharray:none" /><rect
   width="31.329655"
   height="39.162067"
   ry="3.3808615"
   x="7.3908224"
   y="4.4530063"
   id="rect3172"
   style="stroke:#000000;stroke-width:1.46857762;stroke-miterlimit:4;stroke-opacity:1;stroke-dasharray:none" /><path
   d="M 35.783322,7.3901616 H 10.327977 V 40.67792 H 35.783322 V 7.3901616 z"
   id="path13"
   style="fill:#ffffff"
   inkscape:connector-curvature="0" />
	<g
   transform="matrix(0.9738138,0,0,0.95342015,0.67558476,1.4216763)"
   id="g3176"><path
     d="M 41.142097,42.981121 37.926114,39.754814 C 44.266215,13.558742 25.809358,23.839568 14.323551,16.721197 c 9.47772,8.979578 -8.6790242,29.077035 22.374737,24.322895 l 3.116694,3.210688 1.327115,-1.273659 z"
     id="path2157-9"
     style="fill:#ffffff;fill-opacity:1;fill-rule:evenodd;stroke:#ffffff;stroke-width:8.12859535;stroke-linecap:round;stroke-linejoin:round;stroke-miterlimit:4;stroke-opacity:1;stroke-dasharray:none"
     inkscape:connector-curvature="0" /><path
     d="M 41.168383,42.98112 37.952402,39.754814 C 44.292503,13.558741 25.835645,23.839567 14.349839,16.721196 23.827559,25.700774 5.6708142,45.79823 36.724576,41.044091 l 3.116694,3.210688 1.327113,-1.273659 z"
     id="path2157"
     style="fill:#ffffff;fill-opacity:1;fill-rule:evenodd;stroke:#000000;stroke-width:1.01607442;stroke-linecap:round;stroke-linejoin:round;stroke-miterlimit:4;stroke-opacity:1;stroke-dasharray:none"
     inkscape:connector-curvature="0" /><path
     d="M 37.147843,40.195833 C 29.350603,23.318406 22.445745,28.273954 17.090733,19.064471"
     id="path3093"
     style="fill:none;stroke:#000000;stroke-width:3.04822326;stroke-linecap:round;stroke-linejoin:miter;stroke-miterlimit:4;stroke-opacity:1;stroke-dasharray:none"
     inkscape:connector-curvature="0" /><path
     d="m 16.577461,18.580546 c 5.484003,2.237638 11.727216,1.830846 16.069377,3.145508 2.519152,0.762715 4.347628,1.997823 5.290655,4.617445 0.943027,2.619622 0.957532,6.762513 -0.611979,13.247429 a 0.6608812,0.67501741 0 0 0 0.177672,0.645232 l 2.704551,2.722075 -0.355343,0.342779 -2.645327,-2.742238 a 0.6608812,0.67501741 0 0 0 -0.572496,-0.181471 c -7.705292,1.179632 -12.285765,0.767972 -14.884903,-0.483925 -2.599138,-1.251896 -3.398179,-3.269276 -3.652131,-5.928073 -0.253952,-2.658797 0.159435,-5.861739 0.03948,-9.013091 -0.08406,-2.208362 -0.478169,-4.415154 -1.559559,-6.37167 z"
     id="path3089"
     style="fill:none;stroke:#000000;stroke-width:3.04822326;stroke-linecap:butt;stroke-linejoin:miter;stroke-miterlimit:4;stroke-opacity:1;stroke-dasharray:none"
     inkscape:connector-curvature="0" /></g>
	
</svg>