<?xml version="1.0" encoding="UTF-8" standalone="no"?>
<!-- Created with Inkscape (http://www.inkscape.org/) -->

<svg
   xmlns:dc="http://purl.org/dc/elements/1.1/"
   xmlns:cc="http://creativecommons.org/ns#"
   xmlns:rdf="http://www.w3.org/1999/02/22-rdf-syntax-ns#"
   xmlns:svg="http://www.w3.org/2000/svg"
   xmlns="http://www.w3.org/2000/svg"
   xmlns:sodipodi="http://sodipodi.sourceforge.net/DTD/sodipodi-0.dtd"
   xmlns:inkscape="http://www.inkscape.org/namespaces/inkscape"
   version="1.1"
   width="48"
   height="48"
   viewBox="0 0 48 48"
   id="svg2"
   xml:space="preserve"
   inkscape:version="0.48.3.1 r9886"
   sodipodi:docname="libreoffice-calc.svg"><sodipodi:namedview
   pagecolor="#ffffff"
   bordercolor="#666666"
   borderopacity="1"
   objecttolerance="10"
   gridtolerance="10"
   guidetolerance="10"
   inkscape:pageopacity="0"
   inkscape:pageshadow="2"
   inkscape:window-width="1366"
   inkscape:window-height="717"
   id="namedview17"
   showgrid="false"
   inkscape:zoom="6.9532166"
   inkscape:cx="7.709722"
   inkscape:cy="13.838149"
   inkscape:window-x="0"
   inkscape:window-y="0"
   inkscape:window-maximized="1"
   inkscape:current-layer="svg2" /><defs
   id="defs11" /><metadata
   id="metadata19"><rdf:RDF><cc:Work
       rdf:about=""><dc:format>image/svg+xml</dc:format><dc:type
         rdf:resource="http://purl.org/dc/dcmitype/StillImage" /><dc:title /><dc:creator><cc:Agent><dc:title>Jakub Stainer</dc:title></cc:Agent></dc:creator><cc:license
         rdf:resource="http://creativecommons.org/licenses/GPL/2.0/" /></cc:Work><cc:License
       rdf:about="http://creativecommons.org/licenses/GPL/2.0/"><cc:permits
         rdf:resource="http://web.resource.org/cc/Reproduction" /><cc:permits
         rdf:resource="http://web.resource.org/cc/Distribution" /><cc:requires
         rdf:resource="http://web.resource.org/cc/Notice" /><cc:permits
         rdf:resource="http://web.resource.org/cc/DerivativeWorks" /><cc:requires
         rdf:resource="http://web.resource.org/cc/ShareAlike" /><cc:requires
         rdf:resource="http://web.resource.org/cc/SourceCode" /></cc:License></rdf:RDF></metadata>
	<rect
   width="43.200001"
   height="43.200001"
   x="2.4000001"
   y="2.4000001"
   id="rect3319"
   style="fill:none" /><path
   d="M 38.843526,43.777459 H 9.1564744 V 4.3634969 H 29.93741 l 8.906116,11.2611321 v 5.269084 22.883746 z"
   id="path4775"
   style="fill:#ffffff;stroke:#ffffff;stroke-width:8.44508266;stroke-linejoin:round;stroke-miterlimit:4;stroke-dasharray:none" /><path
   d="M 37.359173,41.799713 H 10.640827 V 6.3271472 h 18.702842 l 8.015504,10.1350188 v 25.337547 z"
   id="path7"
   style="stroke:#000000;stroke-width:3.80028725;stroke-linejoin:round"
   inkscape:connector-curvature="0" /><path
   d="m 35.57795,16.462166 -0.0027,23.314597 -23.153228,-0.004 0.01514,-31.4003145 16.015867,-0.018243 7.124892,8.1080155 z"
   id="path9"
   style="fill:#ffffff"
   inkscape:connector-curvature="0" />
<g
   id="g3954"
   transform="matrix(0.73507473,0,0,0.74973813,10.035016,8.6729754)"><path
     style="fill:none;stroke:#000016;stroke-width:2.70285988;stroke-linecap:butt;stroke-linejoin:miter;stroke-miterlimit:4;stroke-opacity:1;stroke-dasharray:none"
     id="path2987"
     d="m 8.5424299,11.027281 c 0,27.621289 0,27.621289 0,27.621289"
     inkscape:connector-curvature="0" /><path
     style="fill:none;stroke:#000000;stroke-width:2.70285988;stroke-linecap:butt;stroke-linejoin:miter;stroke-miterlimit:4;stroke-opacity:1;stroke-dasharray:none"
     id="path2987-2"
     d="m 15.64643,11.027281 c 0,27.621289 0,27.621289 0,27.621289"
     inkscape:connector-curvature="0" /><path
     style="fill:none;stroke:#000000;stroke-width:2.70285988;stroke-linecap:butt;stroke-linejoin:miter;stroke-miterlimit:4;stroke-opacity:1;stroke-dasharray:none"
     id="path2987-9"
     d="m 22.91143,11.027281 c 0,27.621289 0,27.621289 0,27.621289"
     inkscape:connector-curvature="0" /><path
     style="fill:none;stroke:#000000;stroke-width:2.70285988;stroke-linecap:butt;stroke-linejoin:miter;stroke-miterlimit:4;stroke-opacity:1;stroke-dasharray:none"
     id="path2987-3"
     d="m 29.563267,11.027281 c 0,27.621289 0,27.621289 0,27.621289"
     inkscape:connector-curvature="0" /><path
     style="fill:none;stroke:#000000;stroke-width:2.42466617;stroke-linecap:butt;stroke-linejoin:miter;stroke-miterlimit:4;stroke-opacity:1;stroke-dasharray:none"
     id="path2987-7"
     d="m 7.3514299,32.5566 c 21.6370811,0 21.6370811,0 21.6370811,0"
     inkscape:connector-curvature="0" /><path
     style="fill:none;stroke:#000000;stroke-width:2.42466617;stroke-linecap:butt;stroke-linejoin:miter;stroke-miterlimit:4;stroke-opacity:1;stroke-dasharray:none"
     id="path2987-7-7"
     d="m 7.4151987,27.534046 c 21.6370803,0 21.6370803,0 21.6370803,0"
     inkscape:connector-curvature="0" /><path
     style="fill:none;stroke:#000000;stroke-width:2.42466617;stroke-linecap:butt;stroke-linejoin:miter;stroke-miterlimit:4;stroke-opacity:1;stroke-dasharray:none"
     id="path2987-7-75"
     d="m 7.4151987,22.499489 c 21.6370803,0 21.6370803,0 21.6370803,0"
     inkscape:connector-curvature="0" /><path
     style="fill:none;stroke:#000000;stroke-width:2.42466617;stroke-linecap:butt;stroke-linejoin:miter;stroke-miterlimit:4;stroke-opacity:1;stroke-dasharray:none"
     id="path2987-7-1"
     d="m 8.0114902,17.49134 c 21.6370798,0 21.6370798,0 21.6370798,0"
     inkscape:connector-curvature="0" /><path
     inkscape:connector-curvature="0"
     d="m 8.0114902,12.38857 c 21.6370798,0 21.6370798,0 21.6370798,0"
     id="path3921"
     style="fill:none;stroke:#000000;stroke-width:2.70285988;stroke-linecap:butt;stroke-linejoin:miter;stroke-miterlimit:4;stroke-opacity:1;stroke-dasharray:none" /><path
     inkscape:connector-curvature="0"
     d="m 7.3514299,37.441106 c 21.6370811,0 21.6370811,0 21.6370811,0"
     id="path3059"
     style="fill:none;stroke:#000000;stroke-width:2.42466617;stroke-linecap:butt;stroke-linejoin:miter;stroke-miterlimit:4;stroke-opacity:1;stroke-dasharray:none" /></g><path
   style="fill:#dd4814;fill-opacity:1;stroke:#000000;stroke-width:0.12943649;stroke-linecap:round;stroke-linejoin:round;stroke-miterlimit:4;stroke-opacity:1;stroke-dasharray:none"
   d="m 17.288493,22.630546 c -0.02453,0.680103 -0.0522,1.396179 0.01416,2.068962 1.06895,0.0471 2.153056,0.0067 3.227822,0.02022 0.209949,-0.278277 0.03214,-0.768048 0.09101,-1.126502 -0.09493,-0.298754 0.220073,-0.984215 -0.220447,-0.997065 -1.034081,0.02333 -2.091936,-0.04619 -3.112543,0.03438 z"
   id="path3831"
   inkscape:connector-curvature="0" /><path
   style="fill:#dd4814;fill-opacity:1;stroke:#000000;stroke-width:0.12943649;stroke-linecap:round;stroke-linejoin:round;stroke-miterlimit:4;stroke-opacity:1;stroke-dasharray:none"
   d="m 17.288493,26.384205 c -0.02453,0.680103 -0.0522,1.396178 0.01416,2.068962 1.06895,0.0471 2.153056,0.0067 3.227822,0.02022 0.209949,-0.278279 0.03214,-0.768049 0.09101,-1.126502 -0.09493,-0.298755 0.220073,-0.984215 -0.220447,-0.997066 -1.034081,0.02333 -2.091936,-0.04619 -3.112543,0.03438 z"
   id="path3833"
   inkscape:connector-curvature="0" /><path
   style="fill:#dd4814;fill-opacity:1;stroke:#000000;stroke-width:0.12943649;stroke-linecap:round;stroke-linejoin:round;stroke-miterlimit:4;stroke-opacity:1;stroke-dasharray:none"
   d="m 17.288493,30.202582 c -0.02324,0.65831 -0.05332,1.353291 0.01416,2.004243 1.06895,0.0471 2.153056,0.0067 3.227822,0.02022 0.208824,-0.267972 0.03352,-0.745806 0.09101,-1.094143 -0.09366,-0.289362 0.218741,-0.960827 -0.220447,-0.964706 -1.034081,0.02333 -2.091936,-0.04619 -3.112543,0.03438 z"
   id="path3835"
   inkscape:connector-curvature="0" /><path
   style="fill:#dd4814;fill-opacity:1;stroke:#000000;stroke-width:0.12943649;stroke-linecap:round;stroke-linejoin:round;stroke-miterlimit:4;stroke-opacity:1;stroke-dasharray:none"
   d="m 17.288493,33.95624 c -0.02455,0.63697 -0.05215,1.309872 0.01416,1.939525 1.06895,0.0471 2.153056,0.0067 3.227822,0.02022 0.209949,-0.278277 0.03214,-0.768048 0.09101,-1.126501 -0.05951,-0.312255 0.206136,-1.008584 -0.349883,-0.86763 -0.9909,0.02335 -2.005707,-0.04624 -2.983107,0.03438 z"
   id="path3837"
   inkscape:connector-curvature="0" /><path
   style="fill:#c90016;fill-opacity:1;stroke:#000000;stroke-width:0.12943649;stroke-linecap:round;stroke-linejoin:round;stroke-miterlimit:4;stroke-opacity:1;stroke-dasharray:none"
   d="m 17.288493,18.941607 c -0.02324,0.65831 -0.05332,1.353291 0.01416,2.004243 1.06895,0.0471 2.153056,0.0067 3.227822,0.02022 0.208824,-0.267971 0.03352,-0.745806 0.09101,-1.094143 -0.09366,-0.289361 0.218741,-0.960826 -0.220447,-0.964706 -1.034081,0.02333 -2.091936,-0.04619 -3.112543,0.03438 z"
   id="path3839"
   inkscape:connector-curvature="0" /><path
   style="fill:#c90016;fill-opacity:1;stroke:#000000;stroke-width:0.12943649;stroke-linecap:round;stroke-linejoin:round;stroke-miterlimit:4;stroke-opacity:1;stroke-dasharray:none"
   d="m 22.465953,18.941607 c -0.02324,0.65831 -0.05332,1.353291 0.01416,2.004243 1.112095,0.04711 2.239346,0.0067 3.357259,0.02022 0.208824,-0.267971 0.03352,-0.745806 0.09101,-1.094143 -0.09365,-0.289361 0.218741,-0.960826 -0.220447,-0.964706 -1.077263,0.0233 -2.178176,-0.04615 -3.241979,0.03438 z"
   id="path3841"
   inkscape:connector-curvature="0" /><path
   style="fill:#c90016;fill-opacity:1;stroke:#000000;stroke-width:0.12943649;stroke-linecap:round;stroke-linejoin:round;stroke-miterlimit:4;stroke-opacity:1;stroke-dasharray:none"
   d="m 27.837567,18.941607 c -0.02324,0.65831 -0.05332,1.353291 0.01416,2.004243 0.978329,0.02837 1.989112,0.04438 2.962445,-0.008 0.07615,-0.62384 0.01093,-1.296881 0.0328,-1.939564 -0.278278,-0.209947 -0.768048,-0.03214 -1.126502,-0.09101 -0.623997,0.02252 -1.272538,-0.0453 -1.882897,0.03438 z"
   id="path3843"
   inkscape:connector-curvature="0" /></svg>