<?xml version="1.0" encoding="UTF-8" standalone="no"?>
<!-- Generator: Adobe Illustrator 9.0, SVG Export Plug-In  -->

<svg
   xmlns:dc="http://purl.org/dc/elements/1.1/"
   xmlns:cc="http://creativecommons.org/ns#"
   xmlns:rdf="http://www.w3.org/1999/02/22-rdf-syntax-ns#"
   xmlns:svg="http://www.w3.org/2000/svg"
   xmlns="http://www.w3.org/2000/svg"
   xmlns:sodipodi="http://sodipodi.sourceforge.net/DTD/sodipodi-0.dtd"
   xmlns:inkscape="http://www.inkscape.org/namespaces/inkscape"
   id="svg2"
   sodipodi:docname="libreoffice-printeradmin.svg"
   xml:space="preserve"
   height="48px"
   sodipodi:version="0.32"
   width="48px"
   viewBox="0 0 48 48"
   version="1.1"
   inkscape:version="0.48.3.1 r9886"><defs
   id="defs11" /><metadata
   id="metadata19"><rdf:RDF><cc:Work
       rdf:about=""><dc:format>image/svg+xml</dc:format><dc:type
         rdf:resource="http://purl.org/dc/dcmitype/StillImage" /><dc:title /><dc:creator><cc:Agent><dc:title>Jakub Stainer</dc:title></cc:Agent></dc:creator><cc:license
         rdf:resource="http://creativecommons.org/licenses/GPL/2.0/" /></cc:Work><cc:License
       rdf:about="http://creativecommons.org/licenses/GPL/2.0/"><cc:permits
         rdf:resource="http://web.resource.org/cc/Reproduction" /><cc:permits
         rdf:resource="http://web.resource.org/cc/Distribution" /><cc:requires
         rdf:resource="http://web.resource.org/cc/Notice" /><cc:permits
         rdf:resource="http://web.resource.org/cc/DerivativeWorks" /><cc:requires
         rdf:resource="http://web.resource.org/cc/ShareAlike" /><cc:requires
         rdf:resource="http://web.resource.org/cc/SourceCode" /></cc:License></rdf:RDF></metadata><sodipodi:namedview
   id="base"
   bordercolor="#666666"
   guidetolerance="0.50000000px"
   pagecolor="#ffffff"
   gridtolerance="0.50000000px"
   borderopacity="1.0"
   showgrid="true"
   showguides="true"
   inkscape:zoom="6.9532166"
   inkscape:cx="2.9484776"
   inkscape:cy="15.900169"
   inkscape:window-width="1366"
   inkscape:window-height="717"
   inkscape:window-x="0"
   inkscape:window-y="0"
   inkscape:window-maximized="1"
   inkscape:current-layer="svg2"><sodipodi:guide
     id="guide3305"
     position="24.944882"
     orientation="vertical" /><sodipodi:guide
     id="guide3307"
     position="28.031496"
     orientation="horizontal" /></sodipodi:namedview>
	<rect
   id="rect3319"
   style="fill:none"
   height="43.200001"
   width="43.200001"
   y="2.4000001"
   x="2.3508475" /><path
   id="path4775"
   sodipodi:nodetypes="ccccccc"
   style="fill:#ffffff;stroke:#ffffff;stroke-width:8.44508266;stroke-linejoin:round;stroke-miterlimit:4;stroke-dasharray:none"
   d="M 38.843526,43.777459 H 9.1564744 V 4.3634969 H 29.93741 l 8.906116,11.2611321 v 5.269084 22.883746 z"
   inkscape:connector-curvature="0" /><path
   id="path7"
   sodipodi:nodetypes="cccccc"
   style="stroke:#000000;stroke-width:3.80028725;stroke-linejoin:round"
   d="M 37.310021,41.799713 H 10.591674 V 6.3271472 h 18.702842 l 8.015505,10.1350188 v 25.337547 z"
   inkscape:connector-curvature="0" /><path
   id="path9"
   sodipodi:nodetypes="cccccc"
   style="fill:#ffffff"
   d="m 35.528798,16.462166 -0.0027,23.314597 -23.153229,-0.004 0.01514,-31.4003145 16.015868,-0.018243 7.124892,8.1080155 z"
   inkscape:connector-curvature="0" />
<rect
   id="rect3981"
   style="fill:none"
   rx="0"
   ry="0"
   height="24.528814"
   width="24.528814"
   y="16.283518"
   x="1.4661015" /><path
   inkscape:connector-curvature="0"
   id="path3102"
   sodipodi:nodetypes="ccccccccc"
   style="fill:#ffffff;stroke:#ffffff;stroke-width:1.79999995;stroke-linejoin:round;stroke-miterlimit:4;stroke-dasharray:none"
   d="m 22.417796,37.74623 c 0,0.204407 -0.306611,0.511017 -0.511017,0.511017 H 5.5542372 c -0.2044067,0 -0.511017,-0.30661 -0.511017,-0.511017 v -1.022034 c 0,-0.204407 0.2555085,-0.357711 0.4599151,-0.357711 H 21.804575 c 0.204408,0 0.613221,0.153304 0.613221,0.357711 v 1.022034 z" /><path
   inkscape:connector-curvature="0"
   id="path3104"
   sodipodi:nodetypes="ccccccccc"
   style="fill:#ffffff;stroke:#ffffff;stroke-width:1.79999995;stroke-linejoin:round;stroke-miterlimit:4;stroke-dasharray:none"
   d="m 23.950847,36.213179 c 0,0.204407 -0.306611,0.511017 -0.511017,0.511017 H 4.0211862 c -0.2044066,0 -0.5110169,-0.30661 -0.5110169,-0.511017 v -7.154237 c 0,-0.204406 0.3066103,-0.511017 0.5110169,-0.511017 H 23.43983 c 0.204406,0 0.511017,0.306611 0.511017,0.511017 v 7.154237 z" /><path
   inkscape:connector-curvature="0"
   id="path3106"
   sodipodi:nodetypes="ccccccc"
   style="fill:#ffffff;stroke:#ffffff;stroke-width:1.79999995;stroke-linejoin:round;stroke-miterlimit:4;stroke-dasharray:none"
   d="m 7.5983051,18.327586 c -1.5330509,0 -2.0440679,1.022034 -2.0440679,2.044068 V 29.56996 H 21.906779 v -9.198306 c 0,-1.022034 -0.511017,-2.044068 -2.044068,-2.044068 H 7.5983051 z" /><g
   id="g3095"
   transform="matrix(0.51101696,0,0,0.51101696,1.4661014,16.283519)"><path
     inkscape:connector-curvature="0"
     id="path13"
     sodipodi:nodetypes="ccccccccc"
     d="m 41,42 c 0,0.4 -0.6,1 -1,1 H 8 C 7.6,43 7,42.4 7,42 v -2 c 0,-0.4 0.5,-0.7 0.9,-0.7 h 31.9 c 0.4,0 1.2,0.3 1.2,0.7 v 2 z" /><path
     inkscape:connector-curvature="0"
     id="path15"
     sodipodi:nodetypes="ccccccccc"
     d="m 44,39 c 0,0.4 -0.6,1 -1,1 H 5 C 4.6,40 4,39.4 4,39 V 25 c 0,-0.4 0.6,-1 1,-1 h 38 c 0.4,0 1,0.6 1,1 v 14 z" /><path
     inkscape:connector-curvature="0"
     id="path17"
     sodipodi:nodetypes="ccccccc"
     d="M 12,4 C 9,4 8,6 8,8 V 26 H 40 V 8 C 40,6 39,4 36,4 H 12 z" /></g><path
   inkscape:connector-curvature="0"
   id="path19"
   sodipodi:nodetypes="ccccccc"
   style="fill:#ffffff"
   d="M 19.862711,28.547925 H 7.5983051 v -7.665254 c 0,0 0,-0.511017 0.5110169,-0.511017 h 11.242372 c 0.511017,0 0.511017,0.511017 0.511017,0.511017 v 7.665254 z" /><path
   inkscape:connector-curvature="0"
   id="path1315"
   sodipodi:nodetypes="cc"
   style="fill:#ffffff;fill-rule:evenodd;stroke:#ffffff;stroke-width:2.04406762"
   d="M 7.0872882,35.191145 H 20.373728" /></svg>