<?xml version="1.0" encoding="UTF-8" standalone="no"?>
<!-- Created with Inkscape (http://www.inkscape.org/) -->

<svg
   xmlns:dc="http://purl.org/dc/elements/1.1/"
   xmlns:cc="http://creativecommons.org/ns#"
   xmlns:rdf="http://www.w3.org/1999/02/22-rdf-syntax-ns#"
   xmlns:svg="http://www.w3.org/2000/svg"
   xmlns="http://www.w3.org/2000/svg"
   xmlns:sodipodi="http://sodipodi.sourceforge.net/DTD/sodipodi-0.dtd"
   xmlns:inkscape="http://www.inkscape.org/namespaces/inkscape"
   id="svg2"
   version="1.1"
   inkscape:version="0.48.3.1 r9886"
   width="48"
   height="48"
   sodipodi:docname="limbo.svg">
  <metadata
     id="metadata8">
    <rdf:RDF>
      <cc:Work
         rdf:about="">
        <dc:format>image/svg+xml</dc:format>
        <dc:type
           rdf:resource="http://purl.org/dc/dcmitype/StillImage" />
        <dc:title />
      </cc:Work>
    </rdf:RDF>
  </metadata>
  <defs
     id="defs6" />
  <sodipodi:namedview
     pagecolor="#ffffff"
     bordercolor="#666666"
     borderopacity="1"
     objecttolerance="10"
     gridtolerance="10"
     guidetolerance="10"
     inkscape:pageopacity="0"
     inkscape:pageshadow="2"
     inkscape:window-width="1680"
     inkscape:window-height="999"
     id="namedview4"
     showgrid="false"
     inkscape:zoom="10.429825"
     inkscape:cx="-7.9192796"
     inkscape:cy="10.033919"
     inkscape:window-x="0"
     inkscape:window-y="0"
     inkscape:window-maximized="1"
     inkscape:current-layer="g2987" />
  <g
     id="g2987">
    <path
       inkscape:connector-curvature="0"
       id="path2995"
       d="m 17.992524,47.826469 c 0.05108,-0.09544 0.224201,-0.570052 0.384715,-1.054688 0.321604,-0.97101 1.20541,-2.782962 1.833483,-3.758948 0.38964,-0.605476 0.95998,-1.238188 1.620205,-1.797388 0.278156,-0.235595 0.308944,-0.306238 0.261332,-0.599635 -0.02968,-0.182918 -0.171569,-0.457241 -0.315302,-0.609605 -0.34127,-0.361767 -1.42244,-1.180569 -2.651957,-2.008407 -0.876758,-0.590325 -1.303067,-0.865726 -2.296875,-1.48381 -3.496411,-2.174543 -4.720249,-3.071271 -6.292858,-4.61089 C 7.9295177,29.352011 6.0973363,24.784268 6.5864457,22.058437 L 6.6572663,21.663751 6.2817582,21.562637 C 5.9598716,21.475962 5.906544,21.425224 5.9083089,21.207324 c 0.00324,-0.400067 0.349705,-1.07149 0.7116884,-1.379199 0.302361,-0.257026 0.322208,-0.303981 0.2304302,-0.545166 -0.1802149,-0.47359 -0.1207594,-1.155241 0.1469278,-1.684513 0.5575194,-1.102327 1.5810614,-2.765926 2.2028048,-3.580296 0.5702136,-0.746877 0.7676183,-0.929388 1.4261439,-1.31855 0.509355,-0.301009 1.101155,-0.782315 1.774064,-1.442829 l 1.009742,-0.991146 0.677758,0 c 0.625548,0 0.72831,-0.02979 1.334007,-0.3866625 1.055579,-0.6219483 1.48407,-0.8188015 1.743653,-0.8010521 0.169566,0.011594 0.654178,-0.2593164 1.59375,-0.8909497 1.505591,-1.0121416 3.894431,-2.2807107 4.294801,-2.2807107 0.31898,0 0.570921,0.2593836 0.570921,0.5877866 0,0.1346937 0.03842,0.2686444 0.08538,0.2976681 0.04696,0.029024 0.479768,-0.1554388 0.961794,-0.4099166 0.90069,-0.4755054 1.947957,-0.8621429 2.937196,-1.084375 0.309375,-0.069501 0.928812,-0.2568903 1.376527,-0.4164208 0.681781,-0.2429332 0.902623,-0.2814584 1.359375,-0.2371375 0.636627,0.061775 0.966645,0.245067 0.968658,0.5379939 7.5e-4,0.114827 0.03243,0.2516128 0.07031,0.3039685 0.04216,0.058272 0.705203,0.094633 1.709502,0.09375 1.636705,-0.00144 1.641968,-7.687e-4 2.203125,0.2798078 0.48746,0.2437297 0.568753,0.3224755 0.609375,0.590274 0.04345,0.2864604 0.101637,0.3314621 0.796875,0.6163293 1.622592,0.6648412 1.714228,0.7344437 1.751966,1.330707 0.02855,0.4510566 0.04057,0.4680808 0.478195,0.6771136 0.514705,0.2458504 0.712401,0.5596792 0.561376,0.8911436 -0.05386,0.1182175 -0.52365,0.5295455 -1.043969,0.9140625 -0.520318,0.384516 -0.947082,0.749012 -0.948363,0.80999 -0.0013,0.06098 0.08209,0.137664 0.185269,0.170412 0.385404,0.122322 0.410522,0.390016 0.08615,0.918153 -0.502671,0.818443 -1.258048,1.766795 -1.954888,2.454301 -0.364436,0.359554 -0.662612,0.71444 -0.662612,0.788635 0,0.07419 0.06982,0.370639 0.155145,0.658764 0.08533,0.288126 0.311505,1.051209 0.502612,1.69574 0.315262,1.063259 0.522861,1.911347 0.757305,3.09375 0.260867,1.315673 0.387028,1.82718 0.557065,2.258568 0.381494,0.967857 0.840373,3.733336 0.840373,5.064587 0,2.112116 -0.693441,3.611165 -2.604074,5.629367 -1.516988,1.602394 -2.919579,2.952279 -3.491941,3.360718 -1.626923,1.160979 -1.791711,1.366793 -1.855255,2.317163 -0.05485,0.820425 0.0038,0.970469 0.668198,1.708107 0.647391,0.7188 1.304002,1.819022 1.74487,2.923719 0.285329,0.714954 0.863426,3.065878 0.786569,3.198708 C 33.194741,47.968359 29.739158,48 25.538044,48 c -7.404381,0 -7.635546,-0.0053 -7.54552,-0.173531 z m 9.359895,-21.107213 c 0.614834,-0.374869 0.823583,-1.026503 0.528225,-1.648923 -0.411901,-0.868017 -1.69429,-0.929217 -2.196939,-0.104844 -0.667958,1.095488 0.586329,2.413705 1.668714,1.753767 z m 7.86804,-2.538001 c 0.894553,-0.338937 1.112358,-1.493154 0.395578,-2.096286 -0.223254,-0.187856 -0.389085,-0.241219 -0.749607,-0.241219 -0.396388,0 -0.513272,0.04613 -0.81312,0.320921 -0.323012,0.29602 -0.350185,0.360905 -0.350185,0.836198 0,0.574199 0.221401,0.913101 0.75,1.14804 0.347536,0.154463 0.435271,0.158162 0.767334,0.03235 z"
       style="fill:#010101;stroke:#ffffff;stroke-opacity:1;stroke-width:8;stroke-miterlimit:4;stroke-dasharray:none;stroke-linejoin:round;stroke-linecap:round" />
    <path
       style="fill:#010101"
       d="m 17.992524,47.826469 c 0.05108,-0.09544 0.224201,-0.570052 0.384715,-1.054688 0.321604,-0.97101 1.20541,-2.782962 1.833483,-3.758948 0.38964,-0.605476 0.95998,-1.238188 1.620205,-1.797388 0.278156,-0.235595 0.308944,-0.306238 0.261332,-0.599635 -0.02968,-0.182918 -0.171569,-0.457241 -0.315302,-0.609605 -0.34127,-0.361767 -1.42244,-1.180569 -2.651957,-2.008407 -0.876758,-0.590325 -1.303067,-0.865726 -2.296875,-1.48381 -3.496411,-2.174543 -4.720249,-3.071271 -6.292858,-4.61089 C 7.9295177,29.352011 6.0973363,24.784268 6.5864457,22.058437 L 6.6572663,21.663751 6.2817582,21.562637 C 5.9598716,21.475962 5.906544,21.425224 5.9083089,21.207324 c 0.00324,-0.400067 0.349705,-1.07149 0.7116884,-1.379199 0.302361,-0.257026 0.322208,-0.303981 0.2304302,-0.545166 -0.1802149,-0.47359 -0.1207594,-1.155241 0.1469278,-1.684513 0.5575194,-1.102327 1.5810614,-2.765926 2.2028048,-3.580296 0.5702136,-0.746877 0.7676183,-0.929388 1.4261439,-1.31855 0.509355,-0.301009 1.101155,-0.782315 1.774064,-1.442829 l 1.009742,-0.991146 0.677758,0 c 0.625548,0 0.72831,-0.02979 1.334007,-0.3866625 1.055579,-0.6219483 1.48407,-0.8188015 1.743653,-0.8010521 0.169566,0.011594 0.654178,-0.2593164 1.59375,-0.8909497 1.505591,-1.0121416 3.894431,-2.2807107 4.294801,-2.2807107 0.31898,0 0.570921,0.2593836 0.570921,0.5877866 0,0.1346937 0.03842,0.2686444 0.08538,0.2976681 0.04696,0.029024 0.479768,-0.1554388 0.961794,-0.4099166 0.90069,-0.4755054 1.947957,-0.8621429 2.937196,-1.084375 0.309375,-0.069501 0.928812,-0.2568903 1.376527,-0.4164208 0.681781,-0.2429332 0.902623,-0.2814584 1.359375,-0.2371375 0.636627,0.061775 0.966645,0.245067 0.968658,0.5379939 7.5e-4,0.114827 0.03243,0.2516128 0.07031,0.3039685 0.04216,0.058272 0.705203,0.094633 1.709502,0.09375 1.636705,-0.00144 1.641968,-7.687e-4 2.203125,0.2798078 0.48746,0.2437297 0.568753,0.3224755 0.609375,0.590274 0.04345,0.2864604 0.101637,0.3314621 0.796875,0.6163293 1.622592,0.6648412 1.714228,0.7344437 1.751966,1.330707 0.02855,0.4510566 0.04057,0.4680808 0.478195,0.6771136 0.514705,0.2458504 0.712401,0.5596792 0.561376,0.8911436 -0.05386,0.1182175 -0.52365,0.5295455 -1.043969,0.9140625 -0.520318,0.384516 -0.947082,0.749012 -0.948363,0.80999 -0.0013,0.06098 0.08209,0.137664 0.185269,0.170412 0.385404,0.122322 0.410522,0.390016 0.08615,0.918153 -0.502671,0.818443 -1.258048,1.766795 -1.954888,2.454301 -0.364436,0.359554 -0.662612,0.71444 -0.662612,0.788635 0,0.07419 0.06982,0.370639 0.155145,0.658764 0.08533,0.288126 0.311505,1.051209 0.502612,1.69574 0.315262,1.063259 0.522861,1.911347 0.757305,3.09375 0.260867,1.315673 0.387028,1.82718 0.557065,2.258568 0.381494,0.967857 0.840373,3.733336 0.840373,5.064587 0,2.112116 -0.693441,3.611165 -2.604074,5.629367 -1.516988,1.602394 -2.919579,2.952279 -3.491941,3.360718 -1.626923,1.160979 -1.791711,1.366793 -1.855255,2.317163 -0.05485,0.820425 0.0038,0.970469 0.668198,1.708107 0.647391,0.7188 1.304002,1.819022 1.74487,2.923719 0.285329,0.714954 0.863426,3.065878 0.786569,3.198708 C 33.194741,47.968359 29.739158,48 25.538044,48 c -7.404381,0 -7.635546,-0.0053 -7.54552,-0.173531 z m 9.359895,-21.107213 c 0.614834,-0.374869 0.823583,-1.026503 0.528225,-1.648923 -0.411901,-0.868017 -1.69429,-0.929217 -2.196939,-0.104844 -0.667958,1.095488 0.586329,2.413705 1.668714,1.753767 z m 7.86804,-2.538001 c 0.894553,-0.338937 1.112358,-1.493154 0.395578,-2.096286 -0.223254,-0.187856 -0.389085,-0.241219 -0.749607,-0.241219 -0.396388,0 -0.513272,0.04613 -0.81312,0.320921 -0.323012,0.29602 -0.350185,0.360905 -0.350185,0.836198 0,0.574199 0.221401,0.913101 0.75,1.14804 0.347536,0.154463 0.435271,0.158162 0.767334,0.03235 z"
       id="path2989"
       inkscape:connector-curvature="0" />
    <path
       style="fill:#ffffff;fill-opacity:1;stroke:#ffffff;stroke-width:1;stroke-linecap:round;stroke-linejoin:round;stroke-miterlimit:4;stroke-opacity:1;stroke-dasharray:none"
       d="m 26.71408,24.501982 c -0.554175,-6.42e-4 -1.063946,0.463438 -1.090623,1.021709 -0.06492,0.621348 0.474219,1.238496 1.099611,1.256163 0.645958,-0.0087 1.237147,-0.608809 1.163281,-1.264403 -0.04936,-0.577448 -0.591937,-1.057564 -1.172269,-1.013469 z"
       id="path2984"
       inkscape:connector-curvature="0" />
    <path
       style="fill:#ffffff;fill-opacity:1;stroke:#ffffff;stroke-width:1;stroke-linecap:round;stroke-linejoin:round;stroke-miterlimit:4;stroke-opacity:1;stroke-dasharray:none"
       d="m 34.357121,22.051826 c -0.285801,-0.03278 -0.486581,0.214318 -0.674148,0.38801 -0.153189,0.125423 -0.210652,0.320008 -0.205241,0.512353 -0.0049,0.337378 0.05013,0.728383 0.346063,0.943808 0.207622,0.162716 0.458507,0.305441 0.721339,0.334827 0.469122,-0.07787 0.915847,-0.421693 1.014968,-0.903359 0.117,-0.433983 -0.08289,-0.916193 -0.461417,-1.157288 -0.209852,-0.174153 -0.491853,-0.103935 -0.741564,-0.118351 z"
       id="path3754"
       inkscape:connector-curvature="0" />
  </g>
</svg>
