<?xml version="1.0" encoding="UTF-8" standalone="no"?>
<!-- Created with Inkscape (http://www.inkscape.org/) -->

<svg
   xmlns:dc="http://purl.org/dc/elements/1.1/"
   xmlns:cc="http://creativecommons.org/ns#"
   xmlns:rdf="http://www.w3.org/1999/02/22-rdf-syntax-ns#"
   xmlns:svg="http://www.w3.org/2000/svg"
   xmlns="http://www.w3.org/2000/svg"
   xmlns:sodipodi="http://sodipodi.sourceforge.net/DTD/sodipodi-0.dtd"
   xmlns:inkscape="http://www.inkscape.org/namespaces/inkscape"
   width="48"
   height="48"
   id="svg3612"
   sodipodi:version="0.32"
   inkscape:version="0.48.3.1 r9886"
   version="1.0"
   sodipodi:docname="midori.svg"
   inkscape:output_extension="org.inkscape.output.svg.inkscape">
  <defs
     id="defs3614">
    <inkscape:perspective
       sodipodi:type="inkscape:persp3d"
       inkscape:vp_x="0 : 19.696583 : 1"
       inkscape:vp_y="0 : 1000 : 0"
       inkscape:vp_z="34.692669 : 19.696583 : 1"
       inkscape:persp3d-origin="17.346334 : 13.131055 : 1"
       id="perspective42" />
    <linearGradient
       id="linearGradient3412">
      <stop
         style="stop-color:#ffffff;stop-opacity:0.59836066;"
         offset="0"
         id="stop3414" />
      <stop
         style="stop-color:#4e9a06;stop-opacity:0;"
         offset="1"
         id="stop3416" />
    </linearGradient>
    <linearGradient
       id="linearGradient3458">
      <stop
         style="stop-color:#41a100;stop-opacity:1;"
         offset="0"
         id="stop3460" />
      <stop
         style="stop-color:#ffffff;stop-opacity:0;"
         offset="1"
         id="stop3462" />
    </linearGradient>
  </defs>
  <sodipodi:namedview
     id="base"
     pagecolor="#ffffff"
     bordercolor="#666666"
     borderopacity="1.0"
     gridtolerance="10000"
     guidetolerance="10"
     objecttolerance="10"
     inkscape:pageopacity="0.0"
     inkscape:pageshadow="2"
     inkscape:zoom="5.6"
     inkscape:cx="2.9330839"
     inkscape:cy="16.675578"
     inkscape:document-units="px"
     inkscape:current-layer="g3596"
     showgrid="true"
     showguides="true"
     inkscape:guide-bbox="true"
     inkscape:window-width="1366"
     inkscape:window-height="717"
     inkscape:window-x="0"
     inkscape:window-y="0"
     inkscape:snap-global="false"
     inkscape:window-maximized="1">
    <inkscape:grid
       type="xygrid"
       id="grid3623"
       visible="true"
       enabled="true" />
    <sodipodi:guide
       orientation="0,1"
       position="-24.285714,35.982143"
       id="guide3782" />
    <sodipodi:guide
       orientation="0,1"
       position="10.535714,-15.357143"
       id="guide3784" />
    <sodipodi:guide
       orientation="1,0"
       position="8.3928572,12.321429"
       id="guide3786" />
  </sodipodi:namedview>
  <metadata
     id="metadata3617">
    <rdf:RDF>
      <cc:Work
         rdf:about="">
        <dc:format>image/svg+xml</dc:format>
        <dc:type
           rdf:resource="http://purl.org/dc/dcmitype/StillImage" />
      </cc:Work>
    </rdf:RDF>
  </metadata>
  <g
     inkscape:label="Layer 1"
     inkscape:groupmode="layer"
     id="layer1"
     transform="translate(-322.76854,-423.39033)">
    <g
       transform="matrix(0.92918604,0.26256277,-0.26256277,0.92918604,331.64126,415.09225)"
       style="stroke:none"
       id="g3562">
      <path
         sodipodi:nodetypes="ccsssscssccc"
         id="path3564"
         d="M 32.62692,6.6695339 C 28.943103,10.347154 11.111941,12.664469 9,33 c 0.3414198,5.11565 2.750163,11.619293 7.499797,10.597643 0.982779,-0.211397 2.038704,0.196803 2.703808,0.809838 4.351738,4.011057 8.52874,2.374752 9.651419,-0.445034 0.215237,-0.540601 0.899973,-0.596833 1.460892,-0.37289 C 36.857006,46.201039 38.613158,38.645886 39,33 39.096949,30.551387 37.800853,11.942617 35.822153,10.473066 35.232485,10.035129 33.801652,12.187441 32.644545,14.379307 23.397466,31.895713 11.762403,24.057082 32.238499,7.1548098 l 0.235001,-0.5271607 0.270917,0.030985"
         style="fill:#c5f199;fill-opacity:1;fill-rule:nonzero;stroke:none"
         inkscape:connector-curvature="0" />
      <g
         style="fill:#c5f199;fill-opacity:1;stroke:none"
         id="g3566">
        <path
           style="fill:#c5f199;fill-opacity:1;fill-rule:evenodd;stroke:none"
           d="M 24,45 24,33"
           id="path3568"
           inkscape:connector-curvature="0" />
        <path
           style="fill:#c5f199;fill-opacity:1;fill-rule:evenodd;stroke:none"
           d="m 15,42 0,-7"
           id="path3570"
           inkscape:connector-curvature="0" />
        <path
           style="fill:#c5f199;fill-opacity:1;fill-rule:evenodd;stroke:none"
           d="m 33,42 0,-7"
           id="path3572"
           inkscape:connector-curvature="0" />
      </g>
    </g>
    <g
       transform="matrix(0.92918604,0.26256277,-0.26256277,0.92918604,331.64126,415.09225)"
       id="g3574"
       style="fill:#ffffff;fill-opacity:1;stroke:none">
      <path
         sodipodi:nodetypes="csccsssscc"
         id="path3576"
         d="m 35.234589,13.724224 c -3.738051,8.081569 -13.234694,16.222743 -15.739843,10.908947 -1.235532,-2.620748 0.949841,-7.293696 5.475765,-12.587054 -5.917527,3.638792 -15.9656505,12.611852 -14.356426,21.845048 -0.373989,3.839534 2.603499,10.963452 6.460619,8.636853 1.02821,-0.620212 2.757632,0.276028 3.378232,1.331675 1.318547,2.242864 6.112369,1.587546 7.154116,0.151368 0.767834,-1.058552 2.373555,-1.67156 3.638431,-1.376939 5.533355,1.288856 5.920667,-6.12533 5.897326,-9.045945 1.628814,-10.746518 -1.787127,-15.883715 -1.90822,-19.863953 z"
         style="fill:#ffffff;fill-opacity:1;fill-rule:nonzero;stroke:none"
         inkscape:connector-curvature="0" />
      <g
         style="fill:#ffffff;fill-opacity:1;stroke:none"
         id="g3578">
        <path
           style="fill:#ffffff;fill-opacity:1;fill-rule:evenodd;stroke:none"
           d="m 33,42 0,-7"
           id="path3580"
           inkscape:connector-curvature="0" />
        <path
           style="fill:#ffffff;fill-opacity:1;fill-rule:evenodd;stroke:none"
           d="M 24,45 24,33"
           id="path3582"
           inkscape:connector-curvature="0" />
        <path
           style="fill:#ffffff;fill-opacity:1;fill-rule:evenodd;stroke:none"
           d="m 15,42 0,-7"
           id="path3584"
           inkscape:connector-curvature="0" />
      </g>
    </g>
    <path
       sodipodi:nodetypes="cc"
       id="path3590"
       d="m 336.97895,459.52865 c -0.26416,-2.2948 -0.5549,-6.61596 1.45455,-9.12443"
       style="fill:none;stroke:#c5f199;stroke-width:2.89671063;stroke-linecap:round;stroke-linejoin:miter;stroke-miterlimit:4;stroke-opacity:1;stroke-dasharray:none"
       inkscape:connector-curvature="0" />
    <path
       sodipodi:nodetypes="ccccc"
       id="path3592"
       d="m 347.15215,452.94369 c -2.31624,6.04771 -0.81036,7.06961 0.31584,10.35761 l 0,0 0,0 -0.14271,-0.49948"
       style="fill:none;stroke:#c5f199;stroke-width:2.89671063;stroke-linecap:round;stroke-linejoin:miter;stroke-miterlimit:4;stroke-opacity:1;stroke-dasharray:none"
       inkscape:connector-curvature="0" />
    <g
       transform="matrix(1.1626866,0.3285437,-0.3285437,1.1626866,300.43486,392.47027)"
       id="g3596">
      <path
         inkscape:connector-curvature="0"
         sodipodi:nodetypes="ccsssscsc"
         id="path3785"
         d="m 56.955862,15.829078 c -3.384632,1.671818 -19.551587,8.269736 -19.759309,21.727461 0.101826,4.505463 2.326405,10.045465 7.099697,8.469031 0.338307,-0.11154 0.405473,-0.0087 0.608766,0.245115 3.319953,4.145174 7.97487,1.904907 8.554775,-0.25127 0.08259,-0.307092 -0.283685,-0.09558 0,0 5.951193,2.005047 7.333863,-3.488063 7.714656,-8.143101 0.886121,-4.195838 -2.239619,-19.739573 -2.988321,-18.465578 -12.755832,21.705386 -16.894078,6.932551 -1.230264,-3.581658"
         style="fill:#ffffff;fill-opacity:1;fill-rule:nonzero;stroke:#ffffff;stroke-width:9.93201527999999989;stroke-linecap:round;stroke-linejoin:round;stroke-miterlimit:4;stroke-opacity:1;stroke-dasharray:none" />
      <path
         style="fill:#ffffff;fill-opacity:1;fill-rule:nonzero;stroke:#000000;stroke-width:2.89683779;stroke-linecap:butt;stroke-linejoin:round;stroke-miterlimit:4;stroke-opacity:1;stroke-dasharray:none"
         d="m 56.955862,15.829078 c -3.384632,1.671818 -19.551587,8.269736 -19.759309,21.727461 0.101826,4.505463 2.326405,10.045465 7.099697,8.469031 0.338307,-0.11154 0.405473,-0.0087 0.608766,0.245115 3.319953,4.145174 7.97487,1.904907 8.554775,-0.25127 0.08259,-0.307092 -0.283685,-0.09558 0,0 5.951193,2.005047 7.333863,-3.488063 7.714656,-8.143101 0.886121,-4.195838 -2.239619,-19.739573 -2.988321,-18.465578 -12.755832,21.705386 -16.894078,6.932551 -1.230264,-3.581658"
         id="path3598"
         sodipodi:nodetypes="ccsssscsc"
         inkscape:connector-curvature="0" />
      <g
         id="g3600"
         style="fill:none;stroke:#000000;stroke-width:3.62480099;stroke-linecap:round;stroke-linejoin:bevel;stroke-miterlimit:4;stroke-opacity:1;stroke-dasharray:none"
         transform="matrix(0.79917154,0,0,0.79917154,29.914537,10.880865)">
        <g
           style="stroke:#000000;stroke-width:3.62480099;stroke-miterlimit:4;stroke-opacity:1;stroke-dasharray:none"
           id="g3602">
          <path
             sodipodi:nodetypes="cc"
             style="fill:none;stroke:#000000;stroke-width:3.62480099;stroke-linecap:round;stroke-linejoin:bevel;stroke-miterlimit:4;stroke-opacity:1;stroke-dasharray:none"
             d="M 18.645566,43.903974 C 15.051587,37.187354 16.540541,35.406359 16.713974,33.280216"
             id="path3606"
             inkscape:connector-curvature="0" />
          <path
             sodipodi:nodetypes="cc"
             style="fill:none;stroke:#000000;stroke-width:3.62480099;stroke-linecap:round;stroke-linejoin:bevel;stroke-miterlimit:4;stroke-opacity:1;stroke-dasharray:none"
             d="M 29.35012,43.828988 C 26.087374,40.085035 25.418677,36.423326 26.118423,33.355781"
             id="path3608"
             inkscape:connector-curvature="0" />
        </g>
      </g>
    </g>
  </g>
</svg>
