<?xml version="1.0" encoding="UTF-8" standalone="no"?>
<!-- Created with Inkscape (http://www.inkscape.org/) -->

<svg
   xmlns:dc="http://purl.org/dc/elements/1.1/"
   xmlns:cc="http://creativecommons.org/ns#"
   xmlns:rdf="http://www.w3.org/1999/02/22-rdf-syntax-ns#"
   xmlns:svg="http://www.w3.org/2000/svg"
   xmlns="http://www.w3.org/2000/svg"
   xmlns:xlink="http://www.w3.org/1999/xlink"
   xmlns:sodipodi="http://sodipodi.sourceforge.net/DTD/sodipodi-0.dtd"
   xmlns:inkscape="http://www.inkscape.org/namespaces/inkscape"
   width="48"
   height="48"
   id="svg2"
   sodipodi:version="0.32"
   inkscape:version="0.48.3.1 r9886"
   sodipodi:docname="nexuiz.svg"
   inkscape:output_extension="org.inkscape.output.svg.inkscape"
   version="1.0">
  <defs
     id="defs4">
    <inkscape:perspective
       sodipodi:type="inkscape:persp3d"
       inkscape:vp_x="0 : 526.18109 : 1"
       inkscape:vp_y="0 : 1000 : 0"
       inkscape:vp_z="744.09448 : 526.18109 : 1"
       inkscape:persp3d-origin="372.04724 : 350.78739 : 1"
       id="perspective45" />
    <linearGradient
       id="linearGradient3163">
      <stop
         style="stop-color: rgb(185, 185, 185); stop-opacity: 1;"
         offset="0"
         id="stop3165" />
      <stop
         style="stop-color: rgb(255, 255, 255); stop-opacity: 1;"
         offset="1"
         id="stop3167" />
    </linearGradient>
    <linearGradient
       id="linearGradient3146">
      <stop
         style="stop-color: rgb(255, 255, 255); stop-opacity: 1;"
         offset="0"
         id="stop3148" />
      <stop
         id="stop3151"
         offset="0.23"
         style="stop-color: rgb(250, 250, 250); stop-opacity: 1;" />
      <stop
         style="stop-color: rgb(223, 223, 223); stop-opacity: 1;"
         offset="0.66964287"
         id="stop3163" />
      <stop
         style="stop-color: rgb(210, 210, 210); stop-opacity: 1;"
         offset="1"
         id="stop3150" />
    </linearGradient>
    <linearGradient
       id="linearGradient4105">
      <stop
         style="stop-color: rgb(150, 150, 150); stop-opacity: 1;"
         offset="0"
         id="stop4107" />
      <stop
         id="stop5090"
         offset="0.30613473"
         style="stop-color: rgb(118, 118, 118); stop-opacity: 1;" />
      <stop
         style="stop-color: rgb(58, 58, 58); stop-opacity: 1;"
         offset="0.50999999"
         id="stop5100" />
      <stop
         id="stop4113"
         offset="0.51999998"
         style="stop-color: rgb(0, 0, 0); stop-opacity: 1;" />
      <stop
         style="stop-color: rgb(0, 0, 0); stop-opacity: 1;"
         offset="0.52999997"
         id="stop5098" />
      <stop
         style="stop-color: rgb(0, 0, 0); stop-opacity: 1;"
         offset="0.52999997"
         id="stop5096" />
      <stop
         id="stop8016"
         offset="0.52999997"
         style="stop-color: rgb(0, 0, 0); stop-opacity: 1;" />
      <stop
         id="stop4122"
         offset="0.54000002"
         style="stop-color: rgb(38, 38, 38); stop-opacity: 1;" />
      <stop
         id="stop5092"
         offset="0.72486901"
         style="stop-color: rgb(79, 79, 79); stop-opacity: 1;" />
      <stop
         style="stop-color: rgb(82, 82, 82); stop-opacity: 1;"
         offset="0.75613099"
         id="stop5107" />
      <stop
         style="stop-color: rgb(68, 68, 68); stop-opacity: 1;"
         offset="0.85817355"
         id="stop8065" />
      <stop
         style="stop-color: rgb(47, 47, 47); stop-opacity: 1;"
         offset="0.9347055"
         id="stop4115" />
      <stop
         id="stop4117"
         offset="1"
         style="stop-color: rgb(30, 30, 30); stop-opacity: 1;" />
    </linearGradient>
    <linearGradient
       inkscape:collect="always"
       xlink:href="#linearGradient4105"
       id="linearGradient4111"
       x1="28.5"
       y1="98.362183"
       x2="156.5"
       y2="98.362183"
       gradientUnits="userSpaceOnUse" />
    <style
       id="style5106"
       type="text/css">
    #nex-logo {fill:#000000}
  </style>
    <linearGradient
       inkscape:collect="always"
       xlink:href="#linearGradient3146"
       id="linearGradient3152"
       x1="4.2504244"
       y1="0.23207407"
       x2="4.2504244"
       y2="10.73795"
       gradientUnits="userSpaceOnUse" />
    <linearGradient
       inkscape:collect="always"
       xlink:href="#linearGradient3163"
       id="linearGradient3169"
       x1="-204.5"
       y1="-21.637817"
       x2="-177.5"
       y2="-21.637817"
       gradientUnits="userSpaceOnUse"
       gradientTransform="matrix(0.616843,0,0,0.382741,273.317,55.6439)" />
    <linearGradient
       inkscape:collect="always"
       xlink:href="#linearGradient3163"
       id="linearGradient2200"
       gradientUnits="userSpaceOnUse"
       gradientTransform="matrix(0.616843,0,0,0.382741,274.808,52.7494)"
       x1="-198.40771"
       y1="36.58765"
       x2="-198.40771"
       y2="-36.779972" />
    <linearGradient
       inkscape:collect="always"
       xlink:href="#linearGradient3163"
       id="linearGradient2195"
       gradientUnits="userSpaceOnUse"
       gradientTransform="matrix(0.616843,0,0,0.382741,274.808,52.7494)"
       x1="-198.40771"
       y1="36.58765"
       x2="-198.40771"
       y2="-36.779972" />
    <filter
       inkscape:collect="always"
       id="filter4134"
       color-interpolation-filters="sRGB">
      <feGaussianBlur
         inkscape:collect="always"
         stdDeviation="0.07136633"
         id="feGaussianBlur4136" />
    </filter>
  </defs>
  <sodipodi:namedview
     id="base"
     pagecolor="#ffffff"
     bordercolor="#666666"
     borderopacity="1.0"
     gridtolerance="10000"
     guidetolerance="10"
     objecttolerance="10"
     inkscape:pageopacity="0.0"
     inkscape:pageshadow="2"
     inkscape:zoom="8"
     inkscape:cx="-6.902177"
     inkscape:cy="20.979043"
     inkscape:document-units="px"
     inkscape:current-layer="g2418"
     inkscape:window-width="1366"
     inkscape:window-height="717"
     inkscape:window-x="0"
     inkscape:window-y="0"
     showgrid="false"
     inkscape:window-maximized="1" />
  <metadata
     id="metadata7">
    <rdf:RDF>
      <cc:Work
         rdf:about="">
        <dc:format>image/svg+xml</dc:format>
        <dc:type
           rdf:resource="http://purl.org/dc/dcmitype/StillImage" />
      </cc:Work>
    </rdf:RDF>
  </metadata>
  <g
     inkscape:label="Layer 1"
     inkscape:groupmode="layer"
     id="layer1"
     transform="translate(-18.9825,-219.3622)">
    <g
       id="g2418"
       transform="matrix(0.1562503,0,0,0.15772419,20.016638,220.22271)">
      <path
         sodipodi:type="arc"
         style="fill:#000000;fill-opacity:1;stroke:#ffffff;stroke-width:25.78314135999999834;stroke-linecap:round;stroke-linejoin:round;stroke-miterlimit:4;stroke-opacity:1;stroke-dasharray:none"
         id="path3794"
         sodipodi:cx="92.5"
         sodipodi:cy="98.362183"
         sodipodi:rx="63.5"
         sodipodi:ry="64"
         d="m 156,98.362183 c 0,35.346227 -28.42992,63.999997 -63.5,63.999997 -35.070082,0 -63.5,-28.65377 -63.5,-63.999997 0,-35.346224 28.429918,-64 63.5,-64 35.07008,0 63.5,28.653776 63.5,64 z"
         transform="matrix(0,1.98426,-1.96875,0,340.64119,-38.022749)"
         inkscape:label="#path3134" />
      <path
         inkscape:label="#path3134"
         transform="matrix(0,1.885047,-1.8703125,0,330.95866,-28.845547)"
         d="m 156,98.362183 a 63.5,64 0 1 1 -127,0 63.5,64 0 1 1 127,0 z"
         sodipodi:ry="64"
         sodipodi:rx="63.5"
         sodipodi:cy="98.362183"
         sodipodi:cx="92.5"
         id="bgcircle"
         style="fill:#000000;fill-opacity:1;stroke:#000000;stroke-width:2.02354002;stroke-linecap:round;stroke-linejoin:round;stroke-miterlimit:4;stroke-opacity:1;stroke-dasharray:none"
         sodipodi:type="arc" />
      <g
         inkscape:label="#g5108"
         style="fill:#ffffff;fill-opacity:1;stroke:#000000;stroke-width:0.22542;stroke-linecap:round;stroke-linejoin:miter;stroke-miterlimit:2;stroke-opacity:1;stroke-dasharray:none"
         transform="matrix(20.46813,0,0,20.84984,62.786298,28.354143)"
         id="nexlogo">
        <path
           sodipodi:nodetypes="csscccccccsscsscssccssscccccsssscsssccccscscccssscssccccccccccccssccsscccssc"
           id="path3149"
           d="M 2.71875,0.34375 C 2.688418,0.34450061 2.655957,0.353653 2.625,0.375 2.594043,0.3963469 2.568646,0.435437 2.5625,0.46875 2.550207,0.535376 2.56522,0.5672638 2.59375,0.625 c 0.1314626,0.23687467 0.2614206,0.4216777 0.3125,0.5625 0.08775,0.1952706 0.086505,0.376743 0.0625,0.5 L 2.8125,2.4375 C 2.0236174,2.6201857 1.2621836,2.8048245 0.5,3.0625 0.35165124,3.1099492 0.23863413,3.1577155 0.125,3.21875 0.1146528,3.21705 0.1040972,3.21705 0.09375,3.21875 0.05381847,3.2425338 0.05195078,3.277549 0.03125,3.3125 0.02089961,3.3299755 0.00286584,3.3503389 0,3.375 -0.00286584,3.399661 0.00882604,3.439925 0.03125,3.46875 0.09780837,3.560459 0.18728388,3.5983637 0.3125,3.65625 0.43771612,3.714136 0.58154157,3.7738331 0.6875,3.8125 1.2175812,4.0059491 1.8992405,4.1623385 2.4375,4.21875 2.2925598,4.8726437 2.1525159,5.5190379 1.9375,6.15625 1.8851541,6.3113822 1.8184218,6.4729655 1.75,6.625 1.553482,7.0616761 1.3042288,7.4603266 1.0625,7.84375 0.80716262,8.2017666 0.59199664,8.5507627 0.3125,8.875 0.2603615,8.9302096 0.17620569,8.9774969 0.125,9.03125 0.09939715,9.0581266 0.0811414,9.1011639 0.0625,9.125 0.0531793,9.136918 0.03922569,9.141779 0.03125,9.15625 c -0.0079757,0.014471 -0.0030483,0.02206 0,0.0625 -0.0017011,0.010347 -0.0017011,0.020903 0,0.03125 0.0078538,0.012698 0.01855202,0.023396 0.03125,0.03125 0.0078538,0.012698 0.01855202,0.023396 0.03125,0.03125 0.01034722,0.0017 0.02090278,0.0017 0.03125,0 C 0.1808274,9.321 0.22703847,9.29814 0.28125,9.28125 0.3354615,9.26436 0.372756,9.249129 0.4375,9.21875 0.566988,9.1579928 0.73401682,9.0891814 0.875,9 1.0775389,8.8718796 1.2269642,8.7416005 1.34375,8.65625 1.5495591,8.5058386 2.0130479,8.074397 2.25,7.78125 2.5222486,7.4714555 2.8121153,7.1390774 3.03125,6.71875 3.03545,6.71069 3.02708,6.69563 3.03125,6.6875 3.046196,6.661725 3.1327665,6.4960908 3.15625,6.4375 3.203217,6.3203184 3.2346334,6.2040418 3.25,6.15625 L 3.9375,4.0625 6.34375,3.5 C 6.2840591,4.0049041 6.217099,4.4939943 6.15625,5 6.109879,5.4171322 6.078209,5.585101 6.03125,6.03125 c -0.0014,0.01333 0.00144,0.017393 0,0.03125 C 6.004599,6.2000007 5.9270819,6.5862654 5.90625,6.6875 5.7465265,7.4636992 5.5749329,8.1675068 5.21875,8.78125 5.1335334,8.9009667 5.0349489,9.026863 4.9375,9.125 4.838944,9.0771878 4.700674,9.0105798 4.5,9 4.49653,8.9995665 4.478387,9.0003702 4.46875,9 4.458403,8.9983 4.447847,8.9983 4.4375,9 4.4371306,9.0001406 4.406467,9.031033 4.40625,9.03125 4.393552,9.0391 4.382854,9.049802 4.375,9.0625 4.361744,9.133468 4.385617,9.1883384 4.40625,9.25 c 0.020633,0.061662 0.037451,0.130797 0.0625,0.1875 0.1806805,0.4089828 0.3926938,0.761463 0.59375,1.125 0.00785,0.0127 0.018552,0.0234 0.03125,0.03125 0.00785,0.0127 0.018552,0.0234 0.03125,0.03125 0.010347,0.0017 0.020903,0.0017 0.03125,0 0.010347,0.0017 0.020903,0.0017 0.03125,0 C 5.200198,10.6171 5.210896,10.60645 5.21875,10.59375 5.5189496,10.309209 5.8714654,9.8510932 6.125,9.46875 6.6236637,8.7207907 7.0452816,7.8846287 7.34375,6.9375 7.3883474,6.7901664 7.4246901,6.6410374 7.46875,6.46875 L 8.40625,2.875 C 8.4458883,2.7161831 8.4917163,2.5396654 8.5,2.40625 8.5017,2.395903 8.5017,2.385347 8.5,2.375 8.4806041,2.3287353 8.4381745,2.3045885 8.40625,2.28125 8.3743255,2.2579115 8.3528501,2.2388916 8.3125,2.21875 8.2317998,2.1784669 8.1248958,2.1291882 8.03125,2.09375 7.5815732,1.9422864 7.0928287,1.8060249 6.5625,1.6875 6.5057755,1.6628339 6.4671119,1.6529551 6.40625,1.65625 6.3453881,1.6595449 6.2553445,1.6748233 6.1875,1.6875 6.0518109,1.7128533 5.9120761,1.7601366 5.8125,1.78125 L 4.5625,2.0625 C 4.6156969,1.8963176 4.7020625,1.6513847 4.625,1.34375 4.5183085,0.99456299 4.2430719,0.7908664 3.9375,0.6875 3.6772283,0.59945684 3.4230752,0.52110038 3.15625,0.4375 3.1130397,0.42396246 2.9166652,0.3545568 2.71875,0.34375 z"
           style="fill:#ffffff;fill-opacity:1;stroke:#000000;stroke-opacity:1"
           inkscape:connector-curvature="0" />
      </g>
      <path
         sodipodi:nodetypes="ccsccsc"
         id="path2190"
         d="m 154.59075,50.070355 -3.89328,0.07805 c 0.7189,0.979296 2.05121,3.939536 1.87322,7.854098 -0.17799,3.914562 -2.0246,10.734168 -3.3646,13.589494 l 3.84638,-0.923685 c 0.86694,-1.701545 2.88651,-7.777354 3.15625,-12.371534 0.19709,-3.356923 -0.96155,-7.746776 -1.61797,-8.226421 z"
         style="fill:#ffffff;fill-opacity:1;fill-rule:evenodd;stroke:none;filter:url(#filter4134)"
         inkscape:connector-curvature="0"
         transform="matrix(0.95,0,0,0.95,7.3495321,7.276065)" />
      <path
         sodipodi:nodetypes="ccccc"
         id="path4142"
         d="m 195.70651,95.124692 -53.14399,12.817888 -1.0251,3.37416 53.81875,-12.847569 0.35034,-3.344479 z"
         style="fill:#ffffff;fill-opacity:1;fill-rule:evenodd;stroke:none"
         inkscape:connector-curvature="0" />
      <path
         sodipodi:nodetypes="csccscc"
         id="path5113"
         d="m 230.76016,80.737358 c -11.86085,49.443322 -18.48523,79.174722 -26.90128,102.647332 -8.41605,23.47261 -24.16038,45.85539 -35.14678,58.85064 l -0.27363,5.19734 c 18.37628,-21.34398 30.00555,-39.15343 38.53759,-62.94954 8.53205,-23.79612 15.77921,-56.02115 27.63516,-105.444064 l -3.85106,1.698292 z"
         style="fill:#ffffff;fill-opacity:1;fill-rule:evenodd;stroke:none"
         inkscape:connector-curvature="0" />
      <path
         sodipodi:nodetypes="ccccc"
         id="path6085"
         d="m 71.110007,99.227388 -5.935976,0.0051 c 1.683284,3.716152 24.316612,12.557782 50.303289,15.025162 l 0.63671,-2.94155 C 96.433219,108.82467 82.403014,104.40115 71.110007,99.227388 z"
         style="fill:#ffffff;fill-opacity:1;fill-rule:evenodd;stroke:none"
         inkscape:connector-curvature="0" />
      <path
         sodipodi:nodetypes="cccscc"
         id="path6087"
         d="M 138.89843,108.88554 C 126.54532,148.3371 123.71504,175.6024 80.5698,209.04961 l -14.711637,10.96494 c 18.255472,-3.85356 45.814017,-32.0263 57.002377,-52.63106 4.84015,-8.91376 17.49461,-50.16428 19.65137,-59.41018 l -3.61348,0.91223 z"
         style="fill:#ffffff;fill-opacity:1;fill-rule:evenodd;stroke:none"
         inkscape:connector-curvature="0" />
    </g>
  </g>
</svg>
