<?xml version="1.0" encoding="UTF-8" standalone="no"?>
<!-- Generator: Adobe Illustrator 16.0.0, SVG Export Plug-In . SVG Version: 6.00 Build 0)  -->

<svg
   xmlns:dc="http://purl.org/dc/elements/1.1/"
   xmlns:cc="http://creativecommons.org/ns#"
   xmlns:rdf="http://www.w3.org/1999/02/22-rdf-syntax-ns#"
   xmlns:svg="http://www.w3.org/2000/svg"
   xmlns="http://www.w3.org/2000/svg"
   xmlns:sodipodi="http://sodipodi.sourceforge.net/DTD/sodipodi-0.dtd"
   xmlns:inkscape="http://www.inkscape.org/namespaces/inkscape"
   version="1.1"
   id="svg2"
   x="0px"
   y="0px"
   width="48"
   height="48"
   viewBox="35.188 31.512 48.000001 47.999999"
   enable-background="new 35.188 31.512 351.46 258.785"
   xml:space="preserve"
   inkscape:version="0.91 r13725"
   sodipodi:docname="nvidia-settings.svg"><metadata
     id="metadata11"><rdf:RDF><cc:Work
         rdf:about=""><dc:format>image/svg+xml</dc:format><dc:type
           rdf:resource="http://purl.org/dc/dcmitype/StillImage" /><dc:title>generated by pstoedit version:3.44 from NVBadge_2D.eps</dc:title></cc:Work></rdf:RDF></metadata><defs
     id="defs9" /><sodipodi:namedview
     pagecolor="#ffffff"
     bordercolor="#666666"
     borderopacity="1"
     objecttolerance="10"
     gridtolerance="10"
     guidetolerance="10"
     inkscape:pageopacity="0"
     inkscape:pageshadow="2"
     inkscape:window-width="1920"
     inkscape:window-height="1029"
     id="namedview7"
     showgrid="false"
     inkscape:zoom="10.140039"
     inkscape:cx="43.310011"
     inkscape:cy="24.940285"
     inkscape:window-x="0"
     inkscape:window-y="0"
     inkscape:window-maximized="1"
     inkscape:current-layer="svg2" /><title
     id="title4">generated by pstoedit version:3.44 from NVBadge_2D.eps</title><path
     inkscape:connector-curvature="0"
     style="fill:#000000;fill-opacity:1;stroke:#ffffff;stroke-opacity:1;stroke-width:8;stroke-miterlimit:4;stroke-dasharray:none;stroke-linejoin:round;stroke-linecap:round"
     d="m 43.274787,53.672159 c 0,0 3.616568,-5.33598 10.837649,-5.88801 l 0,-1.93588 c -7.998264,0.64235 -14.924447,7.4165 -14.924447,7.4165 0,0 3.922876,11.34034 14.924447,12.37868 l 0,-2.05771 c -8.073475,-1.01567 -10.837649,-9.91358 -10.837649,-9.91358 z m 10.837649,5.82132 0,1.88446 c -6.101752,-1.08783 -7.795451,-7.43064 -7.795451,-7.43064 0,0 2.929703,-3.2455 7.795451,-3.77181 l 0,2.06782 c -0.0037,0 -0.0063,-0.001 -0.0093,-0.001 -2.553807,-0.30647 -4.548833,2.07923 -4.548833,2.07923 0,0 1.118205,4.01625 4.558154,5.17206 m 0,-17.21582 0,3.57061 c 0.234794,-0.018 0.469588,-0.0333 0.705668,-0.0413 9.093166,-0.30647 15.017979,7.4578 15.017979,7.4578 0,0 -6.804848,8.27452 -13.89431,8.27452 -0.649742,0 -1.258021,-0.0603 -1.829337,-0.16151 l 0,2.20796 c 0.488552,0.062 0.995103,0.0985 1.523671,0.0985 6.597214,0 11.368145,-3.36924 15.98785,-7.35688 0.765933,0.61342 3.901663,2.10575 4.546262,2.75903 -4.392465,3.67747 -14.629388,6.64189 -20.433027,6.64189 -0.559424,0 -1.09667,-0.0339 -1.624756,-0.0848 l 0,3.10262 25.075553,0 0,-26.46841 -25.075553,0 z m 0,7.89783 0,-2.39118 c 0.232384,-0.0162 0.466535,-0.0288 0.705668,-0.0363 6.538877,-0.20538 10.82881,5.61915 10.82881,5.61915 0,0 -4.633526,6.43522 -9.601646,6.43522 -0.714988,0 -1.356052,-0.1149 -1.932992,-0.30888 l 0,-7.25017 c 2.54561,0.3076 3.057947,1.43207 4.588367,3.9833 l 3.40379,-2.87008 c 0,0 -2.484703,-3.25867 -6.673229,-3.25867 -0.455285,-1.6e-4 -0.890964,0.0318 -1.318768,0.0776"
     id="path4139" /><path
     id="path21"
     d="m 43.274787,53.672159 c 0,0 3.616568,-5.33598 10.837649,-5.88801 l 0,-1.93588 c -7.998264,0.64235 -14.924447,7.4165 -14.924447,7.4165 0,0 3.922876,11.34034 14.924447,12.37868 l 0,-2.05771 c -8.073475,-1.01567 -10.837649,-9.91358 -10.837649,-9.91358 z m 10.837649,5.82132 0,1.88446 c -6.101752,-1.08783 -7.795451,-7.43064 -7.795451,-7.43064 0,0 2.929703,-3.2455 7.795451,-3.77181 l 0,2.06782 c -0.0037,0 -0.0063,-0.001 -0.0093,-0.001 -2.553807,-0.30647 -4.548833,2.07923 -4.548833,2.07923 0,0 1.118205,4.01625 4.558154,5.17206 m 0,-17.21582 0,3.57061 c 0.234794,-0.018 0.469588,-0.0333 0.705668,-0.0413 9.093166,-0.30647 15.017979,7.4578 15.017979,7.4578 0,0 -6.804848,8.27452 -13.89431,8.27452 -0.649742,0 -1.258021,-0.0603 -1.829337,-0.16151 l 0,2.20796 c 0.488552,0.062 0.995103,0.0985 1.523671,0.0985 6.597214,0 11.368145,-3.36924 15.98785,-7.35688 0.765933,0.61342 3.901663,2.10575 4.546262,2.75903 -4.392465,3.67747 -14.629388,6.64189 -20.433027,6.64189 -0.559424,0 -1.09667,-0.0339 -1.624756,-0.0848 l 0,3.10262 25.075553,0 0,-26.46841 -25.075553,0 z m 0,7.89783 0,-2.39118 c 0.232384,-0.0162 0.466535,-0.0288 0.705668,-0.0363 6.538877,-0.20538 10.82881,5.61915 10.82881,5.61915 0,0 -4.633526,6.43522 -9.601646,6.43522 -0.714988,0 -1.356052,-0.1149 -1.932992,-0.30888 l 0,-7.25017 c 2.54561,0.3076 3.057947,1.43207 4.588367,3.9833 l 3.40379,-2.87008 c 0,0 -2.484703,-3.25867 -6.673229,-3.25867 -0.455285,-1.6e-4 -0.890964,0.0318 -1.318768,0.0776"
     style="fill:#000000;fill-opacity:1"
     inkscape:connector-curvature="0" /></svg>