<?xml version="1.0" encoding="UTF-8" standalone="no"?>
<!-- Generator: Adobe Illustrator 9.0, SVG Export Plug-In  -->

<svg
   xmlns:dc="http://purl.org/dc/elements/1.1/"
   xmlns:cc="http://creativecommons.org/ns#"
   xmlns:rdf="http://www.w3.org/1999/02/22-rdf-syntax-ns#"
   xmlns:svg="http://www.w3.org/2000/svg"
   xmlns="http://www.w3.org/2000/svg"
   xmlns:sodipodi="http://sodipodi.sourceforge.net/DTD/sodipodi-0.dtd"
   xmlns:inkscape="http://www.inkscape.org/namespaces/inkscape"
   id="svg2"
   sodipodi:docname="libreoffice-math.svg"
   xml:space="preserve"
   height="48px"
   sodipodi:version="0.32"
   width="48px"
   viewBox="0 0 48 48"
   version="1.1"
   inkscape:version="0.48.3.1 r9886"><defs
   id="defs11" /><metadata
   id="metadata19"><rdf:RDF><cc:Work
       rdf:about=""><dc:format>image/svg+xml</dc:format><dc:type
         rdf:resource="http://purl.org/dc/dcmitype/StillImage" /><dc:title /><dc:creator><cc:Agent><dc:title>Jakub Stainer</dc:title></cc:Agent></dc:creator><cc:license
         rdf:resource="http://creativecommons.org/licenses/GPL/2.0/" /></cc:Work><cc:License
       rdf:about="http://creativecommons.org/licenses/GPL/2.0/"><cc:permits
         rdf:resource="http://web.resource.org/cc/Reproduction" /><cc:permits
         rdf:resource="http://web.resource.org/cc/Distribution" /><cc:requires
         rdf:resource="http://web.resource.org/cc/Notice" /><cc:permits
         rdf:resource="http://web.resource.org/cc/DerivativeWorks" /><cc:requires
         rdf:resource="http://web.resource.org/cc/ShareAlike" /><cc:requires
         rdf:resource="http://web.resource.org/cc/SourceCode" /></cc:License></rdf:RDF></metadata><sodipodi:namedview
   id="base"
   bordercolor="#666666"
   guidetolerance="0.50000000px"
   pagecolor="#ffffff"
   gridtolerance="0.50000000px"
   borderopacity="1.0"
   showgrid="true"
   showguides="true"
   inkscape:zoom="9.8333333"
   inkscape:cx="-1.7630712"
   inkscape:cy="23.884577"
   inkscape:window-width="1366"
   inkscape:window-height="717"
   inkscape:window-x="0"
   inkscape:window-y="0"
   inkscape:window-maximized="1"
   inkscape:current-layer="svg2"><sodipodi:guide
     id="guide3305"
     position="24.944882"
     orientation="vertical" /><sodipodi:guide
     id="guide3307"
     position="28.031496"
     orientation="horizontal" /></sodipodi:namedview>
	<rect
   id="rect3319"
   style="fill:none"
   height="43.200001"
   width="43.200001"
   y="2.4000001"
   x="2.4000001" /><path
   id="path4775"
   sodipodi:nodetypes="ccccccc"
   style="fill:#ffffff;stroke:#ffffff;stroke-width:8.44508266;stroke-linejoin:round;stroke-miterlimit:4;stroke-dasharray:none"
   d="M 38.843526,43.777459 H 9.1564744 V 4.3634969 H 29.93741 l 8.906116,11.2611321 v 5.269084 22.883746 z"
   inkscape:connector-curvature="0" /><path
   id="path7"
   sodipodi:nodetypes="cccccc"
   style="stroke:#000000;stroke-width:3.80028725;stroke-linejoin:round"
   d="M 37.359173,41.799713 H 10.640827 V 6.3271472 h 18.702842 l 8.015504,10.1350188 v 25.337547 z"
   inkscape:connector-curvature="0" /><path
   id="path9"
   sodipodi:nodetypes="cccccc"
   style="fill:#ffffff"
   d="m 35.57795,16.462166 -0.0027,23.314597 -23.153228,-0.004 0.01514,-31.4003145 16.015867,-0.018243 7.124892,8.1080155 z"
   inkscape:connector-curvature="0" />
<g
   transform="matrix(0.9,0,0,0.9,9.538983,10.454237)"
   style="font-size:4px;font-style:normal;font-weight:bold;line-height:125%;letter-spacing:0px;word-spacing:0px;fill:#c90016;fill-opacity:1;stroke:none;font-family:Sans;-inkscape-font-specification:Sans Bold"
   id="flowRoot2987"><path
     d="m 14.415,26.151653 c -10e-6,0.540003 -0.09601,1.038002 -0.288,1.494 -0.180009,0.444001 -0.456009,0.834001 -0.828,1.17 -0.372008,0.336 -0.840008,0.6 -1.404,0.792 -0.552006,0.18 -1.194006,0.269999 -1.926,0.27 -0.8400043,-10e-7 -1.5420036,-0.114 -2.106,-0.342 -0.5520024,-0.24 -1.002002,-0.534 -1.35,-0.882 -0.3360013,-0.347999 -0.5760011,-0.725999 -0.72,-1.134 -0.1440008,-0.419998 -0.2160007,-0.803997 -0.216,-1.152 -7e-7,-0.359997 0.047999,-0.689996 0.144,-0.99 0.095999,-0.299996 0.2279989,-0.569995 0.396,-0.81 0.1679986,-0.251995 0.3539984,-0.479995 0.558,-0.684 0.215998,-0.203994 0.4439978,-0.395994 0.684,-0.576 -0.516002,-0.419994 -0.9000016,-0.833993 -1.152,-1.242 -0.2400011,-0.407992 -0.360001,-0.929992 -0.36,-1.566 -1e-6,-0.479991 0.095999,-0.94199 0.288,-1.386 0.2039985,-0.443989 0.4859983,-0.827989 0.846,-1.152 0.3599975,-0.335988 0.7919971,-0.599988 1.296,-0.792 0.5159961,-0.203988 1.0859955,-0.305987 1.71,-0.306 0.731994,1.3e-5 1.355994,0.108012 1.872,0.324 0.527992,0.204012 0.959992,0.468012 1.296,0.792 0.335991,0.324011 0.575991,0.690011 0.72,1.098 0.155991,0.39601 0.233991,0.792009 0.234,1.188 -9e-6,0.576009 -0.156009,1.116008 -0.468,1.62 -0.300008,0.492007 -0.678008,0.882007 -1.134,1.17 0.683992,0.444006 1.169991,0.912005 1.458,1.404 0.299991,0.480004 0.44999,1.044004 0.45,1.692 m -6.228,0.108 c -3.3e-6,0.144003 0.029997,0.306003 0.09,0.486 0.071997,0.168002 0.1799964,0.324002 0.324,0.468 0.1439961,0.144002 0.3299959,0.264002 0.558,0.36 0.2279955,0.096 0.5039952,0.144002 0.828,0.144 0.623994,2e-6 1.079994,-0.149998 1.368,-0.45 0.287993,-0.299998 0.431993,-0.635997 0.432,-1.008 -7e-6,-0.275997 -0.06601,-0.521996 -0.198,-0.738 -0.120007,-0.215996 -0.288006,-0.401996 -0.504,-0.558 -0.216006,-0.167995 -0.474006,-0.311995 -0.774,-0.432 -0.288005,-0.131995 -0.6000048,-0.251995 -0.936,-0.36 -0.3360042,0.252005 -0.6180039,0.546005 -0.846,0.882 -0.2280034,0.336004 -0.3420033,0.738004 -0.342,1.206 m 3.33,-5.922 c -7e-6,-0.131991 -0.03001,-0.269991 -0.09,-0.414 -0.04801,-0.15599 -0.138006,-0.29999 -0.27,-0.432 -0.120006,-0.13199 -0.276006,-0.23999 -0.468,-0.324 -0.192006,-0.09599 -0.426005,-0.14399 -0.702,-0.144 -0.2640048,10e-6 -0.4920046,0.04201 -0.684,0.126 -0.1920042,0.08401 -0.3540041,0.19801 -0.486,0.342 -0.1200038,0.13201 -0.2100037,0.27601 -0.27,0.432 -0.060004,0.156009 -0.090004,0.306009 -0.09,0.45 -3.6e-6,0.384009 0.1379963,0.744008 0.414,1.08 0.2879957,0.336008 0.7739952,0.624007 1.458,0.864 0.383994,-0.239993 0.677994,-0.515992 0.882,-0.828 0.203993,-0.311992 0.305993,-0.695991 0.306,-1.152"
     style="font-size:18px;font-variant:normal;font-stretch:normal;fill:#c90016;fill-opacity:1;font-family:Ubuntu;-inkscape-font-specification:Sans Bold"
     id="path3015"
     inkscape:connector-curvature="0" /><path
     d="m 20.955469,20.211653 2.088,0 0.594,-3.06 2.34,0 -0.594,3.06 1.314,0 0,2.07 -1.71,0 -0.432,2.214 2.142,0 0,2.07 -2.538,0 -0.576,3.06 -2.34,0 0.576,-3.06 -2.088,0 -0.576,3.06 -2.34,0 0.576,-3.06 -1.296,0 0,-2.07 1.692,0 0.432,-2.214 -2.124,0 0,-2.07 2.52,0 0.594,-3.06 2.34,0 -0.594,3.06 m -0.828,4.284 2.088,0 0.432,-2.214 -2.088,0 -0.432,2.214"
     style="font-size:18px;font-variant:normal;font-stretch:normal;fill:#c90016;fill-opacity:1;font-family:Ubuntu;-inkscape-font-specification:Sans Bold"
     id="path3017"
     inkscape:connector-curvature="0" /></g></svg>