<?xml version="1.0" encoding="UTF-8" standalone="no"?>
<!-- Created with Inkscape (http://www.inkscape.org/) -->

<svg
   xmlns:dc="http://purl.org/dc/elements/1.1/"
   xmlns:cc="http://creativecommons.org/ns#"
   xmlns:rdf="http://www.w3.org/1999/02/22-rdf-syntax-ns#"
   xmlns:svg="http://www.w3.org/2000/svg"
   xmlns="http://www.w3.org/2000/svg"
   xmlns:sodipodi="http://sodipodi.sourceforge.net/DTD/sodipodi-0.dtd"
   xmlns:inkscape="http://www.inkscape.org/namespaces/inkscape"
   id="svg2"
   sodipodi:version="0.32"
   inkscape:version="0.48.3.1 r9886"
   width="48"
   height="48"
   version="1.0"
   sodipodi:docname="sun-java6.svg"
   inkscape:output_extension="org.inkscape.output.svg.inkscape">
  <metadata
     id="metadata7">
    <rdf:RDF>
      <cc:Work
         rdf:about="">
        <dc:format>image/svg+xml</dc:format>
        <dc:type
           rdf:resource="http://purl.org/dc/dcmitype/StillImage" />
      </cc:Work>
    </rdf:RDF>
  </metadata>
  <defs
     id="defs5" />
  <sodipodi:namedview
     inkscape:window-height="614"
     inkscape:window-width="772"
     inkscape:pageshadow="2"
     inkscape:pageopacity="0.0"
     guidetolerance="10000"
     gridtolerance="10000"
     objecttolerance="10000"
     borderopacity="1.0"
     bordercolor="#666666"
     pagecolor="#ffffff"
     id="base"
     inkscape:zoom="4.4967572"
     inkscape:cx="24"
     inkscape:cy="24.825463"
     inkscape:window-x="1"
     inkscape:window-y="24"
     inkscape:current-layer="svg2"
     width="48px"
     height="48px"
     showgrid="true"
     inkscape:window-maximized="0" />
  <g
     id="g2996"
     style="stroke:#ffffff;stroke-width:7.1503178;stroke-miterlimit:4;stroke-opacity:1;stroke-dasharray:none"
     transform="matrix(1.0031534,0,0,0.95538417,-0.0756812,1.07078)">
    <path
       style="fill:#000000;stroke:#ffffff;stroke-width:7.1503178;stroke-miterlimit:4;stroke-opacity:1;stroke-dasharray:none"
       d="M 16.051873,44.449001 C 9.2170211,41.933779 4.1158611,33.582835 4.0400096,26.358911 L 4,22.548481 l 16.385425,0 16.385427,0 0.122114,1.012741 c 0.112724,0.934906 0.286124,0.992748 2.256088,0.7526 2.593811,-0.316199 4.445309,0.465636 4.774806,2.016266 0.355517,1.673103 -0.580724,5.544728 -1.835651,7.590912 -1.191061,1.942055 -3.656467,3.345841 -7.047363,4.01272 -1.216758,0.239299 -2.441604,1.017526 -4.128624,2.623194 -1.31924,1.255623 -3.383512,2.721791 -4.587269,3.258148 -2.887299,1.28649 -7.453205,1.568248 -10.27308,0.633939 z M 39.619498,33.426407 c 0.816441,-0.797934 2.066879,-4.04629 2.078054,-5.398305 0.008,-0.97075 -0.165702,-1.049288 -2.32093,-1.049288 l -2.329596,0 -0.487191,2.44834 c -0.267956,1.346588 -0.729859,3.01503 -1.026456,3.707648 -0.296595,0.692618 -0.539262,1.46059 -0.539262,1.706605 0,0.572619 3.77253,-0.581473 4.625381,-1.415 z M 12.630702,19.029476 c -0.68202,-0.516101 -1.461152,-1.568884 -1.731405,-2.339518 -0.448565,-1.279102 -0.366341,-1.683056 0.943915,-4.637338 0.789406,-1.779901 1.435282,-3.4356326 1.435282,-3.6794047 0,-0.243771 -0.470801,-1.1040897 -1.046226,-1.9118183 L 11.186041,4.9927966 12.029629,3.9963989 12.873217,3 14.256236,4.5832959 c 2.090089,2.3927544 2.173981,3.9963414 0.40764,7.7919071 l -1.462385,3.142415 0.833443,0.797133 c 0.458394,0.438422 1.049397,0.882155 1.313341,0.986076 0.347748,0.136912 0.289427,0.532298 -0.211799,1.435834 -0.824711,1.486667 -0.914281,1.497134 -2.505774,0.292815 z m 7.501761,0 c -0.68202,-0.516101 -1.461152,-1.568884 -1.731405,-2.339518 -0.448565,-1.279102 -0.366341,-1.683056 0.943914,-4.637338 0.789405,-1.779901 1.435283,-3.4356326 1.435283,-3.6794047 0,-0.243771 -0.470802,-1.1040897 -1.046226,-1.9118183 L 18.687803,4.9927966 19.53139,3.9963989 20.374977,3 l 1.38302,1.5832959 c 2.090089,2.3927544 2.173981,3.9963414 0.40764,7.7919071 l -1.462385,3.142415 0.833443,0.797133 c 0.458393,0.438422 1.049397,0.882155 1.313342,0.986076 0.347749,0.136912 0.289425,0.532298 -0.2118,1.435834 -0.82471,1.486667 -0.914281,1.497134 -2.505774,0.292815 z m 7.50176,0 c -0.682019,-0.516101 -1.461151,-1.568884 -1.731404,-2.339518 -0.448566,-1.279102 -0.366342,-1.683056 0.943914,-4.637338 0.789406,-1.779901 1.435283,-3.4356326 1.435283,-3.6794047 0,-0.243771 -0.470802,-1.1040897 -1.046227,-1.9118183 L 26.189563,4.9927966 27.033151,3.9963989 27.876739,3 29.259757,4.5832959 c 2.09009,2.3927544 2.173982,3.9963414 0.40764,7.7919071 l -1.462384,3.142415 0.833443,0.797133 c 0.458393,0.438422 1.049398,0.882155 1.313342,0.986076 0.347749,0.136912 0.289426,0.532298 -0.2118,1.435834 -0.82471,1.486667 -0.914281,1.497134 -2.505775,0.292815 z"
       id="path2998"
       sodipodi:nodetypes="czccccssssssccscccssccsssccccccccssccsssccccccccssccsssccccccccssc"
       inkscape:connector-curvature="0" />
  </g>
  <g
     id="g2993"
     transform="matrix(1.0031534,0,0,0.95538417,-0.0756812,1.07078)">
    <path
       inkscape:connector-curvature="0"
       sodipodi:nodetypes="czccccssssssccscccssccsssccccccccssccsssccccccccssccsssccccccccssc"
       id="path2163"
       d="M 16.051873,44.449001 C 9.2170211,41.933779 4.1158611,33.582835 4.0400096,26.358911 L 4,22.548481 l 16.385425,0 16.385427,0 0.122114,1.012741 c 0.112724,0.934906 0.286124,0.992748 2.256088,0.7526 2.593811,-0.316199 4.445309,0.465636 4.774806,2.016266 0.355517,1.673103 -0.580724,5.544728 -1.835651,7.590912 -1.191061,1.942055 -3.656467,3.345841 -7.047363,4.01272 -1.216758,0.239299 -2.441604,1.017526 -4.128624,2.623194 -1.31924,1.255623 -3.383512,2.721791 -4.587269,3.258148 -2.887299,1.28649 -7.453205,1.568248 -10.27308,0.633939 z M 39.619498,33.426407 c 0.816441,-0.797934 2.066879,-4.04629 2.078054,-5.398305 0.008,-0.97075 -0.165702,-1.049288 -2.32093,-1.049288 l -2.329596,0 -0.487191,2.44834 c -0.267956,1.346588 -0.729859,3.01503 -1.026456,3.707648 -0.296595,0.692618 -0.539262,1.46059 -0.539262,1.706605 0,0.572619 3.77253,-0.581473 4.625381,-1.415 z M 12.630702,19.029476 c -0.68202,-0.516101 -1.461152,-1.568884 -1.731405,-2.339518 -0.448565,-1.279102 -0.366341,-1.683056 0.943915,-4.637338 0.789406,-1.779901 1.435282,-3.4356326 1.435282,-3.6794047 0,-0.243771 -0.470801,-1.1040897 -1.046226,-1.9118183 L 11.186041,4.9927966 12.029629,3.9963989 12.873217,3 14.256236,4.5832959 c 2.090089,2.3927544 2.173981,3.9963414 0.40764,7.7919071 l -1.462385,3.142415 0.833443,0.797133 c 0.458394,0.438422 1.049397,0.882155 1.313341,0.986076 0.347748,0.136912 0.289427,0.532298 -0.211799,1.435834 -0.824711,1.486667 -0.914281,1.497134 -2.505774,0.292815 z m 7.501761,0 c -0.68202,-0.516101 -1.461152,-1.568884 -1.731405,-2.339518 -0.448565,-1.279102 -0.366341,-1.683056 0.943914,-4.637338 0.789405,-1.779901 1.435283,-3.4356326 1.435283,-3.6794047 0,-0.243771 -0.470802,-1.1040897 -1.046226,-1.9118183 L 18.687803,4.9927966 19.53139,3.9963989 20.374977,3 l 1.38302,1.5832959 c 2.090089,2.3927544 2.173981,3.9963414 0.40764,7.7919071 l -1.462385,3.142415 0.833443,0.797133 c 0.458393,0.438422 1.049397,0.882155 1.313342,0.986076 0.347749,0.136912 0.289425,0.532298 -0.2118,1.435834 -0.82471,1.486667 -0.914281,1.497134 -2.505774,0.292815 z m 7.50176,0 c -0.682019,-0.516101 -1.461151,-1.568884 -1.731404,-2.339518 -0.448566,-1.279102 -0.366342,-1.683056 0.943914,-4.637338 0.789406,-1.779901 1.435283,-3.4356326 1.435283,-3.6794047 0,-0.243771 -0.470802,-1.1040897 -1.046227,-1.9118183 L 26.189563,4.9927966 27.033151,3.9963989 27.876739,3 29.259757,4.5832959 c 2.09009,2.3927544 2.173982,3.9963414 0.40764,7.7919071 l -1.462384,3.142415 0.833443,0.797133 c 0.458393,0.438422 1.049398,0.882155 1.313342,0.986076 0.347749,0.136912 0.289426,0.532298 -0.2118,1.435834 -0.82471,1.486667 -0.914281,1.497134 -2.505775,0.292815 z"
       style="fill:#000000" />
  </g>
</svg>
