<?xml version="1.0" encoding="UTF-8" standalone="no"?>
<!-- Created with Inkscape (http://www.inkscape.org/) -->

<svg
   xmlns:dc="http://purl.org/dc/elements/1.1/"
   xmlns:cc="http://creativecommons.org/ns#"
   xmlns:rdf="http://www.w3.org/1999/02/22-rdf-syntax-ns#"
   xmlns:svg="http://www.w3.org/2000/svg"
   xmlns="http://www.w3.org/2000/svg"
   version="1.1"
   width="48"
   height="48"
   viewBox="0 0 47.999998 47.999998"
   id="Layer_1"
   xml:space="preserve"><defs
   id="defs9" /><metadata
   id="metadata11"><rdf:RDF><cc:Work
       rdf:about=""><dc:format>image/svg+xml</dc:format><dc:type
         rdf:resource="http://purl.org/dc/dcmitype/StillImage" /><dc:title></dc:title></cc:Work></rdf:RDF></metadata>
<g
   transform="translate(0,-176.99999)"
   id="g3615"><path
     d="m 43.999999,200.99999 c 0,11.04546 -8.95434,20 -20,20 -11.04527,0 -19.9999992,-8.95493 -19.9999992,-20 0,-11.04488 8.9553192,-20 19.9999992,-20 11.04527,0 20,8.95473 20,20 z"
     id="path3754"
     style="fill:#000000;fill-opacity:1;stroke:#ffffff;stroke-width:7.99999952;stroke-miterlimit:4;stroke-opacity:1;stroke-dasharray:none" /><path
     d="m 43.999999,200.99999 c 0,11.04546 -8.95434,20 -20,20 -11.04527,0 -19.9999992,-8.95493 -19.9999992,-20 0,-11.04488 8.9553192,-20 19.9999992,-20 11.04527,0 20,8.95473 20,20 z"
     id="path3"
     style="fill:#000000;fill-opacity:1" /><path
     d="m 8.8440968,200.99999 c 0,-8.36917 6.7853622,-15.15571 15.1555122,-15.15571 8.36956,0 15.15629,6.78634 15.15629,15.15571 0,8.37015 -6.78673,15.1561 -15.15629,15.1561 -8.37015,-2e-4 -15.1555122,-6.78576 -15.1555122,-15.1561 z"
     id="path5"
     style="fill:none;stroke:#ffffff;stroke-width:2.66380477" /></g>
</svg>