<?xml version="1.0" encoding="UTF-8" standalone="no"?>
<!-- Created with Inkscape (http://www.inkscape.org/) -->

<svg
   xmlns:dc="http://purl.org/dc/elements/1.1/"
   xmlns:cc="http://creativecommons.org/ns#"
   xmlns:rdf="http://www.w3.org/1999/02/22-rdf-syntax-ns#"
   xmlns:svg="http://www.w3.org/2000/svg"
   xmlns="http://www.w3.org/2000/svg"
   xmlns:sodipodi="http://sodipodi.sourceforge.net/DTD/sodipodi-0.dtd"
   xmlns:inkscape="http://www.inkscape.org/namespaces/inkscape"
   version="1.1"
   width="48"
   height="48"
   viewBox="0 0 47.999998 47.999998"
   id="Layer_1"
   xml:space="preserve"
   inkscape:version="0.48.4 r9939"
   sodipodi:docname="prey.svg"><sodipodi:namedview
     pagecolor="#ffffff"
     bordercolor="#666666"
     borderopacity="1"
     objecttolerance="10"
     gridtolerance="10"
     guidetolerance="10"
     inkscape:pageopacity="0"
     inkscape:pageshadow="2"
     inkscape:window-width="1366"
     inkscape:window-height="717"
     id="namedview9"
     showgrid="false"
     inkscape:zoom="9.8333333"
     inkscape:cx="39.587795"
     inkscape:cy="15.251677"
     inkscape:window-x="0"
     inkscape:window-y="0"
     inkscape:window-maximized="1"
     inkscape:current-layer="g3615" /><defs
     id="defs9" /><metadata
     id="metadata11"><rdf:RDF><cc:Work
         rdf:about=""><dc:format>image/svg+xml</dc:format><dc:type
           rdf:resource="http://purl.org/dc/dcmitype/StillImage" /><dc:title></dc:title></cc:Work></rdf:RDF></metadata><g
     transform="translate(0,-176.99999)"
     id="g3615"><path
       d="m 43.999999,200.99999 c 0,11.04546 -8.95434,20 -20,20 -11.04527,0 -19.9999992,-8.95493 -19.9999992,-20 0,-11.04488 8.9553192,-20 19.9999992,-20 11.04527,0 20,8.95473 20,20 z"
       id="path3754"
       style="fill:#000000;fill-opacity:1;stroke:#ffffff;stroke-width:7.99999952;stroke-miterlimit:4;stroke-opacity:1;stroke-dasharray:none" /><path
       d="m 43.999999,200.99999 c 0,11.04546 -8.95434,20 -20,20 -11.04527,0 -19.9999992,-8.95493 -19.9999992,-20 0,-11.04488 8.9553192,-20 19.9999992,-20 11.04527,0 20,8.95473 20,20 z"
       id="path3"
       style="fill:#000000;fill-opacity:1" /><path
       d="m 8.8440979,200.99979 c 0,-8.36917 6.7853621,-15.15571 15.1555121,-15.15571 8.36956,0 15.15629,6.78634 15.15629,15.15571 0,8.37015 -6.78673,15.1561 -15.15629,15.1561 -8.37015,-2e-4 -15.1555121,-6.78576 -15.1555121,-15.1561 z"
       id="path5"
       style="fill:none;stroke:#ffffff;stroke-width:1.49999988;stroke-miterlimit:4;stroke-dasharray:none"
       inkscape:connector-curvature="0" /><path
       style="fill:none;stroke:#ffffff;stroke-width:1.49999988;stroke-miterlimit:4;stroke-dasharray:none"
       id="path3773"
       d="m 14.132232,200.99986 c 0,-5.44904 4.417842,-9.86764 9.867514,-9.86764 5.449287,0 9.86802,4.41847 9.86802,9.86764 0,5.44967 -4.418733,9.8679 -9.86802,9.8679 -5.449672,-1.3e-4 -9.867514,-4.41811 -9.867514,-9.8679 z"
       inkscape:connector-curvature="0" /><path
       inkscape:connector-curvature="0"
       d="m 19.827147,200.99993 c 0,-2.30427 1.868204,-4.1728 4.172745,-4.1728 2.304378,0 4.172959,1.86847 4.172959,4.1728 0,2.30454 -1.868581,4.17291 -4.172959,4.17291 -2.304541,-6e-5 -4.172745,-1.86832 -4.172745,-4.17291 z"
       id="path3775"
       style="fill:none;stroke:#ffffff;stroke-width:1.49999988;stroke-miterlimit:4;stroke-dasharray:none" /><path
       sodipodi:type="star"
       style="fill:#ffffff;fill-opacity:1;stroke:none"
       id="path3777"
       sodipodi:sides="3"
       sodipodi:cx="-31.728813"
       sodipodi:cy="2.0338984"
       sodipodi:r1="34.814732"
       sodipodi:r2="17.407366"
       sodipodi:arg1="1.044404"
       sodipodi:arg2="2.0916016"
       inkscape:flatsided="false"
       inkscape:rounded="0"
       inkscape:randomized="0"
       d="m -14.237289,32.135594 -26.15306,-15.00222 -26.15306,-15.002219 26.068834,-15.148105 26.068833,-15.148104 0.08423,30.1503249 z"
       transform="matrix(0.22632861,-0.3313483,0.17780699,0.12237415,38.293141,179.29734)"
       inkscape:transform-center-x="-0.72443984"
       inkscape:transform-center-y="1.0560564" /><path
       style="fill:#ffffff;stroke:#ffffff;stroke-width:2.99999987999999984;stroke-miterlimit:4;stroke-dasharray:none;fill-opacity:1"
       id="path3779"
       d="m 14.582829,209.2184 c 0,-0.37871 0.305299,-0.6858 0.681905,-0.6858 0.376579,0 0.681941,0.30708 0.681941,0.6858 0,0.37874 -0.305362,0.68581 -0.681941,0.68581 -0.376606,-2e-5 -0.681905,-0.30706 -0.681905,-0.68581 z"
       inkscape:connector-curvature="0" /><path
       inkscape:connector-curvature="0"
       d="m 16.283583,204.78412 c 0,-0.3787 0.305299,-0.68579 0.681905,-0.68579 0.376578,0 0.681941,0.30707 0.681941,0.68579 0,0.37875 -0.305363,0.68581 -0.681941,0.68581 -0.376606,-1e-5 -0.681905,-0.30705 -0.681905,-0.68581 z"
       id="path3781"
       style="fill:#ffffff;stroke:#ffffff;stroke-width:2.99999987999999984;stroke-miterlimit:4;stroke-dasharray:none;fill-opacity:1" /><path
       style="fill:#ffffff;stroke:#ffffff;stroke-width:2.99999987999999984;stroke-miterlimit:4;stroke-dasharray:none;fill-opacity:1"
       id="path3783"
       d="m 9.8101948,210.46975 c 0,-0.37871 0.3052992,-0.6858 0.6819052,-0.6858 0.376578,0 0.681941,0.30708 0.681941,0.6858 0,0.37875 -0.305363,0.68581 -0.681941,0.68581 -0.376606,-1e-5 -0.6819052,-0.30705 -0.6819052,-0.68581 z"
       inkscape:connector-curvature="0" /></g></svg>