<?xml version="1.0" encoding="UTF-8" standalone="no"?>
<!-- Created with Inkscape (http://www.inkscape.org/) -->

<svg
   xmlns:dc="http://purl.org/dc/elements/1.1/"
   xmlns:cc="http://creativecommons.org/ns#"
   xmlns:rdf="http://www.w3.org/1999/02/22-rdf-syntax-ns#"
   xmlns:svg="http://www.w3.org/2000/svg"
   xmlns="http://www.w3.org/2000/svg"
   xmlns:sodipodi="http://sodipodi.sourceforge.net/DTD/sodipodi-0.dtd"
   xmlns:inkscape="http://www.inkscape.org/namespaces/inkscape"
   version="1.1"
   width="48"
   height="48"
   id="svg2"
   inkscape:version="0.48.3.1 r9886"
   sodipodi:docname="quicktime.svg">
  <sodipodi:namedview
     pagecolor="#ffffff"
     bordercolor="#666666"
     borderopacity="1"
     objecttolerance="10"
     gridtolerance="10"
     guidetolerance="10"
     inkscape:pageopacity="0"
     inkscape:pageshadow="2"
     inkscape:window-width="1366"
     inkscape:window-height="717"
     id="namedview9"
     showgrid="false"
     inkscape:zoom="4.9166667"
     inkscape:cx="-10.474576"
     inkscape:cy="24"
     inkscape:window-x="0"
     inkscape:window-y="0"
     inkscape:window-maximized="1"
     inkscape:current-layer="svg2" />
  <defs
     id="defs4" />
  <metadata
     id="metadata7">
    <rdf:RDF>
      <cc:Work
         rdf:about="">
        <dc:format>image/svg+xml</dc:format>
        <dc:type
           rdf:resource="http://purl.org/dc/dcmitype/StillImage" />
        <dc:title />
      </cc:Work>
    </rdf:RDF>
  </metadata>
  <path
     sodipodi:type="arc"
     style="fill:#ffffff;fill-opacity:1;stroke:none"
     id="path2986"
     sodipodi:cx="23.79661"
     sodipodi:cy="23.288136"
     sodipodi:rx="13.016949"
     sodipodi:ry="12.915255"
     d="m 36.813559,23.288136 a 13.016949,12.915255 0 1 1 -26.033898,0 13.016949,12.915255 0 1 1 26.033898,0 z"
     transform="matrix(1.1875,0,0,1.1732283,-4.4618645,-4.0341651)" />
  <g
     transform="translate(0,-1004.3622)"
     id="layer1">
    <g
       transform="translate(-196.42857,28.571429)"
       id="g2996">
      <path
         d="m 232.51901,1018.2908 -1.51048,-1.5 -1.93618,0.8312 c -3.0975,1.3296 -5.35489,1.7991 -8.673,1.8037 -5.72874,0.01 -10.15626,-1.7964 -14.15688,-5.7693 -4.00141,-3.9736 -5.8139,-8.3608 -5.8139,-14.07293 0,-5.72647 1.8062,-10.08453 5.85429,-14.12547 4.14057,-4.13325 9.03594,-5.95022 15.17309,-5.63168 7.44854,0.38661 13.59434,4.3912 16.75341,10.91648 2.85937,5.9062 2.95329,11.3834 0.29514,17.2114 l -1.10228,2.4167 1.31677,1.7813 c 1.25794,1.7018 1.31677,1.9122 1.31677,4.71 l 0,2.9286 -3.00313,0 -3.00314,0 -1.51048,-1.5 z m -6.52829,-6.9371 c 4.21272,-2.0468 7.00665,-6.0691 7.3928,-10.6431 0.23671,-2.80381 -0.50054,-5.91247 -1.91285,-8.06563 -1.09312,-1.66655 -1.09224,-1.76112 0.0259,-2.80428 0.49963,-0.46612 0.90842,-1.20324 0.90842,-1.63804 0,-1.02577 -1.22541,-2.55645 -2.61992,-3.27257 -1.0942,-0.5619 -1.11371,-0.55491 -2.66091,0.953 l -1.55863,1.51905 -1.88952,-0.45014 c -2.68438,-0.63949 -6.35489,-0.29691 -8.81832,0.82305 -7.52132,3.41945 -9.90886,13.20936 -4.83181,19.81236 2.62021,3.4078 6.36576,5.0746 10.97233,4.883 2.30957,-0.096 3.38848,-0.3374 4.99248,-1.1167 z m -10.45961,-9.6953 c -2.33979,-2.21583 -2.3229,-2.25503 3.47027,-8.05742 2.85748,-2.86202 5.46468,-5.20367 5.79379,-5.20367 1.10623,0 3.05805,1.62025 3.49255,2.89925 l 0.42481,1.25046 -5.1439,5.14203 c -3.61653,3.61525 -5.38965,5.14205 -5.97152,5.14205 -0.45519,0 -1.38489,-0.5277 -2.066,-1.1727 z"
         id="path3770"
         style="fill:#000000;fill-opacity:1;stroke:#ffffff;stroke-width:8;stroke-linecap:round;stroke-linejoin:round;stroke-miterlimit:4;stroke-opacity:1;stroke-dasharray:none" />
      <path
         d="m 232.51901,1018.2908 -1.51048,-1.5 -1.93618,0.8312 c -3.0975,1.3296 -5.35489,1.7991 -8.673,1.8037 -5.72874,0.01 -10.15626,-1.7964 -14.15688,-5.7693 -4.00141,-3.9736 -5.8139,-8.3608 -5.8139,-14.07293 0,-5.72647 1.8062,-10.08453 5.85429,-14.12547 4.14057,-4.13325 9.03594,-5.95022 15.17309,-5.63168 7.44854,0.38661 13.59434,4.3912 16.75341,10.91648 2.85937,5.9062 2.95329,11.3834 0.29514,17.2114 l -1.10228,2.4167 1.31677,1.7813 c 1.25794,1.7018 1.31677,1.9122 1.31677,4.71 l 0,2.9286 -3.00313,0 -3.00314,0 -1.51048,-1.5 z m -6.52829,-6.9371 c 4.21272,-2.0468 7.00665,-6.0691 7.3928,-10.6431 0.23671,-2.80381 -0.50054,-5.91247 -1.91285,-8.06563 -1.09312,-1.66655 -1.09224,-1.76112 0.0259,-2.80428 0.49963,-0.46612 0.90842,-1.20324 0.90842,-1.63804 0,-1.02577 -1.22541,-2.55645 -2.61992,-3.27257 -1.0942,-0.5619 -1.11371,-0.55491 -2.66091,0.953 l -1.55863,1.51905 -1.88952,-0.45014 c -2.68438,-0.63949 -6.35489,-0.29691 -8.81832,0.82305 -7.52132,3.41945 -9.90886,13.20936 -4.83181,19.81236 2.62021,3.4078 6.36576,5.0746 10.97233,4.883 2.30957,-0.096 3.38848,-0.3374 4.99248,-1.1167 z m -10.45961,-9.6953 c -2.33979,-2.21583 -2.3229,-2.25503 3.47027,-8.05742 2.85748,-2.86202 5.46468,-5.20367 5.79379,-5.20367 1.10623,0 3.05805,1.62025 3.49255,2.89925 l 0.42481,1.25046 -5.1439,5.14203 c -3.61653,3.61525 -5.38965,5.14205 -5.97152,5.14205 -0.45519,0 -1.38489,-0.5277 -2.066,-1.1727 z"
         id="path2998"
         style="fill:#000000;fill-opacity:1" />
    </g>
  </g>
</svg>
