<?xml version="1.0" encoding="UTF-8" standalone="no"?>
<!-- Created with Inkscape (http://www.inkscape.org/) -->

<svg
   xmlns:dc="http://purl.org/dc/elements/1.1/"
   xmlns:cc="http://creativecommons.org/ns#"
   xmlns:rdf="http://www.w3.org/1999/02/22-rdf-syntax-ns#"
   xmlns:svg="http://www.w3.org/2000/svg"
   xmlns="http://www.w3.org/2000/svg"
   version="1.1"
   width="48"
   height="48"
   id="svg3849">
  <defs
     id="defs3851" />
  <metadata
     id="metadata3854">
    <rdf:RDF>
      <cc:Work
         rdf:about="">
        <dc:format>image/svg+xml</dc:format>
        <dc:type
           rdf:resource="http://purl.org/dc/dcmitype/StillImage" />
        <dc:title></dc:title>
      </cc:Work>
    </rdf:RDF>
  </metadata>
  <g
     transform="translate(0,-1004.3622)"
     id="layer1">
    <g
       id="g4398"
       style="fill:#ffffff;fill-opacity:1;stroke:#ffffff;stroke-width:8;stroke-linecap:round;stroke-linejoin:round;stroke-miterlimit:4;stroke-opacity:1;stroke-dasharray:none">
      <path
         d="m 7.862435,1017.9932 c -1.287478,1.2688 -2.574957,2.5374 -3.862435,3.806 0,5.6265 0,11.253 0,16.8793 0.664506,0 1.329011,0 1.993517,0 0,-5.3206 0,-10.6416 0,-15.9626 2.578905,-2.5552 5.157817,-5.1104 7.736729,-7.6654 4.350922,0 8.701843,-0.011 13.052765,-0.011 0.158512,-0.7281 -0.06089,-0.8543 -0.854363,-0.8543 -4.734594,0 -9.469185,0 -14.203784,0 -1.287478,1.2686 -2.57495,2.5372 -3.862429,3.8059 z"
         id="path4400"
         style="fill:#ffffff;fill-opacity:1;stroke:#ffffff;stroke-width:8;stroke-linecap:round;stroke-linejoin:round;stroke-miterlimit:4;stroke-opacity:1;stroke-dasharray:none" />
      <path
         d="m 10.906099,1024.7924 c -1.16288,0.018 -2.325761,0.036 -3.488647,0.053 0,2.301 0,4.6022 0,6.9032 3.670597,0 7.341194,0 11.011792,0 0,-0.9977 0,-1.9956 0,-2.9933 -1.345608,-1.3372 -2.69044,-2.6751 -4.034493,-4.0137 -1.162887,0.017 -2.325767,0.034 -3.488652,0.05 z"
         id="path4402"
         style="fill:#ffffff;fill-opacity:1;stroke:#ffffff;stroke-width:8;stroke-linecap:round;stroke-linejoin:round;stroke-miterlimit:4;stroke-opacity:1;stroke-dasharray:none" />
      <path
         d="m 29.372798,1026.7384 c -0.673405,0.6725 -1.346808,1.3449 -2.020212,2.0173 0,0.9977 0,1.9955 0,2.9933 3.671585,0 7.34317,0 11.014754,0 -0.01836,-2.3258 -0.03517,-4.6516 -0.05043,-6.9774 -2.308967,-0.015 -4.617921,-0.032 -6.926866,-0.05 -0.672415,0.6724 -1.34483,1.3448 -2.017245,2.0174 z"
         id="path4404"
         style="fill:#ffffff;fill-opacity:1;stroke:#ffffff;stroke-width:8;stroke-linecap:round;stroke-linejoin:round;stroke-miterlimit:4;stroke-opacity:1;stroke-dasharray:none" />
      <path
         d="m 6.49486,1038.6993 c 1.382785,1.5613 4.977731,5.1706 6.434417,6.6629 1.500627,-1.4674 5.054756,-5.1289 6.505617,-6.6451 -12.919972,0 0.0093,-0.018 -12.940034,-0.018 z"
         id="path4406"
         style="fill:#ffffff;fill-opacity:1;stroke:#ffffff;stroke-width:8;stroke-linecap:round;stroke-linejoin:round;stroke-miterlimit:4;stroke-opacity:1;stroke-dasharray:none" />
      <path
         d="m 26.419653,1038.6993 c 1.382789,1.5613 4.977734,5.1706 6.43442,6.6629 1.500626,-1.4674 5.054756,-5.1289 6.505617,-6.6451 -12.919977,0 0.0093,-0.018 -12.940037,-0.018 z"
         id="path4408"
         style="fill:#ffffff;fill-opacity:1;stroke:#ffffff;stroke-width:8;stroke-linecap:round;stroke-linejoin:round;stroke-miterlimit:4;stroke-opacity:1;stroke-dasharray:none" />
      <path
         d="m 40.03688,1017.9932 c 1.287478,1.2688 2.675642,2.5374 3.96312,3.806 0,5.6265 0,11.253 0,16.8793 -0.664506,0 -3.208512,0 -3.873017,0 0,-5.3206 0,-10.6416 0,-15.9626 -2.57891,-2.5552 -5.15782,-5.1104 -7.73673,-7.6654 -4.35092,0 -8.701842,-0.011 -13.052762,-0.011 -0.158514,-0.7281 0.03026,-0.8543 0.854361,-0.8543 4.734594,0 10.979501,0 15.714096,0 1.287476,1.2686 2.843455,2.5372 4.130932,3.8059 z"
         id="path4410"
         style="fill:#ffffff;fill-opacity:1;stroke:#ffffff;stroke-width:8;stroke-linecap:round;stroke-linejoin:round;stroke-miterlimit:4;stroke-opacity:1;stroke-dasharray:none" />
      <rect
         width="36.557541"
         height="1.2896743"
         rx="0"
         x="4.9474211"
         y="1037.3811"
         id="rect4412"
         style="fill:#ffffff;fill-opacity:1;stroke:#ffffff;stroke-width:8;stroke-linecap:round;stroke-linejoin:round;stroke-miterlimit:4;stroke-opacity:1;stroke-dasharray:none" />
      <path
         d="m 13.589822,1014.9082 c -2.583839,2.5809 -5.167678,5.1618 -7.7515171,7.7426 -0.146876,0.7298 -0.022307,1.5121 -0.063573,2.2623 0,4.1527 0,8.3054 0,12.4581 0.1516617,0.416 0.7252304,0.1433 1.0632031,0.2213 11.083618,0 22.167236,0 33.250855,0 0.416045,-0.1515 0.143439,-0.7251 0.221661,-1.0631 9.05e-4,-4.5947 0.0032,-9.1895 0.0063,-13.7843 -0.393922,-0.6037 -1.02545,-1.0472 -1.511999,-1.5885 -2.104575,-2.0814 -4.208146,-4.1639 -6.311861,-6.2463 -0.72865,-0.1472 -1.510728,-0.022 -2.260128,-0.064 -5.495043,0 -10.990086,0 -16.485129,0 -0.05261,0.021 -0.105222,0.042 -0.157836,0.064 z m 21.246525,10.0268 c 1.086587,0.016 2.173173,0.032 3.259759,0.048 0.06076,2.1843 0.0983,4.3693 0.08769,6.5546 -3.546933,0 -7.093866,0 -10.6408,0 0,-0.912 0,-1.8239 0,-2.7359 1.305804,-1.3058 2.611607,-2.6116 3.91741,-3.9174 1.125315,0.017 2.250629,0.034 3.375944,0.05 z m -18.534808,1.9774 c 0.653267,0.6533 1.306533,1.3065 1.959801,1.9598 0,0.8885 0,1.7771 0,2.6657 -3.546933,0 -7.093867,0 -10.6407999,0 0,-2.1622 0,-4.3245 0,-6.4867 2.2389599,-0.071 4.4789789,-0.097 6.7190059,-0.099 0.653997,0.6533 1.307995,1.3065 1.961993,1.9598 z"
         id="path4414"
         style="fill:#ffffff;fill-opacity:1;stroke:#ffffff;stroke-width:8;stroke-linecap:round;stroke-linejoin:round;stroke-miterlimit:4;stroke-opacity:1;stroke-dasharray:none" />
    </g>
    <g
       id="g4388">
      <path
         d="m 7.862435,1017.9932 c -1.287478,1.2688 -2.574957,2.5374 -3.862435,3.806 0,5.6265 0,11.253 0,16.8793 0.664506,0 1.329011,0 1.993517,0 0,-5.3206 0,-10.6416 0,-15.9626 2.578905,-2.5552 5.157817,-5.1104 7.736729,-7.6654 4.350922,0 8.701843,-0.011 13.052765,-0.011 0.158512,-0.7281 -0.06089,-0.8543 -0.854363,-0.8543 -4.734594,0 -9.469185,0 -14.203784,0 -1.287478,1.2686 -2.57495,2.5372 -3.862429,3.8059 z"
         id="path3797"
         style="fill:#000000;fill-opacity:1;stroke:none" />
      <path
         d="m 10.906099,1024.7924 c -1.16288,0.018 -2.325761,0.036 -3.488647,0.053 0,2.301 0,4.6022 0,6.9032 3.670597,0 7.341194,0 11.011792,0 0,-0.9977 0,-1.9956 0,-2.9933 -1.345608,-1.3372 -2.69044,-2.6751 -4.034493,-4.0137 -1.162887,0.017 -2.325767,0.034 -3.488652,0.05 z"
         id="path3799"
         style="fill:#ffffff;fill-opacity:1;stroke:none" />
      <path
         d="m 29.372798,1026.7384 c -0.673405,0.6725 -1.346808,1.3449 -2.020212,2.0173 0,0.9977 0,1.9955 0,2.9933 3.671585,0 7.34317,0 11.014754,0 -0.01836,-2.3258 -0.03517,-4.6516 -0.05043,-6.9774 -2.308967,-0.015 -4.617921,-0.032 -6.926866,-0.05 -0.672415,0.6724 -1.34483,1.3448 -2.017245,2.0174 z"
         id="path3801"
         style="fill:#ffffff;fill-opacity:1;stroke:none" />
      <path
         d="m 6.49486,1038.6993 c 1.382785,1.5613 4.977731,5.1706 6.434417,6.6629 1.500627,-1.4674 5.054756,-5.1289 6.505617,-6.6451 -12.919972,0 0.0093,-0.018 -12.940034,-0.018 z"
         id="path3803"
         style="fill:#c90016;fill-opacity:1;stroke:none" />
      <path
         d="m 26.419653,1038.6993 c 1.382789,1.5613 4.977734,5.1706 6.43442,6.6629 1.500626,-1.4674 5.054756,-5.1289 6.505617,-6.6451 -12.919977,0 0.0093,-0.018 -12.940037,-0.018 z"
         id="path3803-8"
         style="fill:#c90016;fill-opacity:1;stroke:none" />
      <path
         d="m 40.03688,1017.9932 c 1.287478,1.2688 2.675642,2.5374 3.96312,3.806 0,5.6265 0,11.253 0,16.8793 -0.664506,0 -3.208512,0 -3.873017,0 0,-5.3206 0,-10.6416 0,-15.9626 -2.57891,-2.5552 -5.15782,-5.1104 -7.73673,-7.6654 -4.35092,0 -8.701842,-0.011 -13.052762,-0.011 -0.158514,-0.7281 0.03026,-0.8543 0.854361,-0.8543 4.734594,0 10.979501,0 15.714096,0 1.287476,1.2686 2.843455,2.5372 4.130932,3.8059 z"
         id="path3831"
         style="fill:#000000;fill-opacity:1;stroke:none" />
      <rect
         width="36.557541"
         height="1.2896743"
         rx="0"
         x="4.9474211"
         y="1037.3811"
         id="rect3874"
         style="fill:#000000;fill-opacity:1;stroke:none" />
      <path
         d="m 13.589822,1014.9082 c -2.583839,2.5809 -5.167678,5.1618 -7.7515171,7.7426 -0.146876,0.7298 -0.022307,1.5121 -0.063573,2.2623 0,4.1527 0,8.3054 0,12.4581 0.1516617,0.416 0.7252304,0.1433 1.0632031,0.2213 11.083618,0 22.167236,0 33.250855,0 0.416045,-0.1515 0.143439,-0.7251 0.221661,-1.0631 9.05e-4,-4.5947 0.0032,-9.1895 0.0063,-13.7843 -0.393922,-0.6037 -1.02545,-1.0472 -1.511999,-1.5885 -2.104575,-2.0814 -4.208146,-4.1639 -6.311861,-6.2463 -0.72865,-0.1472 -1.510728,-0.022 -2.260128,-0.064 -5.495043,0 -10.990086,0 -16.485129,0 -0.05261,0.021 -0.105222,0.042 -0.157836,0.064 z m 21.246525,10.0268 c 1.086587,0.016 2.173173,0.032 3.259759,0.048 0.06076,2.1843 0.0983,4.3693 0.08769,6.5546 -3.546933,0 -7.093866,0 -10.6408,0 0,-0.912 0,-1.8239 0,-2.7359 1.305804,-1.3058 2.611607,-2.6116 3.91741,-3.9174 1.125315,0.017 2.250629,0.034 3.375944,0.05 z m -18.534808,1.9774 c 0.653267,0.6533 1.306533,1.3065 1.959801,1.9598 0,0.8885 0,1.7771 0,2.6657 -3.546933,0 -7.093867,0 -10.6407999,0 0,-2.1622 0,-4.3245 0,-6.4867 2.2389599,-0.071 4.4789789,-0.097 6.7190059,-0.099 0.653997,0.6533 1.307995,1.3065 1.961993,1.9598 z"
         id="path3878"
         style="fill:#000000;fill-opacity:1;stroke:none" />
    </g>
  </g>
</svg>
