<?xml version="1.0" encoding="UTF-8" standalone="no"?>
<!-- Created with Inkscape (http://www.inkscape.org/) -->

<svg
   xmlns:dc="http://purl.org/dc/elements/1.1/"
   xmlns:cc="http://creativecommons.org/ns#"
   xmlns:rdf="http://www.w3.org/1999/02/22-rdf-syntax-ns#"
   xmlns:svg="http://www.w3.org/2000/svg"
   xmlns="http://www.w3.org/2000/svg"
   xmlns:sodipodi="http://sodipodi.sourceforge.net/DTD/sodipodi-0.dtd"
   xmlns:inkscape="http://www.inkscape.org/namespaces/inkscape"
   version="1.1"
   width="48"
   height="48"
   id="svg2"
   inkscape:version="0.48.4 r9939"
   sodipodi:docname="rhythmbox-podcast.svg">
  <sodipodi:namedview
     pagecolor="#ffffff"
     bordercolor="#666666"
     borderopacity="1"
     objecttolerance="10"
     gridtolerance="10"
     guidetolerance="10"
     inkscape:pageopacity="0"
     inkscape:pageshadow="2"
     inkscape:window-width="1366"
     inkscape:window-height="718"
     id="namedview26"
     showgrid="false"
     inkscape:zoom="4.9166667"
     inkscape:cx="67.25467"
     inkscape:cy="17.652777"
     inkscape:window-x="0"
     inkscape:window-y="0"
     inkscape:window-maximized="1"
     inkscape:current-layer="layer1" />
  <defs
     id="defs4" />
  <metadata
     id="metadata7">
    <rdf:RDF>
      <cc:Work
         rdf:about="">
        <dc:format>image/svg+xml</dc:format>
        <dc:type
           rdf:resource="http://purl.org/dc/dcmitype/StillImage" />
        <dc:title />
      </cc:Work>
    </rdf:RDF>
  </metadata>
  <g
     transform="translate(0,-1004.3622)"
     id="layer1">
    <g
       id="g3801"
       style="stroke:#00ffff;stroke-width:8;stroke-miterlimit:4;stroke-opacity:1;stroke-dasharray:none">
      <path
         d="m 12.312696,1018.808 23.376274,0 c 1.841125,0 3.323331,0.9484 3.323331,2.1262 l 0,27.4087 c -6.836644,0.03 -20.625591,0.016 -30.0246025,0.016 0.0039,-7.4182 0.0016,-18.4355 0.0016,-27.4242 0,-1.1779 1.4822065,-2.126 3.3233315,-2.126 z"
         id="path3797"
         style="fill:#000000;fill-opacity:1;stroke:#ffffff;stroke-width:8;stroke-linecap:round;stroke-linejoin:round;stroke-miterlimit:4;stroke-opacity:1;stroke-dasharray:none" />
      <path
         d="m 36.744298,21.862303 a 9.0913725,9.0913725 0 1 1 -18.182745,0 9.0913725,9.0913725 0 1 1 18.182745,0 z"
         transform="matrix(1.2701363,0,0,1.2683451,-11.122153,992.953)"
         id="path3799"
         style="fill:#ffffff;fill-opacity:1;stroke:#ffffff;stroke-width:7.09085512;stroke-miterlimit:4;stroke-opacity:1;stroke-dasharray:none" />
    </g>
    <path
       d="m 12.312696,1018.808 23.376274,0 c 1.841125,0 3.32333,0.9484 3.32333,2.1262 l 0,27.4087 c -6.836643,0.03 -20.62559,0.016 -30.0246015,0.016 0.0039,-7.4182 0.0016,-18.4355 0.0016,-27.4242 0,-1.1779 1.4822055,-2.126 3.3233305,-2.126 z"
       id="rect2985"
       style="fill:#000000;fill-opacity:1;stroke:none" />
    <path
       d="m 36.744298,21.862303 a 9.0913725,9.0913725 0 1 1 -18.182745,0 9.0913725,9.0913725 0 1 1 18.182745,0 z"
       transform="matrix(1.2701363,0,0,1.2683451,-11.122153,992.953)"
       id="path2990"
       style="fill:#ffffff;fill-opacity:1;stroke:#000000;stroke-width:1.57574534;stroke-miterlimit:4;stroke-opacity:1;stroke-dasharray:none" />
    <path
       d="m 14.671162,1037.6695 18.657675,0"
       id="path3760"
       style="fill:#ffffff;stroke:#ffffff;stroke-width:2;stroke-linecap:square;stroke-linejoin:miter;stroke-miterlimit:4;stroke-opacity:1;stroke-dasharray:none" />
    <path
       d="m 14.671162,1042.2819 18.657675,0"
       id="path3762"
       style="fill:#ffffff;stroke:#ffffff;stroke-width:2;stroke-linecap:square;stroke-linejoin:miter;stroke-miterlimit:4;stroke-opacity:1;stroke-dasharray:none" />
    <path
       d="m 27.5,20.3125 a 2.6875,2.6875 0 1 1 -5.375,0 2.6875,2.6875 0 1 1 5.375,0 z"
       transform="matrix(1.7186654,0,0,1.7162416,-18.643552,985.82078)"
       id="path3766"
       style="fill:#000000;fill-opacity:1;stroke:#ffffff;stroke-width:1.16451514;stroke-linecap:square;stroke-linejoin:round;stroke-miterlimit:4;stroke-opacity:1;stroke-dasharray:none" />
    <g
       style="stroke:#00ffff;stroke-width:10;stroke-miterlimit:4;stroke-opacity:1;stroke-dasharray:none"
       transform="matrix(-0.8,0,0,0.8,39.754796,995.66271)"
       id="g3027">
      <path
         d="m 9.8197449,24.794844 a 14,14 0 0 0 -0.143,12.912"
         id="path3029"
         style="fill:none;stroke:#ffffff;stroke-width:13.75;stroke-linecap:round;stroke-linejoin:round"
         inkscape:connector-curvature="0" />
      <path
         d="m 4.3787454,19.249364 a 19,19 0 0 0 -0.176,22.925"
         id="path3031"
         style="fill:none;stroke:#ffffff;stroke-width:15;stroke-linecap:round;stroke-linejoin:round"
         inkscape:connector-curvature="0" />
      <path
         d="m 9.4897449,24.946844 a 14,14 0 0 0 -0.1,12.688"
         id="path3033"
         style="fill:none;stroke:#000000;stroke-width:3.75;stroke-linecap:round;stroke-linejoin:round"
         inkscape:connector-curvature="0" />
      <path
         d="m 4.4957449,19.324344 a 19,19 0 0 0 -0.1759995,22.925"
         id="path3035"
         style="fill:none;stroke:#000000;stroke-width:5;stroke-linecap:round;stroke-linejoin:round"
         inkscape:connector-curvature="0" />
    </g>
    <g
       style="stroke:#00ffff;stroke-width:10;stroke-miterlimit:4;stroke-opacity:1;stroke-dasharray:none"
       transform="matrix(0.8,0,0,0.8,8.2456264,995.66271)"
       id="g3011">
      <path
         d="m 9.8197449,24.794844 a 14,14 0 0 0 -0.143,12.912"
         id="path3199"
         style="fill:none;stroke:#ffffff;stroke-width:13.75;stroke-linecap:round;stroke-linejoin:round"
         inkscape:connector-curvature="0" />
      <path
         d="m 4.3787454,19.249364 a 19,19 0 0 0 -0.176,22.925"
         id="path3177"
         style="fill:none;stroke:#ffffff;stroke-width:15;stroke-linecap:round;stroke-linejoin:round"
         inkscape:connector-curvature="0" />
      <path
         d="m 9.4897449,24.946844 a 14,14 0 0 0 -0.1,12.688"
         id="path3163"
         style="fill:none;stroke:#000000;stroke-width:3.75;stroke-linecap:round;stroke-linejoin:round"
         inkscape:connector-curvature="0" />
      <path
         d="m 4.4957449,19.324344 a 19,19 0 0 0 -0.1759995,22.925"
         id="path3167"
         style="fill:none;stroke:#000000;stroke-width:5;stroke-linecap:round;stroke-linejoin:round"
         inkscape:connector-curvature="0" />
    </g>
  </g>
</svg>
