<?xml version="1.0" encoding="UTF-8" standalone="no"?>
<!-- Created with Inkscape (http://www.inkscape.org/) -->

<svg
   xmlns:dc="http://purl.org/dc/elements/1.1/"
   xmlns:cc="http://creativecommons.org/ns#"
   xmlns:rdf="http://www.w3.org/1999/02/22-rdf-syntax-ns#"
   xmlns:svg="http://www.w3.org/2000/svg"
   xmlns="http://www.w3.org/2000/svg"
   xmlns:sodipodi="http://sodipodi.sourceforge.net/DTD/sodipodi-0.dtd"
   xmlns:inkscape="http://www.inkscape.org/namespaces/inkscape"
   width="48"
   height="48"
   id="svg2"
   version="1.1"
   inkscape:version="0.48.4 r9939"
   sodipodi:docname="rhythmbox.svg">
  <defs
     id="defs4" />
  <sodipodi:namedview
     id="base"
     pagecolor="#ffffff"
     bordercolor="#666666"
     borderopacity="1.0"
     inkscape:pageopacity="0.0"
     inkscape:pageshadow="2"
     inkscape:zoom="8"
     inkscape:cx="-1.910741"
     inkscape:cy="27.107643"
     inkscape:document-units="px"
     inkscape:current-layer="g3801"
     showgrid="false"
     inkscape:showpageshadow="false"
     borderlayer="true"
     inkscape:window-width="1366"
     inkscape:window-height="718"
     inkscape:window-x="0"
     inkscape:window-y="0"
     inkscape:window-maximized="1" />
  <metadata
     id="metadata7">
    <rdf:RDF>
      <cc:Work
         rdf:about="">
        <dc:format>image/svg+xml</dc:format>
        <dc:type
           rdf:resource="http://purl.org/dc/dcmitype/StillImage" />
      </cc:Work>
    </rdf:RDF>
  </metadata>
  <g
     inkscape:label="Layer 1"
     inkscape:groupmode="layer"
     id="layer1"
     transform="translate(0,-1004.3622)">
    <g
       id="g3801"
       style="stroke-width:8;stroke-miterlimit:4;stroke-dasharray:none;stroke:#00ffff;stroke-opacity:1">
      <path
         style="fill:#000000;fill-opacity:1;stroke:#ffffff;stroke-width:8;stroke-linecap:round;stroke-linejoin:round;stroke-miterlimit:4;stroke-opacity:1;stroke-dasharray:none"
         d="m 12.312696,1018.808 23.376274,0 c 1.841125,0 3.323331,0.9484 3.323331,2.1262 l 0,27.4087 c -6.836644,0.03 -20.625591,0.016 -30.0246025,0.016 0.0039,-7.4182 0.0016,-18.4355 0.0016,-27.4242 0,-1.1779 1.4822065,-2.126 3.3233315,-2.126 z"
         id="path3797"
         inkscape:connector-curvature="0"
         sodipodi:nodetypes="ssscccs" />
      <path
         sodipodi:type="arc"
         style="fill:#ffffff;fill-opacity:1;stroke:#ffffff;stroke-width:7.09085512;stroke-miterlimit:4;stroke-opacity:1;stroke-dasharray:none"
         id="path3799"
         sodipodi:cx="27.652925"
         sodipodi:cy="21.862303"
         sodipodi:rx="9.0913725"
         sodipodi:ry="9.0913725"
         d="m 36.744298,21.862303 a 9.0913725,9.0913725 0 1 1 -18.182745,0 9.0913725,9.0913725 0 1 1 18.182745,0 z"
         transform="matrix(1.2701363,0,0,1.2683451,-11.122153,992.953)" />
    </g>
    <path
       style="fill:#000000;fill-opacity:1;stroke:none"
       d="m 12.312696,1018.808 23.376274,0 c 1.841125,0 3.32333,0.9484 3.32333,2.1262 l 0,27.4087 c -6.836643,0.03 -20.62559,0.016 -30.0246015,0.016 0.0039,-7.4182 0.0016,-18.4355 0.0016,-27.4242 0,-1.1779 1.4822055,-2.126 3.3233305,-2.126 z"
       id="rect2985"
       inkscape:connector-curvature="0"
       sodipodi:nodetypes="ssscccs" />
    <path
       sodipodi:nodetypes="ssscccs"
       inkscape:connector-curvature="0"
       id="path2988"
       d="m 15.909239,1020.3965 16.182675,0 c 1.274554,0 2.30064,0.3792 2.30064,0.8503 l 0,10.9614 c -4.732798,0.012 -14.278462,0.012 -20.78511,0.012 0.0027,-2.9667 0.0012,-7.3729 0.0012,-10.9677 0,-0.4711 1.026086,-0.8503 2.30064,-0.8503 z"
       style="fill:#ffffff;fill-opacity:1;stroke:none" />
    <path
       sodipodi:type="arc"
       style="fill:#ffffff;fill-opacity:1;stroke:#000000;stroke-width:1.57574534;stroke-miterlimit:4;stroke-opacity:1;stroke-dasharray:none"
       id="path2990"
       sodipodi:cx="27.652925"
       sodipodi:cy="21.862303"
       sodipodi:rx="9.0913725"
       sodipodi:ry="9.0913725"
       d="m 36.744298,21.862303 a 9.0913725,9.0913725 0 1 1 -18.182745,0 9.0913725,9.0913725 0 1 1 18.182745,0 z"
       transform="matrix(1.2701363,0,0,1.2683451,-11.122153,992.953)" />
    <path
       style="fill:#ffffff;stroke:#ffffff;stroke-width:2;stroke-linecap:square;stroke-linejoin:miter;stroke-miterlimit:4;stroke-opacity:1;stroke-dasharray:none"
       d="m 14.671162,1037.6695 18.657675,0"
       id="path3760"
       inkscape:connector-curvature="0" />
    <path
       inkscape:connector-curvature="0"
       id="path3762"
       d="m 14.671162,1042.2819 18.657675,0"
       style="fill:#ffffff;stroke:#ffffff;stroke-width:2;stroke-linecap:square;stroke-linejoin:miter;stroke-miterlimit:4;stroke-opacity:1;stroke-dasharray:none" />
    <path
       sodipodi:type="arc"
       style="fill:#000000;fill-opacity:1;stroke:#ffffff;stroke-width:1.16451514;stroke-linecap:square;stroke-linejoin:round;stroke-miterlimit:4;stroke-opacity:1;stroke-dasharray:none"
       id="path3766"
       sodipodi:cx="24.8125"
       sodipodi:cy="20.3125"
       sodipodi:rx="2.6875"
       sodipodi:ry="2.6875"
       d="m 27.5,20.3125 a 2.6875,2.6875 0 1 1 -5.375,0 2.6875,2.6875 0 1 1 5.375,0 z"
       transform="matrix(1.7186654,0,0,1.7162416,-18.643552,985.82078)" />
    <path
       style="fill:none;stroke:#000000;stroke-width:2;stroke-linecap:butt;stroke-linejoin:miter;stroke-miterlimit:4;stroke-opacity:1;stroke-dasharray:none"
       d="m 24.433856,1021.2585 7.505735,7.7834"
       id="path3768"
       inkscape:connector-curvature="0" />
  </g>
</svg>
