<?xml version="1.0" encoding="UTF-8" standalone="no"?>
<!-- Created with Inkscape (http://www.inkscape.org/) -->

<svg
   xmlns:dc="http://purl.org/dc/elements/1.1/"
   xmlns:cc="http://creativecommons.org/ns#"
   xmlns:rdf="http://www.w3.org/1999/02/22-rdf-syntax-ns#"
   xmlns:svg="http://www.w3.org/2000/svg"
   xmlns="http://www.w3.org/2000/svg"
   xmlns:sodipodi="http://sodipodi.sourceforge.net/DTD/sodipodi-0.dtd"
   xmlns:inkscape="http://www.inkscape.org/namespaces/inkscape"
   version="1.1"
   width="48"
   height="48"
   id="svg2"
   inkscape:version="0.48.4 r9939"
   sodipodi:docname="rhythmbox-tray-icon.svg">
  <sodipodi:namedview
     pagecolor="#ffffff"
     bordercolor="#666666"
     borderopacity="1"
     objecttolerance="10"
     gridtolerance="10"
     guidetolerance="10"
     inkscape:pageopacity="0"
     inkscape:pageshadow="2"
     inkscape:window-width="688"
     inkscape:window-height="480"
     id="namedview16"
     showgrid="false"
     inkscape:zoom="4.9166667"
     inkscape:cx="24"
     inkscape:cy="24"
     inkscape:window-x="0"
     inkscape:window-y="0"
     inkscape:window-maximized="0"
     inkscape:current-layer="layer1" />
  <defs
     id="defs4" />
  <metadata
     id="metadata7">
    <rdf:RDF>
      <cc:Work
         rdf:about="">
        <dc:format>image/svg+xml</dc:format>
        <dc:type
           rdf:resource="http://purl.org/dc/dcmitype/StillImage" />
        <dc:title />
      </cc:Work>
    </rdf:RDF>
  </metadata>
  <g
     transform="translate(0,-1004.3622)"
     id="layer1">
    <path
       d="m 12.312696,1018.808 23.376274,0 c 1.841125,0 3.32333,0.9484 3.32333,2.1262 l 0,27.4087 c -6.836643,0.03 -20.62559,0.016 -30.0246015,0.016 0.0039,-7.4182 0.0016,-18.4355 0.0016,-27.4242 0,-1.1779 1.4822055,-2.126 3.3233305,-2.126 z"
       id="rect2985"
       style="fill:#ffffff;fill-opacity:1;stroke:none" />
    <path
       d="m 15.909239,1020.3965 16.182675,0 c 1.274554,0 2.30064,0.3792 2.30064,0.8503 l 0,10.9614 c -4.732798,0.012 -14.278462,0.012 -20.78511,0.012 0.0027,-2.9667 0.0012,-7.3729 0.0012,-10.9677 0,-0.4711 1.026086,-0.8503 2.30064,-0.8503 z"
       id="path2988"
       style="fill:#000000;fill-opacity:1;stroke:none" />
    <path
       d="m 36.744298,21.862303 a 9.0913725,9.0913725 0 1 1 -18.182745,0 9.0913725,9.0913725 0 1 1 18.182745,0 z"
       transform="matrix(1.2701363,0,0,1.2683451,-11.122153,992.953)"
       id="path2990"
       style="fill:#000000;fill-opacity:1;stroke:#ffffff;stroke-width:2.36361846000000009;stroke-miterlimit:4;stroke-opacity:1;stroke-dasharray:none" />
    <path
       d="m 15.107,1037.6695 17.785,0"
       id="path3760"
       style="fill:#000000;stroke:#000000;stroke-width:3;stroke-linecap:square;stroke-linejoin:miter;stroke-miterlimit:4;stroke-opacity:1;stroke-dasharray:none"
       inkscape:connector-curvature="0" />
    <path
       d="m 15.107,1042.2819 17.785,0"
       id="path3762"
       style="fill:#000000;stroke:#000000;stroke-width:3;stroke-linecap:square;stroke-linejoin:miter;stroke-miterlimit:4;stroke-opacity:1;stroke-dasharray:none"
       inkscape:connector-curvature="0" />
    <path
       d="m 27.5,20.3125 a 2.6875,2.6875 0 1 1 -5.375,0 2.6875,2.6875 0 1 1 5.375,0 z"
       transform="matrix(1.7186654,0,0,1.7162416,-18.643552,985.82078)"
       id="path3766"
       style="fill:#ffffff;fill-opacity:1;stroke:none;stroke-width:1.16451514000000000;stroke-linecap:square;stroke-linejoin:round;stroke-miterlimit:4;stroke-opacity:1;stroke-dasharray:none" />
    <path
       d="m 24.433856,1021.2585 7.505735,7.7834"
       id="path3768"
       style="fill:none;stroke:#ffffff;stroke-width:3;stroke-linecap:butt;stroke-linejoin:miter;stroke-miterlimit:4;stroke-opacity:1;stroke-dasharray:none" />
  </g>
</svg>
