<?xml version="1.0" encoding="UTF-8" standalone="no"?>
<!-- Created with Inkscape (http://www.inkscape.org/) -->

<svg
   xmlns:dc="http://purl.org/dc/elements/1.1/"
   xmlns:cc="http://creativecommons.org/ns#"
   xmlns:rdf="http://www.w3.org/1999/02/22-rdf-syntax-ns#"
   xmlns:svg="http://www.w3.org/2000/svg"
   xmlns="http://www.w3.org/2000/svg"
   xmlns:sodipodi="http://sodipodi.sourceforge.net/DTD/sodipodi-0.dtd"
   xmlns:inkscape="http://www.inkscape.org/namespaces/inkscape"
   version="1.1"
   width="48"
   height="48"
   id="svg2"
   inkscape:version="0.48.3.1 r9886"
   sodipodi:docname="ristretto.svg">
  <sodipodi:namedview
     pagecolor="#ffffff"
     bordercolor="#666666"
     borderopacity="1"
     objecttolerance="10"
     gridtolerance="10"
     guidetolerance="10"
     inkscape:pageopacity="0"
     inkscape:pageshadow="2"
     inkscape:window-width="1366"
     inkscape:window-height="717"
     id="namedview29"
     showgrid="false"
     inkscape:zoom="6.9532167"
     inkscape:cx="13.964661"
     inkscape:cy="17.792693"
     inkscape:window-x="0"
     inkscape:window-y="0"
     inkscape:window-maximized="1"
     inkscape:current-layer="g2996" />
  <defs
     id="defs4" />
  <metadata
     id="metadata7">
    <rdf:RDF>
      <cc:Work
         rdf:about="">
        <dc:format>image/svg+xml</dc:format>
        <dc:type
           rdf:resource="http://purl.org/dc/dcmitype/StillImage" />
        <dc:title />
      </cc:Work>
    </rdf:RDF>
  </metadata>
  <g
     transform="translate(0,-1004.3622)"
     id="layer1">
    <g
       transform="translate(-19.999997,17.142857)"
       id="g2996">
      <rect
         width="28.436411"
         height="24.17095"
         rx="2.2264998"
         ry="2.1382761"
         x="36.499996"
         y="991.62659"
         id="rect6561"
         style="fill-rule:evenodd;stroke:#ffffff;stroke-width:6;stroke-linecap:round;stroke-linejoin:round;stroke-miterlimit:4;stroke-dasharray:none" />
      <rect
         width="28.436411"
         height="24.17095"
         rx="2.446882"
         ry="2.3587291"
         x="36.499996"
         y="991.62659"
         id="rect1315"
         style="fill-rule:evenodd" />
      <rect
         width="22.749128"
         height="18.483667"
         rx="1.0360806"
         ry="0.99200428"
         x="39.343639"
         y="994.47021"
         id="rect6622"
         style="fill:#ffffff;fill-rule:evenodd" />
      <path
         d="m 36.544037,1010.1544 6.354109,-7.8641 c 1.168025,-1.2782 1.98415,-0.7052 2.843641,0 l 5.687289,6.3982 c 2.198839,2.2102 -0.716604,4.3316 -2.132731,2.1327 l -4.976379,-5.6872 -6.761887,8.4925"
         id="path2188"
         style="fill-rule:evenodd"
         inkscape:connector-curvature="0" />
      <path
         d="m 47.752959,1004.5098 7.279714,-6.54189 c 1.168024,-1.27822 1.984164,-0.70522 2.843644,0 l 5.555049,4.37079 c 2.19885,2.2095 -0.71659,4.3315 -2.132729,2.1327 l -4.84414,-3.6598 -7.952246,7.2143"
         id="path3962"
         style="fill-rule:evenodd"
         inkscape:connector-curvature="0" />
      <g
         transform="translate(-0.042374,1.471343)"
         id="g3801"
         style="stroke:#ffffff;stroke-opacity:1;stroke-width:8;stroke-miterlimit:4;stroke-dasharray:none;stroke-linejoin:round;stroke-linecap:round">
        <path
           sodipodi:nodetypes="ccccccc"
           inkscape:connector-curvature="0"
           id="path3803"
           d="m 29.567381,1008.3841 c 0.184884,3.9453 1.353457,14.2959 4.050067,16.8048 l 6.894754,0 6.894756,0 c 2.696607,-2.5089 3.865182,-12.8595 4.050067,-16.8048 l -10.944823,0 z"
           style="fill:#000000;fill-rule:evenodd;overflow:visible;stroke:#ffffff;stroke-opacity:1;stroke-width:8;stroke-miterlimit:4;stroke-dasharray:none;stroke-linejoin:round;stroke-linecap:round" />
        <path
           sodipodi:nodetypes="ccccccc"
           inkscape:connector-curvature="0"
           id="path3805"
           d="m 24.042371,1026.2553 c 0.837538,1.8425 3.682402,3.162 5.356258,3.4927 l 11.113574,0 11.109192,0 c 1.673855,-0.3307 4.523103,-1.6502 5.360639,-3.4927 l -16.469831,0 z"
           style="fill:#000000;fill-rule:evenodd;overflow:visible;stroke:#ffffff;stroke-opacity:1;stroke-width:8;stroke-miterlimit:4;stroke-dasharray:none;stroke-linejoin:round;stroke-linecap:round" />
        <path
           inkscape:connector-curvature="0"
           id="path3807"
           d="m 50.279513,1008.3841 c -3.718282,0 -6.762855,2.9159 -6.762855,6.4773 0,3.5611 3.044573,6.4772 6.762855,6.4772 3.718283,0 6.762859,-2.9161 6.762859,-6.4772 0,-3.5614 -3.044576,-6.4773 -6.762859,-6.4773 z m 0,2.6869 c 2.20222,0 3.957465,1.6811 3.957465,3.7904 0,2.1091 -1.755245,3.7902 -3.957465,3.7902 -2.202217,0 -3.957464,-1.6811 -3.957464,-3.7902 0,-2.1093 1.755247,-3.7904 3.957464,-3.7904 z"
           style="font-size:medium;font-style:normal;font-variant:normal;font-weight:normal;font-stretch:normal;text-indent:0;text-align:start;text-decoration:none;line-height:normal;letter-spacing:normal;word-spacing:normal;text-transform:none;direction:ltr;block-progression:tb;writing-mode:lr-tb;text-anchor:start;baseline-shift:baseline;color:#000000;fill:#000000;fill-opacity:1;stroke:#ffffff;stroke-width:8;marker:none;visibility:visible;display:inline;overflow:visible;enable-background:accumulate;font-family:Sans;-inkscape-font-specification:Sans;stroke-opacity:1;stroke-miterlimit:4;stroke-dasharray:none;stroke-linejoin:round;stroke-linecap:round" />
        <g
           style="stroke:#ffffff;stroke-width:29.50168361000000061;stroke-linecap:round;stroke-linejoin:round;stroke-miterlimit:4;stroke-opacity:1;stroke-dasharray:none;overflow:visible"
           transform="matrix(0.27708484,0,0,0.26538331,-65.911664,993.71472)"
           id="g3809">
          <path
             inkscape:connector-curvature="0"
             style="fill:none;stroke:#ffffff;stroke-width:29.50168361000000061;stroke-linecap:round;stroke-linejoin:round;stroke-miterlimit:4;stroke-opacity:1;stroke-dasharray:none"
             d="m 368.38379,13.473071 c 15.25668,15.917485 -14.09368,16.960076 0,33.24031"
             id="path3811"
             sodipodi:nodetypes="cc" />
          <path
             inkscape:connector-curvature="0"
             sodipodi:nodetypes="cc"
             id="path3813"
             d="m 385.40433,13.473066 c 15.25668,15.91749 -14.09368,16.96008 0,33.24032"
             style="fill:none;stroke:#ffffff;stroke-width:29.50168361000000061;stroke-linecap:round;stroke-linejoin:round;stroke-miterlimit:4;stroke-opacity:1;stroke-dasharray:none" />
          <path
             inkscape:connector-curvature="0"
             style="fill:none;stroke:#ffffff;stroke-width:29.50168361000000061;stroke-linecap:round;stroke-linejoin:round;stroke-miterlimit:4;stroke-opacity:1;stroke-dasharray:none"
             d="m 402.42488,13.473066 c 15.25668,15.91749 -14.09368,16.96008 0,33.24032"
             id="path3815"
             sodipodi:nodetypes="cc" />
        </g>
      </g>
      <path
         d="m 56.234245,1001.0527 c -2.104606,1.9357 -4.264287,3.8301 -6.339102,5.7867 0.690652,1.0259 1.767766,1.7938 2.255087,2.9515 0.266518,0.7492 -0.116103,1.6696 -0.903613,1.8941 -0.662375,0.2362 -1.368709,-0.1033 -1.763885,-0.648 -1.735002,-1.888 -3.372869,-3.8753 -5.09805,-5.7641 -0.538871,0.3979 -0.897538,1.0196 -1.346478,1.5202 -1.22296,1.5278 -2.44056,3.06 -3.660879,4.59 -0.04787,0.5462 0.0209,1.2222 0.592942,1.4753 0.752693,0.09 1.55683,0.012 2.329003,0.038 6.177922,-0.015 12.356325,0.033 18.533932,-0.032 0.433629,0.029 0.94081,-0.045 1.124583,-0.5031 0.15637,-1.1224 0.05154,-2.2709 0.08484,-3.4034 -0.0179,-1.2524 0.02988,-2.5279 -0.06313,-3.7663 -1.734302,-1.5761 -3.670579,-2.9164 -5.524272,-4.3484 -0.07366,0.07 -0.147314,0.1394 -0.220971,0.2091 z"
         id="path3806"
         style="fill:#ffffff;fill-opacity:1;stroke:none"
         inkscape:connector-curvature="0" />
      <path
         d="m 44.755598,994.52616 c -1.587568,0.0262 -3.181075,-0.0415 -4.764685,0.077 -0.422631,0.10592 -0.609785,0.52898 -0.558753,0.93316 -0.06114,3.68366 -0.03296,7.36848 -0.05681,11.05258 1.305168,-1.5256 2.487098,-3.1591 3.853179,-4.6306 0.576089,-0.5681 1.535658,-0.5402 2.11698,0 0.895008,0.743 1.603583,1.6764 2.385302,2.5313 2.642803,-2.3546 5.234616,-4.76919 7.937194,-7.05525 0.61164,-0.46921 1.428042,-0.14568 1.93553,0.32014 1.506083,1.11699 2.962797,2.29851 4.439085,3.45411 -0.02433,-2.00529 0.05275,-4.01499 -0.04932,-6.0175 -0.08375,-0.46489 -0.58127,-0.69407 -1.018045,-0.63332 -5.405694,-0.0738 -10.813406,-0.023 -16.219656,-0.0355 z"
         id="path3808"
         style="fill:#ffffff;fill-opacity:1;stroke:none"
         inkscape:connector-curvature="0" />
      <g
         id="g3792"
         transform="translate(-0.042374,1.471343)">
        <path
           style="fill:#000000;fill-rule:evenodd;overflow:visible"
           d="m 29.567381,1008.3841 c 0.184884,3.9453 1.353457,14.2959 4.050067,16.8048 l 6.894754,0 6.894756,0 c 2.696607,-2.5089 3.865182,-12.8595 4.050067,-16.8048 l -10.944823,0 z"
           id="path121"
           inkscape:connector-curvature="0"
           sodipodi:nodetypes="ccccccc" />
        <path
           style="fill:#000000;fill-rule:evenodd;overflow:visible"
           d="m 24.042371,1026.2553 c 0.837538,1.8425 3.682402,3.162 5.356258,3.4927 l 11.113574,0 11.109192,0 c 1.673855,-0.3307 4.523103,-1.6502 5.360639,-3.4927 l -16.469831,0 z"
           id="path123"
           inkscape:connector-curvature="0"
           sodipodi:nodetypes="ccccccc" />
        <path
           style="font-size:medium;font-style:normal;font-variant:normal;font-weight:normal;font-stretch:normal;text-indent:0;text-align:start;text-decoration:none;line-height:normal;letter-spacing:normal;word-spacing:normal;text-transform:none;direction:ltr;block-progression:tb;writing-mode:lr-tb;text-anchor:start;baseline-shift:baseline;color:#000000;fill:#000000;fill-opacity:1;stroke:none;stroke-width:21.68632126;marker:none;visibility:visible;display:inline;overflow:visible;enable-background:accumulate;font-family:Sans;-inkscape-font-specification:Sans"
           d="m 50.279513,1008.3841 c -3.718282,0 -6.762855,2.9159 -6.762855,6.4773 0,3.5611 3.044573,6.4772 6.762855,6.4772 3.718283,0 6.762859,-2.9161 6.762859,-6.4772 0,-3.5614 -3.044576,-6.4773 -6.762859,-6.4773 z m 0,2.6869 c 2.20222,0 3.957465,1.6811 3.957465,3.7904 0,2.1091 -1.755245,3.7902 -3.957465,3.7902 -2.202217,0 -3.957464,-1.6811 -3.957464,-3.7902 0,-2.1093 1.755247,-3.7904 3.957464,-3.7904 z"
           id="path3102"
           inkscape:connector-curvature="0" />
        <g
           id="g4444"
           transform="matrix(0.27708484,0,0,0.26538331,-65.911664,993.71472)"
           style="stroke:#000000;stroke-width:7.37542105;stroke-linecap:round;stroke-linejoin:round;stroke-miterlimit:4;stroke-opacity:1;stroke-dasharray:none;overflow:visible">
          <path
             sodipodi:nodetypes="cc"
             id="path7593"
             d="m 368.38379,13.473071 c 15.25668,15.917485 -14.09368,16.960076 0,33.24031"
             style="fill:none;stroke:#000000;stroke-width:7.37542105;stroke-linecap:round;stroke-linejoin:round;stroke-miterlimit:4;stroke-opacity:1;stroke-dasharray:none"
             inkscape:connector-curvature="0" />
          <path
             style="fill:none;stroke:#000000;stroke-width:7.37542105;stroke-linecap:round;stroke-linejoin:round;stroke-miterlimit:4;stroke-opacity:1;stroke-dasharray:none"
             d="m 385.40433,13.473066 c 15.25668,15.91749 -14.09368,16.96008 0,33.24032"
             id="path7595"
             sodipodi:nodetypes="cc"
             inkscape:connector-curvature="0" />
          <path
             sodipodi:nodetypes="cc"
             id="path7597"
             d="m 402.42488,13.473066 c 15.25668,15.91749 -14.09368,16.96008 0,33.24032"
             style="fill:none;stroke:#000000;stroke-width:7.37542105;stroke-linecap:round;stroke-linejoin:round;stroke-miterlimit:4;stroke-opacity:1;stroke-dasharray:none"
             inkscape:connector-curvature="0" />
        </g>
      </g>
    </g>
  </g>
</svg>
