<?xml version="1.0" encoding="UTF-8" standalone="no"?>
<!-- Created with Inkscape (http://www.inkscape.org/) -->

<svg
   xmlns:dc="http://purl.org/dc/elements/1.1/"
   xmlns:cc="http://creativecommons.org/ns#"
   xmlns:rdf="http://www.w3.org/1999/02/22-rdf-syntax-ns#"
   xmlns:svg="http://www.w3.org/2000/svg"
   xmlns="http://www.w3.org/2000/svg"
   xmlns:xlink="http://www.w3.org/1999/xlink"
   xmlns:sodipodi="http://sodipodi.sourceforge.net/DTD/sodipodi-0.dtd"
   xmlns:inkscape="http://www.inkscape.org/namespaces/inkscape"
   sodipodi:version="0.32"
   inkscape:version="0.48.3.1 r9886"
   width="48"
   height="48"
   viewBox="0 16 48 48"
   sodipodi:docname="Scribus.svg"
   id="svg2"
   version="1.1">
  <metadata
     id="metadata47">
    <rdf:RDF>
      <cc:Work
         rdf:about="">
        <dc:format>image/svg+xml</dc:format>
        <dc:type
           rdf:resource="http://purl.org/dc/dcmitype/StillImage" />
      </cc:Work>
    </rdf:RDF>
  </metadata>
  <defs
     id="defs3">
    <linearGradient
       id="linearGradient665">
      <stop
         style="stop-color:#ffffff;stop-opacity:0.285714;"
         offset="0.00000000"
         id="stop666" />
      <stop
         style="stop-color:#daecf8;stop-opacity:1;"
         offset="1.00000000"
         id="stop667" />
    </linearGradient>
    <linearGradient
       id="linearGradient624">
      <stop
         style="stop-color:#b9e5ff;stop-opacity:0.419643;"
         offset="0.00000000"
         id="stop625" />
      <stop
         style="stop-color:#ffffff;stop-opacity:1;"
         offset="1.00000000"
         id="stop626" />
    </linearGradient>
    <linearGradient
       id="linearGradient619">
      <stop
         style="stop-color:#66b8ff;stop-opacity:1;"
         offset="0.00000000"
         id="stop620" />
      <stop
         style="stop-color:#00507a;stop-opacity:1;"
         offset="1.00000000"
         id="stop621" />
    </linearGradient>
    <linearGradient
       id="linearGradient604">
      <stop
         style="stop-color:#838383;stop-opacity:1;"
         offset="0.00000000"
         id="stop605" />
      <stop
         style="stop-color:#2c2c2c;stop-opacity:1;"
         offset="1.00000000"
         id="stop606" />
    </linearGradient>
    <linearGradient
       id="linearGradient598">
      <stop
         style="stop-color:#e1dedd;stop-opacity:0.866071;"
         offset="0.00000000"
         id="stop599" />
      <stop
         style="stop-color:#2c2c2c;stop-opacity:1;"
         offset="1.00000000"
         id="stop600" />
    </linearGradient>
    <linearGradient
       id="linearGradient593">
      <stop
         style="stop-color:#fff9db;stop-opacity:0.732143;"
         offset="0.00000000"
         id="stop594" />
      <stop
         style="stop-color:#2c2c2c;stop-opacity:1;"
         offset="1.00000000"
         id="stop595" />
    </linearGradient>
    <linearGradient
       id="linearGradient586">
      <stop
         style="stop-color:#6e6969;stop-opacity:1;"
         offset="0.00000000"
         id="stop587" />
      <stop
         style="stop-color:#2c2c2c;stop-opacity:1;"
         offset="1.00000000"
         id="stop588" />
    </linearGradient>
    <linearGradient
       id="linearGradient578">
      <stop
         style="stop-color:#fff2bc;stop-opacity:1;"
         offset="0.00000000"
         id="stop579" />
      <stop
         style="stop-color:#83560b;stop-opacity:1;"
         offset="1.00000000"
         id="stop580" />
    </linearGradient>
    <linearGradient
       xlink:href="#linearGradient578"
       id="linearGradient581"
       x1="0.43076923"
       y1="0.359375"
       x2="0.56626505"
       y2="0.46875" />
    <radialGradient
       xlink:href="#linearGradient578"
       id="radialGradient582"
       cx="0.5"
       cy="0.5"
       r="0.5"
       fx="0.5"
       fy="0.5" />
    <linearGradient
       xlink:href="#linearGradient593"
       id="linearGradient590"
       x1="0.53061223"
       y1="0.2578125"
       x2="1.0816326"
       y2="0.703125" />
    <linearGradient
       xlink:href="#linearGradient586"
       id="linearGradient592"
       x1="0.19587629"
       y1="0.4921875"
       x2="0.31958762"
       y2="0.5390625" />
    <linearGradient
       xlink:href="#linearGradient598"
       id="linearGradient597"
       x1="0.49333334"
       y1="0.2578125"
       x2="0.66666669"
       y2="0.3828125" />
    <linearGradient
       xlink:href="#linearGradient604"
       id="linearGradient603"
       x1="0.83076924"
       y1="0.375"
       x2="0.43835616"
       y2="0.109375" />
    <linearGradient
       xlink:href="#linearGradient665"
       id="linearGradient618"
       x1="0.4108527"
       y1="0.375"
       x2="0.97674412"
       y2="0.9296875" />
    <linearGradient
       xlink:href="#linearGradient624"
       id="linearGradient623"
       x1="0.47761193"
       y1="0.0546875"
       x2="0.82089549"
       y2="0.9296875" />
    <linearGradient
       xlink:href="#linearGradient619"
       id="linearGradient664"
       x1="0.085271321"
       y1="0.054687489"
       x2="0.48837212"
       y2="0.96093744" />
  </defs>
  <sodipodi:namedview
     id="base"
     pagecolor="#ffffff"
     bordercolor="#666666"
     borderopacity="1.0"
     inkscape:pageopacity="0.0"
     inkscape:pageshadow="2"
     inkscape:zoom="5.6568542"
     inkscape:cx="33.80035"
     inkscape:cy="51.915297"
     inkscape:window-width="1680"
     inkscape:window-height="999"
     inkscape:window-x="0"
     inkscape:window-y="0"
     showgrid="false"
     inkscape:window-maximized="1"
     inkscape:current-layer="svg2" />
  <path
     transform="matrix(0.04551018,0,0,0.04655485,8.0831247,28.018541)"
     d="m 711.25,257.36218 a 370,370 0 1 1 -740,0 370,370 0 1 1 740,0 z"
     sodipodi:ry="370"
     sodipodi:rx="370"
     sodipodi:cy="257.36218"
     sodipodi:cx="341.25"
     id="path3796"
     style="font-size:12px;fill:#000000;fill-opacity:1;fill-rule:evenodd;stroke:#ffffff;stroke-width:294.3633728;stroke-miterlimit:4;stroke-opacity:1;stroke-dasharray:none"
     sodipodi:type="arc" />
  <path
     sodipodi:type="arc"
     style="font-size:12px;fill:#000000;fill-opacity:1;fill-rule:evenodd;stroke:#000000;stroke-width:92.59831238;stroke-miterlimit:4;stroke-opacity:1;stroke-dasharray:none"
     id="path653"
     sodipodi:cx="341.25"
     sodipodi:cy="257.36218"
     sodipodi:rx="370"
     sodipodi:ry="370"
     d="m 711.25,257.36218 a 370,370 0 1 1 -740,0 370,370 0 1 1 740,0 z"
     transform="matrix(0.04551018,0,0,0.04655485,8.0831247,28.018541)" />
  <path
     sodipodi:type="arc"
     style="font-size:12px;fill:#000000;fill-opacity:1;fill-rule:evenodd;stroke:none"
     id="path869"
     sodipodi:cx="341.25"
     sodipodi:cy="257.36218"
     sodipodi:rx="370"
     sodipodi:ry="370"
     d="m 711.25,257.36218 a 370,370 0 1 1 -740,0 370,370 0 1 1 740,0 z"
     transform="matrix(0.04433983,0,0,0.0451057,8.5685923,28.161613)" />
  <path
     sodipodi:type="arc"
     style="font-size:12px;fill:#060000;fill-opacity:1;fill-rule:evenodd;stroke:#000000;stroke-width:1pt"
     id="path686"
     sodipodi:cx="765.44312"
     sodipodi:cy="228.58278"
     sodipodi:rx="134.3503"
     sodipodi:ry="81.317284"
     d="m 899.79341,228.58278 a 134.3503,81.317284 0 1 1 -268.70059,0 134.3503,81.317284 0 1 1 268.70059,0 z"
     transform="matrix(0.02912345,0.02450278,-0.02711236,0.02486712,21.796993,2.0299904)" />
  <path
     style="font-size:12px;fill:#ffffff;fill-opacity:1;fill-rule:evenodd;stroke:#ffffff;stroke-width:0.0521023pt;stroke-opacity:1"
     d="m 21.481085,53.020838 c 0,0 -4.594457,-7.271631 -1.028393,-14.618704 2.834159,-5.905938 3.713783,-11.343627 1.408597,-15.190896 -4.09396,0.510329 -7.657861,2.6026 -9.423659,4.389284 -2.6747271,2.606588 -3.9545732,5.339272 -4.5341102,7.249536 0.7727159,9.419562 13.6419572,18.368389 13.5775652,18.17078 z"
     id="path622"
     sodipodi:nodetypes="cscscc"
     inkscape:connector-curvature="0" />
  <path
     style="font-size:12px;fill:#ffffff;fill-opacity:1;fill-rule:evenodd;stroke:#000000;stroke-width:0.30020979;stroke-opacity:1"
     d="m 22.656583,53.381282 c -0.122018,-0.114009 6.005249,-9.198901 13.495133,-10.432507 0.02302,-9.792984 4.525782,-13.395376 4.810801,-14.008516 -0.601804,-3.25334 -2.368759,-4.482098 -3.96355,-4.740921 -2.703043,-0.344494 -2.195716,0.868237 -2.527827,1.191129 -1.82908,4.13052 -5.659693,9.961471 -6.200372,11.004108 -1.521317,2.108086 -4.743001,12.512332 -6.031616,16.966054 l 0.417431,0.02071 z"
     id="hrot"
     sodipodi:nodetypes="cccccccc"
     inkscape:connector-curvature="0" />
  <path
     sodipodi:type="arc"
     style="font-size:12px;fill:#000000;fill-opacity:1;fill-rule:evenodd;stroke:#000000;stroke-width:5.28905058;stroke-miterlimit:4;stroke-opacity:1;stroke-dasharray:none"
     id="path583"
     sodipodi:cx="145.625"
     sodipodi:cy="355.48718"
     sodipodi:rx="6.25"
     sodipodi:ry="9.6875"
     d="m 151.875,355.48718 a 6.25,9.6875 0 1 1 -12.5,0 6.25,9.6875 0 1 1 12.5,0 z"
     transform="matrix(0.06157107,0.04119355,-0.07059882,0.11755201,45.219784,-9.6007007)" />
  <path
     style="font-size:12px;fill:#000000;fill-opacity:1;fill-rule:evenodd;stroke:#000000;stroke-width:0.53275251;stroke-miterlimit:4;stroke-opacity:1;stroke-dasharray:none"
     d="M 28.56215,39.33564 28.44484,39.24205 C 28.309908,39.1344 23.329508,51.141349 22.552141,53.29586 23.328536,51.022811 27.820232,40.271757 28.56215,39.335638 z"
     id="path585"
     sodipodi:nodetypes="cscc"
     inkscape:connector-curvature="0" />
  <path
     style="font-size:12px;fill:#000000;fill-opacity:1;fill-rule:evenodd;stroke:none"
     d="m 29.811865,43.363397 c 1.62474,-1.277352 3.233182,-1.837426 4.841822,-2.154231 -0.277906,-3.994009 2.765223,-9.389657 5.260579,-13.899424 l -0.702417,-1.157149 c -1.032228,1.56337 -7.779295,13.235996 -9.399984,17.210804 z"
     sodipodi:nodetypes="ccccc"
     inkscape:connector-curvature="0" />
</svg>
