<?xml version="1.0" encoding="UTF-8" standalone="no"?>
<!-- Created with Inkscape (http://www.inkscape.org/) -->

<svg
   xmlns:dc="http://purl.org/dc/elements/1.1/"
   xmlns:cc="http://creativecommons.org/ns#"
   xmlns:rdf="http://www.w3.org/1999/02/22-rdf-syntax-ns#"
   xmlns:svg="http://www.w3.org/2000/svg"
   xmlns="http://www.w3.org/2000/svg"
   xmlns:sodipodi="http://sodipodi.sourceforge.net/DTD/sodipodi-0.dtd"
   xmlns:inkscape="http://www.inkscape.org/namespaces/inkscape"
   version="1.1"
   width="48"
   height="48"
   id="svg1307"
   inkscape:version="0.48.3.1 r9886"
   sodipodi:docname="shotwell.svg">
  <sodipodi:namedview
     pagecolor="#ffffff"
     bordercolor="#666666"
     borderopacity="1"
     objecttolerance="10"
     gridtolerance="10"
     guidetolerance="10"
     inkscape:pageopacity="0"
     inkscape:pageshadow="2"
     inkscape:window-width="1366"
     inkscape:window-height="717"
     id="namedview28"
     showgrid="false"
     inkscape:zoom="4.9166667"
     inkscape:cx="-44.949152"
     inkscape:cy="24"
     inkscape:window-x="0"
     inkscape:window-y="0"
     inkscape:window-maximized="1"
     inkscape:current-layer="g2987" />
  <defs
     id="defs12" />
  <metadata
     id="metadata1312">
    <rdf:RDF>
      <cc:Work
         rdf:about="">
        <dc:format>image/svg+xml</dc:format>
        <dc:type
           rdf:resource="http://purl.org/dc/dcmitype/StillImage" />
        <dc:title />
      </cc:Work>
    </rdf:RDF>
  </metadata>
  <g
     id="layer1">
    <g
       transform="matrix(0.64,0,0,0.64,0.30101692,9.0467797)"
       id="g2987">
      <g
         id="g3048"
         style="stroke:#ffffff;stroke-opacity:1;stroke-width:12.5;stroke-miterlimit:4;stroke-dasharray:none">
        <g
           id="g3050"
           transform="matrix(0.97972973,0,0,1,-0.30378786,0)"
           style="stroke:#ffffff;stroke-opacity:1;stroke-width:12.62864833;stroke-miterlimit:4;stroke-dasharray:none">
          <g
             id="g3052"
             transform="translate(26.067072,-13.932402)"
             style="stroke:#ffffff;stroke-opacity:1;stroke-width:12.62864833;stroke-miterlimit:4;stroke-dasharray:none">
            <rect
               style="fill-rule:evenodd;stroke:#ffffff;stroke-width:12.62864833;stroke-linecap:round;stroke-linejoin:round;stroke-miterlimit:4;stroke-dasharray:none;stroke-opacity:1"
               id="rect3054"
               y="7"
               x="4"
               ry="3.0078001"
               rx="3.1319001"
               height="34"
               width="40" />
            <rect
               style="fill-rule:evenodd;stroke:#ffffff;stroke-opacity:1;stroke-width:12.62864833;stroke-miterlimit:4;stroke-dasharray:none"
               id="rect3056"
               y="7"
               x="4"
               ry="3.3178999"
               rx="3.4419"
               height="34"
               width="40" />
            <rect
               style="fill:#ffffff;fill-rule:evenodd;stroke:#ffffff;stroke-opacity:1;stroke-width:12.62864833;stroke-miterlimit:4;stroke-dasharray:none"
               id="rect3058"
               y="11"
               x="8"
               ry="1.3954"
               rx="1.4574"
               height="26"
               width="32" />
            <path
               style="fill-rule:evenodd;stroke:#ffffff;stroke-opacity:1;stroke-width:12.62864833;stroke-miterlimit:4;stroke-dasharray:none"
               id="path3060"
               d="M 4.062,33.062 13,22 c 1.643,-1.798 2.791,-0.992 4,0 l 8,9 c 3.093,3.109 -1.008,6.093 -3,3 L 15,26 5.4884,37.946"
               inkscape:connector-curvature="0" />
            <path
               style="fill-rule:evenodd;stroke:#ffffff;stroke-opacity:1;stroke-width:12.62864833;stroke-miterlimit:4;stroke-dasharray:none"
               id="path3062"
               d="m 19.829,25.122 10.24,-9.202 c 1.643,-1.798 2.791,-0.992 4,0 l 7.814,6.148 c 3.093,3.108 -1.008,6.093 -3,3 L 32.069,19.92 20.883,30.068"
               inkscape:connector-curvature="0" />
          </g>
          <path
             style="fill:#000000;fill-opacity:0.50980380000000003;stroke:#ffffff;stroke-opacity:1;stroke-width:12.62864833;stroke-miterlimit:4;stroke-dasharray:none"
             id="path3064"
             d="m 57.923377,5.7513722 c -3.074415,2.8687095 -6.346144,5.5603688 -9.234428,8.6094368 0.248428,1.271509 1.631402,2.044862 2.282274,3.153048 0.847709,0.853887 1.252106,2.466196 0.04214,3.188161 -0.957097,0.537128 -2.09023,0.123278 -2.605528,-0.830097 -2.460622,-2.563797 -4.671775,-5.417331 -7.21878,-7.919788 -0.915853,0.02216 -1.267792,1.363384 -1.945964,1.909052 -1.813634,2.514587 -4.211526,4.692917 -5.483714,7.543071 -0.29787,1.373303 1.301102,2.025669 2.429744,1.846885 9.760941,0.136984 19.52805,0.164287 29.283322,-0.0913 1.348739,-0.922518 0.8037,-2.979449 0.987956,-4.388955 -0.02724,-2.206568 0.136542,-4.482086 -0.08208,-6.664264 C 63.830326,9.7275647 60.961674,7.6275533 58.102655,5.6895949 l -0.04586,-0.00845 -0.133422,0.070223 z"
             inkscape:connector-curvature="0" />
        </g>
        <g
           transform="matrix(0.97972973,0,0,1,-37.660618,0.89886456)"
           id="g3066"
           style="stroke:#ffffff;stroke-opacity:1;stroke-width:12.62864833;stroke-miterlimit:4;stroke-dasharray:none">
          <rect
             width="40"
             height="34"
             rx="3.1319001"
             ry="3.0078001"
             x="57.033009"
             y="17.336943"
             id="rect3068"
             style="fill-rule:evenodd;stroke:#ffffff;stroke-width:12.62864833;stroke-linecap:round;stroke-linejoin:round;stroke-miterlimit:4;stroke-dasharray:none;stroke-opacity:1" />
          <rect
             width="40"
             height="34"
             rx="3.4419"
             ry="3.3178999"
             x="57.033009"
             y="17.336943"
             id="rect3070"
             style="fill-rule:evenodd;stroke:#ffffff;stroke-opacity:1;stroke-width:12.62864833;stroke-miterlimit:4;stroke-dasharray:none" />
          <rect
             width="32"
             height="26"
             rx="1.4574"
             ry="1.3954"
             x="61.033009"
             y="21.336943"
             id="rect3072"
             style="fill:#ffffff;fill-rule:evenodd;stroke:#ffffff;stroke-opacity:1;stroke-width:12.62864833;stroke-miterlimit:4;stroke-dasharray:none" />
          <path
             d="m 57.095009,43.398942 8.938,-11.062 c 1.643,-1.798 2.791,-0.992 4,0 l 8,9 c 3.093,3.109 -1.008,6.093 -3,3 l -7,-8 -9.5116,11.946"
             id="path3074"
             style="fill-rule:evenodd;stroke:#ffffff;stroke-opacity:1;stroke-width:12.62864833;stroke-miterlimit:4;stroke-dasharray:none"
             inkscape:connector-curvature="0" />
          <path
             d="m 72.862009,35.458942 10.24,-9.202 c 1.643,-1.798 2.791,-0.992 4,0 l 7.814,6.148 c 3.093,3.108 -1.008,6.093 -3,3 l -6.814,-5.148 -11.186,10.148"
             id="path3076"
             style="fill-rule:evenodd;stroke:#ffffff;stroke-opacity:1;stroke-width:12.62864833;stroke-miterlimit:4;stroke-dasharray:none"
             inkscape:connector-curvature="0" />
          <path
             d="m 54.630178,28.260037 c -1.967626,1.835974 -4.061533,3.558636 -5.910035,5.51004 0.158995,0.813765 1.044097,1.308712 1.460655,2.017951 0.542535,0.546487 0.801349,1.578365 0.02697,2.040422 -0.612542,0.343763 -1.337747,0.0789 -1.667538,-0.531262 -1.574798,-1.640829 -2.989936,-3.467091 -4.620019,-5.068664 -0.586147,0.01418 -0.811387,0.872566 -1.245417,1.221794 -1.160726,1.609335 -2.695377,3.003466 -3.509577,4.827565 -0.190637,0.878914 0.832704,1.296428 1.555036,1.182006 6.247002,0.08767 12.497952,0.105144 18.741326,-0.05843 0.863197,-0.590415 0.514373,-1.906851 0.632297,-2.808935 -0.01743,-1.412203 0.08739,-2.868535 -0.05253,-4.265129 C 58.410625,30.8048 56.574688,29.460793 54.744916,28.2205 l -0.02935,-0.0054 -0.08539,0.04494 z"
             transform="matrix(1.5625,0,0,1.5625,-0.47033894,-14.135593)"
             id="path3078"
             style="fill:#c90016;fill-opacity:1;stroke:#ffffff;stroke-opacity:1;stroke-width:8.08233493;stroke-miterlimit:4;stroke-dasharray:none"
             inkscape:connector-curvature="0" />
        </g>
        <g
           id="g3080"
           transform="matrix(0.97972973,0,0,1,1.7973976,0)"
           style="stroke:#ffffff;stroke-opacity:1;stroke-width:12.62864833;stroke-miterlimit:4;stroke-dasharray:none">
          <g
             id="g3082"
             style="stroke:#ffffff;stroke-opacity:1;stroke-width:12.62864833;stroke-miterlimit:4;stroke-dasharray:none">
            <rect
               style="fill-rule:evenodd;stroke:#ffffff;stroke-width:12.62864833;stroke-linecap:round;stroke-linejoin:round;stroke-miterlimit:4;stroke-dasharray:none;stroke-opacity:1"
               id="rect3084"
               y="7"
               x="4"
               ry="3.0078001"
               rx="3.1319001"
               height="34"
               width="40" />
            <rect
               style="fill-rule:evenodd;stroke:#ffffff;stroke-opacity:1;stroke-width:12.62864833;stroke-miterlimit:4;stroke-dasharray:none"
               id="rect3086"
               y="7"
               x="4"
               ry="3.3178999"
               rx="3.4419"
               height="34"
               width="40" />
            <rect
               style="fill:#ffffff;fill-rule:evenodd;stroke:#ffffff;stroke-opacity:1;stroke-width:12.62864833;stroke-miterlimit:4;stroke-dasharray:none"
               id="rect3088"
               y="11"
               x="8"
               ry="1.3954"
               rx="1.4574"
               height="26"
               width="32" />
            <path
               style="fill-rule:evenodd;stroke:#ffffff;stroke-opacity:1;stroke-width:12.62864833;stroke-miterlimit:4;stroke-dasharray:none"
               id="path3090"
               d="M 4.062,33.062 13,22 c 1.643,-1.798 2.791,-0.992 4,0 l 8,9 c 3.093,3.109 -1.008,6.093 -3,3 L 15,26 5.4884,37.946"
               inkscape:connector-curvature="0" />
            <path
               style="fill-rule:evenodd;stroke:#ffffff;stroke-opacity:1;stroke-width:12.62864833;stroke-miterlimit:4;stroke-dasharray:none"
               id="path3092"
               d="m 19.829,25.122 10.24,-9.202 c 1.643,-1.798 2.791,-0.992 4,0 l 7.814,6.148 c 3.093,3.108 -1.008,6.093 -3,3 L 32.069,19.92 20.883,30.068"
               inkscape:connector-curvature="0" />
          </g>
          <path
             style="fill:#dd4814;fill-opacity:1;stroke:#ffffff;stroke-opacity:1;stroke-width:8.08233493;stroke-miterlimit:4;stroke-dasharray:none"
             id="path3094"
             transform="matrix(1.5625,0,0,1.5625,-0.47033894,-14.135593)"
             d="m 20.689052,21.644394 c -1.967626,1.835974 -4.061532,3.558636 -5.910034,5.51004 0.158994,0.813765 1.044097,1.308711 1.460655,2.017951 0.542535,0.546487 0.801348,1.578365 0.02697,2.040422 -0.612543,0.343763 -1.337748,0.0789 -1.667539,-0.531262 -1.574798,-1.64083 -2.989936,-3.467091 -4.6200188,-5.068664 -0.5861464,0.01418 -0.8113871,0.872566 -1.245417,1.221794 -1.1607261,1.609335 -2.6953769,3.003466 -3.5095765,4.827564 -0.1906376,0.878914 0.8327041,1.296429 1.5550357,1.182007 6.2470016,0.08767 12.4979526,0.105144 18.7413256,-0.05843 0.863198,-0.590415 0.514374,-1.906851 0.632298,-2.808935 -0.01744,-1.412203 0.08739,-2.868535 -0.05253,-4.265129 -1.630721,-1.522595 -3.466659,-2.866602 -5.29643,-4.106895 l -0.02935,-0.0054 -0.08539,0.04494 z"
             inkscape:connector-curvature="0" />
        </g>
      </g>
      <g
         id="g3023">
        <g
           transform="matrix(0.97972973,0,0,1,-0.30378786,0)"
           id="g3014">
          <g
             transform="translate(26.067072,-13.932402)"
             id="g3781">
            <rect
               width="40"
               height="34"
               rx="3.1319001"
               ry="3.0078001"
               x="4"
               y="7"
               id="rect3783"
               style="fill-rule:evenodd;stroke:#ffffff;stroke-width:6.25;stroke-linecap:round;stroke-linejoin:round;stroke-miterlimit:4;stroke-dasharray:none" />
            <rect
               width="40"
               height="34"
               rx="3.4419"
               ry="3.3178999"
               x="4"
               y="7"
               id="rect3785"
               style="fill-rule:evenodd" />
            <rect
               width="32"
               height="26"
               rx="1.4574"
               ry="1.3954"
               x="8"
               y="11"
               id="rect3787"
               style="fill:#ffffff;fill-rule:evenodd" />
            <path
               inkscape:connector-curvature="0"
               d="M 4.062,33.062 13,22 c 1.643,-1.798 2.791,-0.992 4,0 l 8,9 c 3.093,3.109 -1.008,6.093 -3,3 L 15,26 5.4884,37.946"
               id="path3789"
               style="fill-rule:evenodd" />
            <path
               inkscape:connector-curvature="0"
               d="m 19.829,25.122 10.24,-9.202 c 1.643,-1.798 2.791,-0.992 4,0 l 7.814,6.148 c 3.093,3.108 -1.008,6.093 -3,3 L 32.069,19.92 20.883,30.068"
               id="path3791"
               style="fill-rule:evenodd" />
          </g>
          <path
             inkscape:connector-curvature="0"
             d="m 57.923377,5.7513722 c -3.074415,2.8687095 -6.346144,5.5603688 -9.234428,8.6094368 0.248428,1.271509 1.631402,2.044862 2.282274,3.153048 0.847709,0.853887 1.252106,2.466196 0.04214,3.188161 -0.957097,0.537128 -2.09023,0.123278 -2.605528,-0.830097 -2.460622,-2.563797 -4.671775,-5.417331 -7.21878,-7.919788 -0.915853,0.02216 -1.267792,1.363384 -1.945964,1.909052 -1.813634,2.514587 -4.211526,4.692917 -5.483714,7.543071 -0.29787,1.373303 1.301102,2.025669 2.429744,1.846885 9.760941,0.136984 19.52805,0.164287 29.283322,-0.0913 1.348739,-0.922518 0.8037,-2.979449 0.987956,-4.388955 -0.02724,-2.206568 0.136542,-4.482086 -0.08208,-6.664264 C 63.830326,9.7275647 60.961674,7.6275533 58.102655,5.6895949 l -0.04586,-0.00845 -0.133422,0.070223 z"
             id="path3801"
             style="fill:#000000;fill-opacity:0.5098038;stroke:none" />
        </g>
        <g
           id="g3805"
           transform="matrix(0.97972973,0,0,1,-37.660618,0.89886456)">
          <rect
             style="fill-rule:evenodd;stroke:#ffffff;stroke-width:6.25;stroke-linecap:round;stroke-linejoin:round;stroke-miterlimit:4;stroke-dasharray:none"
             id="rect3771"
             y="17.336943"
             x="57.033009"
             ry="3.0078001"
             rx="3.1319001"
             height="34"
             width="40" />
          <rect
             style="fill-rule:evenodd"
             id="rect3773"
             y="17.336943"
             x="57.033009"
             ry="3.3178999"
             rx="3.4419"
             height="34"
             width="40" />
          <rect
             style="fill:#ffffff;fill-rule:evenodd"
             id="rect3775"
             y="21.336943"
             x="61.033009"
             ry="1.3954"
             rx="1.4574"
             height="26"
             width="32" />
          <path
             inkscape:connector-curvature="0"
             style="fill-rule:evenodd"
             id="path3777"
             d="m 57.095009,43.398942 8.938,-11.062 c 1.643,-1.798 2.791,-0.992 4,0 l 8,9 c 3.093,3.109 -1.008,6.093 -3,3 l -7,-8 -9.5116,11.946" />
          <path
             inkscape:connector-curvature="0"
             style="fill-rule:evenodd"
             id="path3779"
             d="m 72.862009,35.458942 10.24,-9.202 c 1.643,-1.798 2.791,-0.992 4,0 l 7.814,6.148 c 3.093,3.108 -1.008,6.093 -3,3 l -6.814,-5.148 -11.186,10.148" />
          <path
             inkscape:connector-curvature="0"
             style="fill:#c90016;fill-opacity:1;stroke:none"
             id="path3803"
             transform="matrix(1.5625,0,0,1.5625,-0.47033894,-14.135593)"
             d="m 54.630178,28.260037 c -1.967626,1.835974 -4.061533,3.558636 -5.910035,5.51004 0.158995,0.813765 1.044097,1.308712 1.460655,2.017951 0.542535,0.546487 0.801349,1.578365 0.02697,2.040422 -0.612542,0.343763 -1.337747,0.0789 -1.667538,-0.531262 -1.574798,-1.640829 -2.989936,-3.467091 -4.620019,-5.068664 -0.586147,0.01418 -0.811387,0.872566 -1.245417,1.221794 -1.160726,1.609335 -2.695377,3.003466 -3.509577,4.827565 -0.190637,0.878914 0.832704,1.296428 1.555036,1.182006 6.247002,0.08767 12.497952,0.105144 18.741326,-0.05843 0.863197,-0.590415 0.514373,-1.906851 0.632297,-2.808935 -0.01743,-1.412203 0.08739,-2.868535 -0.05253,-4.265129 C 58.410625,30.8048 56.574688,29.460793 54.744916,28.2205 l -0.02935,-0.0054 -0.08539,0.04494 z" />
        </g>
        <g
           transform="matrix(0.97972973,0,0,1,1.7973976,0)"
           id="g3005">
          <g
             id="g3762">
            <rect
               width="40"
               height="34"
               rx="3.1319001"
               ry="3.0078001"
               x="4"
               y="7"
               id="rect6561"
               style="fill-rule:evenodd;stroke:#ffffff;stroke-width:6.25;stroke-linecap:round;stroke-linejoin:round;stroke-miterlimit:4;stroke-dasharray:none" />
            <rect
               width="40"
               height="34"
               rx="3.4419"
               ry="3.3178999"
               x="4"
               y="7"
               id="rect1315"
               style="fill-rule:evenodd" />
            <rect
               width="32"
               height="26"
               rx="1.4574"
               ry="1.3954"
               x="8"
               y="11"
               id="rect6622"
               style="fill:#ffffff;fill-rule:evenodd" />
            <path
               inkscape:connector-curvature="0"
               d="M 4.062,33.062 13,22 c 1.643,-1.798 2.791,-0.992 4,0 l 8,9 c 3.093,3.109 -1.008,6.093 -3,3 L 15,26 5.4884,37.946"
               id="path2188"
               style="fill-rule:evenodd" />
            <path
               inkscape:connector-curvature="0"
               d="m 19.829,25.122 10.24,-9.202 c 1.643,-1.798 2.791,-0.992 4,0 l 7.814,6.148 c 3.093,3.108 -1.008,6.093 -3,3 L 32.069,19.92 20.883,30.068"
               id="path3962"
               style="fill-rule:evenodd" />
          </g>
          <path
             inkscape:connector-curvature="0"
             d="m 20.689052,21.644394 c -1.967626,1.835974 -4.061532,3.558636 -5.910034,5.51004 0.158994,0.813765 1.044097,1.308711 1.460655,2.017951 0.542535,0.546487 0.801348,1.578365 0.02697,2.040422 -0.612543,0.343763 -1.337748,0.0789 -1.667539,-0.531262 -1.574798,-1.64083 -2.989936,-3.467091 -4.6200188,-5.068664 -0.5861464,0.01418 -0.8113871,0.872566 -1.245417,1.221794 -1.1607261,1.609335 -2.6953769,3.003466 -3.5095765,4.827564 -0.1906376,0.878914 0.8327041,1.296429 1.5550357,1.182007 6.2470016,0.08767 12.4979526,0.105144 18.7413256,-0.05843 0.863198,-0.590415 0.514374,-1.906851 0.632298,-2.808935 -0.01744,-1.412203 0.08739,-2.868535 -0.05253,-4.265129 -1.630721,-1.522595 -3.466659,-2.866602 -5.29643,-4.106895 l -0.02935,-0.0054 -0.08539,0.04494 z"
             transform="matrix(1.5625,0,0,1.5625,-0.47033894,-14.135593)"
             id="path3820"
             style="fill:#dd4814;fill-opacity:1;stroke:none" />
        </g>
      </g>
    </g>
  </g>
</svg>
