<?xml version="1.0" encoding="UTF-8" standalone="no"?>
<!-- Created with Inkscape (http://www.inkscape.org/) -->

<svg
   xmlns:dc="http://purl.org/dc/elements/1.1/"
   xmlns:cc="http://creativecommons.org/ns#"
   xmlns:rdf="http://www.w3.org/1999/02/22-rdf-syntax-ns#"
   xmlns:svg="http://www.w3.org/2000/svg"
   xmlns="http://www.w3.org/2000/svg"
   xmlns:sodipodi="http://sodipodi.sourceforge.net/DTD/sodipodi-0.dtd"
   xmlns:inkscape="http://www.inkscape.org/namespaces/inkscape"
   version="1.1"
   width="48"
   height="48"
   id="svg2"
   inkscape:version="0.48.3.1 r9886"
   sodipodi:docname="shutter.svg">
  <sodipodi:namedview
     pagecolor="#ffffff"
     bordercolor="#666666"
     borderopacity="1"
     objecttolerance="10"
     gridtolerance="10"
     guidetolerance="10"
     inkscape:pageopacity="0"
     inkscape:pageshadow="2"
     inkscape:window-width="1366"
     inkscape:window-height="717"
     id="namedview20"
     showgrid="false"
     inkscape:zoom="2.4583333"
     inkscape:cx="-8.0538674"
     inkscape:cy="1.9754252"
     inkscape:window-x="0"
     inkscape:window-y="0"
     inkscape:window-maximized="1"
     inkscape:current-layer="g3049" />
  <defs
     id="defs4" />
  <metadata
     id="metadata7">
    <rdf:RDF>
      <cc:Work
         rdf:about="">
        <dc:format>image/svg+xml</dc:format>
        <dc:type
           rdf:resource="http://purl.org/dc/dcmitype/StillImage" />
        <dc:title />
      </cc:Work>
    </rdf:RDF>
  </metadata>
  <g
     transform="translate(0,-1004.3622)"
     id="layer1">
    <g
       transform="matrix(0.20852716,0,0,0.20852716,-43.840571,866.84561)"
       id="g3825"
       style="fill:#000000;fill-opacity:1;stroke:#ffffff;stroke-width:38.3643074;stroke-linecap:round;stroke-linejoin:round;stroke-miterlimit:4;stroke-opacity:1;stroke-dasharray:none">
      <path
         d="m 317.60974,869.44327 c -0.36093,-0.58399 1.61636,-4.76762 4.39396,-9.29696 11.2071,-18.27503 21.08084,-42.32688 28.71269,-69.94244 2.00748,-7.26399 2.75415,-6.78548 8.79008,5.63321 6.2522,12.86367 9.8085,24.6037 10.3914,34.30396 0.46408,7.723 0.32299,8.44724 -2.77945,14.26803 -6.22671,11.68249 -18.35671,21.13828 -31.51204,24.56481 -6.76498,1.76205 -17.03223,2.02985 -17.99664,0.46939 z"
         id="path3827"
         style="fill:#000000;fill-opacity:1;stroke:#ffffff;stroke-width:38.3643074;stroke-linecap:round;stroke-linejoin:round;stroke-miterlimit:4;stroke-opacity:1;stroke-dasharray:none" />
      <path
         d="m 284.64793,857.78707 c -4.7522,-1.15478 -12.4377,-4.92682 -18.05022,-8.85905 -5.62828,-3.94326 -11.44978,-10.60973 -11.44978,-13.11166 0,-0.59466 3.7125,-1.61563 8.25,-2.26881 22.9491,-3.30355 52.31395,-12.68001 73.78502,-23.56023 l 4.96498,-2.51594 -0.0122,2.26684 c -0.0171,3.16751 -5.65152,15.73319 -11.53534,25.7255 -6.94409,11.79293 -14.54536,19.39752 -21.43382,21.44318 -5.10163,1.51501 -19.74311,2.04062 -24.51864,0.88017 z"
         id="path3829"
         style="fill:#000000;fill-opacity:1;stroke:#ffffff;stroke-width:38.3643074;stroke-linecap:round;stroke-linejoin:round;stroke-miterlimit:4;stroke-opacity:1;stroke-dasharray:none" />
      <path
         d="m 380.80995,841.75777 c -0.25265,-0.41398 -0.99636,-2.7777 -1.6527,-5.2527 -5.07087,-19.12191 -21.24057,-51.41156 -35.60717,-71.10477 -1.8476,-2.53263 -3.06892,-4.89513 -2.71404,-5.25 0.35487,-0.35488 -5.27978,-0.64523 -12.52144,-0.64523 -7.24167,0 -13.16667,-0.39279 -13.16667,-0.87287 0,-1.43346 14.10983,-14.39174 21.04831,-19.33049 8.7155,-6.20362 17.781,-10.67444 23.13169,-11.40783 5.44373,-0.74615 15.1544,1.60056 22.21482,5.36849 7.51672,4.01144 16.67138,13.5524 20.50968,21.3751 3.22996,6.58286 5.16849,14.87007 3.47717,14.86491 -0.48492,-10e-4 -6.10824,-1.32397 -12.49626,-2.93886 -12.16554,-3.07545 -27.21387,-5.50401 -39.88541,-6.43687 -8.16691,-0.60124 -7.87167,-0.42531 6.5,3.87332 12.20612,3.65091 24.6826,9.88273 29.78264,14.87601 4.54553,4.45039 8.0591,12.89469 9.12678,21.93474 1.3201,11.17733 -3.19957,26.59117 -10.49984,35.80851 -3.27035,4.12916 -6.47636,6.40223 -7.24756,5.13854 z"
         id="path3831"
         style="fill:#000000;fill-opacity:1;stroke:#ffffff;stroke-width:38.3643074;stroke-linecap:round;stroke-linejoin:round;stroke-miterlimit:4;stroke-opacity:1;stroke-dasharray:none" />
      <path
         d="m 295.56029,768.89589 c -0.93286,-4.96452 1.02497,-32.98916 3.17105,-45.39082 2.25045,-13.00476 4.91038,-19.73922 9.56428,-24.21495 11.09131,-10.6667 42.27259,-19.2545 74.35231,-20.47777 15.52923,-0.59216 24.16551,0.40411 27.91938,3.22075 1.84484,1.38423 1.85009,1.51673 0.13522,3.41163 -0.98128,1.08431 -7.245,4.91703 -13.91938,8.51716 -31.684,17.09022 -62.17998,39.13246 -83.73585,60.52358 -5.83034,5.78578 -11.98556,12.27047 -13.67826,14.41042 l -3.07765,3.89082 -0.7311,-3.89082 z"
         id="path3833"
         style="fill:#000000;fill-opacity:1;stroke:#ffffff;stroke-width:38.3643074;stroke-linecap:round;stroke-linejoin:round;stroke-miterlimit:4;stroke-opacity:1;stroke-dasharray:none" />
      <path
         d="m 241.25306,802.43783 c -2.10811,-4.4128 -4.04143,-12.75291 -4.54062,-19.58765 -0.5006,-6.85392 0.98725,-15.57848 2.9263,-17.15954 0.46087,-0.37579 3.5982,1.85629 6.97184,4.96018 17.06266,15.69842 42.8863,32.53148 64.88702,42.29643 l 5.08746,2.25805 -1.76456,1.42304 c -2.4657,1.98841 -15.76495,5.56231 -27.2274,7.31671 -13.52798,2.07055 -24.22521,0.98502 -30.1637,-3.06096 -4.39807,-2.99649 -14.05789,-14.01179 -16.17634,-18.44626 z"
         id="path3835"
         style="fill:#000000;fill-opacity:1;stroke:#ffffff;stroke-width:38.3643074;stroke-linecap:round;stroke-linejoin:round;stroke-miterlimit:4;stroke-opacity:1;stroke-dasharray:none" />
      <path
         d="m 258.09407,739.64019 c 1.72411,-4.5765 6.40278,-11.74625 10.98835,-16.83892 4.59844,-5.10698 11.92338,-10.07457 14.40674,-9.77031 0.59025,0.0723 1.15216,3.88141 1.2487,8.46467 0.48822,23.18052 6.22409,53.46768 14.41249,76.10252 l 1.89349,5.23409 -2.24853,-0.28777 c -3.14193,-0.40218 -14.92915,-7.52287 -24.13178,-14.57817 -10.86094,-8.32667 -17.48472,-16.7963 -18.6775,-23.88241 -0.88336,-5.24801 0.37545,-19.84473 2.10804,-24.4437 z"
         id="path3837"
         style="fill:#000000;fill-opacity:1;stroke:#ffffff;stroke-width:38.3643074;stroke-linecap:round;stroke-linejoin:round;stroke-miterlimit:4;stroke-opacity:1;stroke-dasharray:none" />
    </g>
    <g
       transform="matrix(0.20852716,0,0,0.20852716,-43.840571,866.84561)"
       id="g3049"
       style="fill:#000000;fill-opacity:1;stroke:none">
      <path
         d="m 317.60974,869.44327 c -0.36093,-0.58399 1.61636,-4.76762 4.39396,-9.29696 11.2071,-18.27503 21.08084,-42.32688 28.71269,-69.94244 2.00748,-7.26399 2.75415,-6.78548 8.79008,5.63321 6.2522,12.86367 9.8085,24.6037 10.3914,34.30396 0.46408,7.723 0.32299,8.44724 -2.77945,14.26803 -6.22671,11.68249 -18.35671,21.13828 -31.51204,24.56481 -6.76498,1.76205 -17.03223,2.02985 -17.99664,0.46939 z"
         id="path3043"
         style="fill:#000000;fill-opacity:1;stroke:#ffffff;stroke-opacity:1;stroke-width:4.79553838;stroke-miterlimit:4;stroke-dasharray:none" />
      <path
         d="m 284.64793,857.78707 c -4.7522,-1.15478 -12.4377,-4.92682 -18.05022,-8.85905 -5.62828,-3.94326 -11.44978,-10.60973 -11.44978,-13.11166 0,-0.59466 3.7125,-1.61563 8.25,-2.26881 22.9491,-3.30355 52.31395,-12.68001 73.78502,-23.56023 l 4.96498,-2.51594 -0.0122,2.26684 c -0.0171,3.16751 -5.65152,15.73319 -11.53534,25.7255 -6.94409,11.79293 -14.54536,19.39752 -21.43382,21.44318 -5.10163,1.51501 -19.74311,2.04062 -24.51864,0.88017 z"
         id="path3041"
         style="fill:#000000;fill-opacity:1;stroke:#ffffff;stroke-opacity:1;stroke-width:4.79553838;stroke-miterlimit:4;stroke-dasharray:none" />
      <path
         d="m 295.56029,768.89589 c -0.93286,-4.96452 1.02497,-32.98916 3.17105,-45.39082 2.25045,-13.00476 4.91038,-19.73922 9.56428,-24.21495 11.09131,-10.6667 42.27259,-19.2545 74.35231,-20.47777 15.52923,-0.59216 24.16551,0.40411 27.91938,3.22075 1.84484,1.38423 1.85009,1.51673 0.13522,3.41163 -0.98128,1.08431 -7.245,4.91703 -13.91938,8.51716 -31.684,17.09022 -62.17998,39.13246 -83.73585,60.52358 -5.83034,5.78578 -11.98556,12.27047 -13.67826,14.41042 l -3.07765,3.89082 -0.7311,-3.89082 z"
         id="path3035"
         style="fill:#000000;fill-opacity:1;stroke:#ffffff;stroke-opacity:1;stroke-width:4.79553837999999999;stroke-miterlimit:4;stroke-dasharray:none" />
      <path
         d="m 241.25306,802.43783 c -2.10811,-4.4128 -4.04143,-12.75291 -4.54062,-19.58765 -0.5006,-6.85392 0.98725,-15.57848 2.9263,-17.15954 0.46087,-0.37579 3.5982,1.85629 6.97184,4.96018 17.06266,15.69842 42.8863,32.53148 64.88702,42.29643 l 5.08746,2.25805 -1.76456,1.42304 c -2.4657,1.98841 -15.76495,5.56231 -27.2274,7.31671 -13.52798,2.07055 -24.22521,0.98502 -30.1637,-3.06096 -4.39807,-2.99649 -14.05789,-14.01179 -16.17634,-18.44626 z"
         id="path3045"
         style="fill:#000000;fill-opacity:1;stroke:#ffffff;stroke-opacity:1;stroke-width:4.79553838;stroke-miterlimit:4;stroke-dasharray:none" />
      <path
         d="m 258.09407,739.64019 c 1.72411,-4.5765 6.40278,-11.74625 10.98835,-16.83892 4.59844,-5.10698 11.92338,-10.07457 14.40674,-9.77031 0.59025,0.0723 1.15216,3.88141 1.2487,8.46467 0.48822,23.18052 6.22409,53.46768 14.41249,76.10252 l 1.89349,5.23409 -2.24853,-0.28777 c -3.14193,-0.40218 -14.92915,-7.52287 -24.13178,-14.57817 -10.86094,-8.32667 -17.48472,-16.7963 -18.6775,-23.88241 -0.88336,-5.24801 0.37545,-19.84473 2.10804,-24.4437 z"
         id="path3047"
         style="fill:#000000;fill-opacity:1;stroke:#ffffff;stroke-opacity:1;stroke-width:4.79553838;stroke-miterlimit:4;stroke-dasharray:none" />
      <path
         style="fill:#000000;fill-opacity:1;stroke:#ffffff;stroke-width:4.79553837999999999;stroke-miterlimit:4;stroke-dasharray:none;stroke-opacity:1"
         id="path3767"
         d="m 380.59757,842.59545 c -0.67662,-0.11625 -2.49967,-4.36973 -4.05139,-9.45128 -6.26092,-20.50308 -17.73191,-43.83543 -33.35747,-67.85014 -4.11015,-6.31682 -3.257,-6.55897 10.04353,-2.8506 13.77711,3.84124 24.9263,8.95703 32.57754,14.94813 6.09165,4.76991 6.54058,5.35547 8.84429,11.53606 4.62359,12.40463 3.66782,27.75506 -2.48298,39.87824 -3.16297,6.2342 -9.76577,14.1013 -11.57352,13.78959 z"
         inkscape:connector-curvature="0" />
      <path
         inkscape:connector-curvature="0"
         d="m 405.94166,768.09209 c -0.45231,0.51648 -5.03199,-0.14849 -10.17638,-1.4771 -20.75666,-5.36067 -46.64593,-7.7539 -75.28565,-6.95945 -7.53338,0.20897 -7.29465,-0.64513 2.81049,-10.05483 10.46721,-9.74687 20.65001,-16.58691 29.75376,-19.98641 7.24809,-2.70655 7.98187,-2.78386 14.45623,-1.52306 12.99419,2.53047 25.58909,11.35757 32.71974,22.93158 3.66685,5.95179 6.9312,15.68997 5.72181,17.06927 z"
         id="path3769"
         style="fill:#000000;fill-opacity:1;stroke:#ffffff;stroke-opacity:1;stroke-width:4.79553838;stroke-miterlimit:4;stroke-dasharray:none" />
    </g>
  </g>
</svg>
