<?xml version="1.0" encoding="UTF-8" standalone="no"?>
<!-- Created with Inkscape (http://www.inkscape.org/) -->

<svg
   xmlns:dc="http://purl.org/dc/elements/1.1/"
   xmlns:cc="http://creativecommons.org/ns#"
   xmlns:rdf="http://www.w3.org/1999/02/22-rdf-syntax-ns#"
   xmlns:svg="http://www.w3.org/2000/svg"
   xmlns="http://www.w3.org/2000/svg"
   xmlns:sodipodi="http://sodipodi.sourceforge.net/DTD/sodipodi-0.dtd"
   xmlns:inkscape="http://www.inkscape.org/namespaces/inkscape"
   id="svg2"
   sodipodi:version="0.32"
   inkscape:version="0.48.3.1 r9886"
   width="48"
   height="48"
   version="1.0"
   sodipodi:docname="skype.svg"
   inkscape:output_extension="org.inkscape.output.svg.inkscape"
   inkscape:export-filename="/home/qwerty/.icons/MonoBlack/48x48/apps/skype.png"
   inkscape:export-xdpi="90"
   inkscape:export-ydpi="90">
  <metadata
     id="metadata7">
    <rdf:RDF>
      <cc:Work
         rdf:about="">
        <dc:format>image/svg+xml</dc:format>
        <dc:type
           rdf:resource="http://purl.org/dc/dcmitype/StillImage" />
      </cc:Work>
    </rdf:RDF>
  </metadata>
  <defs
     id="defs5" />
  <sodipodi:namedview
     inkscape:window-height="717"
     inkscape:window-width="1366"
     inkscape:pageshadow="2"
     inkscape:pageopacity="0.0"
     guidetolerance="10000"
     gridtolerance="10000"
     objecttolerance="10000"
     borderopacity="1.0"
     bordercolor="#666666"
     pagecolor="#ffffff"
     id="base"
     width="48px"
     height="48px"
     showgrid="true"
     inkscape:zoom="4.4967572"
     inkscape:cx="-35.671152"
     inkscape:cy="17.062455"
     inkscape:window-x="0"
     inkscape:window-y="0"
     inkscape:current-layer="svg2"
     inkscape:window-maximized="1" />
  <path
     inkscape:connector-curvature="0"
     style="color:#000000;fill:none;fill-opacity:1;fill-rule:nonzero;stroke:#ffffff;stroke-width:8;stroke-miterlimit:4;stroke-opacity:1;stroke-dasharray:none;marker:none;visibility:visible;display:inline;overflow:visible;enable-background:accumulate"
     d="m 15.735715,4.2941711 c -6.2431072,1e-7 -11.4325929,4.8965938 -11.4325929,10.9774329 0,1.742611 0.5052747,3.339338 1.2583886,4.792586 -0.2180776,1.112025 -0.4283876,2.238191 -0.4283876,3.427099 0,10.243022 8.5332449,18.554538 18.9561499,18.554539 0.738067,0 1.473359,-0.07994 2.195487,-0.160646 1.781316,1.099442 3.86025,1.820647 6.131298,1.820647 6.2369,-1e-6 11.40582,-4.876356 11.40582,-10.950658 1e-6,-1.815957 -0.545664,-3.496722 -1.365485,-5.00678 0.334744,-1.371295 0.615806,-2.777931 0.615806,-4.257102 0,-10.24302 -8.560017,-18.5545364 -18.982926,-18.5545365 -1.253821,0 -2.438549,0.2013102 -3.61452,0.4283875 -1.44041,-0.6432942 -3.021727,-1.0709689 -4.739038,-1.0709689 z m 8.407106,7.0416209 c 1.375209,2.4e-5 2.803602,0.09837 4.257103,0.294516 1.453468,0.18587 2.943939,0.474782 4.49807,0.856776 l 0,4.899683 C 31.522753,16.81892 30.18998,16.390718 28.88186,16.101605 c -1.308153,-0.289076 -2.532069,-0.455143 -3.694844,-0.455163 -1.542942,2e-5 -2.689187,0.19671 -3.4271,0.589033 -0.737933,0.392362 -1.097752,1.021454 -1.097744,1.847422 -7e-6,0.619506 0.230947,1.09478 0.722905,1.445807 0.503121,0.340736 1.422823,0.63577 2.730971,0.88355 l 2.73097,0.50871 c 2.783968,0.516254 4.76989,1.303014 5.943879,2.356132 1.173948,1.05314 1.767076,2.557014 1.767099,4.49807 -2.3e-5,2.550232 -0.819693,4.453609 -2.463229,5.70291 -1.632393,1.238976 -4.131421,1.84742 -7.496784,1.847421 -1.587663,-10e-7 -3.193761,-0.149619 -4.792586,-0.428387 -1.59884,-0.278771 -3.193756,-0.684399 -4.792586,-1.231615 l 0,-5.033555 c 1.59883,0.784691 3.144907,1.391211 4.631941,1.793874 1.4982,0.392347 2.951013,0.589037 4.337425,0.589033 1.40875,3e-6 2.463789,-0.235709 3.212906,-0.669356 0.749088,-0.433637 1.124501,-1.042081 1.124518,-1.847421 -1.7e-5,-0.72273 -0.235383,-1.267652 -0.749679,-1.660002 -0.503143,-0.392333 -1.531705,-0.761216 -3.052261,-1.070969 l -2.490003,-0.508711 c -2.504476,-0.495581 -4.352707,-1.272015 -5.51549,-2.356132 -1.15161,-1.084093 -1.713554,-2.553141 -1.713551,-4.390972 -3e-6,-2.302414 0.799662,-4.062298 2.409681,-5.301297 1.610009,-1.238954 3.915737,-1.874171 6.934523,-1.874195 z"
     id="path2161-3" />
  <path
     sodipodi:type="arc"
     style="fill:#ffffff;fill-opacity:1;stroke:#ffffff;stroke-width:4;stroke-linecap:round;stroke-linejoin:round;stroke-miterlimit:4;stroke-opacity:1;stroke-dasharray:none"
     id="path2982"
     sodipodi:cx="25.796368"
     sodipodi:cy="24.427458"
     sodipodi:rx="15.566773"
     sodipodi:ry="16.456303"
     d="m 41.363141,24.427458 a 15.566773,16.456303 0 1 1 -31.133547,0 15.566773,16.456303 0 1 1 31.133547,0 z"
     transform="matrix(0.90773944,0,0,0.87025047,1.0837298,2.0603036)" />
  <path
     style="color:#000000;fill:#000000;fill-opacity:1;fill-rule:nonzero;stroke:none;stroke-width:4.4000001;marker:none;visibility:visible;display:inline;overflow:visible;enable-background:accumulate"
     d="m 15.735716,4.2941706 c -6.2431082,10e-8 -11.4325939,4.8965938 -11.4325939,10.9774324 10e-8,1.742611 0.505275,3.339338 1.2583886,4.792586 -0.2180775,1.112026 -0.4283876,2.238192 -0.4283876,3.4271 2e-7,10.243022 8.5332459,18.554538 18.9561509,18.554539 0.738067,0 1.473359,-0.07995 2.195487,-0.160646 1.781316,1.099442 3.860249,1.820647 6.131297,1.820647 6.2369,-1e-6 11.40582,-4.876356 11.40582,-10.950658 1e-6,-1.815957 -0.545664,-3.496722 -1.365485,-5.00678 0.334744,-1.371295 0.615806,-2.777931 0.615806,-4.257102 0,-10.243021 -8.560017,-18.5545369 -18.982925,-18.554537 -1.253822,0 -2.438549,0.2013102 -3.61452,0.4283876 -1.440411,-0.6432943 -3.021727,-1.070969 -4.739038,-1.070969 z m 8.407106,7.0416214 c 1.375209,2.3e-5 2.803602,0.09837 4.257102,0.294516 1.453468,0.18587 2.943939,0.474781 4.49807,0.856775 l 0,4.899684 c -1.375241,-0.567847 -2.708014,-0.99605 -4.016133,-1.285163 -1.308153,-0.289076 -2.53207,-0.455143 -3.694844,-0.455162 -1.542942,2e-5 -2.689187,0.196709 -3.4271,0.589033 -0.737933,0.392361 -1.097752,1.021454 -1.097744,1.847422 -8e-6,0.619505 0.230946,1.09478 0.722905,1.445807 0.503121,0.340735 1.422823,0.635769 2.730971,0.88355 l 2.73097,0.50871 c 2.783967,0.516254 4.769889,1.303014 5.943878,2.356132 1.173948,1.05314 1.767076,2.557014 1.767099,4.49807 -2.3e-5,2.550232 -0.819693,4.453609 -2.463229,5.70291 -1.632393,1.238976 -4.13142,1.84742 -7.496783,1.847421 -1.587663,-10e-7 -3.193761,-0.149619 -4.792586,-0.428387 -1.59884,-0.278771 -3.193756,-0.684399 -4.792586,-1.231615 l 0,-5.033555 c 1.59883,0.784691 3.144907,1.391211 4.631941,1.793874 1.4982,0.392347 2.951013,0.589037 4.337425,0.589033 1.40875,3e-6 2.463788,-0.235709 3.212906,-0.669356 0.749088,-0.433637 1.124501,-1.042081 1.124518,-1.847421 -1.7e-5,-0.72273 -0.235383,-1.267652 -0.749679,-1.660002 -0.503143,-0.392333 -1.531705,-0.761216 -3.052261,-1.070969 l -2.490003,-0.508711 c -2.504476,-0.495581 -4.352707,-1.272015 -5.51549,-2.356132 -1.15161,-1.084093 -1.713554,-2.553141 -1.713551,-4.390972 -3e-6,-2.302414 0.799662,-4.062298 2.409681,-5.301297 1.610009,-1.238954 3.915737,-1.874172 6.934523,-1.874195 z"
     id="path2161"
     inkscape:connector-curvature="0" />
</svg>
