<?xml version="1.0" encoding="UTF-8" standalone="no"?>
<!-- Created with Inkscape (http://www.inkscape.org/) -->

<svg
   xmlns:dc="http://purl.org/dc/elements/1.1/"
   xmlns:cc="http://creativecommons.org/ns#"
   xmlns:rdf="http://www.w3.org/1999/02/22-rdf-syntax-ns#"
   xmlns:svg="http://www.w3.org/2000/svg"
   xmlns="http://www.w3.org/2000/svg"
   xmlns:sodipodi="http://sodipodi.sourceforge.net/DTD/sodipodi-0.dtd"
   xmlns:inkscape="http://www.inkscape.org/namespaces/inkscape"
   id="svg1307"
   sodipodi:docname="software-properties.svg"
   height="48px"
   sodipodi:version="0.32"
   width="48px"
   version="1.1"
   inkscape:version="0.48.3.1 r9886">
  <defs
     id="defs17" />
  <sodipodi:namedview
     id="base"
     bordercolor="#666666"
     pagecolor="#ffffff"
     showgrid="true"
     borderopacity="1.0"
     showguides="true"
     inkscape:zoom="9.8333333"
     inkscape:cx="21.766912"
     inkscape:cy="24.900726"
     inkscape:window-width="1366"
     inkscape:window-height="717"
     inkscape:window-x="0"
     inkscape:window-y="0"
     inkscape:window-maximized="1"
     inkscape:current-layer="layer1">
    <sodipodi:guide
       id="guide3065"
       position="42.972569"
       orientation="horizontal" />
    <sodipodi:guide
       id="guide3067"
       position="4.967581"
       orientation="vertical" />
    <sodipodi:guide
       id="guide3071"
       position="11.072319"
       orientation="vertical" />
    <sodipodi:guide
       id="guide3073"
       position="36.987531"
       orientation="horizontal" />
    <sodipodi:guide
       id="guide3950"
       position="37.107232"
       orientation="vertical" />
    <sodipodi:guide
       id="guide3952"
       position="11.072319"
       orientation="horizontal" />
  </sodipodi:namedview>
  <metadata
     id="metadata1312">
    <rdf:RDF>
      <cc:Work
         rdf:about="">
        <dc:format>image/svg+xml</dc:format>
        <dc:type
           rdf:resource="http://purl.org/dc/dcmitype/StillImage" />
        <dc:title />
      </cc:Work>
    </rdf:RDF>
  </metadata>
  <g
     id="layer1">
    <path
       id="path5706"
       sodipodi:rx="13"
       sodipodi:ry="13"
       style="fill:none;stroke:#ffffff;stroke-width:20"
       sodipodi:type="arc"
       d="m 37,24 a 13,13 0 1 1 -26,0 13,13 0 1 1 26,0 z"
       sodipodi:cy="24"
       sodipodi:cx="24"
       transform="matrix(1.0434783,0,0,1.0434783,-1.0434783,-1.0434783)" />
    <path
       id="path3954"
       sodipodi:rx="13"
       sodipodi:ry="13"
       style="fill:none;stroke:#000000;stroke-width:12"
       sodipodi:type="arc"
       d="m 37,24 a 13,13 0 1 1 -26,0 13,13 0 1 1 26,0 z"
       sodipodi:cy="24"
       sodipodi:cx="24"
       transform="matrix(0.83509258,-0.62567351,0.62567351,0.83509258,-11.058385,18.973943)" />
    <path
       id="path4829"
       sodipodi:rx="13"
       sodipodi:ry="13"
       style="fill:none;stroke:#ffffff;stroke-width:6"
       sodipodi:type="arc"
       d="m 30.5,12.74167 a 13,13 0 0 1 6.302501,9.000904"
       sodipodi:open="true"
       sodipodi:cy="24"
       sodipodi:cx="24"
       sodipodi:end="6.1086524"
       sodipodi:start="5.2359878"
       transform="matrix(1.0432492,0.02186658,-0.02186658,1.0432492,-0.51318116,-1.5627768)" />
    <path
       id="path5704"
       sodipodi:rx="13"
       sodipodi:ry="13"
       style="fill:none;stroke:#ffffff;stroke-width:6"
       sodipodi:type="arc"
       d="M 17.5,35.25833 A 13,13 0 0 1 11.197499,26.257427"
       sodipodi:open="true"
       sodipodi:cy="24"
       sodipodi:cx="24"
       sodipodi:end="2.9670597"
       sodipodi:start="2.0943951"
       transform="matrix(1.0432492,0.02186658,-0.02186658,1.0432492,-0.51318116,-1.5627768)" />
    <g
       id="g3004"
       transform="matrix(0.97635579,0,0,0.97635579,11.574424,8.4191341)">
      <g
         transform="matrix(0.76254859,0,0,0.76254859,4.0519443,5.697862)"
         id="g3798"
         style="fill:#dd4814;fill-opacity:1;stroke:#ffffff;stroke-width:3.93417549;stroke-miterlimit:4;stroke-opacity:1;stroke-dasharray:none">
        <g
           transform="matrix(0.31902905,0,0,0.31902905,3.4783085,3.516009)"
           style="fill:#dd4814;fill-opacity:1;stroke:#ffffff;stroke-width:12.33171558;stroke-miterlimit:4;stroke-opacity:1;stroke-dasharray:none"
           id="g3800">
          <g
             style="fill:#dd4814;fill-opacity:1;stroke:#ffffff;stroke-width:33.03386307;stroke-miterlimit:4;stroke-opacity:1;stroke-dasharray:none"
             id="g3802"
             transform="matrix(0.37037732,0,0,0.37625636,-67.601549,-58.497577)">
            <g
               style="fill:#dd4814;fill-opacity:1;stroke:#ffffff;stroke-width:13.19777679;stroke-miterlimit:4;stroke-opacity:1;stroke-dasharray:none"
               id="g3804"
               transform="matrix(2.5029871,0,0,2.5029871,148.31101,90.072285)">
              <path
                 inkscape:connector-curvature="0"
                 style="fill:#dd4814;fill-opacity:1;stroke:#ffffff;stroke-width:13.19777679;stroke-miterlimit:4;stroke-opacity:1;stroke-dasharray:none"
                 id="path3806"
                 d="m 28.006495,81.295387 0.221083,0 c 6.35941,0 10.692345,3.400405 13.011047,10.189742 l 0.214964,3.036265 c 0,5.641846 -3.108177,9.759816 -9.323767,12.359266 l -3.251232,0.43605 -1.087824,0 c -5.498789,0 -9.544851,-3.17932 -12.144307,-9.53873 l -0.214964,-2.168762 0,-2.169525 c 0,-5.055856 2.886329,-8.886955 8.671991,-11.49253 1.589662,-0.430693 2.886329,-0.651776 3.903009,-0.651776 z M 59.233619,49.852534 c 1.876534,2.749395 5.635723,9.257978 11.277566,19.51963 -8.098244,6.938511 -12.144306,14.815671 -12.144306,23.631481 l 0,2.605573 c 0,8.678112 4.046062,16.626412 12.144306,23.852572 -6.364764,11.27756 -10.123953,17.70812 -11.277566,19.29854 -2.025709,-1.00979 -5.713753,-4.41096 -11.056483,-10.19586 -5.211916,-6.78934 -8.463147,-13.00492 -9.759815,-18.64677 5.635723,-4.47676 8.457027,-9.68179 8.457027,-15.610505 0,-5.922593 -2.821304,-11.128389 -8.457027,-15.610499 0.286874,-3.179322 2.964358,-8.671991 8.020215,-16.483362 3.903008,-5.055856 8.098244,-9.173828 12.580354,-12.35927 l 0.215729,0 0,-0.0015 z m 28.836512,-9.537966 4.124092,0 c 3.179322,0 6.646284,0.436048 10.405477,1.302788 0,5.785662 3.03627,10.841518 9.10804,15.174454 3.17932,1.589661 6.14368,2.384491 8.89307,2.384491 l 0.86674,0 c 2.30723,0 5.05586,-0.645656 8.23594,-1.948444 6.79546,8.098245 10.99069,15.616622 12.58036,22.549778 1.1536,4.339056 1.73347,7.739461 1.73347,10.189743 l -22.33404,0 c -0.43605,-4.625929 -2.46252,-9.610641 -6.07253,-14.959491 -7.08845,-8.378998 -15.688539,-12.574999 -25.801019,-12.574999 -3.616135,0 -7.518378,0.794831 -11.714379,2.384492 l 0,-0.214964 L 67.03887,45.298515 c 7.518377,-3.323141 14.528798,-4.983947 21.031261,-4.983947 z m 33.612379,58.330918 22.33404,0 0,0.214963 c 0,6.359411 -2.38449,14.020841 -7.15423,22.985831 -2.0257,3.32314 -4.48211,6.50246 -7.37532,9.53873 l -0.21496,0 c -2.60558,-1.29667 -5.27694,-1.94844 -8.02634,-1.94844 l -0.43069,0 c -5.64184,0 -10.41082,2.38449 -14.31383,7.15424 -2.60558,3.61613 -3.90301,7.08233 -3.90301,10.40547 -4.482114,1.01591 -8.678117,1.51775 -12.575005,1.51775 -7.662197,0 -15.323629,-1.73348 -22.985825,-5.19968 l 0,-0.22108 11.056482,-19.29855 c 3.759189,1.58966 7.877161,2.3845 12.35927,2.3845 9.394915,0 17.565068,-3.97416 24.503588,-11.92323 3.46619,-4.48211 5.70763,-9.46682 6.72354,-14.959493 l 0,-0.651011 0.002,0 z M 121.2457,27.739569 c 5.92872,0 10.04669,3.179322 12.35927,9.538731 l 0.43605,3.036268 0,1.081704 c 0,5.785662 -3.32927,9.837079 -9.97478,12.144306 l -1.94844,0.214964 -2.16953,0 c -4.62593,0 -8.31321,-2.671365 -11.0626,-8.020215 -0.57987,-1.73348 -0.86674,-3.251231 -0.86674,-4.554019 l 0,-0.86674 c 0,-5.635723 3.17932,-9.681785 9.54485,-12.144306 l 3.68192,-0.430693 z m -0.86597,107.116991 1.30278,0 c 5.49267,0 9.46682,3.10818 11.92322,9.32377 l 0.43604,3.03627 0,1.0817 c 0,5.49879 -2.96435,9.47294 -8.89306,11.92934 -1.30279,0.4307 -2.74327,0.64566 -4.33294,0.64566 -4.91891,0 -8.75001,-2.4564 -11.49252,-7.3692 -0.87286,-1.58967 -1.30279,-3.32315 -1.30279,-5.2058 l 0,-0.86674 c 0,-5.49267 3.03627,-9.53873 9.10804,-12.14431 l 3.25123,-0.43069 z" />
            </g>
          </g>
          <path
             inkscape:connector-curvature="0"
             style="fill:#dd4814;fill-opacity:1;stroke:#ffffff;stroke-width:12.33171558;stroke-miterlimit:4;stroke-opacity:1;stroke-dasharray:none"
             id="path3808"
             d="M 70.84375,43.40625 C 59.058285,43.40625 49.5,52.964535 49.5,64.75 c 0,11.785465 9.558285,21.34375 21.34375,21.34375 11.785465,0 21.34375,-9.558285 21.34375,-21.34375 0,-11.785465 -9.558285,-21.34375 -21.34375,-21.34375 z m 0,12.25 c 5.021026,0 9.09375,4.072724 9.09375,9.09375 0,5.021026 -4.072724,9.09375 -9.09375,9.09375 -5.021026,0 -9.09375,-4.072724 -9.09375,-9.09375 0,-5.021026 4.072724,-9.09375 9.09375,-9.09375 z" />
        </g>
      </g>
      <g
         style="fill:#dd4814;fill-opacity:1"
         id="g3792"
         transform="matrix(0.76254859,0,0,0.76254859,4.0519443,5.697862)">
        <g
           id="layer1-6"
           style="fill:#dd4814;fill-opacity:1;stroke:none"
           transform="matrix(0.31902905,0,0,0.31902905,3.4783085,3.516009)">
          <g
             transform="matrix(0.37037732,0,0,0.37625636,-67.601549,-58.497577)"
             id="g3632"
             style="fill:#dd4814;fill-opacity:1;stroke:none">
            <g
               transform="matrix(2.5029871,0,0,2.5029871,148.31101,90.072285)"
               id="g3"
               style="fill:#dd4814;fill-opacity:1;stroke:none">
              <path
                 d="m 28.006495,81.295387 0.221083,0 c 6.35941,0 10.692345,3.400405 13.011047,10.189742 l 0.214964,3.036265 c 0,5.641846 -3.108177,9.759816 -9.323767,12.359266 l -3.251232,0.43605 -1.087824,0 c -5.498789,0 -9.544851,-3.17932 -12.144307,-9.53873 l -0.214964,-2.168762 0,-2.169525 c 0,-5.055856 2.886329,-8.886955 8.671991,-11.49253 1.589662,-0.430693 2.886329,-0.651776 3.903009,-0.651776 z M 59.233619,49.852534 c 1.876534,2.749395 5.635723,9.257978 11.277566,19.51963 -8.098244,6.938511 -12.144306,14.815671 -12.144306,23.631481 l 0,2.605573 c 0,8.678112 4.046062,16.626412 12.144306,23.852572 -6.364764,11.27756 -10.123953,17.70812 -11.277566,19.29854 -2.025709,-1.00979 -5.713753,-4.41096 -11.056483,-10.19586 -5.211916,-6.78934 -8.463147,-13.00492 -9.759815,-18.64677 5.635723,-4.47676 8.457027,-9.68179 8.457027,-15.610505 0,-5.922593 -2.821304,-11.128389 -8.457027,-15.610499 0.286874,-3.179322 2.964358,-8.671991 8.020215,-16.483362 3.903008,-5.055856 8.098244,-9.173828 12.580354,-12.35927 l 0.215729,0 0,-0.0015 z m 28.836512,-9.537966 4.124092,0 c 3.179322,0 6.646284,0.436048 10.405477,1.302788 0,5.785662 3.03627,10.841518 9.10804,15.174454 3.17932,1.589661 6.14368,2.384491 8.89307,2.384491 l 0.86674,0 c 2.30723,0 5.05586,-0.645656 8.23594,-1.948444 6.79546,8.098245 10.99069,15.616622 12.58036,22.549778 1.1536,4.339056 1.73347,7.739461 1.73347,10.189743 l -22.33404,0 c -0.43605,-4.625929 -2.46252,-9.610641 -6.07253,-14.959491 -7.08845,-8.378998 -15.688539,-12.574999 -25.801019,-12.574999 -3.616135,0 -7.518378,0.794831 -11.714379,2.384492 l 0,-0.214964 L 67.03887,45.298515 c 7.518377,-3.323141 14.528798,-4.983947 21.031261,-4.983947 z m 33.612379,58.330918 22.33404,0 0,0.214963 c 0,6.359411 -2.38449,14.020841 -7.15423,22.985831 -2.0257,3.32314 -4.48211,6.50246 -7.37532,9.53873 l -0.21496,0 c -2.60558,-1.29667 -5.27694,-1.94844 -8.02634,-1.94844 l -0.43069,0 c -5.64184,0 -10.41082,2.38449 -14.31383,7.15424 -2.60558,3.61613 -3.90301,7.08233 -3.90301,10.40547 -4.482114,1.01591 -8.678117,1.51775 -12.575005,1.51775 -7.662197,0 -15.323629,-1.73348 -22.985825,-5.19968 l 0,-0.22108 11.056482,-19.29855 c 3.759189,1.58966 7.877161,2.3845 12.35927,2.3845 9.394915,0 17.565068,-3.97416 24.503588,-11.92323 3.46619,-4.48211 5.70763,-9.46682 6.72354,-14.959493 l 0,-0.651011 0.002,0 z M 121.2457,27.739569 c 5.92872,0 10.04669,3.179322 12.35927,9.538731 l 0.43605,3.036268 0,1.081704 c 0,5.785662 -3.32927,9.837079 -9.97478,12.144306 l -1.94844,0.214964 -2.16953,0 c -4.62593,0 -8.31321,-2.671365 -11.0626,-8.020215 -0.57987,-1.73348 -0.86674,-3.251231 -0.86674,-4.554019 l 0,-0.86674 c 0,-5.635723 3.17932,-9.681785 9.54485,-12.144306 l 3.68192,-0.430693 z m -0.86597,107.116991 1.30278,0 c 5.49267,0 9.46682,3.10818 11.92322,9.32377 l 0.43604,3.03627 0,1.0817 c 0,5.49879 -2.96435,9.47294 -8.89306,11.92934 -1.30279,0.4307 -2.74327,0.64566 -4.33294,0.64566 -4.91891,0 -8.75001,-2.4564 -11.49252,-7.3692 -0.87286,-1.58967 -1.30279,-3.32315 -1.30279,-5.2058 l 0,-0.86674 c 0,-5.49267 3.03627,-9.53873 9.10804,-12.14431 l 3.25123,-0.43069 z"
                 id="path5"
                 style="fill:#dd4814;fill-opacity:1;stroke:none"
                 inkscape:connector-curvature="0" />
            </g>
          </g>
          <path
             d="M 70.84375,43.40625 C 59.058285,43.40625 49.5,52.964535 49.5,64.75 c 0,11.785465 9.558285,21.34375 21.34375,21.34375 11.785465,0 21.34375,-9.558285 21.34375,-21.34375 0,-11.785465 -9.558285,-21.34375 -21.34375,-21.34375 z m 0,12.25 c 5.021026,0 9.09375,4.072724 9.09375,9.09375 0,5.021026 -4.072724,9.09375 -9.09375,9.09375 -5.021026,0 -9.09375,-4.072724 -9.09375,-9.09375 0,-5.021026 4.072724,-9.09375 9.09375,-9.09375 z"
             id="path4263"
             style="fill:#dd4814;fill-opacity:1;stroke:none"
             inkscape:connector-curvature="0" />
        </g>
      </g>
    </g>
  </g>
</svg>
