<?xml version="1.0" encoding="UTF-8" standalone="no"?>
<!-- Created with Inkscape (http://www.inkscape.org/) -->

<svg
   xmlns:dc="http://purl.org/dc/elements/1.1/"
   xmlns:cc="http://creativecommons.org/ns#"
   xmlns:rdf="http://www.w3.org/1999/02/22-rdf-syntax-ns#"
   xmlns:svg="http://www.w3.org/2000/svg"
   xmlns="http://www.w3.org/2000/svg"
   xmlns:xlink="http://www.w3.org/1999/xlink"
   xmlns:sodipodi="http://sodipodi.sourceforge.net/DTD/sodipodi-0.dtd"
   xmlns:inkscape="http://www.inkscape.org/namespaces/inkscape"
   width="48px"
   height="48px"
   id="svg3304"
   sodipodi:version="0.32"
   inkscape:version="0.48.3.1 r9886"
   sodipodi:docname="updates-notifier.svg"
   inkscape:output_extension="org.inkscape.output.svg.inkscape"
   version="1.1">
  <defs
     id="defs3306">
    <radialGradient
       r="8.0625"
       fy="19.03125"
       fx="11.25"
       cy="19.03125"
       cx="11.25"
       gradientTransform="matrix(1,0,0,0.282946,0,13.64644)"
       gradientUnits="userSpaceOnUse"
       id="radialGradient4354"
       xlink:href="#linearGradient5105"
       inkscape:collect="always" />
    <linearGradient
       id="linearGradient5105"
       inkscape:collect="always">
      <stop
         id="stop5107"
         offset="0"
         style="stop-color:black;stop-opacity:1;" />
      <stop
         id="stop5109"
         offset="1"
         style="stop-color:black;stop-opacity:0;" />
    </linearGradient>
  </defs>
  <sodipodi:namedview
     id="base"
     pagecolor="#ffffff"
     bordercolor="#666666"
     borderopacity="1.0"
     inkscape:pageopacity="0.0"
     inkscape:pageshadow="2"
     inkscape:zoom="4.9497475"
     inkscape:cx="-10.963328"
     inkscape:cy="41.868702"
     inkscape:current-layer="layer1"
     showgrid="true"
     inkscape:grid-bbox="true"
     inkscape:document-units="px"
     inkscape:window-width="1366"
     inkscape:window-height="717"
     inkscape:window-x="0"
     inkscape:window-y="0"
     inkscape:window-maximized="1" />
  <metadata
     id="metadata3309">
    <rdf:RDF>
      <cc:Work
         rdf:about="">
        <dc:format>image/svg+xml</dc:format>
        <dc:type
           rdf:resource="http://purl.org/dc/dcmitype/StillImage" />
      </cc:Work>
    </rdf:RDF>
  </metadata>
  <g
     id="layer1"
     inkscape:label="Layer 1"
     inkscape:groupmode="layer">
    <path
       sodipodi:nodetypes="cssscccccccsssss"
       inkscape:connector-curvature="0"
       id="path3810"
       d="M 19.281051,44.619 C 9.7788504,42.444835 2.6814544,33.842838 2.6814544,23.567463 2.6814544,11.652237 12.232163,1.9819068 24,1.9819078 c 11.767837,0 21.318548,9.6703282 21.318546,21.5855552 0,10.244455 -7.057154,18.817259 -16.516322,21.023431 l 0,-6.211469 5.396,3.434519 -10.170465,-11.950694 -10.326998,12.354755 5.58029,-3.83858 z M 24,28.064453 c 2.451633,0 4.441364,-2.01465 4.441364,-4.49699 0,-2.48234 -1.989731,-4.496991 -4.441364,-4.496991 -2.451633,0 -4.441364,2.014651 -4.441364,4.496991 0,2.48234 1.989731,4.49699 4.441364,4.49699 z"
       style="fill:#c90016;fill-opacity:1;fill-rule:evenodd;stroke:#ffffff;stroke-width:4;stroke-linecap:butt;stroke-linejoin:miter;stroke-miterlimit:4;stroke-opacity:1;stroke-dasharray:none" />
    <path
       style="fill:#c90016;fill-opacity:1;fill-rule:evenodd;stroke:#ffffff;stroke-width:4;stroke-linecap:butt;stroke-linejoin:miter;stroke-miterlimit:4;stroke-opacity:1;stroke-dasharray:none"
       d="M 19.281051,2.6814538 C 9.7788504,4.8556192 2.6814544,13.457616 2.6814544,23.732991 c 0,11.915226 9.5507086,21.585556 21.3185456,21.585555 11.767837,0 21.318548,-9.670328 21.318546,-21.585555 0,-10.244455 -7.057154,-18.8172587 -16.516322,-21.023431 l 0,6.2114686 5.396,-3.4345187 L 24.027759,17.437204 13.700761,5.0824489 19.281051,8.9210286 z M 24,19.236001 c 2.451633,0 4.441364,2.01465 4.441364,4.49699 0,2.48234 -1.989731,4.496991 -4.441364,4.496991 -2.451633,0 -4.441364,-2.014651 -4.441364,-4.496991 0,-2.48234 1.989731,-4.49699 4.441364,-4.49699 z"
       id="path3312"
       inkscape:connector-curvature="0"
       sodipodi:nodetypes="cssscccccccsssss" />
    <g
       id="g2174"
       inkscape:label="Layer 1"
       transform="matrix(0.6275801,0,0,0.5000002,-22.239437,3.8928549)"
       style="fill:#ffffff" />
  </g>
</svg>
