<?xml version="1.0" encoding="UTF-8" standalone="no"?>
<svg
   xmlns:dc="http://purl.org/dc/elements/1.1/"
   xmlns:cc="http://creativecommons.org/ns#"
   xmlns:rdf="http://www.w3.org/1999/02/22-rdf-syntax-ns#"
   xmlns:svg="http://www.w3.org/2000/svg"
   xmlns="http://www.w3.org/2000/svg"
   xmlns:sodipodi="http://sodipodi.sourceforge.net/DTD/sodipodi-0.dtd"
   xmlns:inkscape="http://www.inkscape.org/namespaces/inkscape"
   version="1.1"
   width="48"
   height="48"
   id="steam"
   inkscape:version="0.48.3.1 r9886"
   sodipodi:docname="steam.svg">
  <sodipodi:namedview
     pagecolor="#ffffff"
     bordercolor="#666666"
     borderopacity="1"
     objecttolerance="10"
     gridtolerance="10"
     guidetolerance="10"
     inkscape:pageopacity="0"
     inkscape:pageshadow="2"
     inkscape:window-width="1680"
     inkscape:window-height="999"
     id="namedview29"
     showgrid="false"
     inkscape:zoom="7.375"
     inkscape:cx="26.154034"
     inkscape:cy="34.534302"
     inkscape:window-x="0"
     inkscape:window-y="0"
     inkscape:window-maximized="1"
     inkscape:current-layer="steam" />
  <metadata
     id="metadata">
    <rdf:RDF>
      <cc:Work
         rdf:about="">
        <dc:title></dc:title>
        <dc:format>image/svg+xml</dc:format>
        <dc:type
           rdf:resource="http://purl.org/dc/dcmitype/StillImage" />
      </cc:Work>
    </rdf:RDF>
  </metadata>
  <defs
     id="defs">
    <linearGradient
       id="logoShadingGrad">
      <stop
         id="logoShadingGrad1"
         style="stop-color:#bfbfbf;stop-opacity:1"
         offset="0" />
      <stop
         id="logoShadingGrad2"
         style="stop-color:#dfdfdf;stop-opacity:1"
         offset="1" />
    </linearGradient>
    <linearGradient
       x1="2"
       y1="-254"
       x2="254"
       y2="-254"
       id="bgGlowOverlayGrad"
       gradientUnits="userSpaceOnUse"
       gradientTransform="translate(52.067797,250.57627)">
      <stop
         id="bgGlowOverlayGrad1"
         style="stop-color:#3f3f3f;stop-opacity:1"
         offset="0" />
      <stop
         id="bgGlowOverlayGrad2"
         style="stop-color:#000000;stop-opacity:0"
         offset="1" />
    </linearGradient>
    <linearGradient
       id="bgGrad">
      <stop
         id="bgGrad1"
         style="stop-color:#9f9f9f;stop-opacity:1"
         offset="0" />
      <stop
         id="bgGrad2"
         style="stop-color:#3f3f3f;stop-opacity:1"
         offset="0.12" />
      <stop
         id="bgGrad3"
         style="stop-color:#0f0f0f;stop-opacity:1"
         offset="1" />
    </linearGradient>
    <linearGradient
       x1="0"
       y1="52.558804"
       x2="202.0594"
       y2="52.558804"
       id="logoGrad"
       gradientUnits="userSpaceOnUse"
       gradientTransform="matrix(0.30229375,-1.1281757,0.82701013,0.2215967,-42.515379,218.34075)">
      <stop
         id="logoGrad1"
         style="stop-color:#bfbfbf;stop-opacity:1"
         offset="0" />
      <stop
         id="logoGrad2"
         style="stop-color:#8f8f8f;stop-opacity:1"
         offset="0.30000001" />
      <stop
         id="logoGrad3"
         style="stop-color:#dfdfdf;stop-opacity:1"
         offset="1" />
    </linearGradient>
    <pattern
       patternUnits="userSpaceOnUse"
       width="10"
       height="10"
       id="stripesPattern"
       patternTransform="translate(-3,0)">
      <path
         id="stripesPatternTL"
         d="M 0,0 2.5,0 0,2.5 z"
         style="fill:#5f5f5f;fill-opacity:1;stroke:none" />
      <path
         id="stripesPatternMid"
         d="M 0,7.5 7.5,0 10,0 10,2.5 2.5,10 0,10 z"
         style="fill:#5f5f5f;fill-opacity:1;stroke:none" />
      <path
         id="stripesPatternBR"
         d="M 7.5,10 10,7.5 10,10 z"
         style="fill:#5f5f5f;fill-opacity:1;stroke:none" />
    </pattern>
  </defs>
  <rect
     style="fill:#000000;fill-opacity:1;stroke:#ffffff;stroke-opacity:1;stroke-width:8;stroke-miterlimit:4;stroke-dasharray:none;stroke-linejoin:round;stroke-linecap:round"
     id="rect3774"
     transform="matrix(0,1,-1,0,0,0)"
     y="-44"
     x="4"
     ry="6.25"
     rx="6.25"
     height="40"
     width="40" />
  <rect
     width="40"
     height="40"
     rx="6.25"
     ry="6.25"
     x="4"
     y="-44"
     transform="matrix(0,1,-1,0,0,0)"
     id="bg"
     style="fill:#000000;fill-opacity:1;stroke:none" />
  <path
     d="m 32.90625,10.79688 c -4.401019,0 -7.96875,3.56773 -7.96875,7.96875 l -5.46875,7.5 c -1.17845,0 -2.274474,0.35157 -3.188476,0.95703 L 4.0000006,21.89063 4,29.07813 l 9.75586,3.84276 c 0.421993,2.77738 2.817667,4.90723 5.71289,4.90723 3.192897,1e-5 5.78125,-2.58835 5.78125,-5.78124 l 7.65625,-5.3125 c 4.401019,0 7.96875,-3.56774 7.96875,-7.96875 0,-4.40102 -3.567731,-7.96875 -7.96875,-7.96875 z m 0,2.8125 c 2.847719,0 5.15625,2.30853 5.15625,5.15625 0,2.84771 -2.308531,5.15624 -5.15625,5.15624 -2.847719,1e-5 -5.15625,-2.30852 -5.15625,-5.15624 0,-2.84772 2.308531,-5.15625 5.15625,-5.15625 z m 0,1.09375 c -2.243656,0 -4.21875,1.81884 -4.21875,4.0625 0,2.24365 1.975094,4.21875 4.21875,4.21875 2.243656,-1e-5 4.0625,-1.9751 4.0625,-4.21876 0,-2.24365 -1.818844,-4.06249 -4.0625,-4.06249 z M 19.625,27.51563 c 2.416245,0 4.375,1.95875 4.375,4.37499 0,2.41626 -1.958755,4.375 -4.375,4.375 -1.788611,0 -3.325619,-1.0746 -4.003907,-2.61231 l 1.621094,0.63966 c 0.585497,0.54333 1.364814,0.87891 2.226563,0.8789 1.812184,1e-5 3.28125,-1.46906 3.28125,-3.28124 0,-1.81219 -1.469066,-3.28125 -3.281248,-3.28125 L 17.833008,27.89649 C 18.380036,27.6505 18.986317,27.51562 19.625,27.51563 z"
     id="logoShading"
     style="fill:#ffffff;fill-opacity:1;stroke:none"
     inkscape:connector-curvature="0" />
</svg>
