<?xml version="1.0" encoding="UTF-8" standalone="no"?>
<!-- Created with Inkscape (http://www.inkscape.org/) -->

<svg
   xmlns:dc="http://purl.org/dc/elements/1.1/"
   xmlns:cc="http://creativecommons.org/ns#"
   xmlns:rdf="http://www.w3.org/1999/02/22-rdf-syntax-ns#"
   xmlns:svg="http://www.w3.org/2000/svg"
   xmlns="http://www.w3.org/2000/svg"
   version="1.1"
   width="48"
   height="48"
   id="svg4017">
  <defs
     id="defs4019" />
  <metadata
     id="metadata4022">
    <rdf:RDF>
      <cc:Work
         rdf:about="">
        <dc:format>image/svg+xml</dc:format>
        <dc:type
           rdf:resource="http://purl.org/dc/dcmitype/StillImage" />
        <dc:title></dc:title>
      </cc:Work>
    </rdf:RDF>
  </metadata>
  <g
     transform="translate(0,-1004.3622)"
     id="layer1">
    <g
       id="g4660"
       style="stroke:#ffffff;stroke-width:8;stroke-linecap:round;stroke-linejoin:round;stroke-miterlimit:4;stroke-opacity:1;stroke-dasharray:none">
      <g
         transform="translate(0,4)"
         id="g4662"
         style="stroke:#ffffff;stroke-width:8;stroke-linecap:round;stroke-linejoin:round;stroke-miterlimit:4;stroke-opacity:1;stroke-dasharray:none">
        <path
           d="m 4.1201145,1022.5606 c 0.02862,0.4958 4.841e-4,-1.4486 4.841e-4,1.8335 0,1.5791 1.0767588,2.378 2.579349,2.378 15.3336874,0 15.9614704,0.01 32.8506754,0.01 4.475685,-5.6906 0.03449,-2e-4 4.449376,-5.6895 -38.3634924,0 -1.41046,0.01 -39.8816937,0.01 6.051e-4,0.4877 0.00121,0.9754 0.00182,1.463 z"
           id="path4664"
           style="fill:#000000;fill-opacity:1;stroke:#ffffff;stroke-width:8;stroke-linecap:round;stroke-linejoin:round;stroke-miterlimit:4;stroke-opacity:1;stroke-dasharray:none" />
        <path
           d="M 8.5999183,1030.4922 C 7.0982962,1032.055 5.4420035,1034.126 4,1035.744 c 39.97297,0 -0.02384,0.086 39.974223,0.086 0,-0.9959 0,-1.4117 0,-2.4076 0,-1.9986 -0.731337,-2.9298 -2.929736,-2.9298 -12.630678,0 -13.640146,0 -32.4445687,0 z"
           id="path4666"
           style="fill:#000000;fill-opacity:1;stroke:#ffffff;stroke-width:8;stroke-linecap:round;stroke-linejoin:round;stroke-miterlimit:4;stroke-opacity:1;stroke-dasharray:none" />
        <path
           d="m 26.830948,1039.0946 c -1.819495,1.7309 -3.603901,3.498 -5.395338,5.2576 6.539316,0 13.078626,0.01 19.617942,0.01 1.830715,0 2.920671,-0.7614 2.920671,-2.9479 0,-1.0147 -0.0067,-1.3114 -0.0067,-2.326 -17.14152,0 -0.02947,0.011 -17.136588,0.011 z"
           id="path4668"
           style="fill:#000000;fill-opacity:1;stroke:#ffffff;stroke-width:8;stroke-linecap:round;stroke-linejoin:round;stroke-miterlimit:4;stroke-opacity:1;stroke-dasharray:none" />
        <path
           d="m 4.1182993,1015.9016 c 0,0.9899 0,1.3234 0,2.3132 17.1347697,0 -0.00629,-0.024 17.1904007,-0.024 1.798105,-1.7614 3.587322,-3.5321 5.406224,-5.272 -6.536296,0 -13.072587,0 -19.6088767,-0.01 -1.9024213,0 -2.987748,0.941 -2.987748,2.9878 z"
           id="path4670"
           style="fill:#000000;fill-opacity:1;stroke:#ffffff;stroke-width:8;stroke-linecap:round;stroke-linejoin:round;stroke-miterlimit:4;stroke-opacity:1;stroke-dasharray:none" />
        <rect
           width="5.3329077"
           height="2.6254277"
           rx="2.6356871"
           ry="0"
           x="4.1186056"
           y="1016.4782"
           id="rect4672"
           style="fill:#000000;fill-opacity:1;stroke:#ffffff;stroke-width:8;stroke-linecap:round;stroke-linejoin:round;stroke-miterlimit:4;stroke-opacity:1;stroke-dasharray:none" />
        <rect
           width="5.3329077"
           height="2.6254277"
           rx="2.6356871"
           ry="0"
           x="4.1186056"
           y="1020.1769"
           id="rect4674"
           style="fill:#000000;fill-opacity:1;stroke:#ffffff;stroke-width:8;stroke-linecap:round;stroke-linejoin:round;stroke-miterlimit:4;stroke-opacity:1;stroke-dasharray:none" />
        <rect
           width="5.3329077"
           height="2.6254277"
           rx="2.6356871"
           ry="0"
           x="21.514242"
           y="1025.536"
           id="rect4676"
           style="fill:#000000;fill-opacity:1;stroke:#ffffff;stroke-width:8;stroke-linecap:round;stroke-linejoin:round;stroke-miterlimit:4;stroke-opacity:1;stroke-dasharray:none" />
        <rect
           width="5.3329077"
           height="2.6254277"
           rx="2.6356871"
           ry="0"
           x="21.514057"
           y="1029.1858"
           id="rect4678"
           style="fill:#000000;fill-opacity:1;stroke:#ffffff;stroke-width:8;stroke-linecap:round;stroke-linejoin:round;stroke-miterlimit:4;stroke-opacity:1;stroke-dasharray:none" />
        <rect
           width="5.3329077"
           height="2.6254277"
           rx="2.6356871"
           ry="0"
           x="38.639248"
           y="1034.0957"
           id="rect4680"
           style="fill:#000000;fill-opacity:1;stroke:#ffffff;stroke-width:8;stroke-linecap:round;stroke-linejoin:round;stroke-miterlimit:4;stroke-opacity:1;stroke-dasharray:none" />
        <rect
           width="5.3329077"
           height="2.6254277"
           rx="2.6356871"
           ry="0"
           x="38.637383"
           y="1038.0629"
           id="rect4682"
           style="fill:#000000;fill-opacity:1;stroke:#ffffff;stroke-width:8;stroke-linecap:round;stroke-linejoin:round;stroke-miterlimit:4;stroke-opacity:1;stroke-dasharray:none" />
      </g>
      <path
         d="m 32.704814,1010.0579 c 0,0.5687 0,1.1374 0,1.706 2.624594,0 5.249184,0 7.873773,0 0,0.6707 0,1.3415 0,2.0122 -1.967534,0 -3.935063,0 -5.902597,0 -1.527639,0 -1.971176,0.7344 -1.971176,1.9657 0,2.0979 0,4.2421 0,6.3399 0,0.5007 0.0045,0.01 0.0045,0.5305 9.763049,0 1.259855,0 11.019034,0 0,-0.9569 0.01544,-2.4353 0.01544,-3.3922 -7.660675,0 -0.09233,0.01 -7.708799,0.01 0,-1.989 -0.0054,-0.072 -0.0054,-2.0313 1.77342,0 3.54684,0 5.320261,0 1.591011,0 2.635526,-1.2832 2.635526,-2.395 0.002,-1.603 0.0035,-2.867 0.0055,-4.47 0,-1.1292 -0.442543,-1.9711 -1.965708,-1.9711 -3.106679,0 -6.213352,0 -9.320026,0 0,0.5687 0,1.1372 0,1.7059 z"
         id="path4684"
         style="fill:#000000;fill-opacity:1;stroke:#ffffff;stroke-width:8;stroke-linecap:round;stroke-linejoin:round;stroke-miterlimit:4;stroke-opacity:1;stroke-dasharray:none" />
    </g>
    <g
       id="g4646">
      <g
         transform="translate(0,4)"
         id="g4627">
        <path
           d="m 4.1201145,1022.5606 c 0.02862,0.4958 4.841e-4,-1.4486 4.841e-4,1.8335 0,1.5791 1.0767588,2.378 2.579349,2.378 15.3336874,0 15.9614704,0.01 32.8506754,0.01 4.475685,-5.6906 0.03449,-2e-4 4.449376,-5.6895 -38.3634924,0 -1.41046,0.01 -39.8816937,0.01 6.051e-4,0.4877 0.00121,0.9754 0.00182,1.463 z"
           id="path3913"
           style="fill:#000000;fill-opacity:1;stroke:none" />
        <path
           d="M 8.5999183,1030.4922 C 7.0982962,1032.055 5.4420035,1034.126 4,1035.744 c 39.97297,0 -0.02384,0.086 39.974223,0.086 0,-0.9959 0,-1.4117 0,-2.4076 0,-1.9986 -0.731337,-2.9298 -2.929736,-2.9298 -12.630678,0 -13.640146,0 -32.4445687,0 z"
           id="path3915"
           style="fill:#000000;fill-opacity:1;stroke:none" />
        <path
           d="m 26.830948,1039.0946 c -1.819495,1.7309 -3.603901,3.498 -5.395338,5.2576 6.539316,0 13.078626,0.01 19.617942,0.01 1.830715,0 2.920671,-0.7614 2.920671,-2.9479 0,-1.0147 -0.0067,-1.3114 -0.0067,-2.326 -17.14152,0 -0.02947,0.011 -17.136588,0.011 z"
           id="path3917"
           style="fill:#000000;fill-opacity:1;stroke:none" />
        <path
           d="m 4.1182993,1015.9016 c 0,0.9899 0,1.3234 0,2.3132 17.1347697,0 -0.00629,-0.024 17.1904007,-0.024 1.798105,-1.7614 3.587322,-3.5321 5.406224,-5.272 -6.536296,0 -13.072587,0 -19.6088767,-0.01 -1.9024213,0 -2.987748,0.941 -2.987748,2.9878 z"
           id="path3919"
           style="fill:#000000;fill-opacity:1;stroke:none" />
        <rect
           width="5.3329077"
           height="2.6254277"
           rx="2.6356871"
           ry="0"
           x="4.1186056"
           y="1016.4782"
           id="rect3921"
           style="fill:#000000;fill-opacity:1;stroke:none" />
        <rect
           width="5.3329077"
           height="2.6254277"
           rx="2.6356871"
           ry="0"
           x="4.1186056"
           y="1020.1769"
           id="rect3921-9"
           style="fill:#000000;fill-opacity:1;stroke:none" />
        <rect
           width="5.3329077"
           height="2.6254277"
           rx="2.6356871"
           ry="0"
           x="21.514242"
           y="1025.536"
           id="rect3921-2"
           style="fill:#000000;fill-opacity:1;stroke:none" />
        <rect
           width="5.3329077"
           height="2.6254277"
           rx="2.6356871"
           ry="0"
           x="21.514057"
           y="1029.1858"
           id="rect3921-4"
           style="fill:#000000;fill-opacity:1;stroke:none" />
        <rect
           width="5.3329077"
           height="2.6254277"
           rx="2.6356871"
           ry="0"
           x="38.639248"
           y="1034.0957"
           id="rect3921-8"
           style="fill:#000000;fill-opacity:1;stroke:none" />
        <rect
           width="5.3329077"
           height="2.6254277"
           rx="2.6356871"
           ry="0"
           x="38.637383"
           y="1038.0629"
           id="rect3921-6"
           style="fill:#000000;fill-opacity:1;stroke:none" />
      </g>
      <path
         d="m 32.704814,1010.0579 c 0,0.5687 0,1.1374 0,1.706 2.624594,0 5.249184,0 7.873773,0 0,0.6707 0,1.3415 0,2.0122 -1.967534,0 -3.935063,0 -5.902597,0 -1.527639,0 -1.971176,0.7344 -1.971176,1.9657 0,2.0979 0,4.2421 0,6.3399 0,0.5007 0.0045,0.01 0.0045,0.5305 9.763049,0 1.259855,0 11.019034,0 0,-0.9569 0.01544,-2.4353 0.01544,-3.3922 -7.660675,0 -0.09233,0.01 -7.708799,0.01 0,-1.989 -0.0054,-0.072 -0.0054,-2.0313 1.77342,0 3.54684,0 5.320261,0 1.591011,0 2.635526,-1.2832 2.635526,-2.395 0.002,-1.603 0.0035,-2.867 0.0055,-4.47 0,-1.1292 -0.442543,-1.9711 -1.965708,-1.9711 -3.106679,0 -6.213352,0 -9.320026,0 0,0.5687 0,1.1372 0,1.7059 z"
         id="path3976"
         style="fill:#000000;fill-opacity:1;stroke:none" />
    </g>
  </g>
</svg>
