<?xml version="1.0" encoding="UTF-8" standalone="no"?>
<!-- Created with Inkscape (http://www.inkscape.org/) -->

<svg
   xmlns:dc="http://purl.org/dc/elements/1.1/"
   xmlns:cc="http://creativecommons.org/ns#"
   xmlns:rdf="http://www.w3.org/1999/02/22-rdf-syntax-ns#"
   xmlns:svg="http://www.w3.org/2000/svg"
   xmlns="http://www.w3.org/2000/svg"
   version="1.1"
   width="48"
   height="48"
   id="svg4017">
  <defs
     id="defs4019" />
  <metadata
     id="metadata4022">
    <rdf:RDF>
      <cc:Work
         rdf:about="">
        <dc:format>image/svg+xml</dc:format>
        <dc:type
           rdf:resource="http://purl.org/dc/dcmitype/StillImage" />
        <dc:title></dc:title>
      </cc:Work>
    </rdf:RDF>
  </metadata>
  <g
     transform="translate(0,-1004.3622)"
     id="layer1">
    <g
       id="g4070"
       style="stroke:#ffffff;stroke-width:8;stroke-linecap:round;stroke-linejoin:round;stroke-miterlimit:4;stroke-opacity:1;stroke-dasharray:none">
      <path
         d="m 4.1201145,1022.5606 c 0.02862,0.4958 4.841e-4,-1.4486 4.841e-4,1.8335 0,1.5791 1.0767588,2.378 2.579349,2.378 15.3336874,0 15.9614704,0.01 32.8506754,0.01 4.475685,-5.6906 0.03449,-2e-4 4.449376,-5.6895 -38.3634924,0 -1.41046,0.01 -39.8816937,0.01 6.051e-4,0.4877 0.00121,0.9754 0.00182,1.463 z"
         id="path4050"
         style="fill:#000000;fill-opacity:1;stroke:#ffffff;stroke-width:8;stroke-linecap:round;stroke-linejoin:round;stroke-miterlimit:4;stroke-opacity:1;stroke-dasharray:none" />
      <path
         d="M 8.5999183,1030.4922 C 7.0982962,1032.055 5.4420035,1034.126 4,1035.744 c 39.97297,0 -0.02384,0.086 39.974223,0.086 0,-0.9959 0,-1.4117 0,-2.4076 0,-1.9986 -0.731337,-2.9298 -2.929736,-2.9298 -12.630678,0 -13.640146,0 -32.4445687,0 z"
         id="path4052"
         style="fill:#000000;fill-opacity:1;stroke:#ffffff;stroke-width:8;stroke-linecap:round;stroke-linejoin:round;stroke-miterlimit:4;stroke-opacity:1;stroke-dasharray:none" />
      <path
         d="m 26.830948,1039.0946 c -1.819495,1.7309 -3.603901,3.498 -5.395338,5.2576 6.539316,0 13.078626,0.01 19.617942,0.01 1.830715,0 2.920671,-0.7614 2.920671,-2.9479 0,-1.0147 -0.0067,-1.3114 -0.0067,-2.326 -17.14152,0 -0.02947,0.011 -17.136588,0.011 z"
         id="path4054"
         style="fill:#000000;fill-opacity:1;stroke:#ffffff;stroke-width:8;stroke-linecap:round;stroke-linejoin:round;stroke-miterlimit:4;stroke-opacity:1;stroke-dasharray:none" />
      <path
         d="m 4.1182993,1015.9016 c 0,0.9899 0,1.3234 0,2.3132 17.1347697,0 -0.00629,-0.024 17.1904007,-0.024 1.798105,-1.7614 3.587322,-3.5321 5.406224,-5.272 -6.536296,0 -13.072587,0 -19.6088767,-0.01 -1.9024213,0 -2.987748,0.941 -2.987748,2.9878 z"
         id="path4056"
         style="fill:#000000;fill-opacity:1;stroke:#ffffff;stroke-width:8;stroke-linecap:round;stroke-linejoin:round;stroke-miterlimit:4;stroke-opacity:1;stroke-dasharray:none" />
      <rect
         width="5.3329077"
         height="2.6254277"
         rx="2.6356871"
         ry="0"
         x="4.1186056"
         y="1016.4782"
         id="rect4058"
         style="fill:#000000;fill-opacity:1;stroke:#ffffff;stroke-width:8;stroke-linecap:round;stroke-linejoin:round;stroke-miterlimit:4;stroke-opacity:1;stroke-dasharray:none" />
      <rect
         width="5.3329077"
         height="2.6254277"
         rx="2.6356871"
         ry="0"
         x="4.1186056"
         y="1020.1769"
         id="rect4060"
         style="fill:#000000;fill-opacity:1;stroke:#ffffff;stroke-width:8;stroke-linecap:round;stroke-linejoin:round;stroke-miterlimit:4;stroke-opacity:1;stroke-dasharray:none" />
      <rect
         width="5.3329077"
         height="2.6254277"
         rx="2.6356871"
         ry="0"
         x="21.514242"
         y="1025.536"
         id="rect4062"
         style="fill:#000000;fill-opacity:1;stroke:#ffffff;stroke-width:8;stroke-linecap:round;stroke-linejoin:round;stroke-miterlimit:4;stroke-opacity:1;stroke-dasharray:none" />
      <rect
         width="5.3329077"
         height="2.6254277"
         rx="2.6356871"
         ry="0"
         x="21.514057"
         y="1029.1858"
         id="rect4064"
         style="fill:#000000;fill-opacity:1;stroke:#ffffff;stroke-width:8;stroke-linecap:round;stroke-linejoin:round;stroke-miterlimit:4;stroke-opacity:1;stroke-dasharray:none" />
      <rect
         width="5.3329077"
         height="2.6254277"
         rx="2.6356871"
         ry="0"
         x="38.639248"
         y="1034.0957"
         id="rect4066"
         style="fill:#000000;fill-opacity:1;stroke:#ffffff;stroke-width:8;stroke-linecap:round;stroke-linejoin:round;stroke-miterlimit:4;stroke-opacity:1;stroke-dasharray:none" />
      <rect
         width="5.3329077"
         height="2.6254277"
         rx="2.6356871"
         ry="0"
         x="38.637383"
         y="1038.0629"
         id="rect4068"
         style="fill:#000000;fill-opacity:1;stroke:#ffffff;stroke-width:8;stroke-linecap:round;stroke-linejoin:round;stroke-miterlimit:4;stroke-opacity:1;stroke-dasharray:none" />
    </g>
    <path
       d="m 4.1201145,1022.5606 c 0.02862,0.4958 4.841e-4,-1.4486 4.841e-4,1.8335 0,1.5791 1.0767588,2.378 2.579349,2.378 15.3336874,0 15.9614704,0.01 32.8506754,0.01 4.475685,-5.6906 0.03449,-2e-4 4.449376,-5.6895 -38.3634924,0 -1.41046,0.01 -39.8816937,0.01 6.051e-4,0.4877 0.00121,0.9754 0.00182,1.463 z"
       id="path3913"
       style="fill:#000000;fill-opacity:1;stroke:none" />
    <path
       d="M 8.5999183,1030.4922 C 7.0982962,1032.055 5.4420035,1034.126 4,1035.744 c 39.97297,0 -0.02384,0.086 39.974223,0.086 0,-0.9959 0,-1.4117 0,-2.4076 0,-1.9986 -0.731337,-2.9298 -2.929736,-2.9298 -12.630678,0 -13.640146,0 -32.4445687,0 z"
       id="path3915"
       style="fill:#000000;fill-opacity:1;stroke:none" />
    <path
       d="m 26.830948,1039.0946 c -1.819495,1.7309 -3.603901,3.498 -5.395338,5.2576 6.539316,0 13.078626,0.01 19.617942,0.01 1.830715,0 2.920671,-0.7614 2.920671,-2.9479 0,-1.0147 -0.0067,-1.3114 -0.0067,-2.326 -17.14152,0 -0.02947,0.011 -17.136588,0.011 z"
       id="path3917"
       style="fill:#000000;fill-opacity:1;stroke:none" />
    <path
       d="m 4.1182993,1015.9016 c 0,0.9899 0,1.3234 0,2.3132 17.1347697,0 -0.00629,-0.024 17.1904007,-0.024 1.798105,-1.7614 3.587322,-3.5321 5.406224,-5.272 -6.536296,0 -13.072587,0 -19.6088767,-0.01 -1.9024213,0 -2.987748,0.941 -2.987748,2.9878 z"
       id="path3919"
       style="fill:#000000;fill-opacity:1;stroke:none" />
    <rect
       width="5.3329077"
       height="2.6254277"
       rx="2.6356871"
       ry="0"
       x="4.1186056"
       y="1016.4782"
       id="rect3921"
       style="fill:#000000;fill-opacity:1;stroke:none" />
    <rect
       width="5.3329077"
       height="2.6254277"
       rx="2.6356871"
       ry="0"
       x="4.1186056"
       y="1020.1769"
       id="rect3921-9"
       style="fill:#000000;fill-opacity:1;stroke:none" />
    <rect
       width="5.3329077"
       height="2.6254277"
       rx="2.6356871"
       ry="0"
       x="21.514242"
       y="1025.536"
       id="rect3921-2"
       style="fill:#000000;fill-opacity:1;stroke:none" />
    <rect
       width="5.3329077"
       height="2.6254277"
       rx="2.6356871"
       ry="0"
       x="21.514057"
       y="1029.1858"
       id="rect3921-4"
       style="fill:#000000;fill-opacity:1;stroke:none" />
    <rect
       width="5.3329077"
       height="2.6254277"
       rx="2.6356871"
       ry="0"
       x="38.639248"
       y="1034.0957"
       id="rect3921-8"
       style="fill:#000000;fill-opacity:1;stroke:none" />
    <rect
       width="5.3329077"
       height="2.6254277"
       rx="2.6356871"
       ry="0"
       x="38.637383"
       y="1038.0629"
       id="rect3921-6"
       style="fill:#000000;fill-opacity:1;stroke:none" />
  </g>
</svg>
