<?xml version="1.0" encoding="UTF-8" standalone="no"?>
<!-- Created with Inkscape (http://www.inkscape.org/) -->

<svg
   xmlns:dc="http://purl.org/dc/elements/1.1/"
   xmlns:cc="http://creativecommons.org/ns#"
   xmlns:rdf="http://www.w3.org/1999/02/22-rdf-syntax-ns#"
   xmlns:svg="http://www.w3.org/2000/svg"
   xmlns="http://www.w3.org/2000/svg"
   version="1.1"
   width="48"
   height="48"
   id="svg3304">
  <defs
     id="defs17" />
  <metadata
     id="metadata3309">
    <rdf:RDF>
      <cc:Work
         rdf:about="">
        <dc:format>image/svg+xml</dc:format>
        <dc:type
           rdf:resource="http://purl.org/dc/dcmitype/StillImage" />
        <dc:title></dc:title>
        <dc:creator>
          <cc:Agent>
            <dc:title>Luca Ferretti &lt;elle.uca@libero.it&gt;</dc:title>
          </cc:Agent>
        </dc:creator>
        <cc:license
           rdf:resource="http://creativecommons.org/licenses/GPL/2.0/" />
        <dc:subject>
          <rdf:Bag>
            <rdf:li>monitor</rdf:li>
            <rdf:li>display</rdf:li>
            <rdf:li>video</rdf:li>
            <rdf:li>screen</rdf:li>
            <rdf:li>LCD</rdf:li>
            <rdf:li>CRT</rdf:li>
          </rdf:Bag>
        </dc:subject>
      </cc:Work>
      <cc:License
         rdf:about="http://creativecommons.org/licenses/GPL/2.0/">
        <cc:permits
           rdf:resource="http://web.resource.org/cc/Reproduction" />
        <cc:permits
           rdf:resource="http://web.resource.org/cc/Distribution" />
        <cc:requires
           rdf:resource="http://web.resource.org/cc/Notice" />
        <cc:permits
           rdf:resource="http://web.resource.org/cc/DerivativeWorks" />
        <cc:requires
           rdf:resource="http://web.resource.org/cc/ShareAlike" />
        <cc:requires
           rdf:resource="http://web.resource.org/cc/SourceCode" />
      </cc:License>
    </rdf:RDF>
  </metadata>
  <g
     id="layer1">
    <g
       id="g3008"
       style="stroke:#ffffff;stroke-width:8;stroke-linecap:round;stroke-linejoin:round;stroke-miterlimit:4;stroke-opacity:1;stroke-dasharray:none">
      <path
         d="M 7.3758,39.8123 40.4988,40 c 2.025,0 3.501,-1.4276 3.501,-3.6261 v -25 h -40 v 25 c 0,1.7738 1.5394,3.4384 3.3758,3.4384 z"
         id="path2996"
         style="fill-rule:evenodd;stroke:#ffffff;stroke-width:8;stroke-linecap:round;stroke-linejoin:round;stroke-miterlimit:4;stroke-opacity:1;stroke-dasharray:none" />
      <path
         d="m 7.3758,7.5616 33.123,-0.1877 c 2.025,0 3.501,1.4276 3.501,3.6261 v 25 h -40 V 11 c 0,-1.7738 1.5394,-3.4384 3.3758,-3.4384 z"
         id="path2998"
         style="fill-rule:evenodd;stroke:#ffffff;stroke-width:8;stroke-linecap:round;stroke-linejoin:round;stroke-miterlimit:4;stroke-opacity:1;stroke-dasharray:none" />
      <path
         d="m 33.807,16.495 c 0.39,0.92 0.594,1.939 0.594,3 0,4.246 -3.442,7.687 -7.687,7.687 -1.24,0 -2.4,-0.29 -3.438,-0.812 1.168,2.76 3.91,4.687 7.094,4.687 4.246,0 7.687,-3.441 7.687,-7.687 0,-3.006 -1.734,-5.61 -4.25,-6.875 z"
         id="path3000"
         style="fill:#ffffff;stroke:#ffffff;stroke-width:8;stroke-linecap:round;stroke-linejoin:round;stroke-miterlimit:4;stroke-opacity:1;stroke-dasharray:none" />
      <path
         d="m 18.877,28.9795 a 2.9385,3.0206028 0 0 1 -5.877,0 2.9385,3.0206028 0 1 1 5.877,0 z"
         id="path3002"
         style="fill:#ffffff;fill-rule:evenodd;stroke:#ffffff;stroke-width:8;stroke-linecap:round;stroke-linejoin:round;stroke-miterlimit:4;stroke-opacity:1;stroke-dasharray:none" />
      <path
         d="m 16.877,17.979 a 2.9385,3.0206028 0 0 1 -5.877,0 2.9385,3.0206028 0 1 1 5.877,0 z"
         id="path3004"
         style="fill:#ffffff;fill-rule:evenodd;stroke:#ffffff;stroke-width:8;stroke-linecap:round;stroke-linejoin:round;stroke-miterlimit:4;stroke-opacity:1;stroke-dasharray:none" />
      <path
         d="m 28.877,15.979 a 2.9385,3.0206028 0 0 1 -5.877,0 2.9385,3.0206028 0 1 1 5.877,0 z"
         id="path3006"
         style="fill:#ffffff;fill-rule:evenodd;stroke:#ffffff;stroke-width:8;stroke-linecap:round;stroke-linejoin:round;stroke-miterlimit:4;stroke-opacity:1;stroke-dasharray:none" />
    </g>
    <rect
       width="48"
       height="48"
       x="0"
       y="0"
       id="rect5087"
       style="fill:none" />
    <rect
       width="48"
       height="48"
       x="0"
       y="0"
       id="rect4784"
       style="fill:none" />
    <path
       d="M 7.3758,39.8123 40.4988,40 c 2.025,0 3.501,-1.4276 3.501,-3.6261 v -25 h -40 v 25 c 0,1.7738 1.5394,3.4384 3.3758,3.4384 z"
       id="path2994"
       style="fill-rule:evenodd" />
    <path
       d="m 7.3758,7.5616 33.123,-0.1877 c 2.025,0 3.501,1.4276 3.501,3.6261 v 25 h -40 V 11 c 0,-1.7738 1.5394,-3.4384 3.3758,-3.4384 z"
       id="path2175"
       style="fill-rule:evenodd" />
    <path
       d="m 33.807,16.495 c 0.39,0.92 0.594,1.939 0.594,3 0,4.246 -3.442,7.687 -7.687,7.687 -1.24,0 -2.4,-0.29 -3.438,-0.812 1.168,2.76 3.91,4.687 7.094,4.687 4.246,0 7.687,-3.441 7.687,-7.687 0,-3.006 -1.734,-5.61 -4.25,-6.875 z"
       id="path23408"
       style="fill:#ffffff;stroke:#ffffff;stroke-width:1.88510001;stroke-linejoin:round" />
    <path
       d="m 18.877,28.9795 a 2.9385,3.0206028 0 0 1 -5.877,0 2.9385,3.0206028 0 1 1 5.877,0 z"
       id="path1906"
       style="fill:#ffffff;fill-rule:evenodd" />
    <path
       d="m 16.877,17.979 a 2.9385,3.0206028 0 0 1 -5.877,0 2.9385,3.0206028 0 1 1 5.877,0 z"
       id="path2795"
       style="fill:#ffffff;fill-rule:evenodd" />
    <path
       d="m 28.877,15.979 a 2.9385,3.0206028 0 0 1 -5.877,0 2.9385,3.0206028 0 1 1 5.877,0 z"
       id="path2797"
       style="fill:#ffffff;fill-rule:evenodd" />
  </g>
</svg>
