<?xml version="1.0" encoding="UTF-8" standalone="no"?>
<!-- Generator: Adobe Illustrator 12.0.0, SVG Export Plug-In . SVG Version: 6.00 Build 51448)  -->

<svg
   xmlns:dc="http://purl.org/dc/elements/1.1/"
   xmlns:cc="http://creativecommons.org/ns#"
   xmlns:rdf="http://www.w3.org/1999/02/22-rdf-syntax-ns#"
   xmlns:svg="http://www.w3.org/2000/svg"
   xmlns="http://www.w3.org/2000/svg"
   xmlns:sodipodi="http://sodipodi.sourceforge.net/DTD/sodipodi-0.dtd"
   xmlns:inkscape="http://www.inkscape.org/namespaces/inkscape"
   version="1.1"
   id="Calque_1"
   width="48"
   height="48"
   viewBox="0 0 47.999998 48.000001"
   overflow="visible"
   enable-background="new 0 0 740.155 446.275"
   xml:space="preserve"
   sodipodi:version="0.32"
   inkscape:version="0.48.3.1 r9886"
   sodipodi:docname="suse.svg"
   inkscape:output_extension="org.inkscape.output.svg.inkscape"
   style="overflow:visible"><metadata
   id="metadata10"><rdf:RDF><cc:Work
       rdf:about=""><dc:format>image/svg+xml</dc:format><dc:type
         rdf:resource="http://purl.org/dc/dcmitype/StillImage" /><dc:title>Suse logo</dc:title><dc:date>17/12/2207</dc:date><dc:creator><cc:Agent><dc:title>Grabennouitch</dc:title></cc:Agent></dc:creator><cc:license
         rdf:resource="http://creativecommons.org/licenses/GPL/2.0/" /></cc:Work><cc:License
       rdf:about="http://creativecommons.org/licenses/GPL/2.0/"><cc:permits
         rdf:resource="http://web.resource.org/cc/Reproduction" /><cc:permits
         rdf:resource="http://web.resource.org/cc/Distribution" /><cc:requires
         rdf:resource="http://web.resource.org/cc/Notice" /><cc:permits
         rdf:resource="http://web.resource.org/cc/DerivativeWorks" /><cc:requires
         rdf:resource="http://web.resource.org/cc/ShareAlike" /><cc:requires
         rdf:resource="http://web.resource.org/cc/SourceCode" /></cc:License></rdf:RDF></metadata><defs
   id="defs8" /><sodipodi:namedview
   inkscape:window-height="627"
   inkscape:window-width="872"
   inkscape:pageshadow="2"
   inkscape:pageopacity="0.0"
   guidetolerance="10.0"
   gridtolerance="10.0"
   objecttolerance="10.0"
   borderopacity="1.0"
   bordercolor="#666666"
   pagecolor="#ffffff"
   id="base"
   inkscape:zoom="5.1590157"
   inkscape:cx="26.915427"
   inkscape:cy="12.580262"
   inkscape:window-x="122"
   inkscape:window-y="89"
   inkscape:current-layer="g3"
   showgrid="false"
   inkscape:window-maximized="0" />
<g
   id="g3"
   transform="translate(0,-398.275)">
	<path
   sodipodi:nodetypes="sscccccccccscccscccsccccsscccccscsccccccsscscscscscccccscscscsscscsscssccscccsscsscccsscssscsscccscsssccscs"
   inkscape:connector-curvature="0"
   id="path2983"
   d="m 22.207909,416.06713 1.79225,0 c 2.85715,0 6.02599,0.55413 9.50647,1.6624 l 0,-0.026 0.0259,-0.23383 0,-0.98701 0.0779,-0.0779 c 2.56273,0.41553 4.62331,0.87444 6.18181,1.37659 1.09091,0.36362 1.87006,0.72723 2.33764,1.09091 0.48487,0.36362 1.01304,1.42857 1.58439,3.1948 0.19052,0.67532 0.28574,1.07357 0.28574,1.19482 -1.17753,0.88311 -2.31175,1.32467 -3.4026,1.32467 -1.43718,0 -3.43717,-0.8312 -6.00003,-2.49353 l 0,0.026 c 0.38097,0.91775 0.61473,1.43725 0.70134,1.55843 2.4242,1.17753 4.11249,1.76623 5.06487,1.76623 0.88318,0 1.99138,-0.33766 3.32466,-1.01297 l 0.12986,-0.026 0.026,0.026 0,0.1039 c 0,0.29441 -0.13853,0.69266 -0.41559,1.19481 -0.34634,0.29441 -1.09092,0.66664 -2.23375,1.11687 -1.52386,0.45023 -3.03898,0.67532 -4.54549,0.67532 l -3.37665,-0.28568 -0.20773,0 c -1.17747,0 -1.76623,0.6234 -1.76623,1.87013 0,1.09092 0.53678,2.40691 1.61041,3.94806 l 0,0.1039 c -0.0693,0 -0.57154,-0.21648 -1.50651,-0.64942 -1.24673,-0.55407 -1.88741,-0.88305 -1.92211,-0.98695 -1.09091,-1.26402 -1.86146,-2.10389 -2.31162,-2.51942 -1.09098,-0.86583 -2.24242,-1.29872 -3.45458,-1.29872 -1.47182,0 -2.45029,0.52818 -2.93509,1.58439 -0.17316,0.53678 -0.25978,1.09953 -0.25978,1.68829 0,0.36362 0.0433,0.89172 0.12986,1.58439 l -0.026,0 -1.97396,-0.93503 c -0.39825,-0.19052 -0.59738,-0.30303 -0.59738,-0.33766 -0.1386,-0.64068 -0.30302,-1.18614 -0.4936,-1.63631 -0.29435,-0.72729 -0.83113,-1.50651 -1.61035,-2.33764 -1.29871,-1.2468 -2.76192,-1.87013 -4.38961,-1.87013 l -0.28568,0 c -1.7835804,0 -3.1428804,0.76193 -4.0779104,2.28573 -0.36362,0.5887 -0.54546,1.24673 -0.54546,1.97402 0,1.50645 0.67531,2.73596 2.02595,3.68828 0.74458,0.41566 1.5411404,0.62333 2.3896204,0.62333 1.43718,0 2.36361,-0.58002 2.7792,-1.74014 0.0865,-0.25978 0.12986,-0.52823 0.12986,-0.80517 0,-0.91781 -0.44155,-1.67974 -1.32461,-2.28573 -0.39824,-0.19051 -0.81391,-0.28574 -1.24673,-0.28574 -0.60611,0 -1.03899,0.25111 -1.29871,0.75326 l -0.052,0.33759 c 0,0.4156 0.22508,0.69266 0.67531,0.8312 l 0.10384,0.026 c 0.1039,0 0.35501,-0.052 0.75326,-0.15589 l 0.18184,0 c 0.22508,0 0.42427,0.0866 0.59737,0.25972 0.17317,0.19045 0.25978,0.40693 0.25978,0.64936 0,0.6234 -0.57148,0.99562 -1.71431,1.11687 l -0.18178,0 c -0.7792104,0 -1.4978304,-0.39818 -2.1558604,-1.19481 -0.29442,-0.51944 -0.44156,-1.02165 -0.44156,-1.50652 l 0,-0.0259 c 0,-1.33329 0.7273,-2.29434 2.1818304,-2.88311 0.50215,-0.12118 0.91774,-0.18184 1.24673,-0.18184 1.45453,0 2.69265,0.65803 3.7143,1.97403 0.53678,0.84848 0.80517,1.72292 0.80517,2.62339 l 0,0.12986 c 0,1.29871 -0.56274,2.46743 -1.68829,3.50643 -0.98701,0.74458 -2.12984,1.11694 -3.42856,1.11694 l -0.12986,0 c -2.1817604,0 -4.0086404,-0.88312 -5.4804604,-2.64935 -0.6926,-1.00436 -1.09952,-1.93946 -1.22077,-2.80516 -0.0866,-0.34633 -0.12986,-0.76186 -0.12986,-1.24673 0,-2.80522 1.44586,-5.49781 4.33763,-8.07789 1.05628,-0.84848 1.9653604,-1.48916 2.7272904,-1.92204 1.43718,-0.86583 2.84846,-1.56717 4.23373,-2.10396 2.45896,-0.93509 4.76197,-1.40261 6.90916,-1.40261 z m 15.16877,5.09089 c 0,0.91775 0.47625,1.64505 1.42863,2.18183 0.34633,0.12118 0.64929,0.18184 0.90895,0.18184 l 0.052,0 c 0.98708,0 1.72299,-0.51083 2.20779,-1.53247 0.0866,-0.27707 0.13853,-0.55413 0.15588,-0.8312 0,-0.91775 -0.47613,-1.64504 -1.42851,-2.18183 -0.34633,-0.12125 -0.64936,-0.18184 -0.90907,-0.18184 l -0.052,0 c -0.98695,0 -1.72298,0.51083 -2.20778,1.53247 -0.1039,0.3464 -0.15588,0.6234 -0.15588,0.8312 z m 2.36366,-1.68829 0.0259,0 c 0.67538,0 1.17753,0.32031 1.50651,0.96106 0.1039,0.2078 0.15588,0.44155 0.15588,0.70127 l 0,0.026 c 0,0.7965 -0.42427,1.33335 -1.27275,1.61041 l -0.4156,0.052 c -0.65803,0 -1.16024,-0.32904 -1.50651,-0.98701 -0.1039,-0.25972 -0.15582,-0.49347 -0.15582,-0.70134 0,-0.65796 0.32031,-1.16011 0.96106,-1.50645 0.20786,-0.1039 0.44155,-0.15588 0.70133,-0.15588 z m -0.36361,1.29872 0,0.0779 c 0,0.22509 0.24237,0.37229 0.72723,0.44156 0.46745,-0.0693 0.70134,-0.22508 0.70134,-0.46752 -0.0693,-0.32898 -0.30309,-0.49347 -0.70134,-0.49347 l -0.026,0 c -0.46745,0.0519 -0.70127,0.19912 -0.70127,0.44156 z"
   style="stroke:#ffffff;stroke-opacity:1;stroke-linejoin:round;stroke-linecap:round;stroke-width:8.00000016999999986;stroke-miterlimit:4;stroke-dasharray:none" /><path
   d="m 22.207909,416.06713 1.79225,0 c 2.85715,0 6.02599,0.55413 9.50647,1.6624 l 0,-0.026 0.0259,-0.23383 0,-0.98701 0.0779,-0.0779 c 2.56273,0.41553 4.62331,0.87444 6.18181,1.37659 1.09091,0.36362 1.87006,0.72723 2.33764,1.09091 0.48487,0.36362 1.01304,1.42857 1.58439,3.1948 0.19052,0.67532 0.28574,1.07357 0.28574,1.19482 -1.17753,0.88311 -2.31175,1.32467 -3.4026,1.32467 -1.43718,0 -3.43717,-0.8312 -6.00003,-2.49353 l 0,0.026 c 0.38097,0.91775 0.61473,1.43725 0.70134,1.55843 2.4242,1.17753 4.11249,1.76623 5.06487,1.76623 0.88318,0 1.99138,-0.33766 3.32466,-1.01297 l 0.12986,-0.026 0.026,0.026 0,0.1039 c 0,0.29441 -0.13853,0.69266 -0.41559,1.19481 -0.34634,0.29441 -1.09092,0.66664 -2.23375,1.11687 -1.52386,0.45023 -3.03898,0.67532 -4.54549,0.67532 l -3.37665,-0.28568 -0.20773,0 c -1.17747,0 -1.76623,0.6234 -1.76623,1.87013 0,1.09092 0.53678,2.40691 1.61041,3.94806 l 0,0.1039 c -0.0693,0 -0.57154,-0.21648 -1.50651,-0.64942 -1.24673,-0.55407 -1.88741,-0.88305 -1.92211,-0.98695 -1.09091,-1.26402 -1.86146,-2.10389 -2.31162,-2.51942 -1.09098,-0.86583 -2.24242,-1.29872 -3.45458,-1.29872 -1.47182,0 -2.45029,0.52818 -2.93509,1.58439 -0.17316,0.53678 -0.25978,1.09953 -0.25978,1.68829 0,0.36362 0.0433,0.89172 0.12986,1.58439 l -0.026,0 -1.97396,-0.93503 c -0.39825,-0.19052 -0.59738,-0.30303 -0.59738,-0.33766 -0.1386,-0.64068 -0.30302,-1.18614 -0.4936,-1.63631 -0.29435,-0.72729 -0.83113,-1.50651 -1.61035,-2.33764 -1.29871,-1.2468 -2.76192,-1.87013 -4.38961,-1.87013 l -0.28568,0 c -1.7835804,0 -3.1428804,0.76193 -4.0779104,2.28573 -0.36362,0.5887 -0.54546,1.24673 -0.54546,1.97402 0,1.50645 0.67531,2.73596 2.02595,3.68828 0.74458,0.41566 1.5411404,0.62333 2.3896204,0.62333 1.43718,0 2.36361,-0.58002 2.7792,-1.74014 0.0865,-0.25978 0.12986,-0.52823 0.12986,-0.80517 0,-0.91781 -0.44155,-1.67974 -1.32461,-2.28573 -0.39824,-0.19051 -0.81391,-0.28574 -1.24673,-0.28574 -0.60611,0 -1.03899,0.25111 -1.29871,0.75326 l -0.052,0.33759 c 0,0.4156 0.22508,0.69266 0.67531,0.8312 l 0.10384,0.026 c 0.1039,0 0.35501,-0.052 0.75326,-0.15589 l 0.18184,0 c 0.22508,0 0.42427,0.0866 0.59737,0.25972 0.17317,0.19045 0.25978,0.40693 0.25978,0.64936 0,0.6234 -0.57148,0.99562 -1.71431,1.11687 l -0.18178,0 c -0.7792104,0 -1.4978304,-0.39818 -2.1558604,-1.19481 -0.29442,-0.51944 -0.44156,-1.02165 -0.44156,-1.50652 l 0,-0.0259 c 0,-1.33329 0.7273,-2.29434 2.1818304,-2.88311 0.50215,-0.12118 0.91774,-0.18184 1.24673,-0.18184 1.45453,0 2.69265,0.65803 3.7143,1.97403 0.53678,0.84848 0.80517,1.72292 0.80517,2.62339 l 0,0.12986 c 0,1.29871 -0.56274,2.46743 -1.68829,3.50643 -0.98701,0.74458 -2.12984,1.11694 -3.42856,1.11694 l -0.12986,0 c -2.1817604,0 -4.0086404,-0.88312 -5.4804604,-2.64935 -0.6926,-1.00436 -1.09952,-1.93946 -1.22077,-2.80516 -0.0866,-0.34633 -0.12986,-0.76186 -0.12986,-1.24673 0,-2.80522 1.44586,-5.49781 4.33763,-8.07789 1.05628,-0.84848 1.9653604,-1.48916 2.7272904,-1.92204 1.43718,-0.86583 2.84846,-1.56717 4.23373,-2.10396 2.45896,-0.93509 4.76197,-1.40261 6.90916,-1.40261 z m 15.16877,5.09089 c 0,0.91775 0.47625,1.64505 1.42863,2.18183 0.34633,0.12118 0.64929,0.18184 0.90895,0.18184 l 0.052,0 c 0.98708,0 1.72299,-0.51083 2.20779,-1.53247 0.0866,-0.27707 0.13853,-0.55413 0.15588,-0.8312 0,-0.91775 -0.47613,-1.64504 -1.42851,-2.18183 -0.34633,-0.12125 -0.64936,-0.18184 -0.90907,-0.18184 l -0.052,0 c -0.98695,0 -1.72298,0.51083 -2.20778,1.53247 -0.1039,0.3464 -0.15588,0.6234 -0.15588,0.8312 z m 2.36366,-1.68829 0.0259,0 c 0.67538,0 1.17753,0.32031 1.50651,0.96106 0.1039,0.2078 0.15588,0.44155 0.15588,0.70127 l 0,0.026 c 0,0.7965 -0.42427,1.33335 -1.27275,1.61041 l -0.4156,0.052 c -0.65803,0 -1.16024,-0.32904 -1.50651,-0.98701 -0.1039,-0.25972 -0.15582,-0.49347 -0.15582,-0.70134 0,-0.65796 0.32031,-1.16011 0.96106,-1.50645 0.20786,-0.1039 0.44155,-0.15588 0.70133,-0.15588 z m -0.36361,1.29872 0,0.0779 c 0,0.22509 0.24237,0.37229 0.72723,0.44156 0.46745,-0.0693 0.70134,-0.22508 0.70134,-0.46752 -0.0693,-0.32898 -0.30309,-0.49347 -0.70134,-0.49347 l -0.026,0 c -0.46745,0.0519 -0.70127,0.19912 -0.70127,0.44156 z"
   id="path5"
   inkscape:connector-curvature="0"
   sodipodi:nodetypes="sscccccccccscccscccsccccsscccccscsccccccsscscscscscccccscscscsscscsscssccscccsscsscccsscssscsscccscsssccscs" />
</g>
</svg>