<?xml version="1.0" encoding="UTF-8" standalone="no"?>
<!-- Created with Inkscape (http://www.inkscape.org/) -->

<svg
   xmlns:dc="http://purl.org/dc/elements/1.1/"
   xmlns:cc="http://creativecommons.org/ns#"
   xmlns:rdf="http://www.w3.org/1999/02/22-rdf-syntax-ns#"
   xmlns:svg="http://www.w3.org/2000/svg"
   xmlns="http://www.w3.org/2000/svg"
   xmlns:xlink="http://www.w3.org/1999/xlink"
   xmlns:sodipodi="http://sodipodi.sourceforge.net/DTD/sodipodi-0.dtd"
   xmlns:inkscape="http://www.inkscape.org/namespaces/inkscape"
   version="1.0"
   width="48"
   height="48"
   id="svg3428"
   inkscape:version="0.48.3.1 r9886"
   sodipodi:docname="Team_Fortress_2.svg">
  <metadata
     id="metadata29">
    <rdf:RDF>
      <cc:Work
         rdf:about="">
        <dc:format>image/svg+xml</dc:format>
        <dc:type
           rdf:resource="http://purl.org/dc/dcmitype/StillImage" />
        <dc:title></dc:title>
      </cc:Work>
    </rdf:RDF>
  </metadata>
  <sodipodi:namedview
     pagecolor="#ffffff"
     bordercolor="#666666"
     borderopacity="1"
     objecttolerance="10"
     gridtolerance="10"
     guidetolerance="10"
     inkscape:pageopacity="0"
     inkscape:pageshadow="2"
     inkscape:window-width="1680"
     inkscape:window-height="999"
     id="namedview27"
     showgrid="false"
     inkscape:zoom="9.44"
     inkscape:cx="25.478873"
     inkscape:cy="40.106735"
     inkscape:window-x="0"
     inkscape:window-y="0"
     inkscape:window-maximized="1"
     inkscape:current-layer="layer1" />
  <defs
     id="defs3430">
    <linearGradient
       id="linearGradient4066">
      <stop
         id="stop4068"
         style="stop-color:#ffffff;stop-opacity:0.4375"
         offset="0" />
      <stop
         id="stop4070"
         style="stop-color:#ffffff;stop-opacity:0.71428573"
         offset="1" />
    </linearGradient>
    <linearGradient
       id="linearGradient4004">
      <stop
         id="stop4006"
         style="stop-color:#000000;stop-opacity:1"
         offset="0" />
      <stop
         id="stop4012"
         style="stop-color:#000000;stop-opacity:0.9910714"
         offset="1" />
    </linearGradient>
    <linearGradient
       id="linearGradient3988">
      <stop
         id="stop3990"
         style="stop-color:#ffffff;stop-opacity:0"
         offset="0" />
      <stop
         id="stop3998"
         style="stop-color:#ffffff;stop-opacity:0.08035714"
         offset="0.46566358" />
      <stop
         id="stop3996"
         style="stop-color:#ffffff;stop-opacity:0.21428572"
         offset="0.9861111" />
      <stop
         id="stop3992"
         style="stop-color:#ffffff;stop-opacity:0"
         offset="1" />
    </linearGradient>
    <linearGradient
       id="linearGradient3974">
      <stop
         id="stop3976"
         style="stop-color:#5d1f0e;stop-opacity:1"
         offset="0" />
      <stop
         id="stop3978"
         style="stop-color:#d09737;stop-opacity:1"
         offset="1" />
    </linearGradient>
    <linearGradient
       x1="259.80084"
       y1="359.31183"
       x2="139.09666"
       y2="43.995682"
       id="linearGradient3980"
       xlink:href="#linearGradient3974"
       gradientUnits="userSpaceOnUse"
       gradientTransform="matrix(1.0471468,0.1487928,-0.1487928,1.0471468,21.271543,-39.30774)" />
    <radialGradient
       cx="129.23863"
       cy="56.078693"
       r="168.96875"
       fx="129.23863"
       fy="56.078693"
       id="radialGradient3994"
       xlink:href="#linearGradient3988"
       gradientUnits="userSpaceOnUse"
       gradientTransform="matrix(1.7947973,0.35681,-0.2149765,1.0813575,-155.22965,-91.717689)" />
    <filter
       id="filter4042"
       color-interpolation-filters="sRGB">
      <feGaussianBlur
         id="feGaussianBlur4044"
         stdDeviation="4.7316491"
         inkscape:collect="always" />
    </filter>
    <radialGradient
       cx="200.94237"
       cy="199.88017"
       r="178.73216"
       fx="200.94237"
       fy="199.88017"
       id="radialGradient4072"
       xlink:href="#linearGradient3988"
       gradientUnits="userSpaceOnUse"
       gradientTransform="matrix(0.11189928,0,0,0.11189928,1.5146955,353.63355)" />
  </defs>
  <g
     id="layer1"
     transform="translate(0,-352)">
    <path
       sodipodi:type="arc"
       style="fill:#ffffff;fill-opacity:1;stroke:none;stroke-width:8;stroke-linecap:round;stroke-linejoin:round;stroke-miterlimit:4;stroke-opacity:1;stroke-dasharray:none"
       id="path3795"
       sodipodi:cx="23.411016"
       sodipodi:cy="23.211864"
       sodipodi:rx="6.6737289"
       sodipodi:ry="6.9915257"
       d="m 30.084745,23.211864 a 6.6737289,6.9915257 0 1 1 -13.347457,0 6.6737289,6.9915257 0 1 1 13.347457,0 z"
       transform="translate(0,352)" />
    <path
       inkscape:connector-curvature="0"
       style="fill:#000000;fill-opacity:1;fill-rule:nonzero;stroke:#ffffff;stroke-width:8;stroke-linecap:round;stroke-linejoin:round;stroke-miterlimit:4;stroke-opacity:1;stroke-dasharray:none"
       id="path3774"
       d="m 26.813295,356.20109 c -9.442119,-1.34166 -18.2882159,4.15639 -21.5211789,12.7251 l 14.3575949,2.04012 c 1.404836,-1.21294 3.305826,-1.83516 5.286319,-1.55374 l 1.877265,-13.21148 z m 4.260511,1.09103 -2.040121,14.35759 c 1.212948,1.40484 1.83516,3.30582 1.553745,5.28632 l 13.211478,1.87726 c 1.341664,-9.44211 -4.15639,-18.28821 -12.725102,-21.52117 z M 4.2010917,373.1867 c -1.3416634,9.44212 4.1563884,18.28822 12.7251003,21.52118 l 2.040121,-14.35759 c -1.212948,-1.40484 -1.83516,-3.30583 -1.553745,-5.28632 L 4.2010917,373.1867 z m 24.1491953,7.84698 c -1.404836,1.21295 -3.305824,1.83516 -5.286318,1.55375 l -1.877265,13.21148 c 9.442119,1.34166 18.288216,-4.15639 21.521179,-12.72511 l -14.357596,-2.04012 z" />
    <path
       d="m 26.813295,356.20109 c -9.442119,-1.34166 -18.2882159,4.15639 -21.5211789,12.7251 l 14.3575949,2.04012 c 1.404836,-1.21294 3.305826,-1.83516 5.286319,-1.55374 l 1.877265,-13.21148 z m 4.260511,1.09103 -2.040121,14.35759 c 1.212948,1.40484 1.83516,3.30582 1.553745,5.28632 l 13.211478,1.87726 c 1.341664,-9.44211 -4.15639,-18.28821 -12.725102,-21.52117 z M 4.2010917,373.1867 c -1.3416634,9.44212 4.1563884,18.28822 12.7251003,21.52118 l 2.040121,-14.35759 c -1.212948,-1.40484 -1.83516,-3.30583 -1.553745,-5.28632 L 4.2010917,373.1867 z m 24.1491953,7.84698 c -1.404836,1.21295 -3.305824,1.83516 -5.286318,1.55375 l -1.877265,13.21148 c 9.442119,1.34166 18.288216,-4.15639 21.521179,-12.72511 l -14.357596,-2.04012 z"
       id="path3982"
       style="fill:#000000;fill-opacity:1;fill-rule:nonzero;stroke:none;stroke-width:0;stroke-linecap:butt;stroke-linejoin:round;stroke-miterlimit:4;stroke-opacity:1;stroke-dasharray:none"
       inkscape:connector-curvature="0" />
  </g>
</svg>
