<?xml version="1.0" encoding="UTF-8" standalone="no"?>
<!-- Generator: Adobe Illustrator 13.0.0, SVG Export Plug-In . SVG Version: 6.00 Build 14948)  -->

<svg
   xmlns:dc="http://purl.org/dc/elements/1.1/"
   xmlns:cc="http://creativecommons.org/ns#"
   xmlns:rdf="http://www.w3.org/1999/02/22-rdf-syntax-ns#"
   xmlns:svg="http://www.w3.org/2000/svg"
   xmlns="http://www.w3.org/2000/svg"
   xmlns:sodipodi="http://sodipodi.sourceforge.net/DTD/sodipodi-0.dtd"
   xmlns:inkscape="http://www.inkscape.org/namespaces/inkscape"
   version="1.1"
   id="Layer_1"
   x="0px"
   y="0px"
   width="48"
   height="48"
   viewBox="0 0 48 48"
   enable-background="new 0 0 128 128"
   xml:space="preserve"
   inkscape:version="0.48.3.1 r9886"
   sodipodi:docname="teeworlds.svg"><metadata
   id="metadata46"><rdf:RDF><cc:Work
       rdf:about=""><dc:format>image/svg+xml</dc:format><dc:type
         rdf:resource="http://purl.org/dc/dcmitype/StillImage" /></cc:Work></rdf:RDF></metadata><defs
   id="defs44">
		<radialGradient
   gradientUnits="userSpaceOnUse"
   r="39.3522"
   cy="87.3125"
   cx="95.744102"
   id="SVGID_1_">
			<stop
   id="stop14"
   style="stop-color:#CE8402"
   offset="0.8242" />
			<stop
   id="stop16"
   style="stop-color:#AD6800"
   offset="0.8352" />
		</radialGradient>
		
		
		<radialGradient
   gradientUnits="userSpaceOnUse"
   r="47.364201"
   cy="79.585899"
   cx="52.769001"
   id="SVGID_3_">
			<stop
   id="stop32"
   style="stop-color:#CE8402"
   offset="0.8242" />
			<stop
   id="stop34"
   style="stop-color:#AD6800"
   offset="0.8352" />
		</radialGradient>
		
	
		
		
	</defs><sodipodi:namedview
   pagecolor="#ffffff"
   bordercolor="#666666"
   borderopacity="1"
   objecttolerance="10"
   gridtolerance="10"
   guidetolerance="10"
   inkscape:pageopacity="0"
   inkscape:pageshadow="2"
   inkscape:window-width="1366"
   inkscape:window-height="717"
   id="namedview42"
   showgrid="false"
   inkscape:zoom="7.375"
   inkscape:cx="15.110025"
   inkscape:cy="25.021816"
   inkscape:window-x="0"
   inkscape:window-y="0"
   inkscape:window-maximized="1"
   inkscape:current-layer="g3" />
<g
   id="g3"
   transform="translate(0,-80)">
	
	
	
	<g
   id="g3849"
   style="stroke:#ffffff;stroke-width:10;stroke-miterlimit:4;stroke-opacity:1;stroke-dasharray:none"
   transform="translate(0.02387455,0.3015)"><path
     inkscape:connector-curvature="0"
     style="fill:#ffffff;fill-opacity:1;stroke:#ffffff;stroke-width:10;stroke-linecap:round;stroke-linejoin:round;stroke-miterlimit:4;stroke-opacity:1;stroke-dasharray:none"
     id="path3851"
     d="m 23.435311,119.34648 c 0,2.85159 1.875137,3.35202 7.542523,3.35202 5.667059,0 9.354536,-0.50043 9.354536,-3.35202 0,-2.85256 -3.687477,-5.16468 -9.354536,-5.16468 -5.667386,0 -7.542523,2.31212 -7.542523,5.16468 z" /><g
     id="g3853"
     style="fill:#ffffff;fill-opacity:1;stroke:#ffffff;stroke-width:30.7337513;stroke-miterlimit:4;stroke-opacity:1;stroke-dasharray:none"
     transform="matrix(0.32537519,0,0,0.32537519,2.1831049,83.048277)">
			<radialGradient
   gradientUnits="userSpaceOnUse"
   r="70.535301"
   cy="48.285599"
   cx="83.178703"
   id="radialGradient3855">
				<stop
   id="stop3857"
   style="stop-color:#FFD173"
   offset="0.8242" />
				<stop
   id="stop3859"
   style="stop-color:#FFAA00"
   offset="0.8352" />
			</radialGradient>
			<path
   inkscape:connector-curvature="0"
   style="fill:#ffffff;fill-opacity:1;stroke:#ffffff;stroke-width:30.7337513;stroke-miterlimit:4;stroke-opacity:1;stroke-dasharray:none"
   id="path3861"
   d="m 65.666,118.592 c -30.649,0 -55.582,-24.935 -55.582,-55.584 0,-30.649 24.933,-55.583 55.582,-55.583 30.649,0 55.583,24.933 55.583,55.583 0,30.65 -24.934,55.584 -55.583,55.584 l 0,0 z" />
			<path
   style="fill:#ffffff;fill-opacity:1;stroke:#ffffff;stroke-width:30.7337513;stroke-miterlimit:4;stroke-opacity:1;stroke-dasharray:none"
   inkscape:connector-curvature="0"
   id="path3863"
   d="m 65.666,8.925 c 29.87,0 54.083,24.215 54.083,54.083 0,29.87 -24.213,54.083 -54.083,54.083 -29.868,0 -54.082,-24.214 -54.082,-54.083 0,-29.868 24.214,-54.083 54.082,-54.083 m 0,-3 c -31.475,0 -57.082,25.607 -57.082,57.083 0,31.476 25.607,57.083 57.082,57.083 31.476,0 57.083,-25.607 57.083,-57.083 0,-31.476 -25.607,-57.083 -57.083,-57.083 l 0,0 z" />
		</g><path
     inkscape:connector-curvature="0"
     style="fill:#ffffff;fill-opacity:1;stroke:#ffffff;stroke-width:10;stroke-linecap:round;stroke-linejoin:round;stroke-miterlimit:4;stroke-opacity:1;stroke-dasharray:none"
     id="path3865"
     d="m 24.447553,119.34648 c 0,2.85159 -1.875788,3.35202 -7.542848,3.35202 -5.667059,0 -9.3545361,-0.50043 -9.3545361,-3.35202 0,-2.85256 3.6874771,-5.16468 9.3545361,-5.16468 5.66706,0 7.542848,2.31212 7.542848,5.16468 z" /><ellipse
     cx="82.119003"
     cy="46.963001"
     rx="7.289"
     ry="13.427"
     id="ellipse3867"
     sodipodi:cx="82.119003"
     sodipodi:cy="46.963001"
     sodipodi:rx="7.289"
     sodipodi:ry="13.427"
     transform="matrix(0.32537519,0,0,0.32537519,2.1831049,83.048277)"
     style="fill:#231f20;stroke:#ffffff;stroke-width:30.7337513;stroke-miterlimit:4;stroke-opacity:1;stroke-dasharray:none"
     d="m 89.408003,46.963001 c 0,7.415528 -3.263396,13.427 -7.289,13.427 -4.025603,0 -7.289,-6.011472 -7.289,-13.427 0,-7.415527 3.263397,-13.427 7.289,-13.427 4.025604,0 7.289,6.011473 7.289,13.427 z" /><ellipse
     cx="59.583"
     cy="46.963001"
     rx="7.289"
     ry="13.427"
     id="ellipse3869"
     sodipodi:cx="59.583"
     sodipodi:cy="46.963001"
     sodipodi:rx="7.289"
     sodipodi:ry="13.427"
     transform="matrix(0.32537519,0,0,0.32537519,2.1831049,83.048277)"
     style="fill:#231f20;stroke:#ffffff;stroke-width:30.7337513;stroke-miterlimit:4;stroke-opacity:1;stroke-dasharray:none"
     d="m 66.872,46.963001 c 0,7.415528 -3.263396,13.427 -7.289,13.427 -4.025603,0 -7.289,-6.011472 -7.289,-13.427 0,-7.415527 3.263397,-13.427 7.289,-13.427 4.025604,0 7.289,6.011473 7.289,13.427 z" /></g><g
   id="g3837"
   transform="translate(0.02387455,0.3015)"><path
     d="m 23.435311,119.34648 c 0,2.85159 1.875137,3.35202 7.542523,3.35202 5.667059,0 9.354536,-0.50043 9.354536,-3.35202 0,-2.85256 -3.687477,-5.16468 -9.354536,-5.16468 -5.667386,0 -7.542523,2.31212 -7.542523,5.16468 z"
     id="path18"
     style="fill:#ffffff;fill-opacity:1;stroke:#231f20;stroke-width:2.60300159;stroke-linecap:round;stroke-linejoin:round;stroke-miterlimit:4;stroke-dasharray:none"
     inkscape:connector-curvature="0" /><g
     transform="matrix(0.32537519,0,0,0.32537519,2.1831049,83.048277)"
     style="fill:#ffffff;fill-opacity:1;stroke:#000000;stroke-width:6;stroke-miterlimit:4;stroke-opacity:1;stroke-dasharray:none"
     id="g20">
			<radialGradient
   id="SVGID_2_"
   cx="83.178703"
   cy="48.285599"
   r="70.535301"
   gradientUnits="userSpaceOnUse">
				<stop
   offset="0.8242"
   style="stop-color:#FFD173"
   id="stop23" />
				<stop
   offset="0.8352"
   style="stop-color:#FFAA00"
   id="stop25" />
			</radialGradient>
			<path
   d="m 65.666,118.592 c -30.649,0 -55.582,-24.935 -55.582,-55.584 0,-30.649 24.933,-55.583 55.582,-55.583 30.649,0 55.583,24.933 55.583,55.583 0,30.65 -24.934,55.584 -55.583,55.584 l 0,0 z"
   id="path27"
   style="fill:#ffffff;fill-opacity:1;stroke:#000000;stroke-width:6;stroke-miterlimit:4;stroke-opacity:1;stroke-dasharray:none"
   inkscape:connector-curvature="0" />
			<path
   d="m 65.666,8.925 c 29.87,0 54.083,24.215 54.083,54.083 0,29.87 -24.213,54.083 -54.083,54.083 -29.868,0 -54.082,-24.214 -54.082,-54.083 0,-29.868 24.214,-54.083 54.082,-54.083 m 0,-3 c -31.475,0 -57.082,25.607 -57.082,57.083 0,31.476 25.607,57.083 57.082,57.083 31.476,0 57.083,-25.607 57.083,-57.083 0,-31.476 -25.607,-57.083 -57.083,-57.083 l 0,0 z"
   id="path29"
   inkscape:connector-curvature="0"
   style="fill:#ffffff;fill-opacity:1;stroke:#000000;stroke-width:6;stroke-miterlimit:4;stroke-opacity:1;stroke-dasharray:none" />
		</g><path
     d="m 24.447553,119.34648 c 0,2.85159 -1.875788,3.35202 -7.542848,3.35202 -5.667059,0 -9.3545361,-0.50043 -9.3545361,-3.35202 0,-2.85256 3.6874771,-5.16468 9.3545361,-5.16468 5.66706,0 7.542848,2.31212 7.542848,5.16468 z"
     id="path36"
     style="fill:#ffffff;fill-opacity:1;stroke:#231f20;stroke-width:2.60300159;stroke-linecap:round;stroke-linejoin:round;stroke-miterlimit:4;stroke-dasharray:none"
     inkscape:connector-curvature="0" /><ellipse
     d="m 89.408003,46.963001 c 0,7.415528 -3.263396,13.427 -7.289,13.427 -4.025603,0 -7.289,-6.011472 -7.289,-13.427 0,-7.415527 3.263397,-13.427 7.289,-13.427 4.025604,0 7.289,6.011473 7.289,13.427 z"
     style="fill:#231f20"
     transform="matrix(0.32537519,0,0,0.32537519,2.1831049,83.048277)"
     sodipodi:ry="13.427"
     sodipodi:rx="7.289"
     sodipodi:cy="46.963001"
     sodipodi:cx="82.119003"
     id="ellipse38"
     ry="13.427"
     rx="7.289"
     cy="46.963001"
     cx="82.119003" /><ellipse
     d="m 66.872,46.963001 c 0,7.415528 -3.263396,13.427 -7.289,13.427 -4.025603,0 -7.289,-6.011472 -7.289,-13.427 0,-7.415527 3.263397,-13.427 7.289,-13.427 4.025604,0 7.289,6.011473 7.289,13.427 z"
     style="fill:#231f20"
     transform="matrix(0.32537519,0,0,0.32537519,2.1831049,83.048277)"
     sodipodi:ry="13.427"
     sodipodi:rx="7.289"
     sodipodi:cy="46.963001"
     sodipodi:cx="59.583"
     id="ellipse40"
     ry="13.427"
     rx="7.289"
     cy="46.963001"
     cx="59.583" /></g>
</g>
</svg>