<?xml version="1.0" encoding="UTF-8" standalone="no"?>
<!-- Created with Inkscape (http://www.inkscape.org/) -->

<svg
   xmlns:dc="http://purl.org/dc/elements/1.1/"
   xmlns:cc="http://creativecommons.org/ns#"
   xmlns:rdf="http://www.w3.org/1999/02/22-rdf-syntax-ns#"
   xmlns:svg="http://www.w3.org/2000/svg"
   xmlns="http://www.w3.org/2000/svg"
   xmlns:sodipodi="http://sodipodi.sourceforge.net/DTD/sodipodi-0.dtd"
   xmlns:inkscape="http://www.inkscape.org/namespaces/inkscape"
   version="1.1"
   width="48"
   height="48"
   id="svg2"
   inkscape:version="0.48.3.1 r9886"
   sodipodi:docname="thunderbird edit.svg">
  <sodipodi:namedview
     pagecolor="#ffffff"
     bordercolor="#666666"
     borderopacity="1"
     objecttolerance="10"
     gridtolerance="10"
     guidetolerance="10"
     inkscape:pageopacity="0"
     inkscape:pageshadow="2"
     inkscape:window-width="1366"
     inkscape:window-height="717"
     id="namedview13"
     showgrid="false"
     inkscape:zoom="5.6568543"
     inkscape:cx="81.101622"
     inkscape:cy="8.2606616"
     inkscape:window-x="0"
     inkscape:window-y="0"
     inkscape:window-maximized="1"
     inkscape:current-layer="g3770" />
  <defs
     id="defs4" />
  <metadata
     id="metadata7">
    <rdf:RDF>
      <cc:Work
         rdf:about="">
        <dc:format>image/svg+xml</dc:format>
        <dc:type
           rdf:resource="http://purl.org/dc/dcmitype/StillImage" />
        <dc:title />
      </cc:Work>
    </rdf:RDF>
  </metadata>
  <g
     transform="translate(0,-1004.3622)"
     id="layer1">
    <path
       sodipodi:type="arc"
       style="fill:#ffffff;fill-opacity:1;stroke:none"
       id="path2997"
       sodipodi:cx="12.5625"
       sodipodi:cy="21.3125"
       sodipodi:rx="17.4375"
       sodipodi:ry="15.5625"
       d="M 30,21.3125 C 30,29.907431 22.192965,36.875 12.5625,36.875 2.9320347,36.875 -4.875,29.907431 -4.875,21.3125 -4.875,12.717569 2.9320347,5.75 12.5625,5.75 22.192965,5.75 30,12.717569 30,21.3125 z"
       transform="matrix(0.9787413,0.2050987,-0.16885636,0.80579102,15.740814,1007.1779)" />
    <g
       transform="translate(-142.14285,-17.142857)"
       id="g2996">
      <g
         transform="matrix(0.16268239,0,0,0.16319856,101.9544,929.04818)"
         id="g3774"
         style="stroke:#ffffff;stroke-width:49.09774399;stroke-linecap:round;stroke-linejoin:round;stroke-miterlimit:4;stroke-opacity:1;stroke-dasharray:none">
        <path
           d="m 414.14285,832.07648 c 0,-0.58824 -3.5,-1 -8.5,-1 -4.675,0 -8.5,-0.4077 -8.5,-0.906 0,-0.4983 2.08797,-1.61744 4.63992,-2.48698 4.66506,-1.58954 13.36008,-6.26527 13.36008,-7.18436 0,-0.27116 0.12392,0.34487 6.7151,-5.07765 7.66257,-6.67274 5.11208,-4.16788 7.58007,-6.50772 2.1881,-1.74105 2.84554,-2.57593 2.50501,-2.91646 -0.34052,-0.34052 -6.00801,-1.54112 -8.26279,-2.28384 -26.07356,-8.13989 -25.99938,-8.06489 -40.4127,-12.5875 -25.99747,-8.33376 -1.01124,0.002 -25.92291,-8.3746 -2.28068,-0.76692 5.69046,8.30453 3.82106,9.07686 -6.3903,2.64009 -40.23609,-14.41388 -6.47815,13.8678 2.37661,1.99108 -2.21751,1.38537 -2.86612,1.39576 -0.69088,0.009 -0.55787,0.41644 0.32143,0.98469 1.11548,0.72088 0.4746,1.00046 -2.5,1.09065 -10.17803,0.30859 -16.84405,-2.15877 -25.02622,-9.26318 -6.70812,-5.82452 -7.73004,-6.82747 -6.95662,-6.82747 0.36301,0 -2.0877,-2.99866 -5.44604,-6.66369 -11.17249,-12.1928 -18.19451,-24.35309 -23.61089,-40.88785 -6.82768,-20.84306 -8.08558,-43.33194 -3.44126,-61.52346 2.1439,-8.39755 8.35843,-22.1716 13.25338,-29.37517 4.15441,-6.11377 13.68872,-15.4616 21.22765,-20.81247 7.10962,-5.04616 22.46372,-13.10697 23.32514,-12.24555 0.25958,0.25958 -0.70934,2.17659 -2.15317,4.26003 -1.44382,2.08344 -3.78179,6.70409 -5.19548,10.26812 -1.41369,3.56402 -3.70936,8.63048 -5.10149,11.2588 -2.09852,3.96199 -2.52191,6.09846 -2.4772,12.5 0.03,4.29446 0.80951,10.1622 1.7564,13.22124 1.64961,5.32929 1.72429,5.40688 2.40581,2.5 0.38685,-1.65 0.7566,-6.06964 0.82168,-9.82143 0.0771,-4.44266 1.43723,-6.62512 2.36763,-7.55552 1.22302,-1.57068 -0.1067,-0.46337 3.15786,-2.41551 1.95872,-1.39826 8.54072,-9.77112 15.09897,-16.23162 12.77325,-12.5463 13.55006,-13.51603 10.39913,-12.98165 -1.87291,0.31763 -4.1928,0.81668 -5.1553,1.10901 -2.60908,0.79241 -2.2123,-2.30839 0.80089,-6.25889 2.77241,-3.63482 1.68348,-4.57876 -1.55089,-1.34439 -1.1,1.1 -2,3.125 -2,4.5 0,1.55556 -0.56667,2.5 -1.5,2.5 -0.825,0 -1.5,-0.675 -1.5,-1.5 0,-0.825 -0.3375,-1.44671 -0.75,-1.38158 -2.14171,0.33816 -3.25156,-0.2969 -3.26531,-1.86842 -0.013,-1.48494 -0.15815,-1.52407 -0.95836,-0.25836 -0.70485,1.11488 -1.23044,1.20425 -2.08087,0.35382 -4.24523,-4.24523 14.72823,-22.06206 26.55454,-24.93575 2.77615,-0.67458 2.50068,-0.19795 -3.69187,6.38778 -3.68053,3.91422 -7.21648,8.09699 -7.85766,9.29506 -1.08306,2.02372 -0.98369,2.1326 1.4003,1.53426 1.41135,-0.35423 5.56275,-2.91221 9.22534,-5.68442 3.66259,-2.7722 6.88674,-4.81287 7.16479,-4.53482 0.27806,0.27805 -1.2374,2.49988 -3.36768,4.93739 -2.13027,2.43751 -4.72365,5.94456 -5.76306,7.79344 l -1.88985,3.3616 4.38985,-4.13321 c 5.92651,-5.58004 11.97709,-8.50275 10.59276,-5.11679 -1.51695,3.71035 -1.6396,4.92197 -0.25748,2.54361 2.06882,-3.56006 5.95222,-4.3168 21.55456,-4.20019 13.08889,0.0978 26.98444,2.12908 36.11456,5.27924 7.75834,2.67686 25.54745,11.83926 31.38544,16.16527 11.21912,8.3135 22.74982,22.84469 28.86814,36.38014 6.69647,14.81447 9.63118,37.38837 7.76159,59.70259 -1.31743,15.72411 -4.1009,30.76471 -7.19107,38.85721 -3.51307,9.20002 -6.04546,15.37298 -7.52919,18.35317 -0.77521,1.55707 -1.40947,3.3146 -1.40947,3.90561 0,0.59101 -1.2375,2.66387 -2.75,4.60636 -1.5125,1.94248 -3.21335,4.34281 -3.77966,5.33406 -2.05496,3.59694 -14.7586,15.93032 -18.31926,17.78534 -2.0081,1.04616 -4.77608,2.96523 -6.15108,4.2646 -1.375,1.29936 -5.28914,4.07939 -8.6981,6.17784 -4.84145,2.98024 -7.79634,4.02092 -13.5,4.75456 -12.96285,1.66735 -20.08373,1.84947 -21.68477,0.55459 -1.18593,-0.95914 -1.34339,-0.95159 -0.75007,0.036 0.47258,0.78661 0.17302,1.25 -0.80804,1.25 -0.85746,0 -1.55902,-0.45 -1.55902,-1 z m 19.76453,-35.97763 c 4.33809,-4.65639 16.23547,-32.98428 16.23547,-38.65697 0,-2.49122 -0.0808,-2.46424 -4.64079,1.54961 -4.99684,4.3984 -6.81759,5.11371 -5.94349,2.33499 0.8873,-2.82064 2.58428,-12.34971 2.58428,-14.51149 0,-1.64407 -0.4845,-1.89161 -2.7971,-1.42909 -2.7926,0.55852 -6.18184,-0.60612 -4.55966,-1.56682 0.47122,-0.27907 2.20676,-0.80224 3.85676,-1.1626 1.65,-0.36035 4.125,-1.59167 5.5,-2.73626 l 2.5,-2.08108 -2.75,1.64172 c -1.5125,0.90295 -2.75,1.22117 -2.75,0.70716 0,-1.23749 -2.422,-0.83613 -4.2851,0.71011 -1.07701,0.89384 -0.82917,-0.57795 0.89912,-5.33932 2.94838,-8.12271 3.02044,-13.77513 0.2563,-20.10521 -1.17132,-2.68242 -2.28344,-5.05174 -2.47138,-5.26517 -0.18794,-0.21343 -3.84209,0.99398 -8.12032,2.68313 -51.93552,20.50536 -68.03427,26.51266 -69.52116,25.94209 -0.72923,-0.27983 -4.84788,-5.73089 -9.15256,-12.11346 -6.62992,-9.46415 -8.22887,-12.10563 -11.127,-16.19197 -1.95436,-2.68622 -3.19898,-5.20306 -5.81629,-7.14391 -1.21949,-0.42045 -0.37185,-0.10655 -3.11977,-0.94745 -1.94734,-0.43403 -1.82409,-0.37528 -7.02732,-6.20423 -1.92809,-2.15996 -3.55257,-4.59725 -4.29597,-4.88252 -1.84602,-0.70838 -6.75483,5.34994 -8.30223,10.24637 -0.69525,2.2 -1.56476,4.35641 -1.93224,4.79202 -0.81803,0.9697 0.71689,11.28076 2.05011,13.77189 2.9775,5.5635 -1.65489,5.22406 -7.69555,-0.56391 -5.07241,-4.86022 -3.15959,-5.02276 -4.26653,-2.32691 -0.34499,0.84017 0.38617,5.05411 0.98387,10.11865 1.24884,10.58191 4.41003,24.2916 6.21244,26.94257 1.2451,1.83128 23.85769,10.18402 37.23156,13.75276 3.85,1.02735 10.15,3.07236 14,4.54447 3.85,1.4721 9.025,3.27058 11.5,3.9966 6.66097,1.95396 29.83743,9.81215 36.5,12.37566 4.68674,1.80328 26.10337,8.86918 27.21104,8.97763 0.66608,0.0652 2.04015,-0.77136 3.05349,-1.85906 z m -55.24974,-67.89717 c 25.36492,-9.69567 53.82253,-21.19676 54.87688,-22.17838 1.21682,-1.13288 -4.61219,-10.00988 -9.43246,-14.36471 -4.52193,-4.08529 -13.06573,-8.58835 -21.04322,-11.09096 l -5.58402,-1.75175 -6.91598,3.29179 c -4.44617,2.11624 -9.30256,5.59083 -13.59885,9.72955 -6.351,6.11806 -6.87241,6.4088 -10.5,5.85492 -2.09943,-0.32056 -7.1174,-0.69036 -11.15106,-0.82179 -7.76355,-0.25296 -9.95194,-1.68074 -8.87692,-5.79161 0.40894,-1.5638 0.079,-1.68144 -2.57833,-0.91933 -3.11374,0.89301 -10.71083,5.50127 -10.71083,6.497 0,1.15017 2.61163,5.42066 13.2524,21.67007 6.87346,10.49639 11.58621,16.75 12.62288,16.75 0.90987,0 9.74765,-3.09366 19.63951,-6.8748 z m -49.51479,-32.19502 c 0,-0.58841 1.35,-3.03199 3,-5.43018 3.64089,-5.29185 3.68032,-5.86899 0.5,-7.31805 -1.375,-0.62649 -2.5,-1.59872 -2.5,-2.16051 0,-1.67208 -1.73274,-1.15936 -2.46216,0.72856 -1.34557,3.48267 -2.41655,10.99781 -1.86685,13.09986 0.5672,2.16898 3.32901,3.06523 3.32901,1.08032 z m 0.0153,-8.68018 c 0.008,-0.4125 0.43969,-1.42124 0.95836,-2.24164 0.76748,-1.21395 1.18195,-1.25274 2.22633,-0.20836 1.04437,1.04437 1.00559,1.45885 -0.20836,2.22633 -1.81052,1.14465 -2.99695,1.23381 -2.97633,0.22367 z m -17.80284,-11.60454 c 1.06416,-2.12 1.44488,-3.55172 0.84603,-3.18162 -1.22976,0.76004 -4.10015,7.18543 -3.97955,8.90828 0.0434,0.62034 0.33088,0.45288 0.63881,-0.37212 0.30792,-0.825 1.43054,-3.23454 2.49471,-5.35454 z m 35.86216,3.82821 c 5.96656,-2.10513 7.33963,-3.59152 11.89613,-12.878 2.72382,-5.55135 3.26793,-7.23854 1.73128,-5.36839 -1.91643,2.33234 -2.38293,2.5034 -3.22149,1.18128 -0.76969,-1.21354 -1.02848,-0.85007 -1.20344,1.69023 -0.15812,2.29592 -1.38178,4.34981 -4.21136,7.06872 -2.19366,2.10787 -4.62911,3.83249 -5.4121,3.83249 -1.24612,0 -4.65365,4.00149 -4.65365,5.46482 0,0.75941 0.25317,0.70996 5.07463,-0.99115 z m -29.07463,0.14877 c 0,-0.20765 -0.7875,-0.99515 -1.75,-1.75 -1.58606,-1.24387 -1.62143,-1.2085 -0.37755,0.37756 1.30636,1.66575 2.12755,2.19548 2.12755,1.37244 z m -21.30822,-11.37244 c 0.64964,-2.0625 0.8168,-4.12045 0.37147,-4.57322 -0.44532,-0.45277 -1.1131,0.44723 -1.48395,2 -0.37085,1.55277 -0.90823,3.61072 -1.19417,4.57322 -0.28595,0.9625 -0.14969,1.75 0.30279,1.75 0.45248,0 1.35422,-1.6875 2.00386,-3.75 z m 51.30822,-0.69098 c 0,-1.05548 -1.91911,-1.49891 -2.48992,-0.57533 -0.34546,0.55897 0.0734,1.01631 0.9309,1.01631 0.85746,0 1.55902,-0.19844 1.55902,-0.44098 z m 5.6,-2.15902 c -0.35589,-0.92744 -0.87208,-1.46126 -1.14708,-1.18626 -0.275,0.275 -0.20881,1.25882 0.14708,2.18626 0.35589,0.92744 0.87208,1.46126 1.14708,1.18626 0.275,-0.275 0.20881,-1.25882 -0.14708,-2.18626 z m 82.0758,-6.15 c -2.54181,-2.51553 -2.86385,-2.60079 -3.77696,-1 -0.54902,0.9625 -1.76336,1.78163 -2.69853,1.82028 -3.14123,0.12985 1.9948,1.78299 5.77696,1.85943 l 3.47728,0.0703 z m 5.50489,-9.5 c -2.96814,-2.94023 -3.37613,-3.0832 -4.28046,-1.5 -0.54979,0.9625 -2.21475,1.78655 -3.69992,1.83122 l -2.70031,0.0812 3,1.37368 c 1.65,0.75552 4.79135,1.39397 6.98077,1.41878 l 3.98077,0.0451 -3.28085,-3.25 z m 16.81931,1.43709 c 0,-0.4471 -1.29043,-2.04921 -2.86761,-3.56025 -2.76427,-2.64834 -2.88703,-2.6731 -3.40638,-0.6871 -0.40266,1.53979 -1.38345,2.07948 -3.88239,2.13634 l -3.34362,0.0761 3.5,1.34784 c 3.9275,1.51247 10,1.92971 10,0.68709 z m 10.00001,-6.11451 c 0,-0.51008 -1.20924,-1.87861 -2.6872,-3.04118 -2.34481,-1.84442 -2.79711,-1.91738 -3.5497,-0.57258 -0.47436,0.84765 -2.07762,1.57773 -3.56279,1.6224 l -2.70031,0.0812 3,1.37368 c 3.43695,1.57375 9.5,1.91613 9.5,0.53646 z m -21.53101,-3.02241 c 0.32287,-0.5224 -0.29599,-1.4224 -1.37524,-2 -2.83964,-1.51973 -3.53533,-1.29265 -1.96619,0.64179 0.91611,1.12938 0.95945,1.44389 0.13036,0.94588 -0.68314,-0.41035 -2.03314,-0.28541 -3,0.27763 -1.43031,0.83293 -1.07006,1.02938 1.93306,1.05412 2.03004,0.0167 3.95515,-0.39701 4.27801,-0.91942 z m 9.53101,-7.01499 c 0,-0.53065 -0.85502,-1.4224 -1.90004,-1.98168 -1.42019,-0.76006 -2.03611,-0.66227 -2.43885,0.38725 -0.29635,0.77227 -1.57883,1.60274 -2.84996,1.8455 -1.27113,0.24276 -0.17365,0.50267 2.43885,0.57757 2.6125,0.0749 4.75,-0.29799 4.75,-0.82864 z m 14,-1.99416 c 0,-0.50764 -0.45,-1.2011 -1,-1.54102 -0.55,-0.33992 -1,-0.15518 -1,0.41053 0,0.56571 -1.57701,0.96928 -3.50447,0.89682 -1.92746,-0.0725 -3.74331,0.10709 -4.03522,0.39901 -0.29192,0.29192 1.73509,0.58181 4.50446,0.6442 2.76938,0.0624 5.03523,-0.3019 5.03523,-0.80954 z m -97.55764,-7.94776 c 0.30822,-0.49871 -0.34022,-0.67123 -1.44098,-0.38337 -2.33499,0.61061 -2.63015,1.29011 -0.5604,1.29011 0.79254,0 1.69316,-0.40803 2.00138,-0.90674 z"
           id="path3776"
           style="fill:#d30000;fill-opacity:1;stroke:#ffffff;stroke-width:49.09774399;stroke-linecap:round;stroke-linejoin:round;stroke-miterlimit:4;stroke-opacity:1;stroke-dasharray:none"
           inkscape:connector-curvature="0" />
        <path
           d="m 423.14285,831.68623 c 0,-0.24456 2.3625,-1.87018 5.25,-3.61247 2.8875,-1.7423 4.35,-2.86795 3.25,-2.50145 -10.73264,3.57591 -34.5,6.81739 -34.5,4.70523 0,-0.53816 1.4625,-1.25353 3.25,-1.58971 11.63153,-2.18757 31.60423,-17.62787 37.81577,-29.23425 1.26804,-2.36934 1.24138,-2.78078 -0.24078,-3.7157 -1.54007,-0.97145 -1.51529,-1.34813 0.32608,-4.95751 5.54559,-10.87026 13.947,-34.93916 12.64886,-36.23729 -0.234,-0.234 -2.4042,1.36529 -4.82266,3.55397 -4.59036,4.15422 -6.59684,5.03639 -5.61082,2.46686 0.7826,-2.03943 2.06733,-14.86837 1.54726,-15.45052 -0.22754,-0.2547 -1.76371,-0.37767 -3.41371,-0.27328 l -3,0.18982 3.0468,-1.22672 c 11.21854,-4.5169 19.51701,-15.90983 21.04246,-28.88911 0.54478,-4.63518 0.39143,-5.5306 -0.97117,-5.67095 -4.39874,-0.45308 -4.39773,-0.45221 -3.58006,-3.08334 1.04282,-3.35561 6.4729,-15.92759 7.18852,-16.64322 0.90908,-0.90908 4.77416,11.66849 4.76439,15.50406 -0.0219,8.60677 -7.65284,35.05583 -10.11408,35.05583 -1.17257,0 -0.97206,14.0856 0.21037,15.95526 3.00071,3.00873 2.05759,2.3729 3.03053,3.08166 1.0666,-0.0404 1.62764,-1.03692 2.33496,-1.03692 3.01412,0 11.71376,-8.38679 14.57106,-14.04707 3.09229,-6.12578 5.13681,-14.78824 3.20916,-13.59688 -0.58943,0.36428 -1.72189,0.0121 -2.51659,-0.78257 -1.11988,-1.11988 -1.73348,-1.17819 -2.72779,-0.25919 -1.02433,0.94673 -1.12309,0.78262 -0.48997,-0.81429 2.84157,-7.16733 5.50141,-18.58392 5.50141,-23.6133 0,-5.16037 -0.23949,-5.8867 -1.94098,-5.8867 -3.08944,0 -3.3198,-1.53991 -1.53782,-10.27977 2.2925,-11.24375 2.30963,-11.2894 3.71158,-9.88745 4.06726,4.06726 6.76722,-1.1358 6.76722,-13.04102 0,-4.72702 0.3813,-7.67414 0.94761,-7.32414 1.22677,0.75819 5.88444,16.02792 6.69682,21.95489 0.34508,2.51762 1.07642,4.57749 1.62519,4.57749 0.62961,0 0.8192,-3.70835 0.51382,-10.05026 -0.26617,-5.52764 -0.14488,-9.69014 0.26954,-9.25 1.05154,1.11681 5.94702,16.99225 5.94702,19.28546 0,1.30967 -0.83625,1.97818 -2.75,2.19838 -2.5221,0.2902 -2.73623,0.6479 -2.58379,4.31642 0.60068,14.45562 0.60714,26.29385 0.0153,28.05219 -0.61974,1.84127 -1.25199,1.99041 -6.1517,1.45109 -3.00353,-0.3306 -5.78115,-0.92128 -6.17249,-1.31262 -0.39134,-0.39134 0.4418,-1.94433 1.85141,-3.45109 3.05888,-3.26969 5.29535,-7.55514 6.24534,-11.9671 0.88012,-4.08745 -0.16361,-7.59791 -2.04442,-6.87618 -0.77531,0.29752 -1.40966,0.10506 -1.40966,-0.42767 0,-1.67225 -1.83131,-1.05297 -2.31067,0.78138 -0.34415,1.31691 -0.48604,1.19317 -0.57333,-0.5 -0.0661,-1.28178 -0.76148,-2.25 -1.616,-2.25 -1.1793,0 -1.51274,1.44316 -1.55961,6.75 -0.0328,3.7125 -0.43651,9 -0.89717,11.75 -0.67335,4.01976 -0.52284,5.35459 0.76772,6.80869 2.08081,2.3445 1.70332,7.48799 -1.43671,19.57618 -1.3408,5.16168 -2.2193,9.6034 -1.95221,9.87048 1.40844,1.40845 9.09842,-6.19722 12.11834,-11.98548 1.8234,-3.49489 4.92275,-8.74306 6.88745,-11.6626 1.96472,-2.91954 3.5722,-5.71303 3.5722,-6.20776 0,-0.49473 0.38984,-0.89951 0.8663,-0.89951 0.47647,0 1.10657,4.6125 1.40022,10.25 0.85502,16.4146 -3.56558,35.51354 -12.16102,52.54101 -4.99495,9.89493 -23.21566,31.20899 -26.67958,31.20899 -0.89046,0 -3.67439,1.80921 -6.1865,4.02046 -5.87691,5.17306 -13.10757,9.26606 -21.10074,11.94432 -5.91395,1.98157 -16.13868,3.65731 -16.13868,2.64497 z m 17.34691,-7.63573 c 7.56725,-5.06129 17.07475,-14.48275 16.14048,-15.99442 -0.27683,-0.44793 -3.08725,1.90691 -6.24536,5.23298 -3.15812,3.32606 -8.8501,8.23889 -12.64886,10.9174 -9.10002,6.41644 -6.88527,6.291 2.75374,-0.15596 z m 33.65309,-54.9004 c 4.62005,-3.39721 5.72025,-4.75191 8.04546,-9.90653 2.83536,-6.28553 2.63992,-7.6385 -0.79546,-5.5067 -1.66693,1.03441 -2.2577,1.16164 -1.5,0.32306 1.70335,-1.8852 1.57317,-3.04469 -0.26273,-2.34019 -0.83201,0.31927 -2.1223,0.0746 -2.86733,-0.54372 -2.0248,-1.68043 -3.68371,0.88309 -6.31827,9.76363 -3.86225,13.01882 -3.74976,12.24279 -1.66292,11.47175 1.02369,-0.37823 3.43625,-1.84581 5.36125,-3.2613 z m 13,1.0185 c 0.275,-0.35107 1.73242,-1.42247 3.23871,-2.38088 3.24836,-2.06682 8.73858,-11.21544 8.75191,-14.58368 0.008,-2.034 -0.21266,-2.18817 -1.54704,-1.08073 -1.21247,1.00625 -1.48871,1.01517 -1.25,0.0403 0.16853,-0.68826 -1.26858,-1.79888 -3.19358,-2.46805 -1.925,-0.66916 -3.3875,-1.75722 -3.25,-2.4179 0.1375,-0.66063 -0.2,-1.20118 -0.75,-1.20118 -0.55,0 -1.0447,0.3375 -1.09932,0.75 -0.0546,0.4125 -0.25898,2.55 -0.45411,4.75 -0.19513,2.2 -1.43575,7.72229 -2.75693,12.27176 l -2.40214,8.27176 2.10625,-0.65654 c 1.15844,-0.3611 2.33125,-0.94379 2.60625,-1.29486 z m -148,34.46492 c -19.45066,-7.23585 -40.19186,-30.97736 -48.97289,-56.05704 -2.86655,-8.18718 -7.75543,-32.10501 -6.76485,-33.09559 0.2267,-0.22671 1.27294,1.38439 2.32497,3.58022 2.27734,4.75337 3.75652,5.03721 5.72168,1.09796 1.29807,-2.60204 1.25278,-3.7641 -0.41895,-10.75 -1.0309,-4.30792 -1.87787,-9.08575 -1.88216,-10.61739 l -0.008,-2.78479 3.14767,3.58499 c 2.08533,2.37506 3.8572,3.48368 5.25,3.2848 1.87436,-0.26765 2.16948,-1.16769 2.72158,-8.3002 0.94735,-12.23861 2.73844,-17.70427 9.01174,-27.5 1.58502,-2.475 2.76646,-4.77189 2.62543,-5.1042 -0.14103,-0.33231 1.21898,-1.84566 3.02224,-3.36301 2.74009,-2.30563 3.07217,-3.00761 2.02161,-4.27345 -1.05115,-1.26656 -0.71007,-1.97127 2.08251,-4.30262 1.83675,-1.53339 3.04847,-3.25894 2.69272,-3.83456 -0.35575,-0.57562 1.16922,-2.24839 3.38884,-3.71726 2.21961,-1.46887 4.03566,-2.97051 4.03566,-3.33699 0,-0.36647 -1.6875,-0.55269 -3.75,-0.41382 -2.0625,0.13887 -2.9625,0.0155 -2,-0.27413 0.9625,-0.28963 1.75,-1.15449 1.75,-1.9219 0,-0.8242 0.60883,-1.16166 1.48749,-0.82449 0.81812,0.31394 2.91609,0.0728 4.66216,-0.53589 1.74606,-0.60869 3.30676,-0.9746 3.46822,-0.81314 0.55929,0.55929 -2.51009,8.41846 -4.80687,12.30803 -2.39693,4.05916 -2.79123,9.47672 -1.82566,25.08359 0.40674,6.57428 -0.9094,9.67395 -3.65951,8.61863 -1.34342,-0.51552 -1.33459,-0.21242 0.0731,2.50978 1.77708,3.43649 2.08456,6.19543 0.69046,6.19543 -0.50082,0 -3.46605,-4.05 -6.5894,-9 -3.12335,-4.95 -6.00577,-9 -6.40539,-9 -1.07962,0 -4.78677,9.7313 -6.01872,15.79922 -1.34937,6.64622 -1.379,16.3295 -0.0711,23.22615 0.55264,2.91409 0.80904,5.49411 0.56976,5.73339 -0.61607,0.61608 -4.57457,-7.3613 -4.57457,-9.21892 0,-0.84691 -0.38001,-1.53984 -0.84446,-1.53984 -1.65964,0 -6.39629,4.80144 -5.75703,5.83578 0.35845,0.57998 0.84686,5.12209 1.08535,10.09356 0.75976,15.83705 7.89523,40.07066 11.79863,40.07066 1.0179,0 9.58326,2.53131 19.03412,5.62513 62.57866,20.48567 96.64617,31.70951 99.64062,32.82749 3.78024,1.41135 4.91271,2.99958 2.73475,3.83534 -0.76591,0.2939 -17.54743,-4.84028 -37.29227,-11.40929 -19.74484,-6.56901 -36.65775,-11.81654 -37.58424,-11.66116 -1.4342,0.24051 -1.24844,0.91933 1.25,4.56791 3.45174,5.04073 3.70148,6.59278 0.9187,5.70956 -1.1087,-0.35189 -3.97753,-0.77095 -6.37518,-0.93123 -2.39765,-0.16029 -4.89881,-0.62484 -5.55815,-1.03233 -2.23475,-1.38115 -7.05084,-1.22609 -7.05084,0.22701 0,3.34592 2.96365,6.94457 11.54336,14.0167 4.13619,3.4094 3.34536,4.25293 -1.59302,1.69919 -2.6446,-1.36757 -2.95034,-1.36757 -2.95034,0 0,1.81346 -1.29945,1.83137 -6,0.0827 z m -5.55,-6.46387 c -4.09313,-3.90713 -9.79732,-7.99655 -10.52596,-7.54622 -1.4394,0.8896 7.8685,8.33758 10.52596,8.42264 0.6,0.0192 0.6,-0.30369 0,-0.87642 z m -18.15031,-17.35692 c -5.72074,-9.04047 -7.78405,-10.93143 -8.05164,-7.37909 -0.17584,2.33437 5.29686,8.64284 7.49781,8.64284 0.84586,0 1.05359,-0.47399 0.55383,-1.26375 z M 298.0831,742.67431 c -1.45728,-3.29442 -2.45179,-4.48629 -3.15589,-3.78219 -0.56544,0.56544 -1.64824,0.79009 -2.40621,0.49923 -3.95397,-1.51728 0.52783,6.9524 4.95584,9.36554 3.05681,1.66587 3.23646,-0.13657 0.60626,-6.08258 z m 22.05975,-89.03881 c 0,-0.24254 -0.45,-0.7191 -1,-1.05902 -0.55,-0.33992 -1,-0.14148 -1,0.44098 0,0.58246 0.45,1.05902 1,1.05902 0.55,0 1,-0.19844 1,-0.44098 z m 137.56429,93.73411 c -0.54268,-1.4252 -0.42782,-1.54006 0.5598,-0.5598 0.68342,0.67834 0.99067,1.48524 0.68278,1.79313 -0.30789,0.30789 -0.86705,-0.24711 -1.24258,-1.23333 z m 1.93571,-6.29313 c 0.33992,-0.55 1.06803,-1 1.61803,-1 0.55,0 0.72189,0.45 0.38197,1 -0.33992,0.55 -1.06803,1 -1.61803,1 -0.55,0 -0.72189,-0.45 -0.38197,-1 z m -105.90879,-8.0905 c -2.41891,-3.32429 -8.37898,-12.07501 -13.24461,-19.44606 -6.65196,-10.07718 -9.25986,-13.2754 -10.51244,-12.89199 -2.26501,0.6933 -3.1614,-1.05498 -1.32315,-2.58059 0.81894,-0.67966 1.48899,-1.76995 1.48899,-2.42286 0,-0.65291 2.21321,-3.63531 4.91825,-6.62755 4.74349,-5.24714 4.97108,-5.37008 6.4051,-3.45999 1.4569,1.94057 1.56432,1.94358 5.33175,0.14933 2.1147,-1.00713 5.80883,-3.15532 8.20918,-4.77376 2.40036,-1.61844 7.10207,-4.32465 10.44825,-6.0138 l 6.08397,-3.07118 19.55175,0.59787 c 10.75346,0.32882 18.98925,0.34283 18.30175,0.0311 -1.89065,-0.85718 -1.50108,-2.10114 0.85062,-2.71612 1.15533,-0.30213 1.82179,-1.00046 1.48101,-1.55186 -0.35355,-0.57206 0.76683,-1.13769 2.60927,-1.31731 l 3.22886,-0.31477 -3.95988,-3.72624 c -4.50877,-4.24275 -11.21775,-8.1147 -18.77292,-10.83441 -4.81527,-1.7334 -4.95272,-1.86978 -1.91818,-1.90327 4.08822,-0.0451 16.02967,4.07335 22.12537,7.6308 6.21715,3.62832 15.24974,13.2497 18.94154,20.17623 5.70573,10.70503 9.65656,31.9175 7.38611,39.65689 l -0.88008,3 -1.74732,-5.23824 c -0.96103,-2.88103 -2.10518,-5.45941 -2.54257,-5.72973 -0.43739,-0.27032 -7.94048,2.3599 -16.67354,5.84494 -17.7677,7.09041 -40.67499,15.94337 -53.13368,20.53451 l -8.25539,3.04219 z m 13.46739,0.022 c 11.90103,-4.32616 66.29585,-26.04109 67.14426,-26.80463 1.01284,-0.91152 -4.38453,-9.21117 -9.15531,-14.07832 -2.46127,-2.51099 -7.14865,-5.56139 -11.81385,-7.68809 -4.25354,-1.93903 -8.51509,-3.93836 -9.47013,-4.44296 -4.73214,-2.50027 -12.447,-0.0731 -22.7586,7.16007 -4.24503,2.97772 -6.79722,4.08803 -9.19097,3.99846 -4.79294,-0.1794 -6.92308,-0.54809 -8.258,-1.37312 -1.81976,-1.12468 -10.28919,-1.52372 -10.28919,-0.48479 0,0.50825 -0.72415,0.61726 -1.28312,0.2718 -0.55897,-0.34547 -0.78267,-1.00617 -0.4971,-1.46822 0.28557,-0.46206 -2.20852,-0.0142 -5.54242,0.9952 -7.18468,2.17535 -13.31233,6.46724 -12.68089,8.88186 0.81064,3.09993 23.89546,38.10124 25.12935,38.10124 0.12351,0 4.02319,-1.38084 8.66597,-3.0685 z m -37.0586,-46.9315 c 0,-0.55 0.47656,-1 1.05902,-1 0.58246,0 0.7809,0.45 0.44098,1 -0.33992,0.55 -0.81648,1 -1.05902,1 -0.24254,0 -0.44098,-0.45 -0.44098,-1 z m 12.47897,-15.26041 c -1.20986,-6.4491 3.39218,-12.22877 9.20639,-11.56225 2.39931,0.27505 2.86293,0.82976 3.14191,3.75924 0.28875,3.03199 0.14159,3.28246 -1.25,2.12755 -1.31064,-1.08773 -1.57727,-1.06856 -1.57727,0.11342 0,0.78235 0.43126,1.85371 0.95836,2.38081 1.1665,1.1665 0.3343,2.51512 -2.93087,4.7496 -4.08259,2.79389 -6.83754,2.22149 -7.54852,-1.56837 z m 5.52103,-3.23959 c 0,-0.825 -0.675,-1.5 -1.5,-1.5 -1.56157,0 -1.98397,1.1827 -0.83333,2.33333 1.15063,1.15064 2.33333,0.72824 2.33333,-0.83333 z m 56.8125,3.81689 c 0.72187,-0.28888 1.58437,-0.25335 1.91667,0.0789 0.33229,0.33229 -0.25834,0.56864 -1.3125,0.52522 -1.16495,-0.048 -1.4019,-0.28495 -0.60417,-0.60412 z m -80.6976,-38.22472 c -1.092,-0.69157 -0.88038,-1.14448 1,-2.14029 1.31181,-0.69471 3.5101,-1.94087 4.8851,-2.76926 2.4112,-1.45267 2.40232,-1.41018 -0.25,1.19608 -1.5125,1.48623 -2.75,3.13403 -2.75,3.66177 0,1.18573 -1.06435,1.20481 -2.8851,0.0517 z m 10.1351,-2.75445 c -2.64452,-1.06709 -1.24101,-4.30166 2.75,-6.33772 2.2,-1.12236 4,-1.82036 4,-1.55112 0,1.11617 -4.25349,8.54485 -4.85097,8.47217 -0.35697,-0.0434 -1.21153,-0.30592 -1.89903,-0.58333 z m 20.25312,-7.29249 c 0.51512,-3.36546 8.30923,-16.56621 9.23474,-15.64071 0.25526,0.25527 -0.72886,2.02819 -2.18694,3.93984 -2.69306,3.53078 -2.22983,5.20163 1.10884,3.99955 2.64877,-0.95368 1.07021,0.51602 -2.76132,2.5709 -1.96153,1.05197 -3.80959,3.12917 -4.60116,5.17166 l -1.32294,3.41353 z m 10.49688,-1.44839 c 0,-1.04657 5.81152,-9.36232 7.09902,-10.15804 0.59024,-0.36479 -0.60374,1.74976 -2.65328,4.69898 -4.43862,6.38704 -4.44574,6.39579 -4.44574,5.45906 z m 1,-16.9744 c 0,-0.20765 0.7875,-0.99515 1.75,-1.75 1.58606,-1.24387 1.62143,-1.2085 0.37755,0.37756 -1.30636,1.66575 -2.12755,2.19548 -2.12755,1.37244 z"
           id="path3778"
           style="fill:#000000;fill-opacity:1;stroke:#ffffff;stroke-width:49.09774399;stroke-linecap:round;stroke-linejoin:round;stroke-miterlimit:4;stroke-opacity:1;stroke-dasharray:none"
           inkscape:connector-curvature="0" />
      </g>
      <g
         transform="matrix(0.16268239,0,0,0.16319856,101.9544,929.04818)"
         id="g3770">
        <path
           style="fill:#dd4814;fill-opacity:1"
           d="m 285.16182,679.40585 c 2.1439,-8.39755 8.35843,-17.57597 13.25338,-24.77954 4.15441,-6.11377 13.68872,-15.4616 21.22765,-20.81247 7.10962,-5.04616 28.99485,-17.7026 27.16698,-14.35188 -0.17565,0.32199 -4.55118,4.28292 -5.99501,6.36636 -1.44382,2.08344 -3.78179,6.70409 -5.19548,10.26812 -1.41369,3.56402 -3.70936,8.63048 -5.10149,11.2588 -2.09852,3.96199 -2.52191,6.09846 -2.4772,12.5 0.03,4.29446 0.80951,10.1622 1.7564,13.22124 1.64961,5.32929 1.72429,5.40688 2.40581,2.5 0.38685,-1.65 0.7566,-6.06964 0.82168,-9.82143 0.0771,-4.44266 1.43723,-6.62512 2.36763,-7.55552 1.22302,-1.57068 -0.1067,-0.46337 3.15786,-2.41551 1.95872,-1.39826 8.54072,-9.77112 15.09897,-16.23162 12.77325,-12.5463 13.55006,-13.51603 10.39913,-12.98165 -1.87291,0.31763 -4.1928,0.81668 -5.1553,1.10901 -2.60908,0.79241 -2.2123,-2.30839 0.80089,-6.25889 2.77241,-3.63482 1.68348,-4.57876 -1.55089,-1.34439 -1.1,1.1 -2,3.125 -2,4.5 0,1.55556 -0.56667,2.5 -1.5,2.5 -0.825,0 -1.5,-0.675 -1.5,-1.5 0,-0.825 -0.3375,-1.44671 -0.75,-1.38158 -2.14171,0.33816 -3.25156,-0.2969 -3.26531,-1.86842 -0.013,-1.48494 -0.15815,-1.52407 -0.95836,-0.25836 -0.70485,1.11488 -1.23044,1.20425 -2.08087,0.35382 -4.24523,-4.24523 14.72823,-22.06206 26.55454,-24.93575 2.77615,-0.67458 2.50068,-0.19795 -3.69187,6.38778 -3.68053,3.91422 -7.21648,8.09699 -7.85766,9.29506 -1.08306,2.02372 -0.98369,2.1326 1.4003,1.53426 1.41135,-0.35423 5.56275,-2.91221 9.22534,-5.68442 3.66259,-2.7722 6.88674,-4.81287 7.16479,-4.53482 0.27806,0.27805 -1.2374,2.49988 -3.36768,4.93739 -2.13027,2.43751 -4.72365,5.94456 -5.76306,7.79344 l -1.88985,3.3616 4.38985,-4.13321 c 5.92651,-5.58004 11.97709,-8.50275 10.59276,-5.11679 -1.51695,3.71035 -1.6396,4.92197 -0.25748,2.54361 2.06882,-3.56006 5.95222,-4.3168 21.55456,-4.20019 13.08889,0.0978 26.98444,2.12908 36.11456,5.27924 7.75834,2.67686 25.54745,11.83926 31.38544,16.16527 11.21912,8.3135 22.74982,22.84469 28.86814,36.38014 6.69647,14.81447 9.63118,32.79274 7.76159,55.10696 -6.38634,61.13882 -20.93155,63.92536 -17.37435,58.10798 -6.88999,11.85454 -7.46965,21.51756 -13.16914,13.04583 -2.84975,-4.23587 -6.30714,-8.60128 -21.5496,-23.37083 -4.48531,-5.5783 -0.15193,-35.14807 -0.15193,-35.14807 -12.53211,6.23134 -19.40503,10.74088 -21.66333,9.62089 -2.25831,-1.11999 0.098,-7.86951 6.02433,-24.15632 -0.44123,-13.80813 -18.39359,-37.13845 -22.8349,-39.40342 -17.76526,-9.05991 -67.51747,-5.59856 -89.93987,19.12164 -2.67913,-14.49205 -3.56507,-13.95153 -14.20017,-30.13503 -14.18882,7.37767 -10.91112,25.62221 -13.64569,33.91734 -12.85921,2.16004 -0.88203,27.67116 2.83759,55.55616 -12.68525,-16.50701 -26.68238,-34.11411 -17.44368,-80.35183 z"
           id="path3041"
           inkscape:connector-curvature="0"
           sodipodi:nodetypes="csssssssssscccsssssssssssssssscsscssssssscccccsccccccc" />
        <path
           style="fill:#dd4814;fill-opacity:1"
           d="m 296.83462,668.32648 c 0.64964,-2.0625 0.8168,-4.12045 0.37147,-4.57322 -0.44532,-0.45277 -1.1131,0.44723 -1.48395,2 -0.37085,1.55277 -0.90823,3.61072 -1.19417,4.57322 -0.28595,0.9625 -0.14969,1.75 0.30279,1.75 0.45248,0 1.35422,-1.6875 2.00386,-3.75 z"
           id="path3035" />
        <path
           style="fill:#dd4814;fill-opacity:1"
           d="m 435.81864,659.32648 c -2.54181,-2.51553 -2.86385,-2.60079 -3.77696,-1 -0.54902,0.9625 -1.76336,1.78163 -2.69853,1.82028 -3.14123,0.12985 1.9948,1.78299 5.77696,1.85943 l 3.47728,0.0703 z"
           id="path3033" />
        <path
           style="fill:#dd4814;fill-opacity:1"
           d="m 441.32353,649.82648 c -2.96814,-2.94023 -3.37613,-3.0832 -4.28046,-1.5 -0.54979,0.9625 -2.21475,1.78655 -3.69992,1.83122 l -2.70031,0.0812 3,1.37368 c 1.65,0.75552 4.79135,1.39397 6.98077,1.41878 l 3.98077,0.0451 z"
           id="path3031" />
        <path
           style="fill:#dd4814;fill-opacity:1"
           d="m 458.14284,651.26357 c 0,-0.4471 -1.29043,-2.04921 -2.86761,-3.56025 -2.76427,-2.64834 -2.88703,-2.6731 -3.40638,-0.6871 -0.40266,1.53979 -1.38345,2.07948 -3.88239,2.13634 l -3.34362,0.0761 3.5,1.34784 c 3.9275,1.51247 10,1.92971 10,0.68707 z"
           id="path3029" />
        <path
           style="fill:#dd4814;fill-opacity:1"
           d="m 468.14285,645.14906 c 0,-0.51008 -1.20924,-1.87861 -2.6872,-3.04118 -2.34481,-1.84442 -2.79711,-1.91738 -3.5497,-0.57258 -0.47436,0.84765 -2.07762,1.57773 -3.56279,1.6224 l -2.70031,0.0812 3,1.37368 c 3.43695,1.57375 9.5,1.91613 9.5,0.53648 z"
           id="path3027" />
        <path
           style="fill:#dd4814;fill-opacity:1"
           d="m 446.61184,642.12665 c 0.32287,-0.5224 -0.29599,-1.4224 -1.37524,-2 -2.83964,-1.51973 -3.53533,-1.29265 -1.96619,0.64179 0.91611,1.12938 0.95945,1.44389 0.13036,0.94588 -0.68314,-0.41035 -2.03314,-0.28541 -3,0.27763 -1.43031,0.83293 -1.07006,1.02938 1.93306,1.05412 2.03004,0.0167 3.95515,-0.39701 4.27801,-0.91942 z"
           id="path3025" />
        <path
           style="fill:#dd4814;fill-opacity:1"
           d="m 456.14285,635.11166 c 0,-0.53065 -0.85502,-1.4224 -1.90004,-1.98168 -1.42019,-0.76006 -2.03611,-0.66227 -2.43885,0.38725 -0.29635,0.77227 -1.57883,1.60274 -2.84996,1.8455 -1.27113,0.24276 -0.17365,0.50267 2.43885,0.57757 2.6125,0.0749 4.75,-0.29799 4.75,-0.82864 z"
           id="path3023" />
        <path
           style="fill:#dd4814;fill-opacity:1"
           d="m 470.14285,633.1175 c 0,-0.50764 -0.45,-1.2011 -1,-1.54102 -0.55,-0.33992 -1,-0.15518 -1,0.41053 0,0.56571 -1.57701,0.96928 -3.50447,0.89682 -1.92746,-0.0725 -3.74331,0.10709 -4.03522,0.39901 -0.29192,0.29192 1.73509,0.58181 4.50446,0.6442 2.76938,0.0624 5.03523,-0.3019 5.03523,-0.80954 z"
           id="path3000" />
        <path
           d="m 423.14285,831.68623 c 0,-0.24456 2.3625,-1.87018 5.25,-3.61247 2.8875,-1.7423 4.35,-2.86795 3.25,-2.50145 -10.73264,3.57591 -34.5,6.81739 -34.5,4.70523 0,-0.53816 1.4625,-1.25353 3.25,-1.58971 11.63153,-2.18757 31.60423,-17.62787 37.81577,-29.23425 1.26804,-2.36934 1.24138,-2.78078 -0.24078,-3.7157 -1.54007,-0.97145 -1.51529,-1.34813 0.32608,-4.95751 5.54559,-10.87026 13.947,-34.93916 12.64886,-36.23729 -0.234,-0.234 -2.4042,1.36529 -4.82266,3.55397 -4.59036,4.15422 -6.59684,5.03639 -5.61082,2.46686 0.7826,-2.03943 2.06733,-14.86837 1.54726,-15.45052 -0.22754,-0.2547 -1.76371,-0.37767 -3.41371,-0.27328 l -3,0.18982 3.0468,-1.22672 c 11.21854,-4.5169 19.51701,-15.90983 21.04246,-28.88911 0.54478,-4.63518 0.39143,-5.5306 -0.97117,-5.67095 -4.39874,-0.45308 -4.39773,-0.45221 -3.58006,-3.08334 1.04282,-3.35561 6.4729,-15.92759 7.18852,-16.64322 0.90908,-0.90908 4.77416,11.66849 4.76439,15.50406 -0.0219,8.60677 -7.65284,35.05583 -10.11408,35.05583 -1.17257,0 -0.97206,14.0856 0.21037,15.95526 3.00071,3.00873 2.05759,2.3729 3.03053,3.08166 1.0666,-0.0404 1.62764,-1.03692 2.33496,-1.03692 3.01412,0 11.71376,-8.38679 14.57106,-14.04707 3.09229,-6.12578 5.13681,-14.78824 3.20916,-13.59688 -0.58943,0.36428 -1.72189,0.0121 -2.51659,-0.78257 -1.11988,-1.11988 -1.73348,-1.17819 -2.72779,-0.25919 -1.02433,0.94673 -1.12309,0.78262 -0.48997,-0.81429 2.84157,-7.16733 5.50141,-18.58392 5.50141,-23.6133 0,-5.16037 -0.23949,-5.8867 -1.94098,-5.8867 -3.08944,0 -3.3198,-1.53991 -1.53782,-10.27977 2.2925,-11.24375 2.30963,-11.2894 3.71158,-9.88745 4.06726,4.06726 6.76722,-1.1358 6.76722,-13.04102 0,-4.72702 0.3813,-7.67414 0.94761,-7.32414 1.22677,0.75819 5.88444,16.02792 6.69682,21.95489 0.34508,2.51762 1.07642,4.57749 1.62519,4.57749 0.62961,0 0.8192,-3.70835 0.51382,-10.05026 -0.26617,-5.52764 -0.14488,-9.69014 0.26954,-9.25 1.05154,1.11681 5.94702,16.99225 5.94702,19.28546 0,1.30967 -0.83625,1.97818 -2.75,2.19838 -2.5221,0.2902 -2.73623,0.6479 -2.58379,4.31642 0.60068,14.45562 0.60714,26.29385 0.0153,28.05219 -0.61974,1.84127 -1.25199,1.99041 -6.1517,1.45109 -3.00353,-0.3306 -5.78115,-0.92128 -6.17249,-1.31262 -0.39134,-0.39134 0.4418,-1.94433 1.85141,-3.45109 3.05888,-3.26969 5.29535,-7.55514 6.24534,-11.9671 0.88012,-4.08745 -0.16361,-7.59791 -2.04442,-6.87618 -0.77531,0.29752 -1.40966,0.10506 -1.40966,-0.42767 0,-1.67225 -1.83131,-1.05297 -2.31067,0.78138 -0.34415,1.31691 -0.48604,1.19317 -0.57333,-0.5 -0.0661,-1.28178 -0.76148,-2.25 -1.616,-2.25 -1.1793,0 -1.51274,1.44316 -1.55961,6.75 -0.0328,3.7125 -0.43651,9 -0.89717,11.75 -0.67335,4.01976 -0.52284,5.35459 0.76772,6.80869 2.08081,2.3445 1.70332,7.48799 -1.43671,19.57618 -1.3408,5.16168 -2.2193,9.6034 -1.95221,9.87048 1.40844,1.40845 9.09842,-6.19722 12.11834,-11.98548 1.8234,-3.49489 4.92275,-8.74306 6.88745,-11.6626 1.96472,-2.91954 3.5722,-5.71303 3.5722,-6.20776 0,-0.49473 0.38984,-0.89951 0.8663,-0.89951 0.47647,0 1.10657,4.6125 1.40022,10.25 0.85502,16.4146 -3.56558,35.51354 -12.16102,52.54101 -4.99495,9.89493 -23.21566,31.20899 -26.67958,31.20899 -0.89046,0 -3.67439,1.80921 -6.1865,4.02046 -5.87691,5.17306 -13.10757,9.26606 -21.10074,11.94432 -5.91395,1.98157 -16.13868,3.65731 -16.13868,2.64497 z m 51,-62.53613 c 4.62005,-3.39721 5.72025,-4.75191 8.04546,-9.90653 2.83536,-6.28553 2.63992,-7.6385 -0.79546,-5.5067 -1.66693,1.03441 -2.2577,1.16164 -1.5,0.32306 1.70335,-1.8852 1.57317,-3.04469 -0.26273,-2.34019 -0.83201,0.31927 -2.1223,0.0746 -2.86733,-0.54372 -2.0248,-1.68043 -3.68371,0.88309 -6.31827,9.76363 -3.86225,13.01882 -3.74976,12.24279 -1.66292,11.47175 1.02369,-0.37823 3.43625,-1.84581 5.36125,-3.2613 z m 13,1.0185 c 0.275,-0.35107 1.73242,-1.42247 3.23871,-2.38088 3.24836,-2.06682 8.73858,-11.21544 8.75191,-14.58368 0.008,-2.034 -0.21266,-2.18817 -1.54704,-1.08073 -1.21247,1.00625 -1.48871,1.01517 -1.25,0.0403 0.16853,-0.68826 -1.26858,-1.79888 -3.19358,-2.46805 -1.925,-0.66916 -3.3875,-1.75722 -3.25,-2.4179 0.1375,-0.66063 -0.2,-1.20118 -0.75,-1.20118 -0.55,0 -1.0447,0.3375 -1.09932,0.75 -0.0546,0.4125 -0.25898,2.55 -0.45411,4.75 -0.19513,2.2 -1.43575,7.72229 -2.75693,12.27176 l -2.40214,8.27176 2.10625,-0.65654 c 1.15844,-0.3611 2.33125,-0.94379 2.60625,-1.29486 z m -148,34.46492 c -19.45066,-7.23585 -40.19186,-30.97736 -48.97289,-56.05704 -2.86655,-8.18718 -7.75543,-32.10501 -6.76485,-33.09559 0.2267,-0.22671 1.27294,1.38439 2.32497,3.58022 2.27734,4.75337 3.75652,5.03721 5.72168,1.09796 1.29807,-2.60204 1.25278,-3.7641 -0.41895,-10.75 -1.0309,-4.30792 -1.87787,-9.08575 -1.88216,-10.61739 l -0.008,-2.78479 3.14767,3.58499 c 2.08533,2.37506 3.8572,3.48368 5.25,3.2848 1.87436,-0.26765 2.16948,-1.16769 2.72158,-8.3002 0.94735,-12.23861 2.73844,-17.70427 9.01174,-27.5 1.58502,-2.475 2.76646,-4.77189 2.62543,-5.1042 -0.14103,-0.33231 1.21898,-1.84566 3.02224,-3.36301 2.74009,-2.30563 3.07217,-3.00761 2.02161,-4.27345 -1.05115,-1.26656 -0.71007,-1.97127 2.08251,-4.30262 1.83675,-1.53339 3.04847,-3.25894 2.69272,-3.83456 -0.35575,-0.57562 1.16922,-2.24839 3.38884,-3.71726 2.21961,-1.46887 4.03566,-2.97051 4.03566,-3.33699 3.17102,-3.04618 3.77563,-3.52391 5.61787,-4.78337 0.55929,0.55929 -2.51009,8.41846 -4.80687,12.30803 -2.39693,4.05916 -2.79123,9.47672 -1.82566,25.08359 0.40674,6.57428 1.10757,1.05715 -0.2979,14.17168 -0.84134,6.85483 4.11105,19.35714 -1.19203,15.01428 -0.11215,0.48656 -1.80937,-2.51614 -10.79152,-18.38076 -2.88334,-5.09265 -4.17013,-8.03464 -4.56975,-8.03464 -1.07962,0 -3.82631,6.28458 -5.05826,12.3525 -1.34937,6.64622 -1.379,16.3295 -0.0711,23.22615 0.55264,2.91409 0.80904,5.49411 0.56976,5.73339 -0.61607,0.61608 -4.57457,-7.3613 -4.57457,-9.21892 0,-0.84691 -0.38001,-1.53984 -0.84446,-1.53984 -1.65964,0 -6.39629,4.80144 -5.75703,5.83578 0.35845,0.57998 0.84686,5.12209 1.08535,10.09356 0.75976,15.83705 4.60016,33.75403 8.50356,33.75403 1.0179,0 15.15953,5.31063 24.61039,8.40445 62.57866,20.48567 95.88577,32.97283 98.88022,34.09081 3.78024,1.41135 3.39191,5.27357 1.21395,6.10933 -0.76591,0.2939 -17.54743,-4.84028 -37.29227,-11.40929 -19.74484,-6.56901 -36.65775,-11.81654 -37.58424,-11.66116 -1.4342,0.24051 -1.24844,0.91933 1.25,4.56791 3.45174,5.04073 3.70148,6.59278 0.9187,5.70956 -1.1087,-0.35189 -3.97753,-0.77095 -6.37518,-0.93123 -2.39765,-0.16029 -4.89881,-0.62484 -5.55815,-1.03233 -2.23475,-1.38115 -7.05084,-1.22609 -7.05084,0.22701 0,3.34592 2.96365,6.94457 11.54336,14.0167 4.13619,3.4094 3.34536,4.25293 -1.59302,1.69919 -2.6446,-1.36757 -2.95034,-1.36757 -2.95034,0 0,1.81346 -1.29945,1.83137 -6,0.0827 z M 298.0831,742.67431 c -1.45728,-3.29442 -2.45179,-4.48629 -3.15589,-3.78219 -0.56544,0.56544 -1.64824,0.79009 -2.40621,0.49923 -3.95397,-1.51728 0.52783,6.9524 4.95584,9.36554 3.05681,1.66587 3.23646,-0.13657 0.60626,-6.08258 z m 22.05975,-89.03881 c 0,-0.24254 -0.45,-0.7191 -1,-1.05902 -0.55,-0.33992 -1,-0.14148 -1,0.44098 0,0.58246 0.45,1.05902 1,1.05902 0.55,0 1,-0.19844 1,-0.44098 z m 27.63473,81.87714 c -2.17131,-3.49003 -7.175,-12.13818 -12.04063,-19.50923 -6.65196,-10.07718 -9.12477,-14.58655 -9.88207,-15.94383 -2.86683,-5.13812 0.96073,-0.46663 2.79898,-1.99224 0.81894,-0.67966 1.48899,-1.76995 1.48899,-2.42286 0,-0.65291 2.21321,-3.63531 4.91825,-6.62755 4.74349,-5.24714 4.97108,-5.37008 6.4051,-3.45999 1.4569,1.94057 1.56432,1.94358 5.33175,0.14933 2.1147,-1.00713 5.80883,-3.15532 8.20918,-4.77376 2.40036,-1.61844 7.10207,-4.32465 10.44825,-6.0138 l 6.08397,-3.07118 19.55175,0.59787 c 10.75346,0.32882 18.98925,0.34283 18.30175,0.0311 -1.89065,-0.85718 -1.50108,-2.10114 0.85062,-2.71612 1.15533,-0.30213 1.82179,-1.00046 1.48101,-1.55186 -0.35355,-0.57206 0.76683,-1.13769 2.60927,-1.31731 l 3.22886,-0.31477 -3.95988,-3.72624 c -4.50877,-4.24275 -11.21775,-8.1147 -18.77292,-10.83441 -4.81527,-1.7334 -4.95272,-1.86978 -1.91818,-1.90327 4.08822,-0.0451 16.02967,4.07335 22.12537,7.6308 6.21715,3.62832 15.24974,13.2497 18.94154,20.17623 5.70573,10.70503 9.65656,31.9175 7.38611,39.65689 l -0.88008,3 -1.74732,-5.23824 c -0.96103,-2.88103 0.55623,-0.53244 0.11884,-0.80276 -0.43739,-0.27032 -10.09496,3.74956 -18.82802,7.2346 -17.7677,7.09041 -38.46977,15.00291 -52.37327,20.53452 l -12.54615,4.99158 z m 19.42387,-2.50466 c 11.90103,-4.32616 66.29585,-26.04109 67.14426,-26.80463 1.01284,-0.91152 -4.38453,-9.21117 -9.15531,-14.07832 -2.46127,-2.51099 -7.14865,-5.56139 -11.81385,-7.68809 -4.25354,-1.93903 -8.51509,-3.93836 -9.47013,-4.44296 -4.73214,-2.50027 -12.447,-0.0731 -22.7586,7.16007 -4.24503,2.97772 -6.79722,4.08803 -9.19097,3.99846 -4.79294,-0.1794 -7.18989,-0.57227 -8.52481,-1.3973 -1.81976,-1.12468 -8.4943,-2.15236 -9.82834,-2.00804 0,0 -1.76666,0.0416 -1.70745,0.0609 -1.8974,-0.051 -2.47533,0.27594 -5.80923,1.28534 -7.18468,2.17535 -13.31233,6.46724 -12.68089,8.88186 0.81064,3.09993 23.89546,38.10124 25.12935,38.10124 0.12351,0 4.02319,-1.38084 8.66597,-3.06853 z m -37.0586,-46.9315 c 0,-0.55 0.47656,-1 1.05902,-1 0.58246,0 0.7809,0.45 0.44098,1 -0.33992,0.55 -0.81648,1 -1.05902,1 -0.24254,0 -0.44098,-0.45 -0.44098,-1 z m 12.47897,-15.26041 c -1.20986,-6.4491 3.39218,-12.22877 9.20639,-11.56225 2.39931,0.27505 2.86293,0.82976 3.14191,3.75924 0.28875,3.03199 0.14159,3.28246 -1.25,2.12755 -1.31064,-1.08773 -1.57727,-1.06856 -1.57727,0.11342 0,0.78235 0.43126,1.85371 0.95836,2.38081 1.1665,1.1665 0.3343,2.51512 -2.93087,4.7496 -4.08259,2.79389 -6.83754,2.22149 -7.54852,-1.56837 z m 5.52103,-3.23959 c 0,-0.825 -0.675,-1.5 -1.5,-1.5 -1.56157,0 -1.98397,1.1827 -0.83333,2.33333 1.15063,1.15064 2.33333,0.72824 2.33333,-0.83333 z m 6.50312,-44.45477 c 0.51512,-3.36546 8.30923,-16.56621 9.23474,-15.64071 0.25526,0.25527 -0.72886,2.02819 -2.18694,3.93984 -2.69306,3.53078 -2.22983,5.20163 1.10884,3.99955 2.64877,-0.95368 1.07021,0.51602 -2.76132,2.5709 -1.96153,1.05197 -3.80959,3.12917 -4.60116,5.17166 l -1.32294,3.41353 z m 10.49688,-1.44839 c 0,-1.04657 5.81152,-9.36232 7.09902,-10.15804 0.59024,-0.36479 -0.60374,1.74976 -2.65328,4.69898 -4.43862,6.38704 -4.44574,6.39579 -4.44574,5.45906 z m 1,-16.9744 c 0,-0.20765 0.7875,-0.99515 1.75,-1.75 1.58606,-1.24387 1.62143,-1.2085 0.37755,0.37756 -1.30636,1.66575 -2.12755,2.19548 -2.12755,1.37244 z"
           id="path2998"
           style="fill:#000000;fill-opacity:1"
           inkscape:connector-curvature="0"
           sodipodi:nodetypes="ssssssssssssscsssssssccssccssssssssssssssssssssssscssssscssssssssssssssssssssscssscscsscsscscsssccssssssssssccssccsssssssssssssscssssssssccsssssssssssssssssssscscssscsssssscsssscssssssscsccsssssssssssssssssssssscsssscsssssssss" />
        <path
           style="fill:#dd4814;fill-opacity:1;stroke:none"
           d="m 18.500856,9.082005 c -0.338238,0.1308683 -0.612702,0.4314006 -0.745117,0.7685547 -0.101812,0.2051663 -0.05912,0.4672423 -0.1875,0.6552733 -0.140534,0.08419 -0.257445,-0.109048 -0.228515,-0.237305 -0.04375,-0.221939 -0.301585,-0.17975 -0.46875,-0.206054 -0.178402,-0.01584 -0.183126,-0.2120164 -0.19043,-0.3496096 -0.02751,-0.1537555 -0.221537,-0.1058046 -0.274414,0.00586 -0.05476,0.051177 -0.123446,0.2032297 -0.204102,0.094727 -0.102752,-0.0607 -0.07724,-0.2625429 -0.246093,-0.2138671 -0.301925,0.1521441 -0.492508,0.4594647 -0.710938,0.7089847 -0.617597,0.865756 -0.940716,1.902948 -1.399414,2.857421 -0.30987,0.698698 -0.734793,1.381348 -0.744141,2.168946 -0.04196,1.179507 0.0726,2.38604 0.501953,3.491211 0.03881,0.136089 0.232226,0.126657 0.260743,-0.0098 0.197481,-0.624302 0.156031,-1.299608 0.224609,-1.947266 0.02401,-0.430679 0.110524,-0.886359 0.43457,-1.199218 0.209553,-0.192189 0.485651,-0.301003 0.664063,-0.532227 0.902862,-0.99404 1.801136,-1.984149 2.7509,-2.932709 0.468322,-0.498329 0.991861,-0.953247 1.39949,-1.503814 0.09326,-0.106885 0.01775,-0.281242 -0.129882,-0.249024 -0.400691,0.01181 -0.783214,0.161122 -1.176758,0.189453 -0.06334,-0.175162 0.07192,-0.364739 0.139648,-0.523437 0.138367,-0.306664 0.441025,-0.5402853 0.490235,-0.8828126 0.0048,-0.087946 -0.07006,-0.1683731 -0.160157,-0.1533203 z"
           id="path3771"
           inkscape:connector-curvature="0"
           transform="matrix(6.1469468,0,0,6.127505,247.03626,561.95347)" />
      </g>
    </g>
  </g>
</svg>
