<?xml version="1.0" encoding="UTF-8" standalone="no"?>
<!-- Created with Inkscape (http://www.inkscape.org/) -->

<svg
   xmlns:dc="http://purl.org/dc/elements/1.1/"
   xmlns:cc="http://creativecommons.org/ns#"
   xmlns:rdf="http://www.w3.org/1999/02/22-rdf-syntax-ns#"
   xmlns:svg="http://www.w3.org/2000/svg"
   xmlns="http://www.w3.org/2000/svg"
   xmlns:sodipodi="http://sodipodi.sourceforge.net/DTD/sodipodi-0.dtd"
   xmlns:inkscape="http://www.inkscape.org/namespaces/inkscape"
   version="1.1"
   width="48"
   height="48"
   id="svg2"
   inkscape:version="0.48.3.1 r9886"
   sodipodi:docname="twitter.svg">
  <sodipodi:namedview
     pagecolor="#ffffff"
     bordercolor="#666666"
     borderopacity="1"
     objecttolerance="10"
     gridtolerance="10"
     guidetolerance="10"
     inkscape:pageopacity="0"
     inkscape:pageshadow="2"
     inkscape:window-width="1680"
     inkscape:window-height="999"
     id="namedview8"
     showgrid="false"
     inkscape:zoom="4.9166667"
     inkscape:cx="-44.949152"
     inkscape:cy="24"
     inkscape:window-x="0"
     inkscape:window-y="0"
     inkscape:window-maximized="1"
     inkscape:current-layer="layer1" />
  <defs
     id="defs4" />
  <metadata
     id="metadata7">
    <rdf:RDF>
      <cc:Work
         rdf:about="">
        <dc:format>image/svg+xml</dc:format>
        <dc:type
           rdf:resource="http://purl.org/dc/dcmitype/StillImage" />
        <dc:title />
      </cc:Work>
    </rdf:RDF>
  </metadata>
  <rect
     style="fill:#ffffff;fill-opacity:1;stroke:none"
     id="rect2985"
     width="31.932203"
     height="31.728813"
     x="8.3389826"
     y="7.9322033"
     ry="3.7671273" />
  <g
     transform="translate(-281.15496,-582.59375)"
     id="layer1">
    <path
       d="m 285.15496,606.59375 0,-20 20,0 20,0 0,20 0,20 -20,0 -20,0 0,-20 z m 19.28537,9.15646 c 5.63656,-1.44159 9.50539,-6.28949 10.14474,-12.71202 0.1224,-1.22954 0.13747,-1.25861 1.258,-2.42715 0.62376,-0.6505 1.13411,-1.22619 1.13411,-1.27932 0,-0.0531 -0.45252,0.0591 -1.00561,0.24938 -1.3275,0.45673 -1.72035,0.44527 -1.08119,-0.0316 0.51751,-0.38607 1.48609,-1.88244 1.32363,-2.0449 -0.0524,-0.0524 -0.26993,-0.002 -0.48342,0.11247 -0.21348,0.11425 -0.81925,0.35605 -1.34615,0.53733 l -0.958,0.32961 -0.89005,-0.59896 c -3.35285,-2.2563 -7.64015,-0.0364 -7.64636,3.95922 l -0.002,1.11723 -0.93333,-0.11685 c -1.47253,-0.18436 -3.94518,-1.04035 -5.25779,-1.82015 -0.66144,-0.39295 -1.78206,-1.25094 -2.49027,-1.90663 -0.7082,-0.65569 -1.31081,-1.16187 -1.33911,-1.12483 -0.28785,0.3766 -0.53225,1.4839 -0.52388,2.37353 0.0126,1.34353 0.51808,2.57298 1.39956,3.40432 l 0.63166,0.59573 -0.58787,-0.1115 c -0.32332,-0.0613 -0.7226,-0.18023 -0.88728,-0.26424 -0.7487,-0.38191 -0.81959,-0.15953 -0.39979,1.2541 0.34992,1.17832 1.44963,2.41023 2.65477,2.97392 l 0.88889,0.41577 -1.02222,0.002 c -0.56223,8.9e-4 -1.02223,0.0449 -1.02223,0.0977 0,0.0528 0.15268,0.39278 0.33928,0.75555 0.59737,1.16136 1.78209,2.06774 3.16677,2.42276 l 0.84951,0.21777 -0.8,0.5078 c -1.27035,0.80636 -3.10038,1.35129 -4.66491,1.38909 -0.75681,0.0183 -1.37681,0.0814 -1.37778,0.14025 -0.003,0.15831 2.29363,1.18802 3.34651,1.50069 2.29498,0.68154 5.1182,0.7121 7.58155,0.0821 z"
       id="path3839"
       style="fill:#ffffff;fill-opacity:1;stroke:#ffffff;stroke-width:8;stroke-miterlimit:4;stroke-opacity:1;stroke-dasharray:none;stroke-linejoin:round;stroke-linecap:round" />
    <path
       d="m 285.15496,606.59375 0,-20 20,0 20,0 0,20 0,20 -20,0 -20,0 0,-20 z m 19.28537,9.15646 c 5.63656,-1.44159 9.50539,-6.28949 10.14474,-12.71202 0.1224,-1.22954 0.13747,-1.25861 1.258,-2.42715 0.62376,-0.6505 1.13411,-1.22619 1.13411,-1.27932 0,-0.0531 -0.45252,0.0591 -1.00561,0.24938 -1.3275,0.45673 -1.72035,0.44527 -1.08119,-0.0316 0.51751,-0.38607 1.48609,-1.88244 1.32363,-2.0449 -0.0524,-0.0524 -0.26993,-0.002 -0.48342,0.11247 -0.21348,0.11425 -0.81925,0.35605 -1.34615,0.53733 l -0.958,0.32961 -0.89005,-0.59896 c -3.35285,-2.2563 -7.64015,-0.0364 -7.64636,3.95922 l -0.002,1.11723 -0.93333,-0.11685 c -1.47253,-0.18436 -3.94518,-1.04035 -5.25779,-1.82015 -0.66144,-0.39295 -1.78206,-1.25094 -2.49027,-1.90663 -0.7082,-0.65569 -1.31081,-1.16187 -1.33911,-1.12483 -0.28785,0.3766 -0.53225,1.4839 -0.52388,2.37353 0.0126,1.34353 0.51808,2.57298 1.39956,3.40432 l 0.63166,0.59573 -0.58787,-0.1115 c -0.32332,-0.0613 -0.7226,-0.18023 -0.88728,-0.26424 -0.7487,-0.38191 -0.81959,-0.15953 -0.39979,1.2541 0.34992,1.17832 1.44963,2.41023 2.65477,2.97392 l 0.88889,0.41577 -1.02222,0.002 c -0.56223,8.9e-4 -1.02223,0.0449 -1.02223,0.0977 0,0.0528 0.15268,0.39278 0.33928,0.75555 0.59737,1.16136 1.78209,2.06774 3.16677,2.42276 l 0.84951,0.21777 -0.8,0.5078 c -1.27035,0.80636 -3.10038,1.35129 -4.66491,1.38909 -0.75681,0.0183 -1.37681,0.0814 -1.37778,0.14025 -0.003,0.15831 2.29363,1.18802 3.34651,1.50069 2.29498,0.68154 5.1182,0.7121 7.58155,0.0821 z"
       id="path3837"
       style="fill:#000000" />
  </g>
</svg>
