<?xml version="1.0" encoding="UTF-8" standalone="no"?>
<!-- Created with Inkscape (http://www.inkscape.org/) -->

<svg
   xmlns:dc="http://purl.org/dc/elements/1.1/"
   xmlns:cc="http://creativecommons.org/ns#"
   xmlns:rdf="http://www.w3.org/1999/02/22-rdf-syntax-ns#"
   xmlns:svg="http://www.w3.org/2000/svg"
   xmlns="http://www.w3.org/2000/svg"
   version="1.1"
   width="48"
   height="48"
   id="svg3039">
  <metadata
     id="metadata3045">
    <rdf:RDF>
      <cc:Work
         rdf:about="">
        <dc:format>image/svg+xml</dc:format>
        <dc:type
           rdf:resource="http://purl.org/dc/dcmitype/StillImage" />
        <dc:title></dc:title>
      </cc:Work>
    </rdf:RDF>
  </metadata>
  <defs
     id="defs3043" />
  <rect
     width="20.376493"
     height="30"
     rx="0"
     ry="0"
     x="9.6960392"
     y="0"
     id="rect3773"
     style="fill:#ffffff;fill-opacity:1;stroke:none" />
  <path
     d="M 8,4.1312476 8.146913,30.331674 c 0,0 -0.138041,11.01305 11.819479,13.334136 6.877384,1.334974 19.884687,-1.760628 19.884687,-1.760628 L 39.74751,4.1035666 l -10.460172,0 0,29.4127694 -9.838778,0 0,-19.470423 -4.24621,0 4.971173,-10.0459134 z"
     id="path3003"
     style="fill:#ffffff;fill-opacity:1;stroke:#ffffff;stroke-width:8;stroke-linecap:round;stroke-linejoin:round;stroke-miterlimit:4;stroke-opacity:1;stroke-dasharray:none" />
  <path
     d="M 8,4.1312476 8.146913,30.331674 c 0,0 -0.138041,11.01305 11.819479,13.334136 6.877384,1.334974 19.884687,-1.760628 19.884687,-1.760628 L 39.74751,4.1035666 l -10.460172,0 0,29.4127694 -9.838778,0 0,-19.470423 -4.24621,0 4.971173,-10.0459134 z"
     id="path3049"
     style="fill:#dd4713;fill-opacity:1;stroke:none" />
</svg>
