<?xml version="1.0" encoding="UTF-8" standalone="no"?>
<!-- Generator: Adobe Illustrator 9.0, SVG Export Plug-In  -->

<svg
   xmlns:dc="http://purl.org/dc/elements/1.1/"
   xmlns:cc="http://creativecommons.org/ns#"
   xmlns:rdf="http://www.w3.org/1999/02/22-rdf-syntax-ns#"
   xmlns:svg="http://www.w3.org/2000/svg"
   xmlns="http://www.w3.org/2000/svg"
   xmlns:sodipodi="http://sodipodi.sourceforge.net/DTD/sodipodi-0.dtd"
   xmlns:inkscape="http://www.inkscape.org/namespaces/inkscape"
   id="svg3737"
   xml:space="preserve"
   height="48"
   width="48"
   version="1.0"
   viewBox="0 0 48 48"
   inkscape:version="0.48.3.1 r9886"
   sodipodi:docname="un-reboot.svg"><defs
   id="defs12" /><sodipodi:namedview
   pagecolor="#ffffff"
   bordercolor="#666666"
   borderopacity="1"
   objecttolerance="10"
   gridtolerance="10"
   guidetolerance="10"
   inkscape:pageopacity="0"
   inkscape:pageshadow="2"
   inkscape:window-width="1366"
   inkscape:window-height="717"
   id="namedview10"
   showgrid="false"
   inkscape:zoom="4.9166667"
   inkscape:cx="-10.677965"
   inkscape:cy="31.624533"
   inkscape:window-x="0"
   inkscape:window-y="0"
   inkscape:window-maximized="1"
   inkscape:current-layer="svg3737" /><metadata
   id="metadata3756"><rdf:RDF><cc:Work
       rdf:about=""><dc:format>image/svg+xml</dc:format><dc:type
         rdf:resource="http://purl.org/dc/dcmitype/StillImage" /><dc:title>Reload View</dc:title><dc:creator><cc:Agent><dc:title>Jakub Stainer &lt;jimmac@novell.com&gt;</dc:title></cc:Agent></dc:creator><dc:subject><rdf:Bag><rdf:li>reload</rdf:li><rdf:li>view</rdf:li><rdf:li>refresh</rdf:li><rdf:li>update</rdf:li></rdf:Bag></dc:subject><dc:contributor><cc:Agent><dc:title>Luca Ferretti &lt;elle.uca@libero.it&gt;</dc:title></cc:Agent></dc:contributor><cc:license
         rdf:resource="http://creativecommons.org/licenses/LGPL/2.1/" /></cc:Work><cc:License
       rdf:about="http://creativecommons.org/licenses/LGPL/2.1/"><cc:permits
         rdf:resource="http://web.resource.org/cc/Reproduction" /><cc:permits
         rdf:resource="http://web.resource.org/cc/Distribution" /><cc:requires
         rdf:resource="http://web.resource.org/cc/Notice" /><cc:permits
         rdf:resource="http://web.resource.org/cc/DerivativeWorks" /><cc:requires
         rdf:resource="http://web.resource.org/cc/ShareAlike" /><cc:requires
         rdf:resource="http://web.resource.org/cc/SourceCode" /></cc:License></rdf:RDF></metadata>
	<path
   id="path6424"
   style="fill:#ffffff;fill-opacity:1;fill-rule:evenodd"
   d="M 44,24 A 20,20 0 0 1 4,24 20,20 0 1 1 44,24 z"
   inkscape:connector-curvature="0" /><path
   id="path3746"
   style="fill:#000000;fill-opacity:1"
   d="M 29.368422,8.1052636 C 29.368422,8 29.157894,7.8947364 29.157894,8 l -8.421052,8.526316 c -0.31579,0.31579 -0.210526,0.31579 0,0.526316 l 8.421052,8.421052 c 0.10526,0.10526 0.210528,0 0.210528,-0.10526 l -0.10526,-5.578948 h 2.105264 c 2.105262,0 3.157894,0.210526 3.157894,2.105262 v 3.157896 c 0,2.105262 -4.105264,2.421052 -4.105264,3.052632 0,0.631578 0.94737,1.157894 0.94737,1.157894 h 3.157894 c 2.842106,0 4.210526,-2.526316 4.210526,-5.263158 v -4.210526 c 0,-4.421052 -2.736842,-6.31579 -6.31579,-6.31579 H 29.263162 V 8.1052664 h 0.10526 z"
   inkscape:connector-curvature="0" />
	
<path
   id="path7311"
   style="fill:#000000;fill-opacity:1"
   d="m 18.631578,39.894736 c 0,0.10526 0.210528,0.210528 0.210528,0.10526 l 8.421052,-8.526316 c 0.31579,-0.31579 0.210526,-0.31579 0,-0.526316 l -8.421052,-8.421052 c -0.10526,-0.10526 -0.210528,0 -0.210528,0.10526 l 0.10526,5.578948 h -2.105264 c -2.105262,0 -3.157894,-0.210526 -3.157894,-2.105262 v -3.157896 c 0,-2.105262 4.105264,-2.421052 4.105264,-3.052632 0,-0.631578 -0.94737,-1.157894 -0.94737,-1.157894 H 13.47368 c -2.842106,0 -4.210526,2.526316 -4.210526,5.263158 v 4.210526 c 0,4.421052 2.736842,6.31579 6.31579,6.31579 h 3.157894 v 5.36842 h -0.10526 z"
   inkscape:connector-curvature="0" /></svg>