<?xml version="1.0" encoding="UTF-8" standalone="no"?>
<!-- Created with Inkscape (http://www.inkscape.org/) -->

<svg
   xmlns:dc="http://purl.org/dc/elements/1.1/"
   xmlns:cc="http://creativecommons.org/ns#"
   xmlns:rdf="http://www.w3.org/1999/02/22-rdf-syntax-ns#"
   xmlns:svg="http://www.w3.org/2000/svg"
   xmlns="http://www.w3.org/2000/svg"
   xmlns:sodipodi="http://sodipodi.sourceforge.net/DTD/sodipodi-0.dtd"
   xmlns:inkscape="http://www.inkscape.org/namespaces/inkscape"
   id="svg2"
   sodipodi:version="0.32"
   inkscape:version="0.48.3.1 r9886"
   width="48"
   height="48"
   version="1.0"
   sodipodi:docname="vlc.svg"
   inkscape:output_extension="org.inkscape.output.svg.inkscape">
  <metadata
     id="metadata7">
    <rdf:RDF>
      <cc:Work
         rdf:about="">
        <dc:format>image/svg+xml</dc:format>
        <dc:type
           rdf:resource="http://purl.org/dc/dcmitype/StillImage" />
      </cc:Work>
    </rdf:RDF>
  </metadata>
  <defs
     id="defs5" />
  <sodipodi:namedview
     inkscape:window-height="717"
     inkscape:window-width="1366"
     inkscape:pageshadow="2"
     inkscape:pageopacity="0.0"
     guidetolerance="10000"
     gridtolerance="10000"
     objecttolerance="10000"
     borderopacity="1.0"
     bordercolor="#666666"
     pagecolor="#ffffff"
     id="base"
     width="48px"
     height="48px"
     showgrid="true"
     showguides="true"
     inkscape:guide-bbox="true"
     inkscape:zoom="4"
     inkscape:cx="-51.875"
     inkscape:cy="15.342946"
     inkscape:window-x="0"
     inkscape:window-y="0"
     inkscape:current-layer="layer1"
     inkscape:window-maximized="1">
    <sodipodi:guide
       orientation="vertical"
       position="24"
       id="guide2161" />
    <sodipodi:guide
       orientation="horizontal"
       position="47"
       id="guide2163" />
    <sodipodi:guide
       orientation="horizontal"
       position="18"
       id="guide2165" />
    <sodipodi:guide
       orientation="horizontal"
       position="1"
       id="guide2167" />
    <sodipodi:guide
       orientation="vertical"
       position="22"
       id="guide2169" />
    <sodipodi:guide
       orientation="vertical"
       position="26"
       id="guide2171" />
    <sodipodi:guide
       orientation="vertical"
       position="8"
       id="guide2173" />
    <sodipodi:guide
       orientation="vertical"
       position="40"
       id="guide2175" />
    <sodipodi:guide
       orientation="vertical"
       position="3"
       id="guide2177" />
    <sodipodi:guide
       orientation="vertical"
       position="45"
       id="guide2179" />
    <sodipodi:guide
       orientation="vertical"
       position="13"
       id="guide2182" />
    <sodipodi:guide
       orientation="vertical"
       position="35"
       id="guide2184" />
    <sodipodi:guide
       orientation="vertical"
       position="11"
       id="guide2207" />
    <sodipodi:guide
       orientation="vertical"
       position="37"
       id="guide2209" />
  </sodipodi:namedview>
  <g
     inkscape:groupmode="layer"
     id="layer2"
     inkscape:label="base"
     style="display:inline" />
  <g
     inkscape:groupmode="layer"
     id="layer1"
     inkscape:label="top"
     style="display:inline">
    <g
       id="g3779"
       style="stroke:#ffffff;stroke-opacity:1;stroke-width:10;stroke-miterlimit:4;stroke-dasharray:none;stroke-linejoin:round;stroke-linecap:round">
      <path
         style="display:inline;fill:#000000;fill-opacity:1;fill-rule:evenodd;stroke:#ffffff;stroke-width:10;stroke-linecap:round;stroke-linejoin:round;stroke-opacity:1;stroke-miterlimit:4;stroke-dasharray:none"
         d="m 10.255312,27.663811 -4.3031245,14.605313 36.0956245,0 -4.303125,-14.605313 -5.442187,0 1.797188,5.897813 c -0.583747,0.320332 -1.132052,0.721955 -1.746563,0.987187 -1.284455,0.554394 -2.627154,0.948401 -4.024687,1.240313 -1.397533,0.291912 -2.846684,0.455623 -4.328438,0.455625 -1.481754,0 -2.930903,-0.163713 -4.328437,-0.455625 -1.397533,-0.291912 -2.740233,-0.685919 -4.024688,-1.240313 -0.614511,-0.265233 -1.162816,-0.666856 -1.746562,-0.987187 l 1.797187,-5.897813 -5.442187,0 z"
         id="path3781"
         inkscape:connector-curvature="0" />
      <path
         style="display:inline;fill:none;stroke:#ffffff;stroke-width:10;stroke-linecap:round;stroke-linejoin:round;stroke-opacity:1;stroke-miterlimit:4;stroke-dasharray:none"
         d="m 13.907928,33.572765 c 0.583747,0.320332 1.130129,0.701028 1.74464,0.966262 1.284455,0.554393 2.62856,0.969597 4.026093,1.261508 1.397533,0.291912 2.839585,0.456291 4.321339,0.456291 1.481754,0 2.923806,-0.164379 4.321338,-0.456291 1.397534,-0.291911 2.741639,-0.707115 4.026094,-1.261508 0.61451,-0.265234 1.160893,-0.64593 1.744639,-0.966262 l -8.374272,-27.377426 -3.435598,0 -8.374273,27.377426 z"
         id="path3783"
         inkscape:connector-curvature="0" />
      <path
         style="fill:#000000;fill-opacity:1;fill-rule:evenodd;stroke:#ffffff;stroke-width:10;stroke-linecap:round;stroke-linejoin:round;stroke-opacity:1;display:inline;stroke-miterlimit:4;stroke-dasharray:none"
         d="m 18.33,19.108186 -2.379375,7.846875 c 0.119964,0.04896 0.233163,0.105045 0.354375,0.151875 1.181709,0.456559 2.435196,0.797415 3.720938,1.037813 1.28574,0.240398 2.610836,0.379687 3.974062,0.379687 1.363225,-1e-6 2.688321,-0.139289 3.974062,-0.379687 1.285741,-0.240398 2.513916,-0.581253 3.695626,-1.037813 0.13256,-0.05122 0.248619,-0.148734 0.379687,-0.2025 L 29.67,19.108186 c -0.724258,0.203822 -1.437283,0.431541 -2.202188,0.556875 -1.117768,0.183155 -2.282681,0.278438 -3.467812,0.278438 -1.18513,0 -2.350044,-0.09528 -3.467813,-0.278438 C 19.767284,19.539727 19.054259,19.312007 18.33,19.108186 z"
         id="path3785"
         inkscape:connector-curvature="0" />
      <path
         style="fill:#000000;fill-opacity:1;fill-rule:evenodd;stroke:#ffffff;stroke-width:10;stroke-linecap:round;stroke-linejoin:round;stroke-opacity:1;stroke-miterlimit:4;stroke-dasharray:none"
         d="m 20.564401,11.858706 c 1.110113,0.169261 2.215218,0.348928 3.435599,0.348928 1.220381,0 2.325486,-0.179667 3.435599,-0.348928 l -1.7178,-5.663367 -3.435598,0 -1.7178,5.663367 z"
         id="path3787"
         inkscape:connector-curvature="0" />
      <path
         style="fill:#000000;fill-opacity:1;fill-rule:evenodd;stroke:#ffffff;stroke-width:10;stroke-linecap:round;stroke-linejoin:round;stroke-opacity:1;display:inline;stroke-miterlimit:4;stroke-dasharray:none"
         d="m 13.907928,33.572765 -1.073624,3.542961 c 0,0 5.582847,3.113511 11.165696,3.113511 5.582848,1e-6 11.165696,-3.113511 11.165696,-3.113511 l -1.073625,-3.542961 c -0.583746,0.320332 -1.130129,0.701028 -1.744639,0.966262 -1.284455,0.554393 -2.62856,0.969597 -4.026094,1.261508 -1.397532,0.291912 -2.839584,0.456291 -4.321338,0.456291 -1.481754,0 -2.923806,-0.164379 -4.321339,-0.456291 -1.397533,-0.291911 -2.741638,-0.707115 -4.026093,-1.261508 -0.614511,-0.265234 -1.160893,-0.64593 -1.74464,-0.966262 z"
         id="path3789"
         sodipodi:nodetypes="ccsccsssssc"
         inkscape:connector-curvature="0" />
    </g>
    <g
       id="g3772">
      <path
         inkscape:connector-curvature="0"
         id="path2189"
         d="m 10.255312,27.663811 -4.3031245,14.605313 36.0956245,0 -4.303125,-14.605313 -5.442187,0 1.797188,5.897813 c -0.583747,0.320332 -1.132052,0.721955 -1.746563,0.987187 -1.284455,0.554394 -2.627154,0.948401 -4.024687,1.240313 -1.397533,0.291912 -2.846684,0.455623 -4.328438,0.455625 -1.481754,0 -2.930903,-0.163713 -4.328437,-0.455625 -1.397533,-0.291912 -2.740233,-0.685919 -4.024688,-1.240313 -0.614511,-0.265233 -1.162816,-0.666856 -1.746562,-0.987187 l 1.797187,-5.897813 -5.442187,0 z"
         style="display:inline;fill:#000000;fill-opacity:1;fill-rule:evenodd;stroke:#000000;stroke-width:0.81000000000000005px;stroke-linecap:butt;stroke-linejoin:miter;stroke-opacity:1" />
      <path
         inkscape:connector-curvature="0"
         id="path4269"
         d="m 13.907928,33.572765 c 0.583747,0.320332 1.130129,0.701028 1.74464,0.966262 1.284455,0.554393 2.62856,0.969597 4.026093,1.261508 1.397533,0.291912 2.839585,0.456291 4.321339,0.456291 1.481754,0 2.923806,-0.164379 4.321338,-0.456291 1.397534,-0.291911 2.741639,-0.707115 4.026094,-1.261508 0.61451,-0.265234 1.160893,-0.64593 1.744639,-0.966262 l -8.374272,-27.377426 -3.435598,0 -8.374273,27.377426 z"
         style="display:inline;fill:none;stroke:#000000;stroke-width:2;stroke-linecap:butt;stroke-linejoin:miter;stroke-opacity:1;stroke-miterlimit:4;stroke-dasharray:none" />
      <path
         inkscape:connector-curvature="0"
         id="path2286"
         d="m 18.33,19.108186 -2.379375,7.846875 c 0.119964,0.04896 0.233163,0.105045 0.354375,0.151875 1.181709,0.456559 2.435196,0.797415 3.720938,1.037813 1.28574,0.240398 2.610836,0.379687 3.974062,0.379687 1.363225,-1e-6 2.688321,-0.139289 3.974062,-0.379687 1.285741,-0.240398 2.513916,-0.581253 3.695626,-1.037813 0.13256,-0.05122 0.248619,-0.148734 0.379687,-0.2025 L 29.67,19.108186 c -0.724258,0.203822 -1.437283,0.431541 -2.202188,0.556875 -1.117768,0.183155 -2.282681,0.278438 -3.467812,0.278438 -1.18513,0 -2.350044,-0.09528 -3.467813,-0.278438 C 19.767284,19.539727 19.054259,19.312007 18.33,19.108186 z"
         style="fill:#000000;fill-opacity:1;fill-rule:evenodd;stroke:#000000;stroke-width:0.81px;stroke-linecap:butt;stroke-linejoin:miter;stroke-opacity:1;display:inline" />
      <path
         inkscape:connector-curvature="0"
         id="path2215"
         d="m 20.564401,11.858706 c 1.110113,0.169261 2.215218,0.348928 3.435599,0.348928 1.220381,0 2.325486,-0.179667 3.435599,-0.348928 l -1.7178,-5.663367 -3.435598,0 -1.7178,5.663367 z"
         style="fill:#000000;fill-opacity:1;fill-rule:evenodd;stroke:#000000;stroke-width:0.81px;stroke-linecap:butt;stroke-linejoin:miter;stroke-opacity:1" />
      <path
         inkscape:connector-curvature="0"
         sodipodi:nodetypes="ccsccsssssc"
         id="path4283"
         d="m 13.907928,33.572765 -1.073624,3.542961 c 0,0 5.582847,3.113511 11.165696,3.113511 5.582848,1e-6 11.165696,-3.113511 11.165696,-3.113511 l -1.073625,-3.542961 c -0.583746,0.320332 -1.130129,0.701028 -1.744639,0.966262 -1.284455,0.554393 -2.62856,0.969597 -4.026094,1.261508 -1.397532,0.291912 -2.839584,0.456291 -4.321338,0.456291 -1.481754,0 -2.923806,-0.164379 -4.321339,-0.456291 -1.397533,-0.291911 -2.741638,-0.707115 -4.026093,-1.261508 -0.614511,-0.265234 -1.160893,-0.64593 -1.74464,-0.966262 z"
         style="fill:#000000;fill-opacity:1;fill-rule:evenodd;stroke:#000000;stroke-width:0.81px;stroke-linecap:butt;stroke-linejoin:miter;stroke-opacity:1;display:inline" />
    </g>
  </g>
</svg>
