<?xml version="1.0" encoding="UTF-8" standalone="no"?>
<!-- Created with Inkscape (http://www.inkscape.org/) -->

<svg
   xmlns:dc="http://purl.org/dc/elements/1.1/"
   xmlns:cc="http://creativecommons.org/ns#"
   xmlns:rdf="http://www.w3.org/1999/02/22-rdf-syntax-ns#"
   xmlns:svg="http://www.w3.org/2000/svg"
   xmlns="http://www.w3.org/2000/svg"
   version="1.1"
   width="48"
   height="48"
   id="svg2">
  <defs
     id="defs4" />
  <metadata
     id="metadata7">
    <rdf:RDF>
      <cc:Work
         rdf:about="">
        <dc:format>image/svg+xml</dc:format>
        <dc:type
           rdf:resource="http://purl.org/dc/dcmitype/StillImage" />
        <dc:title></dc:title>
      </cc:Work>
    </rdf:RDF>
  </metadata>
  <g
     transform="translate(0,-1004.3622)"
     id="layer1">
    <g
       transform="matrix(0.59451713,0,0,0.59451713,-2.8910456,415.55807)"
       id="g3010"
       style="stroke:#ffffff;stroke-width:13.45629883;stroke-miterlimit:4;stroke-opacity:1;stroke-dasharray:none">
      <path
         d="m 34.292124,1058.7048 c -7.656132,-2.7578 -7.590383,-2.725 -11.834535,-8.0942 -6.017567,-7.6128 -5.543608,-11.9034 -5.632681,-22.6056 -0.06392,-7.6805 2.07155,-8.6348 4.171406,-12.7454 2.841256,-5.5619 8.230027,-7.7813 14.475703,-11.1073 51.234807,-0.4795 32.302624,51.4092 6.015586,54.6424 z"
         id="path3012"
         style="fill:#ffffff;stroke:#ffffff;stroke-width:13.45629883;stroke-miterlimit:4;stroke-opacity:1;stroke-dasharray:none" />
      <path
         d="m 38.642859,1063.096 c -12.867812,-3.1885 -20.072833,-10.434 -24.078855,-24.2143 -2.059199,-7.0833 -1.58895,-19.3607 0.940148,-24.5456 2.548138,-5.2239 9.228868,-11.4835 15.564361,-14.58316 6.86797,-3.36018 15.912152,-3.51522 23.965755,-0.41083 4.595414,1.69159 8.475987,3.80079 12.688891,9.83429 5.322168,6.9725 7.58654,12.0753 8.158783,18.3861 0.623105,6.8717 -1.064293,14.7254 -4.575019,21.2936 -4.306929,8.0578 -17.090701,15.7975 -25.664064,15.5377 -1.1,-0.033 -4.25,-0.6181 -7,-1.2995 z m 1.893011,-14.1728 c 1.656799,-4.3175 -0.377966,-12.4182 -3.119267,-12.4182 -0.772875,0 -2.193585,0.4219 -3.157133,0.9376 -1.511747,0.8091 -1.694592,0.5471 -1.333813,-1.9111 0.478696,-3.2615 -2.483513,-5.5737 -5.794485,-4.5228 -2.470748,0.7842 -5.988313,5.2248 -5.988313,7.5597 0,4.5438 6.965039,6.739 9.045837,2.851 1.53686,-2.8717 2.101838,-1.9161 1.045276,1.7679 -0.968418,3.3767 -0.547626,4.4462 2.408887,6.1228 2.880766,1.6335 6.188947,1.4479 6.893011,-0.3869 z m 11.505538,-2.9529 c 1.154221,-1.1008 1.179101,-1.8636 0.142413,-4.3664 -1.655482,-3.9967 -3.488748,-5.4089 -5.99065,-4.6149 -2.858892,0.9074 -4.044912,5.8083 -2.503629,10.3456 0.54611,1.6077 6.204907,0.6833 8.351866,-1.3643 z m 5.198443,-13.1817 c 3.962113,-2.3404 4.199159,-3.7379 2.093254,-12.3406 -1.717494,-7.016 -2.0622,-7.5765 -6.008639,-9.7693 -2.302641,-1.2795 -6.95199,-2.7172 -10.331887,-3.1949 -7.383002,-1.0436 -11.808488,0.7337 -16.788281,6.7422 -4.25671,5.136 -3.989592,9.8762 0.71938,12.7658 1.804451,1.1072 5.179451,3.2425 7.5,4.745 3.674327,2.379 5.232355,2.7342 12.064889,2.75 5.644271,0.013 8.660987,-0.4634 10.751284,-1.6982 z m -11.896992,-7.4836 c -2.549438,-2.5494 -0.116455,-8.8 3.425331,-8.8 3.309691,0 4.490248,2.8198 2.83184,6.764 -1.419012,3.3749 -4.059228,4.2339 -6.257171,2.036 z m -11.805958,-2.2155 c -0.298754,-0.7786 -0.397131,-2.6911 -0.218616,-4.25 0.259962,-2.2702 0.822246,-2.8345 2.824574,-2.8345 1.997204,0 2.564812,0.5652 2.822258,2.8105 0.5109,4.4556 -3.996602,8.0047 -5.428216,4.274 z"
         id="path3014"
         style="fill:#000000;stroke:#ffffff;stroke-width:13.45629883;stroke-miterlimit:4;stroke-opacity:1;stroke-dasharray:none" />
    </g>
    <g
       transform="matrix(0.59451713,0,0,0.59451713,-2.8910456,415.55807)"
       id="g2996">
      <path
         d="m 34.292124,1058.7048 c -7.656132,-2.7578 -7.590383,-2.725 -11.834535,-8.0942 -6.017567,-7.6128 -5.543608,-11.9034 -5.632681,-22.6056 -0.06392,-7.6805 2.07155,-8.6348 4.171406,-12.7454 2.841256,-5.5619 8.230027,-7.7813 14.475703,-11.1073 51.234807,-0.4795 32.302624,51.4092 6.015586,54.6424 z"
         id="path3000"
         style="fill:#ffffff" />
      <path
         d="m 38.642859,1063.096 c -12.867812,-3.1885 -20.072833,-10.434 -24.078855,-24.2143 -2.059199,-7.0833 -1.58895,-19.3607 0.940148,-24.5456 2.548138,-5.2239 9.228868,-11.4835 15.564361,-14.58316 6.86797,-3.36018 15.912152,-3.51522 23.965755,-0.41083 4.595414,1.69159 8.475987,3.80079 12.688891,9.83429 5.322168,6.9725 7.58654,12.0753 8.158783,18.3861 0.623105,6.8717 -1.064293,14.7254 -4.575019,21.2936 -4.306929,8.0578 -17.090701,15.7975 -25.664064,15.5377 -1.1,-0.033 -4.25,-0.6181 -7,-1.2995 z m 1.893011,-14.1728 c 1.656799,-4.3175 -0.377966,-12.4182 -3.119267,-12.4182 -0.772875,0 -2.193585,0.4219 -3.157133,0.9376 -1.511747,0.8091 -1.694592,0.5471 -1.333813,-1.9111 0.478696,-3.2615 -2.483513,-5.5737 -5.794485,-4.5228 -2.470748,0.7842 -5.988313,5.2248 -5.988313,7.5597 0,4.5438 6.965039,6.739 9.045837,2.851 1.53686,-2.8717 2.101838,-1.9161 1.045276,1.7679 -0.968418,3.3767 -0.547626,4.4462 2.408887,6.1228 2.880766,1.6335 6.188947,1.4479 6.893011,-0.3869 z m 11.505538,-2.9529 c 1.154221,-1.1008 1.179101,-1.8636 0.142413,-4.3664 -1.655482,-3.9967 -3.488748,-5.4089 -5.99065,-4.6149 -2.858892,0.9074 -4.044912,5.8083 -2.503629,10.3456 0.54611,1.6077 6.204907,0.6833 8.351866,-1.3643 z m 5.198443,-13.1817 c 3.962113,-2.3404 4.199159,-3.7379 2.093254,-12.3406 -1.717494,-7.016 -2.0622,-7.5765 -6.008639,-9.7693 -2.302641,-1.2795 -6.95199,-2.7172 -10.331887,-3.1949 -7.383002,-1.0436 -11.808488,0.7337 -16.788281,6.7422 -4.25671,5.136 -3.989592,9.8762 0.71938,12.7658 1.804451,1.1072 5.179451,3.2425 7.5,4.745 3.674327,2.379 5.232355,2.7342 12.064889,2.75 5.644271,0.013 8.660987,-0.4634 10.751284,-1.6982 z m -11.896992,-7.4836 c -2.549438,-2.5494 -0.116455,-8.8 3.425331,-8.8 3.309691,0 4.490248,2.8198 2.83184,6.764 -1.419012,3.3749 -4.059228,4.2339 -6.257171,2.036 z m -11.805958,-2.2155 c -0.298754,-0.7786 -0.397131,-2.6911 -0.218616,-4.25 0.259962,-2.2702 0.822246,-2.8345 2.824574,-2.8345 1.997204,0 2.564812,0.5652 2.822258,2.8105 0.5109,4.4556 -3.996602,8.0047 -5.428216,4.274 z"
         id="path2998"
         style="fill:#000000" />
    </g>
  </g>
</svg>
