<?xml version="1.0" encoding="UTF-8" standalone="no"?>
<!-- Generator: Adobe Illustrator 15.0.0, SVG Export Plug-In  -->

<svg
   xmlns:dc="http://purl.org/dc/elements/1.1/"
   xmlns:cc="http://creativecommons.org/ns#"
   xmlns:rdf="http://www.w3.org/1999/02/22-rdf-syntax-ns#"
   xmlns:svg="http://www.w3.org/2000/svg"
   xmlns="http://www.w3.org/2000/svg"
   xmlns:xlink="http://www.w3.org/1999/xlink"
   xmlns:sodipodi="http://sodipodi.sourceforge.net/DTD/sodipodi-0.dtd"
   xmlns:inkscape="http://www.inkscape.org/namespaces/inkscape"
   version="1.1"
   x="0px"
   y="0px"
   width="48"
   height="48"
   viewBox="410.3 55.5 48 48"
   enable-background="new 410.3 55.5 149 149"
   xml:space="preserve"
   id="svg2"
   inkscape:version="0.48.3.1 r9886"
   sodipodi:docname="warsow.svg"><metadata
   id="metadata50"><rdf:RDF><cc:Work
       rdf:about=""><dc:format>image/svg+xml</dc:format><dc:type
         rdf:resource="http://purl.org/dc/dcmitype/StillImage" /></cc:Work></rdf:RDF></metadata><sodipodi:namedview
   pagecolor="#ffffff"
   bordercolor="#666666"
   borderopacity="1"
   objecttolerance="10"
   gridtolerance="10"
   guidetolerance="10"
   inkscape:pageopacity="0"
   inkscape:pageshadow="2"
   inkscape:window-width="1366"
   inkscape:window-height="717"
   id="namedview48"
   showgrid="false"
   inkscape:zoom="6.3355705"
   inkscape:cx="-14.755891"
   inkscape:cy="36.85941"
   inkscape:window-x="0"
   inkscape:window-y="0"
   inkscape:window-maximized="1"
   inkscape:current-layer="layer1" />
<defs
   id="defs4">

		
		
	
		<defs
   id="defs22">
			<circle
   id="_x3C_Clipping_Path_x3E__1_"
   cx="484.5"
   cy="129.8"
   r="64.400002"
   sodipodi:cx="484.5"
   sodipodi:cy="129.8"
   sodipodi:rx="64.400002"
   sodipodi:ry="64.400002" />
		</defs>
		<defs
   id="defs25">
			<circle
   id="poop_1_"
   cx="484.5"
   cy="129.8"
   r="64.400002"
   sodipodi:cx="484.5"
   sodipodi:cy="129.8"
   sodipodi:rx="64.400002"
   sodipodi:ry="64.400002" />
		</defs>
		
		
		<clipPath
   id="_x3C_Clipping_Path_x3E__2_">
			<use
   xlink:href="#_x3C_Clipping_Path_x3E__1_"
   display="none"
   overflow="visible"
   id="use33"
   style="display:none;overflow:visible"
   x="0"
   y="0"
   width="149"
   height="149" />
		</clipPath>
		<clipPath
   id="poop_2_"
   clip-path="url(#_x3C_Clipping_Path_x3E__2_)">
			<use
   xlink:href="#poop_1_"
   overflow="visible"
   id="use36"
   style="overflow:visible"
   x="0"
   y="0"
   width="149"
   height="149" />
		</clipPath>
		
	
			
		
	<defs
   id="defs8">
		<rect
   height="142.3"
   width="149"
   y="58.599998"
   x="410.39999"
   id="SVGID_1_" />
	</defs>
	<clipPath
   id="SVGID_2_">
		<use
   height="149"
   width="149"
   y="0"
   x="0"
   style="overflow:visible"
   id="use12"
   overflow="visible"
   xlink:href="#SVGID_1_" />
	</clipPath>
	
	
	

		
		
	</defs>

<g
   inkscape:groupmode="layer"
   id="layer1"
   inkscape:label="Layer 1"
   style="display:inline"><circle
     d="m 548.9,129.8 c 0,35.56714 -28.83286,64.4 -64.4,64.4 -35.56714,0 -64.4,-28.83286 -64.4,-64.4 0,-35.567136 28.83286,-64.399998 64.4,-64.399998 35.56714,0 64.4,28.832862 64.4,64.399998 z"
     style="fill:#231f20;stroke:#000000;stroke-width:3.58046746;stroke-miterlimit:4;stroke-opacity:1;stroke-dasharray:none"
     sodipodi:ry="64.400002"
     sodipodi:rx="64.400002"
     sodipodi:cy="129.8"
     sodipodi:cx="484.5"
     id="circle16"
     r="64.400002"
     cy="129.8"
     cx="484.5"
     stroke-miterlimit="3.8637"
     transform="matrix(0.27929314,0,0,0.27929314,298.96895,43.261271)" /><path
     style="fill:#231f20;stroke:#000000;stroke-width:1;stroke-miterlimit:4;stroke-opacity:1;stroke-dasharray:none"
     inkscape:connector-curvature="0"
     id="path18"
     d="M 434.28648,79.513521"
     stroke-miterlimit="3.8637" /><path
     style="fill:#ffffff;stroke:#ffffff;stroke-width:10;stroke-miterlimit:4;stroke-opacity:1;stroke-dasharray:none;stroke-linejoin:round;stroke-linecap:round"
     inkscape:connector-curvature="0"
     id="path3768"
     d="m 437.91729,77.50261 h -5.16693 l -1.53611,3.910104 h 5.16692 l 1.53612,-3.910104 z m 14.7746,-10.054553 -1.73161,4.46869 h -21.28214 l 1.95505,1.675759 h 13.2385 l -3.32359,8.518441 4.04975,3.491164 -2.40192,6.144449 h -27.1473 l 1.73162,-4.46869 h 21.17042 l -1.92712,-1.675759 h -12.65198 l 3.18394,-8.211218 -4.3849,-3.798387 2.40192,-6.144449 h 27.11936 z" /><use
     height="149"
     width="149"
     y="0"
     x="0"
     style="fill:#000000;fill-opacity:1;stroke:#000000;stroke-width:5.37070131;stroke-miterlimit:4;stroke-opacity:1;stroke-dasharray:none;display:none;overflow:visible"
     id="use28"
     overflow="visible"
     display="none"
     xlink:href="#_x3C_Clipping_Path_x3E__1_"
     transform="matrix(0.27929314,0,0,0.27929314,280.66645,36.953121)" /><use
     transform="matrix(0.27929314,0,0,0.27929314,298.96895,43.261271)"
     xlink:href="#poop_1_"
     overflow="visible"
     id="use4380"
     style="fill:#000000;fill-opacity:1;stroke:#ffffff;stroke-width:35.80467462;stroke-miterlimit:4;stroke-opacity:1;stroke-dasharray:none;overflow:visible"
     x="0"
     y="0"
     width="149"
     height="149" /><use
     height="149"
     width="149"
     y="0"
     x="0"
     style="fill:#000000;fill-opacity:1;stroke:#000000;stroke-width:5.37070131;stroke-miterlimit:4;stroke-opacity:1;stroke-dasharray:none;overflow:visible"
     id="use30"
     overflow="visible"
     xlink:href="#poop_1_"
     transform="matrix(0.27929314,0,0,0.27929314,298.96895,43.261271)" /><path
     d="m 437.91729,77.50261 h -5.16693 l -1.53611,3.910104 h 5.16692 l 1.53612,-3.910104 z m 14.7746,-10.054553 -1.73161,4.46869 h -21.28214 l 1.95505,1.675759 h 13.2385 l -3.32359,8.518441 4.04975,3.491164 -2.40192,6.144449 h -27.1473 l 1.73162,-4.46869 h 21.17042 l -1.92712,-1.675759 h -12.65198 l 3.18394,-8.211218 -4.3849,-3.798387 2.40192,-6.144449 h 27.11936 z"
     id="path46"
     inkscape:connector-curvature="0"
     style="fill:#ffffff;stroke:#000000;stroke-width:1.5;stroke-miterlimit:4;stroke-opacity:1;stroke-dasharray:none" /></g></svg>