<?xml version="1.0" encoding="UTF-8" standalone="no"?>
<!-- Created with Inkscape (http://www.inkscape.org/) -->

<svg
   xmlns:dc="http://purl.org/dc/elements/1.1/"
   xmlns:cc="http://creativecommons.org/ns#"
   xmlns:rdf="http://www.w3.org/1999/02/22-rdf-syntax-ns#"
   xmlns:svg="http://www.w3.org/2000/svg"
   xmlns="http://www.w3.org/2000/svg"
   version="1.1"
   width="48"
   height="48"
   id="svg2">
  <defs
     id="defs4" />
  <metadata
     id="metadata7">
    <rdf:RDF>
      <cc:Work
         rdf:about="">
        <dc:format>image/svg+xml</dc:format>
        <dc:type
           rdf:resource="http://purl.org/dc/dcmitype/StillImage" />
        <dc:title></dc:title>
      </cc:Work>
    </rdf:RDF>
  </metadata>
  <g
     transform="translate(0,-1004.3622)"
     id="layer1">
    <g
       transform="matrix(0.11444435,0,0,0.11444435,-35.034266,999.75515)"
       id="g3816"
       style="stroke:#ffffff;stroke-width:69.90296936;stroke-miterlimit:4;stroke-opacity:1;stroke-dasharray:none">
      <g
         transform="translate(142.85714,-451.42857)"
         id="g3818"
         style="fill:#000000;stroke:#ffffff;stroke-width:69.90296936;stroke-miterlimit:4;stroke-opacity:1;stroke-dasharray:none">
        <path
           d="m 391.46414,848.56952 c -13.70394,-2.48275 -32.28727,-9.85521 -44.88139,-17.80553 -7.28026,-4.59583 -7.76444,-0.92416 6.70776,-50.86705 7.223,-24.92626 14.49476,-50.04546 16.15945,-55.82046 1.66469,-5.775 3.48885,-11.0625 4.05368,-11.75 1.82172,-2.21735 4.70879,-1.35856 14.18839,4.22048 30.43622,17.91267 61.0812,20.29025 103.58761,8.0368 12.76787,-3.68063 16.4486,-3.84008 17.42706,-0.75496 0.81044,2.55537 -30.05234,109.32348 -32.2313,111.50244 -3.39882,3.39883 -30.37704,11.67551 -44.68968,13.7104 -9.69355,1.37818 -31.51916,1.12263 -40.32158,-0.47212 z"
           id="path3820"
           style="fill:#000000;stroke:#ffffff;stroke-width:69.90296936;stroke-miterlimit:4;stroke-opacity:1;stroke-dasharray:none" />
        <path
           d="m 432.87047,718.03902 c -8.52901,-1.34367 -19.79846,-4.58129 -27.8033,-7.98766 -9.16063,-3.8982 -25.37992,-13.48611 -26.13286,-15.44826 -0.32746,-0.85334 0.99944,-7.05843 2.94867,-13.78908 6.30608,-21.77481 18.12698,-62.77399 23.42244,-81.23754 3.09551,-10.79305 5.93997,-18.80077 7.1043,-20 2.21143,-2.27772 -0.26003,-3.26791 18.376,7.36233 9.84738,5.61708 23.13207,10.4071 33.92711,12.233 4.2994,0.72721 12.07582,0.96084 20.5,0.61589 15.28285,-0.62579 30.74127,-3.9529 47.18443,-10.15548 10.42903,-3.93397 13.0388,-4.28444 14.93054,-2.00504 1.38097,1.66397 0.42278,5.23658 -21.81995,81.35617 -8.24747,28.22465 -10.14649,33.6934 -12.24194,35.25398 -3.96761,2.95486 -21.04419,8.62846 -34.27612,11.38805 -13.63839,2.84436 -35.96762,4.01295 -46.11932,2.41364 z"
           id="path3822"
           style="fill:#000000;stroke:#ffffff;stroke-width:69.90296936;stroke-miterlimit:4;stroke-opacity:1;stroke-dasharray:none" />
        <path
           d="m 355.3074,678.52451 c -9.10437,-5.4194 -19.60914,-9.87245 -29.84625,-12.65203 -6.10648,-1.65803 -10.6394,-2.08731 -22.17543,-2.10006 -16.86034,-0.0186 -26.55218,1.79231 -47.451,8.86641 -12.09129,4.09281 -13.07136,4.27489 -14.76414,2.74295 -0.99722,-0.90247 -1.61344,-2.35286 -1.36937,-3.22308 14.71227,-52.45557 32.13536,-110.96091 33.41526,-112.20579 1.72638,-1.67914 11.57,-5.56194 21.16925,-8.35018 29.9716,-8.70568 55.23485,-8.84303 77.11027,-0.41922 8.23245,3.17016 27.40647,14.19124 28.17539,16.19499 0.68957,1.797 -31.25236,111.87819 -33.06394,113.94798 -2.10649,2.40672 -2.69845,2.25862 -11.20004,-2.80197 z"
           id="path3824"
           style="fill:#000000;stroke:#ffffff;stroke-width:69.90296936;stroke-miterlimit:4;stroke-opacity:1;stroke-dasharray:none" />
        <path
           d="m 313.87883,812.09594 c -9.10437,-5.4194 -19.60914,-9.87245 -29.84625,-12.65203 -6.10648,-1.65803 -10.6394,-2.08731 -22.17543,-2.10006 -16.86034,-0.0186 -26.55218,1.79231 -47.451,8.86641 -12.09129,4.09281 -13.07136,4.27489 -14.76414,2.74295 -0.99722,-0.90247 -1.61344,-2.35286 -1.36937,-3.22308 14.71227,-52.45557 32.13536,-110.96091 33.41526,-112.20579 1.72638,-1.67914 11.57,-5.56194 21.16925,-8.35018 29.9716,-8.70568 55.23485,-8.84303 77.11027,-0.41922 8.23245,3.17016 27.40647,14.19124 28.17539,16.19499 0.68957,1.797 -31.25236,111.87819 -33.06394,113.94798 -2.10649,2.40672 -2.69845,2.25862 -11.20004,-2.80197 z"
           id="path3826"
           style="fill:#000000;stroke:#ffffff;stroke-width:69.90296936;stroke-miterlimit:4;stroke-opacity:1;stroke-dasharray:none" />
      </g>
    </g>
    <g
       transform="matrix(0.11444435,0,0,0.11444435,-35.034266,999.75515)"
       id="g3010">
      <g
         transform="translate(142.85714,-451.42857)"
         id="g2996"
         style="fill:#000000">
        <path
           d="m 391.46414,848.56952 c -13.70394,-2.48275 -32.28727,-9.85521 -44.88139,-17.80553 -7.28026,-4.59583 -7.76444,-0.92416 6.70776,-50.86705 7.223,-24.92626 14.49476,-50.04546 16.15945,-55.82046 1.66469,-5.775 3.48885,-11.0625 4.05368,-11.75 1.82172,-2.21735 4.70879,-1.35856 14.18839,4.22048 30.43622,17.91267 61.0812,20.29025 103.58761,8.0368 12.76787,-3.68063 16.4486,-3.84008 17.42706,-0.75496 0.81044,2.55537 -30.05234,109.32348 -32.2313,111.50244 -3.39882,3.39883 -30.37704,11.67551 -44.68968,13.7104 -9.69355,1.37818 -31.51916,1.12263 -40.32158,-0.47212 z"
           id="path3006"
           style="fill:#000000" />
        <path
           d="m 432.87047,718.03902 c -8.52901,-1.34367 -19.79846,-4.58129 -27.8033,-7.98766 -9.16063,-3.8982 -25.37992,-13.48611 -26.13286,-15.44826 -0.32746,-0.85334 0.99944,-7.05843 2.94867,-13.78908 6.30608,-21.77481 18.12698,-62.77399 23.42244,-81.23754 3.09551,-10.79305 5.93997,-18.80077 7.1043,-20 2.21143,-2.27772 -0.26003,-3.26791 18.376,7.36233 9.84738,5.61708 23.13207,10.4071 33.92711,12.233 4.2994,0.72721 12.07582,0.96084 20.5,0.61589 15.28285,-0.62579 30.74127,-3.9529 47.18443,-10.15548 10.42903,-3.93397 13.0388,-4.28444 14.93054,-2.00504 1.38097,1.66397 0.42278,5.23658 -21.81995,81.35617 -8.24747,28.22465 -10.14649,33.6934 -12.24194,35.25398 -3.96761,2.95486 -21.04419,8.62846 -34.27612,11.38805 -13.63839,2.84436 -35.96762,4.01295 -46.11932,2.41364 z"
           id="path3004"
           style="fill:#000000" />
        <path
           d="m 355.3074,678.52451 c -9.10437,-5.4194 -19.60914,-9.87245 -29.84625,-12.65203 -6.10648,-1.65803 -10.6394,-2.08731 -22.17543,-2.10006 -16.86034,-0.0186 -26.55218,1.79231 -47.451,8.86641 -12.09129,4.09281 -13.07136,4.27489 -14.76414,2.74295 -0.99722,-0.90247 -1.61344,-2.35286 -1.36937,-3.22308 14.71227,-52.45557 32.13536,-110.96091 33.41526,-112.20579 1.72638,-1.67914 11.57,-5.56194 21.16925,-8.35018 29.9716,-8.70568 55.23485,-8.84303 77.11027,-0.41922 8.23245,3.17016 27.40647,14.19124 28.17539,16.19499 0.68957,1.797 -31.25236,111.87819 -33.06394,113.94798 -2.10649,2.40672 -2.69845,2.25862 -11.20004,-2.80197 z"
           id="path2998"
           style="fill:#000000" />
        <path
           d="m 313.87883,812.09594 c -9.10437,-5.4194 -19.60914,-9.87245 -29.84625,-12.65203 -6.10648,-1.65803 -10.6394,-2.08731 -22.17543,-2.10006 -16.86034,-0.0186 -26.55218,1.79231 -47.451,8.86641 -12.09129,4.09281 -13.07136,4.27489 -14.76414,2.74295 -0.99722,-0.90247 -1.61344,-2.35286 -1.36937,-3.22308 14.71227,-52.45557 32.13536,-110.96091 33.41526,-112.20579 1.72638,-1.67914 11.57,-5.56194 21.16925,-8.35018 29.9716,-8.70568 55.23485,-8.84303 77.11027,-0.41922 8.23245,3.17016 27.40647,14.19124 28.17539,16.19499 0.68957,1.797 -31.25236,111.87819 -33.06394,113.94798 -2.10649,2.40672 -2.69845,2.25862 -11.20004,-2.80197 z"
           id="path3008"
           style="fill:#000000" />
      </g>
    </g>
  </g>
</svg>
