<?xml version="1.0" encoding="UTF-8" standalone="no"?>
<!-- Created with Inkscape (http://www.inkscape.org/) -->

<svg
   xmlns:dc="http://purl.org/dc/elements/1.1/"
   xmlns:cc="http://creativecommons.org/ns#"
   xmlns:rdf="http://www.w3.org/1999/02/22-rdf-syntax-ns#"
   xmlns:svg="http://www.w3.org/2000/svg"
   xmlns="http://www.w3.org/2000/svg"
   version="1.1"
   width="48"
   height="48"
   id="svg2">
  <metadata
     id="metadata8">
    <rdf:RDF>
      <cc:Work
         rdf:about="">
        <dc:format>image/svg+xml</dc:format>
        <dc:type
           rdf:resource="http://purl.org/dc/dcmitype/StillImage" />
        <dc:title></dc:title>
      </cc:Work>
    </rdf:RDF>
  </metadata>
  <defs
     id="defs6" />
  <g
     transform="matrix(0.3302734,0,0,0.3302734,2.4928001,4.1304536)"
     id="g3046"
     style="stroke:#ffffff;stroke-width:24.2223568;stroke-linecap:round;stroke-linejoin:round;stroke-miterlimit:4;stroke-opacity:1;stroke-dasharray:none">
    <path
       d="M 47.219969,119.05181 C 27.843564,113.79058 14.137891,101.87657 7.3311429,84.377419 4.8092429,77.893984 4.6516894,76.497484 4.5808753,60 4.506699,42.719223 4.5421657,42.421074 7.4120975,36.199518 11.086808,28.23333 18.163406,21.622891 25.278656,19.509889 28.075047,18.67945 30.781064,18 31.292029,18 31.802993,18 35.433818,16.419165 39.360528,14.487033 46.840751,10.806399 57.716786,8.0225338 64.5,8.0522516 c 11.70503,0.051281 30.830957,6.2787054 36.40613,11.8538804 2.92705,2.927047 2.62931,3.902793 -1.422875,4.662987 -5.197088,0.97498 -9.051875,5.139172 -11.017982,11.902342 -2.126269,7.314109 -1.466205,12.646276 2.211811,17.867584 5.602164,7.952826 16.078156,10.771327 24.992236,6.724007 5.02653,-2.282229 6.60705,-4.930835 6.4878,-10.8721 -0.21223,-10.573182 -6.38767,-21.299432 -14.60628,-25.110571 0,0 -2.91843,-1.079826 -5.49999,-1.093373 -3.773169,-0.0198 -3.601698,-2.991678 -3.601698,-2.991678 l 8.830508,0.610617 c 4.70429,0.325295 9.4076,5.29557 12.87483,10.458148 4.91818,7.323001 7.03454,15.712628 4.34108,23.346701 -0.9137,2.589707 -2.19333,5.345498 -1.83895,8.3377 1.50413,12.700035 -5.67209,32.534602 -15.10216,41.741294 -10.08932,9.85033 -22.333609,14.3457 -41.05446,15.07273 -9.865556,0.38313 -13.294902,0.11442 -19.280031,-1.51071 z M 32.555807,67.113873 C 44.606524,61.640272 52.238138,39.614886 45.343203,30.208529 40.571297,23.698495 29.991649,21.991844 23.01756,26.607077 18.493102,29.601222 11.774435,37.902267 9.5323607,43.268307 5.5415226,52.819727 10.231869,64.221185 19.5,67.49799 c 5.359501,1.894884 8.223878,1.810611 13.055807,-0.384117 z M 17.454545,50.545455 C 15.907308,48.998217 15,46.948373 15,45 c 0,-3.839468 3.900499,-8 7.5,-8 3.736401,0 7.5,4.15513 7.5,8.280231 0,6.877819 -7.700869,10.109809 -12.545455,5.265224 z M 105.3438,49.075379 c -2.92621,-3.11481 -3.78914,-6.77179 -0.62496,-9.935966 2.07002,-2.070025 3.31752,-2.277917 5.88558,-1.782042 6.42539,1.240702 8.50616,7.809398 4.05967,12.25588 -3.14962,3.149619 -6.43792,2.530267 -9.32029,-0.537872 z"
       id="path3048"
       style="fill:#000000;stroke:#ffffff;stroke-width:24.2223568;stroke-linecap:round;stroke-linejoin:round;stroke-miterlimit:4;stroke-opacity:1;stroke-dasharray:none" />
    <path
       d="M 52.927167,118.99545 C 27.77364,115.02681 9.4064878,97.018861 5.9976992,72.983777 5.4616592,69.204204 5.3751166,65.160184 5.8053823,63.997065 c 0.7218142,-1.95125 1.1127107,-1.722915 5.0556127,2.953133 4.778965,5.66757 8.046356,7.691539 13.937617,8.633589 10.041707,1.605734 22.631895,-7.247584 27.182879,-19.114779 3.203204,-8.352713 3.247774,-19.298236 0.105018,-25.790304 C 50.082642,26.539266 48.966206,25.571037 42.923927,22.732451 39.139558,20.954603 36.179081,19.05 36.345087,18.5 36.855754,16.808098 44.26306,13.166532 50.496418,11.542949 57.397116,9.745545 70.614307,9.5294953 78.200779,11.09009 c 6.107309,1.25632 22.079101,8.591451 21.612774,9.925783 -0.172454,0.493456 -2.327511,1.959696 -4.789016,3.258312 -3.231863,1.705034 -5.138464,3.649456 -6.86147,6.997582 -3.238334,6.292697 -4.019678,16.196707 -1.747218,22.14706 2.022893,5.296868 8.788649,11.8335 14.043261,13.567677 4.70573,1.553031 11.72151,0.694493 16.27389,-1.991475 C 118.59273,63.897763 120.3136,63 120.55716,63 c 1.01869,0 0.30243,11.970145 -1.06273,17.760268 -4.40544,18.685042 -17.49417,31.752792 -36.714427,36.655572 -7.402134,1.88817 -22.749992,2.70027 -29.852836,1.57961 z M 18.07258,49.365141 C 16.932661,47.915969 16,45.870514 16,44.819687 16,42.504368 20.293216,38 22.5,38 24.900229,38 29,42.59189 29,45.280231 29,48.164661 25.152046,52 22.258129,52 21.095996,52 19.212499,50.814314 18.07258,49.365141 z M 108,49 c -2.48237,-2.482375 -2.61224,-4.90269 -0.25737,-7.810826 2.22517,-2.747976 5.97491,-3.530798 7.37006,-0.690841 C 118.52439,47.443196 113.49522,54.495219 108,49 z"
       id="path3050"
       style="fill:#000000;stroke:#ffffff;stroke-width:24.2223568;stroke-linecap:round;stroke-linejoin:round;stroke-miterlimit:4;stroke-opacity:1;stroke-dasharray:none" />
    <path
       d="M 53.547238,117.9372 C 41.137545,116.02776 31.049111,111.13388 22.398244,102.82689 13.081427,93.880427 7.041428,81.038486 7.0118689,70.113158 L 7,65.726316 l 4.778166,4.469415 c 6.061838,5.67014 12.555062,8.250629 18.960097,7.534981 L 35.5,77.198673 30.75,79.618503 C 28.1375,80.94941 26,82.277055 26,82.568827 c 0,3.370251 9.237211,13.035896 13.224789,13.838172 24.046535,4.838011 44.179323,1.714068 55.357562,-8.589673 8.260169,-7.61396 7.969659,-10.957868 -1.370003,-15.769373 C 79.626667,65.049031 75.087501,52.305268 80.125633,35.306839 81.298215,31.3506 81.979955,27.390148 81.640612,26.505833 80.59626,23.784295 72.276029,20.829798 64.07279,20.267535 c -6.41071,-0.439399 -7.956732,-0.240736 -9.40616,1.208692 -1.102294,1.102294 -1.499722,2.474294 -1.090351,3.764108 0.589559,1.857536 0.359311,1.812786 -2.716056,-0.527885 -1.848123,-1.406611 -5.580432,-3.427778 -8.29402,-4.491481 l -4.933797,-1.934006 2.433797,-1.552144 c 8.134931,-5.188017 25.507374,-7.1428456 38.261378,-4.305349 7.207248,1.60346 19.725629,6.960537 19.625747,8.39858 -0.02567,0.369572 -1.938169,1.601773 -4.25,2.738223 -3.305493,1.624915 -4.844131,3.31862 -7.203328,7.929295 -2.552867,4.989171 -3,6.991393 -3,13.433727 0,6.424594 0.408814,8.266107 2.700448,12.164221 4.515231,7.680498 11.594356,12.174026 19.247582,12.217547 4.25156,0.02418 7.9175,-1.062609 13.80197,-4.091664 1.31629,-0.677564 0.80504,9.14836 -0.79713,15.320502 -2.47926,9.55102 -5.97891,16.11168 -11.91315,22.333099 -3.04828,3.19581 -7.758208,7.01659 -10.466503,8.49063 -10.026014,5.45684 -29.859064,8.52259 -42.525979,6.57357 z M 18.654988,49.171259 C 16.429687,46.71233 16.5682,43.4318 19,41 21.406924,38.593076 22.840182,38.499331 25.777494,40.556704 30.033668,43.537844 27.567613,51 22.326247,51 21.217297,51 19.565231,50.177067 18.654988,49.171259 z M 108.57143,48.428571 C 106.43121,46.288357 106.59772,43.402281 109,41 c 2.40751,-2.40751 1.42581,-2.514425 4.28596,-0.511093 2.4485,1.714995 3.07936,5.983065 1.09031,7.97211 -1.68275,1.682749 -3.93979,1.832601 -5.80484,-0.03245 z"
       id="path3052"
       style="fill:#000000;stroke:#ffffff;stroke-width:24.2223568;stroke-linecap:round;stroke-linejoin:round;stroke-miterlimit:4;stroke-opacity:1;stroke-dasharray:none" />
  </g>
  <g
     transform="matrix(0.3302734,0,0,0.3302734,2.4928001,4.1304536)"
     id="g3029">
    <path
       d="M 47.219969,119.05181 C 27.843564,113.79058 14.137891,101.87657 7.3311429,84.377419 4.8092429,77.893984 4.6516894,76.497484 4.5808753,60 4.506699,42.719223 4.5421657,42.421074 7.4120975,36.199518 11.086808,28.23333 18.163406,21.622891 25.278656,19.509889 28.075047,18.67945 30.781064,18 31.292029,18 31.802993,18 35.433818,16.419165 39.360528,14.487033 46.840751,10.806399 57.716786,8.0225338 64.5,8.0522516 c 11.70503,0.051281 30.830957,6.2787054 36.40613,11.8538804 2.92705,2.927047 2.62931,3.902793 -1.422875,4.662987 -5.197088,0.97498 -9.051875,5.139172 -11.017982,11.902342 -2.126269,7.314109 -1.466205,12.646276 2.211811,17.867584 5.602164,7.952826 16.078156,10.771327 24.992236,6.724007 5.02653,-2.282229 6.60705,-4.930835 6.4878,-10.8721 -0.21223,-10.573182 -6.38767,-21.299432 -14.60628,-25.110571 0,0 -2.91843,-1.079826 -5.49999,-1.093373 -3.773169,-0.0198 -3.601698,-2.991678 -3.601698,-2.991678 l 8.830508,0.610617 c 4.70429,0.325295 9.4076,5.29557 12.87483,10.458148 4.91818,7.323001 7.03454,15.712628 4.34108,23.346701 -0.9137,2.589707 -2.19333,5.345498 -1.83895,8.3377 1.50413,12.700035 -5.67209,32.534602 -15.10216,41.741294 -10.08932,9.85033 -22.333609,14.3457 -41.05446,15.07273 -9.865556,0.38313 -13.294902,0.11442 -19.280031,-1.51071 z M 32.555807,67.113873 C 44.606524,61.640272 52.238138,39.614886 45.343203,30.208529 40.571297,23.698495 29.991649,21.991844 23.01756,26.607077 18.493102,29.601222 11.774435,37.902267 9.5323607,43.268307 5.5415226,52.819727 10.231869,64.221185 19.5,67.49799 c 5.359501,1.894884 8.223878,1.810611 13.055807,-0.384117 z M 17.454545,50.545455 C 15.907308,48.998217 15,46.948373 15,45 c 0,-3.839468 3.900499,-8 7.5,-8 3.736401,0 7.5,4.15513 7.5,8.280231 0,6.877819 -7.700869,10.109809 -12.545455,5.265224 z M 105.3438,49.075379 c -2.92621,-3.11481 -3.78914,-6.77179 -0.62496,-9.935966 2.07002,-2.070025 3.31752,-2.277917 5.88558,-1.782042 6.42539,1.240702 8.50616,7.809398 4.05967,12.25588 -3.14962,3.149619 -6.43792,2.530267 -9.32029,-0.537872 z"
       id="path3035"
       style="fill:#000000" />
    <path
       d="M 52.927167,118.99545 C 27.77364,115.02681 9.4064878,97.018861 5.9976992,72.983777 5.4616592,69.204204 5.3751166,65.160184 5.8053823,63.997065 c 0.7218142,-1.95125 1.1127107,-1.722915 5.0556127,2.953133 4.778965,5.66757 8.046356,7.691539 13.937617,8.633589 10.041707,1.605734 22.631895,-7.247584 27.182879,-19.114779 3.203204,-8.352713 3.247774,-19.298236 0.105018,-25.790304 C 50.082642,26.539266 48.966206,25.571037 42.923927,22.732451 39.139558,20.954603 36.179081,19.05 36.345087,18.5 36.855754,16.808098 44.26306,13.166532 50.496418,11.542949 57.397116,9.745545 70.614307,9.5294953 78.200779,11.09009 c 6.107309,1.25632 22.079101,8.591451 21.612774,9.925783 -0.172454,0.493456 -2.327511,1.959696 -4.789016,3.258312 -3.231863,1.705034 -5.138464,3.649456 -6.86147,6.997582 -3.238334,6.292697 -4.019678,16.196707 -1.747218,22.14706 2.022893,5.296868 8.788649,11.8335 14.043261,13.567677 4.70573,1.553031 11.72151,0.694493 16.27389,-1.991475 C 118.59273,63.897763 120.3136,63 120.55716,63 c 1.01869,0 0.30243,11.970145 -1.06273,17.760268 -4.40544,18.685042 -17.49417,31.752792 -36.714427,36.655572 -7.402134,1.88817 -22.749992,2.70027 -29.852836,1.57961 z M 18.07258,49.365141 C 16.932661,47.915969 16,45.870514 16,44.819687 16,42.504368 20.293216,38 22.5,38 24.900229,38 29,42.59189 29,45.280231 29,48.164661 25.152046,52 22.258129,52 21.095996,52 19.212499,50.814314 18.07258,49.365141 z M 108,49 c -2.48237,-2.482375 -2.61224,-4.90269 -0.25737,-7.810826 2.22517,-2.747976 5.97491,-3.530798 7.37006,-0.690841 C 118.52439,47.443196 113.49522,54.495219 108,49 z"
       id="path3033"
       style="fill:#000000" />
    <path
       d="M 53.547238,117.9372 C 41.137545,116.02776 31.049111,111.13388 22.398244,102.82689 13.081427,93.880427 7.041428,81.038486 7.0118689,70.113158 L 7,65.726316 l 4.778166,4.469415 c 6.061838,5.67014 12.555062,8.250629 18.960097,7.534981 L 35.5,77.198673 30.75,79.618503 C 28.1375,80.94941 26,82.277055 26,82.568827 c 0,3.370251 9.237211,13.035896 13.224789,13.838172 24.046535,4.838011 44.179323,1.714068 55.357562,-8.589673 8.260169,-7.61396 7.969659,-10.957868 -1.370003,-15.769373 C 79.626667,65.049031 75.087501,52.305268 80.125633,35.306839 81.298215,31.3506 81.979955,27.390148 81.640612,26.505833 80.59626,23.784295 72.276029,20.829798 64.07279,20.267535 c -6.41071,-0.439399 -7.956732,-0.240736 -9.40616,1.208692 -1.102294,1.102294 -1.499722,2.474294 -1.090351,3.764108 0.589559,1.857536 0.359311,1.812786 -2.716056,-0.527885 -1.848123,-1.406611 -5.580432,-3.427778 -8.29402,-4.491481 l -4.933797,-1.934006 2.433797,-1.552144 c 8.134931,-5.188017 25.507374,-7.1428456 38.261378,-4.305349 7.207248,1.60346 19.725629,6.960537 19.625747,8.39858 -0.02567,0.369572 -1.938169,1.601773 -4.25,2.738223 -3.305493,1.624915 -4.844131,3.31862 -7.203328,7.929295 -2.552867,4.989171 -3,6.991393 -3,13.433727 0,6.424594 0.408814,8.266107 2.700448,12.164221 4.515231,7.680498 11.594356,12.174026 19.247582,12.217547 4.25156,0.02418 7.9175,-1.062609 13.80197,-4.091664 1.31629,-0.677564 0.80504,9.14836 -0.79713,15.320502 -2.47926,9.55102 -5.97891,16.11168 -11.91315,22.333099 -3.04828,3.19581 -7.758208,7.01659 -10.466503,8.49063 -10.026014,5.45684 -29.859064,8.52259 -42.525979,6.57357 z M 18.654988,49.171259 C 16.429687,46.71233 16.5682,43.4318 19,41 21.406924,38.593076 22.840182,38.499331 25.777494,40.556704 30.033668,43.537844 27.567613,51 22.326247,51 21.217297,51 19.565231,50.177067 18.654988,49.171259 z M 108.57143,48.428571 C 106.43121,46.288357 106.59772,43.402281 109,41 c 2.40751,-2.40751 1.42581,-2.514425 4.28596,-0.511093 2.4485,1.714995 3.07936,5.983065 1.09031,7.97211 -1.68275,1.682749 -3.93979,1.832601 -5.80484,-0.03245 z"
       id="path3031"
       style="fill:#000000" />
  </g>
</svg>
