<?xml version="1.0" encoding="UTF-8" standalone="no"?>
<!-- Created with Inkscape (http://www.inkscape.org/) -->

<svg
   xmlns:dc="http://purl.org/dc/elements/1.1/"
   xmlns:cc="http://creativecommons.org/ns#"
   xmlns:rdf="http://www.w3.org/1999/02/22-rdf-syntax-ns#"
   xmlns:svg="http://www.w3.org/2000/svg"
   xmlns="http://www.w3.org/2000/svg"
   version="1.1"
   width="48"
   height="48"
   viewBox="0 0 48 48"
   id="svg1358"
   xml:space="preserve"><defs
   id="defs9" />
<metadata
   id="metadata1375">
  <rdf:RDF>
    <cc:Work
   rdf:about="">
      <dc:format>image/svg+xml</dc:format>
      <dc:type
   rdf:resource="http://purl.org/dc/dcmitype/StillImage" />
      <dc:title></dc:title>
      <dc:description>A folder</dc:description>
      <cc:license
   rdf:resource="http://creativecommons.org/licenses/LGPL/2.1/" />
      <dc:contributor>
        <cc:Agent>
          <dc:title />
        </cc:Agent>
      </dc:contributor>
      <dc:subject>
        <rdf:Bag>
          <rdf:li>folder</rdf:li>
          <rdf:li>directory</rdf:li>
        </rdf:Bag>
      </dc:subject>
    </cc:Work>
    <cc:License
   rdf:about="http://creativecommons.org/licenses/LGPL/2.1/"><cc:permits
     rdf:resource="http://web.resource.org/cc/Reproduction" /><cc:permits
     rdf:resource="http://web.resource.org/cc/Distribution" /><cc:requires
     rdf:resource="http://web.resource.org/cc/Notice" /><cc:permits
     rdf:resource="http://web.resource.org/cc/DerivativeWorks" /><cc:requires
     rdf:resource="http://web.resource.org/cc/ShareAlike" /><cc:requires
     rdf:resource="http://web.resource.org/cc/SourceCode" /></cc:License></rdf:RDF></metadata>
	<path
   d="M 7,9.0000005 C 5,9.0000005 4,10 4,12 v 25 c 0,2 2,4 4,4 h 32 c 1.999999,0 4,-2 4,-4 V 19 c 0,-1.999999 -2.000001,-4 -4,-4 H 21.999999 v -3 c 0,-2 -1,-2.9999995 -2.999999,-2.9999995 H 7 z"
   id="path3753"
   style="stroke:#ffffff;stroke-width:8;stroke-miterlimit:4;stroke-opacity:1;stroke-dasharray:none" /><path
   d="M 7,9.0000005 C 5,9.0000005 4,10 4,12 v 25 c 0,2 2,4 4,4 h 32 c 1.999999,0 4,-2 4,-4 V 19 c 0,-1.999999 -2.000001,-4 -4,-4 H 21.999999 v -3 c 0,-2 -1,-2.9999995 -2.999999,-2.9999995 H 7 z"
   id="path1365"
   style="stroke:none" /><rect
   width="51"
   height="51"
   x="-1.75"
   y="0.15254237"
   id="rect4762"
   style="fill:none" />
<path
   d="m 32.254452,19.163419 c -3.899067,0 -7.072751,3.158275 -7.072751,7.057341 0,3.899066 3.173684,7.072751 7.072751,7.072751 3.899066,0 7.057341,-3.173685 7.057341,-7.072751 10e-7,-3.899066 -3.158275,-7.057341 -7.057341,-7.057341 z m 0,1.77204 c 2.924299,0 5.300711,2.361002 5.30071,5.285301 0,2.9243 -2.376411,5.300711 -5.30071,5.300711 -2.9243,0 -5.300711,-2.376411 -5.300711,-5.300711 0,-2.924299 2.376411,-5.285301 5.300711,-5.285301 z"
   id="path4119"
   style="fill:#ffffff;fill-opacity:1;stroke:none;display:inline" /><path
   d="m 28.056888,30.420912 -0.88294,2.869558 -3.090292,3.311027 c -0.212998,0.228211 -1.206201,0.559682 -1.986617,-0.220735 -0.662206,-0.662205 -0.456186,-1.766863 -0.220735,-1.986617 l 3.311028,-3.090292 2.869556,-0.882941 z"
   id="path15511"
   style="color:#000000;fill:#ffffff;fill-opacity:1;fill-rule:nonzero;stroke:none;stroke-width:8;marker:none;visibility:visible;display:inline;overflow:visible" /></svg>