<?xml version="1.0" encoding="UTF-8" standalone="no"?>
<!-- Created with Inkscape (http://www.inkscape.org/) -->

<svg
   xmlns:dc="http://purl.org/dc/elements/1.1/"
   xmlns:cc="http://creativecommons.org/ns#"
   xmlns:rdf="http://www.w3.org/1999/02/22-rdf-syntax-ns#"
   xmlns:svg="http://www.w3.org/2000/svg"
   xmlns="http://www.w3.org/2000/svg"
   version="1.1"
   width="48"
   height="48"
   id="svg3564">
  <defs
     id="defs3566" />
  <metadata
     id="metadata3569">
    <rdf:RDF>
      <cc:Work
         rdf:about="">
        <dc:format>image/svg+xml</dc:format>
        <dc:type
           rdf:resource="http://purl.org/dc/dcmitype/StillImage" />
        <dc:title></dc:title>
      </cc:Work>
    </rdf:RDF>
  </metadata>
  <g
     transform="matrix(0.8333333,0,0,0.8333333,-357.65612,-415.38596)"
     id="g2989"
     style="stroke:#ffffff;stroke-width:9.60000038;stroke-miterlimit:4;stroke-opacity:1;stroke-dasharray:none">
    <g
       transform="matrix(1.0631936,0,0,1.0631936,116.28057,369.03392)"
       id="g2991"
       style="stroke:#ffffff;stroke-width:9.02939987;stroke-miterlimit:4;stroke-opacity:1;stroke-dasharray:none">
      <path
         d="m 317.375,43.625 a 8.5,8.5 0 1 1 -17,0 8.5,8.5 0 1 1 17,0 z"
         transform="matrix(2.6557059,0,0,2.6557059,-498.88457,32.96933)"
         id="path2993"
         style="fill:#000000;fill-opacity:1;stroke:#ffffff;stroke-width:3.4000001;stroke-miterlimit:4;stroke-opacity:1;stroke-dasharray:none" />
      <path
         d="m 327.875,134.46875 c -0.0423,0.006 -0.0906,0.0246 -0.15625,0.0625 -0.13134,0.0759 -0.1966,0.1638 -0.25,0.25 -0.88876,1.49705 -0.87935,3.31535 -1.21875,4.75 a 0.46686966,0.4668906 0 0 0 0,0.0625 c -0.16213,1.59267 -0.81704,3.41886 -0.28125,5.25 a 0.46686966,0.4668906 0 0 0 0.0625,0.0625 0.46686966,0.4668906 0 0 0 0,0.0625 c 0.14776,0.25836 0.37698,0.47375 0.65625,0.53125 0.27929,0.0566 0.4987,-0.0874 0.6875,-0.21875 0.33755,-0.23497 0.52915,-0.59675 0.59375,-1 l 0.0625,0 0,-0.125 c 0.70119,-2.76466 1.22026,-5.68852 1.03125,-8.59375 a 0.46686966,0.4668906 0 0 0 0,-0.0625 c -0.0431,-0.25816 -0.15611,-0.46746 -0.3125,-0.65625 -0.15596,-0.18778 -0.33562,-0.3976 -0.71875,-0.375 a 0.46686966,0.4668906 0 0 0 -0.0625,0 c -0.0215,0.002 -0.0514,-0.006 -0.0937,0 z m 6.75,1.65625 c -1.5253,0.68255 -2.13598,2.36499 -2.9375,3.40625 a 0.40558247,0.40560067 0 0 0 0,0.0625 c -1.00346,1.77839 -2.42049,3.66582 -2.5625,5.96875 0,0.56455 0.38922,0.99525 0.84375,1.09375 0.42785,0.0923 0.9526,-0.10605 1.21875,-0.53125 0.0205,-0.0226 -0.0164,-0.0379 0,-0.0625 1.90001,-2.61075 3.30708,-5.69397 4.46875,-8.65625 0.11697,-0.2832 0.13954,-0.55768 0,-0.84375 -0.13955,-0.28689 -0.54346,-0.4826 -0.90625,-0.4375 a 0.40558247,0.40560067 0 0 0 -0.0625,0 l -0.0625,0 z m -17.84375,1 c -0.0984,-0.002 -0.18593,0.0138 -0.28125,0.0312 -0.18879,0.0351 -0.45574,0.172 -0.65625,0.25 -0.70917,0.26904 -1.11195,0.8835 -1.28125,1.59375 -0.17239,0.72667 -0.11493,1.54778 0,2.375 0.11491,0.82558 0.25835,1.66237 0.4375,2.3125 0.15401,0.56249 0.29055,0.84451 0.34375,1.03125 l 0,0.125 c 0,0.0615 -0.0214,0.0757 -0.0625,0.125 -0.0226,0.0123 0.0226,0.0625 0,0.0625 -0.0511,0.039 -0.15515,0.0625 -0.21875,0.0625 -0.12529,0.008 -0.18301,-0.0297 -0.3125,-0.0625 -0.0883,-0.0205 -0.2142,-0.083 -0.1875,-0.0625 -0.0411,-0.0246 -0.0983,-0.0194 -0.125,-0.0625 0,0.0164 0.0247,-0.0112 0,-0.0625 -0.0288,-0.0534 -0.0799,-0.1556 -0.125,-0.25 -0.10056,-0.21384 -0.1746,-0.46686 -0.3125,-0.78125 -0.27518,-0.62611 -0.63767,-1.40388 -1.03125,-2.125 -0.39503,-0.724 -0.82848,-1.39063 -1.34375,-1.84375 -0.25753,-0.22635 -0.59989,-0.4241 -0.90625,-0.5 -0.2957,-0.0739 -0.66301,-0.0269 -0.96875,0.125 -0.79005,0.43834 -1.23264,1.15762 -1.40625,1.90625 -0.17446,0.76012 -0.0647,1.612 0.0625,2.375 0.12928,0.76135 0.30842,1.422 0.4375,1.9375 0.0554,0.21732 0.13785,0.39123 0.15625,0.5 0,0.10774 -0.067,0.42659 -0.0937,0.53125 -0.13338,0.46194 -0.43675,1.21875 -0.4375,1.21875 0,0 -6.14642,16.33219 7.0625,15.1875 0.10876,-0.008 0.3349,-0.0625 0.4375,-0.0625 2.59402,-0.52227 5.06806,-1.30733 7.25,-2.1875 0.42867,-0.20542 0.96231,-0.39158 1.59375,-0.6875 1.26283,-0.59164 2.85072,-1.35043 4.375,-2.1875 1.52489,-0.83769 2.95002,-1.73715 4.03125,-2.6875 1.08309,-0.95179 1.89529,-1.99265 1.75,-3.03125 -0.22984,-1.67435 -1.3638,-2.94503 -2.84375,-3.90625 -1.48549,-0.96472 -3.34044,-1.63926 -5.1875,-2.125 -1.84625,-0.48554 -3.63045,-0.88073 -5,-1.09375 -0.68456,-0.1067 -1.31654,-0.1136 -1.71875,-0.1875 -0.11901,-0.0205 -0.21695,-0.042 -0.28125,-0.0625 -0.0347,-0.004 -0.0297,-0.042 -0.0625,-0.0625 -0.0411,-0.0246 -0.1003,-0.0194 -0.125,-0.0625 -0.0226,-0.041 0,-0.0778 0,-0.125 0,-0.0184 -1.9e-4,-0.0379 0,-0.0625 l 0,-1.03125 c -0.0226,-0.84426 -0.0754,-1.96079 -0.25,-3 -0.17649,-1.04352 -0.45708,-2.04441 -1.03125,-2.71875 -0.34126,-0.4012 -0.81976,-0.6465 -1.40625,-0.6875 -0.0882,-0.0102 -0.18285,-0.0294 -0.28125,-0.0312 z"
         id="path2995"
         style="fill:#ffffff;fill-opacity:1;stroke:#ffffff;stroke-width:9.02939987;stroke-miterlimit:4;stroke-opacity:1;stroke-dasharray:none" />
      <path
         d="m 19.095753,11.445071 c -1.597459,0.07165 -2.739859,1.648979 -2.621093,3.1875 0.02949,1.741449 0.515567,3.479182 0.917968,5.121093 -0.379845,0.374428 -0.865659,-0.280328 -0.921875,-0.644531 -0.894858,-1.728245 -1.500172,-3.79564 -3.121093,-4.996094 -1.291658,-0.909363 -2.951415,0.310747 -3.246094,1.664063 -0.5153528,1.905372 0.322534,3.811845 0.488281,5.679687 -0.6907977,2.281417 -1.4845059,4.571089 -1.7773437,6.964844 -0.3847847,2.902085 -0.3834925,6.216828 1.5546877,8.597656 1.954981,2.28968 5.327858,2.731578 8.142725,2.150702 5.343401,-1.051503 10.402444,-3.291927 15.094587,-6.02234 1.838209,-1.182908 3.934527,-2.410475 4.829094,-4.507268 0.41754,-1.321026 -0.392674,-2.664132 -1.140625,-3.703125 -2.634942,-2.72396 -6.496669,-3.628338 -10.067445,-4.444587 -1.532111,-0.403416 -3.135611,-0.523388 -4.66693,-0.832757 -0.47529,-0.380751 -0.09173,-1.341854 -0.224921,-1.968673 -0.145201,-1.867336 -0.160086,-3.977253 -1.427423,-5.484452 -0.460065,-0.501016 -1.126271,-0.813793 -1.8125,-0.761718 z"
         transform="matrix(0.94056247,0,0,0.94056247,298.82309,126.251)"
         id="path2997"
         style="fill:#d30000;fill-opacity:1;stroke:#ffffff;stroke-width:9.60000038;stroke-miterlimit:4;stroke-opacity:1;stroke-dasharray:none" />
      <path
         d="m 30.927785,8.5817894 c -0.95265,0.3053589 -1.02302,1.5517496 -1.295075,2.3597626 -0.507373,2.603503 -1.120928,5.234614 -1.0643,7.901956 -0.01515,0.805049 0.562646,2.068214 1.546875,1.660156 1.24886,-0.689674 1.220327,-2.344205 1.550487,-3.575963 0.387467,-2.354472 0.869134,-4.771026 0.578419,-7.1623179 C 32.134688,9.1332553 31.606854,8.5334494 30.927785,8.5817894 z"
         transform="matrix(0.94056247,0,0,0.94056247,298.82309,126.251)"
         id="path2999"
         style="fill:#d30000;fill-opacity:1;stroke:#ffffff;stroke-width:9.60000038;stroke-miterlimit:4;stroke-opacity:1;stroke-dasharray:none" />
      <path
         d="m 38.123097,10.359133 c -1.694214,0.692292 -2.474604,2.511204 -3.421875,3.949219 -1.111016,2.01654 -2.627366,4.065654 -2.574219,6.46875 0.132974,1.153478 1.837393,1.399709 2.371094,0.402344 1.888895,-2.74854 3.397195,-5.767233 4.609375,-8.855469 0.275167,-0.606122 0.45421,-1.64541 -0.394531,-1.871094 -0.187078,-0.05956 -0.386041,-0.132748 -0.589844,-0.09375 z"
         transform="matrix(0.94056247,0,0,0.94056247,298.82309,126.251)"
         id="path3001"
         style="fill:#d30000;fill-opacity:1;stroke:#ffffff;stroke-width:9.60000038;stroke-miterlimit:4;stroke-opacity:1;stroke-dasharray:none" />
    </g>
  </g>
  <g
     transform="matrix(0.8333333,0,0,0.8333333,-357.65612,-415.38596)"
     id="layer1">
    <g
       transform="matrix(1.0631936,0,0,1.0631936,116.28057,369.03392)"
       id="g3411">
      <path
         d="m 317.375,43.625 a 8.5,8.5 0 1 1 -17,0 8.5,8.5 0 1 1 17,0 z"
         transform="matrix(2.6557059,0,0,2.6557059,-498.88457,32.96933)"
         id="path3394"
         style="fill:#000000;fill-opacity:1;stroke:none" />
      <path
         d="m 327.875,134.46875 c -0.0423,0.006 -0.0906,0.0246 -0.15625,0.0625 -0.13134,0.0759 -0.1966,0.1638 -0.25,0.25 -0.88876,1.49705 -0.87935,3.31535 -1.21875,4.75 a 0.46686966,0.4668906 0 0 0 0,0.0625 c -0.16213,1.59267 -0.81704,3.41886 -0.28125,5.25 a 0.46686966,0.4668906 0 0 0 0.0625,0.0625 0.46686966,0.4668906 0 0 0 0,0.0625 c 0.14776,0.25836 0.37698,0.47375 0.65625,0.53125 0.27929,0.0566 0.4987,-0.0874 0.6875,-0.21875 0.33755,-0.23497 0.52915,-0.59675 0.59375,-1 l 0.0625,0 0,-0.125 c 0.70119,-2.76466 1.22026,-5.68852 1.03125,-8.59375 a 0.46686966,0.4668906 0 0 0 0,-0.0625 c -0.0431,-0.25816 -0.15611,-0.46746 -0.3125,-0.65625 -0.15596,-0.18778 -0.33562,-0.3976 -0.71875,-0.375 a 0.46686966,0.4668906 0 0 0 -0.0625,0 c -0.0215,0.002 -0.0514,-0.006 -0.0937,0 z m 6.75,1.65625 c -1.5253,0.68255 -2.13598,2.36499 -2.9375,3.40625 a 0.40558247,0.40560067 0 0 0 0,0.0625 c -1.00346,1.77839 -2.42049,3.66582 -2.5625,5.96875 0,0.56455 0.38922,0.99525 0.84375,1.09375 0.42785,0.0923 0.9526,-0.10605 1.21875,-0.53125 0.0205,-0.0226 -0.0164,-0.0379 0,-0.0625 1.90001,-2.61075 3.30708,-5.69397 4.46875,-8.65625 0.11697,-0.2832 0.13954,-0.55768 0,-0.84375 -0.13955,-0.28689 -0.54346,-0.4826 -0.90625,-0.4375 a 0.40558247,0.40560067 0 0 0 -0.0625,0 l -0.0625,0 z m -17.84375,1 c -0.0984,-0.002 -0.18593,0.0138 -0.28125,0.0312 -0.18879,0.0351 -0.45574,0.172 -0.65625,0.25 -0.70917,0.26904 -1.11195,0.8835 -1.28125,1.59375 -0.17239,0.72667 -0.11493,1.54778 0,2.375 0.11491,0.82558 0.25835,1.66237 0.4375,2.3125 0.15401,0.56249 0.29055,0.84451 0.34375,1.03125 l 0,0.125 c 0,0.0615 -0.0214,0.0757 -0.0625,0.125 -0.0226,0.0123 0.0226,0.0625 0,0.0625 -0.0511,0.039 -0.15515,0.0625 -0.21875,0.0625 -0.12529,0.008 -0.18301,-0.0297 -0.3125,-0.0625 -0.0883,-0.0205 -0.2142,-0.083 -0.1875,-0.0625 -0.0411,-0.0246 -0.0983,-0.0194 -0.125,-0.0625 0,0.0164 0.0247,-0.0112 0,-0.0625 -0.0288,-0.0534 -0.0799,-0.1556 -0.125,-0.25 -0.10056,-0.21384 -0.1746,-0.46686 -0.3125,-0.78125 -0.27518,-0.62611 -0.63767,-1.40388 -1.03125,-2.125 -0.39503,-0.724 -0.82848,-1.39063 -1.34375,-1.84375 -0.25753,-0.22635 -0.59989,-0.4241 -0.90625,-0.5 -0.2957,-0.0739 -0.66301,-0.0269 -0.96875,0.125 -0.79005,0.43834 -1.23264,1.15762 -1.40625,1.90625 -0.17446,0.76012 -0.0647,1.612 0.0625,2.375 0.12928,0.76135 0.30842,1.422 0.4375,1.9375 0.0554,0.21732 0.13785,0.39123 0.15625,0.5 0,0.10774 -0.067,0.42659 -0.0937,0.53125 -0.13338,0.46194 -0.43675,1.21875 -0.4375,1.21875 0,0 -6.14642,16.33219 7.0625,15.1875 0.10876,-0.008 0.3349,-0.0625 0.4375,-0.0625 2.59402,-0.52227 5.06806,-1.30733 7.25,-2.1875 0.42867,-0.20542 0.96231,-0.39158 1.59375,-0.6875 1.26283,-0.59164 2.85072,-1.35043 4.375,-2.1875 1.52489,-0.83769 2.95002,-1.73715 4.03125,-2.6875 1.08309,-0.95179 1.89529,-1.99265 1.75,-3.03125 -0.22984,-1.67435 -1.3638,-2.94503 -2.84375,-3.90625 -1.48549,-0.96472 -3.34044,-1.63926 -5.1875,-2.125 -1.84625,-0.48554 -3.63045,-0.88073 -5,-1.09375 -0.68456,-0.1067 -1.31654,-0.1136 -1.71875,-0.1875 -0.11901,-0.0205 -0.21695,-0.042 -0.28125,-0.0625 -0.0347,-0.004 -0.0297,-0.042 -0.0625,-0.0625 -0.0411,-0.0246 -0.1003,-0.0194 -0.125,-0.0625 -0.0226,-0.041 0,-0.0778 0,-0.125 0,-0.0184 -1.9e-4,-0.0379 0,-0.0625 l 0,-1.03125 c -0.0226,-0.84426 -0.0754,-1.96079 -0.25,-3 -0.17649,-1.04352 -0.45708,-2.04441 -1.03125,-2.71875 -0.34126,-0.4012 -0.81976,-0.6465 -1.40625,-0.6875 -0.0882,-0.0102 -0.18285,-0.0294 -0.28125,-0.0312 z"
         id="path3396"
         style="fill:#ffffff;fill-opacity:1;stroke:none" />
    </g>
  </g>
</svg>
