<?xml version="1.0" encoding="UTF-8" standalone="no"?>
<!-- Created with Inkscape (http://www.inkscape.org/) -->

<svg
   xmlns:dc="http://purl.org/dc/elements/1.1/"
   xmlns:cc="http://creativecommons.org/ns#"
   xmlns:rdf="http://www.w3.org/1999/02/22-rdf-syntax-ns#"
   xmlns:svg="http://www.w3.org/2000/svg"
   xmlns="http://www.w3.org/2000/svg"
   xmlns:sodipodi="http://sodipodi.sourceforge.net/DTD/sodipodi-0.dtd"
   xmlns:inkscape="http://www.inkscape.org/namespaces/inkscape"
   version="1.1"
   width="48"
   height="48"
   viewBox="0 0 48 48"
   id="svg1358"
   xml:space="preserve"
   inkscape:version="0.48.3.1 r9886"
   sodipodi:docname="folder-dropbox.svg"><sodipodi:namedview
   pagecolor="#ffffff"
   bordercolor="#666666"
   borderopacity="1"
   objecttolerance="10"
   gridtolerance="10"
   guidetolerance="10"
   inkscape:pageopacity="0"
   inkscape:pageshadow="2"
   inkscape:window-width="1366"
   inkscape:window-height="717"
   id="namedview16"
   showgrid="false"
   inkscape:zoom="4.9166667"
   inkscape:cx="24"
   inkscape:cy="24"
   inkscape:window-x="0"
   inkscape:window-y="0"
   inkscape:window-maximized="1"
   inkscape:current-layer="svg1358" /><defs
   id="defs9"><filter
     x="0"
     y="0"
     width="1"
     height="1"
     color-interpolation-filters="sRGB"
     id="filter3004"><feColorMatrix
       id="feColorMatrix3006"
       type="saturate"
       values="1"
       result="fbSourceGraphic" /><feColorMatrix
       id="feColorMatrix3008"
       in="fbSourceGraphic"
       values="-1 0 0 0 1 0 -1 0 0 1 0 0 -1 0 1 0 0 0 1 0 " /></filter></defs>
<metadata
   id="metadata1375">
  <rdf:RDF>
    <cc:Work
   rdf:about="">
      <dc:format>image/svg+xml</dc:format>
      <dc:type
   rdf:resource="http://purl.org/dc/dcmitype/StillImage" />
      <dc:title />
      <dc:description>A folder</dc:description>
      <cc:license
   rdf:resource="http://creativecommons.org/licenses/LGPL/2.1/" />
      <dc:contributor>
        <cc:Agent>
          <dc:title />
        </cc:Agent>
      </dc:contributor>
      <dc:subject>
        <rdf:Bag>
          <rdf:li>folder</rdf:li>
          <rdf:li>directory</rdf:li>
        </rdf:Bag>
      </dc:subject>
    </cc:Work>
    <cc:License
   rdf:about="http://creativecommons.org/licenses/LGPL/2.1/"><cc:permits
     rdf:resource="http://web.resource.org/cc/Reproduction" /><cc:permits
     rdf:resource="http://web.resource.org/cc/Distribution" /><cc:requires
     rdf:resource="http://web.resource.org/cc/Notice" /><cc:permits
     rdf:resource="http://web.resource.org/cc/DerivativeWorks" /><cc:requires
     rdf:resource="http://web.resource.org/cc/ShareAlike" /><cc:requires
     rdf:resource="http://web.resource.org/cc/SourceCode" /></cc:License></rdf:RDF></metadata>
	<path
   inkscape:connector-curvature="0"
   style="stroke:#ffffff;stroke-width:8;stroke-miterlimit:4;stroke-opacity:1;stroke-dasharray:none"
   id="path3753"
   d="M 7,9 C 5,9 4,10 4,12 v 25 c 0,2 2,4 4,4 h 32 c 1.999999,0 4,-2 4,-4 V 18.999999 C 44,17 41.999999,15 40,15 H 21.999999 v -3 c 0,-2 -1,-3 -2.999999,-3 H 7 z" /><path
   d="M 7,9 C 5,9 4,10 4,12 v 25 c 0,2 2,4 4,4 h 32 c 1.999999,0 4,-2 4,-4 V 18.999999 C 44,17 41.999999,15 40,15 H 21.999999 v -3 c 0,-2 -1,-3 -2.999999,-3 H 7 z"
   id="path1365"
   style="stroke:none"
   inkscape:connector-curvature="0" /><rect
   width="51"
   height="51"
   x="-1.75"
   y="0.15254237"
   id="rect4762"
   style="fill:none" />
<g
   transform="matrix(0.2055505,0,0,0.2055505,-35.746359,-4.55745)"
   id="g3874"><polygon
     points="324.468,202.37 299.699,185.827 299.699,156.575 324.468,171.37 "
     transform="matrix(1.1869004,0,0,1.1869004,-60.837162,-32.661209)"
     id="polygon12"
     style="fill:#ffffff;fill-opacity:1;stroke:#000000;stroke-width:3;stroke-miterlimit:10;stroke-opacity:1;stroke-dasharray:none" /><polygon
     points="324.527,171.715 324.468,202.37 349.799,185.94 349.799,156.575 "
     transform="matrix(1.1869004,0,0,1.1869004,-60.837162,-32.661209)"
     id="polygon19"
     style="fill:#ffffff;fill-opacity:1;stroke:#000000;stroke-width:3;stroke-miterlimit:10;stroke-opacity:1;stroke-dasharray:none" /><polygon
     points="282.005,142.778 307.83,125.957 324.694,140.425 341.95,125.957 367.049,141.994 350.578,155.72 367.049,169.838 341.557,185.132 324.694,172.191 307.83,185.132 282.005,169.838 299.789,156.308 "
     transform="matrix(1.1869004,0,0,1.1869004,-60.837162,-32.661209)"
     id="polygon26"
     style="fill:#ffffff;fill-opacity:1;stroke:#000000;stroke-width:3;stroke-miterlimit:10;stroke-opacity:1;stroke-dasharray:none" /><polygon
     points="300.096,156.07 324.749,141.175 324.527,171.46 "
     transform="matrix(0.96138938,0,0,0.96138938,11.753955,2.5901205)"
     id="polygon33"
     style="fill:#000000;fill-opacity:1;stroke:#ffffff;stroke-width:3;stroke-miterlimit:4;stroke-opacity:1;stroke-dasharray:none" /><polygon
     points="324.527,171.46 324.749,141.175 349.108,155.172 "
     transform="matrix(0.96138938,0,0,0.96138938,14.169168,2.5901205)"
     id="polygon40"
     style="fill:#000000;fill-opacity:1;stroke:#ffffff;stroke-width:3;stroke-miterlimit:4;stroke-opacity:1;stroke-dasharray:none" /></g></svg>