<?xml version="1.0" encoding="UTF-8" standalone="no"?>
<!-- Created with Inkscape (http://www.inkscape.org/) -->

<svg
   xmlns:dc="http://purl.org/dc/elements/1.1/"
   xmlns:cc="http://creativecommons.org/ns#"
   xmlns:rdf="http://www.w3.org/1999/02/22-rdf-syntax-ns#"
   xmlns:svg="http://www.w3.org/2000/svg"
   xmlns="http://www.w3.org/2000/svg"
   xmlns:sodipodi="http://sodipodi.sourceforge.net/DTD/sodipodi-0.dtd"
   xmlns:inkscape="http://www.inkscape.org/namespaces/inkscape"
   version="1.1"
   width="48"
   height="48"
   viewBox="0 0 48 48"
   id="svg1358"
   xml:space="preserve"
   inkscape:version="0.48.3.1 r9886"
   sodipodi:docname="folder-recent.svg"><sodipodi:namedview
   pagecolor="#ffffff"
   bordercolor="#666666"
   borderopacity="1"
   objecttolerance="10"
   gridtolerance="10"
   guidetolerance="10"
   inkscape:pageopacity="0"
   inkscape:pageshadow="2"
   inkscape:window-width="1366"
   inkscape:window-height="717"
   id="namedview17"
   showgrid="false"
   inkscape:zoom="9.8333333"
   inkscape:cx="37.857252"
   inkscape:cy="21.467521"
   inkscape:window-x="0"
   inkscape:window-y="0"
   inkscape:window-maximized="1"
   inkscape:current-layer="layer1" /><defs
   id="defs9"><filter
     x="0"
     y="0"
     width="1"
     height="1"
     color-interpolation-filters="sRGB"
     id="filter3004"><feColorMatrix
       result="fbSourceGraphic"
       values="1"
       type="saturate"
       id="feColorMatrix3006" /><feColorMatrix
       values="-1 0 0 0 1 0 -1 0 0 1 0 0 -1 0 1 0 0 0 1 0 "
       in="fbSourceGraphic"
       id="feColorMatrix3008" /></filter></defs>
<metadata
   id="metadata1375">
  <rdf:RDF>
    <cc:Work
   rdf:about="">
      <dc:format>image/svg+xml</dc:format>
      <dc:type
   rdf:resource="http://purl.org/dc/dcmitype/StillImage" />
      <dc:title />
      <dc:description>A folder</dc:description>
      <cc:license
   rdf:resource="http://creativecommons.org/licenses/LGPL/2.1/" />
      <dc:contributor>
        <cc:Agent>
          <dc:title />
        </cc:Agent>
      </dc:contributor>
      <dc:subject>
        <rdf:Bag>
          <rdf:li>folder</rdf:li>
          <rdf:li>directory</rdf:li>
        </rdf:Bag>
      </dc:subject>
    </cc:Work>
    <cc:License
   rdf:about="http://creativecommons.org/licenses/LGPL/2.1/"><cc:permits
     rdf:resource="http://web.resource.org/cc/Reproduction" /><cc:permits
     rdf:resource="http://web.resource.org/cc/Distribution" /><cc:requires
     rdf:resource="http://web.resource.org/cc/Notice" /><cc:permits
     rdf:resource="http://web.resource.org/cc/DerivativeWorks" /><cc:requires
     rdf:resource="http://web.resource.org/cc/ShareAlike" /><cc:requires
     rdf:resource="http://web.resource.org/cc/SourceCode" /></cc:License></rdf:RDF></metadata>
	<path
   inkscape:connector-curvature="0"
   style="stroke:#ffffff;stroke-width:8;stroke-miterlimit:4;stroke-opacity:1;stroke-dasharray:none"
   id="path3753"
   d="m 7,8.9999996 c -2,0 -3,0.9999997 -3,2.9999994 V 37 c 0,2 2,4 4,4 h 32 c 1.999999,0 4,-2 4,-4 V 18.999999 c 0,-1.999999 -2.000001,-4 -4,-4 H 21.999999 v -3 c 0,-1.9999997 -1,-2.9999994 -2.999999,-2.9999994 H 7 z" /><path
   d="m 7,8.9999996 c -2,0 -3,0.9999997 -3,2.9999994 V 37 c 0,2 2,4 4,4 h 32 c 1.999999,0 4,-2 4,-4 V 18.999999 c 0,-1.999999 -2.000001,-4 -4,-4 H 21.999999 v -3 c 0,-1.9999997 -1,-2.9999994 -2.999999,-2.9999994 H 7 z"
   id="path1365"
   style="stroke:none"
   inkscape:connector-curvature="0" /><rect
   width="51"
   height="51"
   x="-1.75"
   y="0.15254237"
   id="rect4762"
   style="fill:none" />
<g
   transform="matrix(0.53389831,0,0,0.53389831,19.114,15.559322)"
   id="layer1"
   style="filter:url(#filter3004)"><rect
     width="48"
     height="48"
     x="0"
     y="0"
     id="rect5508"
     style="fill:none" /><path
     d="m 41.017289,23.433521 a 18.742391,18.602731 0 0 1 -37.4847805,0 18.742391,18.602731 0 1 1 37.4847805,0 z"
     id="path4052"
     style="fill-rule:evenodd"
     inkscape:connector-curvature="0" /><path
     d="m 37.268811,23.433521 a 14.993913,14.882184 0 0 1 -29.9878244,0 14.993913,14.882184 0 1 1 29.9878244,0 z"
     id="path4780"
     style="fill:#ffffff;fill-rule:evenodd"
     inkscape:connector-curvature="0" /><path
     d="m 22.274899,23.433521 5.622717,5.580819"
     id="path6236"
     style="fill:none;stroke:#000000;stroke-width:6.5353508;stroke-linecap:round"
     inkscape:connector-curvature="0" /><path
     d="M 22.274899,22.503384 V 12.271883"
     id="path6964"
     style="fill:none;stroke:#000000;stroke-width:5.60172892;stroke-linecap:round"
     inkscape:connector-curvature="0" /></g></svg>