<?xml version="1.0" encoding="UTF-8" standalone="no"?>
<!-- Created with Inkscape (http://www.inkscape.org/) -->

<svg
   xmlns:dc="http://purl.org/dc/elements/1.1/"
   xmlns:cc="http://creativecommons.org/ns#"
   xmlns:rdf="http://www.w3.org/1999/02/22-rdf-syntax-ns#"
   xmlns:svg="http://www.w3.org/2000/svg"
   xmlns="http://www.w3.org/2000/svg"
   xmlns:sodipodi="http://sodipodi.sourceforge.net/DTD/sodipodi-0.dtd"
   xmlns:inkscape="http://www.inkscape.org/namespaces/inkscape"
   version="1.1"
   width="48"
   height="48"
   viewBox="0 0 48 48"
   id="svg1358"
   xml:space="preserve"
   inkscape:version="0.91 r13725"
   sodipodi:docname="folder-favourite.svg"><sodipodi:namedview
     pagecolor="#ffffff"
     bordercolor="#666666"
     borderopacity="1"
     objecttolerance="10"
     gridtolerance="10"
     guidetolerance="10"
     inkscape:pageopacity="0"
     inkscape:pageshadow="2"
     inkscape:window-width="1920"
     inkscape:window-height="1018"
     id="namedview8"
     showgrid="false"
     inkscape:zoom="13.906433"
     inkscape:cx="21.271773"
     inkscape:cy="21.382512"
     inkscape:window-x="0"
     inkscape:window-y="0"
     inkscape:window-maximized="1"
     inkscape:current-layer="layer1" /><defs
     id="defs9" /><metadata
     id="metadata1375"><rdf:RDF><cc:Work
         rdf:about=""><dc:format>image/svg+xml</dc:format><dc:type
           rdf:resource="http://purl.org/dc/dcmitype/StillImage" /><dc:title /><dc:description>A folder</dc:description><cc:license
           rdf:resource="http://creativecommons.org/licenses/LGPL/2.1/" /><dc:contributor><cc:Agent><dc:title /></cc:Agent></dc:contributor><dc:subject><rdf:Bag><rdf:li>folder</rdf:li><rdf:li>directory</rdf:li></rdf:Bag></dc:subject></cc:Work><cc:License
         rdf:about="http://creativecommons.org/licenses/LGPL/2.1/"><cc:permits
           rdf:resource="http://web.resource.org/cc/Reproduction" /><cc:permits
           rdf:resource="http://web.resource.org/cc/Distribution" /><cc:requires
           rdf:resource="http://web.resource.org/cc/Notice" /><cc:permits
           rdf:resource="http://web.resource.org/cc/DerivativeWorks" /><cc:requires
           rdf:resource="http://web.resource.org/cc/ShareAlike" /><cc:requires
           rdf:resource="http://web.resource.org/cc/SourceCode" /></cc:License></rdf:RDF></metadata><path
     inkscape:connector-curvature="0"
     style="stroke:#ffffff;stroke-width:8;stroke-miterlimit:4;stroke-opacity:1;stroke-dasharray:none"
     id="path3753"
     d="M 7,9.0000005 C 5,9.0000005 4,10 4,12 v 25 c 0,2 2,4 4,4 h 32 c 1.999999,0 4,-2 4,-4 V 19 c 0,-1.999999 -2.000001,-4 -4,-4 H 21.999999 v -3 c 0,-2 -1,-2.9999995 -2.999999,-2.9999995 H 7 z" /><path
     d="M 7,9.0000005 C 5,9.0000005 4,10 4,12 v 25 c 0,2 2,4 4,4 h 32 c 1.999999,0 4,-2 4,-4 V 19 c 0,-1.999999 -2.000001,-4 -4,-4 H 21.999999 v -3 c 0,-2 -1,-2.9999995 -2.999999,-2.9999995 H 7 z"
     id="path1365"
     style="stroke:none"
     inkscape:connector-curvature="0" /><rect
     width="51"
     height="51"
     x="-1.75"
     y="0.15254237"
     id="rect4762"
     style="fill:none" /><g
     id="layer1"
     transform="matrix(0.36016949,0,0,0.36016949,24.40678,19.828864)"><rect
       id="rect3312"
       style="fill:none"
       height="48"
       width="48"
       y="0"
       x="0" /><rect
       id="rect4040"
       style="fill-rule:evenodd"
       ry="2.8197999"
       height="40"
       width="34"
       y="4"
       x="7" /><path
       inkscape:connector-curvature="0"
       id="path5496"
       sodipodi:nodetypes="czczc"
       style="fill:#ffffff;fill-rule:evenodd"
       d="M 16.62909,9.4264674 C 23.142367,-3.0496561 41.611378,3.7366273 39.823142,15.515657 38.05081,27.185131 22.368407,42.188993 16.851736,44.784762 10.962221,42.07767 -4.2466164,27.277016 -5.7963025,15.62698 -7.4096021,3.5104473 8.7481313,-3.0858803 16.62909,9.4264674 Z" /></g></svg>