<?xml version="1.0" encoding="UTF-8" standalone="no"?>
<!-- Created with Inkscape (http://www.inkscape.org/) -->

<svg
   xmlns:dc="http://purl.org/dc/elements/1.1/"
   xmlns:cc="http://creativecommons.org/ns#"
   xmlns:rdf="http://www.w3.org/1999/02/22-rdf-syntax-ns#"
   xmlns:svg="http://www.w3.org/2000/svg"
   xmlns="http://www.w3.org/2000/svg"
   xmlns:sodipodi="http://sodipodi.sourceforge.net/DTD/sodipodi-0.dtd"
   xmlns:inkscape="http://www.inkscape.org/namespaces/inkscape"
   version="1.1"
   width="48"
   height="48"
   viewBox="0 0 48 48"
   id="svg1358"
   xml:space="preserve"
   inkscape:version="0.48.3.1 r9886"
   sodipodi:docname="folder-games.svg"><sodipodi:namedview
   pagecolor="#ffffff"
   bordercolor="#666666"
   borderopacity="1"
   objecttolerance="10"
   gridtolerance="10"
   guidetolerance="10"
   inkscape:pageopacity="0"
   inkscape:pageshadow="2"
   inkscape:window-width="640"
   inkscape:window-height="480"
   id="namedview8"
   showgrid="false"
   inkscape:zoom="4.9166667"
   inkscape:cx="24"
   inkscape:cy="24"
   inkscape:window-x="0"
   inkscape:window-y="0"
   inkscape:window-maximized="0"
   inkscape:current-layer="svg1358" /><defs
   id="defs9" />
<metadata
   id="metadata1375">
  <rdf:RDF>
    <cc:Work
   rdf:about="">
      <dc:format>image/svg+xml</dc:format>
      <dc:type
   rdf:resource="http://purl.org/dc/dcmitype/StillImage" />
      <dc:title />
      <dc:description>A folder</dc:description>
      <cc:license
   rdf:resource="http://creativecommons.org/licenses/LGPL/2.1/" />
      <dc:contributor>
        <cc:Agent>
          <dc:title />
        </cc:Agent>
      </dc:contributor>
      <dc:subject>
        <rdf:Bag>
          <rdf:li>folder</rdf:li>
          <rdf:li>directory</rdf:li>
        </rdf:Bag>
      </dc:subject>
    </cc:Work>
    <cc:License
   rdf:about="http://creativecommons.org/licenses/LGPL/2.1/"><cc:permits
     rdf:resource="http://web.resource.org/cc/Reproduction" /><cc:permits
     rdf:resource="http://web.resource.org/cc/Distribution" /><cc:requires
     rdf:resource="http://web.resource.org/cc/Notice" /><cc:permits
     rdf:resource="http://web.resource.org/cc/DerivativeWorks" /><cc:requires
     rdf:resource="http://web.resource.org/cc/ShareAlike" /><cc:requires
     rdf:resource="http://web.resource.org/cc/SourceCode" /></cc:License></rdf:RDF></metadata>
	<path
   inkscape:connector-curvature="0"
   style="stroke:#ffffff;stroke-width:8;stroke-miterlimit:4;stroke-opacity:1;stroke-dasharray:none"
   id="path3753"
   d="M 7,9.0000005 C 5,9.0000005 4,10 4,12 v 25 c 0,2 2,4 4,4 h 32 c 1.999999,0 4,-2 4,-4 V 19 c 0,-1.999999 -2.000001,-4 -4,-4 H 21.999999 v -3 c 0,-2 -1,-2.9999995 -2.999999,-2.9999995 H 7 z" /><path
   d="M 7,9.0000005 C 5,9.0000005 4,10 4,12 v 25 c 0,2 2,4 4,4 h 32 c 1.999999,0 4,-2 4,-4 V 19 c 0,-1.999999 -2.000001,-4 -4,-4 H 21.999999 v -3 c 0,-2 -1,-2.9999995 -2.999999,-2.9999995 H 7 z"
   id="path1365"
   style="stroke:none"
   inkscape:connector-curvature="0" /><rect
   width="51"
   height="51"
   x="-1.75"
   y="0.15254237"
   id="rect4762"
   style="fill:none" />
<g
   id="layer1"
   transform="matrix(0.36016949,0,0,0.36016949,24.40678,19.828864)"><rect
     id="rect3312"
     style="fill:none"
     height="48"
     width="48"
     y="0"
     x="0" /><rect
     id="rect4768"
     style="fill:#ffffff;fill-rule:evenodd;stroke:#ffffff;stroke-width:8"
     ry="2.8197999"
     height="40"
     width="34"
     y="4"
     x="7" /><rect
     id="rect4040"
     style="fill-rule:evenodd"
     ry="2.8197999"
     height="40"
     width="34"
     y="4"
     x="7" /><path
     inkscape:connector-curvature="0"
     id="path5496"
     sodipodi:nodetypes="czczc"
     style="fill:#ffffff;fill-rule:evenodd"
     d="M 23.755,15.99 C 27.441,8.9295 37.893,12.77 36.881,19.436 35.878,26.04 27.003,34.531 23.881,36 20.548,34.468 11.941,26.092 11.064,19.499 10.151,12.642 19.295,8.909 23.755,15.99 z" /><path
     inkscape:connector-curvature="0"
     id="path6950"
     sodipodi:nodetypes="czczc"
     style="fill:#ffffff;fill-rule:evenodd"
     d="M 12.513,7.7505 C 13.239,6.3596 15.298,7.1164 15.099,8.4295 14.901,9.7307 13.153,11.403 12.538,11.693 11.881,11.391 10.185,9.7409 10.013,8.4419 9.8328,7.091 11.634,6.3555 12.513,7.7505 z" /><path
     inkscape:connector-curvature="0"
     id="path6952"
     sodipodi:nodetypes="czczc"
     style="fill:#ffffff;fill-rule:evenodd"
     d="m 35.401,40.249 c 0.726,1.391 2.785,0.635 2.585,-0.679 -0.197,-1.301 -1.946,-2.973 -2.561,-3.263 -0.656,0.302 -2.352,1.952 -2.525,3.251 -0.18,1.351 1.622,2.086 2.501,0.691 z" /></g></svg>