<?xml version="1.0" encoding="UTF-8" standalone="no"?>
<!-- Created with Inkscape (http://www.inkscape.org/) -->

<svg
   xmlns:dc="http://purl.org/dc/elements/1.1/"
   xmlns:cc="http://creativecommons.org/ns#"
   xmlns:rdf="http://www.w3.org/1999/02/22-rdf-syntax-ns#"
   xmlns:svg="http://www.w3.org/2000/svg"
   xmlns="http://www.w3.org/2000/svg"
   xmlns:sodipodi="http://sodipodi.sourceforge.net/DTD/sodipodi-0.dtd"
   xmlns:inkscape="http://www.inkscape.org/namespaces/inkscape"
   version="1.1"
   width="48"
   height="48"
   viewBox="0 0 48 48"
   id="svg1358"
   xml:space="preserve"
   inkscape:version="0.48.3.1 r9886"
   sodipodi:docname="folder-drag-accept.svg"><sodipodi:namedview
   pagecolor="#ffffff"
   bordercolor="#666666"
   borderopacity="1"
   objecttolerance="10"
   gridtolerance="10"
   guidetolerance="10"
   inkscape:pageopacity="0"
   inkscape:pageshadow="2"
   inkscape:window-width="1366"
   inkscape:window-height="717"
   id="namedview15"
   showgrid="false"
   inkscape:zoom="3.4766083"
   inkscape:cx="8.939706"
   inkscape:cy="16.625852"
   inkscape:window-x="0"
   inkscape:window-y="0"
   inkscape:window-maximized="1"
   inkscape:current-layer="svg1358" /><defs
   id="defs9" />
<metadata
   id="metadata1375">
  <rdf:RDF>
    <cc:Work
   rdf:about="">
      <dc:format>image/svg+xml</dc:format>
      <dc:type
   rdf:resource="http://purl.org/dc/dcmitype/StillImage" />
      <dc:title />
      <dc:description>A folder</dc:description>
      <cc:license
   rdf:resource="http://creativecommons.org/licenses/LGPL/2.1/" />
      <dc:contributor>
        <cc:Agent>
          <dc:title />
        </cc:Agent>
      </dc:contributor>
      <dc:subject>
        <rdf:Bag>
          <rdf:li>folder</rdf:li>
          <rdf:li>directory</rdf:li>
        </rdf:Bag>
      </dc:subject>
    </cc:Work>
    <cc:License
   rdf:about="http://creativecommons.org/licenses/LGPL/2.1/"><cc:permits
     rdf:resource="http://web.resource.org/cc/Reproduction" /><cc:permits
     rdf:resource="http://web.resource.org/cc/Distribution" /><cc:requires
     rdf:resource="http://web.resource.org/cc/Notice" /><cc:permits
     rdf:resource="http://web.resource.org/cc/DerivativeWorks" /><cc:requires
     rdf:resource="http://web.resource.org/cc/ShareAlike" /><cc:requires
     rdf:resource="http://web.resource.org/cc/SourceCode" /></cc:License></rdf:RDF></metadata>
	<path
   inkscape:connector-curvature="0"
   style="stroke:#ffffff;stroke-width:8;stroke-miterlimit:4;stroke-opacity:1;stroke-dasharray:none"
   id="path3753"
   d="M 7,9.0000001 C 5,9.0000001 4,9.9999998 4,12 v 25 c 0,2 2,4 4,4 h 32 c 1.999999,0 4,-2 4,-4 V 18.999999 C 44,17 41.999999,15 40,15 H 21.999999 v -3 c 0,-2.0000002 -1,-2.9999999 -2.999999,-2.9999999 H 7 z" /><path
   d="M 7,9.0000001 C 5,9.0000001 4,9.9999998 4,12 v 25 c 0,2 2,4 4,4 h 32 c 1.999999,0 4,-2 4,-4 V 18.999999 C 44,17 41.999999,15 40,15 H 21.999999 v -3 c 0,-2.0000002 -1,-2.9999999 -2.999999,-2.9999999 H 7 z"
   id="path1365"
   style="stroke:none"
   inkscape:connector-curvature="0" /><path
   style="fill:#ffffff;fill-opacity:1;stroke:none"
   d="m 7.4602746,12.73318 c -1.0397215,0.475689 -1.8426594,1.518472 -1.7126684,2.692902 -0.078771,6.70979 -0.055488,13.42177 0.038185,20.131298 -0.1384691,1.475133 0.9707051,2.803904 2.2815601,3.360057 1.1823892,0.422395 2.4879897,0.166002 3.7186867,0.26607 10.11999,0.04124 17.339595,-0.0078 27.459642,-0.0081 1.483225,-0.463151 2.796194,-1.755135 2.946381,-3.319043 -0.03467,-5.338461 0.07456,-10.679572 -0.06675,-16.016346 -0.0094,-0.771939 -0.158884,-1.626801 -0.893131,-2.057492 -0.815495,-0.708363 -2.021282,-0.448846 -3.016307,-0.563136 -7.058862,-0.07094 -11.217996,-0.01822 -18.277182,-0.03461 -0.120901,-1.328802 0.18529,-3.052388 -1.05523,-3.963976 -0.938425,-0.76608 -2.243479,-0.413194 -3.356395,-0.513299 -2.687548,0.013 -5.385679,-0.03885 -8.0667924,0.02567 z"
   id="path3013"
   inkscape:connector-curvature="0"
   sodipodi:nodetypes="ccccccccccccccc" /><rect
   width="51"
   height="51"
   x="-1.75"
   y="0.15254237"
   id="rect4762"
   style="fill:none" />
<rect
   width="48"
   height="48"
   x="-2.571069"
   y="14.939445"
   id="rect3313"
   style="fill:none" /><g
   transform="matrix(0,0.48753758,-0.48753758,0,42.652654,16.594391)"
   id="g5500"><path
     d="m 41,26 c 0.3,0 0.588,-0.532 0,-1 L 25,9 C 24,8 24,8 23,9 L 7,25 c -0.5984,0.425 -0.2,1 0,1 h 10 v 13 c 0,0 0,1 1,1 h 12 c 1,0 1,-1 1,-1 V 26 h 10 z"
     id="path4046"
     style="stroke:#ffffff;stroke-width:8"
     inkscape:connector-curvature="0" /><path
     d="m 41,26 c 0.3,0 0.588,-0.532 0,-1 L 25,9 C 24,8 24,8 23,9 L 7,25 c -0.5984,0.425 -0.2,1 0,1 h 10 v 13 c 0,0 0,1 1,1 h 12 c 1,0 1,-1 1,-1 V 26 h 10 z"
     id="path9"
     inkscape:connector-curvature="0" /></g></svg>