<?xml version="1.0" encoding="UTF-8" standalone="no"?>
<!-- Generator: Adobe Illustrator 9.0, SVG Export Plug-In  -->

<svg
   xmlns:dc="http://purl.org/dc/elements/1.1/"
   xmlns:cc="http://creativecommons.org/ns#"
   xmlns:rdf="http://www.w3.org/1999/02/22-rdf-syntax-ns#"
   xmlns:svg="http://www.w3.org/2000/svg"
   xmlns="http://www.w3.org/2000/svg"
   xmlns:sodipodi="http://sodipodi.sourceforge.net/DTD/sodipodi-0.dtd"
   xmlns:inkscape="http://www.inkscape.org/namespaces/inkscape"
   id="svg1358"
   sodipodi:docname="folder-remote.svg"
   xml:space="preserve"
   height="48px"
   sodipodi:version="0.32"
   width="48px"
   viewBox="0 0 48 48"
   version="1.1"
   inkscape:version="0.48.3.1 r9886"><defs
   id="defs9" />
<metadata
   id="metadata1375">
  <rdf:RDF>
    <cc:Work
   rdf:about="">
      <dc:format>image/svg+xml</dc:format>
      <dc:type
   rdf:resource="http://purl.org/dc/dcmitype/StillImage" />
      <dc:title>Remote Folder Icon</dc:title>
      <dc:description>A remote or networked folder</dc:description>
      <cc:license
   rdf:resource="http://creativecommons.org/licenses/GPL/2.0/" />
      <dc:contributor>
        <cc:Agent>
          <dc:title />
        </cc:Agent>
      </dc:contributor>
      <dc:subject>
        <rdf:Bag>
          <rdf:li>folder</rdf:li>
          <rdf:li>remote</rdf:li>
          <rdf:li>share</rdf:li>
        </rdf:Bag>
      </dc:subject>
      <dc:date />
    </cc:Work>
   <cc:License
   rdf:about="http://creativecommons.org/licenses/LGPL/2.1/"><cc:permits
     rdf:resource="http://web.resource.org/cc/Reproduction" /><cc:permits
     rdf:resource="http://web.resource.org/cc/Distribution" /><cc:requires
     rdf:resource="http://web.resource.org/cc/Notice" /><cc:permits
     rdf:resource="http://web.resource.org/cc/DerivativeWorks" /><cc:requires
     rdf:resource="http://web.resource.org/cc/ShareAlike" /><cc:requires
     rdf:resource="http://web.resource.org/cc/SourceCode" /></cc:License></rdf:RDF></metadata><sodipodi:namedview
   id="base"
   borderopacity="1.0"
   showgrid="true"
   bordercolor="#666666"
   guidetolerance="0.50000000px"
   pagecolor="#ffffff"
   gridtolerance="0.50000000px"
   showguides="true"
   inkscape:zoom="4.9166667"
   inkscape:cx="-44.949152"
   inkscape:cy="24"
   inkscape:window-width="1366"
   inkscape:window-height="717"
   inkscape:window-x="0"
   inkscape:window-y="0"
   inkscape:window-maximized="1"
   inkscape:current-layer="svg1358"><inkscape:grid
     id="GridFromPre046Settings"
     type="xygrid"
     originx="0.0000000px"
     originy="0.0000000px"
     spacingx="1.0000000px"
     spacingy="1.0000000px"
     color="#3f3fff"
     empcolor="#3f3fff"
     opacity="0.15"
     empopacity="0.38"
     empspacing="5" /></sodipodi:namedview>
	<rect
   id="rect4762"
   style="fill:none"
   height="48"
   width="48"
   y="0"
   x="0" /><path
   id="path5481"
   sodipodi:nodetypes="cccccccccccccccccccc"
   style="stroke:#ffffff;stroke-width:8;fill:#fff;stroke-miterlimit:4;stroke-dasharray:none;stroke-opacity:1"
   d="m9 4c-2 0-3 1-3 3v21c0 2 2 4 4 4h11v7h-9c-2 2-2 3 0 5h22c2-2 2-3 0-5h-9v-7h13c2 0 4-2 4-4v-14c0-2-2-4-4-4h-14v-3c0-2-1-3-3-3h-12z" /><path
   id="path1365"
   sodipodi:nodetypes="cccccccccccccccccccc"
   d="m9 4c-2 0-3 1-3 3v21c0 2 2 4 4 4h11v7h-9c-2 2-2 3 0 5h22c2-2 2-3 0-5h-9v-7h13c2 0 4-2 4-4v-14c0-2-2-4-4-4h-14v-3c0-2-1-3-3-3h-12z" />
<path
   id="path1306"
   sodipodi:nodetypes="cccc"
   style="stroke-linejoin:round;stroke:#fff;stroke-linecap:round;stroke-width:4;fill:none"
   d="m11 12h8v4h18" /></svg>