<?xml version="1.0" encoding="UTF-8" standalone="no"?>
<!-- Created with Inkscape (http://www.inkscape.org/) -->

<svg
   xmlns:dc="http://purl.org/dc/elements/1.1/"
   xmlns:cc="http://creativecommons.org/ns#"
   xmlns:rdf="http://www.w3.org/1999/02/22-rdf-syntax-ns#"
   xmlns:svg="http://www.w3.org/2000/svg"
   xmlns="http://www.w3.org/2000/svg"
   xmlns:sodipodi="http://sodipodi.sourceforge.net/DTD/sodipodi-0.dtd"
   xmlns:inkscape="http://www.inkscape.org/namespaces/inkscape"
   version="1.1"
   width="48"
   height="48"
   viewBox="0 0 48 48"
   id="svg1358"
   xml:space="preserve"
   inkscape:version="0.48.3.1 r9886"
   sodipodi:docname="gtk-network.svg"><sodipodi:namedview
   pagecolor="#ffffff"
   bordercolor="#666666"
   borderopacity="1"
   objecttolerance="10"
   gridtolerance="10"
   guidetolerance="10"
   inkscape:pageopacity="0"
   inkscape:pageshadow="2"
   inkscape:window-width="1366"
   inkscape:window-height="717"
   id="namedview11"
   showgrid="false"
   inkscape:zoom="4.9166667"
   inkscape:cx="24"
   inkscape:cy="24"
   inkscape:window-x="0"
   inkscape:window-y="0"
   inkscape:window-maximized="1"
   inkscape:current-layer="svg1358" /><defs
   id="defs9" />
<metadata
   id="metadata1375">
  <rdf:RDF>
    <cc:Work
   rdf:about="">
      <dc:format>image/svg+xml</dc:format>
      <dc:type
   rdf:resource="http://purl.org/dc/dcmitype/StillImage" />
      <dc:title />
      <dc:description>A folder</dc:description>
      <cc:license
   rdf:resource="http://creativecommons.org/licenses/LGPL/2.1/" />
      <dc:contributor>
        <cc:Agent>
          <dc:title />
        </cc:Agent>
      </dc:contributor>
      <dc:subject>
        <rdf:Bag>
          <rdf:li>folder</rdf:li>
          <rdf:li>directory</rdf:li>
        </rdf:Bag>
      </dc:subject>
    </cc:Work>
    <cc:License
   rdf:about="http://creativecommons.org/licenses/LGPL/2.1/"><cc:permits
     rdf:resource="http://web.resource.org/cc/Reproduction" /><cc:permits
     rdf:resource="http://web.resource.org/cc/Distribution" /><cc:requires
     rdf:resource="http://web.resource.org/cc/Notice" /><cc:permits
     rdf:resource="http://web.resource.org/cc/DerivativeWorks" /><cc:requires
     rdf:resource="http://web.resource.org/cc/ShareAlike" /><cc:requires
     rdf:resource="http://web.resource.org/cc/SourceCode" /></cc:License></rdf:RDF></metadata>
	<path
   inkscape:connector-curvature="0"
   style="stroke:#ffffff;stroke-width:8;stroke-miterlimit:4;stroke-opacity:1;stroke-dasharray:none"
   id="path3753"
   d="M 7,8.9999998 C 5,8.9999998 4,9.9999995 4,12 v 25 c 0,2 2,4 4,4 h 32 c 1.999999,0 4,-2 4,-4 V 18.999999 c 0,-1.999999 -2.000001,-4 -4,-4 H 21.999999 V 12 c 0,-2.0000005 -1,-3.0000002 -2.999999,-3.0000002 H 7 z" /><path
   d="M 7,8.9999998 C 5,8.9999998 4,9.9999995 4,12 v 25 c 0,2 2,4 4,4 h 32 c 1.999999,0 4,-2 4,-4 V 18.999999 c 0,-1.999999 -2.000001,-4 -4,-4 H 21.999999 V 12 c 0,-2.0000005 -1,-3.0000002 -2.999999,-3.0000002 H 7 z"
   id="path1365"
   style="stroke:none"
   inkscape:connector-curvature="0" /><rect
   width="51"
   height="51"
   x="-1.75"
   y="0.15254237"
   id="rect4762"
   style="fill:none" />
<rect
   width="14.588996"
   height="14.480699"
   rx="0.92726576"
   ry="0.95719874"
   x="23.9589"
   y="21.571228"
   id="rect5523"
   style="fill:#000000;fill-opacity:1;stroke:#ffffff;stroke-width:1.55918181;stroke-miterlimit:3.9000001;stroke-opacity:1;stroke-dasharray:none;stroke-dashoffset:0" /><rect
   width="17.506796"
   height="17.376841"
   rx="0"
   ry="0"
   x="22.5"
   y="20.123159"
   id="rect6226"
   style="fill:none;stroke-width:2;stroke-miterlimit:3.9000001;stroke-dasharray:none;stroke-dashoffset:0" /><rect
   width="11.087638"
   height="11.005332"
   rx="0.88090289"
   ry="0.97928786"
   x="25.709579"
   y="23.30891"
   id="rect3754"
   style="fill:#faffff;fill-opacity:1;stroke:none" /><path
   d="M 29.429774,24.467368 V 27.00149 H 27.60615 v 5.79228 h 7.294497 v -5.79228 h -1.823625 v -2.534122 h -3.647248 z"
   id="rect6423"
   style="stroke-width:2;stroke-miterlimit:3.9000001;stroke-dasharray:none;stroke-dashoffset:0"
   inkscape:connector-curvature="0" /></svg>