<?xml version="1.0" encoding="UTF-8" standalone="no"?>
<!-- Created with Inkscape (http://www.inkscape.org/) -->

<svg
   xmlns:dc="http://purl.org/dc/elements/1.1/"
   xmlns:cc="http://creativecommons.org/ns#"
   xmlns:rdf="http://www.w3.org/1999/02/22-rdf-syntax-ns#"
   xmlns:svg="http://www.w3.org/2000/svg"
   xmlns="http://www.w3.org/2000/svg"
   xmlns:sodipodi="http://sodipodi.sourceforge.net/DTD/sodipodi-0.dtd"
   xmlns:inkscape="http://www.inkscape.org/namespaces/inkscape"
   version="1.1"
   width="48"
   height="48"
   viewBox="0 0 48 48"
   id="svg1358"
   xml:space="preserve"
   inkscape:version="0.48.3.1 r9886"
   sodipodi:docname="folder.svg"><sodipodi:namedview
   pagecolor="#ffffff"
   bordercolor="#666666"
   borderopacity="1"
   objecttolerance="10"
   gridtolerance="10"
   guidetolerance="10"
   inkscape:pageopacity="0"
   inkscape:pageshadow="2"
   inkscape:window-width="1366"
   inkscape:window-height="717"
   id="namedview8"
   showgrid="false"
   inkscape:zoom="9.8333333"
   inkscape:cx="20.214066"
   inkscape:cy="27.080182"
   inkscape:window-x="0"
   inkscape:window-y="0"
   inkscape:window-maximized="1"
   inkscape:current-layer="svg1358" /><defs
   id="defs9" />
<metadata
   id="metadata1375">
  <rdf:RDF>
    <cc:Work
   rdf:about="">
      <dc:format>image/svg+xml</dc:format>
      <dc:type
   rdf:resource="http://purl.org/dc/dcmitype/StillImage" />
      <dc:title />
      <dc:description>A folder</dc:description>
      <cc:license
   rdf:resource="http://creativecommons.org/licenses/LGPL/2.1/" />
      <dc:contributor>
        <cc:Agent>
          <dc:title />
        </cc:Agent>
      </dc:contributor>
      <dc:subject>
        <rdf:Bag>
          <rdf:li>folder</rdf:li>
          <rdf:li>directory</rdf:li>
        </rdf:Bag>
      </dc:subject>
    </cc:Work>
    <cc:License
   rdf:about="http://creativecommons.org/licenses/LGPL/2.1/"><cc:permits
     rdf:resource="http://web.resource.org/cc/Reproduction" /><cc:permits
     rdf:resource="http://web.resource.org/cc/Distribution" /><cc:requires
     rdf:resource="http://web.resource.org/cc/Notice" /><cc:permits
     rdf:resource="http://web.resource.org/cc/DerivativeWorks" /><cc:requires
     rdf:resource="http://web.resource.org/cc/ShareAlike" /><cc:requires
     rdf:resource="http://web.resource.org/cc/SourceCode" /></cc:License></rdf:RDF></metadata>
	
<path
   inkscape:connector-curvature="0"
   style="stroke:#ffffff;stroke-width:8;stroke-miterlimit:4;stroke-opacity:1;stroke-dasharray:none"
   id="path3753"
   d="M 7,9 C 5,9 4,10 4,12 v 25 c 0,2 2,4 4,4 h 32 c 1.999999,0 4,-2 4,-4 V 18.999999 C 44,17 41.999999,15 40,15 H 21.999999 v -3 c 0,-2 -1,-3 -2.999999,-3 H 7 z" /><path
   d="M 7,9 C 5,9 4,10 4,12 v 25 c 0,2 2,4 4,4 h 32 c 1.999999,0 4,-2 4,-4 V 18.999999 C 44,17 41.999999,15 40,15 H 21.999999 v -3 c 0,-2 -1,-3 -2.999999,-3 H 7 z"
   id="path1365"
   style="stroke:none"
   inkscape:connector-curvature="0" /><path
   d="m 8.978814,16.926133 h 8 v 4 h 21.999999"
   id="path1306"
   style="fill:none;stroke:#ffffff;stroke-width:3.99999976;stroke-linecap:round;stroke-linejoin:round"
   inkscape:connector-curvature="0" /></svg>