<?xml version="1.0" encoding="UTF-8" standalone="no"?>
<!-- Created with Inkscape (http://www.inkscape.org/) -->

<svg
   xmlns:dc="http://purl.org/dc/elements/1.1/"
   xmlns:cc="http://creativecommons.org/ns#"
   xmlns:rdf="http://www.w3.org/1999/02/22-rdf-syntax-ns#"
   xmlns:svg="http://www.w3.org/2000/svg"
   xmlns="http://www.w3.org/2000/svg"
   xmlns:sodipodi="http://sodipodi.sourceforge.net/DTD/sodipodi-0.dtd"
   xmlns:inkscape="http://www.inkscape.org/namespaces/inkscape"
   id="svg5541"
   height="48px"
   width="48px"
   version="1.1"
   inkscape:version="0.48.3.1 r9886"
   sodipodi:docname="library-podcast.svg">
  <defs
     id="defs10" />
  <sodipodi:namedview
     pagecolor="#ffffff"
     bordercolor="#666666"
     borderopacity="1"
     objecttolerance="10"
     gridtolerance="10"
     guidetolerance="10"
     inkscape:pageopacity="0"
     inkscape:pageshadow="2"
     inkscape:window-width="736"
     inkscape:window-height="480"
     id="namedview8"
     showgrid="false"
     inkscape:zoom="4.9166667"
     inkscape:cx="24"
     inkscape:cy="24"
     inkscape:window-x="0"
     inkscape:window-y="0"
     inkscape:window-maximized="0"
     inkscape:current-layer="layer1" />
  <metadata
     id="metadata5546">
    <rdf:RDF>
      <cc:Work
         rdf:about="">
        <dc:format>image/svg+xml</dc:format>
        <dc:type
           rdf:resource="http://purl.org/dc/dcmitype/StillImage" />
        <dc:title>Podcast library</dc:title>
        <dc:date>June 2007</dc:date>
        <dc:creator>
          <cc:Agent>
            <dc:title>Andreas Nilsson</dc:title>
          </cc:Agent>
        </dc:creator>
        <cc:license
           rdf:resource="http://www.fsf.org/licensing/licenses/gpl.html" />
      </cc:Work>
    </rdf:RDF>
  </metadata>
  <g
     id="layer1">
    <path
       id="path5553"
       style="stroke:#fff;stroke-width:0.77280128;stroke-miterlimit:4;stroke-dasharray:none"
       d="m29.763 24.158a5.6675 5.6675 0 1 1 -11.336 0 5.6675 5.6675 0 1 1 11.336 0z"
       transform="matrix(3.8941 0 0 3.8699 -69.865 -69.454)" />
    <path
       id="path5539"
       style="stroke:#fff;stroke-width:1.623"
       d="m29.763 24.158a5.6675 5.6675 0 1 1 -11.336 0 5.6675 5.6675 0 1 1 11.336 0z"
       transform="matrix(2.4726 0 0 2.4565 -35.6 -35.459)" />
    <path
       id="path5537"
       style="stroke:#fff;stroke-width:3.8066"
       d="m29.763 24.158a5.6675 5.6675 0 1 1 -11.336 0 5.6675 5.6675 0 1 1 11.336 0z"
       transform="matrix(1.0526 0 0 1.049 -1.3934 -1.2798)" />
  </g>
</svg>
