<?xml version="1.0" encoding="UTF-8" standalone="no"?>
<!-- Created with Inkscape (http://www.inkscape.org/) -->

<svg
   xmlns:dc="http://purl.org/dc/elements/1.1/"
   xmlns:cc="http://creativecommons.org/ns#"
   xmlns:rdf="http://www.w3.org/1999/02/22-rdf-syntax-ns#"
   xmlns:svg="http://www.w3.org/2000/svg"
   xmlns="http://www.w3.org/2000/svg"
   xmlns:sodipodi="http://sodipodi.sourceforge.net/DTD/sodipodi-0.dtd"
   xmlns:inkscape="http://www.inkscape.org/namespaces/inkscape"
   version="1.1"
   width="48"
   height="48"
   id="svg1307"
   inkscape:version="0.48.3.1 r9886"
   sodipodi:docname="stock_music-library.svg">
  <sodipodi:namedview
     pagecolor="#ffffff"
     bordercolor="#666666"
     borderopacity="1"
     objecttolerance="10"
     gridtolerance="10"
     guidetolerance="10"
     inkscape:pageopacity="0"
     inkscape:pageshadow="2"
     inkscape:window-width="1366"
     inkscape:window-height="717"
     id="namedview39"
     showgrid="false"
     inkscape:zoom="4.9166667"
     inkscape:cx="-10.474576"
     inkscape:cy="24"
     inkscape:window-x="0"
     inkscape:window-y="0"
     inkscape:window-maximized="1"
     inkscape:current-layer="svg1307" />
  <defs
     id="defs17" />
  <metadata
     id="metadata1312">
    <rdf:RDF>
      <cc:Work
         rdf:about="">
        <dc:format>image/svg+xml</dc:format>
        <dc:type
           rdf:resource="http://purl.org/dc/dcmitype/StillImage" />
        <dc:title />
      </cc:Work>
    </rdf:RDF>
  </metadata>
  <g
     transform="matrix(0.92415672,0,0,0.93647017,2.0429546,1.0926715)"
     id="g3052"
     style="stroke:#ffffff;stroke-opacity:1;stroke-width:17.19888115999999911;stroke-miterlimit:4;stroke-dasharray:none">
    <g
       transform="translate(0.61016949,-1.6271186)"
       id="g3054"
       style="stroke:#ffffff;stroke-opacity:1;stroke-width:17.19888115999999911;stroke-miterlimit:4;stroke-dasharray:none">
      <g
         transform="translate(-0.04192691,-9.1106156)"
         id="g3056"
         style="stroke:#ffffff;stroke-opacity:1;stroke-width:17.19888115999999911;stroke-miterlimit:4;stroke-dasharray:none">
        <g
           transform="matrix(0.78947368,0,0,0.78947368,10.747547,9.527208)"
           id="g3058"
           style="stroke:#ffffff;stroke-width:21.78524958999999939;stroke-miterlimit:4;stroke-opacity:1;stroke-dasharray:none">
          <path
             inkscape:connector-curvature="0"
             d="m 37,24 a 13,13 0 1 1 -26,0 13,13 0 1 1 26,0 z"
             id="path3060"
             style="fill:none;stroke:#ffffff;stroke-width:21.78524958999999939;stroke-miterlimit:4;stroke-opacity:1;stroke-dasharray:none" />
          <path
             inkscape:connector-curvature="0"
             d="m 37,24 a 13,13 0 1 1 -26,0 13,13 0 1 1 26,0 z"
             id="path3062"
             style="fill:none;stroke:#ffffff;stroke-width:21.78524958999999939;stroke-miterlimit:4;stroke-opacity:1;stroke-dasharray:none" />
          <path
             inkscape:connector-curvature="0"
             d="m 30.5,12.74167 a 13,13 0 0 1 6.302501,9.000904"
             transform="matrix(1.0258948,0,0,1.0258948,-0.6482627,-0.13018441)"
             id="path3064"
             style="fill:none;stroke:#ffffff;stroke-width:21.23536408000000009;stroke-miterlimit:4;stroke-opacity:1;stroke-dasharray:none" />
          <path
             inkscape:connector-curvature="0"
             d="M 17.5,35.25833 A 13,13 0 0 1 11.197499,26.257427"
             id="path3066"
             style="fill:none;stroke:#ffffff;stroke-width:21.78524958999999939;stroke-miterlimit:4;stroke-opacity:1;stroke-dasharray:none" />
        </g>
        <g
           transform="matrix(0.78947368,0,0,0.78947368,10.747547,9.527208)"
           id="g3068"
           style="stroke:#ffffff;stroke-opacity:1;stroke-width:21.78524958999999939;stroke-miterlimit:4;stroke-dasharray:none">
          <path
             inkscape:connector-curvature="0"
             d="m 37,24 a 13,13 0 1 1 -26,0 13,13 0 1 1 26,0 z"
             id="path3070"
             style="fill:none;stroke:#ffffff;stroke-opacity:1;stroke-width:21.78524958999999939;stroke-miterlimit:4;stroke-dasharray:none" />
          <path
             inkscape:connector-curvature="0"
             d="m 37,24 a 13,13 0 1 1 -26,0 13,13 0 1 1 26,0 z"
             id="path3072"
             style="fill:none;stroke:#ffffff;stroke-width:21.78524958999999939;stroke-opacity:1;stroke-miterlimit:4;stroke-dasharray:none" />
          <path
             inkscape:connector-curvature="0"
             d="m 30.5,12.74167 a 13,13 0 0 1 6.302501,9.000904"
             transform="matrix(1.0258948,0,0,1.0258948,-0.6482627,-0.13018441)"
             id="path3074"
             style="fill:none;stroke:#ffffff;stroke-width:21.23536408000000009;stroke-opacity:1;stroke-miterlimit:4;stroke-dasharray:none" />
          <path
             inkscape:connector-curvature="0"
             d="M 17.5,35.25833 A 13,13 0 0 1 11.197499,26.257427"
             id="path3076"
             style="fill:none;stroke:#ffffff;stroke-width:21.78524958999999939;stroke-opacity:1;stroke-miterlimit:4;stroke-dasharray:none" />
        </g>
      </g>
      <g
         transform="translate(-6.5419269,-2.6106156)"
         id="g3078"
         style="stroke:#ffffff;stroke-opacity:1;stroke-width:17.19888115999999911;stroke-miterlimit:4;stroke-dasharray:none">
        <g
           transform="matrix(0.78947368,0,0,0.78947368,10.747547,9.527208)"
           id="g3080"
           style="stroke:#ffffff;stroke-width:21.78524958999999939;stroke-miterlimit:4;stroke-opacity:1;stroke-dasharray:none">
          <path
             inkscape:connector-curvature="0"
             d="m 37,24 a 13,13 0 1 1 -26,0 13,13 0 1 1 26,0 z"
             id="path3082"
             style="fill:none;stroke:#ffffff;stroke-width:21.78524958999999939;stroke-miterlimit:4;stroke-opacity:1;stroke-dasharray:none" />
          <path
             inkscape:connector-curvature="0"
             d="m 37,24 a 13,13 0 1 1 -26,0 13,13 0 1 1 26,0 z"
             id="path3084"
             style="fill:none;stroke:#ffffff;stroke-width:21.78524958999999939;stroke-miterlimit:4;stroke-opacity:1;stroke-dasharray:none" />
          <path
             inkscape:connector-curvature="0"
             d="m 30.5,12.74167 a 13,13 0 0 1 6.302501,9.000904"
             transform="matrix(1.0258948,0,0,1.0258948,-0.6482627,-0.13018441)"
             id="path3086"
             style="fill:none;stroke:#ffffff;stroke-width:21.23536408000000009;stroke-miterlimit:4;stroke-opacity:1;stroke-dasharray:none" />
          <path
             inkscape:connector-curvature="0"
             d="M 17.5,35.25833 A 13,13 0 0 1 11.197499,26.257427"
             id="path3088"
             style="fill:none;stroke:#ffffff;stroke-width:21.78524958999999939;stroke-miterlimit:4;stroke-opacity:1;stroke-dasharray:none" />
        </g>
        <g
           transform="matrix(0.78947368,0,0,0.78947368,10.747547,9.527208)"
           id="g3090"
           style="stroke:#ffffff;stroke-opacity:1;stroke-width:21.78524958999999939;stroke-miterlimit:4;stroke-dasharray:none">
          <path
             inkscape:connector-curvature="0"
             d="m 37,24 a 13,13 0 1 1 -26,0 13,13 0 1 1 26,0 z"
             id="path3092"
             style="fill:none;stroke:#ffffff;stroke-opacity:1;stroke-width:21.78524958999999939;stroke-miterlimit:4;stroke-dasharray:none" />
          <path
             inkscape:connector-curvature="0"
             d="m 37,24 a 13,13 0 1 1 -26,0 13,13 0 1 1 26,0 z"
             id="path3094"
             style="fill:none;stroke:#ffffff;stroke-width:21.78524958999999939;stroke-opacity:1;stroke-miterlimit:4;stroke-dasharray:none" />
          <path
             inkscape:connector-curvature="0"
             d="m 30.5,12.74167 a 13,13 0 0 1 6.302501,9.000904"
             transform="matrix(1.0258948,0,0,1.0258948,-0.6482627,-0.13018441)"
             id="path3096"
             style="fill:none;stroke:#ffffff;stroke-width:21.23536408000000009;stroke-opacity:1;stroke-miterlimit:4;stroke-dasharray:none" />
          <path
             inkscape:connector-curvature="0"
             d="M 17.5,35.25833 A 13,13 0 0 1 11.197499,26.257427"
             id="path3098"
             style="fill:none;stroke:#ffffff;stroke-width:21.78524958999999939;stroke-opacity:1;stroke-miterlimit:4;stroke-dasharray:none" />
        </g>
      </g>
      <g
         transform="translate(-13.041927,3.8893844)"
         id="g3100"
         style="stroke:#ffffff;stroke-opacity:1;stroke-width:17.19888115999999911;stroke-miterlimit:4;stroke-dasharray:none">
        <g
           transform="matrix(0.78947368,0,0,0.78947368,10.747547,9.527208)"
           id="g3102"
           style="stroke:#ffffff;stroke-width:21.78524958999999939;stroke-miterlimit:4;stroke-opacity:1;stroke-dasharray:none">
          <path
             inkscape:connector-curvature="0"
             d="m 37,24 a 13,13 0 1 1 -26,0 13,13 0 1 1 26,0 z"
             id="path3104"
             style="fill:none;stroke:#ffffff;stroke-width:21.78524958999999939;stroke-miterlimit:4;stroke-opacity:1;stroke-dasharray:none" />
          <path
             inkscape:connector-curvature="0"
             d="m 37,24 a 13,13 0 1 1 -26,0 13,13 0 1 1 26,0 z"
             id="path3106"
             style="fill:none;stroke:#ffffff;stroke-width:21.78524958999999939;stroke-miterlimit:4;stroke-opacity:1;stroke-dasharray:none" />
          <path
             inkscape:connector-curvature="0"
             d="m 30.5,12.74167 a 13,13 0 0 1 6.302501,9.000904"
             transform="matrix(1.0258948,0,0,1.0258948,-0.6482627,-0.13018441)"
             id="path3108"
             style="fill:none;stroke:#ffffff;stroke-width:21.23536408000000009;stroke-miterlimit:4;stroke-opacity:1;stroke-dasharray:none" />
          <path
             inkscape:connector-curvature="0"
             d="M 17.5,35.25833 A 13,13 0 0 1 11.197499,26.257427"
             id="path3110"
             style="fill:none;stroke:#ffffff;stroke-width:21.78524958999999939;stroke-miterlimit:4;stroke-opacity:1;stroke-dasharray:none" />
        </g>
        <g
           transform="matrix(0.78947368,0,0,0.78947368,10.747547,9.527208)"
           id="g3112"
           style="stroke:#ffffff;stroke-opacity:1;stroke-width:21.78524958999999939;stroke-miterlimit:4;stroke-dasharray:none">
          <path
             inkscape:connector-curvature="0"
             d="m 37,24 a 13,13 0 1 1 -26,0 13,13 0 1 1 26,0 z"
             id="path3114"
             style="fill:none;stroke:#ffffff;stroke-opacity:1;stroke-width:21.78524958999999939;stroke-miterlimit:4;stroke-dasharray:none" />
          <path
             inkscape:connector-curvature="0"
             d="m 37,24 a 13,13 0 1 1 -26,0 13,13 0 1 1 26,0 z"
             id="path3116"
             style="fill:none;stroke:#ffffff;stroke-width:21.78524958999999939;stroke-opacity:1;stroke-miterlimit:4;stroke-dasharray:none" />
          <path
             inkscape:connector-curvature="0"
             d="m 30.5,12.74167 a 13,13 0 0 1 6.302501,9.000904"
             transform="matrix(1.0258948,0,0,1.0258948,-0.6482627,-0.13018441)"
             id="path3118"
             style="fill:none;stroke:#ffffff;stroke-width:21.23536408000000009;stroke-opacity:1;stroke-miterlimit:4;stroke-dasharray:none" />
          <path
             inkscape:connector-curvature="0"
             d="M 17.5,35.25833 A 13,13 0 0 1 11.197499,26.257427"
             id="path3120"
             style="fill:none;stroke:#ffffff;stroke-width:21.78524958999999939;stroke-opacity:1;stroke-miterlimit:4;stroke-dasharray:none" />
        </g>
      </g>
    </g>
  </g>
  <g
     id="g3016"
     transform="matrix(0.92415672,0,0,0.93647017,2.0429546,1.0926715)">
    <g
       id="layer1"
       transform="translate(0.61016949,-1.6271186)">
      <g
         id="g3816"
         transform="translate(-0.04192691,-9.1106156)">
        <g
           style="stroke:#ffffff;stroke-width:17.73333359;stroke-miterlimit:4;stroke-opacity:1;stroke-dasharray:none"
           id="g3818"
           transform="matrix(0.78947368,0,0,0.78947368,10.747547,9.527208)">
          <path
             style="fill:none;stroke:#ffffff;stroke-width:17.73333359;stroke-miterlimit:4;stroke-opacity:1;stroke-dasharray:none"
             id="path3820"
             d="m 37,24 a 13,13 0 1 1 -26,0 13,13 0 1 1 26,0 z"
             inkscape:connector-curvature="0" />
          <path
             style="fill:none;stroke:#ffffff;stroke-width:17.73333359;stroke-miterlimit:4;stroke-opacity:1;stroke-dasharray:none"
             id="path3822"
             d="m 37,24 a 13,13 0 1 1 -26,0 13,13 0 1 1 26,0 z"
             inkscape:connector-curvature="0" />
          <path
             style="fill:none;stroke:#ffffff;stroke-width:17.28572273;stroke-miterlimit:4;stroke-opacity:1;stroke-dasharray:none"
             id="path3824"
             transform="matrix(1.0258948,0,0,1.0258948,-0.6482627,-0.13018441)"
             d="m 30.5,12.74167 a 13,13 0 0 1 6.302501,9.000904"
             inkscape:connector-curvature="0" />
          <path
             style="fill:none;stroke:#ffffff;stroke-width:17.73333359;stroke-miterlimit:4;stroke-opacity:1;stroke-dasharray:none"
             id="path3826"
             d="M 17.5,35.25833 A 13,13 0 0 1 11.197499,26.257427"
             inkscape:connector-curvature="0" />
        </g>
        <g
           id="g3828"
           transform="matrix(0.78947368,0,0,0.78947368,10.747547,9.527208)">
          <path
             style="fill:none;stroke:none"
             id="path3830"
             d="m 37,24 a 13,13 0 1 1 -26,0 13,13 0 1 1 26,0 z"
             inkscape:connector-curvature="0" />
          <path
             style="fill:none;stroke:#000000;stroke-width:12"
             id="path3832"
             d="m 37,24 a 13,13 0 1 1 -26,0 13,13 0 1 1 26,0 z"
             inkscape:connector-curvature="0" />
          <path
             style="fill:none;stroke:#ffffff;stroke-width:6"
             id="path3834"
             transform="matrix(1.0258948,0,0,1.0258948,-0.6482627,-0.13018441)"
             d="m 30.5,12.74167 a 13,13 0 0 1 6.302501,9.000904"
             inkscape:connector-curvature="0" />
          <path
             style="fill:none;stroke:#ffffff;stroke-width:6"
             id="path3836"
             d="M 17.5,35.25833 A 13,13 0 0 1 11.197499,26.257427"
             inkscape:connector-curvature="0" />
        </g>
      </g>
      <g
         id="g3794"
         transform="translate(-6.5419269,-2.6106156)">
        <g
           style="stroke:#ffffff;stroke-width:17.73333359;stroke-miterlimit:4;stroke-opacity:1;stroke-dasharray:none"
           id="g3796"
           transform="matrix(0.78947368,0,0,0.78947368,10.747547,9.527208)">
          <path
             style="fill:none;stroke:#ffffff;stroke-width:17.73333359;stroke-miterlimit:4;stroke-opacity:1;stroke-dasharray:none"
             id="path3798"
             d="m 37,24 a 13,13 0 1 1 -26,0 13,13 0 1 1 26,0 z"
             inkscape:connector-curvature="0" />
          <path
             style="fill:none;stroke:#ffffff;stroke-width:17.73333359;stroke-miterlimit:4;stroke-opacity:1;stroke-dasharray:none"
             id="path3800"
             d="m 37,24 a 13,13 0 1 1 -26,0 13,13 0 1 1 26,0 z"
             inkscape:connector-curvature="0" />
          <path
             style="fill:none;stroke:#ffffff;stroke-width:17.28572273;stroke-miterlimit:4;stroke-opacity:1;stroke-dasharray:none"
             id="path3802"
             transform="matrix(1.0258948,0,0,1.0258948,-0.6482627,-0.13018441)"
             d="m 30.5,12.74167 a 13,13 0 0 1 6.302501,9.000904"
             inkscape:connector-curvature="0" />
          <path
             style="fill:none;stroke:#ffffff;stroke-width:17.73333359;stroke-miterlimit:4;stroke-opacity:1;stroke-dasharray:none"
             id="path3804"
             d="M 17.5,35.25833 A 13,13 0 0 1 11.197499,26.257427"
             inkscape:connector-curvature="0" />
        </g>
        <g
           id="g3806"
           transform="matrix(0.78947368,0,0,0.78947368,10.747547,9.527208)">
          <path
             style="fill:none;stroke:none"
             id="path3808"
             d="m 37,24 a 13,13 0 1 1 -26,0 13,13 0 1 1 26,0 z"
             inkscape:connector-curvature="0" />
          <path
             style="fill:none;stroke:#000000;stroke-width:12"
             id="path3810"
             d="m 37,24 a 13,13 0 1 1 -26,0 13,13 0 1 1 26,0 z"
             inkscape:connector-curvature="0" />
          <path
             style="fill:none;stroke:#ffffff;stroke-width:6"
             id="path3812"
             transform="matrix(1.0258948,0,0,1.0258948,-0.6482627,-0.13018441)"
             d="m 30.5,12.74167 a 13,13 0 0 1 6.302501,9.000904"
             inkscape:connector-curvature="0" />
          <path
             style="fill:none;stroke:#ffffff;stroke-width:6"
             id="path3814"
             d="M 17.5,35.25833 A 13,13 0 0 1 11.197499,26.257427"
             inkscape:connector-curvature="0" />
        </g>
      </g>
      <g
         id="g3782"
         transform="translate(-13.041927,3.8893844)">
        <g
           style="stroke:#ffffff;stroke-width:17.73333359;stroke-miterlimit:4;stroke-opacity:1;stroke-dasharray:none"
           id="g3772"
           transform="matrix(0.78947368,0,0,0.78947368,10.747547,9.527208)">
          <path
             style="fill:none;stroke:#ffffff;stroke-width:17.73333359;stroke-miterlimit:4;stroke-opacity:1;stroke-dasharray:none"
             id="path3774"
             d="m 37,24 a 13,13 0 1 1 -26,0 13,13 0 1 1 26,0 z"
             inkscape:connector-curvature="0" />
          <path
             style="fill:none;stroke:#ffffff;stroke-width:17.73333359;stroke-miterlimit:4;stroke-opacity:1;stroke-dasharray:none"
             id="path3776"
             d="m 37,24 a 13,13 0 1 1 -26,0 13,13 0 1 1 26,0 z"
             inkscape:connector-curvature="0" />
          <path
             style="fill:none;stroke:#ffffff;stroke-width:17.28572273;stroke-miterlimit:4;stroke-opacity:1;stroke-dasharray:none"
             id="path3778"
             transform="matrix(1.0258948,0,0,1.0258948,-0.6482627,-0.13018441)"
             d="m 30.5,12.74167 a 13,13 0 0 1 6.302501,9.000904"
             inkscape:connector-curvature="0" />
          <path
             style="fill:none;stroke:#ffffff;stroke-width:17.73333359;stroke-miterlimit:4;stroke-opacity:1;stroke-dasharray:none"
             id="path3780"
             d="M 17.5,35.25833 A 13,13 0 0 1 11.197499,26.257427"
             inkscape:connector-curvature="0" />
        </g>
        <g
           id="g2988"
           transform="matrix(0.78947368,0,0,0.78947368,10.747547,9.527208)">
          <path
             style="fill:none;stroke:none"
             id="path5706"
             d="m 37,24 a 13,13 0 1 1 -26,0 13,13 0 1 1 26,0 z"
             inkscape:connector-curvature="0" />
          <path
             style="fill:none;stroke:#000000;stroke-width:12"
             id="path3954"
             d="m 37,24 a 13,13 0 1 1 -26,0 13,13 0 1 1 26,0 z"
             inkscape:connector-curvature="0" />
          <path
             style="fill:none;stroke:#ffffff;stroke-width:6"
             id="path4829"
             transform="matrix(1.0258948,0,0,1.0258948,-0.6482627,-0.13018441)"
             d="m 30.5,12.74167 a 13,13 0 0 1 6.302501,9.000904"
             inkscape:connector-curvature="0" />
          <path
             style="fill:none;stroke:#ffffff;stroke-width:6"
             id="path5704"
             d="M 17.5,35.25833 A 13,13 0 0 1 11.197499,26.257427"
             inkscape:connector-curvature="0" />
        </g>
      </g>
    </g>
  </g>
</svg>
